There are total 24 track in this midi file
Track 1:size = 11
Track 2:size = 730
Track 3:size = 3012
Track 4:size = 1610
Track 5:size = 186
Track 6:size = 210
Track 7:size = 704
Track 8:size = 1760
Track 9:size = 6
Track 10:size = 242
Track 11:size = 474
Track 12:size = 474
Track 13:size = 250
Track 14:size = 628
Track 15:size = 858
Track 16:size = 468
Track 17:size = 940
Track 18:size = 602
Track 19:size = 3
Track 20:size = 3
Track 21:size = 3
Track 22:size = 3
Track 23:size = 3
Track 24:size = 3
Track 1: size = 11
@0 $0.0 Other meta message: class javax.sound.midi.MetaMessage
@0 $0.0 Other meta message: class javax.sound.midi.MetaMessage
@0 $0.0 Other meta message: class javax.sound.midi.MetaMessage
@0 $0.0 Other meta message: class javax.sound.midi.MetaMessage
@0 $0.0 Other meta message: class javax.sound.midi.MetaMessage
@0 $0.0 Other meta message: class javax.sound.midi.MetaMessage
@0 $0.0 Other meta message: class javax.sound.midi.MetaMessage
@11520 $48.0 Other meta message: class javax.sound.midi.MetaMessage
@30720 $128.0 Other meta message: class javax.sound.midi.MetaMessage
@42480 $177.0 Other meta message: class javax.sound.midi.MetaMessage
@42480 $177.0 Other meta message: class javax.sound.midi.Track$ImmutableEndOfTrack

Track 2: size = 730
@0 $0.0 Other meta message: class javax.sound.midi.MetaMessage
@0 $0.0 Other meta message: class javax.sound.midi.MetaMessage
@0 $0.0 Channel: 0 Other short message:192
@0 $0.0 Channel: 0 Control Change message
@0 $0.0 Channel: 0 Control Change message
@15480 $64.5 Channel: 0 Note on, C#6 key=85 velocity: 100
@15510 $64.625 Channel: 0 Note off, C#6 key=85 velocity: 0
@15510 $64.625 Channel: 0 Note on, D6 key=86 velocity: 100
@15540 $64.75 Channel: 0 Note off, D6 key=86 velocity: 0
@15540 $64.75 Channel: 0 Note on, C#6 key=85 velocity: 100
@15570 $64.875 Channel: 0 Note off, C#6 key=85 velocity: 0
@15570 $64.875 Channel: 0 Note on, B5 key=83 velocity: 100
@15600 $65.0 Channel: 0 Note off, B5 key=83 velocity: 0
@15600 $65.0 Channel: 0 Note on, A5 key=81 velocity: 100
@15630 $65.125 Channel: 0 Note off, A5 key=81 velocity: 0
@15630 $65.125 Channel: 0 Note on, B5 key=83 velocity: 100
@15660 $65.25 Channel: 0 Note off, B5 key=83 velocity: 0
@15660 $65.25 Channel: 0 Note on, A5 key=81 velocity: 100
@15690 $65.375 Channel: 0 Note off, A5 key=81 velocity: 0
@15690 $65.375 Channel: 0 Note on, G#5 key=80 velocity: 100
@15720 $65.5 Channel: 0 Note off, G#5 key=80 velocity: 0
@15720 $65.5 Channel: 0 Note on, F#5 key=78 velocity: 100
@15750 $65.625 Channel: 0 Note off, F#5 key=78 velocity: 0
@15750 $65.625 Channel: 0 Note on, A5 key=81 velocity: 100
@15780 $65.75 Channel: 0 Note off, A5 key=81 velocity: 0
@15780 $65.75 Channel: 0 Note on, G#5 key=80 velocity: 100
@15810 $65.875 Channel: 0 Note off, G#5 key=80 velocity: 0
@15810 $65.875 Channel: 0 Note on, F#5 key=78 velocity: 100
@15840 $66.0 Channel: 0 Note off, F#5 key=78 velocity: 0
@15840 $66.0 Channel: 0 Note on, F5 key=77 velocity: 100
@15870 $66.125 Channel: 0 Note off, F5 key=77 velocity: 0
@15870 $66.125 Channel: 0 Note on, F#5 key=78 velocity: 100
@15900 $66.25 Channel: 0 Note off, F#5 key=78 velocity: 0
@15900 $66.25 Channel: 0 Note on, G#5 key=80 velocity: 100
@15930 $66.375 Channel: 0 Note off, G#5 key=80 velocity: 0
@15930 $66.375 Channel: 0 Note on, F5 key=77 velocity: 100
@15960 $66.5 Channel: 0 Note off, F5 key=77 velocity: 0
@15960 $66.5 Channel: 0 Note on, C#5 key=73 velocity: 100
@15990 $66.625 Channel: 0 Note off, C#5 key=73 velocity: 0
@15990 $66.625 Channel: 0 Note on, D#5 key=75 velocity: 100
@16020 $66.75 Channel: 0 Note off, D#5 key=75 velocity: 0
@16020 $66.75 Channel: 0 Note on, F5 key=77 velocity: 100
@16050 $66.875 Channel: 0 Note off, F5 key=77 velocity: 0
@16050 $66.875 Channel: 0 Note on, C#5 key=73 velocity: 100
@16080 $67.0 Channel: 0 Note off, C#5 key=73 velocity: 0
@16080 $67.0 Channel: 0 Note on, F#5 key=78 velocity: 100
@16110 $67.125 Channel: 0 Note off, F#5 key=78 velocity: 0
@16110 $67.125 Channel: 0 Note on, F5 key=77 velocity: 100
@16140 $67.25 Channel: 0 Note off, F5 key=77 velocity: 0
@16140 $67.25 Channel: 0 Note on, F#5 key=78 velocity: 100
@16170 $67.375 Channel: 0 Note off, F#5 key=78 velocity: 0
@16170 $67.375 Channel: 0 Note on, G#5 key=80 velocity: 100
@16200 $67.5 Channel: 0 Note off, G#5 key=80 velocity: 0
@16200 $67.5 Channel: 0 Note on, A5 key=81 velocity: 100
@16230 $67.625 Channel: 0 Note off, A5 key=81 velocity: 0
@16230 $67.625 Channel: 0 Note on, G#5 key=80 velocity: 100
@16260 $67.75 Channel: 0 Note off, G#5 key=80 velocity: 0
@16260 $67.75 Channel: 0 Note on, A5 key=81 velocity: 100
@16290 $67.875 Channel: 0 Note off, A5 key=81 velocity: 0
@16290 $67.875 Channel: 0 Note on, B5 key=83 velocity: 100
@16320 $68.0 Channel: 0 Note off, B5 key=83 velocity: 0
@16320 $68.0 Channel: 0 Note on, C#6 key=85 velocity: 100
@16350 $68.125 Channel: 0 Note off, C#6 key=85 velocity: 0
@16350 $68.125 Channel: 0 Note on, C6 key=84 velocity: 100
@16380 $68.25 Channel: 0 Note off, C6 key=84 velocity: 0
@16380 $68.25 Channel: 0 Note on, C#6 key=85 velocity: 100
@16410 $68.375 Channel: 0 Note off, C#6 key=85 velocity: 0
@16410 $68.375 Channel: 0 Note on, C6 key=84 velocity: 100
@16440 $68.5 Channel: 0 Note off, C6 key=84 velocity: 0
@16440 $68.5 Channel: 0 Note on, C#6 key=85 velocity: 100
@16470 $68.625 Channel: 0 Note off, C#6 key=85 velocity: 0
@16470 $68.625 Channel: 0 Note on, D6 key=86 velocity: 100
@16500 $68.75 Channel: 0 Note off, D6 key=86 velocity: 0
@16500 $68.75 Channel: 0 Note on, C#6 key=85 velocity: 100
@16530 $68.875 Channel: 0 Note off, C#6 key=85 velocity: 0
@16530 $68.875 Channel: 0 Note on, B5 key=83 velocity: 100
@16560 $69.0 Channel: 0 Note off, B5 key=83 velocity: 0
@16560 $69.0 Channel: 0 Note on, A5 key=81 velocity: 100
@16590 $69.125 Channel: 0 Note off, A5 key=81 velocity: 0
@16590 $69.125 Channel: 0 Note on, B5 key=83 velocity: 100
@16620 $69.25 Channel: 0 Note off, B5 key=83 velocity: 0
@16620 $69.25 Channel: 0 Note on, A5 key=81 velocity: 100
@16650 $69.375 Channel: 0 Note off, A5 key=81 velocity: 0
@16650 $69.375 Channel: 0 Note on, G#5 key=80 velocity: 100
@16680 $69.5 Channel: 0 Note off, G#5 key=80 velocity: 0
@16680 $69.5 Channel: 0 Note on, F#5 key=78 velocity: 100
@16710 $69.625 Channel: 0 Note off, F#5 key=78 velocity: 0
@16710 $69.625 Channel: 0 Note on, A5 key=81 velocity: 100
@16740 $69.75 Channel: 0 Note off, A5 key=81 velocity: 0
@16740 $69.75 Channel: 0 Note on, G#5 key=80 velocity: 100
@16770 $69.875 Channel: 0 Note off, G#5 key=80 velocity: 0
@16770 $69.875 Channel: 0 Note on, F#5 key=78 velocity: 100
@16800 $70.0 Channel: 0 Note off, F#5 key=78 velocity: 0
@16800 $70.0 Channel: 0 Note on, E5 key=76 velocity: 100
@16830 $70.125 Channel: 0 Note off, E5 key=76 velocity: 0
@16830 $70.125 Channel: 0 Note on, F#5 key=78 velocity: 100
@16860 $70.25 Channel: 0 Note off, F#5 key=78 velocity: 0
@16860 $70.25 Channel: 0 Note on, G#5 key=80 velocity: 100
@16890 $70.375 Channel: 0 Note off, G#5 key=80 velocity: 0
@16890 $70.375 Channel: 0 Note on, E5 key=76 velocity: 100
@16920 $70.5 Channel: 0 Note off, E5 key=76 velocity: 0
@16920 $70.5 Channel: 0 Note on, C#5 key=73 velocity: 100
@16950 $70.625 Channel: 0 Note off, C#5 key=73 velocity: 0
@16950 $70.625 Channel: 0 Note on, D#5 key=75 velocity: 100
@16980 $70.75 Channel: 0 Note off, D#5 key=75 velocity: 0
@16980 $70.75 Channel: 0 Note on, E5 key=76 velocity: 100
@17010 $70.875 Channel: 0 Note off, E5 key=76 velocity: 0
@17010 $70.875 Channel: 0 Note on, C#5 key=73 velocity: 100
@17040 $71.0 Channel: 0 Note off, C#5 key=73 velocity: 0
@17040 $71.0 Channel: 0 Note on, D#5 key=75 velocity: 100
@17070 $71.125 Channel: 0 Note off, D#5 key=75 velocity: 0
@17070 $71.125 Channel: 0 Note on, E5 key=76 velocity: 100
@17100 $71.25 Channel: 0 Note off, E5 key=76 velocity: 0
@17100 $71.25 Channel: 0 Note on, F#5 key=78 velocity: 100
@17130 $71.375 Channel: 0 Note off, F#5 key=78 velocity: 0
@17130 $71.375 Channel: 0 Note on, D#5 key=75 velocity: 100
@17160 $71.5 Channel: 0 Note off, D#5 key=75 velocity: 0
@17160 $71.5 Channel: 0 Note on, C5 key=72 velocity: 100
@17190 $71.625 Channel: 0 Note off, C5 key=72 velocity: 0
@17190 $71.625 Channel: 0 Note on, C#5 key=73 velocity: 100
@17220 $71.75 Channel: 0 Note off, C#5 key=73 velocity: 0
@17220 $71.75 Channel: 0 Note on, D#5 key=75 velocity: 100
@17250 $71.875 Channel: 0 Note off, D#5 key=75 velocity: 0
@17250 $71.875 Channel: 0 Note on, C5 key=72 velocity: 100
@17280 $72.0 Channel: 0 Note off, C5 key=72 velocity: 0
@17280 $72.0 Channel: 0 Note on, C#5 key=73 velocity: 100
@17400 $72.5 Channel: 0 Note off, C#5 key=73 velocity: 0
@17400 $72.5 Channel: 0 Note on, C#6 key=85 velocity: 100
@17430 $72.625 Channel: 0 Note off, C#6 key=85 velocity: 0
@17430 $72.625 Channel: 0 Note on, D6 key=86 velocity: 100
@17460 $72.75 Channel: 0 Note off, D6 key=86 velocity: 0
@17460 $72.75 Channel: 0 Note on, C#6 key=85 velocity: 100
@17490 $72.875 Channel: 0 Note off, C#6 key=85 velocity: 0
@17490 $72.875 Channel: 0 Note on, B5 key=83 velocity: 100
@17520 $73.0 Channel: 0 Note off, B5 key=83 velocity: 0
@17520 $73.0 Channel: 0 Note on, A5 key=81 velocity: 100
@17550 $73.125 Channel: 0 Note off, A5 key=81 velocity: 0
@17550 $73.125 Channel: 0 Note on, B5 key=83 velocity: 100
@17580 $73.25 Channel: 0 Note off, B5 key=83 velocity: 0
@17580 $73.25 Channel: 0 Note on, A5 key=81 velocity: 100
@17610 $73.375 Channel: 0 Note off, A5 key=81 velocity: 0
@17610 $73.375 Channel: 0 Note on, G#5 key=80 velocity: 100
@17640 $73.5 Channel: 0 Note off, G#5 key=80 velocity: 0
@17640 $73.5 Channel: 0 Note on, F#5 key=78 velocity: 100
@17670 $73.625 Channel: 0 Note off, F#5 key=78 velocity: 0
@17670 $73.625 Channel: 0 Note on, A5 key=81 velocity: 100
@17700 $73.75 Channel: 0 Note off, A5 key=81 velocity: 0
@17700 $73.75 Channel: 0 Note on, G#5 key=80 velocity: 100
@17730 $73.875 Channel: 0 Note off, G#5 key=80 velocity: 0
@17730 $73.875 Channel: 0 Note on, F#5 key=78 velocity: 100
@17760 $74.0 Channel: 0 Note off, F#5 key=78 velocity: 0
@17760 $74.0 Channel: 0 Note on, F5 key=77 velocity: 100
@17790 $74.125 Channel: 0 Note off, F5 key=77 velocity: 0
@17790 $74.125 Channel: 0 Note on, F#5 key=78 velocity: 100
@17820 $74.25 Channel: 0 Note off, F#5 key=78 velocity: 0
@17820 $74.25 Channel: 0 Note on, G#5 key=80 velocity: 100
@17850 $74.375 Channel: 0 Note off, G#5 key=80 velocity: 0
@17850 $74.375 Channel: 0 Note on, F5 key=77 velocity: 100
@17880 $74.5 Channel: 0 Note off, F5 key=77 velocity: 0
@17880 $74.5 Channel: 0 Note on, C#5 key=73 velocity: 100
@17910 $74.625 Channel: 0 Note off, C#5 key=73 velocity: 0
@17910 $74.625 Channel: 0 Note on, D#5 key=75 velocity: 100
@17940 $74.75 Channel: 0 Note off, D#5 key=75 velocity: 0
@17940 $74.75 Channel: 0 Note on, F5 key=77 velocity: 100
@17970 $74.875 Channel: 0 Note off, F5 key=77 velocity: 0
@17970 $74.875 Channel: 0 Note on, C#5 key=73 velocity: 100
@18000 $75.0 Channel: 0 Note off, C#5 key=73 velocity: 0
@18000 $75.0 Channel: 0 Note on, F#5 key=78 velocity: 100
@18030 $75.125 Channel: 0 Note off, F#5 key=78 velocity: 0
@18030 $75.125 Channel: 0 Note on, F5 key=77 velocity: 100
@18060 $75.25 Channel: 0 Note off, F5 key=77 velocity: 0
@18060 $75.25 Channel: 0 Note on, F#5 key=78 velocity: 100
@18090 $75.375 Channel: 0 Note off, F#5 key=78 velocity: 0
@18090 $75.375 Channel: 0 Note on, G#5 key=80 velocity: 100
@18120 $75.5 Channel: 0 Note off, G#5 key=80 velocity: 0
@18120 $75.5 Channel: 0 Note on, A5 key=81 velocity: 100
@18150 $75.625 Channel: 0 Note off, A5 key=81 velocity: 0
@18150 $75.625 Channel: 0 Note on, G#5 key=80 velocity: 100
@18180 $75.75 Channel: 0 Note off, G#5 key=80 velocity: 0
@18180 $75.75 Channel: 0 Note on, A5 key=81 velocity: 100
@18210 $75.875 Channel: 0 Note off, A5 key=81 velocity: 0
@18210 $75.875 Channel: 0 Note on, B5 key=83 velocity: 100
@18240 $76.0 Channel: 0 Note off, B5 key=83 velocity: 0
@18240 $76.0 Channel: 0 Note on, C#6 key=85 velocity: 100
@18270 $76.125 Channel: 0 Note off, C#6 key=85 velocity: 0
@18270 $76.125 Channel: 0 Note on, C6 key=84 velocity: 100
@18300 $76.25 Channel: 0 Note off, C6 key=84 velocity: 0
@18300 $76.25 Channel: 0 Note on, C#6 key=85 velocity: 100
@18330 $76.375 Channel: 0 Note off, C#6 key=85 velocity: 0
@18330 $76.375 Channel: 0 Note on, C6 key=84 velocity: 100
@18360 $76.5 Channel: 0 Note off, C6 key=84 velocity: 0
@18360 $76.5 Channel: 0 Note on, C#6 key=85 velocity: 100
@18390 $76.625 Channel: 0 Note off, C#6 key=85 velocity: 0
@18390 $76.625 Channel: 0 Note on, D6 key=86 velocity: 100
@18420 $76.75 Channel: 0 Note off, D6 key=86 velocity: 0
@18420 $76.75 Channel: 0 Note on, C#6 key=85 velocity: 100
@18450 $76.875 Channel: 0 Note off, C#6 key=85 velocity: 0
@18450 $76.875 Channel: 0 Note on, B5 key=83 velocity: 100
@18480 $77.0 Channel: 0 Note off, B5 key=83 velocity: 0
@18480 $77.0 Channel: 0 Note on, A5 key=81 velocity: 100
@18510 $77.125 Channel: 0 Note off, A5 key=81 velocity: 0
@18510 $77.125 Channel: 0 Note on, B5 key=83 velocity: 100
@18540 $77.25 Channel: 0 Note off, B5 key=83 velocity: 0
@18540 $77.25 Channel: 0 Note on, A5 key=81 velocity: 100
@18570 $77.375 Channel: 0 Note off, A5 key=81 velocity: 0
@18570 $77.375 Channel: 0 Note on, G#5 key=80 velocity: 100
@18600 $77.5 Channel: 0 Note off, G#5 key=80 velocity: 0
@18600 $77.5 Channel: 0 Note on, F#5 key=78 velocity: 100
@18630 $77.625 Channel: 0 Note off, F#5 key=78 velocity: 0
@18630 $77.625 Channel: 0 Note on, A5 key=81 velocity: 100
@18660 $77.75 Channel: 0 Note off, A5 key=81 velocity: 0
@18660 $77.75 Channel: 0 Note on, G#5 key=80 velocity: 100
@18690 $77.875 Channel: 0 Note off, G#5 key=80 velocity: 0
@18690 $77.875 Channel: 0 Note on, F#5 key=78 velocity: 100
@18720 $78.0 Channel: 0 Note off, F#5 key=78 velocity: 0
@18720 $78.0 Channel: 0 Note on, E5 key=76 velocity: 100
@18750 $78.125 Channel: 0 Note off, E5 key=76 velocity: 0
@18750 $78.125 Channel: 0 Note on, F#5 key=78 velocity: 100
@18780 $78.25 Channel: 0 Note off, F#5 key=78 velocity: 0
@18780 $78.25 Channel: 0 Note on, G#5 key=80 velocity: 100
@18810 $78.375 Channel: 0 Note off, G#5 key=80 velocity: 0
@18810 $78.375 Channel: 0 Note on, E5 key=76 velocity: 100
@18840 $78.5 Channel: 0 Note off, E5 key=76 velocity: 0
@18840 $78.5 Channel: 0 Note on, C#5 key=73 velocity: 100
@18870 $78.625 Channel: 0 Note off, C#5 key=73 velocity: 0
@18870 $78.625 Channel: 0 Note on, D#5 key=75 velocity: 100
@18900 $78.75 Channel: 0 Note off, D#5 key=75 velocity: 0
@18900 $78.75 Channel: 0 Note on, E5 key=76 velocity: 100
@18930 $78.875 Channel: 0 Note off, E5 key=76 velocity: 0
@18930 $78.875 Channel: 0 Note on, C#5 key=73 velocity: 100
@18960 $79.0 Channel: 0 Note off, C#5 key=73 velocity: 0
@18960 $79.0 Channel: 0 Note on, D#5 key=75 velocity: 100
@18990 $79.125 Channel: 0 Note off, D#5 key=75 velocity: 0
@18990 $79.125 Channel: 0 Note on, E5 key=76 velocity: 100
@19020 $79.25 Channel: 0 Note off, E5 key=76 velocity: 0
@19020 $79.25 Channel: 0 Note on, F#5 key=78 velocity: 100
@19050 $79.375 Channel: 0 Note off, F#5 key=78 velocity: 0
@19050 $79.375 Channel: 0 Note on, D#5 key=75 velocity: 100
@19080 $79.5 Channel: 0 Note off, D#5 key=75 velocity: 0
@19080 $79.5 Channel: 0 Note on, C5 key=72 velocity: 100
@19110 $79.625 Channel: 0 Note off, C5 key=72 velocity: 0
@19110 $79.625 Channel: 0 Note on, C#5 key=73 velocity: 100
@19140 $79.75 Channel: 0 Note off, C#5 key=73 velocity: 0
@19140 $79.75 Channel: 0 Note on, D#5 key=75 velocity: 100
@19170 $79.875 Channel: 0 Note off, D#5 key=75 velocity: 0
@19170 $79.875 Channel: 0 Note on, C5 key=72 velocity: 100
@19200 $80.0 Channel: 0 Note off, C5 key=72 velocity: 0
@19200 $80.0 Channel: 0 Note on, C#5 key=73 velocity: 100
@19320 $80.5 Channel: 0 Note off, C#5 key=73 velocity: 0
@19320 $80.5 Channel: 0 Note on, E5 key=76 velocity: 120
@19350 $80.625 Channel: 0 Note off, E5 key=76 velocity: 0
@19350 $80.625 Channel: 0 Note on, D5 key=74 velocity: 120
@19380 $80.75 Channel: 0 Note off, D5 key=74 velocity: 0
@19380 $80.75 Channel: 0 Note on, C#5 key=73 velocity: 120
@19410 $80.875 Channel: 0 Note off, C#5 key=73 velocity: 0
@19410 $80.875 Channel: 0 Note on, B4 key=71 velocity: 120
@19440 $81.0 Channel: 0 Note off, B4 key=71 velocity: 0
@19440 $81.0 Channel: 0 Note on, A4 key=69 velocity: 120
@19470 $81.125 Channel: 0 Note off, A4 key=69 velocity: 0
@19470 $81.125 Channel: 0 Note on, B4 key=71 velocity: 120
@19500 $81.25 Channel: 0 Note off, B4 key=71 velocity: 0
@19500 $81.25 Channel: 0 Note on, C#5 key=73 velocity: 120
@19530 $81.375 Channel: 0 Note off, C#5 key=73 velocity: 0
@19530 $81.375 Channel: 0 Note on, D5 key=74 velocity: 120
@19560 $81.5 Channel: 0 Note off, D5 key=74 velocity: 0
@19560 $81.5 Channel: 0 Note on, E5 key=76 velocity: 120
@19590 $81.625 Channel: 0 Note off, E5 key=76 velocity: 0
@19590 $81.625 Channel: 0 Note on, F#5 key=78 velocity: 120
@19620 $81.75 Channel: 0 Note off, F#5 key=78 velocity: 0
@19620 $81.75 Channel: 0 Note on, G#5 key=80 velocity: 120
@19650 $81.875 Channel: 0 Note off, G#5 key=80 velocity: 0
@19650 $81.875 Channel: 0 Note on, A5 key=81 velocity: 120
@19680 $82.0 Channel: 0 Note off, A5 key=81 velocity: 0
@19680 $82.0 Channel: 0 Note on, A5 key=81 velocity: 120
@19710 $82.125 Channel: 0 Note off, A5 key=81 velocity: 0
@19710 $82.125 Channel: 0 Note on, G#5 key=80 velocity: 120
@19740 $82.25 Channel: 0 Note off, G#5 key=80 velocity: 0
@19740 $82.25 Channel: 0 Note on, F#5 key=78 velocity: 120
@19770 $82.375 Channel: 0 Note off, F#5 key=78 velocity: 0
@19770 $82.375 Channel: 0 Note on, E5 key=76 velocity: 120
@19800 $82.5 Channel: 0 Note off, E5 key=76 velocity: 0
@19800 $82.5 Channel: 0 Note on, E5 key=76 velocity: 120
@19830 $82.625 Channel: 0 Note off, E5 key=76 velocity: 0
@19830 $82.625 Channel: 0 Note on, D5 key=74 velocity: 120
@19860 $82.75 Channel: 0 Note off, D5 key=74 velocity: 0
@19860 $82.75 Channel: 0 Note on, C#5 key=73 velocity: 120
@19890 $82.875 Channel: 0 Note off, C#5 key=73 velocity: 0
@19890 $82.875 Channel: 0 Note on, B4 key=71 velocity: 120
@19920 $83.0 Channel: 0 Note off, B4 key=71 velocity: 0
@19920 $83.0 Channel: 0 Note on, A4 key=69 velocity: 120
@19950 $83.125 Channel: 0 Note off, A4 key=69 velocity: 0
@19950 $83.125 Channel: 0 Note on, B4 key=71 velocity: 120
@19980 $83.25 Channel: 0 Note off, B4 key=71 velocity: 0
@19980 $83.25 Channel: 0 Note on, C#5 key=73 velocity: 120
@20010 $83.375 Channel: 0 Note off, C#5 key=73 velocity: 0
@20010 $83.375 Channel: 0 Note on, D5 key=74 velocity: 120
@20040 $83.5 Channel: 0 Note off, D5 key=74 velocity: 0
@20040 $83.5 Channel: 0 Note on, E5 key=76 velocity: 120
@20070 $83.625 Channel: 0 Note off, E5 key=76 velocity: 0
@20070 $83.625 Channel: 0 Note on, F#5 key=78 velocity: 120
@20100 $83.75 Channel: 0 Note off, F#5 key=78 velocity: 0
@20100 $83.75 Channel: 0 Note on, G#5 key=80 velocity: 120
@20130 $83.875 Channel: 0 Note off, G#5 key=80 velocity: 0
@20130 $83.875 Channel: 0 Note on, A5 key=81 velocity: 120
@20160 $84.0 Channel: 0 Note off, A5 key=81 velocity: 0
@20160 $84.0 Channel: 0 Note on, A#5 key=82 velocity: 120
@20220 $84.25 Channel: 0 Note off, A#5 key=82 velocity: 0
@20220 $84.25 Channel: 0 Note on, B5 key=83 velocity: 120
@20265 $84.4375 Channel: 0 Note off, B5 key=83 velocity: 0
@20280 $84.5 Channel: 0 Note on, E5 key=76 velocity: 120
@20310 $84.625 Channel: 0 Note off, E5 key=76 velocity: 0
@20310 $84.625 Channel: 0 Note on, D5 key=74 velocity: 120
@20340 $84.75 Channel: 0 Note off, D5 key=74 velocity: 0
@20340 $84.75 Channel: 0 Note on, C#5 key=73 velocity: 120
@20370 $84.875 Channel: 0 Note off, C#5 key=73 velocity: 0
@20370 $84.875 Channel: 0 Note on, B4 key=71 velocity: 120
@20400 $85.0 Channel: 0 Note off, B4 key=71 velocity: 0
@20400 $85.0 Channel: 0 Note on, A4 key=69 velocity: 120
@20430 $85.125 Channel: 0 Note off, A4 key=69 velocity: 0
@20430 $85.125 Channel: 0 Note on, B4 key=71 velocity: 120
@20460 $85.25 Channel: 0 Note off, B4 key=71 velocity: 0
@20460 $85.25 Channel: 0 Note on, C#5 key=73 velocity: 120
@20490 $85.375 Channel: 0 Note off, C#5 key=73 velocity: 0
@20490 $85.375 Channel: 0 Note on, D5 key=74 velocity: 120
@20520 $85.5 Channel: 0 Note off, D5 key=74 velocity: 0
@20520 $85.5 Channel: 0 Note on, E5 key=76 velocity: 120
@20550 $85.625 Channel: 0 Note off, E5 key=76 velocity: 0
@20550 $85.625 Channel: 0 Note on, F#5 key=78 velocity: 120
@20580 $85.75 Channel: 0 Note off, F#5 key=78 velocity: 0
@20580 $85.75 Channel: 0 Note on, G#5 key=80 velocity: 120
@20610 $85.875 Channel: 0 Note off, G#5 key=80 velocity: 0
@20610 $85.875 Channel: 0 Note on, A5 key=81 velocity: 120
@20640 $86.0 Channel: 0 Note off, A5 key=81 velocity: 0
@20640 $86.0 Channel: 0 Note on, A5 key=81 velocity: 120
@20670 $86.125 Channel: 0 Note off, A5 key=81 velocity: 0
@20670 $86.125 Channel: 0 Note on, G#5 key=80 velocity: 120
@20700 $86.25 Channel: 0 Note off, G#5 key=80 velocity: 0
@20700 $86.25 Channel: 0 Note on, F#5 key=78 velocity: 120
@20730 $86.375 Channel: 0 Note off, F#5 key=78 velocity: 0
@20730 $86.375 Channel: 0 Note on, E5 key=76 velocity: 120
@20760 $86.5 Channel: 0 Note off, E5 key=76 velocity: 0
@20760 $86.5 Channel: 0 Note on, E5 key=76 velocity: 120
@20790 $86.625 Channel: 0 Note off, E5 key=76 velocity: 0
@20790 $86.625 Channel: 0 Note on, D5 key=74 velocity: 120
@20820 $86.75 Channel: 0 Note off, D5 key=74 velocity: 0
@20820 $86.75 Channel: 0 Note on, C#5 key=73 velocity: 120
@20850 $86.875 Channel: 0 Note off, C#5 key=73 velocity: 0
@20850 $86.875 Channel: 0 Note on, B4 key=71 velocity: 120
@20880 $87.0 Channel: 0 Note off, B4 key=71 velocity: 0
@20880 $87.0 Channel: 0 Note on, C#5 key=73 velocity: 120
@20910 $87.125 Channel: 0 Note off, C#5 key=73 velocity: 0
@20910 $87.125 Channel: 0 Note on, E5 key=76 velocity: 120
@20940 $87.25 Channel: 0 Note off, E5 key=76 velocity: 0
@20940 $87.25 Channel: 0 Note on, A4 key=69 velocity: 120
@20970 $87.375 Channel: 0 Note off, A4 key=69 velocity: 0
@20970 $87.375 Channel: 0 Note on, C#5 key=73 velocity: 120
@21000 $87.5 Channel: 0 Note off, C#5 key=73 velocity: 0
@21000 $87.5 Channel: 0 Note on, B4 key=71 velocity: 120
@21030 $87.625 Channel: 0 Note off, B4 key=71 velocity: 0
@21030 $87.625 Channel: 0 Note on, D5 key=74 velocity: 120
@21060 $87.75 Channel: 0 Note off, D5 key=74 velocity: 0
@21060 $87.75 Channel: 0 Note on, G#4 key=68 velocity: 120
@21090 $87.875 Channel: 0 Note off, G#4 key=68 velocity: 0
@21090 $87.875 Channel: 0 Note on, B4 key=71 velocity: 120
@21120 $88.0 Channel: 0 Note off, B4 key=71 velocity: 0
@21120 $88.0 Channel: 0 Note on, A4 key=69 velocity: 120
@21240 $88.5 Channel: 0 Note off, A4 key=69 velocity: 0
@21240 $88.5 Channel: 0 Note on, C#6 key=85 velocity: 100
@21270 $88.625 Channel: 0 Note off, C#6 key=85 velocity: 0
@21270 $88.625 Channel: 0 Note on, D6 key=86 velocity: 100
@21300 $88.75 Channel: 0 Note off, D6 key=86 velocity: 0
@21300 $88.75 Channel: 0 Note on, C#6 key=85 velocity: 100
@21330 $88.875 Channel: 0 Note off, C#6 key=85 velocity: 0
@21330 $88.875 Channel: 0 Note on, B5 key=83 velocity: 100
@21360 $89.0 Channel: 0 Note off, B5 key=83 velocity: 0
@21360 $89.0 Channel: 0 Note on, A5 key=81 velocity: 100
@21390 $89.125 Channel: 0 Note off, A5 key=81 velocity: 0
@21390 $89.125 Channel: 0 Note on, B5 key=83 velocity: 100
@21420 $89.25 Channel: 0 Note off, B5 key=83 velocity: 0
@21420 $89.25 Channel: 0 Note on, A5 key=81 velocity: 100
@21450 $89.375 Channel: 0 Note off, A5 key=81 velocity: 0
@21450 $89.375 Channel: 0 Note on, G#5 key=80 velocity: 100
@21480 $89.5 Channel: 0 Note off, G#5 key=80 velocity: 0
@21480 $89.5 Channel: 0 Note on, F#5 key=78 velocity: 100
@21510 $89.625 Channel: 0 Note off, F#5 key=78 velocity: 0
@21510 $89.625 Channel: 0 Note on, A5 key=81 velocity: 100
@21540 $89.75 Channel: 0 Note off, A5 key=81 velocity: 0
@21540 $89.75 Channel: 0 Note on, G#5 key=80 velocity: 100
@21570 $89.875 Channel: 0 Note off, G#5 key=80 velocity: 0
@21570 $89.875 Channel: 0 Note on, F#5 key=78 velocity: 100
@21600 $90.0 Channel: 0 Note off, F#5 key=78 velocity: 0
@21600 $90.0 Channel: 0 Note on, F5 key=77 velocity: 100
@21630 $90.125 Channel: 0 Note off, F5 key=77 velocity: 0
@21630 $90.125 Channel: 0 Note on, F#5 key=78 velocity: 100
@21660 $90.25 Channel: 0 Note off, F#5 key=78 velocity: 0
@21660 $90.25 Channel: 0 Note on, G#5 key=80 velocity: 100
@21690 $90.375 Channel: 0 Note off, G#5 key=80 velocity: 0
@21690 $90.375 Channel: 0 Note on, F5 key=77 velocity: 100
@21720 $90.5 Channel: 0 Note off, F5 key=77 velocity: 0
@21720 $90.5 Channel: 0 Note on, C#5 key=73 velocity: 100
@21750 $90.625 Channel: 0 Note off, C#5 key=73 velocity: 0
@21750 $90.625 Channel: 0 Note on, D#5 key=75 velocity: 100
@21780 $90.75 Channel: 0 Note off, D#5 key=75 velocity: 0
@21780 $90.75 Channel: 0 Note on, F5 key=77 velocity: 100
@21810 $90.875 Channel: 0 Note off, F5 key=77 velocity: 0
@21810 $90.875 Channel: 0 Note on, C#5 key=73 velocity: 100
@21840 $91.0 Channel: 0 Note off, C#5 key=73 velocity: 0
@21840 $91.0 Channel: 0 Note on, F#5 key=78 velocity: 100
@21870 $91.125 Channel: 0 Note off, F#5 key=78 velocity: 0
@21870 $91.125 Channel: 0 Note on, F5 key=77 velocity: 100
@21900 $91.25 Channel: 0 Note off, F5 key=77 velocity: 0
@21900 $91.25 Channel: 0 Note on, F#5 key=78 velocity: 100
@21930 $91.375 Channel: 0 Note off, F#5 key=78 velocity: 0
@21930 $91.375 Channel: 0 Note on, G#5 key=80 velocity: 100
@21960 $91.5 Channel: 0 Note off, G#5 key=80 velocity: 0
@21960 $91.5 Channel: 0 Note on, A5 key=81 velocity: 100
@21990 $91.625 Channel: 0 Note off, A5 key=81 velocity: 0
@21990 $91.625 Channel: 0 Note on, G#5 key=80 velocity: 100
@22020 $91.75 Channel: 0 Note off, G#5 key=80 velocity: 0
@22020 $91.75 Channel: 0 Note on, A5 key=81 velocity: 100
@22050 $91.875 Channel: 0 Note off, A5 key=81 velocity: 0
@22050 $91.875 Channel: 0 Note on, B5 key=83 velocity: 100
@22080 $92.0 Channel: 0 Note off, B5 key=83 velocity: 0
@22080 $92.0 Channel: 0 Note on, C#6 key=85 velocity: 100
@22110 $92.125 Channel: 0 Note off, C#6 key=85 velocity: 0
@22110 $92.125 Channel: 0 Note on, C6 key=84 velocity: 100
@22140 $92.25 Channel: 0 Note off, C6 key=84 velocity: 0
@22140 $92.25 Channel: 0 Note on, C#6 key=85 velocity: 100
@22170 $92.375 Channel: 0 Note off, C#6 key=85 velocity: 0
@22170 $92.375 Channel: 0 Note on, C6 key=84 velocity: 100
@22200 $92.5 Channel: 0 Note off, C6 key=84 velocity: 0
@22200 $92.5 Channel: 0 Note on, C#6 key=85 velocity: 100
@22230 $92.625 Channel: 0 Note off, C#6 key=85 velocity: 0
@22230 $92.625 Channel: 0 Note on, C6 key=84 velocity: 100
@22260 $92.75 Channel: 0 Note off, C6 key=84 velocity: 0
@22260 $92.75 Channel: 0 Note on, C#6 key=85 velocity: 100
@22290 $92.875 Channel: 0 Note off, C#6 key=85 velocity: 0
@22290 $92.875 Channel: 0 Note on, A#5 key=82 velocity: 100
@22320 $93.0 Channel: 0 Note off, A#5 key=82 velocity: 0
@22320 $93.0 Channel: 0 Note on, D6 key=86 velocity: 100
@22350 $93.125 Channel: 0 Note off, D6 key=86 velocity: 0
@22350 $93.125 Channel: 0 Note on, C#6 key=85 velocity: 100
@22380 $93.25 Channel: 0 Note off, C#6 key=85 velocity: 0
@22380 $93.25 Channel: 0 Note on, D6 key=86 velocity: 100
@22410 $93.375 Channel: 0 Note off, D6 key=86 velocity: 0
@22410 $93.375 Channel: 0 Note on, C#6 key=85 velocity: 100
@22440 $93.5 Channel: 0 Note off, C#6 key=85 velocity: 0
@22440 $93.5 Channel: 0 Note on, D6 key=86 velocity: 100
@22470 $93.625 Channel: 0 Note off, D6 key=86 velocity: 0
@22470 $93.625 Channel: 0 Note on, C#6 key=85 velocity: 100
@22500 $93.75 Channel: 0 Note off, C#6 key=85 velocity: 0
@22500 $93.75 Channel: 0 Note on, D6 key=86 velocity: 100
@22530 $93.875 Channel: 0 Note off, D6 key=86 velocity: 0
@22530 $93.875 Channel: 0 Note on, C#6 key=85 velocity: 100
@22560 $94.0 Channel: 0 Note off, C#6 key=85 velocity: 0
@22560 $94.0 Channel: 0 Note on, D6 key=86 velocity: 100
@22590 $94.125 Channel: 0 Note off, D6 key=86 velocity: 0
@22590 $94.125 Channel: 0 Note on, C#6 key=85 velocity: 100
@22620 $94.25 Channel: 0 Note off, C#6 key=85 velocity: 0
@22620 $94.25 Channel: 0 Note on, B5 key=83 velocity: 100
@22650 $94.375 Channel: 0 Note off, B5 key=83 velocity: 0
@22650 $94.375 Channel: 0 Note on, A5 key=81 velocity: 100
@22680 $94.5 Channel: 0 Note off, A5 key=81 velocity: 0
@22680 $94.5 Channel: 0 Note on, G#5 key=80 velocity: 100
@22710 $94.625 Channel: 0 Note off, G#5 key=80 velocity: 0
@22710 $94.625 Channel: 0 Note on, A5 key=81 velocity: 100
@22740 $94.75 Channel: 0 Note off, A5 key=81 velocity: 0
@22740 $94.75 Channel: 0 Note on, B5 key=83 velocity: 100
@22770 $94.875 Channel: 0 Note off, B5 key=83 velocity: 0
@22770 $94.875 Channel: 0 Note on, G#5 key=80 velocity: 100
@22800 $95.0 Channel: 0 Note off, G#5 key=80 velocity: 0
@22800 $95.0 Channel: 0 Note on, A5 key=81 velocity: 100
@22830 $95.125 Channel: 0 Note off, A5 key=81 velocity: 0
@22830 $95.125 Channel: 0 Note on, B5 key=83 velocity: 100
@22860 $95.25 Channel: 0 Note off, B5 key=83 velocity: 0
@22860 $95.25 Channel: 0 Note on, C#6 key=85 velocity: 100
@22890 $95.375 Channel: 0 Note off, C#6 key=85 velocity: 0
@22890 $95.375 Channel: 0 Note on, F#5 key=78 velocity: 100
@22920 $95.5 Channel: 0 Note off, F#5 key=78 velocity: 0
@22920 $95.5 Channel: 0 Note on, F5 key=77 velocity: 100
@22950 $95.625 Channel: 0 Note off, F5 key=77 velocity: 0
@22950 $95.625 Channel: 0 Note on, F#5 key=78 velocity: 100
@22980 $95.75 Channel: 0 Note off, F#5 key=78 velocity: 0
@22980 $95.75 Channel: 0 Note on, G#5 key=80 velocity: 100
@23010 $95.875 Channel: 0 Note off, G#5 key=80 velocity: 0
@23010 $95.875 Channel: 0 Note on, F5 key=77 velocity: 100
@23040 $96.0 Channel: 0 Note off, F5 key=77 velocity: 0
@23040 $96.0 Channel: 0 Note on, F#5 key=78 velocity: 100
@23160 $96.5 Channel: 0 Note off, F#5 key=78 velocity: 0
@23165 $96.52083333333333 Channel: 0 Note on, E5 key=76 velocity: 120
@23195 $96.64583333333333 Channel: 0 Note off, E5 key=76 velocity: 0
@23195 $96.64583333333333 Channel: 0 Note on, D5 key=74 velocity: 120
@23225 $96.77083333333333 Channel: 0 Note off, D5 key=74 velocity: 0
@23225 $96.77083333333333 Channel: 0 Note on, C#5 key=73 velocity: 120
@23255 $96.89583333333333 Channel: 0 Note off, C#5 key=73 velocity: 0
@23255 $96.89583333333333 Channel: 0 Note on, B4 key=71 velocity: 120
@23285 $97.02083333333333 Channel: 0 Note off, B4 key=71 velocity: 0
@23285 $97.02083333333333 Channel: 0 Note on, A4 key=69 velocity: 120
@23315 $97.14583333333333 Channel: 0 Note off, A4 key=69 velocity: 0
@23315 $97.14583333333333 Channel: 0 Note on, B4 key=71 velocity: 120
@23345 $97.27083333333333 Channel: 0 Note off, B4 key=71 velocity: 0
@23345 $97.27083333333333 Channel: 0 Note on, C#5 key=73 velocity: 120
@23375 $97.39583333333333 Channel: 0 Note off, C#5 key=73 velocity: 0
@23375 $97.39583333333333 Channel: 0 Note on, D5 key=74 velocity: 120
@23405 $97.52083333333333 Channel: 0 Note off, D5 key=74 velocity: 0
@23405 $97.52083333333333 Channel: 0 Note on, E5 key=76 velocity: 120
@23435 $97.64583333333333 Channel: 0 Note off, E5 key=76 velocity: 0
@23435 $97.64583333333333 Channel: 0 Note on, F#5 key=78 velocity: 120
@23465 $97.77083333333333 Channel: 0 Note off, F#5 key=78 velocity: 0
@23465 $97.77083333333333 Channel: 0 Note on, G#5 key=80 velocity: 120
@23495 $97.89583333333333 Channel: 0 Note off, G#5 key=80 velocity: 0
@23495 $97.89583333333333 Channel: 0 Note on, A5 key=81 velocity: 120
@23525 $98.02083333333333 Channel: 0 Note off, A5 key=81 velocity: 0
@23525 $98.02083333333333 Channel: 0 Note on, A5 key=81 velocity: 120
@23555 $98.14583333333333 Channel: 0 Note off, A5 key=81 velocity: 0
@23555 $98.14583333333333 Channel: 0 Note on, G#5 key=80 velocity: 120
@23585 $98.27083333333333 Channel: 0 Note off, G#5 key=80 velocity: 0
@23585 $98.27083333333333 Channel: 0 Note on, F#5 key=78 velocity: 120
@23615 $98.39583333333333 Channel: 0 Note off, F#5 key=78 velocity: 0
@23615 $98.39583333333333 Channel: 0 Note on, E5 key=76 velocity: 120
@23645 $98.52083333333333 Channel: 0 Note off, E5 key=76 velocity: 0
@23645 $98.52083333333333 Channel: 0 Note on, E5 key=76 velocity: 120
@23675 $98.64583333333333 Channel: 0 Note off, E5 key=76 velocity: 0
@23675 $98.64583333333333 Channel: 0 Note on, D5 key=74 velocity: 120
@23705 $98.77083333333333 Channel: 0 Note off, D5 key=74 velocity: 0
@23705 $98.77083333333333 Channel: 0 Note on, C#5 key=73 velocity: 120
@23735 $98.89583333333333 Channel: 0 Note off, C#5 key=73 velocity: 0
@23735 $98.89583333333333 Channel: 0 Note on, B4 key=71 velocity: 120
@23765 $99.02083333333333 Channel: 0 Note off, B4 key=71 velocity: 0
@23765 $99.02083333333333 Channel: 0 Note on, A4 key=69 velocity: 120
@23795 $99.14583333333333 Channel: 0 Note off, A4 key=69 velocity: 0
@23795 $99.14583333333333 Channel: 0 Note on, B4 key=71 velocity: 120
@23825 $99.27083333333333 Channel: 0 Note off, B4 key=71 velocity: 0
@23825 $99.27083333333333 Channel: 0 Note on, C#5 key=73 velocity: 120
@23855 $99.39583333333333 Channel: 0 Note off, C#5 key=73 velocity: 0
@23855 $99.39583333333333 Channel: 0 Note on, D5 key=74 velocity: 120
@23885 $99.52083333333333 Channel: 0 Note off, D5 key=74 velocity: 0
@23885 $99.52083333333333 Channel: 0 Note on, E5 key=76 velocity: 120
@23915 $99.64583333333333 Channel: 0 Note off, E5 key=76 velocity: 0
@23915 $99.64583333333333 Channel: 0 Note on, F#5 key=78 velocity: 120
@23945 $99.77083333333333 Channel: 0 Note off, F#5 key=78 velocity: 0
@23945 $99.77083333333333 Channel: 0 Note on, G#5 key=80 velocity: 120
@23975 $99.89583333333333 Channel: 0 Note off, G#5 key=80 velocity: 0
@23975 $99.89583333333333 Channel: 0 Note on, A5 key=81 velocity: 120
@24005 $100.02083333333333 Channel: 0 Note off, A5 key=81 velocity: 0
@24005 $100.02083333333333 Channel: 0 Note on, A#5 key=82 velocity: 120
@24065 $100.27083333333333 Channel: 0 Note off, A#5 key=82 velocity: 0
@24065 $100.27083333333333 Channel: 0 Note on, B5 key=83 velocity: 120
@24110 $100.45833333333333 Channel: 0 Note off, B5 key=83 velocity: 0
@24125 $100.52083333333333 Channel: 0 Note on, E5 key=76 velocity: 120
@24155 $100.64583333333333 Channel: 0 Note off, E5 key=76 velocity: 0
@24155 $100.64583333333333 Channel: 0 Note on, D5 key=74 velocity: 120
@24185 $100.77083333333333 Channel: 0 Note off, D5 key=74 velocity: 0
@24185 $100.77083333333333 Channel: 0 Note on, C#5 key=73 velocity: 120
@24215 $100.89583333333333 Channel: 0 Note off, C#5 key=73 velocity: 0
@24215 $100.89583333333333 Channel: 0 Note on, B4 key=71 velocity: 120
@24245 $101.02083333333333 Channel: 0 Note off, B4 key=71 velocity: 0
@24245 $101.02083333333333 Channel: 0 Note on, A4 key=69 velocity: 120
@24275 $101.14583333333333 Channel: 0 Note off, A4 key=69 velocity: 0
@24275 $101.14583333333333 Channel: 0 Note on, B4 key=71 velocity: 120
@24305 $101.27083333333333 Channel: 0 Note off, B4 key=71 velocity: 0
@24305 $101.27083333333333 Channel: 0 Note on, C#5 key=73 velocity: 120
@24335 $101.39583333333333 Channel: 0 Note off, C#5 key=73 velocity: 0
@24335 $101.39583333333333 Channel: 0 Note on, D5 key=74 velocity: 120
@24365 $101.52083333333333 Channel: 0 Note off, D5 key=74 velocity: 0
@24365 $101.52083333333333 Channel: 0 Note on, E5 key=76 velocity: 120
@24395 $101.64583333333333 Channel: 0 Note off, E5 key=76 velocity: 0
@24395 $101.64583333333333 Channel: 0 Note on, F#5 key=78 velocity: 120
@24425 $101.77083333333333 Channel: 0 Note off, F#5 key=78 velocity: 0
@24425 $101.77083333333333 Channel: 0 Note on, G#5 key=80 velocity: 120
@24455 $101.89583333333333 Channel: 0 Note off, G#5 key=80 velocity: 0
@24455 $101.89583333333333 Channel: 0 Note on, A5 key=81 velocity: 120
@24485 $102.02083333333333 Channel: 0 Note off, A5 key=81 velocity: 0
@24485 $102.02083333333333 Channel: 0 Note on, A5 key=81 velocity: 120
@24515 $102.14583333333333 Channel: 0 Note off, A5 key=81 velocity: 0
@24515 $102.14583333333333 Channel: 0 Note on, G#5 key=80 velocity: 120
@24545 $102.27083333333333 Channel: 0 Note off, G#5 key=80 velocity: 0
@24545 $102.27083333333333 Channel: 0 Note on, F#5 key=78 velocity: 120
@24575 $102.39583333333333 Channel: 0 Note off, F#5 key=78 velocity: 0
@24575 $102.39583333333333 Channel: 0 Note on, E5 key=76 velocity: 120
@24605 $102.52083333333333 Channel: 0 Note off, E5 key=76 velocity: 0
@24605 $102.52083333333333 Channel: 0 Note on, E5 key=76 velocity: 120
@24635 $102.64583333333333 Channel: 0 Note off, E5 key=76 velocity: 0
@24635 $102.64583333333333 Channel: 0 Note on, D5 key=74 velocity: 120
@24665 $102.77083333333333 Channel: 0 Note off, D5 key=74 velocity: 0
@24665 $102.77083333333333 Channel: 0 Note on, C#5 key=73 velocity: 120
@24695 $102.89583333333333 Channel: 0 Note off, C#5 key=73 velocity: 0
@24695 $102.89583333333333 Channel: 0 Note on, B4 key=71 velocity: 120
@24725 $103.02083333333333 Channel: 0 Note off, B4 key=71 velocity: 0
@24725 $103.02083333333333 Channel: 0 Note on, C#5 key=73 velocity: 120
@24755 $103.14583333333333 Channel: 0 Note off, C#5 key=73 velocity: 0
@24755 $103.14583333333333 Channel: 0 Note on, E5 key=76 velocity: 120
@24785 $103.27083333333333 Channel: 0 Note off, E5 key=76 velocity: 0
@24785 $103.27083333333333 Channel: 0 Note on, A4 key=69 velocity: 120
@24815 $103.39583333333333 Channel: 0 Note off, A4 key=69 velocity: 0
@24815 $103.39583333333333 Channel: 0 Note on, C#5 key=73 velocity: 120
@24845 $103.52083333333333 Channel: 0 Note off, C#5 key=73 velocity: 0
@24845 $103.52083333333333 Channel: 0 Note on, B4 key=71 velocity: 120
@24875 $103.64583333333333 Channel: 0 Note off, B4 key=71 velocity: 0
@24875 $103.64583333333333 Channel: 0 Note on, D5 key=74 velocity: 120
@24905 $103.77083333333333 Channel: 0 Note off, D5 key=74 velocity: 0
@24905 $103.77083333333333 Channel: 0 Note on, G#4 key=68 velocity: 120
@24935 $103.89583333333333 Channel: 0 Note off, G#4 key=68 velocity: 0
@24935 $103.89583333333333 Channel: 0 Note on, B4 key=71 velocity: 120
@24965 $104.02083333333333 Channel: 0 Note off, B4 key=71 velocity: 0
@24965 $104.02083333333333 Channel: 0 Note on, A4 key=69 velocity: 120
@25085 $104.52083333333333 Channel: 0 Note off, A4 key=69 velocity: 0
@25085 $104.52083333333333 Channel: 0 Note on, C#6 key=85 velocity: 100
@25115 $104.64583333333333 Channel: 0 Note off, C#6 key=85 velocity: 0
@25115 $104.64583333333333 Channel: 0 Note on, D6 key=86 velocity: 100
@25145 $104.77083333333333 Channel: 0 Note off, D6 key=86 velocity: 0
@25145 $104.77083333333333 Channel: 0 Note on, C#6 key=85 velocity: 100
@25175 $104.89583333333333 Channel: 0 Note off, C#6 key=85 velocity: 0
@25175 $104.89583333333333 Channel: 0 Note on, B5 key=83 velocity: 100
@25205 $105.02083333333333 Channel: 0 Note off, B5 key=83 velocity: 0
@25205 $105.02083333333333 Channel: 0 Note on, A5 key=81 velocity: 100
@25235 $105.14583333333333 Channel: 0 Note off, A5 key=81 velocity: 0
@25235 $105.14583333333333 Channel: 0 Note on, B5 key=83 velocity: 100
@25265 $105.27083333333333 Channel: 0 Note off, B5 key=83 velocity: 0
@25265 $105.27083333333333 Channel: 0 Note on, A5 key=81 velocity: 100
@25295 $105.39583333333333 Channel: 0 Note off, A5 key=81 velocity: 0
@25295 $105.39583333333333 Channel: 0 Note on, G#5 key=80 velocity: 100
@25325 $105.52083333333333 Channel: 0 Note off, G#5 key=80 velocity: 0
@25325 $105.52083333333333 Channel: 0 Note on, F#5 key=78 velocity: 100
@25355 $105.64583333333333 Channel: 0 Note off, F#5 key=78 velocity: 0
@25355 $105.64583333333333 Channel: 0 Note on, A5 key=81 velocity: 100
@25385 $105.77083333333333 Channel: 0 Note off, A5 key=81 velocity: 0
@25385 $105.77083333333333 Channel: 0 Note on, G#5 key=80 velocity: 100
@25415 $105.89583333333333 Channel: 0 Note off, G#5 key=80 velocity: 0
@25415 $105.89583333333333 Channel: 0 Note on, F#5 key=78 velocity: 100
@25445 $106.02083333333333 Channel: 0 Note off, F#5 key=78 velocity: 0
@25445 $106.02083333333333 Channel: 0 Note on, F5 key=77 velocity: 100
@25475 $106.14583333333333 Channel: 0 Note off, F5 key=77 velocity: 0
@25475 $106.14583333333333 Channel: 0 Note on, F#5 key=78 velocity: 100
@25505 $106.27083333333333 Channel: 0 Note off, F#5 key=78 velocity: 0
@25505 $106.27083333333333 Channel: 0 Note on, G#5 key=80 velocity: 100
@25535 $106.39583333333333 Channel: 0 Note off, G#5 key=80 velocity: 0
@25535 $106.39583333333333 Channel: 0 Note on, F5 key=77 velocity: 100
@25565 $106.52083333333333 Channel: 0 Note off, F5 key=77 velocity: 0
@25565 $106.52083333333333 Channel: 0 Note on, C#5 key=73 velocity: 100
@25595 $106.64583333333333 Channel: 0 Note off, C#5 key=73 velocity: 0
@25595 $106.64583333333333 Channel: 0 Note on, D#5 key=75 velocity: 100
@25625 $106.77083333333333 Channel: 0 Note off, D#5 key=75 velocity: 0
@25625 $106.77083333333333 Channel: 0 Note on, F5 key=77 velocity: 100
@25655 $106.89583333333333 Channel: 0 Note off, F5 key=77 velocity: 0
@25655 $106.89583333333333 Channel: 0 Note on, C#5 key=73 velocity: 100
@25685 $107.02083333333333 Channel: 0 Note off, C#5 key=73 velocity: 0
@25685 $107.02083333333333 Channel: 0 Note on, F#5 key=78 velocity: 100
@25715 $107.14583333333333 Channel: 0 Note off, F#5 key=78 velocity: 0
@25715 $107.14583333333333 Channel: 0 Note on, F5 key=77 velocity: 100
@25745 $107.27083333333333 Channel: 0 Note off, F5 key=77 velocity: 0
@25745 $107.27083333333333 Channel: 0 Note on, F#5 key=78 velocity: 100
@25775 $107.39583333333333 Channel: 0 Note off, F#5 key=78 velocity: 0
@25775 $107.39583333333333 Channel: 0 Note on, G#5 key=80 velocity: 100
@25805 $107.52083333333333 Channel: 0 Note off, G#5 key=80 velocity: 0
@25805 $107.52083333333333 Channel: 0 Note on, A5 key=81 velocity: 100
@25835 $107.64583333333333 Channel: 0 Note off, A5 key=81 velocity: 0
@25835 $107.64583333333333 Channel: 0 Note on, G#5 key=80 velocity: 100
@25865 $107.77083333333333 Channel: 0 Note off, G#5 key=80 velocity: 0
@25865 $107.77083333333333 Channel: 0 Note on, A5 key=81 velocity: 100
@25895 $107.89583333333333 Channel: 0 Note off, A5 key=81 velocity: 0
@25895 $107.89583333333333 Channel: 0 Note on, B5 key=83 velocity: 100
@25925 $108.02083333333333 Channel: 0 Note off, B5 key=83 velocity: 0
@25925 $108.02083333333333 Channel: 0 Note on, C#6 key=85 velocity: 100
@25955 $108.14583333333333 Channel: 0 Note off, C#6 key=85 velocity: 0
@25955 $108.14583333333333 Channel: 0 Note on, C6 key=84 velocity: 100
@25985 $108.27083333333333 Channel: 0 Note off, C6 key=84 velocity: 0
@25985 $108.27083333333333 Channel: 0 Note on, C#6 key=85 velocity: 100
@26015 $108.39583333333333 Channel: 0 Note off, C#6 key=85 velocity: 0
@26015 $108.39583333333333 Channel: 0 Note on, C6 key=84 velocity: 100
@26045 $108.52083333333333 Channel: 0 Note off, C6 key=84 velocity: 0
@26045 $108.52083333333333 Channel: 0 Note on, C#6 key=85 velocity: 100
@26075 $108.64583333333333 Channel: 0 Note off, C#6 key=85 velocity: 0
@26075 $108.64583333333333 Channel: 0 Note on, C6 key=84 velocity: 100
@26105 $108.77083333333333 Channel: 0 Note off, C6 key=84 velocity: 0
@26105 $108.77083333333333 Channel: 0 Note on, C#6 key=85 velocity: 100
@26135 $108.89583333333333 Channel: 0 Note off, C#6 key=85 velocity: 0
@26135 $108.89583333333333 Channel: 0 Note on, A#5 key=82 velocity: 100
@26165 $109.02083333333333 Channel: 0 Note off, A#5 key=82 velocity: 0
@26165 $109.02083333333333 Channel: 0 Note on, D6 key=86 velocity: 100
@26195 $109.14583333333333 Channel: 0 Note off, D6 key=86 velocity: 0
@26195 $109.14583333333333 Channel: 0 Note on, C#6 key=85 velocity: 100
@26225 $109.27083333333333 Channel: 0 Note off, C#6 key=85 velocity: 0
@26225 $109.27083333333333 Channel: 0 Note on, D6 key=86 velocity: 100
@26255 $109.39583333333333 Channel: 0 Note off, D6 key=86 velocity: 0
@26255 $109.39583333333333 Channel: 0 Note on, C#6 key=85 velocity: 100
@26285 $109.52083333333333 Channel: 0 Note off, C#6 key=85 velocity: 0
@26285 $109.52083333333333 Channel: 0 Note on, D6 key=86 velocity: 100
@26315 $109.64583333333333 Channel: 0 Note off, D6 key=86 velocity: 0
@26315 $109.64583333333333 Channel: 0 Note on, C#6 key=85 velocity: 100
@26345 $109.77083333333333 Channel: 0 Note off, C#6 key=85 velocity: 0
@26345 $109.77083333333333 Channel: 0 Note on, D6 key=86 velocity: 100
@26375 $109.89583333333333 Channel: 0 Note off, D6 key=86 velocity: 0
@26375 $109.89583333333333 Channel: 0 Note on, C#6 key=85 velocity: 100
@26405 $110.02083333333333 Channel: 0 Note off, C#6 key=85 velocity: 0
@26405 $110.02083333333333 Channel: 0 Note on, D6 key=86 velocity: 100
@26435 $110.14583333333333 Channel: 0 Note off, D6 key=86 velocity: 0
@26435 $110.14583333333333 Channel: 0 Note on, C#6 key=85 velocity: 100
@26465 $110.27083333333333 Channel: 0 Note off, C#6 key=85 velocity: 0
@26465 $110.27083333333333 Channel: 0 Note on, B5 key=83 velocity: 100
@26495 $110.39583333333333 Channel: 0 Note off, B5 key=83 velocity: 0
@26495 $110.39583333333333 Channel: 0 Note on, A5 key=81 velocity: 100
@26525 $110.52083333333333 Channel: 0 Note off, A5 key=81 velocity: 0
@26525 $110.52083333333333 Channel: 0 Note on, G#5 key=80 velocity: 100
@26555 $110.64583333333333 Channel: 0 Note off, G#5 key=80 velocity: 0
@26555 $110.64583333333333 Channel: 0 Note on, A5 key=81 velocity: 100
@26585 $110.77083333333333 Channel: 0 Note off, A5 key=81 velocity: 0
@26585 $110.77083333333333 Channel: 0 Note on, B5 key=83 velocity: 100
@26615 $110.89583333333333 Channel: 0 Note off, B5 key=83 velocity: 0
@26615 $110.89583333333333 Channel: 0 Note on, G#5 key=80 velocity: 100
@26645 $111.02083333333333 Channel: 0 Note off, G#5 key=80 velocity: 0
@26645 $111.02083333333333 Channel: 0 Note on, A5 key=81 velocity: 100
@26675 $111.14583333333333 Channel: 0 Note off, A5 key=81 velocity: 0
@26675 $111.14583333333333 Channel: 0 Note on, B5 key=83 velocity: 100
@26705 $111.27083333333333 Channel: 0 Note off, B5 key=83 velocity: 0
@26705 $111.27083333333333 Channel: 0 Note on, C#6 key=85 velocity: 100
@26735 $111.39583333333333 Channel: 0 Note off, C#6 key=85 velocity: 0
@26735 $111.39583333333333 Channel: 0 Note on, F#5 key=78 velocity: 100
@26765 $111.52083333333333 Channel: 0 Note off, F#5 key=78 velocity: 0
@26765 $111.52083333333333 Channel: 0 Note on, F5 key=77 velocity: 100
@26795 $111.64583333333333 Channel: 0 Note off, F5 key=77 velocity: 0
@26795 $111.64583333333333 Channel: 0 Note on, F#5 key=78 velocity: 100
@26825 $111.77083333333333 Channel: 0 Note off, F#5 key=78 velocity: 0
@26825 $111.77083333333333 Channel: 0 Note on, G#5 key=80 velocity: 100
@26855 $111.89583333333333 Channel: 0 Note off, G#5 key=80 velocity: 0
@26855 $111.89583333333333 Channel: 0 Note on, F5 key=77 velocity: 100
@26885 $112.02083333333333 Channel: 0 Note off, F5 key=77 velocity: 0
@26885 $112.02083333333333 Channel: 0 Note on, F#5 key=78 velocity: 100
@27005 $112.52083333333333 Channel: 0 Note off, F#5 key=78 velocity: 0
@27005 $112.52083333333333 Other meta message: class javax.sound.midi.Track$ImmutableEndOfTrack

Track 3: size = 3012
@0 $0.0 Other meta message: class javax.sound.midi.MetaMessage
@0 $0.0 Other meta message: class javax.sound.midi.MetaMessage
@0 $0.0 Channel: 1 Other short message:192
@0 $0.0 Channel: 1 Control Change message
@0 $0.0 Channel: 1 Control Change message
@120 $0.5 Channel: 1 Note on, B4 key=71 velocity: 100
@150 $0.625 Channel: 1 Note off, B4 key=71 velocity: 0
@150 $0.625 Channel: 1 Note on, A4 key=69 velocity: 100
@180 $0.75 Channel: 1 Note off, A4 key=69 velocity: 0
@180 $0.75 Channel: 1 Note on, G#4 key=68 velocity: 100
@210 $0.875 Channel: 1 Note off, G#4 key=68 velocity: 0
@210 $0.875 Channel: 1 Note on, A4 key=69 velocity: 100
@240 $1.0 Channel: 1 Note off, A4 key=69 velocity: 0
@240 $1.0 Channel: 1 Note on, C5 key=72 velocity: 100
@295 $1.2291666666666667 Channel: 1 Note off, C5 key=72 velocity: 0
@360 $1.5 Channel: 1 Note on, D5 key=74 velocity: 100
@390 $1.625 Channel: 1 Note off, D5 key=74 velocity: 0
@390 $1.625 Channel: 1 Note on, C5 key=72 velocity: 100
@420 $1.75 Channel: 1 Note off, C5 key=72 velocity: 0
@420 $1.75 Channel: 1 Note on, B4 key=71 velocity: 100
@450 $1.875 Channel: 1 Note off, B4 key=71 velocity: 0
@450 $1.875 Channel: 1 Note on, C5 key=72 velocity: 100
@480 $2.0 Channel: 1 Note off, C5 key=72 velocity: 0
@480 $2.0 Channel: 1 Note on, E5 key=76 velocity: 100
@535 $2.2291666666666665 Channel: 1 Note off, E5 key=76 velocity: 0
@600 $2.5 Channel: 1 Note on, F5 key=77 velocity: 100
@630 $2.625 Channel: 1 Note off, F5 key=77 velocity: 0
@630 $2.625 Channel: 1 Note on, E5 key=76 velocity: 100
@660 $2.75 Channel: 1 Note off, E5 key=76 velocity: 0
@660 $2.75 Channel: 1 Note on, D#5 key=75 velocity: 100
@690 $2.875 Channel: 1 Note off, D#5 key=75 velocity: 0
@690 $2.875 Channel: 1 Note on, E5 key=76 velocity: 100
@720 $3.0 Channel: 1 Note off, E5 key=76 velocity: 0
@720 $3.0 Channel: 1 Note on, B5 key=83 velocity: 100
@750 $3.125 Channel: 1 Note off, B5 key=83 velocity: 0
@750 $3.125 Channel: 1 Note on, A5 key=81 velocity: 100
@780 $3.25 Channel: 1 Note off, A5 key=81 velocity: 0
@780 $3.25 Channel: 1 Note on, G#5 key=80 velocity: 100
@810 $3.375 Channel: 1 Note off, G#5 key=80 velocity: 0
@810 $3.375 Channel: 1 Note on, A5 key=81 velocity: 100
@840 $3.5 Channel: 1 Note off, A5 key=81 velocity: 0
@840 $3.5 Channel: 1 Note on, B5 key=83 velocity: 100
@870 $3.625 Channel: 1 Note off, B5 key=83 velocity: 0
@870 $3.625 Channel: 1 Note on, A5 key=81 velocity: 100
@900 $3.75 Channel: 1 Note off, A5 key=81 velocity: 0
@900 $3.75 Channel: 1 Note on, G#5 key=80 velocity: 100
@930 $3.875 Channel: 1 Note off, G#5 key=80 velocity: 0
@930 $3.875 Channel: 1 Note on, A5 key=81 velocity: 100
@960 $4.0 Channel: 1 Note off, A5 key=81 velocity: 0
@960 $4.0 Channel: 1 Note on, C6 key=84 velocity: 100
@1075 $4.479166666666667 Channel: 1 Note off, C6 key=84 velocity: 0
@1080 $4.5 Channel: 1 Note on, A5 key=81 velocity: 100
@1110 $4.625 Channel: 1 Note off, A5 key=81 velocity: 0
@1140 $4.75 Channel: 1 Note on, C6 key=84 velocity: 100
@1170 $4.875 Channel: 1 Note off, C6 key=84 velocity: 0
@1200 $5.0 Channel: 1 Note on, G5 key=79 velocity: 100
@1210 $5.041666666666667 Channel: 1 Note off, G5 key=79 velocity: 0
@1210 $5.041666666666667 Channel: 1 Note on, A5 key=81 velocity: 100
@1221 $5.0875 Channel: 1 Note on, B5 key=83 velocity: 100
@1222 $5.091666666666667 Channel: 1 Note off, A5 key=81 velocity: 0
@1251 $5.2125 Channel: 1 Note off, B5 key=83 velocity: 0
@1260 $5.25 Channel: 1 Note on, A5 key=81 velocity: 100
@1262 $5.258333333333333 Channel: 1 Note on, F#5 key=78 velocity: 100
@1290 $5.375 Channel: 1 Note off, A5 key=81 velocity: 0
@1292 $5.383333333333333 Channel: 1 Note off, F#5 key=78 velocity: 0
@1320 $5.5 Channel: 1 Note on, E5 key=76 velocity: 100
@1320 $5.5 Channel: 1 Note on, G5 key=79 velocity: 100
@1350 $5.625 Channel: 1 Note off, G5 key=79 velocity: 0
@1350 $5.625 Channel: 1 Note off, E5 key=76 velocity: 0
@1380 $5.75 Channel: 1 Note on, F#5 key=78 velocity: 100
@1380 $5.75 Channel: 1 Note on, A5 key=81 velocity: 100
@1410 $5.875 Channel: 1 Note off, A5 key=81 velocity: 0
@1410 $5.875 Channel: 1 Note off, F#5 key=78 velocity: 0
@1440 $6.0 Channel: 1 Note on, G5 key=79 velocity: 100
@1448 $6.033333333333333 Channel: 1 Note on, A5 key=81 velocity: 100
@1450 $6.041666666666667 Channel: 1 Note off, G5 key=79 velocity: 0
@1458 $6.075 Channel: 1 Note off, A5 key=81 velocity: 0
@1467 $6.1125 Channel: 1 Note on, B5 key=83 velocity: 100
@1497 $6.2375 Channel: 1 Note off, B5 key=83 velocity: 0
@1502 $6.258333333333333 Channel: 1 Note on, A5 key=81 velocity: 100
@1502 $6.258333333333333 Channel: 1 Note on, F#5 key=78 velocity: 100
@1532 $6.383333333333333 Channel: 1 Note off, F#5 key=78 velocity: 0
@1532 $6.383333333333333 Channel: 1 Note off, A5 key=81 velocity: 0
@1562 $6.508333333333333 Channel: 1 Note on, G5 key=79 velocity: 100
@1562 $6.508333333333333 Channel: 1 Note on, E5 key=76 velocity: 100
@1592 $6.633333333333333 Channel: 1 Note off, E5 key=76 velocity: 0
@1592 $6.633333333333333 Channel: 1 Note off, G5 key=79 velocity: 0
@1620 $6.75 Channel: 1 Note on, A5 key=81 velocity: 100
@1620 $6.75 Channel: 1 Note on, F#5 key=78 velocity: 100
@1650 $6.875 Channel: 1 Note off, F#5 key=78 velocity: 0
@1650 $6.875 Channel: 1 Note off, A5 key=81 velocity: 0
@1680 $7.0 Channel: 1 Note on, G5 key=79 velocity: 100
@1688 $7.033333333333333 Channel: 1 Note on, A5 key=81 velocity: 100
@1690 $7.041666666666667 Channel: 1 Note off, G5 key=79 velocity: 0
@1698 $7.075 Channel: 1 Note off, A5 key=81 velocity: 0
@1707 $7.1125 Channel: 1 Note on, B5 key=83 velocity: 100
@1737 $7.2375 Channel: 1 Note off, B5 key=83 velocity: 0
@1742 $7.258333333333333 Channel: 1 Note on, A5 key=81 velocity: 100
@1742 $7.258333333333333 Channel: 1 Note on, F#5 key=78 velocity: 100
@1772 $7.383333333333333 Channel: 1 Note off, F#5 key=78 velocity: 0
@1772 $7.383333333333333 Channel: 1 Note off, A5 key=81 velocity: 0
@1800 $7.5 Channel: 1 Note on, E5 key=76 velocity: 100
@1800 $7.5 Channel: 1 Note on, G5 key=79 velocity: 100
@1830 $7.625 Channel: 1 Note off, G5 key=79 velocity: 0
@1830 $7.625 Channel: 1 Note off, E5 key=76 velocity: 0
@1860 $7.75 Channel: 1 Note on, D#5 key=75 velocity: 100
@1860 $7.75 Channel: 1 Note on, F#5 key=78 velocity: 100
@1890 $7.875 Channel: 1 Note off, F#5 key=78 velocity: 0
@1890 $7.875 Channel: 1 Note off, D#5 key=75 velocity: 0
@1920 $8.0 Channel: 1 Note on, E5 key=76 velocity: 100
@2040 $8.5 Channel: 1 Note off, E5 key=76 velocity: 0
@2040 $8.5 Channel: 1 Note on, B4 key=71 velocity: 100
@2070 $8.625 Channel: 1 Note off, B4 key=71 velocity: 0
@2070 $8.625 Channel: 1 Note on, A4 key=69 velocity: 100
@2100 $8.75 Channel: 1 Note off, A4 key=69 velocity: 0
@2100 $8.75 Channel: 1 Note on, G#4 key=68 velocity: 100
@2130 $8.875 Channel: 1 Note off, G#4 key=68 velocity: 0
@2130 $8.875 Channel: 1 Note on, A4 key=69 velocity: 100
@2160 $9.0 Channel: 1 Note off, A4 key=69 velocity: 0
@2160 $9.0 Channel: 1 Note on, C5 key=72 velocity: 100
@2215 $9.229166666666666 Channel: 1 Note off, C5 key=72 velocity: 0
@2280 $9.5 Channel: 1 Note on, D5 key=74 velocity: 100
@2310 $9.625 Channel: 1 Note off, D5 key=74 velocity: 0
@2310 $9.625 Channel: 1 Note on, C5 key=72 velocity: 100
@2340 $9.75 Channel: 1 Note off, C5 key=72 velocity: 0
@2340 $9.75 Channel: 1 Note on, B4 key=71 velocity: 100
@2370 $9.875 Channel: 1 Note off, B4 key=71 velocity: 0
@2370 $9.875 Channel: 1 Note on, C5 key=72 velocity: 100
@2400 $10.0 Channel: 1 Note off, C5 key=72 velocity: 0
@2400 $10.0 Channel: 1 Note on, E5 key=76 velocity: 100
@2455 $10.229166666666666 Channel: 1 Note off, E5 key=76 velocity: 0
@2520 $10.5 Channel: 1 Note on, F5 key=77 velocity: 100
@2550 $10.625 Channel: 1 Note off, F5 key=77 velocity: 0
@2550 $10.625 Channel: 1 Note on, E5 key=76 velocity: 100
@2580 $10.75 Channel: 1 Note off, E5 key=76 velocity: 0
@2580 $10.75 Channel: 1 Note on, D#5 key=75 velocity: 100
@2610 $10.875 Channel: 1 Note off, D#5 key=75 velocity: 0
@2610 $10.875 Channel: 1 Note on, E5 key=76 velocity: 100
@2640 $11.0 Channel: 1 Note off, E5 key=76 velocity: 0
@2640 $11.0 Channel: 1 Note on, B5 key=83 velocity: 100
@2670 $11.125 Channel: 1 Note off, B5 key=83 velocity: 0
@2670 $11.125 Channel: 1 Note on, A5 key=81 velocity: 100
@2700 $11.25 Channel: 1 Note off, A5 key=81 velocity: 0
@2700 $11.25 Channel: 1 Note on, G#5 key=80 velocity: 100
@2730 $11.375 Channel: 1 Note off, G#5 key=80 velocity: 0
@2730 $11.375 Channel: 1 Note on, A5 key=81 velocity: 100
@2760 $11.5 Channel: 1 Note off, A5 key=81 velocity: 0
@2760 $11.5 Channel: 1 Note on, B5 key=83 velocity: 100
@2790 $11.625 Channel: 1 Note off, B5 key=83 velocity: 0
@2790 $11.625 Channel: 1 Note on, A5 key=81 velocity: 100
@2820 $11.75 Channel: 1 Note off, A5 key=81 velocity: 0
@2820 $11.75 Channel: 1 Note on, G#5 key=80 velocity: 100
@2850 $11.875 Channel: 1 Note off, G#5 key=80 velocity: 0
@2850 $11.875 Channel: 1 Note on, A5 key=81 velocity: 100
@2880 $12.0 Channel: 1 Note off, A5 key=81 velocity: 0
@2880 $12.0 Channel: 1 Note on, C6 key=84 velocity: 100
@2995 $12.479166666666666 Channel: 1 Note off, C6 key=84 velocity: 0
@3000 $12.5 Channel: 1 Note on, A5 key=81 velocity: 100
@3030 $12.625 Channel: 1 Note off, A5 key=81 velocity: 0
@3060 $12.75 Channel: 1 Note on, C6 key=84 velocity: 100
@3090 $12.875 Channel: 1 Note off, C6 key=84 velocity: 0
@3120 $13.0 Channel: 1 Note on, G5 key=79 velocity: 100
@3130 $13.041666666666666 Channel: 1 Note off, G5 key=79 velocity: 0
@3130 $13.041666666666666 Channel: 1 Note on, A5 key=81 velocity: 100
@3141 $13.0875 Channel: 1 Note on, B5 key=83 velocity: 100
@3142 $13.091666666666667 Channel: 1 Note off, A5 key=81 velocity: 0
@3171 $13.2125 Channel: 1 Note off, B5 key=83 velocity: 0
@3180 $13.25 Channel: 1 Note on, A5 key=81 velocity: 100
@3182 $13.258333333333333 Channel: 1 Note on, F#5 key=78 velocity: 100
@3210 $13.375 Channel: 1 Note off, A5 key=81 velocity: 0
@3212 $13.383333333333333 Channel: 1 Note off, F#5 key=78 velocity: 0
@3240 $13.5 Channel: 1 Note on, E5 key=76 velocity: 100
@3240 $13.5 Channel: 1 Note on, G5 key=79 velocity: 100
@3270 $13.625 Channel: 1 Note off, G5 key=79 velocity: 0
@3270 $13.625 Channel: 1 Note off, E5 key=76 velocity: 0
@3300 $13.75 Channel: 1 Note on, F#5 key=78 velocity: 100
@3300 $13.75 Channel: 1 Note on, A5 key=81 velocity: 100
@3330 $13.875 Channel: 1 Note off, A5 key=81 velocity: 0
@3330 $13.875 Channel: 1 Note off, F#5 key=78 velocity: 0
@3360 $14.0 Channel: 1 Note on, G5 key=79 velocity: 100
@3368 $14.033333333333333 Channel: 1 Note on, A5 key=81 velocity: 100
@3370 $14.041666666666666 Channel: 1 Note off, G5 key=79 velocity: 0
@3378 $14.075 Channel: 1 Note off, A5 key=81 velocity: 0
@3387 $14.112499999999999 Channel: 1 Note on, B5 key=83 velocity: 100
@3417 $14.237499999999999 Channel: 1 Note off, B5 key=83 velocity: 0
@3422 $14.258333333333333 Channel: 1 Note on, A5 key=81 velocity: 100
@3422 $14.258333333333333 Channel: 1 Note on, F#5 key=78 velocity: 100
@3452 $14.383333333333333 Channel: 1 Note off, F#5 key=78 velocity: 0
@3452 $14.383333333333333 Channel: 1 Note off, A5 key=81 velocity: 0
@3482 $14.508333333333333 Channel: 1 Note on, G5 key=79 velocity: 100
@3482 $14.508333333333333 Channel: 1 Note on, E5 key=76 velocity: 100
@3512 $14.633333333333333 Channel: 1 Note off, E5 key=76 velocity: 0
@3512 $14.633333333333333 Channel: 1 Note off, G5 key=79 velocity: 0
@3540 $14.75 Channel: 1 Note on, A5 key=81 velocity: 100
@3540 $14.75 Channel: 1 Note on, F#5 key=78 velocity: 100
@3570 $14.875 Channel: 1 Note off, F#5 key=78 velocity: 0
@3570 $14.875 Channel: 1 Note off, A5 key=81 velocity: 0
@3600 $15.0 Channel: 1 Note on, G5 key=79 velocity: 100
@3608 $15.033333333333333 Channel: 1 Note on, A5 key=81 velocity: 100
@3610 $15.041666666666666 Channel: 1 Note off, G5 key=79 velocity: 0
@3618 $15.075 Channel: 1 Note off, A5 key=81 velocity: 0
@3627 $15.112499999999999 Channel: 1 Note on, B5 key=83 velocity: 100
@3657 $15.237499999999999 Channel: 1 Note off, B5 key=83 velocity: 0
@3662 $15.258333333333333 Channel: 1 Note on, A5 key=81 velocity: 100
@3662 $15.258333333333333 Channel: 1 Note on, F#5 key=78 velocity: 100
@3692 $15.383333333333333 Channel: 1 Note off, F#5 key=78 velocity: 0
@3692 $15.383333333333333 Channel: 1 Note off, A5 key=81 velocity: 0
@3720 $15.5 Channel: 1 Note on, E5 key=76 velocity: 100
@3720 $15.5 Channel: 1 Note on, G5 key=79 velocity: 100
@3750 $15.625 Channel: 1 Note off, G5 key=79 velocity: 0
@3750 $15.625 Channel: 1 Note off, E5 key=76 velocity: 0
@3780 $15.75 Channel: 1 Note on, D#5 key=75 velocity: 100
@3780 $15.75 Channel: 1 Note on, F#5 key=78 velocity: 100
@3810 $15.875 Channel: 1 Note off, F#5 key=78 velocity: 0
@3810 $15.875 Channel: 1 Note off, D#5 key=75 velocity: 0
@3840 $16.0 Channel: 1 Note on, E5 key=76 velocity: 100
@3960 $16.5 Channel: 1 Note off, E5 key=76 velocity: 0
@3960 $16.5 Channel: 1 Note on, C5 key=72 velocity: 100
@3960 $16.5 Channel: 1 Note on, E5 key=76 velocity: 100
@3990 $16.625 Channel: 1 Note off, E5 key=76 velocity: 0
@3990 $16.625 Channel: 1 Note off, C5 key=72 velocity: 0
@4020 $16.75 Channel: 1 Note on, F5 key=77 velocity: 100
@4020 $16.75 Channel: 1 Note on, D5 key=74 velocity: 100
@4050 $16.875 Channel: 1 Note off, D5 key=74 velocity: 0
@4050 $16.875 Channel: 1 Note off, F5 key=77 velocity: 0
@4080 $17.0 Channel: 1 Note on, E5 key=76 velocity: 100
@4080 $17.0 Channel: 1 Note on, G5 key=79 velocity: 100
@4110 $17.125 Channel: 1 Note off, G5 key=79 velocity: 0
@4110 $17.125 Channel: 1 Note off, E5 key=76 velocity: 0
@4140 $17.25 Channel: 1 Note on, E5 key=76 velocity: 100
@4140 $17.25 Channel: 1 Note on, G5 key=79 velocity: 100
@4170 $17.375 Channel: 1 Note off, G5 key=79 velocity: 0
@4170 $17.375 Channel: 1 Note off, E5 key=76 velocity: 0
@4200 $17.5 Channel: 1 Note on, A5 key=81 velocity: 100
@4230 $17.625 Channel: 1 Note off, A5 key=81 velocity: 0
@4230 $17.625 Channel: 1 Note on, G5 key=79 velocity: 100
@4260 $17.75 Channel: 1 Note off, G5 key=79 velocity: 0
@4260 $17.75 Channel: 1 Note on, F5 key=77 velocity: 100
@4290 $17.875 Channel: 1 Note off, F5 key=77 velocity: 0
@4290 $17.875 Channel: 1 Note on, E5 key=76 velocity: 100
@4320 $18.0 Channel: 1 Note off, E5 key=76 velocity: 0
@4320 $18.0 Channel: 1 Note on, B4 key=71 velocity: 100
@4320 $18.0 Channel: 1 Note on, D5 key=74 velocity: 100
@4380 $18.25 Channel: 1 Note off, B4 key=71 velocity: 0
@4380 $18.25 Channel: 1 Note on, G4 key=67 velocity: 100
@4440 $18.5 Channel: 1 Note off, G4 key=67 velocity: 0
@4440 $18.5 Channel: 1 Note off, D5 key=74 velocity: 0
@4440 $18.5 Channel: 1 Note on, E5 key=76 velocity: 100
@4440 $18.5 Channel: 1 Note on, C5 key=72 velocity: 100
@4470 $18.625 Channel: 1 Note off, C5 key=72 velocity: 0
@4470 $18.625 Channel: 1 Note off, E5 key=76 velocity: 0
@4500 $18.75 Channel: 1 Note on, D5 key=74 velocity: 100
@4500 $18.75 Channel: 1 Note on, F5 key=77 velocity: 100
@4530 $18.875 Channel: 1 Note off, F5 key=77 velocity: 0
@4530 $18.875 Channel: 1 Note off, D5 key=74 velocity: 0
@4560 $19.0 Channel: 1 Note on, E5 key=76 velocity: 100
@4560 $19.0 Channel: 1 Note on, G5 key=79 velocity: 100
@4590 $19.125 Channel: 1 Note off, G5 key=79 velocity: 0
@4590 $19.125 Channel: 1 Note off, E5 key=76 velocity: 0
@4620 $19.25 Channel: 1 Note on, E5 key=76 velocity: 100
@4620 $19.25 Channel: 1 Note on, G5 key=79 velocity: 100
@4650 $19.375 Channel: 1 Note off, G5 key=79 velocity: 0
@4650 $19.375 Channel: 1 Note off, E5 key=76 velocity: 0
@4680 $19.5 Channel: 1 Note on, A5 key=81 velocity: 100
@4710 $19.625 Channel: 1 Note off, A5 key=81 velocity: 0
@4710 $19.625 Channel: 1 Note on, G5 key=79 velocity: 100
@4740 $19.75 Channel: 1 Note off, G5 key=79 velocity: 0
@4740 $19.75 Channel: 1 Note on, F5 key=77 velocity: 100
@4770 $19.875 Channel: 1 Note off, F5 key=77 velocity: 0
@4770 $19.875 Channel: 1 Note on, E5 key=76 velocity: 100
@4800 $20.0 Channel: 1 Note off, E5 key=76 velocity: 0
@4800 $20.0 Channel: 1 Note on, B4 key=71 velocity: 100
@4800 $20.0 Channel: 1 Note on, D5 key=74 velocity: 100
@4860 $20.25 Channel: 1 Note off, D5 key=74 velocity: 0
@4860 $20.25 Channel: 1 Note off, B4 key=71 velocity: 0
@4920 $20.5 Channel: 1 Note on, A4 key=69 velocity: 100
@4920 $20.5 Channel: 1 Note on, C5 key=72 velocity: 100
@4950 $20.625 Channel: 1 Note off, C5 key=72 velocity: 0
@4950 $20.625 Channel: 1 Note off, A4 key=69 velocity: 0
@4980 $20.75 Channel: 1 Note on, B4 key=71 velocity: 100
@4980 $20.75 Channel: 1 Note on, D5 key=74 velocity: 100
@5010 $20.875 Channel: 1 Note off, D5 key=74 velocity: 0
@5010 $20.875 Channel: 1 Note off, B4 key=71 velocity: 0
@5040 $21.0 Channel: 1 Note on, C5 key=72 velocity: 100
@5040 $21.0 Channel: 1 Note on, E5 key=76 velocity: 100
@5070 $21.125 Channel: 1 Note off, E5 key=76 velocity: 0
@5070 $21.125 Channel: 1 Note off, C5 key=72 velocity: 0
@5100 $21.25 Channel: 1 Note on, C5 key=72 velocity: 100
@5100 $21.25 Channel: 1 Note on, E5 key=76 velocity: 100
@5130 $21.375 Channel: 1 Note off, E5 key=76 velocity: 0
@5130 $21.375 Channel: 1 Note off, C5 key=72 velocity: 0
@5160 $21.5 Channel: 1 Note on, F5 key=77 velocity: 100
@5190 $21.625 Channel: 1 Note off, F5 key=77 velocity: 0
@5190 $21.625 Channel: 1 Note on, E5 key=76 velocity: 100
@5220 $21.75 Channel: 1 Note off, E5 key=76 velocity: 0
@5220 $21.75 Channel: 1 Note on, D5 key=74 velocity: 100
@5250 $21.875 Channel: 1 Note off, D5 key=74 velocity: 0
@5250 $21.875 Channel: 1 Note on, C5 key=72 velocity: 100
@5280 $22.0 Channel: 1 Note off, C5 key=72 velocity: 0
@5280 $22.0 Channel: 1 Note on, G#4 key=68 velocity: 100
@5280 $22.0 Channel: 1 Note on, B4 key=71 velocity: 100
@5340 $22.25 Channel: 1 Note off, G#4 key=68 velocity: 0
@5340 $22.25 Channel: 1 Note on, E4 key=64 velocity: 100
@5400 $22.5 Channel: 1 Note off, E4 key=64 velocity: 0
@5400 $22.5 Channel: 1 Note off, B4 key=71 velocity: 0
@5400 $22.5 Channel: 1 Note on, C5 key=72 velocity: 100
@5400 $22.5 Channel: 1 Note on, A4 key=69 velocity: 100
@5430 $22.625 Channel: 1 Note off, A4 key=69 velocity: 0
@5430 $22.625 Channel: 1 Note off, C5 key=72 velocity: 0
@5460 $22.75 Channel: 1 Note on, B4 key=71 velocity: 100
@5460 $22.75 Channel: 1 Note on, D5 key=74 velocity: 100
@5490 $22.875 Channel: 1 Note off, D5 key=74 velocity: 0
@5490 $22.875 Channel: 1 Note off, B4 key=71 velocity: 0
@5520 $23.0 Channel: 1 Note on, C5 key=72 velocity: 100
@5520 $23.0 Channel: 1 Note on, E5 key=76 velocity: 100
@5550 $23.125 Channel: 1 Note off, E5 key=76 velocity: 0
@5550 $23.125 Channel: 1 Note off, C5 key=72 velocity: 0
@5580 $23.25 Channel: 1 Note on, C5 key=72 velocity: 100
@5580 $23.25 Channel: 1 Note on, E5 key=76 velocity: 100
@5610 $23.375 Channel: 1 Note off, E5 key=76 velocity: 0
@5610 $23.375 Channel: 1 Note off, C5 key=72 velocity: 0
@5640 $23.5 Channel: 1 Note on, F5 key=77 velocity: 100
@5670 $23.625 Channel: 1 Note off, F5 key=77 velocity: 0
@5670 $23.625 Channel: 1 Note on, E5 key=76 velocity: 100
@5700 $23.75 Channel: 1 Note off, E5 key=76 velocity: 0
@5700 $23.75 Channel: 1 Note on, D5 key=74 velocity: 100
@5730 $23.875 Channel: 1 Note off, D5 key=74 velocity: 0
@5730 $23.875 Channel: 1 Note on, C5 key=72 velocity: 100
@5760 $24.0 Channel: 1 Note off, C5 key=72 velocity: 0
@5760 $24.0 Channel: 1 Note on, G#4 key=68 velocity: 100
@5760 $24.0 Channel: 1 Note on, B4 key=71 velocity: 100
@5880 $24.5 Channel: 1 Note off, B4 key=71 velocity: 0
@5880 $24.5 Channel: 1 Note off, G#4 key=68 velocity: 0
@5880 $24.5 Channel: 1 Note on, B4 key=71 velocity: 100
@5910 $24.625 Channel: 1 Note off, B4 key=71 velocity: 0
@5910 $24.625 Channel: 1 Note on, A4 key=69 velocity: 100
@5940 $24.75 Channel: 1 Note off, A4 key=69 velocity: 0
@5940 $24.75 Channel: 1 Note on, G#4 key=68 velocity: 100
@5970 $24.875 Channel: 1 Note off, G#4 key=68 velocity: 0
@5970 $24.875 Channel: 1 Note on, A4 key=69 velocity: 100
@6000 $25.0 Channel: 1 Note off, A4 key=69 velocity: 0
@6000 $25.0 Channel: 1 Note on, C5 key=72 velocity: 100
@6055 $25.229166666666668 Channel: 1 Note off, C5 key=72 velocity: 0
@6120 $25.5 Channel: 1 Note on, D5 key=74 velocity: 100
@6150 $25.625 Channel: 1 Note off, D5 key=74 velocity: 0
@6150 $25.625 Channel: 1 Note on, C5 key=72 velocity: 100
@6180 $25.75 Channel: 1 Note off, C5 key=72 velocity: 0
@6180 $25.75 Channel: 1 Note on, B4 key=71 velocity: 100
@6210 $25.875 Channel: 1 Note off, B4 key=71 velocity: 0
@6210 $25.875 Channel: 1 Note on, C5 key=72 velocity: 100
@6240 $26.0 Channel: 1 Note off, C5 key=72 velocity: 0
@6240 $26.0 Channel: 1 Note on, E5 key=76 velocity: 100
@6295 $26.229166666666668 Channel: 1 Note off, E5 key=76 velocity: 0
@6360 $26.5 Channel: 1 Note on, F5 key=77 velocity: 100
@6390 $26.625 Channel: 1 Note off, F5 key=77 velocity: 0
@6390 $26.625 Channel: 1 Note on, E5 key=76 velocity: 100
@6420 $26.75 Channel: 1 Note off, E5 key=76 velocity: 0
@6420 $26.75 Channel: 1 Note on, D#5 key=75 velocity: 100
@6450 $26.875 Channel: 1 Note off, D#5 key=75 velocity: 0
@6450 $26.875 Channel: 1 Note on, E5 key=76 velocity: 100
@6480 $27.0 Channel: 1 Note off, E5 key=76 velocity: 0
@6480 $27.0 Channel: 1 Note on, B5 key=83 velocity: 100
@6510 $27.125 Channel: 1 Note off, B5 key=83 velocity: 0
@6510 $27.125 Channel: 1 Note on, A5 key=81 velocity: 100
@6540 $27.25 Channel: 1 Note off, A5 key=81 velocity: 0
@6540 $27.25 Channel: 1 Note on, G#5 key=80 velocity: 100
@6570 $27.375 Channel: 1 Note off, G#5 key=80 velocity: 0
@6570 $27.375 Channel: 1 Note on, A5 key=81 velocity: 100
@6600 $27.5 Channel: 1 Note off, A5 key=81 velocity: 0
@6600 $27.5 Channel: 1 Note on, B5 key=83 velocity: 100
@6630 $27.625 Channel: 1 Note off, B5 key=83 velocity: 0
@6630 $27.625 Channel: 1 Note on, A5 key=81 velocity: 100
@6660 $27.75 Channel: 1 Note off, A5 key=81 velocity: 0
@6660 $27.75 Channel: 1 Note on, G#5 key=80 velocity: 100
@6690 $27.875 Channel: 1 Note off, G#5 key=80 velocity: 0
@6690 $27.875 Channel: 1 Note on, A5 key=81 velocity: 100
@6720 $28.0 Channel: 1 Note off, A5 key=81 velocity: 0
@6720 $28.0 Channel: 1 Note on, C6 key=84 velocity: 100
@6840 $28.5 Channel: 1 Note off, C6 key=84 velocity: 0
@6840 $28.5 Channel: 1 Note on, A5 key=81 velocity: 100
@6870 $28.625 Channel: 1 Note off, A5 key=81 velocity: 0
@6900 $28.75 Channel: 1 Note on, B5 key=83 velocity: 100
@6930 $28.875 Channel: 1 Note off, B5 key=83 velocity: 0
@6960 $29.0 Channel: 1 Note on, C6 key=84 velocity: 100
@6990 $29.125 Channel: 1 Note off, C6 key=84 velocity: 0
@7020 $29.25 Channel: 1 Note on, B5 key=83 velocity: 100
@7050 $29.375 Channel: 1 Note off, B5 key=83 velocity: 0
@7080 $29.5 Channel: 1 Note on, A5 key=81 velocity: 100
@7110 $29.625 Channel: 1 Note off, A5 key=81 velocity: 0
@7140 $29.75 Channel: 1 Note on, G#5 key=80 velocity: 100
@7170 $29.875 Channel: 1 Note off, G#5 key=80 velocity: 0
@7200 $30.0 Channel: 1 Note on, A5 key=81 velocity: 100
@7230 $30.125 Channel: 1 Note off, A5 key=81 velocity: 0
@7260 $30.25 Channel: 1 Note on, E5 key=76 velocity: 100
@7290 $30.375 Channel: 1 Note off, E5 key=76 velocity: 0
@7320 $30.5 Channel: 1 Note on, F5 key=77 velocity: 100
@7350 $30.625 Channel: 1 Note off, F5 key=77 velocity: 0
@7380 $30.75 Channel: 1 Note on, D5 key=74 velocity: 100
@7410 $30.875 Channel: 1 Note off, D5 key=74 velocity: 0
@7440 $31.0 Channel: 1 Note on, C5 key=72 velocity: 100
@7560 $31.5 Channel: 1 Note off, C5 key=72 velocity: 0
@7560 $31.5 Channel: 1 Note on, C5 key=72 velocity: 102
@7575 $31.5625 Channel: 1 Note off, C5 key=72 velocity: 0
@7575 $31.5625 Channel: 1 Note on, B4 key=71 velocity: 101
@7590 $31.625 Channel: 1 Note off, B4 key=71 velocity: 0
@7590 $31.625 Channel: 1 Note on, C5 key=72 velocity: 99
@7605 $31.6875 Channel: 1 Note off, C5 key=72 velocity: 0
@7605 $31.6875 Channel: 1 Note on, B4 key=71 velocity: 98
@7620 $31.75 Channel: 1 Note off, B4 key=71 velocity: 0
@7620 $31.75 Channel: 1 Note on, C5 key=72 velocity: 96
@7635 $31.8125 Channel: 1 Note off, C5 key=72 velocity: 0
@7635 $31.8125 Channel: 1 Note on, B4 key=71 velocity: 94
@7650 $31.875 Channel: 1 Note off, B4 key=71 velocity: 0
@7650 $31.875 Channel: 1 Note on, A4 key=69 velocity: 100
@7665 $31.9375 Channel: 1 Note off, A4 key=69 velocity: 0
@7665 $31.9375 Channel: 1 Note on, B4 key=71 velocity: 100
@7680 $32.0 Channel: 1 Note off, B4 key=71 velocity: 0
@7680 $32.0 Channel: 1 Note on, A4 key=69 velocity: 100
@7800 $32.5 Channel: 1 Note off, A4 key=69 velocity: 0
@7800 $32.5 Channel: 1 Note on, C5 key=72 velocity: 100
@7800 $32.5 Channel: 1 Note on, E5 key=76 velocity: 100
@7830 $32.625 Channel: 1 Note off, E5 key=76 velocity: 0
@7830 $32.625 Channel: 1 Note off, C5 key=72 velocity: 0
@7860 $32.75 Channel: 1 Note on, F5 key=77 velocity: 100
@7860 $32.75 Channel: 1 Note on, D5 key=74 velocity: 100
@7890 $32.875 Channel: 1 Note off, D5 key=74 velocity: 0
@7890 $32.875 Channel: 1 Note off, F5 key=77 velocity: 0
@7920 $33.0 Channel: 1 Note on, E5 key=76 velocity: 100
@7920 $33.0 Channel: 1 Note on, G5 key=79 velocity: 100
@7950 $33.125 Channel: 1 Note off, G5 key=79 velocity: 0
@7950 $33.125 Channel: 1 Note off, E5 key=76 velocity: 0
@7980 $33.25 Channel: 1 Note on, E5 key=76 velocity: 100
@7980 $33.25 Channel: 1 Note on, G5 key=79 velocity: 100
@8010 $33.375 Channel: 1 Note off, G5 key=79 velocity: 0
@8010 $33.375 Channel: 1 Note off, E5 key=76 velocity: 0
@8040 $33.5 Channel: 1 Note on, A5 key=81 velocity: 100
@8070 $33.625 Channel: 1 Note off, A5 key=81 velocity: 0
@8070 $33.625 Channel: 1 Note on, G5 key=79 velocity: 100
@8100 $33.75 Channel: 1 Note off, G5 key=79 velocity: 0
@8100 $33.75 Channel: 1 Note on, F5 key=77 velocity: 100
@8130 $33.875 Channel: 1 Note off, F5 key=77 velocity: 0
@8130 $33.875 Channel: 1 Note on, E5 key=76 velocity: 100
@8160 $34.0 Channel: 1 Note off, E5 key=76 velocity: 0
@8160 $34.0 Channel: 1 Note on, B4 key=71 velocity: 100
@8160 $34.0 Channel: 1 Note on, D5 key=74 velocity: 100
@8220 $34.25 Channel: 1 Note off, B4 key=71 velocity: 0
@8220 $34.25 Channel: 1 Note on, G4 key=67 velocity: 100
@8280 $34.5 Channel: 1 Note off, G4 key=67 velocity: 0
@8280 $34.5 Channel: 1 Note off, D5 key=74 velocity: 0
@8280 $34.5 Channel: 1 Note on, E5 key=76 velocity: 100
@8280 $34.5 Channel: 1 Note on, C5 key=72 velocity: 100
@8310 $34.625 Channel: 1 Note off, C5 key=72 velocity: 0
@8310 $34.625 Channel: 1 Note off, E5 key=76 velocity: 0
@8340 $34.75 Channel: 1 Note on, D5 key=74 velocity: 100
@8340 $34.75 Channel: 1 Note on, F5 key=77 velocity: 100
@8370 $34.875 Channel: 1 Note off, F5 key=77 velocity: 0
@8370 $34.875 Channel: 1 Note off, D5 key=74 velocity: 0
@8400 $35.0 Channel: 1 Note on, E5 key=76 velocity: 100
@8400 $35.0 Channel: 1 Note on, G5 key=79 velocity: 100
@8430 $35.125 Channel: 1 Note off, G5 key=79 velocity: 0
@8430 $35.125 Channel: 1 Note off, E5 key=76 velocity: 0
@8460 $35.25 Channel: 1 Note on, E5 key=76 velocity: 100
@8460 $35.25 Channel: 1 Note on, G5 key=79 velocity: 100
@8490 $35.375 Channel: 1 Note off, G5 key=79 velocity: 0
@8490 $35.375 Channel: 1 Note off, E5 key=76 velocity: 0
@8520 $35.5 Channel: 1 Note on, A5 key=81 velocity: 100
@8550 $35.625 Channel: 1 Note off, A5 key=81 velocity: 0
@8550 $35.625 Channel: 1 Note on, G5 key=79 velocity: 100
@8580 $35.75 Channel: 1 Note off, G5 key=79 velocity: 0
@8580 $35.75 Channel: 1 Note on, F5 key=77 velocity: 100
@8610 $35.875 Channel: 1 Note off, F5 key=77 velocity: 0
@8610 $35.875 Channel: 1 Note on, E5 key=76 velocity: 100
@8640 $36.0 Channel: 1 Note off, E5 key=76 velocity: 0
@8640 $36.0 Channel: 1 Note on, B4 key=71 velocity: 100
@8640 $36.0 Channel: 1 Note on, D5 key=74 velocity: 100
@8700 $36.25 Channel: 1 Note off, D5 key=74 velocity: 0
@8700 $36.25 Channel: 1 Note off, B4 key=71 velocity: 0
@8760 $36.5 Channel: 1 Note on, A4 key=69 velocity: 100
@8760 $36.5 Channel: 1 Note on, C5 key=72 velocity: 100
@8790 $36.625 Channel: 1 Note off, C5 key=72 velocity: 0
@8790 $36.625 Channel: 1 Note off, A4 key=69 velocity: 0
@8820 $36.75 Channel: 1 Note on, B4 key=71 velocity: 100
@8820 $36.75 Channel: 1 Note on, D5 key=74 velocity: 100
@8850 $36.875 Channel: 1 Note off, D5 key=74 velocity: 0
@8850 $36.875 Channel: 1 Note off, B4 key=71 velocity: 0
@8880 $37.0 Channel: 1 Note on, C5 key=72 velocity: 100
@8880 $37.0 Channel: 1 Note on, E5 key=76 velocity: 100
@8910 $37.125 Channel: 1 Note off, E5 key=76 velocity: 0
@8910 $37.125 Channel: 1 Note off, C5 key=72 velocity: 0
@8940 $37.25 Channel: 1 Note on, C5 key=72 velocity: 100
@8940 $37.25 Channel: 1 Note on, E5 key=76 velocity: 100
@8970 $37.375 Channel: 1 Note off, E5 key=76 velocity: 0
@8970 $37.375 Channel: 1 Note off, C5 key=72 velocity: 0
@9000 $37.5 Channel: 1 Note on, F5 key=77 velocity: 100
@9030 $37.625 Channel: 1 Note off, F5 key=77 velocity: 0
@9030 $37.625 Channel: 1 Note on, E5 key=76 velocity: 100
@9060 $37.75 Channel: 1 Note off, E5 key=76 velocity: 0
@9060 $37.75 Channel: 1 Note on, D5 key=74 velocity: 100
@9090 $37.875 Channel: 1 Note off, D5 key=74 velocity: 0
@9090 $37.875 Channel: 1 Note on, C5 key=72 velocity: 100
@9120 $38.0 Channel: 1 Note off, C5 key=72 velocity: 0
@9120 $38.0 Channel: 1 Note on, G#4 key=68 velocity: 100
@9120 $38.0 Channel: 1 Note on, B4 key=71 velocity: 100
@9180 $38.25 Channel: 1 Note off, G#4 key=68 velocity: 0
@9180 $38.25 Channel: 1 Note on, E4 key=64 velocity: 100
@9240 $38.5 Channel: 1 Note off, E4 key=64 velocity: 0
@9240 $38.5 Channel: 1 Note off, B4 key=71 velocity: 0
@9240 $38.5 Channel: 1 Note on, C5 key=72 velocity: 100
@9240 $38.5 Channel: 1 Note on, A4 key=69 velocity: 100
@9270 $38.625 Channel: 1 Note off, A4 key=69 velocity: 0
@9270 $38.625 Channel: 1 Note off, C5 key=72 velocity: 0
@9300 $38.75 Channel: 1 Note on, B4 key=71 velocity: 100
@9300 $38.75 Channel: 1 Note on, D5 key=74 velocity: 100
@9330 $38.875 Channel: 1 Note off, D5 key=74 velocity: 0
@9330 $38.875 Channel: 1 Note off, B4 key=71 velocity: 0
@9360 $39.0 Channel: 1 Note on, C5 key=72 velocity: 100
@9360 $39.0 Channel: 1 Note on, E5 key=76 velocity: 100
@9390 $39.125 Channel: 1 Note off, E5 key=76 velocity: 0
@9390 $39.125 Channel: 1 Note off, C5 key=72 velocity: 0
@9420 $39.25 Channel: 1 Note on, C5 key=72 velocity: 100
@9420 $39.25 Channel: 1 Note on, E5 key=76 velocity: 100
@9450 $39.375 Channel: 1 Note off, E5 key=76 velocity: 0
@9450 $39.375 Channel: 1 Note off, C5 key=72 velocity: 0
@9480 $39.5 Channel: 1 Note on, F5 key=77 velocity: 100
@9510 $39.625 Channel: 1 Note off, F5 key=77 velocity: 0
@9510 $39.625 Channel: 1 Note on, E5 key=76 velocity: 100
@9540 $39.75 Channel: 1 Note off, E5 key=76 velocity: 0
@9540 $39.75 Channel: 1 Note on, D5 key=74 velocity: 100
@9570 $39.875 Channel: 1 Note off, D5 key=74 velocity: 0
@9570 $39.875 Channel: 1 Note on, C5 key=72 velocity: 100
@9600 $40.0 Channel: 1 Note off, C5 key=72 velocity: 0
@9600 $40.0 Channel: 1 Note on, G#4 key=68 velocity: 100
@9600 $40.0 Channel: 1 Note on, B4 key=71 velocity: 100
@9720 $40.5 Channel: 1 Note off, B4 key=71 velocity: 0
@9720 $40.5 Channel: 1 Note off, G#4 key=68 velocity: 0
@9720 $40.5 Channel: 1 Note on, B4 key=71 velocity: 100
@9750 $40.625 Channel: 1 Note off, B4 key=71 velocity: 0
@9750 $40.625 Channel: 1 Note on, A4 key=69 velocity: 100
@9780 $40.75 Channel: 1 Note off, A4 key=69 velocity: 0
@9780 $40.75 Channel: 1 Note on, G#4 key=68 velocity: 100
@9810 $40.875 Channel: 1 Note off, G#4 key=68 velocity: 0
@9810 $40.875 Channel: 1 Note on, A4 key=69 velocity: 100
@9840 $41.0 Channel: 1 Note off, A4 key=69 velocity: 0
@9840 $41.0 Channel: 1 Note on, C5 key=72 velocity: 100
@9895 $41.229166666666664 Channel: 1 Note off, C5 key=72 velocity: 0
@9960 $41.5 Channel: 1 Note on, D5 key=74 velocity: 100
@9990 $41.625 Channel: 1 Note off, D5 key=74 velocity: 0
@9990 $41.625 Channel: 1 Note on, C5 key=72 velocity: 100
@10020 $41.75 Channel: 1 Note off, C5 key=72 velocity: 0
@10020 $41.75 Channel: 1 Note on, B4 key=71 velocity: 100
@10050 $41.875 Channel: 1 Note off, B4 key=71 velocity: 0
@10050 $41.875 Channel: 1 Note on, C5 key=72 velocity: 100
@10080 $42.0 Channel: 1 Note off, C5 key=72 velocity: 0
@10080 $42.0 Channel: 1 Note on, E5 key=76 velocity: 100
@10135 $42.229166666666664 Channel: 1 Note off, E5 key=76 velocity: 0
@10200 $42.5 Channel: 1 Note on, F5 key=77 velocity: 100
@10230 $42.625 Channel: 1 Note off, F5 key=77 velocity: 0
@10230 $42.625 Channel: 1 Note on, E5 key=76 velocity: 100
@10260 $42.75 Channel: 1 Note off, E5 key=76 velocity: 0
@10260 $42.75 Channel: 1 Note on, D#5 key=75 velocity: 100
@10290 $42.875 Channel: 1 Note off, D#5 key=75 velocity: 0
@10290 $42.875 Channel: 1 Note on, E5 key=76 velocity: 100
@10320 $43.0 Channel: 1 Note off, E5 key=76 velocity: 0
@10320 $43.0 Channel: 1 Note on, B5 key=83 velocity: 100
@10350 $43.125 Channel: 1 Note off, B5 key=83 velocity: 0
@10350 $43.125 Channel: 1 Note on, A5 key=81 velocity: 100
@10380 $43.25 Channel: 1 Note off, A5 key=81 velocity: 0
@10380 $43.25 Channel: 1 Note on, G#5 key=80 velocity: 100
@10410 $43.375 Channel: 1 Note off, G#5 key=80 velocity: 0
@10410 $43.375 Channel: 1 Note on, A5 key=81 velocity: 100
@10440 $43.5 Channel: 1 Note off, A5 key=81 velocity: 0
@10440 $43.5 Channel: 1 Note on, B5 key=83 velocity: 100
@10470 $43.625 Channel: 1 Note off, B5 key=83 velocity: 0
@10470 $43.625 Channel: 1 Note on, A5 key=81 velocity: 100
@10500 $43.75 Channel: 1 Note off, A5 key=81 velocity: 0
@10500 $43.75 Channel: 1 Note on, G#5 key=80 velocity: 100
@10530 $43.875 Channel: 1 Note off, G#5 key=80 velocity: 0
@10530 $43.875 Channel: 1 Note on, A5 key=81 velocity: 100
@10560 $44.0 Channel: 1 Note off, A5 key=81 velocity: 0
@10560 $44.0 Channel: 1 Note on, C6 key=84 velocity: 100
@10680 $44.5 Channel: 1 Note off, C6 key=84 velocity: 0
@10680 $44.5 Channel: 1 Note on, A5 key=81 velocity: 100
@10710 $44.625 Channel: 1 Note off, A5 key=81 velocity: 0
@10740 $44.75 Channel: 1 Note on, B5 key=83 velocity: 100
@10770 $44.875 Channel: 1 Note off, B5 key=83 velocity: 0
@10800 $45.0 Channel: 1 Note on, C6 key=84 velocity: 100
@10830 $45.125 Channel: 1 Note off, C6 key=84 velocity: 0
@10860 $45.25 Channel: 1 Note on, B5 key=83 velocity: 100
@10890 $45.375 Channel: 1 Note off, B5 key=83 velocity: 0
@10920 $45.5 Channel: 1 Note on, A5 key=81 velocity: 100
@10950 $45.625 Channel: 1 Note off, A5 key=81 velocity: 0
@10980 $45.75 Channel: 1 Note on, G#5 key=80 velocity: 100
@11010 $45.875 Channel: 1 Note off, G#5 key=80 velocity: 0
@11040 $46.0 Channel: 1 Note on, A5 key=81 velocity: 100
@11070 $46.125 Channel: 1 Note off, A5 key=81 velocity: 0
@11100 $46.25 Channel: 1 Note on, E5 key=76 velocity: 100
@11130 $46.375 Channel: 1 Note off, E5 key=76 velocity: 0
@11160 $46.5 Channel: 1 Note on, F5 key=77 velocity: 100
@11190 $46.625 Channel: 1 Note off, F5 key=77 velocity: 0
@11220 $46.75 Channel: 1 Note on, D5 key=74 velocity: 100
@11250 $46.875 Channel: 1 Note off, D5 key=74 velocity: 0
@11280 $47.0 Channel: 1 Note on, C5 key=72 velocity: 100
@11400 $47.5 Channel: 1 Note off, C5 key=72 velocity: 0
@11400 $47.5 Channel: 1 Note on, C5 key=72 velocity: 102
@11415 $47.5625 Channel: 1 Note off, C5 key=72 velocity: 0
@11415 $47.5625 Channel: 1 Note on, B4 key=71 velocity: 101
@11430 $47.625 Channel: 1 Note off, B4 key=71 velocity: 0
@11430 $47.625 Channel: 1 Note on, C5 key=72 velocity: 99
@11445 $47.6875 Channel: 1 Note off, C5 key=72 velocity: 0
@11445 $47.6875 Channel: 1 Note on, B4 key=71 velocity: 98
@11460 $47.75 Channel: 1 Note off, B4 key=71 velocity: 0
@11460 $47.75 Channel: 1 Note on, C5 key=72 velocity: 96
@11475 $47.8125 Channel: 1 Note off, C5 key=72 velocity: 0
@11475 $47.8125 Channel: 1 Note on, B4 key=71 velocity: 94
@11490 $47.875 Channel: 1 Note off, B4 key=71 velocity: 0
@11490 $47.875 Channel: 1 Note on, A4 key=69 velocity: 100
@11505 $47.9375 Channel: 1 Note off, A4 key=69 velocity: 0
@11505 $47.9375 Channel: 1 Note on, B4 key=71 velocity: 100
@11520 $48.0 Channel: 1 Note off, B4 key=71 velocity: 0
@11520 $48.0 Channel: 1 Note on, A4 key=69 velocity: 100
@11640 $48.5 Channel: 1 Note off, A4 key=69 velocity: 0
@11640 $48.5 Channel: 1 Note on, A5 key=81 velocity: 100
@11640 $48.5 Channel: 1 Note on, A4 key=69 velocity: 100
@11700 $48.75 Channel: 1 Note off, A4 key=69 velocity: 0
@11700 $48.75 Channel: 1 Note off, A5 key=81 velocity: 0
@11700 $48.75 Channel: 1 Note on, B4 key=71 velocity: 100
@11700 $48.75 Channel: 1 Note on, B5 key=83 velocity: 100
@11760 $49.0 Channel: 1 Note off, B5 key=83 velocity: 0
@11760 $49.0 Channel: 1 Note off, B4 key=71 velocity: 0
@11760 $49.0 Channel: 1 Note on, C#5 key=73 velocity: 108
@11760 $49.0 Channel: 1 Note on, C#6 key=85 velocity: 108
@11760 $49.0 Channel: 1 Note on, A3 key=57 velocity: 100
@11770 $49.041666666666664 Channel: 1 Note off, A3 key=57 velocity: 0
@11770 $49.041666666666664 Channel: 1 Note on, C#4 key=61 velocity: 100
@11780 $49.083333333333336 Channel: 1 Note off, C#4 key=61 velocity: 0
@11780 $49.083333333333336 Channel: 1 Note on, E4 key=64 velocity: 100
@11790 $49.125 Channel: 1 Note off, E4 key=64 velocity: 0
@11790 $49.125 Channel: 1 Note on, A4 key=69 velocity: 108
@11820 $49.25 Channel: 1 Note off, A4 key=69 velocity: 0
@11880 $49.5 Channel: 1 Note off, C#6 key=85 velocity: 0
@11880 $49.5 Channel: 1 Note off, C#5 key=73 velocity: 0
@11880 $49.5 Channel: 1 Note on, A5 key=81 velocity: 100
@11880 $49.5 Channel: 1 Note on, A4 key=69 velocity: 100
@11940 $49.75 Channel: 1 Note off, A4 key=69 velocity: 0
@11940 $49.75 Channel: 1 Note off, A5 key=81 velocity: 0
@11940 $49.75 Channel: 1 Note on, B4 key=71 velocity: 100
@11940 $49.75 Channel: 1 Note on, B5 key=83 velocity: 100
@12000 $50.0 Channel: 1 Note off, B5 key=83 velocity: 0
@12000 $50.0 Channel: 1 Note off, B4 key=71 velocity: 0
@12000 $50.0 Channel: 1 Note on, A3 key=57 velocity: 108
@12000 $50.0 Channel: 1 Note on, C#5 key=73 velocity: 108
@12000 $50.0 Channel: 1 Note on, C#6 key=85 velocity: 108
@12010 $50.041666666666664 Channel: 1 Note on, C#4 key=61 velocity: 108
@12015 $50.0625 Channel: 1 Note off, A3 key=57 velocity: 0
@12020 $50.083333333333336 Channel: 1 Note on, E4 key=64 velocity: 108
@12025 $50.104166666666664 Channel: 1 Note off, C#4 key=61 velocity: 0
@12035 $50.145833333333336 Channel: 1 Note off, E4 key=64 velocity: 0
@12060 $50.25 Channel: 1 Note off, C#6 key=85 velocity: 0
@12060 $50.25 Channel: 1 Note off, C#5 key=73 velocity: 0
@12060 $50.25 Channel: 1 Note on, B4 key=71 velocity: 108
@12060 $50.25 Channel: 1 Note on, B5 key=83 velocity: 108
@12090 $50.375 Channel: 1 Note off, B5 key=83 velocity: 0
@12090 $50.375 Channel: 1 Note off, B4 key=71 velocity: 0
@12120 $50.5 Channel: 1 Note on, A5 key=81 velocity: 108
@12120 $50.5 Channel: 1 Note on, A4 key=69 velocity: 108
@12150 $50.625 Channel: 1 Note off, A4 key=69 velocity: 0
@12150 $50.625 Channel: 1 Note off, A5 key=81 velocity: 0
@12180 $50.75 Channel: 1 Note on, G#5 key=80 velocity: 108
@12180 $50.75 Channel: 1 Note on, G#4 key=68 velocity: 108
@12210 $50.875 Channel: 1 Note off, G#4 key=68 velocity: 0
@12210 $50.875 Channel: 1 Note off, G#5 key=80 velocity: 0
@12240 $51.0 Channel: 1 Note on, D3 key=50 velocity: 108
@12240 $51.0 Channel: 1 Note on, F#4 key=66 velocity: 108
@12240 $51.0 Channel: 1 Note on, F#5 key=78 velocity: 108
@12250 $51.041666666666664 Channel: 1 Note on, F#3 key=54 velocity: 108
@12255 $51.0625 Channel: 1 Note off, D3 key=50 velocity: 0
@12260 $51.083333333333336 Channel: 1 Note on, A3 key=57 velocity: 108
@12265 $51.104166666666664 Channel: 1 Note off, F#3 key=54 velocity: 0
@12270 $51.125 Channel: 1 Note off, F#4 key=66 velocity: 0
@12270 $51.125 Channel: 1 Note off, F#5 key=78 velocity: 0
@12275 $51.145833333333336 Channel: 1 Note off, A3 key=57 velocity: 0
@12300 $51.25 Channel: 1 Note on, G#4 key=68 velocity: 108
@12300 $51.25 Channel: 1 Note on, G#5 key=80 velocity: 108
@12330 $51.375 Channel: 1 Note off, G#5 key=80 velocity: 0
@12330 $51.375 Channel: 1 Note off, G#4 key=68 velocity: 0
@12360 $51.5 Channel: 1 Note on, D#3 key=51 velocity: 108
@12360 $51.5 Channel: 1 Note on, A4 key=69 velocity: 108
@12360 $51.5 Channel: 1 Note on, A5 key=81 velocity: 108
@12370 $51.541666666666664 Channel: 1 Note on, F#3 key=54 velocity: 108
@12375 $51.5625 Channel: 1 Note off, D#3 key=51 velocity: 0
@12380 $51.583333333333336 Channel: 1 Note on, A3 key=57 velocity: 108
@12385 $51.604166666666664 Channel: 1 Note off, F#3 key=54 velocity: 0
@12390 $51.625 Channel: 1 Note off, A4 key=69 velocity: 0
@12390 $51.625 Channel: 1 Note off, A5 key=81 velocity: 0
@12395 $51.645833333333336 Channel: 1 Note off, A3 key=57 velocity: 0
@12420 $51.75 Channel: 1 Note on, B4 key=71 velocity: 108
@12420 $51.75 Channel: 1 Note on, B5 key=83 velocity: 108
@12450 $51.875 Channel: 1 Note off, B5 key=83 velocity: 0
@12450 $51.875 Channel: 1 Note off, B4 key=71 velocity: 0
@12480 $52.0 Channel: 1 Note on, E3 key=52 velocity: 108
@12480 $52.0 Channel: 1 Note on, G#5 key=80 velocity: 108
@12480 $52.0 Channel: 1 Note on, G#4 key=68 velocity: 108
@12490 $52.041666666666664 Channel: 1 Note on, G#3 key=56 velocity: 108
@12495 $52.0625 Channel: 1 Note off, E3 key=52 velocity: 0
@12500 $52.083333333333336 Channel: 1 Note on, B3 key=59 velocity: 108
@12505 $52.104166666666664 Channel: 1 Note off, G#3 key=56 velocity: 0
@12515 $52.145833333333336 Channel: 1 Note off, B3 key=59 velocity: 0
@12540 $52.25 Channel: 1 Note off, G#4 key=68 velocity: 0
@12540 $52.25 Channel: 1 Note off, G#5 key=80 velocity: 0
@12540 $52.25 Channel: 1 Note on, E4 key=64 velocity: 108
@12540 $52.25 Channel: 1 Note on, E5 key=76 velocity: 108
@12600 $52.5 Channel: 1 Note off, E5 key=76 velocity: 0
@12600 $52.5 Channel: 1 Note off, E4 key=64 velocity: 0
@12600 $52.5 Channel: 1 Note on, A4 key=69 velocity: 108
@12600 $52.5 Channel: 1 Note on, A5 key=81 velocity: 108
@12660 $52.75 Channel: 1 Note off, A5 key=81 velocity: 0
@12660 $52.75 Channel: 1 Note off, A4 key=69 velocity: 0
@12660 $52.75 Channel: 1 Note on, B4 key=71 velocity: 108
@12660 $52.75 Channel: 1 Note on, B5 key=83 velocity: 108
@12720 $53.0 Channel: 1 Note off, B5 key=83 velocity: 0
@12720 $53.0 Channel: 1 Note off, B4 key=71 velocity: 0
@12720 $53.0 Channel: 1 Note on, A3 key=57 velocity: 108
@12720 $53.0 Channel: 1 Note on, C#5 key=73 velocity: 108
@12720 $53.0 Channel: 1 Note on, C#6 key=85 velocity: 108
@12730 $53.041666666666664 Channel: 1 Note on, C#4 key=61 velocity: 108
@12735 $53.0625 Channel: 1 Note off, A3 key=57 velocity: 0
@12740 $53.083333333333336 Channel: 1 Note on, E4 key=64 velocity: 108
@12745 $53.104166666666664 Channel: 1 Note off, C#4 key=61 velocity: 0
@12755 $53.145833333333336 Channel: 1 Note off, E4 key=64 velocity: 0
@12840 $53.5 Channel: 1 Note off, C#6 key=85 velocity: 0
@12840 $53.5 Channel: 1 Note off, C#5 key=73 velocity: 0
@12840 $53.5 Channel: 1 Note on, A4 key=69 velocity: 108
@12840 $53.5 Channel: 1 Note on, A5 key=81 velocity: 108
@12885 $53.6875 Channel: 1 Note off, A5 key=81 velocity: 0
@12885 $53.6875 Channel: 1 Note off, A4 key=69 velocity: 0
@12900 $53.75 Channel: 1 Note on, B5 key=83 velocity: 108
@12900 $53.75 Channel: 1 Note on, B4 key=71 velocity: 108
@12945 $53.9375 Channel: 1 Note off, B4 key=71 velocity: 0
@12945 $53.9375 Channel: 1 Note off, B5 key=83 velocity: 0
@12960 $54.0 Channel: 1 Note on, A3 key=57 velocity: 108
@12960 $54.0 Channel: 1 Note on, C#5 key=73 velocity: 108
@12960 $54.0 Channel: 1 Note on, C#6 key=85 velocity: 108
@12970 $54.041666666666664 Channel: 1 Note on, C#4 key=61 velocity: 108
@12975 $54.0625 Channel: 1 Note off, A3 key=57 velocity: 0
@12980 $54.083333333333336 Channel: 1 Note on, E4 key=64 velocity: 108
@12985 $54.104166666666664 Channel: 1 Note off, C#4 key=61 velocity: 0
@12995 $54.145833333333336 Channel: 1 Note off, E4 key=64 velocity: 0
@13005 $54.1875 Channel: 1 Note off, C#6 key=85 velocity: 0
@13005 $54.1875 Channel: 1 Note off, C#5 key=73 velocity: 0
@13020 $54.25 Channel: 1 Note on, B4 key=71 velocity: 108
@13020 $54.25 Channel: 1 Note on, B5 key=83 velocity: 108
@13065 $54.4375 Channel: 1 Note off, B5 key=83 velocity: 0
@13065 $54.4375 Channel: 1 Note off, B4 key=71 velocity: 0
@13080 $54.5 Channel: 1 Note on, A5 key=81 velocity: 108
@13080 $54.5 Channel: 1 Note on, A4 key=69 velocity: 108
@13125 $54.6875 Channel: 1 Note off, A4 key=69 velocity: 0
@13125 $54.6875 Channel: 1 Note off, A5 key=81 velocity: 0
@13140 $54.75 Channel: 1 Note on, G#5 key=80 velocity: 108
@13140 $54.75 Channel: 1 Note on, G#4 key=68 velocity: 108
@13185 $54.9375 Channel: 1 Note off, G#4 key=68 velocity: 0
@13185 $54.9375 Channel: 1 Note off, G#5 key=80 velocity: 0
@13200 $55.0 Channel: 1 Note on, D3 key=50 velocity: 108
@13200 $55.0 Channel: 1 Note on, F#4 key=66 velocity: 108
@13200 $55.0 Channel: 1 Note on, F#5 key=78 velocity: 108
@13210 $55.041666666666664 Channel: 1 Note on, F#3 key=54 velocity: 108
@13215 $55.0625 Channel: 1 Note off, D3 key=50 velocity: 0
@13220 $55.083333333333336 Channel: 1 Note on, A3 key=57 velocity: 108
@13225 $55.104166666666664 Channel: 1 Note off, F#3 key=54 velocity: 0
@13235 $55.145833333333336 Channel: 1 Note off, A3 key=57 velocity: 0
@13245 $55.1875 Channel: 1 Note off, F#5 key=78 velocity: 0
@13245 $55.1875 Channel: 1 Note off, F#4 key=66 velocity: 0
@13260 $55.25 Channel: 1 Note on, B4 key=71 velocity: 108
@13260 $55.25 Channel: 1 Note on, B5 key=83 velocity: 108
@13305 $55.4375 Channel: 1 Note off, B5 key=83 velocity: 0
@13305 $55.4375 Channel: 1 Note off, B4 key=71 velocity: 0
@13320 $55.5 Channel: 1 Note on, E3 key=52 velocity: 108
@13320 $55.5 Channel: 1 Note on, G#4 key=68 velocity: 108
@13320 $55.5 Channel: 1 Note on, G#5 key=80 velocity: 108
@13330 $55.541666666666664 Channel: 1 Note on, G#3 key=56 velocity: 108
@13335 $55.5625 Channel: 1 Note off, E3 key=52 velocity: 0
@13340 $55.583333333333336 Channel: 1 Note on, B3 key=59 velocity: 108
@13345 $55.604166666666664 Channel: 1 Note off, G#3 key=56 velocity: 0
@13355 $55.645833333333336 Channel: 1 Note off, B3 key=59 velocity: 0
@13365 $55.6875 Channel: 1 Note off, G#5 key=80 velocity: 0
@13365 $55.6875 Channel: 1 Note off, G#4 key=68 velocity: 0
@13380 $55.75 Channel: 1 Note on, E4 key=64 velocity: 108
@13380 $55.75 Channel: 1 Note on, E5 key=76 velocity: 108
@13425 $55.9375 Channel: 1 Note off, E5 key=76 velocity: 0
@13425 $55.9375 Channel: 1 Note off, E4 key=64 velocity: 0
@13440 $56.0 Channel: 1 Note on, A3 key=57 velocity: 108
@13440 $56.0 Channel: 1 Note on, A4 key=69 velocity: 108
@13440 $56.0 Channel: 1 Note on, A5 key=81 velocity: 108
@13560 $56.5 Channel: 1 Note off, A5 key=81 velocity: 0
@13560 $56.5 Channel: 1 Note off, A4 key=69 velocity: 0
@13560 $56.5 Channel: 1 Note off, A3 key=57 velocity: 0
@13560 $56.5 Channel: 1 Note on, A5 key=81 velocity: 100
@13560 $56.5 Channel: 1 Note on, A4 key=69 velocity: 100
@13620 $56.75 Channel: 1 Note off, A4 key=69 velocity: 0
@13620 $56.75 Channel: 1 Note off, A5 key=81 velocity: 0
@13620 $56.75 Channel: 1 Note on, B4 key=71 velocity: 100
@13620 $56.75 Channel: 1 Note on, B5 key=83 velocity: 100
@13680 $57.0 Channel: 1 Note off, B5 key=83 velocity: 0
@13680 $57.0 Channel: 1 Note off, B4 key=71 velocity: 0
@13680 $57.0 Channel: 1 Note on, C#5 key=73 velocity: 108
@13680 $57.0 Channel: 1 Note on, C#6 key=85 velocity: 108
@13680 $57.0 Channel: 1 Note on, A3 key=57 velocity: 100
@13690 $57.041666666666664 Channel: 1 Note off, A3 key=57 velocity: 0
@13690 $57.041666666666664 Channel: 1 Note on, C#4 key=61 velocity: 100
@13700 $57.083333333333336 Channel: 1 Note off, C#4 key=61 velocity: 0
@13700 $57.083333333333336 Channel: 1 Note on, E4 key=64 velocity: 100
@13710 $57.125 Channel: 1 Note off, E4 key=64 velocity: 0
@13710 $57.125 Channel: 1 Note on, A4 key=69 velocity: 108
@13740 $57.25 Channel: 1 Note off, A4 key=69 velocity: 0
@13800 $57.5 Channel: 1 Note off, C#6 key=85 velocity: 0
@13800 $57.5 Channel: 1 Note off, C#5 key=73 velocity: 0
@13800 $57.5 Channel: 1 Note on, A5 key=81 velocity: 100
@13800 $57.5 Channel: 1 Note on, A4 key=69 velocity: 100
@13860 $57.75 Channel: 1 Note off, A4 key=69 velocity: 0
@13860 $57.75 Channel: 1 Note off, A5 key=81 velocity: 0
@13860 $57.75 Channel: 1 Note on, B4 key=71 velocity: 100
@13860 $57.75 Channel: 1 Note on, B5 key=83 velocity: 100
@13920 $58.0 Channel: 1 Note off, B5 key=83 velocity: 0
@13920 $58.0 Channel: 1 Note off, B4 key=71 velocity: 0
@13920 $58.0 Channel: 1 Note on, A3 key=57 velocity: 108
@13920 $58.0 Channel: 1 Note on, C#5 key=73 velocity: 108
@13920 $58.0 Channel: 1 Note on, C#6 key=85 velocity: 108
@13930 $58.041666666666664 Channel: 1 Note on, C#4 key=61 velocity: 108
@13935 $58.0625 Channel: 1 Note off, A3 key=57 velocity: 0
@13940 $58.083333333333336 Channel: 1 Note on, E4 key=64 velocity: 108
@13945 $58.104166666666664 Channel: 1 Note off, C#4 key=61 velocity: 0
@13955 $58.145833333333336 Channel: 1 Note off, E4 key=64 velocity: 0
@13980 $58.25 Channel: 1 Note off, C#6 key=85 velocity: 0
@13980 $58.25 Channel: 1 Note off, C#5 key=73 velocity: 0
@13980 $58.25 Channel: 1 Note on, B4 key=71 velocity: 108
@13980 $58.25 Channel: 1 Note on, B5 key=83 velocity: 108
@14010 $58.375 Channel: 1 Note off, B5 key=83 velocity: 0
@14010 $58.375 Channel: 1 Note off, B4 key=71 velocity: 0
@14040 $58.5 Channel: 1 Note on, A5 key=81 velocity: 108
@14040 $58.5 Channel: 1 Note on, A4 key=69 velocity: 108
@14070 $58.625 Channel: 1 Note off, A4 key=69 velocity: 0
@14070 $58.625 Channel: 1 Note off, A5 key=81 velocity: 0
@14100 $58.75 Channel: 1 Note on, G#5 key=80 velocity: 108
@14100 $58.75 Channel: 1 Note on, G#4 key=68 velocity: 108
@14130 $58.875 Channel: 1 Note off, G#4 key=68 velocity: 0
@14130 $58.875 Channel: 1 Note off, G#5 key=80 velocity: 0
@14160 $59.0 Channel: 1 Note on, D3 key=50 velocity: 108
@14160 $59.0 Channel: 1 Note on, F#4 key=66 velocity: 108
@14160 $59.0 Channel: 1 Note on, F#5 key=78 velocity: 108
@14170 $59.041666666666664 Channel: 1 Note on, F#3 key=54 velocity: 108
@14175 $59.0625 Channel: 1 Note off, D3 key=50 velocity: 0
@14180 $59.083333333333336 Channel: 1 Note on, A3 key=57 velocity: 108
@14185 $59.104166666666664 Channel: 1 Note off, F#3 key=54 velocity: 0
@14190 $59.125 Channel: 1 Note off, F#4 key=66 velocity: 0
@14190 $59.125 Channel: 1 Note off, F#5 key=78 velocity: 0
@14195 $59.145833333333336 Channel: 1 Note off, A3 key=57 velocity: 0
@14220 $59.25 Channel: 1 Note on, G#4 key=68 velocity: 108
@14220 $59.25 Channel: 1 Note on, G#5 key=80 velocity: 108
@14250 $59.375 Channel: 1 Note off, G#5 key=80 velocity: 0
@14250 $59.375 Channel: 1 Note off, G#4 key=68 velocity: 0
@14280 $59.5 Channel: 1 Note on, D#3 key=51 velocity: 108
@14280 $59.5 Channel: 1 Note on, A4 key=69 velocity: 108
@14280 $59.5 Channel: 1 Note on, A5 key=81 velocity: 108
@14290 $59.541666666666664 Channel: 1 Note on, F#3 key=54 velocity: 108
@14295 $59.5625 Channel: 1 Note off, D#3 key=51 velocity: 0
@14300 $59.583333333333336 Channel: 1 Note on, A3 key=57 velocity: 108
@14305 $59.604166666666664 Channel: 1 Note off, F#3 key=54 velocity: 0
@14310 $59.625 Channel: 1 Note off, A4 key=69 velocity: 0
@14310 $59.625 Channel: 1 Note off, A5 key=81 velocity: 0
@14315 $59.645833333333336 Channel: 1 Note off, A3 key=57 velocity: 0
@14340 $59.75 Channel: 1 Note on, B4 key=71 velocity: 108
@14340 $59.75 Channel: 1 Note on, B5 key=83 velocity: 108
@14370 $59.875 Channel: 1 Note off, B5 key=83 velocity: 0
@14370 $59.875 Channel: 1 Note off, B4 key=71 velocity: 0
@14400 $60.0 Channel: 1 Note on, E3 key=52 velocity: 108
@14400 $60.0 Channel: 1 Note on, G#5 key=80 velocity: 108
@14400 $60.0 Channel: 1 Note on, G#4 key=68 velocity: 108
@14410 $60.041666666666664 Channel: 1 Note on, G#3 key=56 velocity: 108
@14415 $60.0625 Channel: 1 Note off, E3 key=52 velocity: 0
@14420 $60.083333333333336 Channel: 1 Note on, B3 key=59 velocity: 108
@14425 $60.104166666666664 Channel: 1 Note off, G#3 key=56 velocity: 0
@14435 $60.145833333333336 Channel: 1 Note off, B3 key=59 velocity: 0
@14460 $60.25 Channel: 1 Note off, G#4 key=68 velocity: 0
@14460 $60.25 Channel: 1 Note off, G#5 key=80 velocity: 0
@14460 $60.25 Channel: 1 Note on, E4 key=64 velocity: 108
@14460 $60.25 Channel: 1 Note on, E5 key=76 velocity: 108
@14520 $60.5 Channel: 1 Note off, E5 key=76 velocity: 0
@14520 $60.5 Channel: 1 Note off, E4 key=64 velocity: 0
@14520 $60.5 Channel: 1 Note on, A4 key=69 velocity: 108
@14520 $60.5 Channel: 1 Note on, A5 key=81 velocity: 108
@14580 $60.75 Channel: 1 Note off, A5 key=81 velocity: 0
@14580 $60.75 Channel: 1 Note off, A4 key=69 velocity: 0
@14580 $60.75 Channel: 1 Note on, B4 key=71 velocity: 108
@14580 $60.75 Channel: 1 Note on, B5 key=83 velocity: 108
@14640 $61.0 Channel: 1 Note off, B5 key=83 velocity: 0
@14640 $61.0 Channel: 1 Note off, B4 key=71 velocity: 0
@14640 $61.0 Channel: 1 Note on, A3 key=57 velocity: 108
@14640 $61.0 Channel: 1 Note on, C#5 key=73 velocity: 108
@14640 $61.0 Channel: 1 Note on, C#6 key=85 velocity: 108
@14650 $61.041666666666664 Channel: 1 Note on, C#4 key=61 velocity: 108
@14655 $61.0625 Channel: 1 Note off, A3 key=57 velocity: 0
@14660 $61.083333333333336 Channel: 1 Note on, E4 key=64 velocity: 108
@14665 $61.104166666666664 Channel: 1 Note off, C#4 key=61 velocity: 0
@14675 $61.145833333333336 Channel: 1 Note off, E4 key=64 velocity: 0
@14760 $61.5 Channel: 1 Note off, C#6 key=85 velocity: 0
@14760 $61.5 Channel: 1 Note off, C#5 key=73 velocity: 0
@14760 $61.5 Channel: 1 Note on, A4 key=69 velocity: 108
@14760 $61.5 Channel: 1 Note on, A5 key=81 velocity: 108
@14805 $61.6875 Channel: 1 Note off, A5 key=81 velocity: 0
@14805 $61.6875 Channel: 1 Note off, A4 key=69 velocity: 0
@14820 $61.75 Channel: 1 Note on, B5 key=83 velocity: 108
@14820 $61.75 Channel: 1 Note on, B4 key=71 velocity: 108
@14865 $61.9375 Channel: 1 Note off, B4 key=71 velocity: 0
@14865 $61.9375 Channel: 1 Note off, B5 key=83 velocity: 0
@14880 $62.0 Channel: 1 Note on, A3 key=57 velocity: 108
@14880 $62.0 Channel: 1 Note on, C#5 key=73 velocity: 108
@14880 $62.0 Channel: 1 Note on, C#6 key=85 velocity: 108
@14890 $62.041666666666664 Channel: 1 Note on, C#4 key=61 velocity: 108
@14895 $62.0625 Channel: 1 Note off, A3 key=57 velocity: 0
@14900 $62.083333333333336 Channel: 1 Note on, E4 key=64 velocity: 108
@14905 $62.104166666666664 Channel: 1 Note off, C#4 key=61 velocity: 0
@14915 $62.145833333333336 Channel: 1 Note off, E4 key=64 velocity: 0
@14925 $62.1875 Channel: 1 Note off, C#6 key=85 velocity: 0
@14925 $62.1875 Channel: 1 Note off, C#5 key=73 velocity: 0
@14940 $62.25 Channel: 1 Note on, B4 key=71 velocity: 108
@14940 $62.25 Channel: 1 Note on, B5 key=83 velocity: 108
@14985 $62.4375 Channel: 1 Note off, B5 key=83 velocity: 0
@14985 $62.4375 Channel: 1 Note off, B4 key=71 velocity: 0
@15000 $62.5 Channel: 1 Note on, A5 key=81 velocity: 108
@15000 $62.5 Channel: 1 Note on, A4 key=69 velocity: 108
@15045 $62.6875 Channel: 1 Note off, A4 key=69 velocity: 0
@15045 $62.6875 Channel: 1 Note off, A5 key=81 velocity: 0
@15060 $62.75 Channel: 1 Note on, G#5 key=80 velocity: 108
@15060 $62.75 Channel: 1 Note on, G#4 key=68 velocity: 108
@15105 $62.9375 Channel: 1 Note off, G#4 key=68 velocity: 0
@15105 $62.9375 Channel: 1 Note off, G#5 key=80 velocity: 0
@15120 $63.0 Channel: 1 Note on, D3 key=50 velocity: 108
@15120 $63.0 Channel: 1 Note on, F#4 key=66 velocity: 108
@15120 $63.0 Channel: 1 Note on, F#5 key=78 velocity: 108
@15130 $63.041666666666664 Channel: 1 Note on, F#3 key=54 velocity: 108
@15135 $63.0625 Channel: 1 Note off, D3 key=50 velocity: 0
@15140 $63.083333333333336 Channel: 1 Note on, A3 key=57 velocity: 108
@15145 $63.104166666666664 Channel: 1 Note off, F#3 key=54 velocity: 0
@15155 $63.145833333333336 Channel: 1 Note off, A3 key=57 velocity: 0
@15165 $63.1875 Channel: 1 Note off, F#5 key=78 velocity: 0
@15165 $63.1875 Channel: 1 Note off, F#4 key=66 velocity: 0
@15180 $63.25 Channel: 1 Note on, B4 key=71 velocity: 108
@15180 $63.25 Channel: 1 Note on, B5 key=83 velocity: 108
@15225 $63.4375 Channel: 1 Note off, B5 key=83 velocity: 0
@15225 $63.4375 Channel: 1 Note off, B4 key=71 velocity: 0
@15240 $63.5 Channel: 1 Note on, E3 key=52 velocity: 108
@15240 $63.5 Channel: 1 Note on, G#4 key=68 velocity: 108
@15240 $63.5 Channel: 1 Note on, G#5 key=80 velocity: 108
@15250 $63.541666666666664 Channel: 1 Note on, G#3 key=56 velocity: 108
@15255 $63.5625 Channel: 1 Note off, E3 key=52 velocity: 0
@15260 $63.583333333333336 Channel: 1 Note on, B3 key=59 velocity: 108
@15265 $63.604166666666664 Channel: 1 Note off, G#3 key=56 velocity: 0
@15275 $63.645833333333336 Channel: 1 Note off, B3 key=59 velocity: 0
@15285 $63.6875 Channel: 1 Note off, G#5 key=80 velocity: 0
@15285 $63.6875 Channel: 1 Note off, G#4 key=68 velocity: 0
@15300 $63.75 Channel: 1 Note on, E4 key=64 velocity: 108
@15300 $63.75 Channel: 1 Note on, E5 key=76 velocity: 108
@15345 $63.9375 Channel: 1 Note off, E5 key=76 velocity: 0
@15345 $63.9375 Channel: 1 Note off, E4 key=64 velocity: 0
@15360 $64.0 Channel: 1 Note on, A3 key=57 velocity: 108
@15360 $64.0 Channel: 1 Note on, A4 key=69 velocity: 108
@15360 $64.0 Channel: 1 Note on, A5 key=81 velocity: 108
@15480 $64.5 Channel: 1 Note off, A5 key=81 velocity: 0
@15480 $64.5 Channel: 1 Note off, A4 key=69 velocity: 0
@15480 $64.5 Channel: 1 Note off, A3 key=57 velocity: 0
@19320 $80.5 Channel: 1 Note on, E5 key=76 velocity: 120
@19350 $80.625 Channel: 1 Note off, E5 key=76 velocity: 0
@19350 $80.625 Channel: 1 Note on, D5 key=74 velocity: 120
@19380 $80.75 Channel: 1 Note off, D5 key=74 velocity: 0
@19380 $80.75 Channel: 1 Note on, C#5 key=73 velocity: 120
@19410 $80.875 Channel: 1 Note off, C#5 key=73 velocity: 0
@19410 $80.875 Channel: 1 Note on, B4 key=71 velocity: 120
@19440 $81.0 Channel: 1 Note off, B4 key=71 velocity: 0
@19440 $81.0 Channel: 1 Note on, A4 key=69 velocity: 120
@19470 $81.125 Channel: 1 Note off, A4 key=69 velocity: 0
@19470 $81.125 Channel: 1 Note on, B4 key=71 velocity: 120
@19500 $81.25 Channel: 1 Note off, B4 key=71 velocity: 0
@19500 $81.25 Channel: 1 Note on, C#5 key=73 velocity: 120
@19530 $81.375 Channel: 1 Note off, C#5 key=73 velocity: 0
@19530 $81.375 Channel: 1 Note on, D5 key=74 velocity: 120
@19560 $81.5 Channel: 1 Note off, D5 key=74 velocity: 0
@19560 $81.5 Channel: 1 Note on, E5 key=76 velocity: 120
@19590 $81.625 Channel: 1 Note off, E5 key=76 velocity: 0
@19590 $81.625 Channel: 1 Note on, F#5 key=78 velocity: 120
@19620 $81.75 Channel: 1 Note off, F#5 key=78 velocity: 0
@19620 $81.75 Channel: 1 Note on, G#5 key=80 velocity: 120
@19650 $81.875 Channel: 1 Note off, G#5 key=80 velocity: 0
@19650 $81.875 Channel: 1 Note on, A5 key=81 velocity: 120
@19680 $82.0 Channel: 1 Note off, A5 key=81 velocity: 0
@19680 $82.0 Channel: 1 Note on, A5 key=81 velocity: 120
@19710 $82.125 Channel: 1 Note off, A5 key=81 velocity: 0
@19710 $82.125 Channel: 1 Note on, G#5 key=80 velocity: 120
@19740 $82.25 Channel: 1 Note off, G#5 key=80 velocity: 0
@19740 $82.25 Channel: 1 Note on, F#5 key=78 velocity: 120
@19770 $82.375 Channel: 1 Note off, F#5 key=78 velocity: 0
@19770 $82.375 Channel: 1 Note on, E5 key=76 velocity: 120
@19800 $82.5 Channel: 1 Note off, E5 key=76 velocity: 0
@19800 $82.5 Channel: 1 Note on, E5 key=76 velocity: 120
@19830 $82.625 Channel: 1 Note off, E5 key=76 velocity: 0
@19830 $82.625 Channel: 1 Note on, D5 key=74 velocity: 120
@19860 $82.75 Channel: 1 Note off, D5 key=74 velocity: 0
@19860 $82.75 Channel: 1 Note on, C#5 key=73 velocity: 120
@19890 $82.875 Channel: 1 Note off, C#5 key=73 velocity: 0
@19890 $82.875 Channel: 1 Note on, B4 key=71 velocity: 120
@19920 $83.0 Channel: 1 Note off, B4 key=71 velocity: 0
@19920 $83.0 Channel: 1 Note on, A4 key=69 velocity: 120
@19950 $83.125 Channel: 1 Note off, A4 key=69 velocity: 0
@19950 $83.125 Channel: 1 Note on, B4 key=71 velocity: 120
@19980 $83.25 Channel: 1 Note off, B4 key=71 velocity: 0
@19980 $83.25 Channel: 1 Note on, C#5 key=73 velocity: 120
@20010 $83.375 Channel: 1 Note off, C#5 key=73 velocity: 0
@20010 $83.375 Channel: 1 Note on, D5 key=74 velocity: 120
@20040 $83.5 Channel: 1 Note off, D5 key=74 velocity: 0
@20040 $83.5 Channel: 1 Note on, E5 key=76 velocity: 120
@20070 $83.625 Channel: 1 Note off, E5 key=76 velocity: 0
@20070 $83.625 Channel: 1 Note on, F#5 key=78 velocity: 120
@20100 $83.75 Channel: 1 Note off, F#5 key=78 velocity: 0
@20100 $83.75 Channel: 1 Note on, G#5 key=80 velocity: 120
@20130 $83.875 Channel: 1 Note off, G#5 key=80 velocity: 0
@20130 $83.875 Channel: 1 Note on, A5 key=81 velocity: 120
@20160 $84.0 Channel: 1 Note off, A5 key=81 velocity: 0
@20160 $84.0 Channel: 1 Note on, A#5 key=82 velocity: 120
@20220 $84.25 Channel: 1 Note off, A#5 key=82 velocity: 0
@20220 $84.25 Channel: 1 Note on, B5 key=83 velocity: 120
@20265 $84.4375 Channel: 1 Note off, B5 key=83 velocity: 0
@20280 $84.5 Channel: 1 Note on, E5 key=76 velocity: 120
@20310 $84.625 Channel: 1 Note off, E5 key=76 velocity: 0
@20310 $84.625 Channel: 1 Note on, D5 key=74 velocity: 120
@20340 $84.75 Channel: 1 Note off, D5 key=74 velocity: 0
@20340 $84.75 Channel: 1 Note on, C#5 key=73 velocity: 120
@20370 $84.875 Channel: 1 Note off, C#5 key=73 velocity: 0
@20370 $84.875 Channel: 1 Note on, B4 key=71 velocity: 120
@20400 $85.0 Channel: 1 Note off, B4 key=71 velocity: 0
@20400 $85.0 Channel: 1 Note on, A4 key=69 velocity: 120
@20430 $85.125 Channel: 1 Note off, A4 key=69 velocity: 0
@20430 $85.125 Channel: 1 Note on, B4 key=71 velocity: 120
@20460 $85.25 Channel: 1 Note off, B4 key=71 velocity: 0
@20460 $85.25 Channel: 1 Note on, C#5 key=73 velocity: 120
@20490 $85.375 Channel: 1 Note off, C#5 key=73 velocity: 0
@20490 $85.375 Channel: 1 Note on, D5 key=74 velocity: 120
@20520 $85.5 Channel: 1 Note off, D5 key=74 velocity: 0
@20520 $85.5 Channel: 1 Note on, E5 key=76 velocity: 120
@20550 $85.625 Channel: 1 Note off, E5 key=76 velocity: 0
@20550 $85.625 Channel: 1 Note on, F#5 key=78 velocity: 120
@20580 $85.75 Channel: 1 Note off, F#5 key=78 velocity: 0
@20580 $85.75 Channel: 1 Note on, G#5 key=80 velocity: 120
@20610 $85.875 Channel: 1 Note off, G#5 key=80 velocity: 0
@20610 $85.875 Channel: 1 Note on, A5 key=81 velocity: 120
@20640 $86.0 Channel: 1 Note off, A5 key=81 velocity: 0
@20640 $86.0 Channel: 1 Note on, A5 key=81 velocity: 120
@20670 $86.125 Channel: 1 Note off, A5 key=81 velocity: 0
@20670 $86.125 Channel: 1 Note on, G#5 key=80 velocity: 120
@20700 $86.25 Channel: 1 Note off, G#5 key=80 velocity: 0
@20700 $86.25 Channel: 1 Note on, F#5 key=78 velocity: 120
@20730 $86.375 Channel: 1 Note off, F#5 key=78 velocity: 0
@20730 $86.375 Channel: 1 Note on, E5 key=76 velocity: 120
@20760 $86.5 Channel: 1 Note off, E5 key=76 velocity: 0
@20760 $86.5 Channel: 1 Note on, E5 key=76 velocity: 120
@20790 $86.625 Channel: 1 Note off, E5 key=76 velocity: 0
@20790 $86.625 Channel: 1 Note on, D5 key=74 velocity: 120
@20820 $86.75 Channel: 1 Note off, D5 key=74 velocity: 0
@20820 $86.75 Channel: 1 Note on, C#5 key=73 velocity: 120
@20850 $86.875 Channel: 1 Note off, C#5 key=73 velocity: 0
@20850 $86.875 Channel: 1 Note on, B4 key=71 velocity: 120
@20880 $87.0 Channel: 1 Note off, B4 key=71 velocity: 0
@20880 $87.0 Channel: 1 Note on, C#5 key=73 velocity: 120
@20910 $87.125 Channel: 1 Note off, C#5 key=73 velocity: 0
@20910 $87.125 Channel: 1 Note on, E5 key=76 velocity: 120
@20940 $87.25 Channel: 1 Note off, E5 key=76 velocity: 0
@20940 $87.25 Channel: 1 Note on, A4 key=69 velocity: 120
@20970 $87.375 Channel: 1 Note off, A4 key=69 velocity: 0
@20970 $87.375 Channel: 1 Note on, C#5 key=73 velocity: 120
@21000 $87.5 Channel: 1 Note off, C#5 key=73 velocity: 0
@21000 $87.5 Channel: 1 Note on, B4 key=71 velocity: 120
@21030 $87.625 Channel: 1 Note off, B4 key=71 velocity: 0
@21030 $87.625 Channel: 1 Note on, D5 key=74 velocity: 120
@21060 $87.75 Channel: 1 Note off, D5 key=74 velocity: 0
@21060 $87.75 Channel: 1 Note on, G#4 key=68 velocity: 120
@21090 $87.875 Channel: 1 Note off, G#4 key=68 velocity: 0
@21090 $87.875 Channel: 1 Note on, B4 key=71 velocity: 120
@21120 $88.0 Channel: 1 Note off, B4 key=71 velocity: 0
@21120 $88.0 Channel: 1 Note on, A4 key=69 velocity: 120
@21240 $88.5 Channel: 1 Note off, A4 key=69 velocity: 0
@23165 $96.52083333333333 Channel: 1 Note on, E5 key=76 velocity: 120
@23195 $96.64583333333333 Channel: 1 Note off, E5 key=76 velocity: 0
@23195 $96.64583333333333 Channel: 1 Note on, D5 key=74 velocity: 120
@23225 $96.77083333333333 Channel: 1 Note off, D5 key=74 velocity: 0
@23225 $96.77083333333333 Channel: 1 Note on, C#5 key=73 velocity: 120
@23255 $96.89583333333333 Channel: 1 Note off, C#5 key=73 velocity: 0
@23255 $96.89583333333333 Channel: 1 Note on, B4 key=71 velocity: 120
@23285 $97.02083333333333 Channel: 1 Note off, B4 key=71 velocity: 0
@23285 $97.02083333333333 Channel: 1 Note on, A4 key=69 velocity: 120
@23315 $97.14583333333333 Channel: 1 Note off, A4 key=69 velocity: 0
@23315 $97.14583333333333 Channel: 1 Note on, B4 key=71 velocity: 120
@23345 $97.27083333333333 Channel: 1 Note off, B4 key=71 velocity: 0
@23345 $97.27083333333333 Channel: 1 Note on, C#5 key=73 velocity: 120
@23375 $97.39583333333333 Channel: 1 Note off, C#5 key=73 velocity: 0
@23375 $97.39583333333333 Channel: 1 Note on, D5 key=74 velocity: 120
@23405 $97.52083333333333 Channel: 1 Note off, D5 key=74 velocity: 0
@23405 $97.52083333333333 Channel: 1 Note on, E5 key=76 velocity: 120
@23435 $97.64583333333333 Channel: 1 Note off, E5 key=76 velocity: 0
@23435 $97.64583333333333 Channel: 1 Note on, F#5 key=78 velocity: 120
@23465 $97.77083333333333 Channel: 1 Note off, F#5 key=78 velocity: 0
@23465 $97.77083333333333 Channel: 1 Note on, G#5 key=80 velocity: 120
@23495 $97.89583333333333 Channel: 1 Note off, G#5 key=80 velocity: 0
@23495 $97.89583333333333 Channel: 1 Note on, A5 key=81 velocity: 120
@23525 $98.02083333333333 Channel: 1 Note off, A5 key=81 velocity: 0
@23525 $98.02083333333333 Channel: 1 Note on, A5 key=81 velocity: 120
@23555 $98.14583333333333 Channel: 1 Note off, A5 key=81 velocity: 0
@23555 $98.14583333333333 Channel: 1 Note on, G#5 key=80 velocity: 120
@23585 $98.27083333333333 Channel: 1 Note off, G#5 key=80 velocity: 0
@23585 $98.27083333333333 Channel: 1 Note on, F#5 key=78 velocity: 120
@23615 $98.39583333333333 Channel: 1 Note off, F#5 key=78 velocity: 0
@23615 $98.39583333333333 Channel: 1 Note on, E5 key=76 velocity: 120
@23645 $98.52083333333333 Channel: 1 Note off, E5 key=76 velocity: 0
@23645 $98.52083333333333 Channel: 1 Note on, E5 key=76 velocity: 120
@23675 $98.64583333333333 Channel: 1 Note off, E5 key=76 velocity: 0
@23675 $98.64583333333333 Channel: 1 Note on, D5 key=74 velocity: 120
@23705 $98.77083333333333 Channel: 1 Note off, D5 key=74 velocity: 0
@23705 $98.77083333333333 Channel: 1 Note on, C#5 key=73 velocity: 120
@23735 $98.89583333333333 Channel: 1 Note off, C#5 key=73 velocity: 0
@23735 $98.89583333333333 Channel: 1 Note on, B4 key=71 velocity: 120
@23765 $99.02083333333333 Channel: 1 Note off, B4 key=71 velocity: 0
@23765 $99.02083333333333 Channel: 1 Note on, A4 key=69 velocity: 120
@23795 $99.14583333333333 Channel: 1 Note off, A4 key=69 velocity: 0
@23795 $99.14583333333333 Channel: 1 Note on, B4 key=71 velocity: 120
@23825 $99.27083333333333 Channel: 1 Note off, B4 key=71 velocity: 0
@23825 $99.27083333333333 Channel: 1 Note on, C#5 key=73 velocity: 120
@23855 $99.39583333333333 Channel: 1 Note off, C#5 key=73 velocity: 0
@23855 $99.39583333333333 Channel: 1 Note on, D5 key=74 velocity: 120
@23885 $99.52083333333333 Channel: 1 Note off, D5 key=74 velocity: 0
@23885 $99.52083333333333 Channel: 1 Note on, E5 key=76 velocity: 120
@23915 $99.64583333333333 Channel: 1 Note off, E5 key=76 velocity: 0
@23915 $99.64583333333333 Channel: 1 Note on, F#5 key=78 velocity: 120
@23945 $99.77083333333333 Channel: 1 Note off, F#5 key=78 velocity: 0
@23945 $99.77083333333333 Channel: 1 Note on, G#5 key=80 velocity: 120
@23975 $99.89583333333333 Channel: 1 Note off, G#5 key=80 velocity: 0
@23975 $99.89583333333333 Channel: 1 Note on, A5 key=81 velocity: 120
@24005 $100.02083333333333 Channel: 1 Note off, A5 key=81 velocity: 0
@24005 $100.02083333333333 Channel: 1 Note on, A#5 key=82 velocity: 120
@24065 $100.27083333333333 Channel: 1 Note off, A#5 key=82 velocity: 0
@24065 $100.27083333333333 Channel: 1 Note on, B5 key=83 velocity: 120
@24110 $100.45833333333333 Channel: 1 Note off, B5 key=83 velocity: 0
@24125 $100.52083333333333 Channel: 1 Note on, E5 key=76 velocity: 120
@24155 $100.64583333333333 Channel: 1 Note off, E5 key=76 velocity: 0
@24155 $100.64583333333333 Channel: 1 Note on, D5 key=74 velocity: 120
@24185 $100.77083333333333 Channel: 1 Note off, D5 key=74 velocity: 0
@24185 $100.77083333333333 Channel: 1 Note on, C#5 key=73 velocity: 120
@24215 $100.89583333333333 Channel: 1 Note off, C#5 key=73 velocity: 0
@24215 $100.89583333333333 Channel: 1 Note on, B4 key=71 velocity: 120
@24245 $101.02083333333333 Channel: 1 Note off, B4 key=71 velocity: 0
@24245 $101.02083333333333 Channel: 1 Note on, A4 key=69 velocity: 120
@24275 $101.14583333333333 Channel: 1 Note off, A4 key=69 velocity: 0
@24275 $101.14583333333333 Channel: 1 Note on, B4 key=71 velocity: 120
@24305 $101.27083333333333 Channel: 1 Note off, B4 key=71 velocity: 0
@24305 $101.27083333333333 Channel: 1 Note on, C#5 key=73 velocity: 120
@24335 $101.39583333333333 Channel: 1 Note off, C#5 key=73 velocity: 0
@24335 $101.39583333333333 Channel: 1 Note on, D5 key=74 velocity: 120
@24365 $101.52083333333333 Channel: 1 Note off, D5 key=74 velocity: 0
@24365 $101.52083333333333 Channel: 1 Note on, E5 key=76 velocity: 120
@24395 $101.64583333333333 Channel: 1 Note off, E5 key=76 velocity: 0
@24395 $101.64583333333333 Channel: 1 Note on, F#5 key=78 velocity: 120
@24425 $101.77083333333333 Channel: 1 Note off, F#5 key=78 velocity: 0
@24425 $101.77083333333333 Channel: 1 Note on, G#5 key=80 velocity: 120
@24455 $101.89583333333333 Channel: 1 Note off, G#5 key=80 velocity: 0
@24455 $101.89583333333333 Channel: 1 Note on, A5 key=81 velocity: 120
@24485 $102.02083333333333 Channel: 1 Note off, A5 key=81 velocity: 0
@24485 $102.02083333333333 Channel: 1 Note on, A5 key=81 velocity: 120
@24515 $102.14583333333333 Channel: 1 Note off, A5 key=81 velocity: 0
@24515 $102.14583333333333 Channel: 1 Note on, G#5 key=80 velocity: 120
@24545 $102.27083333333333 Channel: 1 Note off, G#5 key=80 velocity: 0
@24545 $102.27083333333333 Channel: 1 Note on, F#5 key=78 velocity: 120
@24575 $102.39583333333333 Channel: 1 Note off, F#5 key=78 velocity: 0
@24575 $102.39583333333333 Channel: 1 Note on, E5 key=76 velocity: 120
@24605 $102.52083333333333 Channel: 1 Note off, E5 key=76 velocity: 0
@24605 $102.52083333333333 Channel: 1 Note on, E5 key=76 velocity: 120
@24635 $102.64583333333333 Channel: 1 Note off, E5 key=76 velocity: 0
@24635 $102.64583333333333 Channel: 1 Note on, D5 key=74 velocity: 120
@24665 $102.77083333333333 Channel: 1 Note off, D5 key=74 velocity: 0
@24665 $102.77083333333333 Channel: 1 Note on, C#5 key=73 velocity: 120
@24695 $102.89583333333333 Channel: 1 Note off, C#5 key=73 velocity: 0
@24695 $102.89583333333333 Channel: 1 Note on, B4 key=71 velocity: 120
@24725 $103.02083333333333 Channel: 1 Note off, B4 key=71 velocity: 0
@24725 $103.02083333333333 Channel: 1 Note on, C#5 key=73 velocity: 120
@24755 $103.14583333333333 Channel: 1 Note off, C#5 key=73 velocity: 0
@24755 $103.14583333333333 Channel: 1 Note on, E5 key=76 velocity: 120
@24785 $103.27083333333333 Channel: 1 Note off, E5 key=76 velocity: 0
@24785 $103.27083333333333 Channel: 1 Note on, A4 key=69 velocity: 120
@24815 $103.39583333333333 Channel: 1 Note off, A4 key=69 velocity: 0
@24815 $103.39583333333333 Channel: 1 Note on, C#5 key=73 velocity: 120
@24845 $103.52083333333333 Channel: 1 Note off, C#5 key=73 velocity: 0
@24845 $103.52083333333333 Channel: 1 Note on, B4 key=71 velocity: 120
@24875 $103.64583333333333 Channel: 1 Note off, B4 key=71 velocity: 0
@24875 $103.64583333333333 Channel: 1 Note on, D5 key=74 velocity: 120
@24905 $103.77083333333333 Channel: 1 Note off, D5 key=74 velocity: 0
@24905 $103.77083333333333 Channel: 1 Note on, G#4 key=68 velocity: 120
@24935 $103.89583333333333 Channel: 1 Note off, G#4 key=68 velocity: 0
@24935 $103.89583333333333 Channel: 1 Note on, B4 key=71 velocity: 120
@24965 $104.02083333333333 Channel: 1 Note off, B4 key=71 velocity: 0
@24965 $104.02083333333333 Channel: 1 Note on, A4 key=69 velocity: 120
@25085 $104.52083333333333 Channel: 1 Note off, A4 key=69 velocity: 0
@27000 $112.5 Channel: 1 Note on, A5 key=81 velocity: 100
@27000 $112.5 Channel: 1 Note on, A4 key=69 velocity: 100
@27060 $112.75 Channel: 1 Note off, A4 key=69 velocity: 0
@27060 $112.75 Channel: 1 Note off, A5 key=81 velocity: 0
@27060 $112.75 Channel: 1 Note on, B4 key=71 velocity: 100
@27060 $112.75 Channel: 1 Note on, B5 key=83 velocity: 100
@27120 $113.0 Channel: 1 Note off, B5 key=83 velocity: 0
@27120 $113.0 Channel: 1 Note off, B4 key=71 velocity: 0
@27120 $113.0 Channel: 1 Note on, C#5 key=73 velocity: 108
@27120 $113.0 Channel: 1 Note on, C#6 key=85 velocity: 108
@27120 $113.0 Channel: 1 Note on, A3 key=57 velocity: 100
@27130 $113.04166666666667 Channel: 1 Note off, A3 key=57 velocity: 0
@27130 $113.04166666666667 Channel: 1 Note on, C#4 key=61 velocity: 100
@27140 $113.08333333333333 Channel: 1 Note off, C#4 key=61 velocity: 0
@27140 $113.08333333333333 Channel: 1 Note on, E4 key=64 velocity: 100
@27150 $113.125 Channel: 1 Note off, E4 key=64 velocity: 0
@27150 $113.125 Channel: 1 Note on, A4 key=69 velocity: 108
@27180 $113.25 Channel: 1 Note off, A4 key=69 velocity: 0
@27240 $113.5 Channel: 1 Note off, C#6 key=85 velocity: 0
@27240 $113.5 Channel: 1 Note off, C#5 key=73 velocity: 0
@27240 $113.5 Channel: 1 Note on, A5 key=81 velocity: 100
@27240 $113.5 Channel: 1 Note on, A4 key=69 velocity: 100
@27300 $113.75 Channel: 1 Note off, A4 key=69 velocity: 0
@27300 $113.75 Channel: 1 Note off, A5 key=81 velocity: 0
@27300 $113.75 Channel: 1 Note on, B4 key=71 velocity: 100
@27300 $113.75 Channel: 1 Note on, B5 key=83 velocity: 100
@27360 $114.0 Channel: 1 Note off, B5 key=83 velocity: 0
@27360 $114.0 Channel: 1 Note off, B4 key=71 velocity: 0
@27360 $114.0 Channel: 1 Note on, A3 key=57 velocity: 108
@27360 $114.0 Channel: 1 Note on, C#5 key=73 velocity: 108
@27360 $114.0 Channel: 1 Note on, C#6 key=85 velocity: 108
@27370 $114.04166666666667 Channel: 1 Note on, C#4 key=61 velocity: 108
@27375 $114.0625 Channel: 1 Note off, A3 key=57 velocity: 0
@27380 $114.08333333333333 Channel: 1 Note on, E4 key=64 velocity: 108
@27385 $114.10416666666667 Channel: 1 Note off, C#4 key=61 velocity: 0
@27395 $114.14583333333333 Channel: 1 Note off, E4 key=64 velocity: 0
@27420 $114.25 Channel: 1 Note off, C#6 key=85 velocity: 0
@27420 $114.25 Channel: 1 Note off, C#5 key=73 velocity: 0
@27420 $114.25 Channel: 1 Note on, B4 key=71 velocity: 108
@27420 $114.25 Channel: 1 Note on, B5 key=83 velocity: 108
@27450 $114.375 Channel: 1 Note off, B5 key=83 velocity: 0
@27450 $114.375 Channel: 1 Note off, B4 key=71 velocity: 0
@27480 $114.5 Channel: 1 Note on, A5 key=81 velocity: 108
@27480 $114.5 Channel: 1 Note on, A4 key=69 velocity: 108
@27510 $114.625 Channel: 1 Note off, A4 key=69 velocity: 0
@27510 $114.625 Channel: 1 Note off, A5 key=81 velocity: 0
@27540 $114.75 Channel: 1 Note on, G#5 key=80 velocity: 108
@27540 $114.75 Channel: 1 Note on, G#4 key=68 velocity: 108
@27570 $114.875 Channel: 1 Note off, G#4 key=68 velocity: 0
@27570 $114.875 Channel: 1 Note off, G#5 key=80 velocity: 0
@27600 $115.0 Channel: 1 Note on, D3 key=50 velocity: 108
@27600 $115.0 Channel: 1 Note on, F#4 key=66 velocity: 108
@27600 $115.0 Channel: 1 Note on, F#5 key=78 velocity: 108
@27610 $115.04166666666667 Channel: 1 Note on, F#3 key=54 velocity: 108
@27615 $115.0625 Channel: 1 Note off, D3 key=50 velocity: 0
@27620 $115.08333333333333 Channel: 1 Note on, A3 key=57 velocity: 108
@27625 $115.10416666666667 Channel: 1 Note off, F#3 key=54 velocity: 0
@27630 $115.125 Channel: 1 Note off, F#4 key=66 velocity: 0
@27630 $115.125 Channel: 1 Note off, F#5 key=78 velocity: 0
@27635 $115.14583333333333 Channel: 1 Note off, A3 key=57 velocity: 0
@27660 $115.25 Channel: 1 Note on, G#4 key=68 velocity: 108
@27660 $115.25 Channel: 1 Note on, G#5 key=80 velocity: 108
@27690 $115.375 Channel: 1 Note off, G#5 key=80 velocity: 0
@27690 $115.375 Channel: 1 Note off, G#4 key=68 velocity: 0
@27720 $115.5 Channel: 1 Note on, D#3 key=51 velocity: 108
@27720 $115.5 Channel: 1 Note on, A4 key=69 velocity: 108
@27720 $115.5 Channel: 1 Note on, A5 key=81 velocity: 108
@27730 $115.54166666666667 Channel: 1 Note on, F#3 key=54 velocity: 108
@27735 $115.5625 Channel: 1 Note off, D#3 key=51 velocity: 0
@27740 $115.58333333333333 Channel: 1 Note on, A3 key=57 velocity: 108
@27745 $115.60416666666667 Channel: 1 Note off, F#3 key=54 velocity: 0
@27750 $115.625 Channel: 1 Note off, A4 key=69 velocity: 0
@27750 $115.625 Channel: 1 Note off, A5 key=81 velocity: 0
@27755 $115.64583333333333 Channel: 1 Note off, A3 key=57 velocity: 0
@27780 $115.75 Channel: 1 Note on, B4 key=71 velocity: 108
@27780 $115.75 Channel: 1 Note on, B5 key=83 velocity: 108
@27810 $115.875 Channel: 1 Note off, B5 key=83 velocity: 0
@27810 $115.875 Channel: 1 Note off, B4 key=71 velocity: 0
@27840 $116.0 Channel: 1 Note on, E3 key=52 velocity: 108
@27840 $116.0 Channel: 1 Note on, G#5 key=80 velocity: 108
@27840 $116.0 Channel: 1 Note on, G#4 key=68 velocity: 108
@27850 $116.04166666666667 Channel: 1 Note on, G#3 key=56 velocity: 108
@27855 $116.0625 Channel: 1 Note off, E3 key=52 velocity: 0
@27860 $116.08333333333333 Channel: 1 Note on, B3 key=59 velocity: 108
@27865 $116.10416666666667 Channel: 1 Note off, G#3 key=56 velocity: 0
@27875 $116.14583333333333 Channel: 1 Note off, B3 key=59 velocity: 0
@27900 $116.25 Channel: 1 Note off, G#4 key=68 velocity: 0
@27900 $116.25 Channel: 1 Note off, G#5 key=80 velocity: 0
@27900 $116.25 Channel: 1 Note on, E4 key=64 velocity: 108
@27900 $116.25 Channel: 1 Note on, E5 key=76 velocity: 108
@27960 $116.5 Channel: 1 Note off, E5 key=76 velocity: 0
@27960 $116.5 Channel: 1 Note off, E4 key=64 velocity: 0
@27960 $116.5 Channel: 1 Note on, A4 key=69 velocity: 108
@27960 $116.5 Channel: 1 Note on, A5 key=81 velocity: 108
@28020 $116.75 Channel: 1 Note off, A5 key=81 velocity: 0
@28020 $116.75 Channel: 1 Note off, A4 key=69 velocity: 0
@28020 $116.75 Channel: 1 Note on, B4 key=71 velocity: 108
@28020 $116.75 Channel: 1 Note on, B5 key=83 velocity: 108
@28080 $117.0 Channel: 1 Note off, B5 key=83 velocity: 0
@28080 $117.0 Channel: 1 Note off, B4 key=71 velocity: 0
@28080 $117.0 Channel: 1 Note on, A3 key=57 velocity: 108
@28080 $117.0 Channel: 1 Note on, C#5 key=73 velocity: 108
@28080 $117.0 Channel: 1 Note on, C#6 key=85 velocity: 108
@28090 $117.04166666666667 Channel: 1 Note on, C#4 key=61 velocity: 108
@28095 $117.0625 Channel: 1 Note off, A3 key=57 velocity: 0
@28100 $117.08333333333333 Channel: 1 Note on, E4 key=64 velocity: 108
@28105 $117.10416666666667 Channel: 1 Note off, C#4 key=61 velocity: 0
@28115 $117.14583333333333 Channel: 1 Note off, E4 key=64 velocity: 0
@28200 $117.5 Channel: 1 Note off, C#6 key=85 velocity: 0
@28200 $117.5 Channel: 1 Note off, C#5 key=73 velocity: 0
@28200 $117.5 Channel: 1 Note on, A4 key=69 velocity: 108
@28200 $117.5 Channel: 1 Note on, A5 key=81 velocity: 108
@28245 $117.6875 Channel: 1 Note off, A5 key=81 velocity: 0
@28245 $117.6875 Channel: 1 Note off, A4 key=69 velocity: 0
@28260 $117.75 Channel: 1 Note on, B5 key=83 velocity: 108
@28260 $117.75 Channel: 1 Note on, B4 key=71 velocity: 108
@28305 $117.9375 Channel: 1 Note off, B4 key=71 velocity: 0
@28305 $117.9375 Channel: 1 Note off, B5 key=83 velocity: 0
@28320 $118.0 Channel: 1 Note on, A3 key=57 velocity: 108
@28320 $118.0 Channel: 1 Note on, C#5 key=73 velocity: 108
@28320 $118.0 Channel: 1 Note on, C#6 key=85 velocity: 108
@28330 $118.04166666666667 Channel: 1 Note on, C#4 key=61 velocity: 108
@28335 $118.0625 Channel: 1 Note off, A3 key=57 velocity: 0
@28340 $118.08333333333333 Channel: 1 Note on, E4 key=64 velocity: 108
@28345 $118.10416666666667 Channel: 1 Note off, C#4 key=61 velocity: 0
@28355 $118.14583333333333 Channel: 1 Note off, E4 key=64 velocity: 0
@28365 $118.1875 Channel: 1 Note off, C#6 key=85 velocity: 0
@28365 $118.1875 Channel: 1 Note off, C#5 key=73 velocity: 0
@28380 $118.25 Channel: 1 Note on, B4 key=71 velocity: 108
@28380 $118.25 Channel: 1 Note on, B5 key=83 velocity: 108
@28425 $118.4375 Channel: 1 Note off, B5 key=83 velocity: 0
@28425 $118.4375 Channel: 1 Note off, B4 key=71 velocity: 0
@28440 $118.5 Channel: 1 Note on, A5 key=81 velocity: 108
@28440 $118.5 Channel: 1 Note on, A4 key=69 velocity: 108
@28485 $118.6875 Channel: 1 Note off, A4 key=69 velocity: 0
@28485 $118.6875 Channel: 1 Note off, A5 key=81 velocity: 0
@28500 $118.75 Channel: 1 Note on, G#5 key=80 velocity: 108
@28500 $118.75 Channel: 1 Note on, G#4 key=68 velocity: 108
@28545 $118.9375 Channel: 1 Note off, G#4 key=68 velocity: 0
@28545 $118.9375 Channel: 1 Note off, G#5 key=80 velocity: 0
@28560 $119.0 Channel: 1 Note on, D3 key=50 velocity: 108
@28560 $119.0 Channel: 1 Note on, F#4 key=66 velocity: 108
@28560 $119.0 Channel: 1 Note on, F#5 key=78 velocity: 108
@28570 $119.04166666666667 Channel: 1 Note on, F#3 key=54 velocity: 108
@28575 $119.0625 Channel: 1 Note off, D3 key=50 velocity: 0
@28580 $119.08333333333333 Channel: 1 Note on, A3 key=57 velocity: 108
@28585 $119.10416666666667 Channel: 1 Note off, F#3 key=54 velocity: 0
@28595 $119.14583333333333 Channel: 1 Note off, A3 key=57 velocity: 0
@28605 $119.1875 Channel: 1 Note off, F#5 key=78 velocity: 0
@28605 $119.1875 Channel: 1 Note off, F#4 key=66 velocity: 0
@28620 $119.25 Channel: 1 Note on, B4 key=71 velocity: 108
@28620 $119.25 Channel: 1 Note on, B5 key=83 velocity: 108
@28665 $119.4375 Channel: 1 Note off, B5 key=83 velocity: 0
@28665 $119.4375 Channel: 1 Note off, B4 key=71 velocity: 0
@28680 $119.5 Channel: 1 Note on, E3 key=52 velocity: 108
@28680 $119.5 Channel: 1 Note on, G#4 key=68 velocity: 108
@28680 $119.5 Channel: 1 Note on, G#5 key=80 velocity: 108
@28690 $119.54166666666667 Channel: 1 Note on, G#3 key=56 velocity: 108
@28695 $119.5625 Channel: 1 Note off, E3 key=52 velocity: 0
@28700 $119.58333333333333 Channel: 1 Note on, B3 key=59 velocity: 108
@28705 $119.60416666666667 Channel: 1 Note off, G#3 key=56 velocity: 0
@28715 $119.64583333333333 Channel: 1 Note off, B3 key=59 velocity: 0
@28725 $119.6875 Channel: 1 Note off, G#5 key=80 velocity: 0
@28725 $119.6875 Channel: 1 Note off, G#4 key=68 velocity: 0
@28740 $119.75 Channel: 1 Note on, E4 key=64 velocity: 108
@28740 $119.75 Channel: 1 Note on, E5 key=76 velocity: 108
@28785 $119.9375 Channel: 1 Note off, E5 key=76 velocity: 0
@28785 $119.9375 Channel: 1 Note off, E4 key=64 velocity: 0
@28800 $120.0 Channel: 1 Note on, A3 key=57 velocity: 108
@28800 $120.0 Channel: 1 Note on, A4 key=69 velocity: 108
@28800 $120.0 Channel: 1 Note on, A5 key=81 velocity: 108
@28920 $120.5 Channel: 1 Note off, A5 key=81 velocity: 0
@28920 $120.5 Channel: 1 Note off, A4 key=69 velocity: 0
@28920 $120.5 Channel: 1 Note off, A3 key=57 velocity: 0
@28920 $120.5 Channel: 1 Note on, A5 key=81 velocity: 100
@28920 $120.5 Channel: 1 Note on, A4 key=69 velocity: 100
@28980 $120.75 Channel: 1 Note off, A4 key=69 velocity: 0
@28980 $120.75 Channel: 1 Note off, A5 key=81 velocity: 0
@28980 $120.75 Channel: 1 Note on, B4 key=71 velocity: 100
@28980 $120.75 Channel: 1 Note on, B5 key=83 velocity: 100
@29040 $121.0 Channel: 1 Note off, B5 key=83 velocity: 0
@29040 $121.0 Channel: 1 Note off, B4 key=71 velocity: 0
@29040 $121.0 Channel: 1 Note on, C#5 key=73 velocity: 108
@29040 $121.0 Channel: 1 Note on, C#6 key=85 velocity: 108
@29040 $121.0 Channel: 1 Note on, A3 key=57 velocity: 100
@29050 $121.04166666666667 Channel: 1 Note off, A3 key=57 velocity: 0
@29050 $121.04166666666667 Channel: 1 Note on, C#4 key=61 velocity: 100
@29060 $121.08333333333333 Channel: 1 Note off, C#4 key=61 velocity: 0
@29060 $121.08333333333333 Channel: 1 Note on, E4 key=64 velocity: 100
@29070 $121.125 Channel: 1 Note off, E4 key=64 velocity: 0
@29070 $121.125 Channel: 1 Note on, A4 key=69 velocity: 108
@29100 $121.25 Channel: 1 Note off, A4 key=69 velocity: 0
@29160 $121.5 Channel: 1 Note off, C#6 key=85 velocity: 0
@29160 $121.5 Channel: 1 Note off, C#5 key=73 velocity: 0
@29160 $121.5 Channel: 1 Note on, A5 key=81 velocity: 100
@29160 $121.5 Channel: 1 Note on, A4 key=69 velocity: 100
@29220 $121.75 Channel: 1 Note off, A4 key=69 velocity: 0
@29220 $121.75 Channel: 1 Note off, A5 key=81 velocity: 0
@29220 $121.75 Channel: 1 Note on, B4 key=71 velocity: 100
@29220 $121.75 Channel: 1 Note on, B5 key=83 velocity: 100
@29280 $122.0 Channel: 1 Note off, B5 key=83 velocity: 0
@29280 $122.0 Channel: 1 Note off, B4 key=71 velocity: 0
@29280 $122.0 Channel: 1 Note on, A3 key=57 velocity: 108
@29280 $122.0 Channel: 1 Note on, C#5 key=73 velocity: 108
@29280 $122.0 Channel: 1 Note on, C#6 key=85 velocity: 108
@29290 $122.04166666666667 Channel: 1 Note on, C#4 key=61 velocity: 108
@29295 $122.0625 Channel: 1 Note off, A3 key=57 velocity: 0
@29300 $122.08333333333333 Channel: 1 Note on, E4 key=64 velocity: 108
@29305 $122.10416666666667 Channel: 1 Note off, C#4 key=61 velocity: 0
@29315 $122.14583333333333 Channel: 1 Note off, E4 key=64 velocity: 0
@29340 $122.25 Channel: 1 Note off, C#6 key=85 velocity: 0
@29340 $122.25 Channel: 1 Note off, C#5 key=73 velocity: 0
@29340 $122.25 Channel: 1 Note on, B4 key=71 velocity: 108
@29340 $122.25 Channel: 1 Note on, B5 key=83 velocity: 108
@29370 $122.375 Channel: 1 Note off, B5 key=83 velocity: 0
@29370 $122.375 Channel: 1 Note off, B4 key=71 velocity: 0
@29400 $122.5 Channel: 1 Note on, A5 key=81 velocity: 108
@29400 $122.5 Channel: 1 Note on, A4 key=69 velocity: 108
@29430 $122.625 Channel: 1 Note off, A4 key=69 velocity: 0
@29430 $122.625 Channel: 1 Note off, A5 key=81 velocity: 0
@29460 $122.75 Channel: 1 Note on, G#5 key=80 velocity: 108
@29460 $122.75 Channel: 1 Note on, G#4 key=68 velocity: 108
@29490 $122.875 Channel: 1 Note off, G#4 key=68 velocity: 0
@29490 $122.875 Channel: 1 Note off, G#5 key=80 velocity: 0
@29520 $123.0 Channel: 1 Note on, D3 key=50 velocity: 108
@29520 $123.0 Channel: 1 Note on, F#4 key=66 velocity: 108
@29520 $123.0 Channel: 1 Note on, F#5 key=78 velocity: 108
@29530 $123.04166666666667 Channel: 1 Note on, F#3 key=54 velocity: 108
@29535 $123.0625 Channel: 1 Note off, D3 key=50 velocity: 0
@29540 $123.08333333333333 Channel: 1 Note on, A3 key=57 velocity: 108
@29545 $123.10416666666667 Channel: 1 Note off, F#3 key=54 velocity: 0
@29550 $123.125 Channel: 1 Note off, F#4 key=66 velocity: 0
@29550 $123.125 Channel: 1 Note off, F#5 key=78 velocity: 0
@29555 $123.14583333333333 Channel: 1 Note off, A3 key=57 velocity: 0
@29580 $123.25 Channel: 1 Note on, G#4 key=68 velocity: 108
@29580 $123.25 Channel: 1 Note on, G#5 key=80 velocity: 108
@29610 $123.375 Channel: 1 Note off, G#5 key=80 velocity: 0
@29610 $123.375 Channel: 1 Note off, G#4 key=68 velocity: 0
@29640 $123.5 Channel: 1 Note on, D#3 key=51 velocity: 108
@29640 $123.5 Channel: 1 Note on, A4 key=69 velocity: 108
@29640 $123.5 Channel: 1 Note on, A5 key=81 velocity: 108
@29650 $123.54166666666667 Channel: 1 Note on, F#3 key=54 velocity: 108
@29655 $123.5625 Channel: 1 Note off, D#3 key=51 velocity: 0
@29660 $123.58333333333333 Channel: 1 Note on, A3 key=57 velocity: 108
@29665 $123.60416666666667 Channel: 1 Note off, F#3 key=54 velocity: 0
@29670 $123.625 Channel: 1 Note off, A4 key=69 velocity: 0
@29670 $123.625 Channel: 1 Note off, A5 key=81 velocity: 0
@29675 $123.64583333333333 Channel: 1 Note off, A3 key=57 velocity: 0
@29700 $123.75 Channel: 1 Note on, B4 key=71 velocity: 108
@29700 $123.75 Channel: 1 Note on, B5 key=83 velocity: 108
@29730 $123.875 Channel: 1 Note off, B5 key=83 velocity: 0
@29730 $123.875 Channel: 1 Note off, B4 key=71 velocity: 0
@29760 $124.0 Channel: 1 Note on, E3 key=52 velocity: 108
@29760 $124.0 Channel: 1 Note on, G#5 key=80 velocity: 108
@29760 $124.0 Channel: 1 Note on, G#4 key=68 velocity: 108
@29770 $124.04166666666667 Channel: 1 Note on, G#3 key=56 velocity: 108
@29775 $124.0625 Channel: 1 Note off, E3 key=52 velocity: 0
@29780 $124.08333333333333 Channel: 1 Note on, B3 key=59 velocity: 108
@29785 $124.10416666666667 Channel: 1 Note off, G#3 key=56 velocity: 0
@29795 $124.14583333333333 Channel: 1 Note off, B3 key=59 velocity: 0
@29820 $124.25 Channel: 1 Note off, G#4 key=68 velocity: 0
@29820 $124.25 Channel: 1 Note off, G#5 key=80 velocity: 0
@29820 $124.25 Channel: 1 Note on, E4 key=64 velocity: 108
@29820 $124.25 Channel: 1 Note on, E5 key=76 velocity: 108
@29880 $124.5 Channel: 1 Note off, E5 key=76 velocity: 0
@29880 $124.5 Channel: 1 Note off, E4 key=64 velocity: 0
@29880 $124.5 Channel: 1 Note on, A4 key=69 velocity: 108
@29880 $124.5 Channel: 1 Note on, A5 key=81 velocity: 108
@29940 $124.75 Channel: 1 Note off, A5 key=81 velocity: 0
@29940 $124.75 Channel: 1 Note off, A4 key=69 velocity: 0
@29940 $124.75 Channel: 1 Note on, B4 key=71 velocity: 108
@29940 $124.75 Channel: 1 Note on, B5 key=83 velocity: 108
@30000 $125.0 Channel: 1 Note off, B5 key=83 velocity: 0
@30000 $125.0 Channel: 1 Note off, B4 key=71 velocity: 0
@30000 $125.0 Channel: 1 Note on, A3 key=57 velocity: 108
@30000 $125.0 Channel: 1 Note on, C#5 key=73 velocity: 108
@30000 $125.0 Channel: 1 Note on, C#6 key=85 velocity: 108
@30010 $125.04166666666667 Channel: 1 Note on, C#4 key=61 velocity: 108
@30015 $125.0625 Channel: 1 Note off, A3 key=57 velocity: 0
@30020 $125.08333333333333 Channel: 1 Note on, E4 key=64 velocity: 108
@30025 $125.10416666666667 Channel: 1 Note off, C#4 key=61 velocity: 0
@30035 $125.14583333333333 Channel: 1 Note off, E4 key=64 velocity: 0
@30120 $125.5 Channel: 1 Note off, C#6 key=85 velocity: 0
@30120 $125.5 Channel: 1 Note off, C#5 key=73 velocity: 0
@30120 $125.5 Channel: 1 Note on, A4 key=69 velocity: 108
@30120 $125.5 Channel: 1 Note on, A5 key=81 velocity: 108
@30165 $125.6875 Channel: 1 Note off, A5 key=81 velocity: 0
@30165 $125.6875 Channel: 1 Note off, A4 key=69 velocity: 0
@30180 $125.75 Channel: 1 Note on, B5 key=83 velocity: 108
@30180 $125.75 Channel: 1 Note on, B4 key=71 velocity: 108
@30225 $125.9375 Channel: 1 Note off, B4 key=71 velocity: 0
@30225 $125.9375 Channel: 1 Note off, B5 key=83 velocity: 0
@30240 $126.0 Channel: 1 Note on, A3 key=57 velocity: 108
@30240 $126.0 Channel: 1 Note on, C#5 key=73 velocity: 108
@30240 $126.0 Channel: 1 Note on, C#6 key=85 velocity: 108
@30250 $126.04166666666667 Channel: 1 Note on, C#4 key=61 velocity: 108
@30255 $126.0625 Channel: 1 Note off, A3 key=57 velocity: 0
@30260 $126.08333333333333 Channel: 1 Note on, E4 key=64 velocity: 108
@30265 $126.10416666666667 Channel: 1 Note off, C#4 key=61 velocity: 0
@30275 $126.14583333333333 Channel: 1 Note off, E4 key=64 velocity: 0
@30285 $126.1875 Channel: 1 Note off, C#6 key=85 velocity: 0
@30285 $126.1875 Channel: 1 Note off, C#5 key=73 velocity: 0
@30300 $126.25 Channel: 1 Note on, B4 key=71 velocity: 108
@30300 $126.25 Channel: 1 Note on, B5 key=83 velocity: 108
@30345 $126.4375 Channel: 1 Note off, B5 key=83 velocity: 0
@30345 $126.4375 Channel: 1 Note off, B4 key=71 velocity: 0
@30360 $126.5 Channel: 1 Note on, A5 key=81 velocity: 108
@30360 $126.5 Channel: 1 Note on, A4 key=69 velocity: 108
@30405 $126.6875 Channel: 1 Note off, A4 key=69 velocity: 0
@30405 $126.6875 Channel: 1 Note off, A5 key=81 velocity: 0
@30420 $126.75 Channel: 1 Note on, G#5 key=80 velocity: 108
@30420 $126.75 Channel: 1 Note on, G#4 key=68 velocity: 108
@30465 $126.9375 Channel: 1 Note off, G#4 key=68 velocity: 0
@30465 $126.9375 Channel: 1 Note off, G#5 key=80 velocity: 0
@30480 $127.0 Channel: 1 Note on, D3 key=50 velocity: 108
@30480 $127.0 Channel: 1 Note on, F#4 key=66 velocity: 108
@30480 $127.0 Channel: 1 Note on, F#5 key=78 velocity: 108
@30490 $127.04166666666667 Channel: 1 Note on, F#3 key=54 velocity: 108
@30495 $127.0625 Channel: 1 Note off, D3 key=50 velocity: 0
@30500 $127.08333333333333 Channel: 1 Note on, A3 key=57 velocity: 108
@30505 $127.10416666666667 Channel: 1 Note off, F#3 key=54 velocity: 0
@30515 $127.14583333333333 Channel: 1 Note off, A3 key=57 velocity: 0
@30525 $127.1875 Channel: 1 Note off, F#5 key=78 velocity: 0
@30525 $127.1875 Channel: 1 Note off, F#4 key=66 velocity: 0
@30540 $127.25 Channel: 1 Note on, B4 key=71 velocity: 108
@30540 $127.25 Channel: 1 Note on, B5 key=83 velocity: 108
@30585 $127.4375 Channel: 1 Note off, B5 key=83 velocity: 0
@30585 $127.4375 Channel: 1 Note off, B4 key=71 velocity: 0
@30600 $127.5 Channel: 1 Note on, E3 key=52 velocity: 108
@30600 $127.5 Channel: 1 Note on, G#4 key=68 velocity: 108
@30600 $127.5 Channel: 1 Note on, G#5 key=80 velocity: 108
@30610 $127.54166666666667 Channel: 1 Note on, G#3 key=56 velocity: 108
@30615 $127.5625 Channel: 1 Note off, E3 key=52 velocity: 0
@30620 $127.58333333333333 Channel: 1 Note on, B3 key=59 velocity: 108
@30625 $127.60416666666667 Channel: 1 Note off, G#3 key=56 velocity: 0
@30635 $127.64583333333333 Channel: 1 Note off, B3 key=59 velocity: 0
@30645 $127.6875 Channel: 1 Note off, G#5 key=80 velocity: 0
@30645 $127.6875 Channel: 1 Note off, G#4 key=68 velocity: 0
@30660 $127.75 Channel: 1 Note on, E4 key=64 velocity: 108
@30660 $127.75 Channel: 1 Note on, E5 key=76 velocity: 108
@30705 $127.9375 Channel: 1 Note off, E5 key=76 velocity: 0
@30705 $127.9375 Channel: 1 Note off, E4 key=64 velocity: 0
@30720 $128.0 Channel: 1 Note on, A3 key=57 velocity: 108
@30720 $128.0 Channel: 1 Note on, A4 key=69 velocity: 108
@30720 $128.0 Channel: 1 Note on, A5 key=81 velocity: 108
@30840 $128.5 Channel: 1 Note off, A5 key=81 velocity: 0
@30840 $128.5 Channel: 1 Note off, A4 key=69 velocity: 0
@30840 $128.5 Channel: 1 Note off, A3 key=57 velocity: 0
@30840 $128.5 Channel: 1 Note on, B4 key=71 velocity: 100
@30870 $128.625 Channel: 1 Note off, B4 key=71 velocity: 0
@30870 $128.625 Channel: 1 Note on, A4 key=69 velocity: 100
@30900 $128.75 Channel: 1 Note off, A4 key=69 velocity: 0
@30900 $128.75 Channel: 1 Note on, G#4 key=68 velocity: 100
@30930 $128.875 Channel: 1 Note off, G#4 key=68 velocity: 0
@30930 $128.875 Channel: 1 Note on, A4 key=69 velocity: 100
@30960 $129.0 Channel: 1 Note off, A4 key=69 velocity: 0
@30960 $129.0 Channel: 1 Note on, C5 key=72 velocity: 100
@31015 $129.22916666666666 Channel: 1 Note off, C5 key=72 velocity: 0
@31080 $129.5 Channel: 1 Note on, D5 key=74 velocity: 100
@31110 $129.625 Channel: 1 Note off, D5 key=74 velocity: 0
@31110 $129.625 Channel: 1 Note on, C5 key=72 velocity: 100
@31140 $129.75 Channel: 1 Note off, C5 key=72 velocity: 0
@31140 $129.75 Channel: 1 Note on, B4 key=71 velocity: 100
@31170 $129.875 Channel: 1 Note off, B4 key=71 velocity: 0
@31170 $129.875 Channel: 1 Note on, C5 key=72 velocity: 100
@31200 $130.0 Channel: 1 Note off, C5 key=72 velocity: 0
@31200 $130.0 Channel: 1 Note on, E5 key=76 velocity: 100
@31255 $130.22916666666666 Channel: 1 Note off, E5 key=76 velocity: 0
@31320 $130.5 Channel: 1 Note on, F5 key=77 velocity: 100
@31350 $130.625 Channel: 1 Note off, F5 key=77 velocity: 0
@31350 $130.625 Channel: 1 Note on, E5 key=76 velocity: 100
@31380 $130.75 Channel: 1 Note off, E5 key=76 velocity: 0
@31380 $130.75 Channel: 1 Note on, D#5 key=75 velocity: 100
@31410 $130.875 Channel: 1 Note off, D#5 key=75 velocity: 0
@31410 $130.875 Channel: 1 Note on, E5 key=76 velocity: 100
@31440 $131.0 Channel: 1 Note off, E5 key=76 velocity: 0
@31440 $131.0 Channel: 1 Note on, B5 key=83 velocity: 100
@31470 $131.125 Channel: 1 Note off, B5 key=83 velocity: 0
@31470 $131.125 Channel: 1 Note on, A5 key=81 velocity: 100
@31500 $131.25 Channel: 1 Note off, A5 key=81 velocity: 0
@31500 $131.25 Channel: 1 Note on, G#5 key=80 velocity: 100
@31530 $131.375 Channel: 1 Note off, G#5 key=80 velocity: 0
@31530 $131.375 Channel: 1 Note on, A5 key=81 velocity: 100
@31560 $131.5 Channel: 1 Note off, A5 key=81 velocity: 0
@31560 $131.5 Channel: 1 Note on, B5 key=83 velocity: 100
@31590 $131.625 Channel: 1 Note off, B5 key=83 velocity: 0
@31590 $131.625 Channel: 1 Note on, A5 key=81 velocity: 100
@31620 $131.75 Channel: 1 Note off, A5 key=81 velocity: 0
@31620 $131.75 Channel: 1 Note on, G#5 key=80 velocity: 100
@31650 $131.875 Channel: 1 Note off, G#5 key=80 velocity: 0
@31650 $131.875 Channel: 1 Note on, A5 key=81 velocity: 100
@31680 $132.0 Channel: 1 Note off, A5 key=81 velocity: 0
@31680 $132.0 Channel: 1 Note on, C6 key=84 velocity: 100
@31795 $132.47916666666666 Channel: 1 Note off, C6 key=84 velocity: 0
@31800 $132.5 Channel: 1 Note on, A5 key=81 velocity: 100
@31830 $132.625 Channel: 1 Note off, A5 key=81 velocity: 0
@31860 $132.75 Channel: 1 Note on, C6 key=84 velocity: 100
@31890 $132.875 Channel: 1 Note off, C6 key=84 velocity: 0
@31920 $133.0 Channel: 1 Note on, G5 key=79 velocity: 100
@31930 $133.04166666666666 Channel: 1 Note off, G5 key=79 velocity: 0
@31930 $133.04166666666666 Channel: 1 Note on, A5 key=81 velocity: 100
@31941 $133.0875 Channel: 1 Note on, B5 key=83 velocity: 100
@31942 $133.09166666666667 Channel: 1 Note off, A5 key=81 velocity: 0
@31971 $133.2125 Channel: 1 Note off, B5 key=83 velocity: 0
@31980 $133.25 Channel: 1 Note on, A5 key=81 velocity: 100
@31982 $133.25833333333333 Channel: 1 Note on, F#5 key=78 velocity: 100
@32010 $133.375 Channel: 1 Note off, A5 key=81 velocity: 0
@32012 $133.38333333333333 Channel: 1 Note off, F#5 key=78 velocity: 0
@32040 $133.5 Channel: 1 Note on, E5 key=76 velocity: 100
@32040 $133.5 Channel: 1 Note on, G5 key=79 velocity: 100
@32070 $133.625 Channel: 1 Note off, G5 key=79 velocity: 0
@32070 $133.625 Channel: 1 Note off, E5 key=76 velocity: 0
@32100 $133.75 Channel: 1 Note on, F#5 key=78 velocity: 100
@32100 $133.75 Channel: 1 Note on, A5 key=81 velocity: 100
@32130 $133.875 Channel: 1 Note off, A5 key=81 velocity: 0
@32130 $133.875 Channel: 1 Note off, F#5 key=78 velocity: 0
@32160 $134.0 Channel: 1 Note on, G5 key=79 velocity: 100
@32168 $134.03333333333333 Channel: 1 Note on, A5 key=81 velocity: 100
@32170 $134.04166666666666 Channel: 1 Note off, G5 key=79 velocity: 0
@32178 $134.075 Channel: 1 Note off, A5 key=81 velocity: 0
@32187 $134.1125 Channel: 1 Note on, B5 key=83 velocity: 100
@32217 $134.2375 Channel: 1 Note off, B5 key=83 velocity: 0
@32222 $134.25833333333333 Channel: 1 Note on, A5 key=81 velocity: 100
@32222 $134.25833333333333 Channel: 1 Note on, F#5 key=78 velocity: 100
@32252 $134.38333333333333 Channel: 1 Note off, F#5 key=78 velocity: 0
@32252 $134.38333333333333 Channel: 1 Note off, A5 key=81 velocity: 0
@32282 $134.50833333333333 Channel: 1 Note on, G5 key=79 velocity: 100
@32282 $134.50833333333333 Channel: 1 Note on, E5 key=76 velocity: 100
@32312 $134.63333333333333 Channel: 1 Note off, E5 key=76 velocity: 0
@32312 $134.63333333333333 Channel: 1 Note off, G5 key=79 velocity: 0
@32340 $134.75 Channel: 1 Note on, A5 key=81 velocity: 100
@32340 $134.75 Channel: 1 Note on, F#5 key=78 velocity: 100
@32370 $134.875 Channel: 1 Note off, F#5 key=78 velocity: 0
@32370 $134.875 Channel: 1 Note off, A5 key=81 velocity: 0
@32400 $135.0 Channel: 1 Note on, G5 key=79 velocity: 100
@32408 $135.03333333333333 Channel: 1 Note on, A5 key=81 velocity: 100
@32410 $135.04166666666666 Channel: 1 Note off, G5 key=79 velocity: 0
@32418 $135.075 Channel: 1 Note off, A5 key=81 velocity: 0
@32427 $135.1125 Channel: 1 Note on, B5 key=83 velocity: 100
@32457 $135.2375 Channel: 1 Note off, B5 key=83 velocity: 0
@32462 $135.25833333333333 Channel: 1 Note on, A5 key=81 velocity: 100
@32462 $135.25833333333333 Channel: 1 Note on, F#5 key=78 velocity: 100
@32492 $135.38333333333333 Channel: 1 Note off, F#5 key=78 velocity: 0
@32492 $135.38333333333333 Channel: 1 Note off, A5 key=81 velocity: 0
@32520 $135.5 Channel: 1 Note on, E5 key=76 velocity: 100
@32520 $135.5 Channel: 1 Note on, G5 key=79 velocity: 100
@32550 $135.625 Channel: 1 Note off, G5 key=79 velocity: 0
@32550 $135.625 Channel: 1 Note off, E5 key=76 velocity: 0
@32580 $135.75 Channel: 1 Note on, D#5 key=75 velocity: 100
@32580 $135.75 Channel: 1 Note on, F#5 key=78 velocity: 100
@32610 $135.875 Channel: 1 Note off, F#5 key=78 velocity: 0
@32610 $135.875 Channel: 1 Note off, D#5 key=75 velocity: 0
@32640 $136.0 Channel: 1 Note on, E5 key=76 velocity: 100
@32760 $136.5 Channel: 1 Note off, E5 key=76 velocity: 0
@32760 $136.5 Channel: 1 Note on, B4 key=71 velocity: 100
@32790 $136.625 Channel: 1 Note off, B4 key=71 velocity: 0
@32790 $136.625 Channel: 1 Note on, A4 key=69 velocity: 100
@32820 $136.75 Channel: 1 Note off, A4 key=69 velocity: 0
@32820 $136.75 Channel: 1 Note on, G#4 key=68 velocity: 100
@32850 $136.875 Channel: 1 Note off, G#4 key=68 velocity: 0
@32850 $136.875 Channel: 1 Note on, A4 key=69 velocity: 100
@32880 $137.0 Channel: 1 Note off, A4 key=69 velocity: 0
@32880 $137.0 Channel: 1 Note on, C5 key=72 velocity: 100
@32935 $137.22916666666666 Channel: 1 Note off, C5 key=72 velocity: 0
@33000 $137.5 Channel: 1 Note on, D5 key=74 velocity: 100
@33030 $137.625 Channel: 1 Note off, D5 key=74 velocity: 0
@33030 $137.625 Channel: 1 Note on, C5 key=72 velocity: 100
@33060 $137.75 Channel: 1 Note off, C5 key=72 velocity: 0
@33060 $137.75 Channel: 1 Note on, B4 key=71 velocity: 100
@33090 $137.875 Channel: 1 Note off, B4 key=71 velocity: 0
@33090 $137.875 Channel: 1 Note on, C5 key=72 velocity: 100
@33120 $138.0 Channel: 1 Note off, C5 key=72 velocity: 0
@33120 $138.0 Channel: 1 Note on, E5 key=76 velocity: 100
@33175 $138.22916666666666 Channel: 1 Note off, E5 key=76 velocity: 0
@33240 $138.5 Channel: 1 Note on, F5 key=77 velocity: 100
@33270 $138.625 Channel: 1 Note off, F5 key=77 velocity: 0
@33270 $138.625 Channel: 1 Note on, E5 key=76 velocity: 100
@33300 $138.75 Channel: 1 Note off, E5 key=76 velocity: 0
@33300 $138.75 Channel: 1 Note on, D#5 key=75 velocity: 100
@33330 $138.875 Channel: 1 Note off, D#5 key=75 velocity: 0
@33330 $138.875 Channel: 1 Note on, E5 key=76 velocity: 100
@33360 $139.0 Channel: 1 Note off, E5 key=76 velocity: 0
@33360 $139.0 Channel: 1 Note on, B5 key=83 velocity: 100
@33390 $139.125 Channel: 1 Note off, B5 key=83 velocity: 0
@33390 $139.125 Channel: 1 Note on, A5 key=81 velocity: 100
@33420 $139.25 Channel: 1 Note off, A5 key=81 velocity: 0
@33420 $139.25 Channel: 1 Note on, G#5 key=80 velocity: 100
@33450 $139.375 Channel: 1 Note off, G#5 key=80 velocity: 0
@33450 $139.375 Channel: 1 Note on, A5 key=81 velocity: 100
@33480 $139.5 Channel: 1 Note off, A5 key=81 velocity: 0
@33480 $139.5 Channel: 1 Note on, B5 key=83 velocity: 100
@33510 $139.625 Channel: 1 Note off, B5 key=83 velocity: 0
@33510 $139.625 Channel: 1 Note on, A5 key=81 velocity: 100
@33540 $139.75 Channel: 1 Note off, A5 key=81 velocity: 0
@33540 $139.75 Channel: 1 Note on, G#5 key=80 velocity: 100
@33570 $139.875 Channel: 1 Note off, G#5 key=80 velocity: 0
@33570 $139.875 Channel: 1 Note on, A5 key=81 velocity: 100
@33600 $140.0 Channel: 1 Note off, A5 key=81 velocity: 0
@33600 $140.0 Channel: 1 Note on, C6 key=84 velocity: 100
@33715 $140.47916666666666 Channel: 1 Note off, C6 key=84 velocity: 0
@33720 $140.5 Channel: 1 Note on, A5 key=81 velocity: 100
@33750 $140.625 Channel: 1 Note off, A5 key=81 velocity: 0
@33780 $140.75 Channel: 1 Note on, C6 key=84 velocity: 100
@33810 $140.875 Channel: 1 Note off, C6 key=84 velocity: 0
@33840 $141.0 Channel: 1 Note on, G5 key=79 velocity: 100
@33850 $141.04166666666666 Channel: 1 Note off, G5 key=79 velocity: 0
@33850 $141.04166666666666 Channel: 1 Note on, A5 key=81 velocity: 100
@33861 $141.0875 Channel: 1 Note on, B5 key=83 velocity: 100
@33862 $141.09166666666667 Channel: 1 Note off, A5 key=81 velocity: 0
@33891 $141.2125 Channel: 1 Note off, B5 key=83 velocity: 0
@33900 $141.25 Channel: 1 Note on, A5 key=81 velocity: 100
@33902 $141.25833333333333 Channel: 1 Note on, F#5 key=78 velocity: 100
@33930 $141.375 Channel: 1 Note off, A5 key=81 velocity: 0
@33932 $141.38333333333333 Channel: 1 Note off, F#5 key=78 velocity: 0
@33960 $141.5 Channel: 1 Note on, E5 key=76 velocity: 100
@33960 $141.5 Channel: 1 Note on, G5 key=79 velocity: 100
@33990 $141.625 Channel: 1 Note off, G5 key=79 velocity: 0
@33990 $141.625 Channel: 1 Note off, E5 key=76 velocity: 0
@34020 $141.75 Channel: 1 Note on, F#5 key=78 velocity: 100
@34020 $141.75 Channel: 1 Note on, A5 key=81 velocity: 100
@34050 $141.875 Channel: 1 Note off, A5 key=81 velocity: 0
@34050 $141.875 Channel: 1 Note off, F#5 key=78 velocity: 0
@34080 $142.0 Channel: 1 Note on, G5 key=79 velocity: 100
@34088 $142.03333333333333 Channel: 1 Note on, A5 key=81 velocity: 100
@34090 $142.04166666666666 Channel: 1 Note off, G5 key=79 velocity: 0
@34098 $142.075 Channel: 1 Note off, A5 key=81 velocity: 0
@34107 $142.1125 Channel: 1 Note on, B5 key=83 velocity: 100
@34137 $142.2375 Channel: 1 Note off, B5 key=83 velocity: 0
@34142 $142.25833333333333 Channel: 1 Note on, A5 key=81 velocity: 100
@34142 $142.25833333333333 Channel: 1 Note on, F#5 key=78 velocity: 100
@34172 $142.38333333333333 Channel: 1 Note off, F#5 key=78 velocity: 0
@34172 $142.38333333333333 Channel: 1 Note off, A5 key=81 velocity: 0
@34202 $142.50833333333333 Channel: 1 Note on, G5 key=79 velocity: 100
@34202 $142.50833333333333 Channel: 1 Note on, E5 key=76 velocity: 100
@34232 $142.63333333333333 Channel: 1 Note off, E5 key=76 velocity: 0
@34232 $142.63333333333333 Channel: 1 Note off, G5 key=79 velocity: 0
@34260 $142.75 Channel: 1 Note on, A5 key=81 velocity: 100
@34260 $142.75 Channel: 1 Note on, F#5 key=78 velocity: 100
@34290 $142.875 Channel: 1 Note off, F#5 key=78 velocity: 0
@34290 $142.875 Channel: 1 Note off, A5 key=81 velocity: 0
@34320 $143.0 Channel: 1 Note on, G5 key=79 velocity: 100
@34328 $143.03333333333333 Channel: 1 Note on, A5 key=81 velocity: 100
@34330 $143.04166666666666 Channel: 1 Note off, G5 key=79 velocity: 0
@34338 $143.075 Channel: 1 Note off, A5 key=81 velocity: 0
@34347 $143.1125 Channel: 1 Note on, B5 key=83 velocity: 100
@34377 $143.2375 Channel: 1 Note off, B5 key=83 velocity: 0
@34382 $143.25833333333333 Channel: 1 Note on, A5 key=81 velocity: 100
@34382 $143.25833333333333 Channel: 1 Note on, F#5 key=78 velocity: 100
@34412 $143.38333333333333 Channel: 1 Note off, F#5 key=78 velocity: 0
@34412 $143.38333333333333 Channel: 1 Note off, A5 key=81 velocity: 0
@34440 $143.5 Channel: 1 Note on, E5 key=76 velocity: 100
@34440 $143.5 Channel: 1 Note on, G5 key=79 velocity: 100
@34470 $143.625 Channel: 1 Note off, G5 key=79 velocity: 0
@34470 $143.625 Channel: 1 Note off, E5 key=76 velocity: 0
@34500 $143.75 Channel: 1 Note on, D#5 key=75 velocity: 100
@34500 $143.75 Channel: 1 Note on, F#5 key=78 velocity: 100
@34530 $143.875 Channel: 1 Note off, F#5 key=78 velocity: 0
@34530 $143.875 Channel: 1 Note off, D#5 key=75 velocity: 0
@34560 $144.0 Channel: 1 Note on, E5 key=76 velocity: 100
@34680 $144.5 Channel: 1 Note off, E5 key=76 velocity: 0
@34680 $144.5 Channel: 1 Note on, C5 key=72 velocity: 100
@34680 $144.5 Channel: 1 Note on, E5 key=76 velocity: 100
@34710 $144.625 Channel: 1 Note off, E5 key=76 velocity: 0
@34710 $144.625 Channel: 1 Note off, C5 key=72 velocity: 0
@34740 $144.75 Channel: 1 Note on, F5 key=77 velocity: 100
@34740 $144.75 Channel: 1 Note on, D5 key=74 velocity: 100
@34770 $144.875 Channel: 1 Note off, D5 key=74 velocity: 0
@34770 $144.875 Channel: 1 Note off, F5 key=77 velocity: 0
@34800 $145.0 Channel: 1 Note on, E5 key=76 velocity: 100
@34800 $145.0 Channel: 1 Note on, G5 key=79 velocity: 100
@34830 $145.125 Channel: 1 Note off, G5 key=79 velocity: 0
@34830 $145.125 Channel: 1 Note off, E5 key=76 velocity: 0
@34860 $145.25 Channel: 1 Note on, E5 key=76 velocity: 100
@34860 $145.25 Channel: 1 Note on, G5 key=79 velocity: 100
@34890 $145.375 Channel: 1 Note off, G5 key=79 velocity: 0
@34890 $145.375 Channel: 1 Note off, E5 key=76 velocity: 0
@34920 $145.5 Channel: 1 Note on, A5 key=81 velocity: 100
@34950 $145.625 Channel: 1 Note off, A5 key=81 velocity: 0
@34950 $145.625 Channel: 1 Note on, G5 key=79 velocity: 100
@34980 $145.75 Channel: 1 Note off, G5 key=79 velocity: 0
@34980 $145.75 Channel: 1 Note on, F5 key=77 velocity: 100
@35010 $145.875 Channel: 1 Note off, F5 key=77 velocity: 0
@35010 $145.875 Channel: 1 Note on, E5 key=76 velocity: 100
@35040 $146.0 Channel: 1 Note off, E5 key=76 velocity: 0
@35040 $146.0 Channel: 1 Note on, B4 key=71 velocity: 100
@35040 $146.0 Channel: 1 Note on, D5 key=74 velocity: 100
@35100 $146.25 Channel: 1 Note off, B4 key=71 velocity: 0
@35100 $146.25 Channel: 1 Note on, G4 key=67 velocity: 100
@35160 $146.5 Channel: 1 Note off, G4 key=67 velocity: 0
@35160 $146.5 Channel: 1 Note off, D5 key=74 velocity: 0
@35160 $146.5 Channel: 1 Note on, E5 key=76 velocity: 100
@35160 $146.5 Channel: 1 Note on, C5 key=72 velocity: 100
@35190 $146.625 Channel: 1 Note off, C5 key=72 velocity: 0
@35190 $146.625 Channel: 1 Note off, E5 key=76 velocity: 0
@35220 $146.75 Channel: 1 Note on, D5 key=74 velocity: 100
@35220 $146.75 Channel: 1 Note on, F5 key=77 velocity: 100
@35250 $146.875 Channel: 1 Note off, F5 key=77 velocity: 0
@35250 $146.875 Channel: 1 Note off, D5 key=74 velocity: 0
@35280 $147.0 Channel: 1 Note on, E5 key=76 velocity: 100
@35280 $147.0 Channel: 1 Note on, G5 key=79 velocity: 100
@35310 $147.125 Channel: 1 Note off, G5 key=79 velocity: 0
@35310 $147.125 Channel: 1 Note off, E5 key=76 velocity: 0
@35340 $147.25 Channel: 1 Note on, E5 key=76 velocity: 100
@35340 $147.25 Channel: 1 Note on, G5 key=79 velocity: 100
@35370 $147.375 Channel: 1 Note off, G5 key=79 velocity: 0
@35370 $147.375 Channel: 1 Note off, E5 key=76 velocity: 0
@35400 $147.5 Channel: 1 Note on, A5 key=81 velocity: 100
@35430 $147.625 Channel: 1 Note off, A5 key=81 velocity: 0
@35430 $147.625 Channel: 1 Note on, G5 key=79 velocity: 100
@35460 $147.75 Channel: 1 Note off, G5 key=79 velocity: 0
@35460 $147.75 Channel: 1 Note on, F5 key=77 velocity: 100
@35490 $147.875 Channel: 1 Note off, F5 key=77 velocity: 0
@35490 $147.875 Channel: 1 Note on, E5 key=76 velocity: 100
@35520 $148.0 Channel: 1 Note off, E5 key=76 velocity: 0
@35520 $148.0 Channel: 1 Note on, B4 key=71 velocity: 100
@35520 $148.0 Channel: 1 Note on, D5 key=74 velocity: 100
@35580 $148.25 Channel: 1 Note off, D5 key=74 velocity: 0
@35580 $148.25 Channel: 1 Note off, B4 key=71 velocity: 0
@35640 $148.5 Channel: 1 Note on, A4 key=69 velocity: 100
@35640 $148.5 Channel: 1 Note on, C5 key=72 velocity: 100
@35670 $148.625 Channel: 1 Note off, C5 key=72 velocity: 0
@35670 $148.625 Channel: 1 Note off, A4 key=69 velocity: 0
@35700 $148.75 Channel: 1 Note on, B4 key=71 velocity: 100
@35700 $148.75 Channel: 1 Note on, D5 key=74 velocity: 100
@35730 $148.875 Channel: 1 Note off, D5 key=74 velocity: 0
@35730 $148.875 Channel: 1 Note off, B4 key=71 velocity: 0
@35760 $149.0 Channel: 1 Note on, C5 key=72 velocity: 100
@35760 $149.0 Channel: 1 Note on, E5 key=76 velocity: 100
@35790 $149.125 Channel: 1 Note off, E5 key=76 velocity: 0
@35790 $149.125 Channel: 1 Note off, C5 key=72 velocity: 0
@35820 $149.25 Channel: 1 Note on, C5 key=72 velocity: 100
@35820 $149.25 Channel: 1 Note on, E5 key=76 velocity: 100
@35850 $149.375 Channel: 1 Note off, E5 key=76 velocity: 0
@35850 $149.375 Channel: 1 Note off, C5 key=72 velocity: 0
@35880 $149.5 Channel: 1 Note on, F5 key=77 velocity: 100
@35910 $149.625 Channel: 1 Note off, F5 key=77 velocity: 0
@35910 $149.625 Channel: 1 Note on, E5 key=76 velocity: 100
@35940 $149.75 Channel: 1 Note off, E5 key=76 velocity: 0
@35940 $149.75 Channel: 1 Note on, D5 key=74 velocity: 100
@35970 $149.875 Channel: 1 Note off, D5 key=74 velocity: 0
@35970 $149.875 Channel: 1 Note on, C5 key=72 velocity: 100
@36000 $150.0 Channel: 1 Note off, C5 key=72 velocity: 0
@36000 $150.0 Channel: 1 Note on, G#4 key=68 velocity: 100
@36000 $150.0 Channel: 1 Note on, B4 key=71 velocity: 100
@36060 $150.25 Channel: 1 Note off, G#4 key=68 velocity: 0
@36060 $150.25 Channel: 1 Note on, E4 key=64 velocity: 100
@36120 $150.5 Channel: 1 Note off, E4 key=64 velocity: 0
@36120 $150.5 Channel: 1 Note off, B4 key=71 velocity: 0
@36120 $150.5 Channel: 1 Note on, C5 key=72 velocity: 100
@36120 $150.5 Channel: 1 Note on, A4 key=69 velocity: 100
@36150 $150.625 Channel: 1 Note off, A4 key=69 velocity: 0
@36150 $150.625 Channel: 1 Note off, C5 key=72 velocity: 0
@36180 $150.75 Channel: 1 Note on, B4 key=71 velocity: 100
@36180 $150.75 Channel: 1 Note on, D5 key=74 velocity: 100
@36210 $150.875 Channel: 1 Note off, D5 key=74 velocity: 0
@36210 $150.875 Channel: 1 Note off, B4 key=71 velocity: 0
@36240 $151.0 Channel: 1 Note on, C5 key=72 velocity: 100
@36240 $151.0 Channel: 1 Note on, E5 key=76 velocity: 100
@36270 $151.125 Channel: 1 Note off, E5 key=76 velocity: 0
@36270 $151.125 Channel: 1 Note off, C5 key=72 velocity: 0
@36300 $151.25 Channel: 1 Note on, C5 key=72 velocity: 100
@36300 $151.25 Channel: 1 Note on, E5 key=76 velocity: 100
@36330 $151.375 Channel: 1 Note off, E5 key=76 velocity: 0
@36330 $151.375 Channel: 1 Note off, C5 key=72 velocity: 0
@36360 $151.5 Channel: 1 Note on, F5 key=77 velocity: 100
@36390 $151.625 Channel: 1 Note off, F5 key=77 velocity: 0
@36390 $151.625 Channel: 1 Note on, E5 key=76 velocity: 100
@36420 $151.75 Channel: 1 Note off, E5 key=76 velocity: 0
@36420 $151.75 Channel: 1 Note on, D5 key=74 velocity: 100
@36450 $151.875 Channel: 1 Note off, D5 key=74 velocity: 0
@36450 $151.875 Channel: 1 Note on, C5 key=72 velocity: 100
@36480 $152.0 Channel: 1 Note off, C5 key=72 velocity: 0
@36480 $152.0 Channel: 1 Note on, G#4 key=68 velocity: 100
@36480 $152.0 Channel: 1 Note on, B4 key=71 velocity: 100
@36600 $152.5 Channel: 1 Note off, B4 key=71 velocity: 0
@36600 $152.5 Channel: 1 Note off, G#4 key=68 velocity: 0
@36600 $152.5 Channel: 1 Note on, B4 key=71 velocity: 100
@36630 $152.625 Channel: 1 Note off, B4 key=71 velocity: 0
@36630 $152.625 Channel: 1 Note on, A4 key=69 velocity: 100
@36660 $152.75 Channel: 1 Note off, A4 key=69 velocity: 0
@36660 $152.75 Channel: 1 Note on, G#4 key=68 velocity: 100
@36690 $152.875 Channel: 1 Note off, G#4 key=68 velocity: 0
@36690 $152.875 Channel: 1 Note on, A4 key=69 velocity: 100
@36720 $153.0 Channel: 1 Note off, A4 key=69 velocity: 0
@36720 $153.0 Channel: 1 Note on, C5 key=72 velocity: 100
@36775 $153.22916666666666 Channel: 1 Note off, C5 key=72 velocity: 0
@36840 $153.5 Channel: 1 Note on, D5 key=74 velocity: 100
@36870 $153.625 Channel: 1 Note off, D5 key=74 velocity: 0
@36870 $153.625 Channel: 1 Note on, C5 key=72 velocity: 100
@36900 $153.75 Channel: 1 Note off, C5 key=72 velocity: 0
@36900 $153.75 Channel: 1 Note on, B4 key=71 velocity: 100
@36930 $153.875 Channel: 1 Note off, B4 key=71 velocity: 0
@36930 $153.875 Channel: 1 Note on, C5 key=72 velocity: 100
@36960 $154.0 Channel: 1 Note off, C5 key=72 velocity: 0
@36960 $154.0 Channel: 1 Note on, E5 key=76 velocity: 100
@37015 $154.22916666666666 Channel: 1 Note off, E5 key=76 velocity: 0
@37080 $154.5 Channel: 1 Note on, F5 key=77 velocity: 100
@37110 $154.625 Channel: 1 Note off, F5 key=77 velocity: 0
@37110 $154.625 Channel: 1 Note on, E5 key=76 velocity: 100
@37140 $154.75 Channel: 1 Note off, E5 key=76 velocity: 0
@37140 $154.75 Channel: 1 Note on, D#5 key=75 velocity: 100
@37170 $154.875 Channel: 1 Note off, D#5 key=75 velocity: 0
@37170 $154.875 Channel: 1 Note on, E5 key=76 velocity: 100
@37200 $155.0 Channel: 1 Note off, E5 key=76 velocity: 0
@37200 $155.0 Channel: 1 Note on, B5 key=83 velocity: 100
@37230 $155.125 Channel: 1 Note off, B5 key=83 velocity: 0
@37230 $155.125 Channel: 1 Note on, A5 key=81 velocity: 100
@37260 $155.25 Channel: 1 Note off, A5 key=81 velocity: 0
@37260 $155.25 Channel: 1 Note on, G#5 key=80 velocity: 100
@37290 $155.375 Channel: 1 Note off, G#5 key=80 velocity: 0
@37290 $155.375 Channel: 1 Note on, A5 key=81 velocity: 100
@37320 $155.5 Channel: 1 Note off, A5 key=81 velocity: 0
@37320 $155.5 Channel: 1 Note on, B5 key=83 velocity: 100
@37350 $155.625 Channel: 1 Note off, B5 key=83 velocity: 0
@37350 $155.625 Channel: 1 Note on, A5 key=81 velocity: 100
@37380 $155.75 Channel: 1 Note off, A5 key=81 velocity: 0
@37380 $155.75 Channel: 1 Note on, G#5 key=80 velocity: 100
@37410 $155.875 Channel: 1 Note off, G#5 key=80 velocity: 0
@37410 $155.875 Channel: 1 Note on, A5 key=81 velocity: 100
@37440 $156.0 Channel: 1 Note off, A5 key=81 velocity: 0
@37440 $156.0 Channel: 1 Note on, C6 key=84 velocity: 100
@37560 $156.5 Channel: 1 Note off, C6 key=84 velocity: 0
@37560 $156.5 Channel: 1 Note on, A5 key=81 velocity: 100
@37590 $156.625 Channel: 1 Note off, A5 key=81 velocity: 0
@37620 $156.75 Channel: 1 Note on, B5 key=83 velocity: 100
@37650 $156.875 Channel: 1 Note off, B5 key=83 velocity: 0
@37680 $157.0 Channel: 1 Note on, C6 key=84 velocity: 100
@37710 $157.125 Channel: 1 Note off, C6 key=84 velocity: 0
@37740 $157.25 Channel: 1 Note on, B5 key=83 velocity: 100
@37770 $157.375 Channel: 1 Note off, B5 key=83 velocity: 0
@37800 $157.5 Channel: 1 Note on, A5 key=81 velocity: 100
@37830 $157.625 Channel: 1 Note off, A5 key=81 velocity: 0
@37860 $157.75 Channel: 1 Note on, G#5 key=80 velocity: 100
@37890 $157.875 Channel: 1 Note off, G#5 key=80 velocity: 0
@37920 $158.0 Channel: 1 Note on, A5 key=81 velocity: 100
@37950 $158.125 Channel: 1 Note off, A5 key=81 velocity: 0
@37980 $158.25 Channel: 1 Note on, E5 key=76 velocity: 100
@38010 $158.375 Channel: 1 Note off, E5 key=76 velocity: 0
@38040 $158.5 Channel: 1 Note on, F5 key=77 velocity: 100
@38070 $158.625 Channel: 1 Note off, F5 key=77 velocity: 0
@38100 $158.75 Channel: 1 Note on, D5 key=74 velocity: 100
@38130 $158.875 Channel: 1 Note off, D5 key=74 velocity: 0
@38160 $159.0 Channel: 1 Note on, C5 key=72 velocity: 100
@38280 $159.5 Channel: 1 Note off, C5 key=72 velocity: 0
@38280 $159.5 Channel: 1 Note on, C5 key=72 velocity: 102
@38295 $159.5625 Channel: 1 Note off, C5 key=72 velocity: 0
@38295 $159.5625 Channel: 1 Note on, B4 key=71 velocity: 101
@38310 $159.625 Channel: 1 Note off, B4 key=71 velocity: 0
@38310 $159.625 Channel: 1 Note on, C5 key=72 velocity: 99
@38325 $159.6875 Channel: 1 Note off, C5 key=72 velocity: 0
@38325 $159.6875 Channel: 1 Note on, B4 key=71 velocity: 98
@38340 $159.75 Channel: 1 Note off, B4 key=71 velocity: 0
@38340 $159.75 Channel: 1 Note on, C5 key=72 velocity: 96
@38355 $159.8125 Channel: 1 Note off, C5 key=72 velocity: 0
@38355 $159.8125 Channel: 1 Note on, B4 key=71 velocity: 94
@38370 $159.875 Channel: 1 Note off, B4 key=71 velocity: 0
@38370 $159.875 Channel: 1 Note on, A4 key=69 velocity: 100
@38385 $159.9375 Channel: 1 Note off, A4 key=69 velocity: 0
@38385 $159.9375 Channel: 1 Note on, B4 key=71 velocity: 100
@38400 $160.0 Channel: 1 Note off, B4 key=71 velocity: 0
@38400 $160.0 Channel: 1 Note on, A4 key=69 velocity: 100
@38520 $160.5 Channel: 1 Note off, A4 key=69 velocity: 0
@38520 $160.5 Channel: 1 Note on, C5 key=72 velocity: 100
@38520 $160.5 Channel: 1 Note on, E5 key=76 velocity: 100
@38550 $160.625 Channel: 1 Note off, E5 key=76 velocity: 0
@38550 $160.625 Channel: 1 Note off, C5 key=72 velocity: 0
@38580 $160.75 Channel: 1 Note on, F5 key=77 velocity: 100
@38580 $160.75 Channel: 1 Note on, D5 key=74 velocity: 100
@38610 $160.875 Channel: 1 Note off, D5 key=74 velocity: 0
@38610 $160.875 Channel: 1 Note off, F5 key=77 velocity: 0
@38640 $161.0 Channel: 1 Note on, E5 key=76 velocity: 100
@38640 $161.0 Channel: 1 Note on, G5 key=79 velocity: 100
@38670 $161.125 Channel: 1 Note off, G5 key=79 velocity: 0
@38670 $161.125 Channel: 1 Note off, E5 key=76 velocity: 0
@38700 $161.25 Channel: 1 Note on, E5 key=76 velocity: 100
@38700 $161.25 Channel: 1 Note on, G5 key=79 velocity: 100
@38730 $161.375 Channel: 1 Note off, G5 key=79 velocity: 0
@38730 $161.375 Channel: 1 Note off, E5 key=76 velocity: 0
@38760 $161.5 Channel: 1 Note on, A5 key=81 velocity: 100
@38790 $161.625 Channel: 1 Note off, A5 key=81 velocity: 0
@38790 $161.625 Channel: 1 Note on, G5 key=79 velocity: 100
@38820 $161.75 Channel: 1 Note off, G5 key=79 velocity: 0
@38820 $161.75 Channel: 1 Note on, F5 key=77 velocity: 100
@38850 $161.875 Channel: 1 Note off, F5 key=77 velocity: 0
@38850 $161.875 Channel: 1 Note on, E5 key=76 velocity: 100
@38880 $162.0 Channel: 1 Note off, E5 key=76 velocity: 0
@38880 $162.0 Channel: 1 Note on, B4 key=71 velocity: 100
@38880 $162.0 Channel: 1 Note on, D5 key=74 velocity: 100
@38940 $162.25 Channel: 1 Note off, B4 key=71 velocity: 0
@38940 $162.25 Channel: 1 Note on, G4 key=67 velocity: 100
@39000 $162.5 Channel: 1 Note off, G4 key=67 velocity: 0
@39000 $162.5 Channel: 1 Note off, D5 key=74 velocity: 0
@39000 $162.5 Channel: 1 Note on, E5 key=76 velocity: 100
@39000 $162.5 Channel: 1 Note on, C5 key=72 velocity: 100
@39030 $162.625 Channel: 1 Note off, C5 key=72 velocity: 0
@39030 $162.625 Channel: 1 Note off, E5 key=76 velocity: 0
@39060 $162.75 Channel: 1 Note on, D5 key=74 velocity: 100
@39060 $162.75 Channel: 1 Note on, F5 key=77 velocity: 100
@39090 $162.875 Channel: 1 Note off, F5 key=77 velocity: 0
@39090 $162.875 Channel: 1 Note off, D5 key=74 velocity: 0
@39120 $163.0 Channel: 1 Note on, E5 key=76 velocity: 100
@39120 $163.0 Channel: 1 Note on, G5 key=79 velocity: 100
@39150 $163.125 Channel: 1 Note off, G5 key=79 velocity: 0
@39150 $163.125 Channel: 1 Note off, E5 key=76 velocity: 0
@39180 $163.25 Channel: 1 Note on, E5 key=76 velocity: 100
@39180 $163.25 Channel: 1 Note on, G5 key=79 velocity: 100
@39210 $163.375 Channel: 1 Note off, G5 key=79 velocity: 0
@39210 $163.375 Channel: 1 Note off, E5 key=76 velocity: 0
@39240 $163.5 Channel: 1 Note on, A5 key=81 velocity: 100
@39270 $163.625 Channel: 1 Note off, A5 key=81 velocity: 0
@39270 $163.625 Channel: 1 Note on, G5 key=79 velocity: 100
@39300 $163.75 Channel: 1 Note off, G5 key=79 velocity: 0
@39300 $163.75 Channel: 1 Note on, F5 key=77 velocity: 100
@39330 $163.875 Channel: 1 Note off, F5 key=77 velocity: 0
@39330 $163.875 Channel: 1 Note on, E5 key=76 velocity: 100
@39360 $164.0 Channel: 1 Note off, E5 key=76 velocity: 0
@39360 $164.0 Channel: 1 Note on, B4 key=71 velocity: 100
@39360 $164.0 Channel: 1 Note on, D5 key=74 velocity: 100
@39420 $164.25 Channel: 1 Note off, D5 key=74 velocity: 0
@39420 $164.25 Channel: 1 Note off, B4 key=71 velocity: 0
@39480 $164.5 Channel: 1 Note on, A4 key=69 velocity: 100
@39480 $164.5 Channel: 1 Note on, C5 key=72 velocity: 100
@39510 $164.625 Channel: 1 Note off, C5 key=72 velocity: 0
@39510 $164.625 Channel: 1 Note off, A4 key=69 velocity: 0
@39540 $164.75 Channel: 1 Note on, B4 key=71 velocity: 100
@39540 $164.75 Channel: 1 Note on, D5 key=74 velocity: 100
@39570 $164.875 Channel: 1 Note off, D5 key=74 velocity: 0
@39570 $164.875 Channel: 1 Note off, B4 key=71 velocity: 0
@39600 $165.0 Channel: 1 Note on, C5 key=72 velocity: 100
@39600 $165.0 Channel: 1 Note on, E5 key=76 velocity: 100
@39630 $165.125 Channel: 1 Note off, E5 key=76 velocity: 0
@39630 $165.125 Channel: 1 Note off, C5 key=72 velocity: 0
@39660 $165.25 Channel: 1 Note on, C5 key=72 velocity: 100
@39660 $165.25 Channel: 1 Note on, E5 key=76 velocity: 100
@39690 $165.375 Channel: 1 Note off, E5 key=76 velocity: 0
@39690 $165.375 Channel: 1 Note off, C5 key=72 velocity: 0
@39720 $165.5 Channel: 1 Note on, F5 key=77 velocity: 100
@39750 $165.625 Channel: 1 Note off, F5 key=77 velocity: 0
@39750 $165.625 Channel: 1 Note on, E5 key=76 velocity: 100
@39780 $165.75 Channel: 1 Note off, E5 key=76 velocity: 0
@39780 $165.75 Channel: 1 Note on, D5 key=74 velocity: 100
@39810 $165.875 Channel: 1 Note off, D5 key=74 velocity: 0
@39810 $165.875 Channel: 1 Note on, C5 key=72 velocity: 100
@39840 $166.0 Channel: 1 Note off, C5 key=72 velocity: 0
@39840 $166.0 Channel: 1 Note on, G#4 key=68 velocity: 100
@39840 $166.0 Channel: 1 Note on, B4 key=71 velocity: 100
@39900 $166.25 Channel: 1 Note off, G#4 key=68 velocity: 0
@39900 $166.25 Channel: 1 Note on, E4 key=64 velocity: 100
@39960 $166.5 Channel: 1 Note off, E4 key=64 velocity: 0
@39960 $166.5 Channel: 1 Note off, B4 key=71 velocity: 0
@39960 $166.5 Channel: 1 Note on, C5 key=72 velocity: 100
@39960 $166.5 Channel: 1 Note on, A4 key=69 velocity: 100
@39990 $166.625 Channel: 1 Note off, A4 key=69 velocity: 0
@39990 $166.625 Channel: 1 Note off, C5 key=72 velocity: 0
@40020 $166.75 Channel: 1 Note on, B4 key=71 velocity: 100
@40020 $166.75 Channel: 1 Note on, D5 key=74 velocity: 100
@40050 $166.875 Channel: 1 Note off, D5 key=74 velocity: 0
@40050 $166.875 Channel: 1 Note off, B4 key=71 velocity: 0
@40080 $167.0 Channel: 1 Note on, C5 key=72 velocity: 100
@40080 $167.0 Channel: 1 Note on, E5 key=76 velocity: 100
@40110 $167.125 Channel: 1 Note off, E5 key=76 velocity: 0
@40110 $167.125 Channel: 1 Note off, C5 key=72 velocity: 0
@40140 $167.25 Channel: 1 Note on, C5 key=72 velocity: 100
@40140 $167.25 Channel: 1 Note on, E5 key=76 velocity: 100
@40170 $167.375 Channel: 1 Note off, E5 key=76 velocity: 0
@40170 $167.375 Channel: 1 Note off, C5 key=72 velocity: 0
@40200 $167.5 Channel: 1 Note on, F5 key=77 velocity: 100
@40230 $167.625 Channel: 1 Note off, F5 key=77 velocity: 0
@40230 $167.625 Channel: 1 Note on, E5 key=76 velocity: 100
@40260 $167.75 Channel: 1 Note off, E5 key=76 velocity: 0
@40260 $167.75 Channel: 1 Note on, D5 key=74 velocity: 100
@40290 $167.875 Channel: 1 Note off, D5 key=74 velocity: 0
@40290 $167.875 Channel: 1 Note on, C5 key=72 velocity: 100
@40320 $168.0 Channel: 1 Note off, C5 key=72 velocity: 0
@40320 $168.0 Channel: 1 Note on, G#4 key=68 velocity: 100
@40320 $168.0 Channel: 1 Note on, B4 key=71 velocity: 100
@40440 $168.5 Channel: 1 Note off, B4 key=71 velocity: 0
@40440 $168.5 Channel: 1 Note off, G#4 key=68 velocity: 0
@40440 $168.5 Channel: 1 Note on, B4 key=71 velocity: 100
@40470 $168.625 Channel: 1 Note off, B4 key=71 velocity: 0
@40470 $168.625 Channel: 1 Note on, A4 key=69 velocity: 100
@40500 $168.75 Channel: 1 Note off, A4 key=69 velocity: 0
@40500 $168.75 Channel: 1 Note on, G#4 key=68 velocity: 100
@40530 $168.875 Channel: 1 Note off, G#4 key=68 velocity: 0
@40530 $168.875 Channel: 1 Note on, A4 key=69 velocity: 100
@40560 $169.0 Channel: 1 Note off, A4 key=69 velocity: 0
@40560 $169.0 Channel: 1 Note on, C5 key=72 velocity: 100
@40615 $169.22916666666666 Channel: 1 Note off, C5 key=72 velocity: 0
@40680 $169.5 Channel: 1 Note on, D5 key=74 velocity: 100
@40710 $169.625 Channel: 1 Note off, D5 key=74 velocity: 0
@40710 $169.625 Channel: 1 Note on, C5 key=72 velocity: 100
@40740 $169.75 Channel: 1 Note off, C5 key=72 velocity: 0
@40740 $169.75 Channel: 1 Note on, B4 key=71 velocity: 100
@40770 $169.875 Channel: 1 Note off, B4 key=71 velocity: 0
@40770 $169.875 Channel: 1 Note on, C5 key=72 velocity: 100
@40800 $170.0 Channel: 1 Note off, C5 key=72 velocity: 0
@40800 $170.0 Channel: 1 Note on, E5 key=76 velocity: 100
@40855 $170.22916666666666 Channel: 1 Note off, E5 key=76 velocity: 0
@40920 $170.5 Channel: 1 Note on, F5 key=77 velocity: 100
@40950 $170.625 Channel: 1 Note off, F5 key=77 velocity: 0
@40950 $170.625 Channel: 1 Note on, E5 key=76 velocity: 100
@40980 $170.75 Channel: 1 Note off, E5 key=76 velocity: 0
@40980 $170.75 Channel: 1 Note on, D#5 key=75 velocity: 100
@41010 $170.875 Channel: 1 Note off, D#5 key=75 velocity: 0
@41010 $170.875 Channel: 1 Note on, E5 key=76 velocity: 100
@41040 $171.0 Channel: 1 Note off, E5 key=76 velocity: 0
@41040 $171.0 Channel: 1 Note on, B5 key=83 velocity: 100
@41070 $171.125 Channel: 1 Note off, B5 key=83 velocity: 0
@41070 $171.125 Channel: 1 Note on, A5 key=81 velocity: 100
@41100 $171.25 Channel: 1 Note off, A5 key=81 velocity: 0
@41100 $171.25 Channel: 1 Note on, G#5 key=80 velocity: 100
@41130 $171.375 Channel: 1 Note off, G#5 key=80 velocity: 0
@41130 $171.375 Channel: 1 Note on, A5 key=81 velocity: 100
@41160 $171.5 Channel: 1 Note off, A5 key=81 velocity: 0
@41160 $171.5 Channel: 1 Note on, B5 key=83 velocity: 100
@41190 $171.625 Channel: 1 Note off, B5 key=83 velocity: 0
@41190 $171.625 Channel: 1 Note on, A5 key=81 velocity: 100
@41220 $171.75 Channel: 1 Note off, A5 key=81 velocity: 0
@41220 $171.75 Channel: 1 Note on, G#5 key=80 velocity: 100
@41250 $171.875 Channel: 1 Note off, G#5 key=80 velocity: 0
@41250 $171.875 Channel: 1 Note on, A5 key=81 velocity: 100
@41280 $172.0 Channel: 1 Note off, A5 key=81 velocity: 0
@41280 $172.0 Channel: 1 Note on, C6 key=84 velocity: 100
@41400 $172.5 Channel: 1 Note off, C6 key=84 velocity: 0
@41400 $172.5 Channel: 1 Note on, A5 key=81 velocity: 100
@41430 $172.625 Channel: 1 Note off, A5 key=81 velocity: 0
@41460 $172.75 Channel: 1 Note on, B5 key=83 velocity: 100
@41490 $172.875 Channel: 1 Note off, B5 key=83 velocity: 0
@41520 $173.0 Channel: 1 Note on, C6 key=84 velocity: 100
@41550 $173.125 Channel: 1 Note off, C6 key=84 velocity: 0
@41580 $173.25 Channel: 1 Note on, B5 key=83 velocity: 100
@41610 $173.375 Channel: 1 Note off, B5 key=83 velocity: 0
@41640 $173.5 Channel: 1 Note on, A5 key=81 velocity: 100
@41670 $173.625 Channel: 1 Note off, A5 key=81 velocity: 0
@41700 $173.75 Channel: 1 Note on, G#5 key=80 velocity: 100
@41730 $173.875 Channel: 1 Note off, G#5 key=80 velocity: 0
@41760 $174.0 Channel: 1 Note on, A5 key=81 velocity: 100
@41790 $174.125 Channel: 1 Note off, A5 key=81 velocity: 0
@41820 $174.25 Channel: 1 Note on, E5 key=76 velocity: 100
@41850 $174.375 Channel: 1 Note off, E5 key=76 velocity: 0
@41880 $174.5 Channel: 1 Note on, F5 key=77 velocity: 100
@41910 $174.625 Channel: 1 Note off, F5 key=77 velocity: 0
@41940 $174.75 Channel: 1 Note on, D5 key=74 velocity: 100
@41970 $174.875 Channel: 1 Note off, D5 key=74 velocity: 0
@42000 $175.0 Channel: 1 Note on, C5 key=72 velocity: 100
@42120 $175.5 Channel: 1 Note off, C5 key=72 velocity: 0
@42120 $175.5 Channel: 1 Note on, C5 key=72 velocity: 102
@42135 $175.5625 Channel: 1 Note off, C5 key=72 velocity: 0
@42135 $175.5625 Channel: 1 Note on, B4 key=71 velocity: 101
@42150 $175.625 Channel: 1 Note off, B4 key=71 velocity: 0
@42150 $175.625 Channel: 1 Note on, C5 key=72 velocity: 99
@42165 $175.6875 Channel: 1 Note off, C5 key=72 velocity: 0
@42165 $175.6875 Channel: 1 Note on, B4 key=71 velocity: 98
@42180 $175.75 Channel: 1 Note off, B4 key=71 velocity: 0
@42180 $175.75 Channel: 1 Note on, C5 key=72 velocity: 96
@42195 $175.8125 Channel: 1 Note off, C5 key=72 velocity: 0
@42195 $175.8125 Channel: 1 Note on, B4 key=71 velocity: 94
@42210 $175.875 Channel: 1 Note off, B4 key=71 velocity: 0
@42210 $175.875 Channel: 1 Note on, A4 key=69 velocity: 100
@42225 $175.9375 Channel: 1 Note off, A4 key=69 velocity: 0
@42225 $175.9375 Channel: 1 Note on, B4 key=71 velocity: 100
@42240 $176.0 Channel: 1 Note off, B4 key=71 velocity: 0
@42240 $176.0 Channel: 1 Note on, A4 key=69 velocity: 100
@42360 $176.5 Channel: 1 Note off, A4 key=69 velocity: 0
@42360 $176.5 Channel: 1 Note on, A5 key=81 velocity: 100
@42360 $176.5 Channel: 1 Note on, A4 key=69 velocity: 100
@42390 $176.625 Channel: 1 Note off, A4 key=69 velocity: 0
@42390 $176.625 Channel: 1 Note off, A5 key=81 velocity: 0
@42390 $176.625 Channel: 1 Note on, A6 key=93 velocity: 100
@42390 $176.625 Channel: 1 Note on, A5 key=81 velocity: 100
@42420 $176.75 Channel: 1 Note off, A5 key=81 velocity: 0
@42420 $176.75 Channel: 1 Note off, A6 key=93 velocity: 0
@42420 $176.75 Channel: 1 Note on, B5 key=83 velocity: 100
@42420 $176.75 Channel: 1 Note on, B4 key=71 velocity: 100
@42450 $176.875 Channel: 1 Note off, B4 key=71 velocity: 0
@42450 $176.875 Channel: 1 Note off, B5 key=83 velocity: 0
@42450 $176.875 Channel: 1 Note on, B6 key=95 velocity: 100
@42450 $176.875 Channel: 1 Note on, B5 key=83 velocity: 100
@42480 $177.0 Channel: 1 Note off, B5 key=83 velocity: 0
@42480 $177.0 Channel: 1 Note off, B6 key=95 velocity: 0
@42480 $177.0 Channel: 1 Note on, C#6 key=85 velocity: 100
@42480 $177.0 Channel: 1 Note on, C#5 key=73 velocity: 100
@42510 $177.125 Channel: 1 Note off, C#5 key=73 velocity: 0
@42510 $177.125 Channel: 1 Note off, C#6 key=85 velocity: 0
@42510 $177.125 Channel: 1 Note on, C#7 key=97 velocity: 100
@42510 $177.125 Channel: 1 Note on, C#6 key=85 velocity: 100
@42540 $177.25 Channel: 1 Note off, C#6 key=85 velocity: 0
@42540 $177.25 Channel: 1 Note off, C#7 key=97 velocity: 0
@42600 $177.5 Channel: 1 Note on, A5 key=81 velocity: 100
@42600 $177.5 Channel: 1 Note on, A4 key=69 velocity: 100
@42630 $177.625 Channel: 1 Note off, A4 key=69 velocity: 0
@42630 $177.625 Channel: 1 Note off, A5 key=81 velocity: 0
@42630 $177.625 Channel: 1 Note on, A5 key=81 velocity: 100
@42630 $177.625 Channel: 1 Note on, A6 key=93 velocity: 100
@42660 $177.75 Channel: 1 Note off, A6 key=93 velocity: 0
@42660 $177.75 Channel: 1 Note off, A5 key=81 velocity: 0
@42660 $177.75 Channel: 1 Note on, B5 key=83 velocity: 100
@42660 $177.75 Channel: 1 Note on, B4 key=71 velocity: 100
@42690 $177.875 Channel: 1 Note off, B4 key=71 velocity: 0
@42690 $177.875 Channel: 1 Note off, B5 key=83 velocity: 0
@42690 $177.875 Channel: 1 Note on, B6 key=95 velocity: 100
@42690 $177.875 Channel: 1 Note on, B5 key=83 velocity: 100
@42720 $178.0 Channel: 1 Note off, B5 key=83 velocity: 0
@42720 $178.0 Channel: 1 Note off, B6 key=95 velocity: 0
@42720 $178.0 Channel: 1 Note on, C#5 key=73 velocity: 100
@42720 $178.0 Channel: 1 Note on, C#6 key=85 velocity: 100
@42750 $178.125 Channel: 1 Note off, C#6 key=85 velocity: 0
@42750 $178.125 Channel: 1 Note off, C#5 key=73 velocity: 0
@42750 $178.125 Channel: 1 Note on, C#7 key=97 velocity: 100
@42750 $178.125 Channel: 1 Note on, C#6 key=85 velocity: 100
@42780 $178.25 Channel: 1 Note off, C#6 key=85 velocity: 0
@42780 $178.25 Channel: 1 Note off, C#7 key=97 velocity: 0
@42780 $178.25 Channel: 1 Note on, B5 key=83 velocity: 100
@42780 $178.25 Channel: 1 Note on, B4 key=71 velocity: 100
@42810 $178.375 Channel: 1 Note off, B4 key=71 velocity: 0
@42810 $178.375 Channel: 1 Note off, B5 key=83 velocity: 0
@42810 $178.375 Channel: 1 Note on, B6 key=95 velocity: 100
@42810 $178.375 Channel: 1 Note on, B5 key=83 velocity: 100
@42840 $178.5 Channel: 1 Note off, B5 key=83 velocity: 0
@42840 $178.5 Channel: 1 Note off, B6 key=95 velocity: 0
@42840 $178.5 Channel: 1 Note on, A5 key=81 velocity: 100
@42840 $178.5 Channel: 1 Note on, A4 key=69 velocity: 100
@42870 $178.625 Channel: 1 Note off, A4 key=69 velocity: 0
@42870 $178.625 Channel: 1 Note off, A5 key=81 velocity: 0
@42870 $178.625 Channel: 1 Note on, A6 key=93 velocity: 100
@42870 $178.625 Channel: 1 Note on, A5 key=81 velocity: 100
@42900 $178.75 Channel: 1 Note off, A5 key=81 velocity: 0
@42900 $178.75 Channel: 1 Note off, A6 key=93 velocity: 0
@42900 $178.75 Channel: 1 Note on, G#5 key=80 velocity: 100
@42900 $178.75 Channel: 1 Note on, G#4 key=68 velocity: 100
@42930 $178.875 Channel: 1 Note off, G#4 key=68 velocity: 0
@42930 $178.875 Channel: 1 Note off, G#5 key=80 velocity: 0
@42930 $178.875 Channel: 1 Note on, G#6 key=92 velocity: 100
@42930 $178.875 Channel: 1 Note on, G#5 key=80 velocity: 100
@42960 $179.0 Channel: 1 Note off, G#5 key=80 velocity: 0
@42960 $179.0 Channel: 1 Note off, G#6 key=92 velocity: 0
@42960 $179.0 Channel: 1 Note on, F#5 key=78 velocity: 100
@42960 $179.0 Channel: 1 Note on, F#4 key=66 velocity: 100
@42990 $179.125 Channel: 1 Note off, F#4 key=66 velocity: 0
@42990 $179.125 Channel: 1 Note off, F#5 key=78 velocity: 0
@42990 $179.125 Channel: 1 Note on, F#6 key=90 velocity: 100
@42990 $179.125 Channel: 1 Note on, F#5 key=78 velocity: 100
@43020 $179.25 Channel: 1 Note off, F#5 key=78 velocity: 0
@43020 $179.25 Channel: 1 Note off, F#6 key=90 velocity: 0
@43020 $179.25 Channel: 1 Note on, G#4 key=68 velocity: 100
@43020 $179.25 Channel: 1 Note on, G#5 key=80 velocity: 100
@43050 $179.375 Channel: 1 Note off, G#5 key=80 velocity: 0
@43050 $179.375 Channel: 1 Note off, G#4 key=68 velocity: 0
@43050 $179.375 Channel: 1 Note on, G#6 key=92 velocity: 100
@43050 $179.375 Channel: 1 Note on, G#5 key=80 velocity: 100
@43080 $179.5 Channel: 1 Note off, G#5 key=80 velocity: 0
@43080 $179.5 Channel: 1 Note off, G#6 key=92 velocity: 0
@43080 $179.5 Channel: 1 Note on, A5 key=81 velocity: 100
@43080 $179.5 Channel: 1 Note on, A4 key=69 velocity: 100
@43110 $179.625 Channel: 1 Note off, A4 key=69 velocity: 0
@43110 $179.625 Channel: 1 Note off, A5 key=81 velocity: 0
@43110 $179.625 Channel: 1 Note on, A6 key=93 velocity: 100
@43110 $179.625 Channel: 1 Note on, A5 key=81 velocity: 100
@43140 $179.75 Channel: 1 Note off, A5 key=81 velocity: 0
@43140 $179.75 Channel: 1 Note off, A6 key=93 velocity: 0
@43140 $179.75 Channel: 1 Note on, B5 key=83 velocity: 100
@43140 $179.75 Channel: 1 Note on, B4 key=71 velocity: 100
@43170 $179.875 Channel: 1 Note off, B4 key=71 velocity: 0
@43170 $179.875 Channel: 1 Note off, B5 key=83 velocity: 0
@43170 $179.875 Channel: 1 Note on, B6 key=95 velocity: 100
@43170 $179.875 Channel: 1 Note on, B5 key=83 velocity: 100
@43200 $180.0 Channel: 1 Note off, B5 key=83 velocity: 0
@43200 $180.0 Channel: 1 Note off, B6 key=95 velocity: 0
@43200 $180.0 Channel: 1 Note on, G#5 key=80 velocity: 100
@43200 $180.0 Channel: 1 Note on, G#4 key=68 velocity: 100
@43230 $180.125 Channel: 1 Note off, G#4 key=68 velocity: 0
@43230 $180.125 Channel: 1 Note off, G#5 key=80 velocity: 0
@43230 $180.125 Channel: 1 Note on, G#6 key=92 velocity: 100
@43230 $180.125 Channel: 1 Note on, G#5 key=80 velocity: 100
@43260 $180.25 Channel: 1 Note off, G#5 key=80 velocity: 0
@43260 $180.25 Channel: 1 Note off, G#6 key=92 velocity: 0
@43260 $180.25 Channel: 1 Note on, E5 key=76 velocity: 100
@43260 $180.25 Channel: 1 Note on, E4 key=64 velocity: 100
@43290 $180.375 Channel: 1 Note off, E4 key=64 velocity: 0
@43290 $180.375 Channel: 1 Note off, E5 key=76 velocity: 0
@43290 $180.375 Channel: 1 Note on, E6 key=88 velocity: 100
@43290 $180.375 Channel: 1 Note on, E5 key=76 velocity: 100
@43320 $180.5 Channel: 1 Note off, E5 key=76 velocity: 0
@43320 $180.5 Channel: 1 Note off, E6 key=88 velocity: 0
@43320 $180.5 Channel: 1 Note on, A5 key=81 velocity: 100
@43320 $180.5 Channel: 1 Note on, A4 key=69 velocity: 100
@43350 $180.625 Channel: 1 Note off, A4 key=69 velocity: 0
@43350 $180.625 Channel: 1 Note off, A5 key=81 velocity: 0
@43350 $180.625 Channel: 1 Note on, A6 key=93 velocity: 100
@43350 $180.625 Channel: 1 Note on, A5 key=81 velocity: 100
@43380 $180.75 Channel: 1 Note off, A5 key=81 velocity: 0
@43380 $180.75 Channel: 1 Note off, A6 key=93 velocity: 0
@43380 $180.75 Channel: 1 Note on, B5 key=83 velocity: 100
@43380 $180.75 Channel: 1 Note on, B4 key=71 velocity: 100
@43410 $180.875 Channel: 1 Note off, B4 key=71 velocity: 0
@43410 $180.875 Channel: 1 Note off, B5 key=83 velocity: 0
@43410 $180.875 Channel: 1 Note on, B6 key=95 velocity: 100
@43410 $180.875 Channel: 1 Note on, B5 key=83 velocity: 100
@43440 $181.0 Channel: 1 Note off, B5 key=83 velocity: 0
@43440 $181.0 Channel: 1 Note off, B6 key=95 velocity: 0
@43440 $181.0 Channel: 1 Note on, C#6 key=85 velocity: 100
@43440 $181.0 Channel: 1 Note on, C#5 key=73 velocity: 100
@43470 $181.125 Channel: 1 Note off, C#5 key=73 velocity: 0
@43470 $181.125 Channel: 1 Note off, C#6 key=85 velocity: 0
@43470 $181.125 Channel: 1 Note on, C#7 key=97 velocity: 100
@43470 $181.125 Channel: 1 Note on, C#6 key=85 velocity: 100
@43500 $181.25 Channel: 1 Note off, C#6 key=85 velocity: 0
@43500 $181.25 Channel: 1 Note off, C#7 key=97 velocity: 0
@43560 $181.5 Channel: 1 Note on, A5 key=81 velocity: 100
@43560 $181.5 Channel: 1 Note on, A4 key=69 velocity: 100
@43590 $181.625 Channel: 1 Note off, A4 key=69 velocity: 0
@43590 $181.625 Channel: 1 Note off, A5 key=81 velocity: 0
@43590 $181.625 Channel: 1 Note on, A6 key=93 velocity: 100
@43590 $181.625 Channel: 1 Note on, A5 key=81 velocity: 100
@43620 $181.75 Channel: 1 Note off, A5 key=81 velocity: 0
@43620 $181.75 Channel: 1 Note off, A6 key=93 velocity: 0
@43620 $181.75 Channel: 1 Note on, B5 key=83 velocity: 100
@43620 $181.75 Channel: 1 Note on, B4 key=71 velocity: 100
@43650 $181.875 Channel: 1 Note off, B4 key=71 velocity: 0
@43650 $181.875 Channel: 1 Note off, B5 key=83 velocity: 0
@43650 $181.875 Channel: 1 Note on, B6 key=95 velocity: 100
@43650 $181.875 Channel: 1 Note on, B5 key=83 velocity: 100
@43680 $182.0 Channel: 1 Note off, B5 key=83 velocity: 0
@43680 $182.0 Channel: 1 Note off, B6 key=95 velocity: 0
@43680 $182.0 Channel: 1 Note on, C#6 key=85 velocity: 100
@43680 $182.0 Channel: 1 Note on, C#5 key=73 velocity: 100
@43710 $182.125 Channel: 1 Note off, C#5 key=73 velocity: 0
@43710 $182.125 Channel: 1 Note off, C#6 key=85 velocity: 0
@43710 $182.125 Channel: 1 Note on, C#7 key=97 velocity: 100
@43710 $182.125 Channel: 1 Note on, C#6 key=85 velocity: 100
@43740 $182.25 Channel: 1 Note off, C#6 key=85 velocity: 0
@43740 $182.25 Channel: 1 Note off, C#7 key=97 velocity: 0
@43740 $182.25 Channel: 1 Note on, B5 key=83 velocity: 100
@43740 $182.25 Channel: 1 Note on, B4 key=71 velocity: 100
@43770 $182.375 Channel: 1 Note off, B4 key=71 velocity: 0
@43770 $182.375 Channel: 1 Note off, B5 key=83 velocity: 0
@43770 $182.375 Channel: 1 Note on, B6 key=95 velocity: 100
@43770 $182.375 Channel: 1 Note on, B5 key=83 velocity: 100
@43800 $182.5 Channel: 1 Note off, B5 key=83 velocity: 0
@43800 $182.5 Channel: 1 Note off, B6 key=95 velocity: 0
@43800 $182.5 Channel: 1 Note on, A5 key=81 velocity: 100
@43800 $182.5 Channel: 1 Note on, A4 key=69 velocity: 100
@43830 $182.625 Channel: 1 Note off, A4 key=69 velocity: 0
@43830 $182.625 Channel: 1 Note off, A5 key=81 velocity: 0
@43830 $182.625 Channel: 1 Note on, A6 key=93 velocity: 100
@43830 $182.625 Channel: 1 Note on, A5 key=81 velocity: 100
@43860 $182.75 Channel: 1 Note off, A5 key=81 velocity: 0
@43860 $182.75 Channel: 1 Note off, A6 key=93 velocity: 0
@43860 $182.75 Channel: 1 Note on, G#5 key=80 velocity: 100
@43860 $182.75 Channel: 1 Note on, G#4 key=68 velocity: 100
@43890 $182.875 Channel: 1 Note off, G#4 key=68 velocity: 0
@43890 $182.875 Channel: 1 Note off, G#5 key=80 velocity: 0
@43890 $182.875 Channel: 1 Note on, G#6 key=92 velocity: 100
@43890 $182.875 Channel: 1 Note on, G#5 key=80 velocity: 100
@43920 $183.0 Channel: 1 Note off, G#5 key=80 velocity: 0
@43920 $183.0 Channel: 1 Note off, G#6 key=92 velocity: 0
@43920 $183.0 Channel: 1 Note on, F#5 key=78 velocity: 100
@43920 $183.0 Channel: 1 Note on, F#4 key=66 velocity: 100
@43950 $183.125 Channel: 1 Note off, F#4 key=66 velocity: 0
@43950 $183.125 Channel: 1 Note off, F#5 key=78 velocity: 0
@43950 $183.125 Channel: 1 Note on, F#6 key=90 velocity: 100
@43950 $183.125 Channel: 1 Note on, F#5 key=78 velocity: 100
@43980 $183.25 Channel: 1 Note off, F#5 key=78 velocity: 0
@43980 $183.25 Channel: 1 Note off, F#6 key=90 velocity: 0
@43980 $183.25 Channel: 1 Note on, B5 key=83 velocity: 100
@43980 $183.25 Channel: 1 Note on, B4 key=71 velocity: 100
@44010 $183.375 Channel: 1 Note off, B4 key=71 velocity: 0
@44010 $183.375 Channel: 1 Note off, B5 key=83 velocity: 0
@44010 $183.375 Channel: 1 Note on, B6 key=95 velocity: 100
@44010 $183.375 Channel: 1 Note on, B5 key=83 velocity: 100
@44040 $183.5 Channel: 1 Note off, B5 key=83 velocity: 0
@44040 $183.5 Channel: 1 Note off, B6 key=95 velocity: 0
@44040 $183.5 Channel: 1 Note on, G#5 key=80 velocity: 100
@44040 $183.5 Channel: 1 Note on, G#4 key=68 velocity: 100
@44070 $183.625 Channel: 1 Note off, G#4 key=68 velocity: 0
@44070 $183.625 Channel: 1 Note off, G#5 key=80 velocity: 0
@44070 $183.625 Channel: 1 Note on, G#6 key=92 velocity: 100
@44070 $183.625 Channel: 1 Note on, G#5 key=80 velocity: 100
@44100 $183.75 Channel: 1 Note off, G#5 key=80 velocity: 0
@44100 $183.75 Channel: 1 Note off, G#6 key=92 velocity: 0
@44100 $183.75 Channel: 1 Note on, E5 key=76 velocity: 100
@44100 $183.75 Channel: 1 Note on, E4 key=64 velocity: 100
@44130 $183.875 Channel: 1 Note off, E4 key=64 velocity: 0
@44130 $183.875 Channel: 1 Note off, E5 key=76 velocity: 0
@44130 $183.875 Channel: 1 Note on, E6 key=88 velocity: 100
@44130 $183.875 Channel: 1 Note on, E5 key=76 velocity: 100
@44160 $184.0 Channel: 1 Note off, E5 key=76 velocity: 0
@44160 $184.0 Channel: 1 Note off, E6 key=88 velocity: 0
@44160 $184.0 Channel: 1 Note on, A6 key=93 velocity: 100
@44160 $184.0 Channel: 1 Note on, A4 key=69 velocity: 100
@44160 $184.0 Channel: 1 Note on, A5 key=81 velocity: 100
@44280 $184.5 Channel: 1 Note off, A5 key=81 velocity: 0
@44280 $184.5 Channel: 1 Note off, A4 key=69 velocity: 0
@44280 $184.5 Channel: 1 Note off, A6 key=93 velocity: 0
@44280 $184.5 Channel: 1 Note on, A5 key=81 velocity: 100
@44280 $184.5 Channel: 1 Note on, A4 key=69 velocity: 100
@44310 $184.625 Channel: 1 Note off, A4 key=69 velocity: 0
@44310 $184.625 Channel: 1 Note off, A5 key=81 velocity: 0
@44310 $184.625 Channel: 1 Note on, A6 key=93 velocity: 100
@44310 $184.625 Channel: 1 Note on, A5 key=81 velocity: 100
@44340 $184.75 Channel: 1 Note off, A5 key=81 velocity: 0
@44340 $184.75 Channel: 1 Note off, A6 key=93 velocity: 0
@44340 $184.75 Channel: 1 Note on, B5 key=83 velocity: 100
@44340 $184.75 Channel: 1 Note on, B4 key=71 velocity: 100
@44370 $184.875 Channel: 1 Note off, B4 key=71 velocity: 0
@44370 $184.875 Channel: 1 Note off, B5 key=83 velocity: 0
@44370 $184.875 Channel: 1 Note on, B6 key=95 velocity: 100
@44370 $184.875 Channel: 1 Note on, B5 key=83 velocity: 100
@44400 $185.0 Channel: 1 Note off, B5 key=83 velocity: 0
@44400 $185.0 Channel: 1 Note off, B6 key=95 velocity: 0
@44400 $185.0 Channel: 1 Note on, C#6 key=85 velocity: 100
@44400 $185.0 Channel: 1 Note on, C#5 key=73 velocity: 100
@44430 $185.125 Channel: 1 Note off, C#5 key=73 velocity: 0
@44430 $185.125 Channel: 1 Note off, C#6 key=85 velocity: 0
@44430 $185.125 Channel: 1 Note on, C#7 key=97 velocity: 100
@44430 $185.125 Channel: 1 Note on, C#6 key=85 velocity: 100
@44460 $185.25 Channel: 1 Note off, C#6 key=85 velocity: 0
@44460 $185.25 Channel: 1 Note off, C#7 key=97 velocity: 0
@44520 $185.5 Channel: 1 Note on, A5 key=81 velocity: 100
@44520 $185.5 Channel: 1 Note on, A4 key=69 velocity: 100
@44550 $185.625 Channel: 1 Note off, A4 key=69 velocity: 0
@44550 $185.625 Channel: 1 Note off, A5 key=81 velocity: 0
@44550 $185.625 Channel: 1 Note on, A5 key=81 velocity: 100
@44550 $185.625 Channel: 1 Note on, A6 key=93 velocity: 100
@44580 $185.75 Channel: 1 Note off, A6 key=93 velocity: 0
@44580 $185.75 Channel: 1 Note off, A5 key=81 velocity: 0
@44580 $185.75 Channel: 1 Note on, B5 key=83 velocity: 100
@44580 $185.75 Channel: 1 Note on, B4 key=71 velocity: 100
@44610 $185.875 Channel: 1 Note off, B4 key=71 velocity: 0
@44610 $185.875 Channel: 1 Note off, B5 key=83 velocity: 0
@44610 $185.875 Channel: 1 Note on, B6 key=95 velocity: 100
@44610 $185.875 Channel: 1 Note on, B5 key=83 velocity: 100
@44640 $186.0 Channel: 1 Note off, B5 key=83 velocity: 0
@44640 $186.0 Channel: 1 Note off, B6 key=95 velocity: 0
@44640 $186.0 Channel: 1 Note on, C#5 key=73 velocity: 100
@44640 $186.0 Channel: 1 Note on, C#6 key=85 velocity: 100
@44670 $186.125 Channel: 1 Note off, C#6 key=85 velocity: 0
@44670 $186.125 Channel: 1 Note off, C#5 key=73 velocity: 0
@44670 $186.125 Channel: 1 Note on, C#7 key=97 velocity: 100
@44670 $186.125 Channel: 1 Note on, C#6 key=85 velocity: 100
@44700 $186.25 Channel: 1 Note off, C#6 key=85 velocity: 0
@44700 $186.25 Channel: 1 Note off, C#7 key=97 velocity: 0
@44700 $186.25 Channel: 1 Note on, B5 key=83 velocity: 100
@44700 $186.25 Channel: 1 Note on, B4 key=71 velocity: 100
@44730 $186.375 Channel: 1 Note off, B4 key=71 velocity: 0
@44730 $186.375 Channel: 1 Note off, B5 key=83 velocity: 0
@44730 $186.375 Channel: 1 Note on, B6 key=95 velocity: 100
@44730 $186.375 Channel: 1 Note on, B5 key=83 velocity: 100
@44760 $186.5 Channel: 1 Note off, B5 key=83 velocity: 0
@44760 $186.5 Channel: 1 Note off, B6 key=95 velocity: 0
@44760 $186.5 Channel: 1 Note on, A5 key=81 velocity: 100
@44760 $186.5 Channel: 1 Note on, A4 key=69 velocity: 100
@44790 $186.625 Channel: 1 Note off, A4 key=69 velocity: 0
@44790 $186.625 Channel: 1 Note off, A5 key=81 velocity: 0
@44790 $186.625 Channel: 1 Note on, A6 key=93 velocity: 100
@44790 $186.625 Channel: 1 Note on, A5 key=81 velocity: 100
@44820 $186.75 Channel: 1 Note off, A5 key=81 velocity: 0
@44820 $186.75 Channel: 1 Note off, A6 key=93 velocity: 0
@44820 $186.75 Channel: 1 Note on, G#5 key=80 velocity: 100
@44820 $186.75 Channel: 1 Note on, G#4 key=68 velocity: 100
@44850 $186.875 Channel: 1 Note off, G#4 key=68 velocity: 0
@44850 $186.875 Channel: 1 Note off, G#5 key=80 velocity: 0
@44850 $186.875 Channel: 1 Note on, G#6 key=92 velocity: 100
@44850 $186.875 Channel: 1 Note on, G#5 key=80 velocity: 100
@44880 $187.0 Channel: 1 Note off, G#5 key=80 velocity: 0
@44880 $187.0 Channel: 1 Note off, G#6 key=92 velocity: 0
@44880 $187.0 Channel: 1 Note on, F#5 key=78 velocity: 100
@44880 $187.0 Channel: 1 Note on, F#4 key=66 velocity: 100
@44910 $187.125 Channel: 1 Note off, F#4 key=66 velocity: 0
@44910 $187.125 Channel: 1 Note off, F#5 key=78 velocity: 0
@44910 $187.125 Channel: 1 Note on, F#6 key=90 velocity: 100
@44910 $187.125 Channel: 1 Note on, F#5 key=78 velocity: 100
@44940 $187.25 Channel: 1 Note off, F#5 key=78 velocity: 0
@44940 $187.25 Channel: 1 Note off, F#6 key=90 velocity: 0
@44940 $187.25 Channel: 1 Note on, G#4 key=68 velocity: 100
@44940 $187.25 Channel: 1 Note on, G#5 key=80 velocity: 100
@44970 $187.375 Channel: 1 Note off, G#5 key=80 velocity: 0
@44970 $187.375 Channel: 1 Note off, G#4 key=68 velocity: 0
@44970 $187.375 Channel: 1 Note on, G#6 key=92 velocity: 100
@44970 $187.375 Channel: 1 Note on, G#5 key=80 velocity: 100
@45000 $187.5 Channel: 1 Note off, G#5 key=80 velocity: 0
@45000 $187.5 Channel: 1 Note off, G#6 key=92 velocity: 0
@45000 $187.5 Channel: 1 Note on, A5 key=81 velocity: 100
@45000 $187.5 Channel: 1 Note on, A4 key=69 velocity: 100
@45030 $187.625 Channel: 1 Note off, A4 key=69 velocity: 0
@45030 $187.625 Channel: 1 Note off, A5 key=81 velocity: 0
@45030 $187.625 Channel: 1 Note on, A6 key=93 velocity: 100
@45030 $187.625 Channel: 1 Note on, A5 key=81 velocity: 100
@45060 $187.75 Channel: 1 Note off, A5 key=81 velocity: 0
@45060 $187.75 Channel: 1 Note off, A6 key=93 velocity: 0
@45060 $187.75 Channel: 1 Note on, B5 key=83 velocity: 100
@45060 $187.75 Channel: 1 Note on, B4 key=71 velocity: 100
@45090 $187.875 Channel: 1 Note off, B4 key=71 velocity: 0
@45090 $187.875 Channel: 1 Note off, B5 key=83 velocity: 0
@45090 $187.875 Channel: 1 Note on, B6 key=95 velocity: 100
@45090 $187.875 Channel: 1 Note on, B5 key=83 velocity: 100
@45120 $188.0 Channel: 1 Note off, B5 key=83 velocity: 0
@45120 $188.0 Channel: 1 Note off, B6 key=95 velocity: 0
@45120 $188.0 Channel: 1 Note on, G#5 key=80 velocity: 100
@45120 $188.0 Channel: 1 Note on, G#4 key=68 velocity: 100
@45150 $188.125 Channel: 1 Note off, G#4 key=68 velocity: 0
@45150 $188.125 Channel: 1 Note off, G#5 key=80 velocity: 0
@45150 $188.125 Channel: 1 Note on, G#6 key=92 velocity: 100
@45150 $188.125 Channel: 1 Note on, G#5 key=80 velocity: 100
@45180 $188.25 Channel: 1 Note off, G#5 key=80 velocity: 0
@45180 $188.25 Channel: 1 Note off, G#6 key=92 velocity: 0
@45180 $188.25 Channel: 1 Note on, E5 key=76 velocity: 100
@45180 $188.25 Channel: 1 Note on, E4 key=64 velocity: 100
@45210 $188.375 Channel: 1 Note off, E4 key=64 velocity: 0
@45210 $188.375 Channel: 1 Note off, E5 key=76 velocity: 0
@45210 $188.375 Channel: 1 Note on, E6 key=88 velocity: 100
@45210 $188.375 Channel: 1 Note on, E5 key=76 velocity: 100
@45240 $188.5 Channel: 1 Note off, E5 key=76 velocity: 0
@45240 $188.5 Channel: 1 Note off, E6 key=88 velocity: 0
@45240 $188.5 Channel: 1 Note on, A5 key=81 velocity: 100
@45240 $188.5 Channel: 1 Note on, A4 key=69 velocity: 100
@45270 $188.625 Channel: 1 Note off, A4 key=69 velocity: 0
@45270 $188.625 Channel: 1 Note off, A5 key=81 velocity: 0
@45270 $188.625 Channel: 1 Note on, A6 key=93 velocity: 100
@45270 $188.625 Channel: 1 Note on, A5 key=81 velocity: 100
@45300 $188.75 Channel: 1 Note off, A5 key=81 velocity: 0
@45300 $188.75 Channel: 1 Note off, A6 key=93 velocity: 0
@45300 $188.75 Channel: 1 Note on, B5 key=83 velocity: 100
@45300 $188.75 Channel: 1 Note on, B4 key=71 velocity: 100
@45330 $188.875 Channel: 1 Note off, B4 key=71 velocity: 0
@45330 $188.875 Channel: 1 Note off, B5 key=83 velocity: 0
@45330 $188.875 Channel: 1 Note on, B6 key=95 velocity: 100
@45330 $188.875 Channel: 1 Note on, B5 key=83 velocity: 100
@45360 $189.0 Channel: 1 Note off, B5 key=83 velocity: 0
@45360 $189.0 Channel: 1 Note off, B6 key=95 velocity: 0
@45360 $189.0 Channel: 1 Note on, C#6 key=85 velocity: 100
@45360 $189.0 Channel: 1 Note on, C#5 key=73 velocity: 100
@45390 $189.125 Channel: 1 Note off, C#5 key=73 velocity: 0
@45390 $189.125 Channel: 1 Note off, C#6 key=85 velocity: 0
@45390 $189.125 Channel: 1 Note on, C#7 key=97 velocity: 100
@45390 $189.125 Channel: 1 Note on, C#6 key=85 velocity: 100
@45420 $189.25 Channel: 1 Note off, C#6 key=85 velocity: 0
@45420 $189.25 Channel: 1 Note off, C#7 key=97 velocity: 0
@45480 $189.5 Channel: 1 Note on, A5 key=81 velocity: 100
@45480 $189.5 Channel: 1 Note on, A4 key=69 velocity: 100
@45510 $189.625 Channel: 1 Note off, A4 key=69 velocity: 0
@45510 $189.625 Channel: 1 Note off, A5 key=81 velocity: 0
@45510 $189.625 Channel: 1 Note on, A6 key=93 velocity: 100
@45510 $189.625 Channel: 1 Note on, A5 key=81 velocity: 100
@45540 $189.75 Channel: 1 Note off, A5 key=81 velocity: 0
@45540 $189.75 Channel: 1 Note off, A6 key=93 velocity: 0
@45540 $189.75 Channel: 1 Note on, B5 key=83 velocity: 100
@45540 $189.75 Channel: 1 Note on, B4 key=71 velocity: 100
@45570 $189.875 Channel: 1 Note off, B4 key=71 velocity: 0
@45570 $189.875 Channel: 1 Note off, B5 key=83 velocity: 0
@45570 $189.875 Channel: 1 Note on, B6 key=95 velocity: 100
@45570 $189.875 Channel: 1 Note on, B5 key=83 velocity: 100
@45600 $190.0 Channel: 1 Note off, B5 key=83 velocity: 0
@45600 $190.0 Channel: 1 Note off, B6 key=95 velocity: 0
@45600 $190.0 Channel: 1 Note on, C#6 key=85 velocity: 100
@45600 $190.0 Channel: 1 Note on, C#5 key=73 velocity: 100
@45630 $190.125 Channel: 1 Note off, C#5 key=73 velocity: 0
@45630 $190.125 Channel: 1 Note off, C#6 key=85 velocity: 0
@45630 $190.125 Channel: 1 Note on, C#7 key=97 velocity: 100
@45630 $190.125 Channel: 1 Note on, C#6 key=85 velocity: 100
@45660 $190.25 Channel: 1 Note off, C#6 key=85 velocity: 0
@45660 $190.25 Channel: 1 Note off, C#7 key=97 velocity: 0
@45660 $190.25 Channel: 1 Note on, B5 key=83 velocity: 100
@45660 $190.25 Channel: 1 Note on, B4 key=71 velocity: 100
@45690 $190.375 Channel: 1 Note off, B4 key=71 velocity: 0
@45690 $190.375 Channel: 1 Note off, B5 key=83 velocity: 0
@45690 $190.375 Channel: 1 Note on, B6 key=95 velocity: 100
@45690 $190.375 Channel: 1 Note on, B5 key=83 velocity: 100
@45720 $190.5 Channel: 1 Note off, B5 key=83 velocity: 0
@45720 $190.5 Channel: 1 Note off, B6 key=95 velocity: 0
@45720 $190.5 Channel: 1 Note on, A5 key=81 velocity: 100
@45720 $190.5 Channel: 1 Note on, A4 key=69 velocity: 100
@45750 $190.625 Channel: 1 Note off, A4 key=69 velocity: 0
@45750 $190.625 Channel: 1 Note off, A5 key=81 velocity: 0
@45750 $190.625 Channel: 1 Note on, A6 key=93 velocity: 100
@45750 $190.625 Channel: 1 Note on, A5 key=81 velocity: 100
@45780 $190.75 Channel: 1 Note off, A5 key=81 velocity: 0
@45780 $190.75 Channel: 1 Note off, A6 key=93 velocity: 0
@45780 $190.75 Channel: 1 Note on, G#5 key=80 velocity: 100
@45780 $190.75 Channel: 1 Note on, G#4 key=68 velocity: 100
@45810 $190.875 Channel: 1 Note off, G#4 key=68 velocity: 0
@45810 $190.875 Channel: 1 Note off, G#5 key=80 velocity: 0
@45810 $190.875 Channel: 1 Note on, G#6 key=92 velocity: 100
@45810 $190.875 Channel: 1 Note on, G#5 key=80 velocity: 100
@45840 $191.0 Channel: 1 Note off, G#5 key=80 velocity: 0
@45840 $191.0 Channel: 1 Note off, G#6 key=92 velocity: 0
@45840 $191.0 Channel: 1 Note on, F#5 key=78 velocity: 100
@45840 $191.0 Channel: 1 Note on, F#4 key=66 velocity: 100
@45870 $191.125 Channel: 1 Note off, F#4 key=66 velocity: 0
@45870 $191.125 Channel: 1 Note off, F#5 key=78 velocity: 0
@45870 $191.125 Channel: 1 Note on, F#6 key=90 velocity: 100
@45870 $191.125 Channel: 1 Note on, F#5 key=78 velocity: 100
@45900 $191.25 Channel: 1 Note off, F#5 key=78 velocity: 0
@45900 $191.25 Channel: 1 Note off, F#6 key=90 velocity: 0
@45900 $191.25 Channel: 1 Note on, B5 key=83 velocity: 100
@45900 $191.25 Channel: 1 Note on, B4 key=71 velocity: 100
@45930 $191.375 Channel: 1 Note off, B4 key=71 velocity: 0
@45930 $191.375 Channel: 1 Note off, B5 key=83 velocity: 0
@45930 $191.375 Channel: 1 Note on, B6 key=95 velocity: 100
@45930 $191.375 Channel: 1 Note on, B5 key=83 velocity: 100
@45960 $191.5 Channel: 1 Note off, B5 key=83 velocity: 0
@45960 $191.5 Channel: 1 Note off, B6 key=95 velocity: 0
@45960 $191.5 Channel: 1 Note on, G#5 key=80 velocity: 100
@45960 $191.5 Channel: 1 Note on, G#4 key=68 velocity: 100
@45990 $191.625 Channel: 1 Note off, G#4 key=68 velocity: 0
@45990 $191.625 Channel: 1 Note off, G#5 key=80 velocity: 0
@45990 $191.625 Channel: 1 Note on, G#6 key=92 velocity: 100
@45990 $191.625 Channel: 1 Note on, G#5 key=80 velocity: 100
@46020 $191.75 Channel: 1 Note off, G#5 key=80 velocity: 0
@46020 $191.75 Channel: 1 Note off, G#6 key=92 velocity: 0
@46020 $191.75 Channel: 1 Note on, E5 key=76 velocity: 100
@46020 $191.75 Channel: 1 Note on, E4 key=64 velocity: 100
@46050 $191.875 Channel: 1 Note off, E4 key=64 velocity: 0
@46050 $191.875 Channel: 1 Note off, E5 key=76 velocity: 0
@46050 $191.875 Channel: 1 Note on, E6 key=88 velocity: 100
@46050 $191.875 Channel: 1 Note on, E5 key=76 velocity: 100
@46080 $192.0 Channel: 1 Note off, E5 key=76 velocity: 0
@46080 $192.0 Channel: 1 Note off, E6 key=88 velocity: 0
@46080 $192.0 Channel: 1 Note on, A6 key=93 velocity: 100
@46080 $192.0 Channel: 1 Note on, A4 key=69 velocity: 100
@46080 $192.0 Channel: 1 Note on, A5 key=81 velocity: 100
@46140 $192.25 Channel: 1 Note off, A5 key=81 velocity: 0
@46140 $192.25 Channel: 1 Note on, C#5 key=73 velocity: 127
@46140 $192.25 Channel: 1 Note on, A5 key=81 velocity: 127
@46170 $192.375 Channel: 1 Note off, C#5 key=73 velocity: 0
@46200 $192.5 Channel: 1 Note off, A6 key=93 velocity: 0
@46200 $192.5 Channel: 1 Note off, A4 key=69 velocity: 0
@46200 $192.5 Channel: 1 Note off, A5 key=81 velocity: 0
@46200 $192.5 Channel: 1 Note on, C#5 key=73 velocity: 127
@46200 $192.5 Channel: 1 Note on, A5 key=81 velocity: 127
@46230 $192.625 Channel: 1 Note off, A5 key=81 velocity: 0
@46230 $192.625 Channel: 1 Note off, C#5 key=73 velocity: 0
@46260 $192.75 Channel: 1 Note on, C#5 key=73 velocity: 127
@46260 $192.75 Channel: 1 Note on, A5 key=81 velocity: 127
@46290 $192.875 Channel: 1 Note off, A5 key=81 velocity: 0
@46290 $192.875 Channel: 1 Note off, C#5 key=73 velocity: 0
@46320 $193.0 Channel: 1 Note on, C#4 key=61 velocity: 127
@46323 $193.0125 Channel: 1 Note on, A4 key=69 velocity: 127
@46323 $193.0125 Channel: 1 Note on, E4 key=64 velocity: 127
@46380 $193.25 Channel: 1 Note on, A5 key=81 velocity: 127
@46380 $193.25 Channel: 1 Note on, A4 key=69 velocity: 127
@46410 $193.375 Channel: 1 Note off, A5 key=81 velocity: 0
@46410 $193.375 Channel: 1 Note off, A4 key=69 velocity: 0
@46440 $193.5 Channel: 1 Note off, C#4 key=61 velocity: 0
@46440 $193.5 Channel: 1 Note on, A5 key=81 velocity: 127
@46440 $193.5 Channel: 1 Note on, A4 key=69 velocity: 127
@46443 $193.5125 Channel: 1 Note off, E4 key=64 velocity: 0
@46443 $193.5125 Channel: 1 Note off, A4 key=69 velocity: 0
@46470 $193.625 Channel: 1 Note off, A5 key=81 velocity: 0
@46470 $193.625 Channel: 1 Note off, A4 key=69 velocity: 0
@46500 $193.75 Channel: 1 Note on, A5 key=81 velocity: 127
@46500 $193.75 Channel: 1 Note on, A4 key=69 velocity: 127
@46530 $193.875 Channel: 1 Note off, A4 key=69 velocity: 0
@46530 $193.875 Channel: 1 Note off, A5 key=81 velocity: 0
@46560 $194.0 Channel: 1 Note on, C#4 key=61 velocity: 127
@46563 $194.0125 Channel: 1 Note on, E4 key=64 velocity: 127
@46566 $194.025 Channel: 1 Note on, A4 key=69 velocity: 127
@46680 $194.5 Channel: 1 Note off, C#4 key=61 velocity: 0
@46683 $194.5125 Channel: 1 Note off, E4 key=64 velocity: 0
@46686 $194.525 Channel: 1 Note off, A4 key=69 velocity: 0
@46800 $195.0 Channel: 1 Note on, D5 key=74 velocity: 100
@46800 $195.0 Channel: 1 Note on, D4 key=62 velocity: 100
@46830 $195.125 Channel: 1 Note off, D4 key=62 velocity: 0
@46830 $195.125 Channel: 1 Note off, D5 key=74 velocity: 0
@46830 $195.125 Channel: 1 Note on, C#4 key=61 velocity: 100
@46830 $195.125 Channel: 1 Note on, C#5 key=73 velocity: 100
@46860 $195.25 Channel: 1 Note off, C#5 key=73 velocity: 0
@46860 $195.25 Channel: 1 Note off, C#4 key=61 velocity: 0
@46860 $195.25 Channel: 1 Note on, B3 key=59 velocity: 100
@46860 $195.25 Channel: 1 Note on, B4 key=71 velocity: 100
@46890 $195.375 Channel: 1 Note off, B4 key=71 velocity: 0
@46890 $195.375 Channel: 1 Note off, B3 key=59 velocity: 0
@46890 $195.375 Channel: 1 Note on, C#4 key=61 velocity: 100
@46890 $195.375 Channel: 1 Note on, C#5 key=73 velocity: 100
@46920 $195.5 Channel: 1 Note off, C#5 key=73 velocity: 0
@46920 $195.5 Channel: 1 Note off, C#4 key=61 velocity: 0
@46920 $195.5 Channel: 1 Note on, D4 key=62 velocity: 100
@46920 $195.5 Channel: 1 Note on, D5 key=74 velocity: 100
@46950 $195.625 Channel: 1 Note off, D5 key=74 velocity: 0
@46950 $195.625 Channel: 1 Note off, D4 key=62 velocity: 0
@46950 $195.625 Channel: 1 Note on, C#4 key=61 velocity: 100
@46950 $195.625 Channel: 1 Note on, C#5 key=73 velocity: 100
@46980 $195.75 Channel: 1 Note off, C#5 key=73 velocity: 0
@46980 $195.75 Channel: 1 Note off, C#4 key=61 velocity: 0
@46980 $195.75 Channel: 1 Note on, B3 key=59 velocity: 100
@46980 $195.75 Channel: 1 Note on, B4 key=71 velocity: 100
@47010 $195.875 Channel: 1 Note off, B4 key=71 velocity: 0
@47010 $195.875 Channel: 1 Note off, B3 key=59 velocity: 0
@47010 $195.875 Channel: 1 Note on, C#4 key=61 velocity: 100
@47010 $195.875 Channel: 1 Note on, C#5 key=73 velocity: 100
@47040 $196.0 Channel: 1 Note off, C#5 key=73 velocity: 0
@47040 $196.0 Channel: 1 Note off, C#4 key=61 velocity: 0
@47040 $196.0 Channel: 1 Note on, A4 key=69 velocity: 127
@47040 $196.0 Channel: 1 Note on, D5 key=74 velocity: 127
@47100 $196.25 Channel: 1 Note off, D5 key=74 velocity: 0
@47100 $196.25 Channel: 1 Note off, A4 key=69 velocity: 0
@47100 $196.25 Channel: 1 Note on, A4 key=69 velocity: 127
@47100 $196.25 Channel: 1 Note on, D5 key=74 velocity: 127
@47160 $196.5 Channel: 1 Note off, D5 key=74 velocity: 0
@47160 $196.5 Channel: 1 Note off, A4 key=69 velocity: 0
@47160 $196.5 Channel: 1 Note on, A4 key=69 velocity: 127
@47160 $196.5 Channel: 1 Note on, D5 key=74 velocity: 127
@47220 $196.75 Channel: 1 Note off, D5 key=74 velocity: 0
@47220 $196.75 Channel: 1 Note off, A4 key=69 velocity: 0
@47220 $196.75 Channel: 1 Note on, A4 key=69 velocity: 127
@47220 $196.75 Channel: 1 Note on, D5 key=74 velocity: 127
@47280 $197.0 Channel: 1 Note off, D5 key=74 velocity: 0
@47280 $197.0 Channel: 1 Note off, A4 key=69 velocity: 0
@47280 $197.0 Channel: 1 Note on, A4 key=69 velocity: 75
@47310 $197.125 Channel: 1 Note off, A4 key=69 velocity: 0
@47340 $197.25 Channel: 1 Note on, A4 key=69 velocity: 75
@47370 $197.375 Channel: 1 Note off, A4 key=69 velocity: 0
@47400 $197.5 Channel: 1 Note on, A4 key=69 velocity: 75
@47430 $197.625 Channel: 1 Note off, A4 key=69 velocity: 0
@47460 $197.75 Channel: 1 Note on, A4 key=69 velocity: 75
@47490 $197.875 Channel: 1 Note off, A4 key=69 velocity: 0
@47520 $198.0 Channel: 1 Note on, B4 key=71 velocity: 75
@47550 $198.125 Channel: 1 Note off, B4 key=71 velocity: 0
@47580 $198.25 Channel: 1 Note on, B4 key=71 velocity: 75
@47610 $198.375 Channel: 1 Note off, B4 key=71 velocity: 0
@47640 $198.5 Channel: 1 Note on, B4 key=71 velocity: 75
@47670 $198.625 Channel: 1 Note off, B4 key=71 velocity: 0
@47700 $198.75 Channel: 1 Note on, B4 key=71 velocity: 75
@47730 $198.875 Channel: 1 Note off, B4 key=71 velocity: 0
@47760 $199.0 Channel: 1 Note on, E4 key=64 velocity: 75
@47760 $199.0 Channel: 1 Note on, C#5 key=73 velocity: 75
@47790 $199.125 Channel: 1 Note off, C#5 key=73 velocity: 0
@47790 $199.125 Channel: 1 Note off, E4 key=64 velocity: 0
@47820 $199.25 Channel: 1 Note on, E4 key=64 velocity: 75
@47820 $199.25 Channel: 1 Note on, C#5 key=73 velocity: 75
@47850 $199.375 Channel: 1 Note off, C#5 key=73 velocity: 0
@47850 $199.375 Channel: 1 Note off, E4 key=64 velocity: 0
@47880 $199.5 Channel: 1 Note on, E4 key=64 velocity: 75
@47880 $199.5 Channel: 1 Note on, C#5 key=73 velocity: 75
@47910 $199.625 Channel: 1 Note off, C#5 key=73 velocity: 0
@47910 $199.625 Channel: 1 Note off, E4 key=64 velocity: 0
@47940 $199.75 Channel: 1 Note on, E4 key=64 velocity: 75
@47940 $199.75 Channel: 1 Note on, C#5 key=73 velocity: 75
@47970 $199.875 Channel: 1 Note off, C#5 key=73 velocity: 0
@47970 $199.875 Channel: 1 Note off, E4 key=64 velocity: 0
@48000 $200.0 Channel: 1 Note on, A4 key=69 velocity: 75
@48030 $200.125 Channel: 1 Note off, A4 key=69 velocity: 0
@48060 $200.25 Channel: 1 Note on, A4 key=69 velocity: 75
@48090 $200.375 Channel: 1 Note off, A4 key=69 velocity: 0
@48120 $200.5 Channel: 1 Note on, A4 key=69 velocity: 75
@48150 $200.625 Channel: 1 Note off, A4 key=69 velocity: 0
@48180 $200.75 Channel: 1 Note on, A4 key=69 velocity: 75
@48210 $200.875 Channel: 1 Note off, A4 key=69 velocity: 0
@48240 $201.0 Channel: 1 Note on, D4 key=62 velocity: 127
@48270 $201.125 Channel: 1 Note off, D4 key=62 velocity: 0
@48270 $201.125 Channel: 1 Note on, C#4 key=61 velocity: 127
@48300 $201.25 Channel: 1 Note off, C#4 key=61 velocity: 0
@48300 $201.25 Channel: 1 Note on, B3 key=59 velocity: 127
@48330 $201.375 Channel: 1 Note off, B3 key=59 velocity: 0
@48330 $201.375 Channel: 1 Note on, C#4 key=61 velocity: 127
@48360 $201.5 Channel: 1 Note off, C#4 key=61 velocity: 0
@48360 $201.5 Channel: 1 Note on, D4 key=62 velocity: 127
@48390 $201.625 Channel: 1 Note off, D4 key=62 velocity: 0
@48390 $201.625 Channel: 1 Note on, C#4 key=61 velocity: 127
@48420 $201.75 Channel: 1 Note off, C#4 key=61 velocity: 0
@48420 $201.75 Channel: 1 Note on, B3 key=59 velocity: 127
@48450 $201.875 Channel: 1 Note off, B3 key=59 velocity: 0
@48450 $201.875 Channel: 1 Note on, C#4 key=61 velocity: 127
@48480 $202.0 Channel: 1 Note off, C#4 key=61 velocity: 0
@48480 $202.0 Channel: 1 Note on, D4 key=62 velocity: 127
@48510 $202.125 Channel: 1 Note off, D4 key=62 velocity: 0
@48540 $202.25 Channel: 1 Note on, D4 key=62 velocity: 127
@48570 $202.375 Channel: 1 Note off, D4 key=62 velocity: 0
@48600 $202.5 Channel: 1 Note on, D4 key=62 velocity: 127
@48630 $202.625 Channel: 1 Note off, D4 key=62 velocity: 0
@48660 $202.75 Channel: 1 Note on, D4 key=62 velocity: 127
@48690 $202.875 Channel: 1 Note off, D4 key=62 velocity: 0
@48720 $203.0 Channel: 1 Note on, C#4 key=61 velocity: 127
@48750 $203.125 Channel: 1 Note off, C#4 key=61 velocity: 0
@48780 $203.25 Channel: 1 Note on, C#4 key=61 velocity: 127
@48810 $203.375 Channel: 1 Note off, C#4 key=61 velocity: 0
@48840 $203.5 Channel: 1 Note on, C#4 key=61 velocity: 127
@48870 $203.625 Channel: 1 Note off, C#4 key=61 velocity: 0
@48900 $203.75 Channel: 1 Note on, C#4 key=61 velocity: 127
@48930 $203.875 Channel: 1 Note off, C#4 key=61 velocity: 0
@48960 $204.0 Channel: 1 Note on, B4 key=71 velocity: 127
@49005 $204.1875 Channel: 1 Note off, B4 key=71 velocity: 0
@49020 $204.25 Channel: 1 Note on, B4 key=71 velocity: 127
@49065 $204.4375 Channel: 1 Note off, B4 key=71 velocity: 0
@49080 $204.5 Channel: 1 Note on, B4 key=71 velocity: 127
@49125 $204.6875 Channel: 1 Note off, B4 key=71 velocity: 0
@49140 $204.75 Channel: 1 Note on, B4 key=71 velocity: 127
@49185 $204.9375 Channel: 1 Note off, B4 key=71 velocity: 0
@49200 $205.0 Channel: 1 Note on, A4 key=69 velocity: 127
@49245 $205.1875 Channel: 1 Note off, A4 key=69 velocity: 0
@49260 $205.25 Channel: 1 Note on, A4 key=69 velocity: 127
@49305 $205.4375 Channel: 1 Note off, A4 key=69 velocity: 0
@49320 $205.5 Channel: 1 Note on, A4 key=69 velocity: 127
@49365 $205.6875 Channel: 1 Note off, A4 key=69 velocity: 0
@49380 $205.75 Channel: 1 Note on, A4 key=69 velocity: 127
@49425 $205.9375 Channel: 1 Note off, A4 key=69 velocity: 0
@49440 $206.0 Channel: 1 Note on, C#5 key=73 velocity: 127
@49485 $206.1875 Channel: 1 Note off, C#5 key=73 velocity: 0
@49500 $206.25 Channel: 1 Note on, C#5 key=73 velocity: 127
@49545 $206.4375 Channel: 1 Note off, C#5 key=73 velocity: 0
@49560 $206.5 Channel: 1 Note on, C#5 key=73 velocity: 127
@49605 $206.6875 Channel: 1 Note off, C#5 key=73 velocity: 0
@49620 $206.75 Channel: 1 Note on, C#5 key=73 velocity: 127
@49665 $206.9375 Channel: 1 Note off, C#5 key=73 velocity: 0
@49680 $207.0 Channel: 1 Note on, C#5 key=73 velocity: 127
@49725 $207.1875 Channel: 1 Note off, C#5 key=73 velocity: 0
@49740 $207.25 Channel: 1 Note on, C#5 key=73 velocity: 127
@49785 $207.4375 Channel: 1 Note off, C#5 key=73 velocity: 0
@49800 $207.5 Channel: 1 Note on, C#5 key=73 velocity: 127
@49845 $207.6875 Channel: 1 Note off, C#5 key=73 velocity: 0
@49860 $207.75 Channel: 1 Note on, C#5 key=73 velocity: 127
@49905 $207.9375 Channel: 1 Note off, C#5 key=73 velocity: 0
@49920 $208.0 Channel: 1 Note on, D4 key=62 velocity: 127
@49950 $208.125 Channel: 1 Note off, D4 key=62 velocity: 0
@49950 $208.125 Channel: 1 Note on, C#4 key=61 velocity: 127
@49980 $208.25 Channel: 1 Note off, C#4 key=61 velocity: 0
@49980 $208.25 Channel: 1 Note on, B3 key=59 velocity: 127
@50010 $208.375 Channel: 1 Note off, B3 key=59 velocity: 0
@50010 $208.375 Channel: 1 Note on, C#4 key=61 velocity: 127
@50040 $208.5 Channel: 1 Note off, C#4 key=61 velocity: 0
@50040 $208.5 Channel: 1 Note on, D4 key=62 velocity: 127
@50070 $208.625 Channel: 1 Note off, D4 key=62 velocity: 0
@50070 $208.625 Channel: 1 Note on, C#4 key=61 velocity: 127
@50100 $208.75 Channel: 1 Note off, C#4 key=61 velocity: 0
@50100 $208.75 Channel: 1 Note on, B3 key=59 velocity: 127
@50130 $208.875 Channel: 1 Note off, B3 key=59 velocity: 0
@50130 $208.875 Channel: 1 Note on, C#4 key=61 velocity: 127
@50160 $209.0 Channel: 1 Note off, C#4 key=61 velocity: 0
@50160 $209.0 Channel: 1 Note on, D5 key=74 velocity: 127
@50160 $209.0 Channel: 1 Note on, D4 key=62 velocity: 127
@50190 $209.125 Channel: 1 Note off, D4 key=62 velocity: 0
@50190 $209.125 Channel: 1 Note off, D5 key=74 velocity: 0
@50220 $209.25 Channel: 1 Note on, D5 key=74 velocity: 127
@50220 $209.25 Channel: 1 Note on, D4 key=62 velocity: 127
@50250 $209.375 Channel: 1 Note off, D4 key=62 velocity: 0
@50250 $209.375 Channel: 1 Note off, D5 key=74 velocity: 0
@50280 $209.5 Channel: 1 Note on, D4 key=62 velocity: 127
@50280 $209.5 Channel: 1 Note on, D5 key=74 velocity: 127
@50310 $209.625 Channel: 1 Note off, D5 key=74 velocity: 0
@50310 $209.625 Channel: 1 Note off, D4 key=62 velocity: 0
@50340 $209.75 Channel: 1 Note on, D4 key=62 velocity: 127
@50340 $209.75 Channel: 1 Note on, D5 key=74 velocity: 127
@50370 $209.875 Channel: 1 Note off, D5 key=74 velocity: 0
@50370 $209.875 Channel: 1 Note off, D4 key=62 velocity: 0
@50400 $210.0 Channel: 1 Note on, C#5 key=73 velocity: 127
@50430 $210.125 Channel: 1 Note off, C#5 key=73 velocity: 0
@50460 $210.25 Channel: 1 Note on, C#5 key=73 velocity: 127
@50490 $210.375 Channel: 1 Note off, C#5 key=73 velocity: 0
@50520 $210.5 Channel: 1 Note on, C#5 key=73 velocity: 127
@50550 $210.625 Channel: 1 Note off, C#5 key=73 velocity: 0
@50580 $210.75 Channel: 1 Note on, C#5 key=73 velocity: 127
@50610 $210.875 Channel: 1 Note off, C#5 key=73 velocity: 0
@50640 $211.0 Channel: 1 Note on, B3 key=59 velocity: 127
@50640 $211.0 Channel: 1 Note on, B4 key=71 velocity: 127
@50670 $211.125 Channel: 1 Note off, B4 key=71 velocity: 0
@50670 $211.125 Channel: 1 Note off, B3 key=59 velocity: 0
@50700 $211.25 Channel: 1 Note on, B3 key=59 velocity: 127
@50700 $211.25 Channel: 1 Note on, B4 key=71 velocity: 127
@50730 $211.375 Channel: 1 Note off, B4 key=71 velocity: 0
@50730 $211.375 Channel: 1 Note off, B3 key=59 velocity: 0
@50760 $211.5 Channel: 1 Note on, B3 key=59 velocity: 127
@50760 $211.5 Channel: 1 Note on, B4 key=71 velocity: 127
@50790 $211.625 Channel: 1 Note off, B4 key=71 velocity: 0
@50790 $211.625 Channel: 1 Note off, B3 key=59 velocity: 0
@50820 $211.75 Channel: 1 Note on, B3 key=59 velocity: 127
@50820 $211.75 Channel: 1 Note on, B4 key=71 velocity: 127
@50850 $211.875 Channel: 1 Note off, B4 key=71 velocity: 0
@50850 $211.875 Channel: 1 Note off, B3 key=59 velocity: 0
@50880 $212.0 Channel: 1 Note on, G#4 key=68 velocity: 127
@50880 $212.0 Channel: 1 Note on, C#4 key=61 velocity: 127
@50880 $212.0 Channel: 1 Note on, C#5 key=73 velocity: 127
@50910 $212.125 Channel: 1 Note off, C#5 key=73 velocity: 0
@50910 $212.125 Channel: 1 Note off, C#4 key=61 velocity: 0
@50910 $212.125 Channel: 1 Note off, G#4 key=68 velocity: 0
@50940 $212.25 Channel: 1 Note on, G#4 key=68 velocity: 127
@50940 $212.25 Channel: 1 Note on, C#4 key=61 velocity: 127
@50940 $212.25 Channel: 1 Note on, C#5 key=73 velocity: 127
@50970 $212.375 Channel: 1 Note off, C#5 key=73 velocity: 0
@50970 $212.375 Channel: 1 Note off, C#4 key=61 velocity: 0
@50970 $212.375 Channel: 1 Note off, G#4 key=68 velocity: 0
@51000 $212.5 Channel: 1 Note on, G#4 key=68 velocity: 127
@51000 $212.5 Channel: 1 Note on, C#4 key=61 velocity: 127
@51000 $212.5 Channel: 1 Note on, C#5 key=73 velocity: 127
@51030 $212.625 Channel: 1 Note off, C#5 key=73 velocity: 0
@51030 $212.625 Channel: 1 Note off, C#4 key=61 velocity: 0
@51030 $212.625 Channel: 1 Note off, G#4 key=68 velocity: 0
@51060 $212.75 Channel: 1 Note on, G#4 key=68 velocity: 127
@51060 $212.75 Channel: 1 Note on, C#4 key=61 velocity: 127
@51060 $212.75 Channel: 1 Note on, C#5 key=73 velocity: 127
@51090 $212.875 Channel: 1 Note off, C#5 key=73 velocity: 0
@51090 $212.875 Channel: 1 Note off, C#4 key=61 velocity: 0
@51090 $212.875 Channel: 1 Note off, G#4 key=68 velocity: 0
@51120 $213.0 Channel: 1 Note on, C#4 key=61 velocity: 127
@51120 $213.0 Channel: 1 Note on, C#5 key=73 velocity: 127
@51150 $213.125 Channel: 1 Note off, C#5 key=73 velocity: 0
@51150 $213.125 Channel: 1 Note off, C#4 key=61 velocity: 0
@51180 $213.25 Channel: 1 Note on, C#4 key=61 velocity: 127
@51180 $213.25 Channel: 1 Note on, C#5 key=73 velocity: 127
@51210 $213.375 Channel: 1 Note off, C#5 key=73 velocity: 0
@51210 $213.375 Channel: 1 Note off, C#4 key=61 velocity: 0
@51240 $213.5 Channel: 1 Note on, C#4 key=61 velocity: 127
@51240 $213.5 Channel: 1 Note on, C#5 key=73 velocity: 127
@51270 $213.625 Channel: 1 Note off, C#5 key=73 velocity: 0
@51270 $213.625 Channel: 1 Note off, C#4 key=61 velocity: 0
@51300 $213.75 Channel: 1 Note on, C#4 key=61 velocity: 127
@51300 $213.75 Channel: 1 Note on, C#5 key=73 velocity: 127
@51330 $213.875 Channel: 1 Note off, C#5 key=73 velocity: 0
@51330 $213.875 Channel: 1 Note off, C#4 key=61 velocity: 0
@51360 $214.0 Channel: 1 Note on, D5 key=74 velocity: 127
@51390 $214.125 Channel: 1 Note off, D5 key=74 velocity: 0
@51390 $214.125 Channel: 1 Note on, C#5 key=73 velocity: 127
@51420 $214.25 Channel: 1 Note off, C#5 key=73 velocity: 0
@51420 $214.25 Channel: 1 Note on, B4 key=71 velocity: 127
@51450 $214.375 Channel: 1 Note off, B4 key=71 velocity: 0
@51450 $214.375 Channel: 1 Note on, C#5 key=73 velocity: 127
@51480 $214.5 Channel: 1 Note off, C#5 key=73 velocity: 0
@51480 $214.5 Channel: 1 Note on, D5 key=74 velocity: 127
@51510 $214.625 Channel: 1 Note off, D5 key=74 velocity: 0
@51510 $214.625 Channel: 1 Note on, C#5 key=73 velocity: 127
@51540 $214.75 Channel: 1 Note off, C#5 key=73 velocity: 0
@51540 $214.75 Channel: 1 Note on, B4 key=71 velocity: 127
@51570 $214.875 Channel: 1 Note off, B4 key=71 velocity: 0
@51570 $214.875 Channel: 1 Note on, C#5 key=73 velocity: 127
@51600 $215.0 Channel: 1 Note off, C#5 key=73 velocity: 0
@51600 $215.0 Channel: 1 Note on, D5 key=74 velocity: 127
@51630 $215.125 Channel: 1 Note off, D5 key=74 velocity: 0
@51660 $215.25 Channel: 1 Note on, D5 key=74 velocity: 127
@51690 $215.375 Channel: 1 Note off, D5 key=74 velocity: 0
@51720 $215.5 Channel: 1 Note on, D5 key=74 velocity: 127
@51750 $215.625 Channel: 1 Note off, D5 key=74 velocity: 0
@51780 $215.75 Channel: 1 Note on, D5 key=74 velocity: 127
@51810 $215.875 Channel: 1 Note off, D5 key=74 velocity: 0
@51840 $216.0 Channel: 1 Note on, C#5 key=73 velocity: 127
@51870 $216.125 Channel: 1 Note off, C#5 key=73 velocity: 0
@51900 $216.25 Channel: 1 Note on, C#5 key=73 velocity: 127
@51930 $216.375 Channel: 1 Note off, C#5 key=73 velocity: 0
@51960 $216.5 Channel: 1 Note on, C#5 key=73 velocity: 127
@51990 $216.625 Channel: 1 Note off, C#5 key=73 velocity: 0
@52020 $216.75 Channel: 1 Note on, C#5 key=73 velocity: 127
@52050 $216.875 Channel: 1 Note off, C#5 key=73 velocity: 0
@52080 $217.0 Channel: 1 Note on, B3 key=59 velocity: 127
@52080 $217.0 Channel: 1 Note on, B4 key=71 velocity: 127
@52110 $217.125 Channel: 1 Note off, B4 key=71 velocity: 0
@52110 $217.125 Channel: 1 Note off, B3 key=59 velocity: 0
@52140 $217.25 Channel: 1 Note on, B3 key=59 velocity: 127
@52140 $217.25 Channel: 1 Note on, B4 key=71 velocity: 127
@52170 $217.375 Channel: 1 Note off, B4 key=71 velocity: 0
@52170 $217.375 Channel: 1 Note off, B3 key=59 velocity: 0
@52200 $217.5 Channel: 1 Note on, B3 key=59 velocity: 127
@52200 $217.5 Channel: 1 Note on, B4 key=71 velocity: 127
@52230 $217.625 Channel: 1 Note off, B4 key=71 velocity: 0
@52230 $217.625 Channel: 1 Note off, B3 key=59 velocity: 0
@52260 $217.75 Channel: 1 Note on, B3 key=59 velocity: 127
@52260 $217.75 Channel: 1 Note on, B4 key=71 velocity: 127
@52290 $217.875 Channel: 1 Note off, B4 key=71 velocity: 0
@52290 $217.875 Channel: 1 Note off, B3 key=59 velocity: 0
@52320 $218.0 Channel: 1 Note on, A4 key=69 velocity: 127
@52350 $218.125 Channel: 1 Note off, A4 key=69 velocity: 0
@52380 $218.25 Channel: 1 Note on, A4 key=69 velocity: 127
@52410 $218.375 Channel: 1 Note off, A4 key=69 velocity: 0
@52440 $218.5 Channel: 1 Note on, A4 key=69 velocity: 127
@52470 $218.625 Channel: 1 Note off, A4 key=69 velocity: 0
@52500 $218.75 Channel: 1 Note on, C#5 key=73 velocity: 127
@52530 $218.875 Channel: 1 Note off, C#5 key=73 velocity: 0
@52560 $219.0 Channel: 1 Note on, A4 key=69 velocity: 127
@52590 $219.125 Channel: 1 Note off, A4 key=69 velocity: 0
@52620 $219.25 Channel: 1 Note on, A4 key=69 velocity: 127
@52650 $219.375 Channel: 1 Note off, A4 key=69 velocity: 0
@52680 $219.5 Channel: 1 Note on, A4 key=69 velocity: 127
@52710 $219.625 Channel: 1 Note off, A4 key=69 velocity: 0
@52740 $219.75 Channel: 1 Note on, E5 key=76 velocity: 127
@52770 $219.875 Channel: 1 Note off, E5 key=76 velocity: 0
@52800 $220.0 Channel: 1 Note on, A4 key=69 velocity: 127
@52830 $220.125 Channel: 1 Note off, A4 key=69 velocity: 0
@52860 $220.25 Channel: 1 Note on, A4 key=69 velocity: 127
@52890 $220.375 Channel: 1 Note off, A4 key=69 velocity: 0
@52920 $220.5 Channel: 1 Note on, A4 key=69 velocity: 127
@52950 $220.625 Channel: 1 Note off, A4 key=69 velocity: 0
@52980 $220.75 Channel: 1 Note on, E5 key=76 velocity: 127
@53010 $220.875 Channel: 1 Note off, E5 key=76 velocity: 0
@53040 $221.0 Channel: 1 Note on, A3 key=57 velocity: 127
@53040 $221.0 Channel: 1 Note on, A4 key=69 velocity: 127
@53070 $221.125 Channel: 1 Note off, A4 key=69 velocity: 0
@53070 $221.125 Channel: 1 Note off, A3 key=57 velocity: 0
@53100 $221.25 Channel: 1 Note on, C#4 key=61 velocity: 127
@53100 $221.25 Channel: 1 Note on, C#5 key=73 velocity: 127
@53130 $221.375 Channel: 1 Note off, C#5 key=73 velocity: 0
@53130 $221.375 Channel: 1 Note off, C#4 key=61 velocity: 0
@53160 $221.5 Channel: 1 Note on, A3 key=57 velocity: 127
@53160 $221.5 Channel: 1 Note on, A4 key=69 velocity: 127
@53190 $221.625 Channel: 1 Note off, A4 key=69 velocity: 0
@53190 $221.625 Channel: 1 Note off, A3 key=57 velocity: 0
@53220 $221.75 Channel: 1 Note on, E4 key=64 velocity: 127
@53220 $221.75 Channel: 1 Note on, E5 key=76 velocity: 127
@53250 $221.875 Channel: 1 Note off, E5 key=76 velocity: 0
@53250 $221.875 Channel: 1 Note off, E4 key=64 velocity: 0
@53280 $222.0 Channel: 1 Note on, A3 key=57 velocity: 127
@53280 $222.0 Channel: 1 Note on, A4 key=69 velocity: 127
@53340 $222.25 Channel: 1 Note off, A4 key=69 velocity: 0
@53340 $222.25 Channel: 1 Note off, A3 key=57 velocity: 0
@53400 $222.5 Channel: 1 Note on, A3 key=57 velocity: 127
@53400 $222.5 Channel: 1 Note on, A4 key=69 velocity: 127
@53640 $223.5 Channel: 1 Note off, A4 key=69 velocity: 0
@53640 $223.5 Channel: 1 Note off, A3 key=57 velocity: 0
@53760 $224.0 Channel: 1 Note on, A4 key=69 velocity: 127
@54240 $226.0 Channel: 1 Note off, A4 key=69 velocity: 0
@54240 $226.0 Other meta message: class javax.sound.midi.Track$ImmutableEndOfTrack

Track 4: size = 1610
@0 $0.0 Other meta message: class javax.sound.midi.MetaMessage
@0 $0.0 Other meta message: class javax.sound.midi.MetaMessage
@0 $0.0 Channel: 1 Other short message:192
@0 $0.0 Channel: 1 Control Change message
@0 $0.0 Channel: 1 Control Change message
@11780 $49.083333333333336 Channel: 1 Note on, A3 key=57 velocity: 100
@11810 $49.208333333333336 Channel: 1 Note off, A3 key=57 velocity: 0
@11820 $49.25 Channel: 1 Note on, A3 key=57 velocity: 100
@11850 $49.375 Channel: 1 Note off, A3 key=57 velocity: 0
@11880 $49.5 Channel: 1 Note on, A3 key=57 velocity: 100
@11910 $49.625 Channel: 1 Note off, A3 key=57 velocity: 0
@11940 $49.75 Channel: 1 Note on, A3 key=57 velocity: 100
@11970 $49.875 Channel: 1 Note off, A3 key=57 velocity: 0
@12020 $50.083333333333336 Channel: 1 Note on, A3 key=57 velocity: 100
@12050 $50.208333333333336 Channel: 1 Note off, A3 key=57 velocity: 0
@12060 $50.25 Channel: 1 Note on, A3 key=57 velocity: 100
@12090 $50.375 Channel: 1 Note off, A3 key=57 velocity: 0
@12120 $50.5 Channel: 1 Note on, A3 key=57 velocity: 100
@12150 $50.625 Channel: 1 Note off, A3 key=57 velocity: 0
@12180 $50.75 Channel: 1 Note on, A3 key=57 velocity: 100
@12210 $50.875 Channel: 1 Note off, A3 key=57 velocity: 0
@12260 $51.083333333333336 Channel: 1 Note on, D3 key=50 velocity: 100
@12290 $51.208333333333336 Channel: 1 Note off, D3 key=50 velocity: 0
@12300 $51.25 Channel: 1 Note on, D3 key=50 velocity: 100
@12330 $51.375 Channel: 1 Note off, D3 key=50 velocity: 0
@12380 $51.583333333333336 Channel: 1 Note on, D#3 key=51 velocity: 100
@12410 $51.708333333333336 Channel: 1 Note off, D#3 key=51 velocity: 0
@12420 $51.75 Channel: 1 Note on, D#3 key=51 velocity: 100
@12450 $51.875 Channel: 1 Note off, D#3 key=51 velocity: 0
@12500 $52.083333333333336 Channel: 1 Note on, E3 key=52 velocity: 100
@12530 $52.208333333333336 Channel: 1 Note off, E3 key=52 velocity: 0
@12540 $52.25 Channel: 1 Note on, E3 key=52 velocity: 100
@12570 $52.375 Channel: 1 Note off, E3 key=52 velocity: 0
@12600 $52.5 Channel: 1 Note on, E3 key=52 velocity: 100
@12630 $52.625 Channel: 1 Note off, E3 key=52 velocity: 0
@12660 $52.75 Channel: 1 Note on, E3 key=52 velocity: 100
@12690 $52.875 Channel: 1 Note off, E3 key=52 velocity: 0
@12740 $53.083333333333336 Channel: 1 Note on, A3 key=57 velocity: 100
@12770 $53.208333333333336 Channel: 1 Note off, A3 key=57 velocity: 0
@12780 $53.25 Channel: 1 Note on, A3 key=57 velocity: 100
@12810 $53.375 Channel: 1 Note off, A3 key=57 velocity: 0
@12840 $53.5 Channel: 1 Note on, A3 key=57 velocity: 100
@12870 $53.625 Channel: 1 Note off, A3 key=57 velocity: 0
@12900 $53.75 Channel: 1 Note on, A3 key=57 velocity: 100
@12930 $53.875 Channel: 1 Note off, A3 key=57 velocity: 0
@12975 $54.0625 Channel: 1 Note on, A3 key=57 velocity: 100
@13005 $54.1875 Channel: 1 Note off, A3 key=57 velocity: 0
@13020 $54.25 Channel: 1 Note on, A3 key=57 velocity: 100
@13050 $54.375 Channel: 1 Note off, A3 key=57 velocity: 0
@13080 $54.5 Channel: 1 Note on, A3 key=57 velocity: 100
@13110 $54.625 Channel: 1 Note off, A3 key=57 velocity: 0
@13140 $54.75 Channel: 1 Note on, A3 key=57 velocity: 100
@13170 $54.875 Channel: 1 Note off, A3 key=57 velocity: 0
@13220 $55.083333333333336 Channel: 1 Note on, D3 key=50 velocity: 100
@13250 $55.208333333333336 Channel: 1 Note off, D3 key=50 velocity: 0
@13260 $55.25 Channel: 1 Note on, D3 key=50 velocity: 100
@13290 $55.375 Channel: 1 Note off, D3 key=50 velocity: 0
@13320 $55.5 Channel: 1 Note on, E3 key=52 velocity: 100
@13350 $55.625 Channel: 1 Note off, E3 key=52 velocity: 0
@13380 $55.75 Channel: 1 Note on, E3 key=52 velocity: 100
@13410 $55.875 Channel: 1 Note off, E3 key=52 velocity: 0
@13440 $56.0 Channel: 1 Note on, A2 key=45 velocity: 100
@13560 $56.5 Channel: 1 Note off, A2 key=45 velocity: 0
@13700 $57.083333333333336 Channel: 1 Note on, A3 key=57 velocity: 100
@13730 $57.208333333333336 Channel: 1 Note off, A3 key=57 velocity: 0
@13740 $57.25 Channel: 1 Note on, A3 key=57 velocity: 100
@13770 $57.375 Channel: 1 Note off, A3 key=57 velocity: 0
@13800 $57.5 Channel: 1 Note on, A3 key=57 velocity: 100
@13830 $57.625 Channel: 1 Note off, A3 key=57 velocity: 0
@13860 $57.75 Channel: 1 Note on, A3 key=57 velocity: 100
@13890 $57.875 Channel: 1 Note off, A3 key=57 velocity: 0
@13940 $58.083333333333336 Channel: 1 Note on, A3 key=57 velocity: 100
@13970 $58.208333333333336 Channel: 1 Note off, A3 key=57 velocity: 0
@13980 $58.25 Channel: 1 Note on, A3 key=57 velocity: 100
@14010 $58.375 Channel: 1 Note off, A3 key=57 velocity: 0
@14040 $58.5 Channel: 1 Note on, A3 key=57 velocity: 100
@14070 $58.625 Channel: 1 Note off, A3 key=57 velocity: 0
@14100 $58.75 Channel: 1 Note on, A3 key=57 velocity: 100
@14130 $58.875 Channel: 1 Note off, A3 key=57 velocity: 0
@14180 $59.083333333333336 Channel: 1 Note on, D3 key=50 velocity: 100
@14210 $59.208333333333336 Channel: 1 Note off, D3 key=50 velocity: 0
@14220 $59.25 Channel: 1 Note on, D3 key=50 velocity: 100
@14250 $59.375 Channel: 1 Note off, D3 key=50 velocity: 0
@14300 $59.583333333333336 Channel: 1 Note on, D#3 key=51 velocity: 100
@14330 $59.708333333333336 Channel: 1 Note off, D#3 key=51 velocity: 0
@14340 $59.75 Channel: 1 Note on, D#3 key=51 velocity: 100
@14370 $59.875 Channel: 1 Note off, D#3 key=51 velocity: 0
@14420 $60.083333333333336 Channel: 1 Note on, E3 key=52 velocity: 100
@14450 $60.208333333333336 Channel: 1 Note off, E3 key=52 velocity: 0
@14460 $60.25 Channel: 1 Note on, E3 key=52 velocity: 100
@14490 $60.375 Channel: 1 Note off, E3 key=52 velocity: 0
@14520 $60.5 Channel: 1 Note on, E3 key=52 velocity: 100
@14550 $60.625 Channel: 1 Note off, E3 key=52 velocity: 0
@14580 $60.75 Channel: 1 Note on, E3 key=52 velocity: 100
@14610 $60.875 Channel: 1 Note off, E3 key=52 velocity: 0
@14660 $61.083333333333336 Channel: 1 Note on, A3 key=57 velocity: 100
@14690 $61.208333333333336 Channel: 1 Note off, A3 key=57 velocity: 0
@14700 $61.25 Channel: 1 Note on, A3 key=57 velocity: 100
@14730 $61.375 Channel: 1 Note off, A3 key=57 velocity: 0
@14760 $61.5 Channel: 1 Note on, A3 key=57 velocity: 100
@14790 $61.625 Channel: 1 Note off, A3 key=57 velocity: 0
@14820 $61.75 Channel: 1 Note on, A3 key=57 velocity: 100
@14850 $61.875 Channel: 1 Note off, A3 key=57 velocity: 0
@14895 $62.0625 Channel: 1 Note on, A3 key=57 velocity: 100
@14925 $62.1875 Channel: 1 Note off, A3 key=57 velocity: 0
@14940 $62.25 Channel: 1 Note on, A3 key=57 velocity: 100
@14970 $62.375 Channel: 1 Note off, A3 key=57 velocity: 0
@15000 $62.5 Channel: 1 Note on, A3 key=57 velocity: 100
@15030 $62.625 Channel: 1 Note off, A3 key=57 velocity: 0
@15060 $62.75 Channel: 1 Note on, A3 key=57 velocity: 100
@15090 $62.875 Channel: 1 Note off, A3 key=57 velocity: 0
@15140 $63.083333333333336 Channel: 1 Note on, D3 key=50 velocity: 100
@15170 $63.208333333333336 Channel: 1 Note off, D3 key=50 velocity: 0
@15180 $63.25 Channel: 1 Note on, D3 key=50 velocity: 100
@15210 $63.375 Channel: 1 Note off, D3 key=50 velocity: 0
@15240 $63.5 Channel: 1 Note on, E3 key=52 velocity: 100
@15270 $63.625 Channel: 1 Note off, E3 key=52 velocity: 0
@15300 $63.75 Channel: 1 Note on, E3 key=52 velocity: 100
@15330 $63.875 Channel: 1 Note off, E3 key=52 velocity: 0
@15360 $64.0 Channel: 1 Note on, A2 key=45 velocity: 100
@15480 $64.5 Channel: 1 Note off, A2 key=45 velocity: 0
@15600 $65.0 Channel: 1 Note on, F#4 key=66 velocity: 100
@15660 $65.25 Channel: 1 Note off, F#4 key=66 velocity: 0
@15660 $65.25 Channel: 1 Note on, C#6 key=85 velocity: 70
@15660 $65.25 Channel: 1 Note on, A5 key=81 velocity: 70
@15690 $65.375 Channel: 1 Note off, A5 key=81 velocity: 0
@15690 $65.375 Channel: 1 Note off, C#6 key=85 velocity: 0
@15720 $65.5 Channel: 1 Note on, C#6 key=85 velocity: 70
@15720 $65.5 Channel: 1 Note on, A5 key=81 velocity: 70
@15750 $65.625 Channel: 1 Note off, A5 key=81 velocity: 0
@15750 $65.625 Channel: 1 Note off, C#6 key=85 velocity: 0
@15780 $65.75 Channel: 1 Note on, C#6 key=85 velocity: 70
@15780 $65.75 Channel: 1 Note on, A5 key=81 velocity: 70
@15810 $65.875 Channel: 1 Note off, A5 key=81 velocity: 0
@15810 $65.875 Channel: 1 Note off, C#6 key=85 velocity: 0
@15840 $66.0 Channel: 1 Note on, G#4 key=68 velocity: 100
@15900 $66.25 Channel: 1 Note off, G#4 key=68 velocity: 0
@15900 $66.25 Channel: 1 Note on, C#6 key=85 velocity: 70
@15900 $66.25 Channel: 1 Note on, B5 key=83 velocity: 70
@15930 $66.375 Channel: 1 Note off, B5 key=83 velocity: 0
@15930 $66.375 Channel: 1 Note off, C#6 key=85 velocity: 0
@15960 $66.5 Channel: 1 Note on, C#6 key=85 velocity: 70
@15960 $66.5 Channel: 1 Note on, B5 key=83 velocity: 70
@15990 $66.625 Channel: 1 Note off, B5 key=83 velocity: 0
@15990 $66.625 Channel: 1 Note off, C#6 key=85 velocity: 0
@16020 $66.75 Channel: 1 Note on, C#6 key=85 velocity: 70
@16020 $66.75 Channel: 1 Note on, B5 key=83 velocity: 70
@16050 $66.875 Channel: 1 Note off, B5 key=83 velocity: 0
@16050 $66.875 Channel: 1 Note off, C#6 key=85 velocity: 0
@16080 $67.0 Channel: 1 Note on, F#4 key=66 velocity: 100
@16140 $67.25 Channel: 1 Note off, F#4 key=66 velocity: 0
@16140 $67.25 Channel: 1 Note on, C#6 key=85 velocity: 70
@16140 $67.25 Channel: 1 Note on, A5 key=81 velocity: 70
@16170 $67.375 Channel: 1 Note off, A5 key=81 velocity: 0
@16170 $67.375 Channel: 1 Note off, C#6 key=85 velocity: 0
@16200 $67.5 Channel: 1 Note on, C#6 key=85 velocity: 70
@16200 $67.5 Channel: 1 Note on, A5 key=81 velocity: 70
@16230 $67.625 Channel: 1 Note off, A5 key=81 velocity: 0
@16230 $67.625 Channel: 1 Note off, C#6 key=85 velocity: 0
@16260 $67.75 Channel: 1 Note on, C#6 key=85 velocity: 70
@16260 $67.75 Channel: 1 Note on, A5 key=81 velocity: 70
@16290 $67.875 Channel: 1 Note off, A5 key=81 velocity: 0
@16290 $67.875 Channel: 1 Note off, C#6 key=85 velocity: 0
@16320 $68.0 Channel: 1 Note on, F4 key=65 velocity: 100
@16380 $68.25 Channel: 1 Note off, F4 key=65 velocity: 0
@16380 $68.25 Channel: 1 Note on, C#6 key=85 velocity: 100
@16380 $68.25 Channel: 1 Note on, G#5 key=80 velocity: 100
@16410 $68.375 Channel: 1 Note off, G#5 key=80 velocity: 0
@16410 $68.375 Channel: 1 Note off, C#6 key=85 velocity: 0
@16440 $68.5 Channel: 1 Note on, C#6 key=85 velocity: 100
@16440 $68.5 Channel: 1 Note on, G#5 key=80 velocity: 100
@16470 $68.625 Channel: 1 Note off, G#5 key=80 velocity: 0
@16470 $68.625 Channel: 1 Note off, C#6 key=85 velocity: 0
@16500 $68.75 Channel: 1 Note on, C#6 key=85 velocity: 100
@16500 $68.75 Channel: 1 Note on, G#5 key=80 velocity: 100
@16530 $68.875 Channel: 1 Note off, G#5 key=80 velocity: 0
@16530 $68.875 Channel: 1 Note off, C#6 key=85 velocity: 0
@16560 $69.0 Channel: 1 Note on, F#4 key=66 velocity: 100
@16620 $69.25 Channel: 1 Note off, F#4 key=66 velocity: 0
@16620 $69.25 Channel: 1 Note on, C#6 key=85 velocity: 100
@16620 $69.25 Channel: 1 Note on, A5 key=81 velocity: 100
@16650 $69.375 Channel: 1 Note off, A5 key=81 velocity: 0
@16650 $69.375 Channel: 1 Note off, C#6 key=85 velocity: 0
@16680 $69.5 Channel: 1 Note on, C#6 key=85 velocity: 100
@16680 $69.5 Channel: 1 Note on, A5 key=81 velocity: 100
@16710 $69.625 Channel: 1 Note off, A5 key=81 velocity: 0
@16710 $69.625 Channel: 1 Note off, C#6 key=85 velocity: 0
@16740 $69.75 Channel: 1 Note on, C#6 key=85 velocity: 100
@16740 $69.75 Channel: 1 Note on, A5 key=81 velocity: 100
@16770 $69.875 Channel: 1 Note off, A5 key=81 velocity: 0
@16770 $69.875 Channel: 1 Note off, C#6 key=85 velocity: 0
@16800 $70.0 Channel: 1 Note on, G#4 key=68 velocity: 100
@16860 $70.25 Channel: 1 Note off, G#4 key=68 velocity: 0
@16860 $70.25 Channel: 1 Note on, C#6 key=85 velocity: 100
@16860 $70.25 Channel: 1 Note on, A5 key=81 velocity: 100
@16890 $70.375 Channel: 1 Note off, A5 key=81 velocity: 0
@16890 $70.375 Channel: 1 Note off, C#6 key=85 velocity: 0
@16920 $70.5 Channel: 1 Note on, C#6 key=85 velocity: 100
@16920 $70.5 Channel: 1 Note on, A5 key=81 velocity: 100
@16950 $70.625 Channel: 1 Note off, A5 key=81 velocity: 0
@16950 $70.625 Channel: 1 Note off, C#6 key=85 velocity: 0
@16980 $70.75 Channel: 1 Note on, C#6 key=85 velocity: 100
@16980 $70.75 Channel: 1 Note on, A5 key=81 velocity: 100
@17010 $70.875 Channel: 1 Note off, A5 key=81 velocity: 0
@17010 $70.875 Channel: 1 Note off, C#6 key=85 velocity: 0
@17040 $71.0 Channel: 1 Note on, G#4 key=68 velocity: 100
@17100 $71.25 Channel: 1 Note off, G#4 key=68 velocity: 0
@17100 $71.25 Channel: 1 Note on, D#6 key=87 velocity: 100
@17100 $71.25 Channel: 1 Note on, F#6 key=90 velocity: 100
@17130 $71.375 Channel: 1 Note off, F#6 key=90 velocity: 0
@17130 $71.375 Channel: 1 Note off, D#6 key=87 velocity: 0
@17160 $71.5 Channel: 1 Note on, D#6 key=87 velocity: 100
@17160 $71.5 Channel: 1 Note on, F#6 key=90 velocity: 100
@17190 $71.625 Channel: 1 Note off, F#6 key=90 velocity: 0
@17190 $71.625 Channel: 1 Note off, D#6 key=87 velocity: 0
@17220 $71.75 Channel: 1 Note on, D#6 key=87 velocity: 100
@17220 $71.75 Channel: 1 Note on, F#6 key=90 velocity: 100
@17250 $71.875 Channel: 1 Note off, F#6 key=90 velocity: 0
@17250 $71.875 Channel: 1 Note off, D#6 key=87 velocity: 0
@17280 $72.0 Channel: 1 Note on, E5 key=76 velocity: 100
@17280 $72.0 Channel: 1 Note on, C#5 key=73 velocity: 100
@17400 $72.5 Channel: 1 Note off, C#5 key=73 velocity: 0
@17400 $72.5 Channel: 1 Note off, E5 key=76 velocity: 0
@17520 $73.0 Channel: 1 Note on, F#4 key=66 velocity: 100
@17580 $73.25 Channel: 1 Note off, F#4 key=66 velocity: 0
@17580 $73.25 Channel: 1 Note on, C#6 key=85 velocity: 70
@17580 $73.25 Channel: 1 Note on, A5 key=81 velocity: 70
@17610 $73.375 Channel: 1 Note off, A5 key=81 velocity: 0
@17610 $73.375 Channel: 1 Note off, C#6 key=85 velocity: 0
@17640 $73.5 Channel: 1 Note on, C#6 key=85 velocity: 70
@17640 $73.5 Channel: 1 Note on, A5 key=81 velocity: 70
@17670 $73.625 Channel: 1 Note off, A5 key=81 velocity: 0
@17670 $73.625 Channel: 1 Note off, C#6 key=85 velocity: 0
@17700 $73.75 Channel: 1 Note on, C#6 key=85 velocity: 70
@17700 $73.75 Channel: 1 Note on, A5 key=81 velocity: 70
@17730 $73.875 Channel: 1 Note off, A5 key=81 velocity: 0
@17730 $73.875 Channel: 1 Note off, C#6 key=85 velocity: 0
@17760 $74.0 Channel: 1 Note on, G#4 key=68 velocity: 100
@17820 $74.25 Channel: 1 Note off, G#4 key=68 velocity: 0
@17820 $74.25 Channel: 1 Note on, C#6 key=85 velocity: 70
@17820 $74.25 Channel: 1 Note on, B5 key=83 velocity: 70
@17850 $74.375 Channel: 1 Note off, B5 key=83 velocity: 0
@17850 $74.375 Channel: 1 Note off, C#6 key=85 velocity: 0
@17880 $74.5 Channel: 1 Note on, C#6 key=85 velocity: 70
@17880 $74.5 Channel: 1 Note on, B5 key=83 velocity: 70
@17910 $74.625 Channel: 1 Note off, B5 key=83 velocity: 0
@17910 $74.625 Channel: 1 Note off, C#6 key=85 velocity: 0
@17940 $74.75 Channel: 1 Note on, C#6 key=85 velocity: 70
@17940 $74.75 Channel: 1 Note on, B5 key=83 velocity: 70
@17970 $74.875 Channel: 1 Note off, B5 key=83 velocity: 0
@17970 $74.875 Channel: 1 Note off, C#6 key=85 velocity: 0
@18000 $75.0 Channel: 1 Note on, F#4 key=66 velocity: 100
@18060 $75.25 Channel: 1 Note off, F#4 key=66 velocity: 0
@18060 $75.25 Channel: 1 Note on, C#6 key=85 velocity: 70
@18060 $75.25 Channel: 1 Note on, A5 key=81 velocity: 70
@18090 $75.375 Channel: 1 Note off, A5 key=81 velocity: 0
@18090 $75.375 Channel: 1 Note off, C#6 key=85 velocity: 0
@18120 $75.5 Channel: 1 Note on, C#6 key=85 velocity: 70
@18120 $75.5 Channel: 1 Note on, A5 key=81 velocity: 70
@18150 $75.625 Channel: 1 Note off, A5 key=81 velocity: 0
@18150 $75.625 Channel: 1 Note off, C#6 key=85 velocity: 0
@18180 $75.75 Channel: 1 Note on, C#6 key=85 velocity: 70
@18180 $75.75 Channel: 1 Note on, A5 key=81 velocity: 70
@18210 $75.875 Channel: 1 Note off, A5 key=81 velocity: 0
@18210 $75.875 Channel: 1 Note off, C#6 key=85 velocity: 0
@18240 $76.0 Channel: 1 Note on, F4 key=65 velocity: 100
@18300 $76.25 Channel: 1 Note off, F4 key=65 velocity: 0
@18300 $76.25 Channel: 1 Note on, C#6 key=85 velocity: 100
@18300 $76.25 Channel: 1 Note on, G#5 key=80 velocity: 100
@18330 $76.375 Channel: 1 Note off, G#5 key=80 velocity: 0
@18330 $76.375 Channel: 1 Note off, C#6 key=85 velocity: 0
@18360 $76.5 Channel: 1 Note on, C#6 key=85 velocity: 100
@18360 $76.5 Channel: 1 Note on, G#5 key=80 velocity: 100
@18390 $76.625 Channel: 1 Note off, G#5 key=80 velocity: 0
@18390 $76.625 Channel: 1 Note off, C#6 key=85 velocity: 0
@18420 $76.75 Channel: 1 Note on, C#6 key=85 velocity: 100
@18420 $76.75 Channel: 1 Note on, G#5 key=80 velocity: 100
@18450 $76.875 Channel: 1 Note off, G#5 key=80 velocity: 0
@18450 $76.875 Channel: 1 Note off, C#6 key=85 velocity: 0
@18480 $77.0 Channel: 1 Note on, F#4 key=66 velocity: 100
@18540 $77.25 Channel: 1 Note off, F#4 key=66 velocity: 0
@18540 $77.25 Channel: 1 Note on, C#6 key=85 velocity: 100
@18540 $77.25 Channel: 1 Note on, A5 key=81 velocity: 100
@18570 $77.375 Channel: 1 Note off, A5 key=81 velocity: 0
@18570 $77.375 Channel: 1 Note off, C#6 key=85 velocity: 0
@18600 $77.5 Channel: 1 Note on, C#6 key=85 velocity: 100
@18600 $77.5 Channel: 1 Note on, A5 key=81 velocity: 100
@18630 $77.625 Channel: 1 Note off, A5 key=81 velocity: 0
@18630 $77.625 Channel: 1 Note off, C#6 key=85 velocity: 0
@18660 $77.75 Channel: 1 Note on, C#6 key=85 velocity: 100
@18660 $77.75 Channel: 1 Note on, A5 key=81 velocity: 100
@18690 $77.875 Channel: 1 Note off, A5 key=81 velocity: 0
@18690 $77.875 Channel: 1 Note off, C#6 key=85 velocity: 0
@18720 $78.0 Channel: 1 Note on, G#4 key=68 velocity: 100
@18780 $78.25 Channel: 1 Note off, G#4 key=68 velocity: 0
@18780 $78.25 Channel: 1 Note on, C#6 key=85 velocity: 100
@18780 $78.25 Channel: 1 Note on, A5 key=81 velocity: 100
@18810 $78.375 Channel: 1 Note off, A5 key=81 velocity: 0
@18810 $78.375 Channel: 1 Note off, C#6 key=85 velocity: 0
@18840 $78.5 Channel: 1 Note on, C#6 key=85 velocity: 100
@18840 $78.5 Channel: 1 Note on, A5 key=81 velocity: 100
@18870 $78.625 Channel: 1 Note off, A5 key=81 velocity: 0
@18870 $78.625 Channel: 1 Note off, C#6 key=85 velocity: 0
@18900 $78.75 Channel: 1 Note on, C#6 key=85 velocity: 100
@18900 $78.75 Channel: 1 Note on, A5 key=81 velocity: 100
@18930 $78.875 Channel: 1 Note off, A5 key=81 velocity: 0
@18930 $78.875 Channel: 1 Note off, C#6 key=85 velocity: 0
@18960 $79.0 Channel: 1 Note on, G#4 key=68 velocity: 100
@19020 $79.25 Channel: 1 Note off, G#4 key=68 velocity: 0
@19020 $79.25 Channel: 1 Note on, D#6 key=87 velocity: 100
@19020 $79.25 Channel: 1 Note on, F#6 key=90 velocity: 100
@19050 $79.375 Channel: 1 Note off, F#6 key=90 velocity: 0
@19050 $79.375 Channel: 1 Note off, D#6 key=87 velocity: 0
@19080 $79.5 Channel: 1 Note on, D#6 key=87 velocity: 100
@19080 $79.5 Channel: 1 Note on, F#6 key=90 velocity: 100
@19110 $79.625 Channel: 1 Note off, F#6 key=90 velocity: 0
@19110 $79.625 Channel: 1 Note off, D#6 key=87 velocity: 0
@19140 $79.75 Channel: 1 Note on, D#6 key=87 velocity: 100
@19140 $79.75 Channel: 1 Note on, F#6 key=90 velocity: 100
@19170 $79.875 Channel: 1 Note off, F#6 key=90 velocity: 0
@19170 $79.875 Channel: 1 Note off, D#6 key=87 velocity: 0
@19200 $80.0 Channel: 1 Note on, E5 key=76 velocity: 100
@19200 $80.0 Channel: 1 Note on, C#5 key=73 velocity: 100
@19320 $80.5 Channel: 1 Note off, C#5 key=73 velocity: 0
@19320 $80.5 Channel: 1 Note off, E5 key=76 velocity: 0
@19440 $81.0 Channel: 1 Note on, A3 key=57 velocity: 100
@19500 $81.25 Channel: 1 Note off, A3 key=57 velocity: 0
@19500 $81.25 Channel: 1 Note on, C#6 key=85 velocity: 100
@19500 $81.25 Channel: 1 Note on, A5 key=81 velocity: 100
@19530 $81.375 Channel: 1 Note off, A5 key=81 velocity: 0
@19530 $81.375 Channel: 1 Note off, C#6 key=85 velocity: 0
@19560 $81.5 Channel: 1 Note on, A5 key=81 velocity: 100
@19560 $81.5 Channel: 1 Note on, C#6 key=85 velocity: 100
@19590 $81.625 Channel: 1 Note off, C#6 key=85 velocity: 0
@19590 $81.625 Channel: 1 Note off, A5 key=81 velocity: 0
@19620 $81.75 Channel: 1 Note on, A5 key=81 velocity: 100
@19620 $81.75 Channel: 1 Note on, C#6 key=85 velocity: 100
@19650 $81.875 Channel: 1 Note off, C#6 key=85 velocity: 0
@19650 $81.875 Channel: 1 Note off, A5 key=81 velocity: 0
@19680 $82.0 Channel: 1 Note on, B4 key=71 velocity: 100
@19740 $82.25 Channel: 1 Note off, B4 key=71 velocity: 0
@19740 $82.25 Channel: 1 Note on, D6 key=86 velocity: 100
@19740 $82.25 Channel: 1 Note on, E6 key=88 velocity: 100
@19770 $82.375 Channel: 1 Note off, E6 key=88 velocity: 0
@19770 $82.375 Channel: 1 Note off, D6 key=86 velocity: 0
@19800 $82.5 Channel: 1 Note on, G#4 key=68 velocity: 100
@19860 $82.75 Channel: 1 Note off, G#4 key=68 velocity: 0
@19860 $82.75 Channel: 1 Note on, E6 key=88 velocity: 100
@19860 $82.75 Channel: 1 Note on, D6 key=86 velocity: 100
@19890 $82.875 Channel: 1 Note off, D6 key=86 velocity: 0
@19890 $82.875 Channel: 1 Note off, E6 key=88 velocity: 0
@19920 $83.0 Channel: 1 Note on, A3 key=57 velocity: 100
@19980 $83.25 Channel: 1 Note off, A3 key=57 velocity: 0
@19980 $83.25 Channel: 1 Note on, C#6 key=85 velocity: 100
@19980 $83.25 Channel: 1 Note on, A5 key=81 velocity: 100
@20010 $83.375 Channel: 1 Note off, A5 key=81 velocity: 0
@20010 $83.375 Channel: 1 Note off, C#6 key=85 velocity: 0
@20040 $83.5 Channel: 1 Note on, C#6 key=85 velocity: 100
@20040 $83.5 Channel: 1 Note on, A5 key=81 velocity: 100
@20070 $83.625 Channel: 1 Note off, A5 key=81 velocity: 0
@20070 $83.625 Channel: 1 Note off, C#6 key=85 velocity: 0
@20100 $83.75 Channel: 1 Note on, C#6 key=85 velocity: 100
@20100 $83.75 Channel: 1 Note on, A5 key=81 velocity: 100
@20130 $83.875 Channel: 1 Note off, A5 key=81 velocity: 0
@20130 $83.875 Channel: 1 Note off, C#6 key=85 velocity: 0
@20160 $84.0 Channel: 1 Note on, E3 key=52 velocity: 100
@20220 $84.25 Channel: 1 Note off, E3 key=52 velocity: 0
@20220 $84.25 Channel: 1 Note on, D5 key=74 velocity: 100
@20220 $84.25 Channel: 1 Note on, G#4 key=68 velocity: 100
@20250 $84.375 Channel: 1 Note off, G#4 key=68 velocity: 0
@20250 $84.375 Channel: 1 Note off, D5 key=74 velocity: 0
@20280 $84.5 Channel: 1 Note on, D5 key=74 velocity: 100
@20280 $84.5 Channel: 1 Note on, G#4 key=68 velocity: 100
@20310 $84.625 Channel: 1 Note off, G#4 key=68 velocity: 0
@20310 $84.625 Channel: 1 Note off, D5 key=74 velocity: 0
@20340 $84.75 Channel: 1 Note on, D5 key=74 velocity: 100
@20340 $84.75 Channel: 1 Note on, G#4 key=68 velocity: 100
@20370 $84.875 Channel: 1 Note off, G#4 key=68 velocity: 0
@20370 $84.875 Channel: 1 Note off, D5 key=74 velocity: 0
@20400 $85.0 Channel: 1 Note on, A3 key=57 velocity: 100
@20460 $85.25 Channel: 1 Note off, A3 key=57 velocity: 0
@20460 $85.25 Channel: 1 Note on, C#6 key=85 velocity: 100
@20460 $85.25 Channel: 1 Note on, A5 key=81 velocity: 100
@20490 $85.375 Channel: 1 Note off, A5 key=81 velocity: 0
@20490 $85.375 Channel: 1 Note off, C#6 key=85 velocity: 0
@20520 $85.5 Channel: 1 Note on, C#6 key=85 velocity: 100
@20520 $85.5 Channel: 1 Note on, A5 key=81 velocity: 100
@20550 $85.625 Channel: 1 Note off, A5 key=81 velocity: 0
@20550 $85.625 Channel: 1 Note off, C#6 key=85 velocity: 0
@20580 $85.75 Channel: 1 Note on, C#6 key=85 velocity: 100
@20580 $85.75 Channel: 1 Note on, A5 key=81 velocity: 100
@20610 $85.875 Channel: 1 Note off, A5 key=81 velocity: 0
@20610 $85.875 Channel: 1 Note off, C#6 key=85 velocity: 0
@20640 $86.0 Channel: 1 Note on, B4 key=71 velocity: 100
@20700 $86.25 Channel: 1 Note off, B4 key=71 velocity: 0
@20700 $86.25 Channel: 1 Note on, D6 key=86 velocity: 100
@20700 $86.25 Channel: 1 Note on, E6 key=88 velocity: 100
@20730 $86.375 Channel: 1 Note off, E6 key=88 velocity: 0
@20730 $86.375 Channel: 1 Note off, D6 key=86 velocity: 0
@20760 $86.5 Channel: 1 Note on, G#4 key=68 velocity: 100
@20820 $86.75 Channel: 1 Note off, G#4 key=68 velocity: 0
@20820 $86.75 Channel: 1 Note on, E6 key=88 velocity: 100
@20820 $86.75 Channel: 1 Note on, D6 key=86 velocity: 100
@20850 $86.875 Channel: 1 Note off, D6 key=86 velocity: 0
@20850 $86.875 Channel: 1 Note off, E6 key=88 velocity: 0
@20880 $87.0 Channel: 1 Note on, A5 key=81 velocity: 75
@20880 $87.0 Channel: 1 Note on, A4 key=69 velocity: 75
@20910 $87.125 Channel: 1 Note off, A4 key=69 velocity: 0
@20910 $87.125 Channel: 1 Note off, A5 key=81 velocity: 0
@20940 $87.25 Channel: 1 Note on, F#5 key=78 velocity: 75
@20940 $87.25 Channel: 1 Note on, F#4 key=66 velocity: 75
@20970 $87.375 Channel: 1 Note off, F#4 key=66 velocity: 0
@20970 $87.375 Channel: 1 Note off, F#5 key=78 velocity: 0
@21000 $87.5 Channel: 1 Note on, D5 key=74 velocity: 75
@21000 $87.5 Channel: 1 Note on, D4 key=62 velocity: 75
@21030 $87.625 Channel: 1 Note off, D4 key=62 velocity: 0
@21030 $87.625 Channel: 1 Note off, D5 key=74 velocity: 0
@21060 $87.75 Channel: 1 Note on, E5 key=76 velocity: 75
@21060 $87.75 Channel: 1 Note on, E4 key=64 velocity: 75
@21090 $87.875 Channel: 1 Note off, E4 key=64 velocity: 0
@21090 $87.875 Channel: 1 Note off, E5 key=76 velocity: 0
@21120 $88.0 Channel: 1 Note on, A5 key=81 velocity: 75
@21120 $88.0 Channel: 1 Note on, A4 key=69 velocity: 75
@21150 $88.125 Channel: 1 Note off, A4 key=69 velocity: 0
@21150 $88.125 Channel: 1 Note off, A5 key=81 velocity: 0
@21180 $88.25 Channel: 1 Note on, A6 key=93 velocity: 75
@21180 $88.25 Channel: 1 Note on, A5 key=81 velocity: 75
@21210 $88.375 Channel: 1 Note off, A5 key=81 velocity: 0
@21210 $88.375 Channel: 1 Note off, A6 key=93 velocity: 0
@21360 $89.0 Channel: 1 Note on, F#4 key=66 velocity: 100
@21420 $89.25 Channel: 1 Note off, F#4 key=66 velocity: 0
@21420 $89.25 Channel: 1 Note on, A5 key=81 velocity: 75
@21420 $89.25 Channel: 1 Note on, C#6 key=85 velocity: 75
@21450 $89.375 Channel: 1 Note off, C#6 key=85 velocity: 0
@21450 $89.375 Channel: 1 Note off, A5 key=81 velocity: 0
@21480 $89.5 Channel: 1 Note on, A5 key=81 velocity: 75
@21480 $89.5 Channel: 1 Note on, C#6 key=85 velocity: 75
@21510 $89.625 Channel: 1 Note off, C#6 key=85 velocity: 0
@21510 $89.625 Channel: 1 Note off, A5 key=81 velocity: 0
@21540 $89.75 Channel: 1 Note on, A5 key=81 velocity: 75
@21540 $89.75 Channel: 1 Note on, C#6 key=85 velocity: 75
@21570 $89.875 Channel: 1 Note off, C#6 key=85 velocity: 0
@21570 $89.875 Channel: 1 Note off, A5 key=81 velocity: 0
@21600 $90.0 Channel: 1 Note on, G#4 key=68 velocity: 100
@21660 $90.25 Channel: 1 Note off, G#4 key=68 velocity: 0
@21660 $90.25 Channel: 1 Note on, C#6 key=85 velocity: 75
@21660 $90.25 Channel: 1 Note on, B5 key=83 velocity: 75
@21690 $90.375 Channel: 1 Note off, B5 key=83 velocity: 0
@21690 $90.375 Channel: 1 Note off, C#6 key=85 velocity: 0
@21720 $90.5 Channel: 1 Note on, C#6 key=85 velocity: 75
@21720 $90.5 Channel: 1 Note on, B5 key=83 velocity: 75
@21750 $90.625 Channel: 1 Note off, B5 key=83 velocity: 0
@21750 $90.625 Channel: 1 Note off, C#6 key=85 velocity: 0
@21780 $90.75 Channel: 1 Note on, C#6 key=85 velocity: 75
@21780 $90.75 Channel: 1 Note on, B5 key=83 velocity: 75
@21810 $90.875 Channel: 1 Note off, B5 key=83 velocity: 0
@21810 $90.875 Channel: 1 Note off, C#6 key=85 velocity: 0
@21840 $91.0 Channel: 1 Note on, F#4 key=66 velocity: 100
@21900 $91.25 Channel: 1 Note off, F#4 key=66 velocity: 0
@21900 $91.25 Channel: 1 Note on, C#6 key=85 velocity: 75
@21900 $91.25 Channel: 1 Note on, A5 key=81 velocity: 75
@21930 $91.375 Channel: 1 Note off, A5 key=81 velocity: 0
@21930 $91.375 Channel: 1 Note off, C#6 key=85 velocity: 0
@21960 $91.5 Channel: 1 Note on, C#6 key=85 velocity: 75
@21960 $91.5 Channel: 1 Note on, A5 key=81 velocity: 75
@21990 $91.625 Channel: 1 Note off, A5 key=81 velocity: 0
@21990 $91.625 Channel: 1 Note off, C#6 key=85 velocity: 0
@22020 $91.75 Channel: 1 Note on, C#6 key=85 velocity: 75
@22020 $91.75 Channel: 1 Note on, A5 key=81 velocity: 75
@22050 $91.875 Channel: 1 Note off, A5 key=81 velocity: 0
@22050 $91.875 Channel: 1 Note off, C#6 key=85 velocity: 0
@22080 $92.0 Channel: 1 Note on, C#4 key=61 velocity: 100
@22140 $92.25 Channel: 1 Note off, C#4 key=61 velocity: 0
@22140 $92.25 Channel: 1 Note on, C#6 key=85 velocity: 75
@22140 $92.25 Channel: 1 Note on, G#5 key=80 velocity: 75
@22170 $92.375 Channel: 1 Note off, G#5 key=80 velocity: 0
@22170 $92.375 Channel: 1 Note off, C#6 key=85 velocity: 0
@22200 $92.5 Channel: 1 Note on, C#6 key=85 velocity: 75
@22200 $92.5 Channel: 1 Note on, G5 key=79 velocity: 75
@22230 $92.625 Channel: 1 Note off, G5 key=79 velocity: 0
@22230 $92.625 Channel: 1 Note off, C#6 key=85 velocity: 0
@22260 $92.75 Channel: 1 Note on, C#6 key=85 velocity: 75
@22260 $92.75 Channel: 1 Note on, F#5 key=78 velocity: 75
@22290 $92.875 Channel: 1 Note off, F#5 key=78 velocity: 0
@22290 $92.875 Channel: 1 Note off, C#6 key=85 velocity: 0
@22320 $93.0 Channel: 1 Note on, B3 key=59 velocity: 100
@22380 $93.25 Channel: 1 Note off, B3 key=59 velocity: 0
@22380 $93.25 Channel: 1 Note on, B5 key=83 velocity: 75
@22380 $93.25 Channel: 1 Note on, F#5 key=78 velocity: 75
@22410 $93.375 Channel: 1 Note off, F#5 key=78 velocity: 0
@22410 $93.375 Channel: 1 Note off, B5 key=83 velocity: 0
@22440 $93.5 Channel: 1 Note on, B5 key=83 velocity: 75
@22440 $93.5 Channel: 1 Note on, F#5 key=78 velocity: 75
@22470 $93.625 Channel: 1 Note off, F#5 key=78 velocity: 0
@22470 $93.625 Channel: 1 Note off, B5 key=83 velocity: 0
@22500 $93.75 Channel: 1 Note on, B5 key=83 velocity: 75
@22500 $93.75 Channel: 1 Note on, F#5 key=78 velocity: 75
@22530 $93.875 Channel: 1 Note off, F#5 key=78 velocity: 0
@22530 $93.875 Channel: 1 Note off, B5 key=83 velocity: 0
@22560 $94.0 Channel: 1 Note on, B3 key=59 velocity: 100
@22620 $94.25 Channel: 1 Note off, B3 key=59 velocity: 0
@22620 $94.25 Channel: 1 Note on, B5 key=83 velocity: 75
@22620 $94.25 Channel: 1 Note on, G#5 key=80 velocity: 75
@22650 $94.375 Channel: 1 Note off, G#5 key=80 velocity: 0
@22650 $94.375 Channel: 1 Note off, B5 key=83 velocity: 0
@22680 $94.5 Channel: 1 Note on, B5 key=83 velocity: 75
@22680 $94.5 Channel: 1 Note on, G#5 key=80 velocity: 75
@22710 $94.625 Channel: 1 Note off, G#5 key=80 velocity: 0
@22710 $94.625 Channel: 1 Note off, B5 key=83 velocity: 0
@22740 $94.75 Channel: 1 Note on, B5 key=83 velocity: 75
@22740 $94.75 Channel: 1 Note on, G#5 key=80 velocity: 75
@22770 $94.875 Channel: 1 Note off, G#5 key=80 velocity: 0
@22770 $94.875 Channel: 1 Note off, B5 key=83 velocity: 0
@22800 $95.0 Channel: 1 Note on, C#4 key=61 velocity: 100
@22860 $95.25 Channel: 1 Note off, C#4 key=61 velocity: 0
@22860 $95.25 Channel: 1 Note on, A5 key=81 velocity: 75
@22860 $95.25 Channel: 1 Note on, F#5 key=78 velocity: 75
@22890 $95.375 Channel: 1 Note off, F#5 key=78 velocity: 0
@22890 $95.375 Channel: 1 Note off, A5 key=81 velocity: 0
@22920 $95.5 Channel: 1 Note on, C#4 key=61 velocity: 75
@22980 $95.75 Channel: 1 Note off, C#4 key=61 velocity: 0
@22980 $95.75 Channel: 1 Note on, B5 key=83 velocity: 75
@22980 $95.75 Channel: 1 Note on, G#5 key=80 velocity: 75
@23010 $95.875 Channel: 1 Note off, G#5 key=80 velocity: 0
@23010 $95.875 Channel: 1 Note off, B5 key=83 velocity: 0
@23040 $96.0 Channel: 1 Note on, C#6 key=85 velocity: 75
@23040 $96.0 Channel: 1 Note on, A5 key=81 velocity: 75
@23160 $96.5 Channel: 1 Note off, A5 key=81 velocity: 0
@23160 $96.5 Channel: 1 Note off, C#6 key=85 velocity: 0
@23285 $97.02083333333333 Channel: 1 Note on, A3 key=57 velocity: 100
@23345 $97.27083333333333 Channel: 1 Note off, A3 key=57 velocity: 0
@23345 $97.27083333333333 Channel: 1 Note on, C#6 key=85 velocity: 100
@23345 $97.27083333333333 Channel: 1 Note on, A5 key=81 velocity: 100
@23375 $97.39583333333333 Channel: 1 Note off, A5 key=81 velocity: 0
@23375 $97.39583333333333 Channel: 1 Note off, C#6 key=85 velocity: 0
@23405 $97.52083333333333 Channel: 1 Note on, A5 key=81 velocity: 100
@23405 $97.52083333333333 Channel: 1 Note on, C#6 key=85 velocity: 100
@23435 $97.64583333333333 Channel: 1 Note off, C#6 key=85 velocity: 0
@23435 $97.64583333333333 Channel: 1 Note off, A5 key=81 velocity: 0
@23465 $97.77083333333333 Channel: 1 Note on, A5 key=81 velocity: 100
@23465 $97.77083333333333 Channel: 1 Note on, C#6 key=85 velocity: 100
@23495 $97.89583333333333 Channel: 1 Note off, C#6 key=85 velocity: 0
@23495 $97.89583333333333 Channel: 1 Note off, A5 key=81 velocity: 0
@23525 $98.02083333333333 Channel: 1 Note on, B4 key=71 velocity: 100
@23585 $98.27083333333333 Channel: 1 Note off, B4 key=71 velocity: 0
@23585 $98.27083333333333 Channel: 1 Note on, D6 key=86 velocity: 100
@23585 $98.27083333333333 Channel: 1 Note on, E6 key=88 velocity: 100
@23615 $98.39583333333333 Channel: 1 Note off, E6 key=88 velocity: 0
@23615 $98.39583333333333 Channel: 1 Note off, D6 key=86 velocity: 0
@23645 $98.52083333333333 Channel: 1 Note on, G#4 key=68 velocity: 100
@23705 $98.77083333333333 Channel: 1 Note off, G#4 key=68 velocity: 0
@23705 $98.77083333333333 Channel: 1 Note on, E6 key=88 velocity: 100
@23705 $98.77083333333333 Channel: 1 Note on, D6 key=86 velocity: 100
@23735 $98.89583333333333 Channel: 1 Note off, D6 key=86 velocity: 0
@23735 $98.89583333333333 Channel: 1 Note off, E6 key=88 velocity: 0
@23765 $99.02083333333333 Channel: 1 Note on, A3 key=57 velocity: 100
@23825 $99.27083333333333 Channel: 1 Note off, A3 key=57 velocity: 0
@23825 $99.27083333333333 Channel: 1 Note on, C#6 key=85 velocity: 100
@23825 $99.27083333333333 Channel: 1 Note on, A5 key=81 velocity: 100
@23855 $99.39583333333333 Channel: 1 Note off, A5 key=81 velocity: 0
@23855 $99.39583333333333 Channel: 1 Note off, C#6 key=85 velocity: 0
@23885 $99.52083333333333 Channel: 1 Note on, C#6 key=85 velocity: 100
@23885 $99.52083333333333 Channel: 1 Note on, A5 key=81 velocity: 100
@23915 $99.64583333333333 Channel: 1 Note off, A5 key=81 velocity: 0
@23915 $99.64583333333333 Channel: 1 Note off, C#6 key=85 velocity: 0
@23945 $99.77083333333333 Channel: 1 Note on, C#6 key=85 velocity: 100
@23945 $99.77083333333333 Channel: 1 Note on, A5 key=81 velocity: 100
@23975 $99.89583333333333 Channel: 1 Note off, A5 key=81 velocity: 0
@23975 $99.89583333333333 Channel: 1 Note off, C#6 key=85 velocity: 0
@24005 $100.02083333333333 Channel: 1 Note on, E3 key=52 velocity: 100
@24065 $100.27083333333333 Channel: 1 Note off, E3 key=52 velocity: 0
@24065 $100.27083333333333 Channel: 1 Note on, D5 key=74 velocity: 100
@24065 $100.27083333333333 Channel: 1 Note on, G#4 key=68 velocity: 100
@24095 $100.39583333333333 Channel: 1 Note off, G#4 key=68 velocity: 0
@24095 $100.39583333333333 Channel: 1 Note off, D5 key=74 velocity: 0
@24125 $100.52083333333333 Channel: 1 Note on, D5 key=74 velocity: 100
@24125 $100.52083333333333 Channel: 1 Note on, G#4 key=68 velocity: 100
@24155 $100.64583333333333 Channel: 1 Note off, G#4 key=68 velocity: 0
@24155 $100.64583333333333 Channel: 1 Note off, D5 key=74 velocity: 0
@24185 $100.77083333333333 Channel: 1 Note on, D5 key=74 velocity: 100
@24185 $100.77083333333333 Channel: 1 Note on, G#4 key=68 velocity: 100
@24215 $100.89583333333333 Channel: 1 Note off, G#4 key=68 velocity: 0
@24215 $100.89583333333333 Channel: 1 Note off, D5 key=74 velocity: 0
@24245 $101.02083333333333 Channel: 1 Note on, A3 key=57 velocity: 100
@24305 $101.27083333333333 Channel: 1 Note off, A3 key=57 velocity: 0
@24305 $101.27083333333333 Channel: 1 Note on, C#6 key=85 velocity: 100
@24305 $101.27083333333333 Channel: 1 Note on, A5 key=81 velocity: 100
@24335 $101.39583333333333 Channel: 1 Note off, A5 key=81 velocity: 0
@24335 $101.39583333333333 Channel: 1 Note off, C#6 key=85 velocity: 0
@24365 $101.52083333333333 Channel: 1 Note on, C#6 key=85 velocity: 100
@24365 $101.52083333333333 Channel: 1 Note on, A5 key=81 velocity: 100
@24395 $101.64583333333333 Channel: 1 Note off, A5 key=81 velocity: 0
@24395 $101.64583333333333 Channel: 1 Note off, C#6 key=85 velocity: 0
@24425 $101.77083333333333 Channel: 1 Note on, C#6 key=85 velocity: 100
@24425 $101.77083333333333 Channel: 1 Note on, A5 key=81 velocity: 100
@24455 $101.89583333333333 Channel: 1 Note off, A5 key=81 velocity: 0
@24455 $101.89583333333333 Channel: 1 Note off, C#6 key=85 velocity: 0
@24485 $102.02083333333333 Channel: 1 Note on, B4 key=71 velocity: 100
@24545 $102.27083333333333 Channel: 1 Note off, B4 key=71 velocity: 0
@24545 $102.27083333333333 Channel: 1 Note on, D6 key=86 velocity: 100
@24545 $102.27083333333333 Channel: 1 Note on, E6 key=88 velocity: 100
@24575 $102.39583333333333 Channel: 1 Note off, E6 key=88 velocity: 0
@24575 $102.39583333333333 Channel: 1 Note off, D6 key=86 velocity: 0
@24605 $102.52083333333333 Channel: 1 Note on, G#4 key=68 velocity: 100
@24665 $102.77083333333333 Channel: 1 Note off, G#4 key=68 velocity: 0
@24665 $102.77083333333333 Channel: 1 Note on, E6 key=88 velocity: 100
@24665 $102.77083333333333 Channel: 1 Note on, D6 key=86 velocity: 100
@24695 $102.89583333333333 Channel: 1 Note off, D6 key=86 velocity: 0
@24695 $102.89583333333333 Channel: 1 Note off, E6 key=88 velocity: 0
@24725 $103.02083333333333 Channel: 1 Note on, A5 key=81 velocity: 75
@24725 $103.02083333333333 Channel: 1 Note on, A4 key=69 velocity: 75
@24755 $103.14583333333333 Channel: 1 Note off, A4 key=69 velocity: 0
@24755 $103.14583333333333 Channel: 1 Note off, A5 key=81 velocity: 0
@24785 $103.27083333333333 Channel: 1 Note on, F#5 key=78 velocity: 75
@24785 $103.27083333333333 Channel: 1 Note on, F#4 key=66 velocity: 75
@24815 $103.39583333333333 Channel: 1 Note off, F#4 key=66 velocity: 0
@24815 $103.39583333333333 Channel: 1 Note off, F#5 key=78 velocity: 0
@24845 $103.52083333333333 Channel: 1 Note on, D5 key=74 velocity: 75
@24845 $103.52083333333333 Channel: 1 Note on, D4 key=62 velocity: 75
@24875 $103.64583333333333 Channel: 1 Note off, D4 key=62 velocity: 0
@24875 $103.64583333333333 Channel: 1 Note off, D5 key=74 velocity: 0
@24905 $103.77083333333333 Channel: 1 Note on, E5 key=76 velocity: 75
@24905 $103.77083333333333 Channel: 1 Note on, E4 key=64 velocity: 75
@24935 $103.89583333333333 Channel: 1 Note off, E4 key=64 velocity: 0
@24935 $103.89583333333333 Channel: 1 Note off, E5 key=76 velocity: 0
@24965 $104.02083333333333 Channel: 1 Note on, A5 key=81 velocity: 75
@24965 $104.02083333333333 Channel: 1 Note on, A4 key=69 velocity: 75
@24995 $104.14583333333333 Channel: 1 Note off, A4 key=69 velocity: 0
@24995 $104.14583333333333 Channel: 1 Note off, A5 key=81 velocity: 0
@25025 $104.27083333333333 Channel: 1 Note on, A6 key=93 velocity: 75
@25025 $104.27083333333333 Channel: 1 Note on, A5 key=81 velocity: 75
@25055 $104.39583333333333 Channel: 1 Note off, A5 key=81 velocity: 0
@25055 $104.39583333333333 Channel: 1 Note off, A6 key=93 velocity: 0
@25205 $105.02083333333333 Channel: 1 Note on, F#4 key=66 velocity: 100
@25265 $105.27083333333333 Channel: 1 Note off, F#4 key=66 velocity: 0
@25265 $105.27083333333333 Channel: 1 Note on, A5 key=81 velocity: 75
@25265 $105.27083333333333 Channel: 1 Note on, C#6 key=85 velocity: 75
@25295 $105.39583333333333 Channel: 1 Note off, C#6 key=85 velocity: 0
@25295 $105.39583333333333 Channel: 1 Note off, A5 key=81 velocity: 0
@25325 $105.52083333333333 Channel: 1 Note on, A5 key=81 velocity: 75
@25325 $105.52083333333333 Channel: 1 Note on, C#6 key=85 velocity: 75
@25355 $105.64583333333333 Channel: 1 Note off, C#6 key=85 velocity: 0
@25355 $105.64583333333333 Channel: 1 Note off, A5 key=81 velocity: 0
@25385 $105.77083333333333 Channel: 1 Note on, A5 key=81 velocity: 75
@25385 $105.77083333333333 Channel: 1 Note on, C#6 key=85 velocity: 75
@25415 $105.89583333333333 Channel: 1 Note off, C#6 key=85 velocity: 0
@25415 $105.89583333333333 Channel: 1 Note off, A5 key=81 velocity: 0
@25445 $106.02083333333333 Channel: 1 Note on, G#4 key=68 velocity: 100
@25505 $106.27083333333333 Channel: 1 Note off, G#4 key=68 velocity: 0
@25505 $106.27083333333333 Channel: 1 Note on, C#6 key=85 velocity: 75
@25505 $106.27083333333333 Channel: 1 Note on, B5 key=83 velocity: 75
@25535 $106.39583333333333 Channel: 1 Note off, B5 key=83 velocity: 0
@25535 $106.39583333333333 Channel: 1 Note off, C#6 key=85 velocity: 0
@25565 $106.52083333333333 Channel: 1 Note on, C#6 key=85 velocity: 75
@25565 $106.52083333333333 Channel: 1 Note on, B5 key=83 velocity: 75
@25595 $106.64583333333333 Channel: 1 Note off, B5 key=83 velocity: 0
@25595 $106.64583333333333 Channel: 1 Note off, C#6 key=85 velocity: 0
@25625 $106.77083333333333 Channel: 1 Note on, C#6 key=85 velocity: 75
@25625 $106.77083333333333 Channel: 1 Note on, B5 key=83 velocity: 75
@25655 $106.89583333333333 Channel: 1 Note off, B5 key=83 velocity: 0
@25655 $106.89583333333333 Channel: 1 Note off, C#6 key=85 velocity: 0
@25685 $107.02083333333333 Channel: 1 Note on, F#4 key=66 velocity: 100
@25745 $107.27083333333333 Channel: 1 Note off, F#4 key=66 velocity: 0
@25745 $107.27083333333333 Channel: 1 Note on, C#6 key=85 velocity: 75
@25745 $107.27083333333333 Channel: 1 Note on, A5 key=81 velocity: 75
@25775 $107.39583333333333 Channel: 1 Note off, A5 key=81 velocity: 0
@25775 $107.39583333333333 Channel: 1 Note off, C#6 key=85 velocity: 0
@25805 $107.52083333333333 Channel: 1 Note on, C#6 key=85 velocity: 75
@25805 $107.52083333333333 Channel: 1 Note on, A5 key=81 velocity: 75
@25835 $107.64583333333333 Channel: 1 Note off, A5 key=81 velocity: 0
@25835 $107.64583333333333 Channel: 1 Note off, C#6 key=85 velocity: 0
@25865 $107.77083333333333 Channel: 1 Note on, C#6 key=85 velocity: 75
@25865 $107.77083333333333 Channel: 1 Note on, A5 key=81 velocity: 75
@25895 $107.89583333333333 Channel: 1 Note off, A5 key=81 velocity: 0
@25895 $107.89583333333333 Channel: 1 Note off, C#6 key=85 velocity: 0
@25925 $108.02083333333333 Channel: 1 Note on, C#4 key=61 velocity: 100
@25985 $108.27083333333333 Channel: 1 Note off, C#4 key=61 velocity: 0
@25985 $108.27083333333333 Channel: 1 Note on, C#6 key=85 velocity: 75
@25985 $108.27083333333333 Channel: 1 Note on, G#5 key=80 velocity: 75
@26015 $108.39583333333333 Channel: 1 Note off, G#5 key=80 velocity: 0
@26015 $108.39583333333333 Channel: 1 Note off, C#6 key=85 velocity: 0
@26045 $108.52083333333333 Channel: 1 Note on, C#6 key=85 velocity: 75
@26045 $108.52083333333333 Channel: 1 Note on, G5 key=79 velocity: 75
@26075 $108.64583333333333 Channel: 1 Note off, G5 key=79 velocity: 0
@26075 $108.64583333333333 Channel: 1 Note off, C#6 key=85 velocity: 0
@26105 $108.77083333333333 Channel: 1 Note on, C#6 key=85 velocity: 75
@26105 $108.77083333333333 Channel: 1 Note on, F#5 key=78 velocity: 75
@26135 $108.89583333333333 Channel: 1 Note off, F#5 key=78 velocity: 0
@26135 $108.89583333333333 Channel: 1 Note off, C#6 key=85 velocity: 0
@26165 $109.02083333333333 Channel: 1 Note on, B3 key=59 velocity: 100
@26225 $109.27083333333333 Channel: 1 Note off, B3 key=59 velocity: 0
@26225 $109.27083333333333 Channel: 1 Note on, B5 key=83 velocity: 75
@26225 $109.27083333333333 Channel: 1 Note on, F#5 key=78 velocity: 75
@26255 $109.39583333333333 Channel: 1 Note off, F#5 key=78 velocity: 0
@26255 $109.39583333333333 Channel: 1 Note off, B5 key=83 velocity: 0
@26285 $109.52083333333333 Channel: 1 Note on, B5 key=83 velocity: 75
@26285 $109.52083333333333 Channel: 1 Note on, F#5 key=78 velocity: 75
@26315 $109.64583333333333 Channel: 1 Note off, F#5 key=78 velocity: 0
@26315 $109.64583333333333 Channel: 1 Note off, B5 key=83 velocity: 0
@26345 $109.77083333333333 Channel: 1 Note on, B5 key=83 velocity: 75
@26345 $109.77083333333333 Channel: 1 Note on, F#5 key=78 velocity: 75
@26375 $109.89583333333333 Channel: 1 Note off, F#5 key=78 velocity: 0
@26375 $109.89583333333333 Channel: 1 Note off, B5 key=83 velocity: 0
@26405 $110.02083333333333 Channel: 1 Note on, B3 key=59 velocity: 100
@26465 $110.27083333333333 Channel: 1 Note off, B3 key=59 velocity: 0
@26465 $110.27083333333333 Channel: 1 Note on, B5 key=83 velocity: 75
@26465 $110.27083333333333 Channel: 1 Note on, G#5 key=80 velocity: 75
@26495 $110.39583333333333 Channel: 1 Note off, G#5 key=80 velocity: 0
@26495 $110.39583333333333 Channel: 1 Note off, B5 key=83 velocity: 0
@26525 $110.52083333333333 Channel: 1 Note on, B5 key=83 velocity: 75
@26525 $110.52083333333333 Channel: 1 Note on, G#5 key=80 velocity: 75
@26555 $110.64583333333333 Channel: 1 Note off, G#5 key=80 velocity: 0
@26555 $110.64583333333333 Channel: 1 Note off, B5 key=83 velocity: 0
@26585 $110.77083333333333 Channel: 1 Note on, B5 key=83 velocity: 75
@26585 $110.77083333333333 Channel: 1 Note on, G#5 key=80 velocity: 75
@26615 $110.89583333333333 Channel: 1 Note off, G#5 key=80 velocity: 0
@26615 $110.89583333333333 Channel: 1 Note off, B5 key=83 velocity: 0
@26645 $111.02083333333333 Channel: 1 Note on, C#4 key=61 velocity: 100
@26705 $111.27083333333333 Channel: 1 Note off, C#4 key=61 velocity: 0
@26705 $111.27083333333333 Channel: 1 Note on, A5 key=81 velocity: 75
@26705 $111.27083333333333 Channel: 1 Note on, F#5 key=78 velocity: 75
@26735 $111.39583333333333 Channel: 1 Note off, F#5 key=78 velocity: 0
@26735 $111.39583333333333 Channel: 1 Note off, A5 key=81 velocity: 0
@26765 $111.52083333333333 Channel: 1 Note on, C#4 key=61 velocity: 75
@26825 $111.77083333333333 Channel: 1 Note off, C#4 key=61 velocity: 0
@26825 $111.77083333333333 Channel: 1 Note on, B5 key=83 velocity: 75
@26825 $111.77083333333333 Channel: 1 Note on, G#5 key=80 velocity: 75
@26855 $111.89583333333333 Channel: 1 Note off, G#5 key=80 velocity: 0
@26855 $111.89583333333333 Channel: 1 Note off, B5 key=83 velocity: 0
@26885 $112.02083333333333 Channel: 1 Note on, C#6 key=85 velocity: 75
@26885 $112.02083333333333 Channel: 1 Note on, A5 key=81 velocity: 75
@27005 $112.52083333333333 Channel: 1 Note off, A5 key=81 velocity: 0
@27005 $112.52083333333333 Channel: 1 Note off, C#6 key=85 velocity: 0
@27140 $113.08333333333333 Channel: 1 Note on, A3 key=57 velocity: 100
@27170 $113.20833333333333 Channel: 1 Note off, A3 key=57 velocity: 0
@27180 $113.25 Channel: 1 Note on, A3 key=57 velocity: 100
@27210 $113.375 Channel: 1 Note off, A3 key=57 velocity: 0
@27240 $113.5 Channel: 1 Note on, A3 key=57 velocity: 100
@27270 $113.625 Channel: 1 Note off, A3 key=57 velocity: 0
@27300 $113.75 Channel: 1 Note on, A3 key=57 velocity: 100
@27330 $113.875 Channel: 1 Note off, A3 key=57 velocity: 0
@27380 $114.08333333333333 Channel: 1 Note on, A3 key=57 velocity: 100
@27410 $114.20833333333333 Channel: 1 Note off, A3 key=57 velocity: 0
@27420 $114.25 Channel: 1 Note on, A3 key=57 velocity: 100
@27450 $114.375 Channel: 1 Note off, A3 key=57 velocity: 0
@27480 $114.5 Channel: 1 Note on, A3 key=57 velocity: 100
@27510 $114.625 Channel: 1 Note off, A3 key=57 velocity: 0
@27540 $114.75 Channel: 1 Note on, A3 key=57 velocity: 100
@27570 $114.875 Channel: 1 Note off, A3 key=57 velocity: 0
@27620 $115.08333333333333 Channel: 1 Note on, D3 key=50 velocity: 100
@27650 $115.20833333333333 Channel: 1 Note off, D3 key=50 velocity: 0
@27660 $115.25 Channel: 1 Note on, D3 key=50 velocity: 100
@27690 $115.375 Channel: 1 Note off, D3 key=50 velocity: 0
@27740 $115.58333333333333 Channel: 1 Note on, D#3 key=51 velocity: 100
@27770 $115.70833333333333 Channel: 1 Note off, D#3 key=51 velocity: 0
@27780 $115.75 Channel: 1 Note on, D#3 key=51 velocity: 100
@27810 $115.875 Channel: 1 Note off, D#3 key=51 velocity: 0
@27860 $116.08333333333333 Channel: 1 Note on, E3 key=52 velocity: 100
@27890 $116.20833333333333 Channel: 1 Note off, E3 key=52 velocity: 0
@27900 $116.25 Channel: 1 Note on, E3 key=52 velocity: 100
@27930 $116.375 Channel: 1 Note off, E3 key=52 velocity: 0
@27960 $116.5 Channel: 1 Note on, E3 key=52 velocity: 100
@27990 $116.625 Channel: 1 Note off, E3 key=52 velocity: 0
@28020 $116.75 Channel: 1 Note on, E3 key=52 velocity: 100
@28050 $116.875 Channel: 1 Note off, E3 key=52 velocity: 0
@28100 $117.08333333333333 Channel: 1 Note on, A3 key=57 velocity: 100
@28130 $117.20833333333333 Channel: 1 Note off, A3 key=57 velocity: 0
@28140 $117.25 Channel: 1 Note on, A3 key=57 velocity: 100
@28170 $117.375 Channel: 1 Note off, A3 key=57 velocity: 0
@28200 $117.5 Channel: 1 Note on, A3 key=57 velocity: 100
@28230 $117.625 Channel: 1 Note off, A3 key=57 velocity: 0
@28260 $117.75 Channel: 1 Note on, A3 key=57 velocity: 100
@28290 $117.875 Channel: 1 Note off, A3 key=57 velocity: 0
@28335 $118.0625 Channel: 1 Note on, A3 key=57 velocity: 100
@28365 $118.1875 Channel: 1 Note off, A3 key=57 velocity: 0
@28380 $118.25 Channel: 1 Note on, A3 key=57 velocity: 100
@28410 $118.375 Channel: 1 Note off, A3 key=57 velocity: 0
@28440 $118.5 Channel: 1 Note on, A3 key=57 velocity: 100
@28470 $118.625 Channel: 1 Note off, A3 key=57 velocity: 0
@28500 $118.75 Channel: 1 Note on, A3 key=57 velocity: 100
@28530 $118.875 Channel: 1 Note off, A3 key=57 velocity: 0
@28580 $119.08333333333333 Channel: 1 Note on, D3 key=50 velocity: 100
@28610 $119.20833333333333 Channel: 1 Note off, D3 key=50 velocity: 0
@28620 $119.25 Channel: 1 Note on, D3 key=50 velocity: 100
@28650 $119.375 Channel: 1 Note off, D3 key=50 velocity: 0
@28680 $119.5 Channel: 1 Note on, E3 key=52 velocity: 100
@28710 $119.625 Channel: 1 Note off, E3 key=52 velocity: 0
@28740 $119.75 Channel: 1 Note on, E3 key=52 velocity: 100
@28770 $119.875 Channel: 1 Note off, E3 key=52 velocity: 0
@28800 $120.0 Channel: 1 Note on, A2 key=45 velocity: 100
@28920 $120.5 Channel: 1 Note off, A2 key=45 velocity: 0
@29060 $121.08333333333333 Channel: 1 Note on, A3 key=57 velocity: 100
@29090 $121.20833333333333 Channel: 1 Note off, A3 key=57 velocity: 0
@29100 $121.25 Channel: 1 Note on, A3 key=57 velocity: 100
@29130 $121.375 Channel: 1 Note off, A3 key=57 velocity: 0
@29160 $121.5 Channel: 1 Note on, A3 key=57 velocity: 100
@29190 $121.625 Channel: 1 Note off, A3 key=57 velocity: 0
@29220 $121.75 Channel: 1 Note on, A3 key=57 velocity: 100
@29250 $121.875 Channel: 1 Note off, A3 key=57 velocity: 0
@29300 $122.08333333333333 Channel: 1 Note on, A3 key=57 velocity: 100
@29330 $122.20833333333333 Channel: 1 Note off, A3 key=57 velocity: 0
@29340 $122.25 Channel: 1 Note on, A3 key=57 velocity: 100
@29370 $122.375 Channel: 1 Note off, A3 key=57 velocity: 0
@29400 $122.5 Channel: 1 Note on, A3 key=57 velocity: 100
@29430 $122.625 Channel: 1 Note off, A3 key=57 velocity: 0
@29460 $122.75 Channel: 1 Note on, A3 key=57 velocity: 100
@29490 $122.875 Channel: 1 Note off, A3 key=57 velocity: 0
@29540 $123.08333333333333 Channel: 1 Note on, D3 key=50 velocity: 100
@29570 $123.20833333333333 Channel: 1 Note off, D3 key=50 velocity: 0
@29580 $123.25 Channel: 1 Note on, D3 key=50 velocity: 100
@29610 $123.375 Channel: 1 Note off, D3 key=50 velocity: 0
@29660 $123.58333333333333 Channel: 1 Note on, D#3 key=51 velocity: 100
@29690 $123.70833333333333 Channel: 1 Note off, D#3 key=51 velocity: 0
@29700 $123.75 Channel: 1 Note on, D#3 key=51 velocity: 100
@29730 $123.875 Channel: 1 Note off, D#3 key=51 velocity: 0
@29780 $124.08333333333333 Channel: 1 Note on, E3 key=52 velocity: 100
@29810 $124.20833333333333 Channel: 1 Note off, E3 key=52 velocity: 0
@29820 $124.25 Channel: 1 Note on, E3 key=52 velocity: 100
@29850 $124.375 Channel: 1 Note off, E3 key=52 velocity: 0
@29880 $124.5 Channel: 1 Note on, E3 key=52 velocity: 100
@29910 $124.625 Channel: 1 Note off, E3 key=52 velocity: 0
@29940 $124.75 Channel: 1 Note on, E3 key=52 velocity: 100
@29970 $124.875 Channel: 1 Note off, E3 key=52 velocity: 0
@30020 $125.08333333333333 Channel: 1 Note on, A3 key=57 velocity: 100
@30050 $125.20833333333333 Channel: 1 Note off, A3 key=57 velocity: 0
@30060 $125.25 Channel: 1 Note on, A3 key=57 velocity: 100
@30090 $125.375 Channel: 1 Note off, A3 key=57 velocity: 0
@30120 $125.5 Channel: 1 Note on, A3 key=57 velocity: 100
@30150 $125.625 Channel: 1 Note off, A3 key=57 velocity: 0
@30180 $125.75 Channel: 1 Note on, A3 key=57 velocity: 100
@30210 $125.875 Channel: 1 Note off, A3 key=57 velocity: 0
@30255 $126.0625 Channel: 1 Note on, A3 key=57 velocity: 100
@30285 $126.1875 Channel: 1 Note off, A3 key=57 velocity: 0
@30300 $126.25 Channel: 1 Note on, A3 key=57 velocity: 100
@30330 $126.375 Channel: 1 Note off, A3 key=57 velocity: 0
@30360 $126.5 Channel: 1 Note on, A3 key=57 velocity: 100
@30390 $126.625 Channel: 1 Note off, A3 key=57 velocity: 0
@30420 $126.75 Channel: 1 Note on, A3 key=57 velocity: 100
@30450 $126.875 Channel: 1 Note off, A3 key=57 velocity: 0
@30500 $127.08333333333333 Channel: 1 Note on, D3 key=50 velocity: 100
@30530 $127.20833333333333 Channel: 1 Note off, D3 key=50 velocity: 0
@30540 $127.25 Channel: 1 Note on, D3 key=50 velocity: 100
@30570 $127.375 Channel: 1 Note off, D3 key=50 velocity: 0
@30600 $127.5 Channel: 1 Note on, E3 key=52 velocity: 100
@30630 $127.625 Channel: 1 Note off, E3 key=52 velocity: 0
@30660 $127.75 Channel: 1 Note on, E3 key=52 velocity: 100
@30690 $127.875 Channel: 1 Note off, E3 key=52 velocity: 0
@30720 $128.0 Channel: 1 Note on, A2 key=45 velocity: 100
@30840 $128.5 Channel: 1 Note off, A2 key=45 velocity: 0
@42480 $177.0 Channel: 1 Note on, A3 key=57 velocity: 100
@42490 $177.04166666666666 Channel: 1 Note off, A3 key=57 velocity: 0
@42490 $177.04166666666666 Channel: 1 Note on, C#4 key=61 velocity: 100
@42500 $177.08333333333334 Channel: 1 Note off, C#4 key=61 velocity: 0
@42500 $177.08333333333334 Channel: 1 Note on, A3 key=57 velocity: 100
@42500 $177.08333333333334 Channel: 1 Note on, E4 key=64 velocity: 100
@42510 $177.125 Channel: 1 Note off, E4 key=64 velocity: 0
@42510 $177.125 Channel: 1 Note on, A4 key=69 velocity: 127
@42530 $177.20833333333334 Channel: 1 Note off, A3 key=57 velocity: 0
@42540 $177.25 Channel: 1 Note off, A4 key=69 velocity: 0
@42540 $177.25 Channel: 1 Note on, A3 key=57 velocity: 100
@42544 $177.26666666666665 Channel: 1 Note on, A4 key=69 velocity: 100
@42570 $177.375 Channel: 1 Note off, A3 key=57 velocity: 0
@42574 $177.39166666666665 Channel: 1 Note off, A4 key=69 velocity: 0
@42600 $177.5 Channel: 1 Note on, A3 key=57 velocity: 100
@42600 $177.5 Channel: 1 Note on, A4 key=69 velocity: 100
@42630 $177.625 Channel: 1 Note off, A4 key=69 velocity: 0
@42630 $177.625 Channel: 1 Note off, A3 key=57 velocity: 0
@42660 $177.75 Channel: 1 Note on, A3 key=57 velocity: 100
@42660 $177.75 Channel: 1 Note on, A4 key=69 velocity: 100
@42690 $177.875 Channel: 1 Note off, A4 key=69 velocity: 0
@42690 $177.875 Channel: 1 Note off, A3 key=57 velocity: 0
@42720 $178.0 Channel: 1 Note on, A3 key=57 velocity: 100
@42730 $178.04166666666666 Channel: 1 Note off, A3 key=57 velocity: 0
@42730 $178.04166666666666 Channel: 1 Note on, C#4 key=61 velocity: 100
@42740 $178.08333333333334 Channel: 1 Note off, C#4 key=61 velocity: 0
@42740 $178.08333333333334 Channel: 1 Note on, A3 key=57 velocity: 100
@42740 $178.08333333333334 Channel: 1 Note on, E4 key=64 velocity: 100
@42750 $178.125 Channel: 1 Note off, E4 key=64 velocity: 0
@42750 $178.125 Channel: 1 Note on, A4 key=69 velocity: 127
@42770 $178.20833333333334 Channel: 1 Note off, A3 key=57 velocity: 0
@42780 $178.25 Channel: 1 Note off, A4 key=69 velocity: 0
@42780 $178.25 Channel: 1 Note on, A3 key=57 velocity: 100
@42784 $178.26666666666665 Channel: 1 Note on, A4 key=69 velocity: 100
@42810 $178.375 Channel: 1 Note off, A3 key=57 velocity: 0
@42814 $178.39166666666665 Channel: 1 Note off, A4 key=69 velocity: 0
@42840 $178.5 Channel: 1 Note on, A3 key=57 velocity: 100
@42840 $178.5 Channel: 1 Note on, A4 key=69 velocity: 100
@42870 $178.625 Channel: 1 Note off, A4 key=69 velocity: 0
@42870 $178.625 Channel: 1 Note off, A3 key=57 velocity: 0
@42900 $178.75 Channel: 1 Note on, A3 key=57 velocity: 100
@42900 $178.75 Channel: 1 Note on, A4 key=69 velocity: 100
@42930 $178.875 Channel: 1 Note off, A4 key=69 velocity: 0
@42930 $178.875 Channel: 1 Note off, A3 key=57 velocity: 0
@42960 $179.0 Channel: 1 Note on, D4 key=62 velocity: 100
@42970 $179.04166666666666 Channel: 1 Note off, D4 key=62 velocity: 0
@42970 $179.04166666666666 Channel: 1 Note on, F#4 key=66 velocity: 100
@42980 $179.08333333333334 Channel: 1 Note off, F#4 key=66 velocity: 0
@42980 $179.08333333333334 Channel: 1 Note on, D3 key=50 velocity: 100
@42980 $179.08333333333334 Channel: 1 Note on, A4 key=69 velocity: 100
@42990 $179.125 Channel: 1 Note on, D4 key=62 velocity: 100
@42995 $179.14583333333334 Channel: 1 Note off, A4 key=69 velocity: 0
@43010 $179.20833333333334 Channel: 1 Note off, D3 key=50 velocity: 0
@43020 $179.25 Channel: 1 Note off, D4 key=62 velocity: 0
@43020 $179.25 Channel: 1 Note on, D3 key=50 velocity: 100
@43020 $179.25 Channel: 1 Note on, D5 key=74 velocity: 100
@43050 $179.375 Channel: 1 Note off, D5 key=74 velocity: 0
@43050 $179.375 Channel: 1 Note off, D3 key=50 velocity: 0
@43080 $179.5 Channel: 1 Note on, D#3 key=51 velocity: 100
@43080 $179.5 Channel: 1 Note on, D#4 key=63 velocity: 100
@43090 $179.54166666666666 Channel: 1 Note off, D#4 key=63 velocity: 0
@43090 $179.54166666666666 Channel: 1 Note on, F#4 key=66 velocity: 100
@43100 $179.58333333333334 Channel: 1 Note off, F#4 key=66 velocity: 0
@43100 $179.58333333333334 Channel: 1 Note on, A4 key=69 velocity: 100
@43110 $179.625 Channel: 1 Note off, A4 key=69 velocity: 0
@43110 $179.625 Channel: 1 Note off, D#3 key=51 velocity: 0
@43110 $179.625 Channel: 1 Note on, D#5 key=75 velocity: 100
@43140 $179.75 Channel: 1 Note off, D#5 key=75 velocity: 0
@43140 $179.75 Channel: 1 Note on, D#3 key=51 velocity: 100
@43140 $179.75 Channel: 1 Note on, D#5 key=75 velocity: 100
@43170 $179.875 Channel: 1 Note off, D#5 key=75 velocity: 0
@43170 $179.875 Channel: 1 Note off, D#3 key=51 velocity: 0
@43200 $180.0 Channel: 1 Note on, E4 key=64 velocity: 100
@43210 $180.04166666666666 Channel: 1 Note off, E4 key=64 velocity: 0
@43210 $180.04166666666666 Channel: 1 Note on, G#4 key=68 velocity: 100
@43220 $180.08333333333334 Channel: 1 Note off, G#4 key=68 velocity: 0
@43220 $180.08333333333334 Channel: 1 Note on, E3 key=52 velocity: 100
@43220 $180.08333333333334 Channel: 1 Note on, B4 key=71 velocity: 100
@43230 $180.125 Channel: 1 Note off, B4 key=71 velocity: 0
@43230 $180.125 Channel: 1 Note on, E5 key=76 velocity: 100
@43250 $180.20833333333334 Channel: 1 Note off, E3 key=52 velocity: 0
@43260 $180.25 Channel: 1 Note off, E5 key=76 velocity: 0
@43260 $180.25 Channel: 1 Note on, E3 key=52 velocity: 100
@43290 $180.375 Channel: 1 Note off, E3 key=52 velocity: 0
@43290 $180.375 Channel: 1 Note on, E5 key=76 velocity: 100
@43320 $180.5 Channel: 1 Note off, E5 key=76 velocity: 0
@43320 $180.5 Channel: 1 Note on, E3 key=52 velocity: 100
@43320 $180.5 Channel: 1 Note on, E5 key=76 velocity: 100
@43350 $180.625 Channel: 1 Note off, E5 key=76 velocity: 0
@43350 $180.625 Channel: 1 Note off, E3 key=52 velocity: 0
@43380 $180.75 Channel: 1 Note on, E3 key=52 velocity: 100
@43380 $180.75 Channel: 1 Note on, E5 key=76 velocity: 100
@43410 $180.875 Channel: 1 Note off, E5 key=76 velocity: 0
@43410 $180.875 Channel: 1 Note off, E3 key=52 velocity: 0
@43440 $181.0 Channel: 1 Note on, A3 key=57 velocity: 100
@43450 $181.04166666666666 Channel: 1 Note off, A3 key=57 velocity: 0
@43450 $181.04166666666666 Channel: 1 Note on, C#4 key=61 velocity: 100
@43460 $181.08333333333334 Channel: 1 Note off, C#4 key=61 velocity: 0
@43460 $181.08333333333334 Channel: 1 Note on, A3 key=57 velocity: 100
@43460 $181.08333333333334 Channel: 1 Note on, E4 key=64 velocity: 100
@43470 $181.125 Channel: 1 Note off, E4 key=64 velocity: 0
@43470 $181.125 Channel: 1 Note on, A4 key=69 velocity: 100
@43490 $181.20833333333334 Channel: 1 Note off, A3 key=57 velocity: 0
@43500 $181.25 Channel: 1 Note off, A4 key=69 velocity: 0
@43500 $181.25 Channel: 1 Note on, A3 key=57 velocity: 100
@43500 $181.25 Channel: 1 Note on, A4 key=69 velocity: 100
@43530 $181.375 Channel: 1 Note off, A4 key=69 velocity: 0
@43530 $181.375 Channel: 1 Note off, A3 key=57 velocity: 0
@43560 $181.5 Channel: 1 Note on, A3 key=57 velocity: 100
@43560 $181.5 Channel: 1 Note on, A4 key=69 velocity: 100
@43590 $181.625 Channel: 1 Note off, A4 key=69 velocity: 0
@43590 $181.625 Channel: 1 Note off, A3 key=57 velocity: 0
@43620 $181.75 Channel: 1 Note on, A3 key=57 velocity: 100
@43620 $181.75 Channel: 1 Note on, A4 key=69 velocity: 100
@43650 $181.875 Channel: 1 Note off, A4 key=69 velocity: 0
@43650 $181.875 Channel: 1 Note off, A3 key=57 velocity: 0
@43680 $182.0 Channel: 1 Note on, A3 key=57 velocity: 100
@43690 $182.04166666666666 Channel: 1 Note off, A3 key=57 velocity: 0
@43690 $182.04166666666666 Channel: 1 Note on, C#4 key=61 velocity: 100
@43700 $182.08333333333334 Channel: 1 Note off, C#4 key=61 velocity: 0
@43700 $182.08333333333334 Channel: 1 Note on, A3 key=57 velocity: 100
@43700 $182.08333333333334 Channel: 1 Note on, E4 key=64 velocity: 100
@43710 $182.125 Channel: 1 Note off, E4 key=64 velocity: 0
@43710 $182.125 Channel: 1 Note on, A4 key=69 velocity: 127
@43730 $182.20833333333334 Channel: 1 Note off, A3 key=57 velocity: 0
@43740 $182.25 Channel: 1 Note off, A4 key=69 velocity: 0
@43740 $182.25 Channel: 1 Note on, A3 key=57 velocity: 100
@43744 $182.26666666666665 Channel: 1 Note on, A4 key=69 velocity: 100
@43770 $182.375 Channel: 1 Note off, A3 key=57 velocity: 0
@43774 $182.39166666666665 Channel: 1 Note off, A4 key=69 velocity: 0
@43800 $182.5 Channel: 1 Note on, A3 key=57 velocity: 100
@43800 $182.5 Channel: 1 Note on, A4 key=69 velocity: 100
@43830 $182.625 Channel: 1 Note off, A4 key=69 velocity: 0
@43830 $182.625 Channel: 1 Note off, A3 key=57 velocity: 0
@43860 $182.75 Channel: 1 Note on, A3 key=57 velocity: 100
@43860 $182.75 Channel: 1 Note on, A4 key=69 velocity: 100
@43890 $182.875 Channel: 1 Note off, A4 key=69 velocity: 0
@43890 $182.875 Channel: 1 Note off, A3 key=57 velocity: 0
@43920 $183.0 Channel: 1 Note on, D4 key=62 velocity: 100
@43930 $183.04166666666666 Channel: 1 Note off, D4 key=62 velocity: 0
@43930 $183.04166666666666 Channel: 1 Note on, F#4 key=66 velocity: 100
@43940 $183.08333333333334 Channel: 1 Note off, F#4 key=66 velocity: 0
@43940 $183.08333333333334 Channel: 1 Note on, D3 key=50 velocity: 100
@43940 $183.08333333333334 Channel: 1 Note on, A4 key=69 velocity: 100
@43950 $183.125 Channel: 1 Note off, A4 key=69 velocity: 0
@43950 $183.125 Channel: 1 Note on, D5 key=74 velocity: 100
@43970 $183.20833333333334 Channel: 1 Note off, D3 key=50 velocity: 0
@43980 $183.25 Channel: 1 Note off, D5 key=74 velocity: 0
@43980 $183.25 Channel: 1 Note on, D3 key=50 velocity: 100
@43980 $183.25 Channel: 1 Note on, D5 key=74 velocity: 100
@44010 $183.375 Channel: 1 Note off, D5 key=74 velocity: 0
@44010 $183.375 Channel: 1 Note off, D3 key=50 velocity: 0
@44040 $183.5 Channel: 1 Note on, E4 key=64 velocity: 100
@44050 $183.54166666666666 Channel: 1 Note off, E4 key=64 velocity: 0
@44050 $183.54166666666666 Channel: 1 Note on, G#4 key=68 velocity: 100
@44055 $183.5625 Channel: 1 Note on, E3 key=52 velocity: 100
@44060 $183.58333333333334 Channel: 1 Note off, G#4 key=68 velocity: 0
@44060 $183.58333333333334 Channel: 1 Note on, B4 key=71 velocity: 100
@44070 $183.625 Channel: 1 Note off, B4 key=71 velocity: 0
@44070 $183.625 Channel: 1 Note on, E5 key=76 velocity: 100
@44085 $183.6875 Channel: 1 Note off, E3 key=52 velocity: 0
@44100 $183.75 Channel: 1 Note off, E5 key=76 velocity: 0
@44100 $183.75 Channel: 1 Note on, E3 key=52 velocity: 100
@44100 $183.75 Channel: 1 Note on, E5 key=76 velocity: 100
@44130 $183.875 Channel: 1 Note off, E5 key=76 velocity: 0
@44130 $183.875 Channel: 1 Note off, E3 key=52 velocity: 0
@44160 $184.0 Channel: 1 Note on, A2 key=45 velocity: 100
@44160 $184.0 Channel: 1 Note on, A3 key=57 velocity: 100
@44280 $184.5 Channel: 1 Note off, A3 key=57 velocity: 0
@44280 $184.5 Channel: 1 Note off, A2 key=45 velocity: 0
@44400 $185.0 Channel: 1 Note on, A3 key=57 velocity: 100
@44410 $185.04166666666666 Channel: 1 Note off, A3 key=57 velocity: 0
@44410 $185.04166666666666 Channel: 1 Note on, C#4 key=61 velocity: 100
@44420 $185.08333333333334 Channel: 1 Note off, C#4 key=61 velocity: 0
@44420 $185.08333333333334 Channel: 1 Note on, A3 key=57 velocity: 100
@44420 $185.08333333333334 Channel: 1 Note on, E4 key=64 velocity: 100
@44430 $185.125 Channel: 1 Note off, E4 key=64 velocity: 0
@44430 $185.125 Channel: 1 Note on, A4 key=69 velocity: 127
@44450 $185.20833333333334 Channel: 1 Note off, A3 key=57 velocity: 0
@44460 $185.25 Channel: 1 Note off, A4 key=69 velocity: 0
@44460 $185.25 Channel: 1 Note on, A3 key=57 velocity: 100
@44464 $185.26666666666665 Channel: 1 Note on, A4 key=69 velocity: 100
@44490 $185.375 Channel: 1 Note off, A3 key=57 velocity: 0
@44494 $185.39166666666665 Channel: 1 Note off, A4 key=69 velocity: 0
@44520 $185.5 Channel: 1 Note on, A3 key=57 velocity: 100
@44520 $185.5 Channel: 1 Note on, A4 key=69 velocity: 100
@44550 $185.625 Channel: 1 Note off, A4 key=69 velocity: 0
@44550 $185.625 Channel: 1 Note off, A3 key=57 velocity: 0
@44580 $185.75 Channel: 1 Note on, A3 key=57 velocity: 100
@44580 $185.75 Channel: 1 Note on, A4 key=69 velocity: 100
@44610 $185.875 Channel: 1 Note off, A4 key=69 velocity: 0
@44610 $185.875 Channel: 1 Note off, A3 key=57 velocity: 0
@44640 $186.0 Channel: 1 Note on, A3 key=57 velocity: 100
@44650 $186.04166666666666 Channel: 1 Note off, A3 key=57 velocity: 0
@44650 $186.04166666666666 Channel: 1 Note on, C#4 key=61 velocity: 100
@44660 $186.08333333333334 Channel: 1 Note off, C#4 key=61 velocity: 0
@44660 $186.08333333333334 Channel: 1 Note on, A3 key=57 velocity: 100
@44660 $186.08333333333334 Channel: 1 Note on, E4 key=64 velocity: 100
@44670 $186.125 Channel: 1 Note off, E4 key=64 velocity: 0
@44670 $186.125 Channel: 1 Note on, A4 key=69 velocity: 127
@44690 $186.20833333333334 Channel: 1 Note off, A3 key=57 velocity: 0
@44700 $186.25 Channel: 1 Note off, A4 key=69 velocity: 0
@44700 $186.25 Channel: 1 Note on, A3 key=57 velocity: 100
@44704 $186.26666666666665 Channel: 1 Note on, A4 key=69 velocity: 100
@44730 $186.375 Channel: 1 Note off, A3 key=57 velocity: 0
@44734 $186.39166666666665 Channel: 1 Note off, A4 key=69 velocity: 0
@44760 $186.5 Channel: 1 Note on, A3 key=57 velocity: 100
@44760 $186.5 Channel: 1 Note on, A4 key=69 velocity: 100
@44790 $186.625 Channel: 1 Note off, A4 key=69 velocity: 0
@44790 $186.625 Channel: 1 Note off, A3 key=57 velocity: 0
@44820 $186.75 Channel: 1 Note on, A3 key=57 velocity: 100
@44820 $186.75 Channel: 1 Note on, A4 key=69 velocity: 100
@44850 $186.875 Channel: 1 Note off, A4 key=69 velocity: 0
@44850 $186.875 Channel: 1 Note off, A3 key=57 velocity: 0
@44880 $187.0 Channel: 1 Note on, D4 key=62 velocity: 100
@44890 $187.04166666666666 Channel: 1 Note off, D4 key=62 velocity: 0
@44890 $187.04166666666666 Channel: 1 Note on, F#4 key=66 velocity: 100
@44900 $187.08333333333334 Channel: 1 Note off, F#4 key=66 velocity: 0
@44900 $187.08333333333334 Channel: 1 Note on, D3 key=50 velocity: 100
@44900 $187.08333333333334 Channel: 1 Note on, A4 key=69 velocity: 100
@44910 $187.125 Channel: 1 Note on, D4 key=62 velocity: 100
@44915 $187.14583333333334 Channel: 1 Note off, A4 key=69 velocity: 0
@44930 $187.20833333333334 Channel: 1 Note off, D3 key=50 velocity: 0
@44940 $187.25 Channel: 1 Note off, D4 key=62 velocity: 0
@44940 $187.25 Channel: 1 Note on, D3 key=50 velocity: 100
@44940 $187.25 Channel: 1 Note on, D5 key=74 velocity: 100
@44970 $187.375 Channel: 1 Note off, D5 key=74 velocity: 0
@44970 $187.375 Channel: 1 Note off, D3 key=50 velocity: 0
@45000 $187.5 Channel: 1 Note on, D#3 key=51 velocity: 100
@45000 $187.5 Channel: 1 Note on, D#4 key=63 velocity: 100
@45010 $187.54166666666666 Channel: 1 Note off, D#4 key=63 velocity: 0
@45010 $187.54166666666666 Channel: 1 Note on, F#4 key=66 velocity: 100
@45020 $187.58333333333334 Channel: 1 Note off, F#4 key=66 velocity: 0
@45020 $187.58333333333334 Channel: 1 Note on, A4 key=69 velocity: 100
@45030 $187.625 Channel: 1 Note off, A4 key=69 velocity: 0
@45030 $187.625 Channel: 1 Note off, D#3 key=51 velocity: 0
@45030 $187.625 Channel: 1 Note on, D#5 key=75 velocity: 100
@45060 $187.75 Channel: 1 Note off, D#5 key=75 velocity: 0
@45060 $187.75 Channel: 1 Note on, D#3 key=51 velocity: 100
@45060 $187.75 Channel: 1 Note on, D#5 key=75 velocity: 100
@45090 $187.875 Channel: 1 Note off, D#5 key=75 velocity: 0
@45090 $187.875 Channel: 1 Note off, D#3 key=51 velocity: 0
@45120 $188.0 Channel: 1 Note on, E4 key=64 velocity: 100
@45130 $188.04166666666666 Channel: 1 Note off, E4 key=64 velocity: 0
@45130 $188.04166666666666 Channel: 1 Note on, G#4 key=68 velocity: 100
@45140 $188.08333333333334 Channel: 1 Note off, G#4 key=68 velocity: 0
@45140 $188.08333333333334 Channel: 1 Note on, E3 key=52 velocity: 100
@45140 $188.08333333333334 Channel: 1 Note on, B4 key=71 velocity: 100
@45150 $188.125 Channel: 1 Note off, B4 key=71 velocity: 0
@45150 $188.125 Channel: 1 Note on, E5 key=76 velocity: 100
@45170 $188.20833333333334 Channel: 1 Note off, E3 key=52 velocity: 0
@45180 $188.25 Channel: 1 Note off, E5 key=76 velocity: 0
@45180 $188.25 Channel: 1 Note on, E3 key=52 velocity: 100
@45210 $188.375 Channel: 1 Note off, E3 key=52 velocity: 0
@45210 $188.375 Channel: 1 Note on, E5 key=76 velocity: 100
@45240 $188.5 Channel: 1 Note off, E5 key=76 velocity: 0
@45240 $188.5 Channel: 1 Note on, E3 key=52 velocity: 100
@45240 $188.5 Channel: 1 Note on, E5 key=76 velocity: 100
@45270 $188.625 Channel: 1 Note off, E5 key=76 velocity: 0
@45270 $188.625 Channel: 1 Note off, E3 key=52 velocity: 0
@45300 $188.75 Channel: 1 Note on, E3 key=52 velocity: 100
@45300 $188.75 Channel: 1 Note on, E5 key=76 velocity: 100
@45330 $188.875 Channel: 1 Note off, E5 key=76 velocity: 0
@45330 $188.875 Channel: 1 Note off, E3 key=52 velocity: 0
@45360 $189.0 Channel: 1 Note on, A3 key=57 velocity: 100
@45370 $189.04166666666666 Channel: 1 Note off, A3 key=57 velocity: 0
@45370 $189.04166666666666 Channel: 1 Note on, C#4 key=61 velocity: 100
@45380 $189.08333333333334 Channel: 1 Note off, C#4 key=61 velocity: 0
@45380 $189.08333333333334 Channel: 1 Note on, A3 key=57 velocity: 100
@45380 $189.08333333333334 Channel: 1 Note on, E4 key=64 velocity: 100
@45390 $189.125 Channel: 1 Note off, E4 key=64 velocity: 0
@45390 $189.125 Channel: 1 Note on, A4 key=69 velocity: 100
@45410 $189.20833333333334 Channel: 1 Note off, A3 key=57 velocity: 0
@45420 $189.25 Channel: 1 Note off, A4 key=69 velocity: 0
@45420 $189.25 Channel: 1 Note on, A3 key=57 velocity: 100
@45420 $189.25 Channel: 1 Note on, A4 key=69 velocity: 100
@45450 $189.375 Channel: 1 Note off, A4 key=69 velocity: 0
@45450 $189.375 Channel: 1 Note off, A3 key=57 velocity: 0
@45480 $189.5 Channel: 1 Note on, A3 key=57 velocity: 100
@45480 $189.5 Channel: 1 Note on, A4 key=69 velocity: 100
@45510 $189.625 Channel: 1 Note off, A4 key=69 velocity: 0
@45510 $189.625 Channel: 1 Note off, A3 key=57 velocity: 0
@45540 $189.75 Channel: 1 Note on, A3 key=57 velocity: 100
@45540 $189.75 Channel: 1 Note on, A4 key=69 velocity: 100
@45570 $189.875 Channel: 1 Note off, A4 key=69 velocity: 0
@45570 $189.875 Channel: 1 Note off, A3 key=57 velocity: 0
@45600 $190.0 Channel: 1 Note on, A3 key=57 velocity: 100
@45610 $190.04166666666666 Channel: 1 Note off, A3 key=57 velocity: 0
@45610 $190.04166666666666 Channel: 1 Note on, C#4 key=61 velocity: 100
@45620 $190.08333333333334 Channel: 1 Note off, C#4 key=61 velocity: 0
@45620 $190.08333333333334 Channel: 1 Note on, A3 key=57 velocity: 100
@45620 $190.08333333333334 Channel: 1 Note on, E4 key=64 velocity: 100
@45630 $190.125 Channel: 1 Note off, E4 key=64 velocity: 0
@45630 $190.125 Channel: 1 Note on, A4 key=69 velocity: 127
@45650 $190.20833333333334 Channel: 1 Note off, A3 key=57 velocity: 0
@45660 $190.25 Channel: 1 Note off, A4 key=69 velocity: 0
@45660 $190.25 Channel: 1 Note on, A3 key=57 velocity: 100
@45664 $190.26666666666665 Channel: 1 Note on, A4 key=69 velocity: 100
@45690 $190.375 Channel: 1 Note off, A3 key=57 velocity: 0
@45694 $190.39166666666665 Channel: 1 Note off, A4 key=69 velocity: 0
@45720 $190.5 Channel: 1 Note on, A3 key=57 velocity: 100
@45720 $190.5 Channel: 1 Note on, A4 key=69 velocity: 100
@45750 $190.625 Channel: 1 Note off, A4 key=69 velocity: 0
@45750 $190.625 Channel: 1 Note off, A3 key=57 velocity: 0
@45780 $190.75 Channel: 1 Note on, A3 key=57 velocity: 100
@45780 $190.75 Channel: 1 Note on, A4 key=69 velocity: 100
@45810 $190.875 Channel: 1 Note off, A4 key=69 velocity: 0
@45810 $190.875 Channel: 1 Note off, A3 key=57 velocity: 0
@45840 $191.0 Channel: 1 Note on, D4 key=62 velocity: 100
@45850 $191.04166666666666 Channel: 1 Note off, D4 key=62 velocity: 0
@45850 $191.04166666666666 Channel: 1 Note on, F#4 key=66 velocity: 100
@45860 $191.08333333333334 Channel: 1 Note off, F#4 key=66 velocity: 0
@45860 $191.08333333333334 Channel: 1 Note on, D3 key=50 velocity: 100
@45860 $191.08333333333334 Channel: 1 Note on, A4 key=69 velocity: 100
@45870 $191.125 Channel: 1 Note off, A4 key=69 velocity: 0
@45870 $191.125 Channel: 1 Note on, D5 key=74 velocity: 100
@45890 $191.20833333333334 Channel: 1 Note off, D3 key=50 velocity: 0
@45900 $191.25 Channel: 1 Note off, D5 key=74 velocity: 0
@45900 $191.25 Channel: 1 Note on, D3 key=50 velocity: 100
@45900 $191.25 Channel: 1 Note on, D5 key=74 velocity: 100
@45930 $191.375 Channel: 1 Note off, D5 key=74 velocity: 0
@45930 $191.375 Channel: 1 Note off, D3 key=50 velocity: 0
@45960 $191.5 Channel: 1 Note on, E4 key=64 velocity: 100
@45970 $191.54166666666666 Channel: 1 Note off, E4 key=64 velocity: 0
@45970 $191.54166666666666 Channel: 1 Note on, G#4 key=68 velocity: 100
@45975 $191.5625 Channel: 1 Note on, E3 key=52 velocity: 100
@45980 $191.58333333333334 Channel: 1 Note off, G#4 key=68 velocity: 0
@45980 $191.58333333333334 Channel: 1 Note on, B4 key=71 velocity: 100
@45990 $191.625 Channel: 1 Note off, B4 key=71 velocity: 0
@45990 $191.625 Channel: 1 Note on, E5 key=76 velocity: 100
@46005 $191.6875 Channel: 1 Note off, E3 key=52 velocity: 0
@46020 $191.75 Channel: 1 Note off, E5 key=76 velocity: 0
@46020 $191.75 Channel: 1 Note on, E3 key=52 velocity: 100
@46020 $191.75 Channel: 1 Note on, E5 key=76 velocity: 100
@46050 $191.875 Channel: 1 Note off, E5 key=76 velocity: 0
@46050 $191.875 Channel: 1 Note off, E3 key=52 velocity: 0
@46080 $192.0 Channel: 1 Note on, A3 key=57 velocity: 100
@46090 $192.04166666666666 Channel: 1 Note off, A3 key=57 velocity: 0
@46090 $192.04166666666666 Channel: 1 Note on, C#4 key=61 velocity: 100
@46100 $192.08333333333334 Channel: 1 Note off, C#4 key=61 velocity: 0
@46100 $192.08333333333334 Channel: 1 Note on, E4 key=64 velocity: 100
@46110 $192.125 Channel: 1 Note off, E4 key=64 velocity: 0
@46110 $192.125 Channel: 1 Note on, A4 key=69 velocity: 127
@46110 $192.125 Channel: 1 Note on, A3 key=57 velocity: 127
@46140 $192.25 Channel: 1 Note off, A3 key=57 velocity: 0
@46140 $192.25 Channel: 1 Note off, A4 key=69 velocity: 0
@46140 $192.25 Channel: 1 Note on, A4 key=69 velocity: 127
@46140 $192.25 Channel: 1 Note on, A3 key=57 velocity: 100
@46170 $192.375 Channel: 1 Note off, A3 key=57 velocity: 0
@46170 $192.375 Channel: 1 Note off, A4 key=69 velocity: 0
@46200 $192.5 Channel: 1 Note on, A4 key=69 velocity: 127
@46200 $192.5 Channel: 1 Note on, A3 key=57 velocity: 100
@46230 $192.625 Channel: 1 Note off, A3 key=57 velocity: 0
@46230 $192.625 Channel: 1 Note off, A4 key=69 velocity: 0
@46260 $192.75 Channel: 1 Note on, A4 key=69 velocity: 127
@46260 $192.75 Channel: 1 Note on, A3 key=57 velocity: 100
@46290 $192.875 Channel: 1 Note off, A3 key=57 velocity: 0
@46290 $192.875 Channel: 1 Note off, A4 key=69 velocity: 0
@46320 $193.0 Channel: 1 Note on, C#6 key=85 velocity: 100
@46320 $193.0 Channel: 1 Note on, C#5 key=73 velocity: 100
@46380 $193.25 Channel: 1 Note on, A5 key=81 velocity: 127
@46380 $193.25 Channel: 1 Note on, A4 key=69 velocity: 127
@46410 $193.375 Channel: 1 Note off, A4 key=69 velocity: 0
@46410 $193.375 Channel: 1 Note off, A5 key=81 velocity: 0
@46440 $193.5 Channel: 1 Note on, A5 key=81 velocity: 127
@46440 $193.5 Channel: 1 Note on, A4 key=69 velocity: 127
@46470 $193.625 Channel: 1 Note off, A4 key=69 velocity: 0
@46470 $193.625 Channel: 1 Note off, A5 key=81 velocity: 0
@46500 $193.75 Channel: 1 Note on, A5 key=81 velocity: 127
@46500 $193.75 Channel: 1 Note on, A4 key=69 velocity: 127
@46530 $193.875 Channel: 1 Note off, A4 key=69 velocity: 0
@46530 $193.875 Channel: 1 Note off, A5 key=81 velocity: 0
@46560 $194.0 Channel: 1 Note off, C#5 key=73 velocity: 0
@46560 $194.0 Channel: 1 Note off, C#6 key=85 velocity: 0
@46560 $194.0 Channel: 1 Note on, C#5 key=73 velocity: 100
@46560 $194.0 Channel: 1 Note on, C#6 key=85 velocity: 100
@46560 $194.0 Channel: 1 Note on, A3 key=57 velocity: 100
@46570 $194.04166666666666 Channel: 1 Note off, A3 key=57 velocity: 0
@46570 $194.04166666666666 Channel: 1 Note on, C#4 key=61 velocity: 100
@46580 $194.08333333333334 Channel: 1 Note off, C#4 key=61 velocity: 0
@46580 $194.08333333333334 Channel: 1 Note on, E4 key=64 velocity: 100
@46590 $194.125 Channel: 1 Note off, E4 key=64 velocity: 0
@46620 $194.25 Channel: 1 Note on, C#6 key=85 velocity: 127
@46620 $194.25 Channel: 1 Note on, A4 key=69 velocity: 127
@46650 $194.375 Channel: 1 Note off, A4 key=69 velocity: 0
@46650 $194.375 Channel: 1 Note off, C#6 key=85 velocity: 0
@46680 $194.5 Channel: 1 Note on, C#6 key=85 velocity: 127
@46680 $194.5 Channel: 1 Note on, A4 key=69 velocity: 127
@46710 $194.625 Channel: 1 Note off, A4 key=69 velocity: 0
@46710 $194.625 Channel: 1 Note off, C#6 key=85 velocity: 0
@46740 $194.75 Channel: 1 Note on, C#6 key=85 velocity: 127
@46740 $194.75 Channel: 1 Note on, A4 key=69 velocity: 127
@46770 $194.875 Channel: 1 Note off, A4 key=69 velocity: 0
@46770 $194.875 Channel: 1 Note off, C#6 key=85 velocity: 0
@46800 $195.0 Channel: 1 Note off, C#6 key=85 velocity: 0
@46800 $195.0 Channel: 1 Note off, C#5 key=73 velocity: 0
@46800 $195.0 Channel: 1 Note on, D5 key=74 velocity: 100
@46800 $195.0 Channel: 1 Note on, D6 key=86 velocity: 100
@46800 $195.0 Channel: 1 Note on, A3 key=57 velocity: 100
@46810 $195.04166666666666 Channel: 1 Note off, A3 key=57 velocity: 0
@46810 $195.04166666666666 Channel: 1 Note on, C#4 key=61 velocity: 100
@46820 $195.08333333333334 Channel: 1 Note off, C#4 key=61 velocity: 0
@46820 $195.08333333333334 Channel: 1 Note on, E4 key=64 velocity: 100
@46830 $195.125 Channel: 1 Note off, E4 key=64 velocity: 0
@46830 $195.125 Channel: 1 Note off, D6 key=86 velocity: 0
@46830 $195.125 Channel: 1 Note off, D5 key=74 velocity: 0
@46830 $195.125 Channel: 1 Note on, C#6 key=85 velocity: 100
@46830 $195.125 Channel: 1 Note on, C#5 key=73 velocity: 100
@46860 $195.25 Channel: 1 Note off, C#5 key=73 velocity: 0
@46860 $195.25 Channel: 1 Note off, C#6 key=85 velocity: 0
@46860 $195.25 Channel: 1 Note on, B5 key=83 velocity: 100
@46860 $195.25 Channel: 1 Note on, B4 key=71 velocity: 100
@46890 $195.375 Channel: 1 Note off, B4 key=71 velocity: 0
@46890 $195.375 Channel: 1 Note off, B5 key=83 velocity: 0
@46890 $195.375 Channel: 1 Note on, C#5 key=73 velocity: 100
@46890 $195.375 Channel: 1 Note on, C#6 key=85 velocity: 100
@46920 $195.5 Channel: 1 Note off, C#6 key=85 velocity: 0
@46920 $195.5 Channel: 1 Note off, C#5 key=73 velocity: 0
@46920 $195.5 Channel: 1 Note on, D5 key=74 velocity: 100
@46920 $195.5 Channel: 1 Note on, D6 key=86 velocity: 100
@46950 $195.625 Channel: 1 Note off, D6 key=86 velocity: 0
@46950 $195.625 Channel: 1 Note off, D5 key=74 velocity: 0
@46950 $195.625 Channel: 1 Note on, C#5 key=73 velocity: 100
@46950 $195.625 Channel: 1 Note on, C#6 key=85 velocity: 100
@46980 $195.75 Channel: 1 Note off, C#6 key=85 velocity: 0
@46980 $195.75 Channel: 1 Note off, C#5 key=73 velocity: 0
@46980 $195.75 Channel: 1 Note on, B4 key=71 velocity: 100
@46980 $195.75 Channel: 1 Note on, B5 key=83 velocity: 100
@47010 $195.875 Channel: 1 Note off, B5 key=83 velocity: 0
@47010 $195.875 Channel: 1 Note off, B4 key=71 velocity: 0
@47010 $195.875 Channel: 1 Note on, C#5 key=73 velocity: 100
@47010 $195.875 Channel: 1 Note on, C#6 key=85 velocity: 100
@47040 $196.0 Channel: 1 Note off, C#6 key=85 velocity: 0
@47040 $196.0 Channel: 1 Note off, C#5 key=73 velocity: 0
@47040 $196.0 Channel: 1 Note on, A4 key=69 velocity: 127
@47040 $196.0 Channel: 1 Note on, F#4 key=66 velocity: 127
@47040 $196.0 Channel: 1 Note on, D5 key=74 velocity: 127
@47040 $196.0 Channel: 1 Note on, D3 key=50 velocity: 100
@47050 $196.04166666666666 Channel: 1 Note off, D3 key=50 velocity: 0
@47050 $196.04166666666666 Channel: 1 Note on, F#3 key=54 velocity: 100
@47060 $196.08333333333334 Channel: 1 Note off, F#3 key=54 velocity: 0
@47060 $196.08333333333334 Channel: 1 Note on, A3 key=57 velocity: 100
@47070 $196.125 Channel: 1 Note off, A3 key=57 velocity: 0
@47100 $196.25 Channel: 1 Note off, A4 key=69 velocity: 0
@47100 $196.25 Channel: 1 Note off, F#4 key=66 velocity: 0
@47100 $196.25 Channel: 1 Note off, D5 key=74 velocity: 0
@47100 $196.25 Channel: 1 Note on, F#4 key=66 velocity: 127
@47100 $196.25 Channel: 1 Note on, A4 key=69 velocity: 127
@47100 $196.25 Channel: 1 Note on, D5 key=74 velocity: 127
@47160 $196.5 Channel: 1 Note off, D5 key=74 velocity: 0
@47160 $196.5 Channel: 1 Note off, A4 key=69 velocity: 0
@47160 $196.5 Channel: 1 Note off, F#4 key=66 velocity: 0
@47160 $196.5 Channel: 1 Note on, F#4 key=66 velocity: 127
@47160 $196.5 Channel: 1 Note on, A4 key=69 velocity: 127
@47160 $196.5 Channel: 1 Note on, D5 key=74 velocity: 127
@47220 $196.75 Channel: 1 Note off, D5 key=74 velocity: 0
@47220 $196.75 Channel: 1 Note off, A4 key=69 velocity: 0
@47220 $196.75 Channel: 1 Note off, F#4 key=66 velocity: 0
@47220 $196.75 Channel: 1 Note on, F#4 key=66 velocity: 127
@47220 $196.75 Channel: 1 Note on, A4 key=69 velocity: 127
@47220 $196.75 Channel: 1 Note on, D5 key=74 velocity: 127
@47280 $197.0 Channel: 1 Note off, D5 key=74 velocity: 0
@47280 $197.0 Channel: 1 Note off, A4 key=69 velocity: 0
@47280 $197.0 Channel: 1 Note off, F#4 key=66 velocity: 0
@47280 $197.0 Channel: 1 Note on, E5 key=76 velocity: 75
@47280 $197.0 Channel: 1 Note on, A5 key=81 velocity: 75
@47280 $197.0 Channel: 1 Note on, A4 key=69 velocity: 75
@47310 $197.125 Channel: 1 Note off, A4 key=69 velocity: 0
@47310 $197.125 Channel: 1 Note off, A5 key=81 velocity: 0
@47310 $197.125 Channel: 1 Note off, E5 key=76 velocity: 0
@47340 $197.25 Channel: 1 Note on, E5 key=76 velocity: 75
@47340 $197.25 Channel: 1 Note on, A5 key=81 velocity: 75
@47340 $197.25 Channel: 1 Note on, A4 key=69 velocity: 75
@47370 $197.375 Channel: 1 Note off, A4 key=69 velocity: 0
@47370 $197.375 Channel: 1 Note off, A5 key=81 velocity: 0
@47370 $197.375 Channel: 1 Note off, E5 key=76 velocity: 0
@47400 $197.5 Channel: 1 Note on, E5 key=76 velocity: 75
@47400 $197.5 Channel: 1 Note on, A5 key=81 velocity: 75
@47400 $197.5 Channel: 1 Note on, A4 key=69 velocity: 75
@47430 $197.625 Channel: 1 Note off, A4 key=69 velocity: 0
@47430 $197.625 Channel: 1 Note off, A5 key=81 velocity: 0
@47430 $197.625 Channel: 1 Note off, E5 key=76 velocity: 0
@47460 $197.75 Channel: 1 Note on, E5 key=76 velocity: 75
@47460 $197.75 Channel: 1 Note on, A5 key=81 velocity: 75
@47460 $197.75 Channel: 1 Note on, A4 key=69 velocity: 75
@47490 $197.875 Channel: 1 Note off, A4 key=69 velocity: 0
@47490 $197.875 Channel: 1 Note off, A5 key=81 velocity: 0
@47490 $197.875 Channel: 1 Note off, E5 key=76 velocity: 0
@47520 $198.0 Channel: 1 Note on, E4 key=64 velocity: 75
@47520 $198.0 Channel: 1 Note on, E5 key=76 velocity: 75
@47550 $198.125 Channel: 1 Note off, E5 key=76 velocity: 0
@47550 $198.125 Channel: 1 Note off, E4 key=64 velocity: 0
@47580 $198.25 Channel: 1 Note on, E4 key=64 velocity: 75
@47580 $198.25 Channel: 1 Note on, E5 key=76 velocity: 75
@47610 $198.375 Channel: 1 Note off, E5 key=76 velocity: 0
@47610 $198.375 Channel: 1 Note off, E4 key=64 velocity: 0
@47640 $198.5 Channel: 1 Note on, E4 key=64 velocity: 75
@47640 $198.5 Channel: 1 Note on, E5 key=76 velocity: 75
@47670 $198.625 Channel: 1 Note off, E5 key=76 velocity: 0
@47670 $198.625 Channel: 1 Note off, E4 key=64 velocity: 0
@47700 $198.75 Channel: 1 Note on, E4 key=64 velocity: 75
@47700 $198.75 Channel: 1 Note on, E5 key=76 velocity: 75
@47730 $198.875 Channel: 1 Note off, E5 key=76 velocity: 0
@47730 $198.875 Channel: 1 Note off, E4 key=64 velocity: 0
@47760 $199.0 Channel: 1 Note on, E5 key=76 velocity: 75
@47760 $199.0 Channel: 1 Note on, A5 key=81 velocity: 75
@47760 $199.0 Channel: 1 Note on, A4 key=69 velocity: 75
@47790 $199.125 Channel: 1 Note off, A4 key=69 velocity: 0
@47790 $199.125 Channel: 1 Note off, A5 key=81 velocity: 0
@47790 $199.125 Channel: 1 Note off, E5 key=76 velocity: 0
@47820 $199.25 Channel: 1 Note on, E5 key=76 velocity: 75
@47820 $199.25 Channel: 1 Note on, A5 key=81 velocity: 75
@47820 $199.25 Channel: 1 Note on, A4 key=69 velocity: 75
@47850 $199.375 Channel: 1 Note off, A4 key=69 velocity: 0
@47850 $199.375 Channel: 1 Note off, A5 key=81 velocity: 0
@47850 $199.375 Channel: 1 Note off, E5 key=76 velocity: 0
@47880 $199.5 Channel: 1 Note on, E5 key=76 velocity: 75
@47880 $199.5 Channel: 1 Note on, A5 key=81 velocity: 75
@47880 $199.5 Channel: 1 Note on, A4 key=69 velocity: 75
@47910 $199.625 Channel: 1 Note off, A4 key=69 velocity: 0
@47910 $199.625 Channel: 1 Note off, A5 key=81 velocity: 0
@47910 $199.625 Channel: 1 Note off, E5 key=76 velocity: 0
@47940 $199.75 Channel: 1 Note on, E5 key=76 velocity: 75
@47940 $199.75 Channel: 1 Note on, A5 key=81 velocity: 75
@47940 $199.75 Channel: 1 Note on, A4 key=69 velocity: 75
@47970 $199.875 Channel: 1 Note off, A4 key=69 velocity: 0
@47970 $199.875 Channel: 1 Note off, A5 key=81 velocity: 0
@47970 $199.875 Channel: 1 Note off, E5 key=76 velocity: 0
@48000 $200.0 Channel: 1 Note on, E5 key=76 velocity: 75
@48000 $200.0 Channel: 1 Note on, A5 key=81 velocity: 75
@48000 $200.0 Channel: 1 Note on, A4 key=69 velocity: 75
@48030 $200.125 Channel: 1 Note off, A4 key=69 velocity: 0
@48030 $200.125 Channel: 1 Note off, A5 key=81 velocity: 0
@48030 $200.125 Channel: 1 Note off, E5 key=76 velocity: 0
@48060 $200.25 Channel: 1 Note on, E5 key=76 velocity: 75
@48060 $200.25 Channel: 1 Note on, A5 key=81 velocity: 75
@48060 $200.25 Channel: 1 Note on, A4 key=69 velocity: 75
@48090 $200.375 Channel: 1 Note off, A4 key=69 velocity: 0
@48090 $200.375 Channel: 1 Note off, A5 key=81 velocity: 0
@48090 $200.375 Channel: 1 Note off, E5 key=76 velocity: 0
@48120 $200.5 Channel: 1 Note on, E5 key=76 velocity: 75
@48120 $200.5 Channel: 1 Note on, A5 key=81 velocity: 75
@48120 $200.5 Channel: 1 Note on, A4 key=69 velocity: 75
@48150 $200.625 Channel: 1 Note off, A4 key=69 velocity: 0
@48150 $200.625 Channel: 1 Note off, A5 key=81 velocity: 0
@48150 $200.625 Channel: 1 Note off, E5 key=76 velocity: 0
@48180 $200.75 Channel: 1 Note on, E5 key=76 velocity: 75
@48180 $200.75 Channel: 1 Note on, A5 key=81 velocity: 75
@48180 $200.75 Channel: 1 Note on, A4 key=69 velocity: 75
@48210 $200.875 Channel: 1 Note off, A4 key=69 velocity: 0
@48210 $200.875 Channel: 1 Note off, A5 key=81 velocity: 0
@48210 $200.875 Channel: 1 Note off, E5 key=76 velocity: 0
@48240 $201.0 Channel: 1 Note on, D5 key=74 velocity: 127
@48270 $201.125 Channel: 1 Note off, D5 key=74 velocity: 0
@48270 $201.125 Channel: 1 Note on, C#5 key=73 velocity: 127
@48300 $201.25 Channel: 1 Note off, C#5 key=73 velocity: 0
@48300 $201.25 Channel: 1 Note on, B4 key=71 velocity: 127
@48330 $201.375 Channel: 1 Note off, B4 key=71 velocity: 0
@48330 $201.375 Channel: 1 Note on, C#5 key=73 velocity: 127
@48360 $201.5 Channel: 1 Note off, C#5 key=73 velocity: 0
@48360 $201.5 Channel: 1 Note on, D5 key=74 velocity: 127
@48390 $201.625 Channel: 1 Note off, D5 key=74 velocity: 0
@48390 $201.625 Channel: 1 Note on, C#5 key=73 velocity: 127
@48420 $201.75 Channel: 1 Note off, C#5 key=73 velocity: 0
@48420 $201.75 Channel: 1 Note on, B4 key=71 velocity: 127
@48450 $201.875 Channel: 1 Note off, B4 key=71 velocity: 0
@48450 $201.875 Channel: 1 Note on, C#5 key=73 velocity: 127
@48480 $202.0 Channel: 1 Note off, C#5 key=73 velocity: 0
@48480 $202.0 Channel: 1 Note on, D5 key=74 velocity: 127
@48510 $202.125 Channel: 1 Note off, D5 key=74 velocity: 0
@48540 $202.25 Channel: 1 Note on, D5 key=74 velocity: 127
@48570 $202.375 Channel: 1 Note off, D5 key=74 velocity: 0
@48600 $202.5 Channel: 1 Note on, D5 key=74 velocity: 127
@48630 $202.625 Channel: 1 Note off, D5 key=74 velocity: 0
@48660 $202.75 Channel: 1 Note on, D5 key=74 velocity: 127
@48690 $202.875 Channel: 1 Note off, D5 key=74 velocity: 0
@48720 $203.0 Channel: 1 Note on, C#5 key=73 velocity: 127
@48750 $203.125 Channel: 1 Note off, C#5 key=73 velocity: 0
@48780 $203.25 Channel: 1 Note on, C#5 key=73 velocity: 127
@48810 $203.375 Channel: 1 Note off, C#5 key=73 velocity: 0
@48840 $203.5 Channel: 1 Note on, C#5 key=73 velocity: 127
@48870 $203.625 Channel: 1 Note off, C#5 key=73 velocity: 0
@48900 $203.75 Channel: 1 Note on, C#5 key=73 velocity: 127
@48930 $203.875 Channel: 1 Note off, C#5 key=73 velocity: 0
@48960 $204.0 Channel: 1 Note on, B4 key=71 velocity: 127
@49005 $204.1875 Channel: 1 Note off, B4 key=71 velocity: 0
@49020 $204.25 Channel: 1 Note on, B4 key=71 velocity: 127
@49065 $204.4375 Channel: 1 Note off, B4 key=71 velocity: 0
@49080 $204.5 Channel: 1 Note on, B4 key=71 velocity: 127
@49125 $204.6875 Channel: 1 Note off, B4 key=71 velocity: 0
@49140 $204.75 Channel: 1 Note on, B4 key=71 velocity: 127
@49185 $204.9375 Channel: 1 Note off, B4 key=71 velocity: 0
@49200 $205.0 Channel: 1 Note on, A4 key=69 velocity: 127
@49245 $205.1875 Channel: 1 Note off, A4 key=69 velocity: 0
@49260 $205.25 Channel: 1 Note on, A4 key=69 velocity: 127
@49305 $205.4375 Channel: 1 Note off, A4 key=69 velocity: 0
@49320 $205.5 Channel: 1 Note on, A4 key=69 velocity: 127
@49365 $205.6875 Channel: 1 Note off, A4 key=69 velocity: 0
@49380 $205.75 Channel: 1 Note on, A4 key=69 velocity: 127
@49425 $205.9375 Channel: 1 Note off, A4 key=69 velocity: 0
@49440 $206.0 Channel: 1 Note on, C#5 key=73 velocity: 127
@49485 $206.1875 Channel: 1 Note off, C#5 key=73 velocity: 0
@49500 $206.25 Channel: 1 Note on, C#5 key=73 velocity: 127
@49545 $206.4375 Channel: 1 Note off, C#5 key=73 velocity: 0
@49560 $206.5 Channel: 1 Note on, C#5 key=73 velocity: 127
@49605 $206.6875 Channel: 1 Note off, C#5 key=73 velocity: 0
@49620 $206.75 Channel: 1 Note on, C#5 key=73 velocity: 127
@49665 $206.9375 Channel: 1 Note off, C#5 key=73 velocity: 0
@49680 $207.0 Channel: 1 Note on, C#4 key=61 velocity: 127
@49725 $207.1875 Channel: 1 Note off, C#4 key=61 velocity: 0
@49740 $207.25 Channel: 1 Note on, C#4 key=61 velocity: 127
@49785 $207.4375 Channel: 1 Note off, C#4 key=61 velocity: 0
@49800 $207.5 Channel: 1 Note on, C#4 key=61 velocity: 127
@49845 $207.6875 Channel: 1 Note off, C#4 key=61 velocity: 0
@49860 $207.75 Channel: 1 Note on, C#4 key=61 velocity: 127
@49905 $207.9375 Channel: 1 Note off, C#4 key=61 velocity: 0
@49920 $208.0 Channel: 1 Note on, D5 key=74 velocity: 127
@49950 $208.125 Channel: 1 Note off, D5 key=74 velocity: 0
@49950 $208.125 Channel: 1 Note on, C#5 key=73 velocity: 127
@49980 $208.25 Channel: 1 Note off, C#5 key=73 velocity: 0
@49980 $208.25 Channel: 1 Note on, B4 key=71 velocity: 127
@50010 $208.375 Channel: 1 Note off, B4 key=71 velocity: 0
@50010 $208.375 Channel: 1 Note on, C#5 key=73 velocity: 127
@50040 $208.5 Channel: 1 Note off, C#5 key=73 velocity: 0
@50040 $208.5 Channel: 1 Note on, D5 key=74 velocity: 127
@50070 $208.625 Channel: 1 Note off, D5 key=74 velocity: 0
@50070 $208.625 Channel: 1 Note on, C#5 key=73 velocity: 127
@50100 $208.75 Channel: 1 Note off, C#5 key=73 velocity: 0
@50100 $208.75 Channel: 1 Note on, B4 key=71 velocity: 127
@50130 $208.875 Channel: 1 Note off, B4 key=71 velocity: 0
@50130 $208.875 Channel: 1 Note on, C#5 key=73 velocity: 127
@50160 $209.0 Channel: 1 Note off, C#5 key=73 velocity: 0
@50160 $209.0 Channel: 1 Note on, D5 key=74 velocity: 127
@50190 $209.125 Channel: 1 Note off, D5 key=74 velocity: 0
@50220 $209.25 Channel: 1 Note on, D5 key=74 velocity: 127
@50250 $209.375 Channel: 1 Note off, D5 key=74 velocity: 0
@50280 $209.5 Channel: 1 Note on, D5 key=74 velocity: 127
@50310 $209.625 Channel: 1 Note off, D5 key=74 velocity: 0
@50340 $209.75 Channel: 1 Note on, D5 key=74 velocity: 127
@50370 $209.875 Channel: 1 Note off, D5 key=74 velocity: 0
@50400 $210.0 Channel: 1 Note on, C#4 key=61 velocity: 127
@50430 $210.125 Channel: 1 Note off, C#4 key=61 velocity: 0
@50460 $210.25 Channel: 1 Note on, C#4 key=61 velocity: 127
@50490 $210.375 Channel: 1 Note off, C#4 key=61 velocity: 0
@50520 $210.5 Channel: 1 Note on, C#4 key=61 velocity: 127
@50550 $210.625 Channel: 1 Note off, C#4 key=61 velocity: 0
@50580 $210.75 Channel: 1 Note on, C#4 key=61 velocity: 127
@50610 $210.875 Channel: 1 Note off, C#4 key=61 velocity: 0
@50640 $211.0 Channel: 1 Note on, B4 key=71 velocity: 127
@50670 $211.125 Channel: 1 Note off, B4 key=71 velocity: 0
@50700 $211.25 Channel: 1 Note on, B4 key=71 velocity: 127
@50730 $211.375 Channel: 1 Note off, B4 key=71 velocity: 0
@50760 $211.5 Channel: 1 Note on, B4 key=71 velocity: 127
@50790 $211.625 Channel: 1 Note off, B4 key=71 velocity: 0
@50820 $211.75 Channel: 1 Note on, B4 key=71 velocity: 127
@50850 $211.875 Channel: 1 Note off, B4 key=71 velocity: 0
@50880 $212.0 Channel: 1 Note on, C#5 key=73 velocity: 127
@50910 $212.125 Channel: 1 Note off, C#5 key=73 velocity: 0
@50940 $212.25 Channel: 1 Note on, C#5 key=73 velocity: 127
@50970 $212.375 Channel: 1 Note off, C#5 key=73 velocity: 0
@51000 $212.5 Channel: 1 Note on, C#5 key=73 velocity: 127
@51030 $212.625 Channel: 1 Note off, C#5 key=73 velocity: 0
@51060 $212.75 Channel: 1 Note on, C#5 key=73 velocity: 127
@51090 $212.875 Channel: 1 Note off, C#5 key=73 velocity: 0
@51120 $213.0 Channel: 1 Note on, C#5 key=73 velocity: 127
@51150 $213.125 Channel: 1 Note off, C#5 key=73 velocity: 0
@51180 $213.25 Channel: 1 Note on, C#5 key=73 velocity: 127
@51210 $213.375 Channel: 1 Note off, C#5 key=73 velocity: 0
@51240 $213.5 Channel: 1 Note on, C#5 key=73 velocity: 127
@51270 $213.625 Channel: 1 Note off, C#5 key=73 velocity: 0
@51300 $213.75 Channel: 1 Note on, C#5 key=73 velocity: 127
@51330 $213.875 Channel: 1 Note off, C#5 key=73 velocity: 0
@51360 $214.0 Channel: 1 Note on, D4 key=62 velocity: 127
@51390 $214.125 Channel: 1 Note off, D4 key=62 velocity: 0
@51390 $214.125 Channel: 1 Note on, C#4 key=61 velocity: 127
@51420 $214.25 Channel: 1 Note off, C#4 key=61 velocity: 0
@51420 $214.25 Channel: 1 Note on, B3 key=59 velocity: 127
@51450 $214.375 Channel: 1 Note off, B3 key=59 velocity: 0
@51450 $214.375 Channel: 1 Note on, C#4 key=61 velocity: 127
@51480 $214.5 Channel: 1 Note off, C#4 key=61 velocity: 0
@51480 $214.5 Channel: 1 Note on, D4 key=62 velocity: 127
@51510 $214.625 Channel: 1 Note off, D4 key=62 velocity: 0
@51510 $214.625 Channel: 1 Note on, C#4 key=61 velocity: 127
@51540 $214.75 Channel: 1 Note off, C#4 key=61 velocity: 0
@51540 $214.75 Channel: 1 Note on, B3 key=59 velocity: 127
@51570 $214.875 Channel: 1 Note off, B3 key=59 velocity: 0
@51570 $214.875 Channel: 1 Note on, C#4 key=61 velocity: 127
@51600 $215.0 Channel: 1 Note off, C#4 key=61 velocity: 0
@51600 $215.0 Channel: 1 Note on, D5 key=74 velocity: 127
@51630 $215.125 Channel: 1 Note off, D5 key=74 velocity: 0
@51660 $215.25 Channel: 1 Note on, D5 key=74 velocity: 127
@51690 $215.375 Channel: 1 Note off, D5 key=74 velocity: 0
@51720 $215.5 Channel: 1 Note on, D5 key=74 velocity: 127
@51750 $215.625 Channel: 1 Note off, D5 key=74 velocity: 0
@51780 $215.75 Channel: 1 Note on, D5 key=74 velocity: 127
@51810 $215.875 Channel: 1 Note off, D5 key=74 velocity: 0
@51840 $216.0 Channel: 1 Note on, C#4 key=61 velocity: 127
@51870 $216.125 Channel: 1 Note off, C#4 key=61 velocity: 0
@51900 $216.25 Channel: 1 Note on, C#4 key=61 velocity: 127
@51930 $216.375 Channel: 1 Note off, C#4 key=61 velocity: 0
@51960 $216.5 Channel: 1 Note on, C#4 key=61 velocity: 127
@51990 $216.625 Channel: 1 Note off, C#4 key=61 velocity: 0
@52020 $216.75 Channel: 1 Note on, C#4 key=61 velocity: 127
@52050 $216.875 Channel: 1 Note off, C#4 key=61 velocity: 0
@52080 $217.0 Channel: 1 Note on, B4 key=71 velocity: 127
@52110 $217.125 Channel: 1 Note off, B4 key=71 velocity: 0
@52140 $217.25 Channel: 1 Note on, B4 key=71 velocity: 127
@52170 $217.375 Channel: 1 Note off, B4 key=71 velocity: 0
@52200 $217.5 Channel: 1 Note on, B4 key=71 velocity: 127
@52230 $217.625 Channel: 1 Note off, B4 key=71 velocity: 0
@52260 $217.75 Channel: 1 Note on, B4 key=71 velocity: 127
@52290 $217.875 Channel: 1 Note off, B4 key=71 velocity: 0
@52320 $218.0 Channel: 1 Note on, A4 key=69 velocity: 127
@52350 $218.125 Channel: 1 Note off, A4 key=69 velocity: 0
@52380 $218.25 Channel: 1 Note on, A4 key=69 velocity: 127
@52410 $218.375 Channel: 1 Note off, A4 key=69 velocity: 0
@52440 $218.5 Channel: 1 Note on, A4 key=69 velocity: 127
@52470 $218.625 Channel: 1 Note off, A4 key=69 velocity: 0
@52500 $218.75 Channel: 1 Note on, C#5 key=73 velocity: 127
@52530 $218.875 Channel: 1 Note off, C#5 key=73 velocity: 0
@52560 $219.0 Channel: 1 Note on, A4 key=69 velocity: 127
@52590 $219.125 Channel: 1 Note off, A4 key=69 velocity: 0
@52620 $219.25 Channel: 1 Note on, A4 key=69 velocity: 127
@52650 $219.375 Channel: 1 Note off, A4 key=69 velocity: 0
@52680 $219.5 Channel: 1 Note on, A4 key=69 velocity: 127
@52710 $219.625 Channel: 1 Note off, A4 key=69 velocity: 0
@52740 $219.75 Channel: 1 Note on, E5 key=76 velocity: 127
@52770 $219.875 Channel: 1 Note off, E5 key=76 velocity: 0
@52800 $220.0 Channel: 1 Note on, A4 key=69 velocity: 127
@52830 $220.125 Channel: 1 Note off, A4 key=69 velocity: 0
@52860 $220.25 Channel: 1 Note on, A4 key=69 velocity: 127
@52890 $220.375 Channel: 1 Note off, A4 key=69 velocity: 0
@52920 $220.5 Channel: 1 Note on, A4 key=69 velocity: 127
@52950 $220.625 Channel: 1 Note off, A4 key=69 velocity: 0
@52980 $220.75 Channel: 1 Note on, E5 key=76 velocity: 127
@53010 $220.875 Channel: 1 Note off, E5 key=76 velocity: 0
@53040 $221.0 Channel: 1 Note on, A4 key=69 velocity: 127
@53070 $221.125 Channel: 1 Note off, A4 key=69 velocity: 0
@53100 $221.25 Channel: 1 Note on, C#5 key=73 velocity: 127
@53130 $221.375 Channel: 1 Note off, C#5 key=73 velocity: 0
@53160 $221.5 Channel: 1 Note on, A4 key=69 velocity: 127
@53190 $221.625 Channel: 1 Note off, A4 key=69 velocity: 0
@53220 $221.75 Channel: 1 Note on, E5 key=76 velocity: 127
@53250 $221.875 Channel: 1 Note off, E5 key=76 velocity: 0
@53280 $222.0 Channel: 1 Note on, E5 key=76 velocity: 127
@53280 $222.0 Channel: 1 Note on, A4 key=69 velocity: 127
@53340 $222.25 Channel: 1 Note off, A4 key=69 velocity: 0
@53340 $222.25 Channel: 1 Note off, E5 key=76 velocity: 0
@53400 $222.5 Channel: 1 Note on, E5 key=76 velocity: 127
@53400 $222.5 Channel: 1 Note on, A4 key=69 velocity: 127
@53640 $223.5 Channel: 1 Note off, A4 key=69 velocity: 0
@53640 $223.5 Channel: 1 Note off, E5 key=76 velocity: 0
@53760 $224.0 Channel: 1 Note on, A3 key=57 velocity: 127
@53760 $224.0 Channel: 1 Note on, A2 key=45 velocity: 127
@53760 $224.0 Channel: 1 Note on, E5 key=76 velocity: 127
@53760 $224.0 Channel: 1 Note on, A4 key=69 velocity: 127
@54240 $226.0 Channel: 1 Note off, A4 key=69 velocity: 0
@54240 $226.0 Channel: 1 Note off, A3 key=57 velocity: 0
@54240 $226.0 Channel: 1 Note off, A2 key=45 velocity: 0
@54240 $226.0 Channel: 1 Note off, E5 key=76 velocity: 0
@54240 $226.0 Other meta message: class javax.sound.midi.Track$ImmutableEndOfTrack

Track 5: size = 186
@0 $0.0 Other meta message: class javax.sound.midi.MetaMessage
@0 $0.0 Other meta message: class javax.sound.midi.MetaMessage
@0 $0.0 Channel: 2 Other short message:192
@0 $0.0 Channel: 2 Control Change message
@0 $0.0 Channel: 2 Control Change message
@240 $1.0 Channel: 2 Note on, E4 key=64 velocity: 90
@270 $1.125 Channel: 2 Note off, E4 key=64 velocity: 0
@480 $2.0 Channel: 2 Note on, E4 key=64 velocity: 90
@510 $2.125 Channel: 2 Note off, E4 key=64 velocity: 0
@720 $3.0 Channel: 2 Note on, B4 key=71 velocity: 90
@750 $3.125 Channel: 2 Note off, B4 key=71 velocity: 0
@840 $3.5 Channel: 2 Note on, B4 key=71 velocity: 90
@870 $3.625 Channel: 2 Note off, B4 key=71 velocity: 0
@960 $4.0 Channel: 2 Note on, C5 key=72 velocity: 90
@990 $4.125 Channel: 2 Note off, C5 key=72 velocity: 0
@1200 $5.0 Channel: 2 Note on, E4 key=64 velocity: 90
@1200 $5.0 Channel: 2 Note on, B4 key=71 velocity: 90
@1230 $5.125 Channel: 2 Note off, B4 key=71 velocity: 0
@1230 $5.125 Channel: 2 Note off, E4 key=64 velocity: 0
@1440 $6.0 Channel: 2 Note on, E4 key=64 velocity: 90
@1440 $6.0 Channel: 2 Note on, B4 key=71 velocity: 90
@1470 $6.125 Channel: 2 Note off, B4 key=71 velocity: 0
@1470 $6.125 Channel: 2 Note off, E4 key=64 velocity: 0
@1680 $7.0 Channel: 2 Note on, E4 key=64 velocity: 90
@1680 $7.0 Channel: 2 Note on, B4 key=71 velocity: 90
@1710 $7.125 Channel: 2 Note off, B4 key=71 velocity: 0
@1710 $7.125 Channel: 2 Note off, E4 key=64 velocity: 0
@1800 $7.5 Channel: 2 Note on, G5 key=79 velocity: 90
@1830 $7.625 Channel: 2 Note off, G5 key=79 velocity: 0
@1860 $7.75 Channel: 2 Note on, F5 key=77 velocity: 90
@1890 $7.875 Channel: 2 Note off, F5 key=77 velocity: 0
@1920 $8.0 Channel: 2 Note on, E5 key=76 velocity: 90
@1980 $8.25 Channel: 2 Note off, E5 key=76 velocity: 0
@2160 $9.0 Channel: 2 Note on, C5 key=72 velocity: 90
@2190 $9.125 Channel: 2 Note off, C5 key=72 velocity: 0
@2400 $10.0 Channel: 2 Note on, E5 key=76 velocity: 90
@2430 $10.125 Channel: 2 Note off, E5 key=76 velocity: 0
@2640 $11.0 Channel: 2 Note on, B5 key=83 velocity: 90
@2670 $11.125 Channel: 2 Note off, B5 key=83 velocity: 0
@2760 $11.5 Channel: 2 Note on, B5 key=83 velocity: 90
@2790 $11.625 Channel: 2 Note off, B5 key=83 velocity: 0
@2880 $12.0 Channel: 2 Note on, C6 key=84 velocity: 90
@2910 $12.125 Channel: 2 Note off, C6 key=84 velocity: 0
@3120 $13.0 Channel: 2 Note on, B5 key=83 velocity: 90
@3150 $13.125 Channel: 2 Note off, B5 key=83 velocity: 0
@3360 $14.0 Channel: 2 Note on, B5 key=83 velocity: 90
@3390 $14.125 Channel: 2 Note off, B5 key=83 velocity: 0
@3600 $15.0 Channel: 2 Note on, B5 key=83 velocity: 90
@3630 $15.125 Channel: 2 Note off, B5 key=83 velocity: 0
@3720 $15.5 Channel: 2 Note on, G5 key=79 velocity: 90
@3750 $15.625 Channel: 2 Note off, G5 key=79 velocity: 0
@3780 $15.75 Channel: 2 Note on, F5 key=77 velocity: 90
@3810 $15.875 Channel: 2 Note off, F5 key=77 velocity: 0
@3840 $16.0 Channel: 2 Note on, E5 key=76 velocity: 90
@3900 $16.25 Channel: 2 Note off, E5 key=76 velocity: 0
@4080 $17.0 Channel: 2 Note on, A3 key=57 velocity: 90
@4110 $17.125 Channel: 2 Note off, A3 key=57 velocity: 0
@4140 $17.25 Channel: 2 Note on, A4 key=69 velocity: 90
@4170 $17.375 Channel: 2 Note off, A4 key=69 velocity: 0
@4200 $17.5 Channel: 2 Note on, C4 key=60 velocity: 90
@4230 $17.625 Channel: 2 Note off, C4 key=60 velocity: 0
@4260 $17.75 Channel: 2 Note on, C5 key=72 velocity: 90
@4290 $17.875 Channel: 2 Note off, C5 key=72 velocity: 0
@4320 $18.0 Channel: 2 Note on, E4 key=64 velocity: 90
@4380 $18.25 Channel: 2 Note off, E4 key=64 velocity: 0
@4560 $19.0 Channel: 2 Note on, A3 key=57 velocity: 90
@4590 $19.125 Channel: 2 Note off, A3 key=57 velocity: 0
@4620 $19.25 Channel: 2 Note on, A4 key=69 velocity: 90
@4650 $19.375 Channel: 2 Note off, A4 key=69 velocity: 0
@4680 $19.5 Channel: 2 Note on, C4 key=60 velocity: 90
@4710 $19.625 Channel: 2 Note off, C4 key=60 velocity: 0
@4740 $19.75 Channel: 2 Note on, C5 key=72 velocity: 90
@4770 $19.875 Channel: 2 Note off, C5 key=72 velocity: 0
@4800 $20.0 Channel: 2 Note on, E4 key=64 velocity: 90
@4830 $20.125 Channel: 2 Note off, E4 key=64 velocity: 0
@5040 $21.0 Channel: 2 Note on, A3 key=57 velocity: 90
@5100 $21.25 Channel: 2 Note off, A3 key=57 velocity: 0
@5100 $21.25 Channel: 2 Note on, A4 key=69 velocity: 90
@5130 $21.375 Channel: 2 Note off, A4 key=69 velocity: 0
@5160 $21.5 Channel: 2 Note on, C4 key=60 velocity: 90
@5190 $21.625 Channel: 2 Note off, C4 key=60 velocity: 0
@5220 $21.75 Channel: 2 Note on, C5 key=72 velocity: 90
@5250 $21.875 Channel: 2 Note off, C5 key=72 velocity: 0
@5280 $22.0 Channel: 2 Note on, E4 key=64 velocity: 90
@5340 $22.25 Channel: 2 Note off, E4 key=64 velocity: 0
@5520 $23.0 Channel: 2 Note on, A4 key=69 velocity: 90
@5580 $23.25 Channel: 2 Note off, A4 key=69 velocity: 0
@5580 $23.25 Channel: 2 Note on, A5 key=81 velocity: 90
@5610 $23.375 Channel: 2 Note off, A5 key=81 velocity: 0
@5640 $23.5 Channel: 2 Note on, C5 key=72 velocity: 90
@5670 $23.625 Channel: 2 Note off, C5 key=72 velocity: 0
@5700 $23.75 Channel: 2 Note on, C6 key=84 velocity: 90
@5730 $23.875 Channel: 2 Note off, C6 key=84 velocity: 0
@5760 $24.0 Channel: 2 Note on, E5 key=76 velocity: 90
@5790 $24.125 Channel: 2 Note off, E5 key=76 velocity: 0
@30960 $129.0 Channel: 2 Note on, E4 key=64 velocity: 90
@30990 $129.125 Channel: 2 Note off, E4 key=64 velocity: 0
@31200 $130.0 Channel: 2 Note on, E4 key=64 velocity: 90
@31230 $130.125 Channel: 2 Note off, E4 key=64 velocity: 0
@31440 $131.0 Channel: 2 Note on, B4 key=71 velocity: 90
@31470 $131.125 Channel: 2 Note off, B4 key=71 velocity: 0
@31560 $131.5 Channel: 2 Note on, B4 key=71 velocity: 90
@31590 $131.625 Channel: 2 Note off, B4 key=71 velocity: 0
@31680 $132.0 Channel: 2 Note on, C5 key=72 velocity: 90
@31710 $132.125 Channel: 2 Note off, C5 key=72 velocity: 0
@31920 $133.0 Channel: 2 Note on, E4 key=64 velocity: 90
@31920 $133.0 Channel: 2 Note on, B4 key=71 velocity: 90
@31950 $133.125 Channel: 2 Note off, B4 key=71 velocity: 0
@31950 $133.125 Channel: 2 Note off, E4 key=64 velocity: 0
@32160 $134.0 Channel: 2 Note on, E4 key=64 velocity: 90
@32160 $134.0 Channel: 2 Note on, B4 key=71 velocity: 90
@32190 $134.125 Channel: 2 Note off, B4 key=71 velocity: 0
@32190 $134.125 Channel: 2 Note off, E4 key=64 velocity: 0
@32400 $135.0 Channel: 2 Note on, E4 key=64 velocity: 90
@32400 $135.0 Channel: 2 Note on, B4 key=71 velocity: 90
@32430 $135.125 Channel: 2 Note off, B4 key=71 velocity: 0
@32430 $135.125 Channel: 2 Note off, E4 key=64 velocity: 0
@32520 $135.5 Channel: 2 Note on, G5 key=79 velocity: 90
@32550 $135.625 Channel: 2 Note off, G5 key=79 velocity: 0
@32580 $135.75 Channel: 2 Note on, F5 key=77 velocity: 90
@32610 $135.875 Channel: 2 Note off, F5 key=77 velocity: 0
@32640 $136.0 Channel: 2 Note on, E5 key=76 velocity: 90
@32700 $136.25 Channel: 2 Note off, E5 key=76 velocity: 0
@32880 $137.0 Channel: 2 Note on, C5 key=72 velocity: 90
@32910 $137.125 Channel: 2 Note off, C5 key=72 velocity: 0
@33120 $138.0 Channel: 2 Note on, E5 key=76 velocity: 90
@33150 $138.125 Channel: 2 Note off, E5 key=76 velocity: 0
@33360 $139.0 Channel: 2 Note on, B5 key=83 velocity: 90
@33390 $139.125 Channel: 2 Note off, B5 key=83 velocity: 0
@33480 $139.5 Channel: 2 Note on, B5 key=83 velocity: 90
@33510 $139.625 Channel: 2 Note off, B5 key=83 velocity: 0
@33600 $140.0 Channel: 2 Note on, C6 key=84 velocity: 90
@33630 $140.125 Channel: 2 Note off, C6 key=84 velocity: 0
@33840 $141.0 Channel: 2 Note on, B5 key=83 velocity: 90
@33870 $141.125 Channel: 2 Note off, B5 key=83 velocity: 0
@34080 $142.0 Channel: 2 Note on, B5 key=83 velocity: 90
@34110 $142.125 Channel: 2 Note off, B5 key=83 velocity: 0
@34320 $143.0 Channel: 2 Note on, B5 key=83 velocity: 90
@34350 $143.125 Channel: 2 Note off, B5 key=83 velocity: 0
@34440 $143.5 Channel: 2 Note on, G5 key=79 velocity: 90
@34470 $143.625 Channel: 2 Note off, G5 key=79 velocity: 0
@34500 $143.75 Channel: 2 Note on, F5 key=77 velocity: 90
@34530 $143.875 Channel: 2 Note off, F5 key=77 velocity: 0
@34560 $144.0 Channel: 2 Note on, E5 key=76 velocity: 90
@34620 $144.25 Channel: 2 Note off, E5 key=76 velocity: 0
@34800 $145.0 Channel: 2 Note on, A3 key=57 velocity: 90
@34830 $145.125 Channel: 2 Note off, A3 key=57 velocity: 0
@34860 $145.25 Channel: 2 Note on, A4 key=69 velocity: 90
@34890 $145.375 Channel: 2 Note off, A4 key=69 velocity: 0
@34920 $145.5 Channel: 2 Note on, C4 key=60 velocity: 90
@34950 $145.625 Channel: 2 Note off, C4 key=60 velocity: 0
@34980 $145.75 Channel: 2 Note on, C5 key=72 velocity: 90
@35010 $145.875 Channel: 2 Note off, C5 key=72 velocity: 0
@35040 $146.0 Channel: 2 Note on, E4 key=64 velocity: 90
@35100 $146.25 Channel: 2 Note off, E4 key=64 velocity: 0
@35280 $147.0 Channel: 2 Note on, A3 key=57 velocity: 90
@35310 $147.125 Channel: 2 Note off, A3 key=57 velocity: 0
@35340 $147.25 Channel: 2 Note on, A4 key=69 velocity: 90
@35370 $147.375 Channel: 2 Note off, A4 key=69 velocity: 0
@35400 $147.5 Channel: 2 Note on, C4 key=60 velocity: 90
@35430 $147.625 Channel: 2 Note off, C4 key=60 velocity: 0
@35460 $147.75 Channel: 2 Note on, C5 key=72 velocity: 90
@35490 $147.875 Channel: 2 Note off, C5 key=72 velocity: 0
@35520 $148.0 Channel: 2 Note on, E4 key=64 velocity: 90
@35550 $148.125 Channel: 2 Note off, E4 key=64 velocity: 0
@35760 $149.0 Channel: 2 Note on, A3 key=57 velocity: 90
@35820 $149.25 Channel: 2 Note off, A3 key=57 velocity: 0
@35820 $149.25 Channel: 2 Note on, A4 key=69 velocity: 90
@35850 $149.375 Channel: 2 Note off, A4 key=69 velocity: 0
@35880 $149.5 Channel: 2 Note on, C4 key=60 velocity: 90
@35910 $149.625 Channel: 2 Note off, C4 key=60 velocity: 0
@35940 $149.75 Channel: 2 Note on, C5 key=72 velocity: 90
@35970 $149.875 Channel: 2 Note off, C5 key=72 velocity: 0
@36000 $150.0 Channel: 2 Note on, E4 key=64 velocity: 90
@36060 $150.25 Channel: 2 Note off, E4 key=64 velocity: 0
@36240 $151.0 Channel: 2 Note on, A4 key=69 velocity: 90
@36300 $151.25 Channel: 2 Note off, A4 key=69 velocity: 0
@36300 $151.25 Channel: 2 Note on, A5 key=81 velocity: 90
@36330 $151.375 Channel: 2 Note off, A5 key=81 velocity: 0
@36360 $151.5 Channel: 2 Note on, C5 key=72 velocity: 90
@36390 $151.625 Channel: 2 Note off, C5 key=72 velocity: 0
@36420 $151.75 Channel: 2 Note on, C6 key=84 velocity: 90
@36450 $151.875 Channel: 2 Note off, C6 key=84 velocity: 0
@36480 $152.0 Channel: 2 Note on, E5 key=76 velocity: 90
@36510 $152.125 Channel: 2 Note off, E5 key=76 velocity: 0
@36510 $152.125 Other meta message: class javax.sound.midi.Track$ImmutableEndOfTrack

Track 6: size = 210
@0 $0.0 Other meta message: class javax.sound.midi.MetaMessage
@0 $0.0 Other meta message: class javax.sound.midi.MetaMessage
@0 $0.0 Channel: 3 Other short message:192
@0 $0.0 Channel: 3 Control Change message
@0 $0.0 Channel: 3 Control Change message
@240 $1.0 Channel: 3 Note on, G#4 key=68 velocity: 90
@270 $1.125 Channel: 3 Note off, G#4 key=68 velocity: 0
@480 $2.0 Channel: 3 Note on, G#4 key=68 velocity: 90
@510 $2.125 Channel: 3 Note off, G#4 key=68 velocity: 0
@720 $3.0 Channel: 3 Note on, G#4 key=68 velocity: 90
@720 $3.0 Channel: 3 Note on, B4 key=71 velocity: 90
@750 $3.125 Channel: 3 Note off, B4 key=71 velocity: 0
@750 $3.125 Channel: 3 Note off, G#4 key=68 velocity: 0
@840 $3.5 Channel: 3 Note on, G#4 key=68 velocity: 90
@840 $3.5 Channel: 3 Note on, B4 key=71 velocity: 90
@870 $3.625 Channel: 3 Note off, B4 key=71 velocity: 0
@870 $3.625 Channel: 3 Note off, G#4 key=68 velocity: 0
@960 $4.0 Channel: 3 Note on, A4 key=69 velocity: 90
@960 $4.0 Channel: 3 Note on, C5 key=72 velocity: 90
@990 $4.125 Channel: 3 Note off, C5 key=72 velocity: 0
@990 $4.125 Channel: 3 Note off, A4 key=69 velocity: 0
@1200 $5.0 Channel: 3 Note on, G#4 key=68 velocity: 90
@1230 $5.125 Channel: 3 Note off, G#4 key=68 velocity: 0
@1440 $6.0 Channel: 3 Note on, G#4 key=68 velocity: 90
@1470 $6.125 Channel: 3 Note off, G#4 key=68 velocity: 0
@1680 $7.0 Channel: 3 Note on, G#4 key=68 velocity: 90
@1710 $7.125 Channel: 3 Note off, G#4 key=68 velocity: 0
@1800 $7.5 Channel: 3 Note on, E5 key=76 velocity: 90
@1800 $7.5 Channel: 3 Note on, G5 key=79 velocity: 90
@1830 $7.625 Channel: 3 Note off, G5 key=79 velocity: 0
@1830 $7.625 Channel: 3 Note off, E5 key=76 velocity: 0
@1860 $7.75 Channel: 3 Note on, D5 key=74 velocity: 90
@1860 $7.75 Channel: 3 Note on, F5 key=77 velocity: 90
@1890 $7.875 Channel: 3 Note off, F5 key=77 velocity: 0
@1890 $7.875 Channel: 3 Note off, D5 key=74 velocity: 0
@1920 $8.0 Channel: 3 Note on, C5 key=72 velocity: 90
@1920 $8.0 Channel: 3 Note on, E5 key=76 velocity: 90
@1980 $8.25 Channel: 3 Note off, E5 key=76 velocity: 0
@1980 $8.25 Channel: 3 Note off, C5 key=72 velocity: 0
@2160 $9.0 Channel: 3 Note on, C5 key=72 velocity: 90
@2190 $9.125 Channel: 3 Note off, C5 key=72 velocity: 0
@2400 $10.0 Channel: 3 Note on, E5 key=76 velocity: 90
@2430 $10.125 Channel: 3 Note off, E5 key=76 velocity: 0
@2640 $11.0 Channel: 3 Note on, G#5 key=80 velocity: 90
@2670 $11.125 Channel: 3 Note off, G#5 key=80 velocity: 0
@2760 $11.5 Channel: 3 Note on, G#5 key=80 velocity: 90
@2790 $11.625 Channel: 3 Note off, G#5 key=80 velocity: 0
@2880 $12.0 Channel: 3 Note on, C5 key=72 velocity: 90
@2910 $12.125 Channel: 3 Note off, C5 key=72 velocity: 0
@3120 $13.0 Channel: 3 Note on, G#4 key=68 velocity: 90
@3120 $13.0 Channel: 3 Note on, B4 key=71 velocity: 90
@3150 $13.125 Channel: 3 Note off, B4 key=71 velocity: 0
@3150 $13.125 Channel: 3 Note off, G#4 key=68 velocity: 0
@3360 $14.0 Channel: 3 Note on, G#4 key=68 velocity: 90
@3360 $14.0 Channel: 3 Note on, B4 key=71 velocity: 90
@3390 $14.125 Channel: 3 Note off, B4 key=71 velocity: 0
@3390 $14.125 Channel: 3 Note off, G#4 key=68 velocity: 0
@3600 $15.0 Channel: 3 Note on, G#4 key=68 velocity: 90
@3600 $15.0 Channel: 3 Note on, B4 key=71 velocity: 90
@3630 $15.125 Channel: 3 Note off, B4 key=71 velocity: 0
@3630 $15.125 Channel: 3 Note off, G#4 key=68 velocity: 0
@3720 $15.5 Channel: 3 Note on, E5 key=76 velocity: 90
@3750 $15.625 Channel: 3 Note off, E5 key=76 velocity: 0
@3780 $15.75 Channel: 3 Note on, D#5 key=75 velocity: 90
@3810 $15.875 Channel: 3 Note off, D#5 key=75 velocity: 0
@3840 $16.0 Channel: 3 Note on, E5 key=76 velocity: 90
@3900 $16.25 Channel: 3 Note off, E5 key=76 velocity: 0
@4080 $17.0 Channel: 3 Note on, C4 key=60 velocity: 90
@4110 $17.125 Channel: 3 Note off, C4 key=60 velocity: 0
@4140 $17.25 Channel: 3 Note on, C5 key=72 velocity: 90
@4170 $17.375 Channel: 3 Note off, C5 key=72 velocity: 0
@4200 $17.5 Channel: 3 Note on, E4 key=64 velocity: 90
@4230 $17.625 Channel: 3 Note off, E4 key=64 velocity: 0
@4260 $17.75 Channel: 3 Note on, E5 key=76 velocity: 90
@4290 $17.875 Channel: 3 Note off, E5 key=76 velocity: 0
@4320 $18.0 Channel: 3 Note on, G4 key=67 velocity: 90
@4380 $18.25 Channel: 3 Note off, G4 key=67 velocity: 0
@5040 $21.0 Channel: 3 Note on, F#4 key=66 velocity: 90
@5040 $21.0 Channel: 3 Note on, A4 key=69 velocity: 90
@5100 $21.25 Channel: 3 Note off, A4 key=69 velocity: 0
@5100 $21.25 Channel: 3 Note off, F#4 key=66 velocity: 0
@5100 $21.25 Channel: 3 Note on, F#5 key=78 velocity: 90
@5100 $21.25 Channel: 3 Note on, A5 key=81 velocity: 90
@5130 $21.375 Channel: 3 Note off, A5 key=81 velocity: 0
@5130 $21.375 Channel: 3 Note off, F#5 key=78 velocity: 0
@5160 $21.5 Channel: 3 Note on, A3 key=57 velocity: 90
@5160 $21.5 Channel: 3 Note on, C4 key=60 velocity: 90
@5190 $21.625 Channel: 3 Note off, C4 key=60 velocity: 0
@5190 $21.625 Channel: 3 Note off, A3 key=57 velocity: 0
@5220 $21.75 Channel: 3 Note on, A4 key=69 velocity: 90
@5220 $21.75 Channel: 3 Note on, C5 key=72 velocity: 90
@5250 $21.875 Channel: 3 Note off, C5 key=72 velocity: 0
@5250 $21.875 Channel: 3 Note off, A4 key=69 velocity: 0
@5280 $22.0 Channel: 3 Note on, C4 key=60 velocity: 90
@5280 $22.0 Channel: 3 Note on, E4 key=64 velocity: 90
@5340 $22.25 Channel: 3 Note off, E4 key=64 velocity: 0
@5340 $22.25 Channel: 3 Note off, C4 key=60 velocity: 0
@5520 $23.0 Channel: 3 Note on, F#4 key=66 velocity: 90
@5580 $23.25 Channel: 3 Note off, F#4 key=66 velocity: 0
@5580 $23.25 Channel: 3 Note on, F#5 key=78 velocity: 90
@5610 $23.375 Channel: 3 Note off, F#5 key=78 velocity: 0
@5640 $23.5 Channel: 3 Note on, A3 key=57 velocity: 90
@5670 $23.625 Channel: 3 Note off, A3 key=57 velocity: 0
@5700 $23.75 Channel: 3 Note on, A4 key=69 velocity: 90
@5730 $23.875 Channel: 3 Note off, A4 key=69 velocity: 0
@5760 $24.0 Channel: 3 Note on, C4 key=60 velocity: 90
@5790 $24.125 Channel: 3 Note off, C4 key=60 velocity: 0
@30960 $129.0 Channel: 3 Note on, G#4 key=68 velocity: 90
@30990 $129.125 Channel: 3 Note off, G#4 key=68 velocity: 0
@31200 $130.0 Channel: 3 Note on, G#4 key=68 velocity: 90
@31230 $130.125 Channel: 3 Note off, G#4 key=68 velocity: 0
@31440 $131.0 Channel: 3 Note on, G#4 key=68 velocity: 90
@31440 $131.0 Channel: 3 Note on, B4 key=71 velocity: 90
@31470 $131.125 Channel: 3 Note off, B4 key=71 velocity: 0
@31470 $131.125 Channel: 3 Note off, G#4 key=68 velocity: 0
@31560 $131.5 Channel: 3 Note on, G#4 key=68 velocity: 90
@31560 $131.5 Channel: 3 Note on, B4 key=71 velocity: 90
@31590 $131.625 Channel: 3 Note off, B4 key=71 velocity: 0
@31590 $131.625 Channel: 3 Note off, G#4 key=68 velocity: 0
@31680 $132.0 Channel: 3 Note on, A4 key=69 velocity: 90
@31680 $132.0 Channel: 3 Note on, C5 key=72 velocity: 90
@31710 $132.125 Channel: 3 Note off, C5 key=72 velocity: 0
@31710 $132.125 Channel: 3 Note off, A4 key=69 velocity: 0
@31920 $133.0 Channel: 3 Note on, G#4 key=68 velocity: 90
@31950 $133.125 Channel: 3 Note off, G#4 key=68 velocity: 0
@32160 $134.0 Channel: 3 Note on, G#4 key=68 velocity: 90
@32190 $134.125 Channel: 3 Note off, G#4 key=68 velocity: 0
@32400 $135.0 Channel: 3 Note on, G#4 key=68 velocity: 90
@32430 $135.125 Channel: 3 Note off, G#4 key=68 velocity: 0
@32520 $135.5 Channel: 3 Note on, E5 key=76 velocity: 90
@32520 $135.5 Channel: 3 Note on, G5 key=79 velocity: 90
@32550 $135.625 Channel: 3 Note off, G5 key=79 velocity: 0
@32550 $135.625 Channel: 3 Note off, E5 key=76 velocity: 0
@32580 $135.75 Channel: 3 Note on, D5 key=74 velocity: 90
@32580 $135.75 Channel: 3 Note on, F5 key=77 velocity: 90
@32610 $135.875 Channel: 3 Note off, F5 key=77 velocity: 0
@32610 $135.875 Channel: 3 Note off, D5 key=74 velocity: 0
@32640 $136.0 Channel: 3 Note on, C5 key=72 velocity: 90
@32640 $136.0 Channel: 3 Note on, E5 key=76 velocity: 90
@32700 $136.25 Channel: 3 Note off, E5 key=76 velocity: 0
@32700 $136.25 Channel: 3 Note off, C5 key=72 velocity: 0
@32880 $137.0 Channel: 3 Note on, C5 key=72 velocity: 90
@32910 $137.125 Channel: 3 Note off, C5 key=72 velocity: 0
@33120 $138.0 Channel: 3 Note on, E5 key=76 velocity: 90
@33150 $138.125 Channel: 3 Note off, E5 key=76 velocity: 0
@33360 $139.0 Channel: 3 Note on, G#5 key=80 velocity: 90
@33390 $139.125 Channel: 3 Note off, G#5 key=80 velocity: 0
@33480 $139.5 Channel: 3 Note on, G#5 key=80 velocity: 90
@33510 $139.625 Channel: 3 Note off, G#5 key=80 velocity: 0
@33600 $140.0 Channel: 3 Note on, C5 key=72 velocity: 90
@33630 $140.125 Channel: 3 Note off, C5 key=72 velocity: 0
@33840 $141.0 Channel: 3 Note on, G#4 key=68 velocity: 90
@33840 $141.0 Channel: 3 Note on, B4 key=71 velocity: 90
@33870 $141.125 Channel: 3 Note off, B4 key=71 velocity: 0
@33870 $141.125 Channel: 3 Note off, G#4 key=68 velocity: 0
@34080 $142.0 Channel: 3 Note on, G#4 key=68 velocity: 90
@34080 $142.0 Channel: 3 Note on, B4 key=71 velocity: 90
@34110 $142.125 Channel: 3 Note off, B4 key=71 velocity: 0
@34110 $142.125 Channel: 3 Note off, G#4 key=68 velocity: 0
@34320 $143.0 Channel: 3 Note on, G#4 key=68 velocity: 90
@34320 $143.0 Channel: 3 Note on, B4 key=71 velocity: 90
@34350 $143.125 Channel: 3 Note off, B4 key=71 velocity: 0
@34350 $143.125 Channel: 3 Note off, G#4 key=68 velocity: 0
@34440 $143.5 Channel: 3 Note on, E5 key=76 velocity: 90
@34470 $143.625 Channel: 3 Note off, E5 key=76 velocity: 0
@34500 $143.75 Channel: 3 Note on, D#5 key=75 velocity: 90
@34530 $143.875 Channel: 3 Note off, D#5 key=75 velocity: 0
@34560 $144.0 Channel: 3 Note on, E5 key=76 velocity: 90
@34620 $144.25 Channel: 3 Note off, E5 key=76 velocity: 0
@34800 $145.0 Channel: 3 Note on, C4 key=60 velocity: 90
@34830 $145.125 Channel: 3 Note off, C4 key=60 velocity: 0
@34860 $145.25 Channel: 3 Note on, C5 key=72 velocity: 90
@34890 $145.375 Channel: 3 Note off, C5 key=72 velocity: 0
@34920 $145.5 Channel: 3 Note on, E4 key=64 velocity: 90
@34950 $145.625 Channel: 3 Note off, E4 key=64 velocity: 0
@34980 $145.75 Channel: 3 Note on, E5 key=76 velocity: 90
@35010 $145.875 Channel: 3 Note off, E5 key=76 velocity: 0
@35040 $146.0 Channel: 3 Note on, G4 key=67 velocity: 90
@35100 $146.25 Channel: 3 Note off, G4 key=67 velocity: 0
@35760 $149.0 Channel: 3 Note on, F#4 key=66 velocity: 90
@35760 $149.0 Channel: 3 Note on, A4 key=69 velocity: 90
@35820 $149.25 Channel: 3 Note off, A4 key=69 velocity: 0
@35820 $149.25 Channel: 3 Note off, F#4 key=66 velocity: 0
@35820 $149.25 Channel: 3 Note on, F#5 key=78 velocity: 90
@35820 $149.25 Channel: 3 Note on, A5 key=81 velocity: 90
@35850 $149.375 Channel: 3 Note off, A5 key=81 velocity: 0
@35850 $149.375 Channel: 3 Note off, F#5 key=78 velocity: 0
@35880 $149.5 Channel: 3 Note on, A3 key=57 velocity: 90
@35880 $149.5 Channel: 3 Note on, C4 key=60 velocity: 90
@35910 $149.625 Channel: 3 Note off, C4 key=60 velocity: 0
@35910 $149.625 Channel: 3 Note off, A3 key=57 velocity: 0
@35940 $149.75 Channel: 3 Note on, A4 key=69 velocity: 90
@35940 $149.75 Channel: 3 Note on, C5 key=72 velocity: 90
@35970 $149.875 Channel: 3 Note off, C5 key=72 velocity: 0
@35970 $149.875 Channel: 3 Note off, A4 key=69 velocity: 0
@36000 $150.0 Channel: 3 Note on, C4 key=60 velocity: 90
@36000 $150.0 Channel: 3 Note on, E4 key=64 velocity: 90
@36060 $150.25 Channel: 3 Note off, E4 key=64 velocity: 0
@36060 $150.25 Channel: 3 Note off, C4 key=60 velocity: 0
@36240 $151.0 Channel: 3 Note on, F#4 key=66 velocity: 90
@36300 $151.25 Channel: 3 Note off, F#4 key=66 velocity: 0
@36300 $151.25 Channel: 3 Note on, F#5 key=78 velocity: 90
@36330 $151.375 Channel: 3 Note off, F#5 key=78 velocity: 0
@36360 $151.5 Channel: 3 Note on, A3 key=57 velocity: 90
@36390 $151.625 Channel: 3 Note off, A3 key=57 velocity: 0
@36420 $151.75 Channel: 3 Note on, A4 key=69 velocity: 90
@36450 $151.875 Channel: 3 Note off, A4 key=69 velocity: 0
@36480 $152.0 Channel: 3 Note on, C4 key=60 velocity: 90
@36510 $152.125 Channel: 3 Note off, C4 key=60 velocity: 0
@36510 $152.125 Other meta message: class javax.sound.midi.Track$ImmutableEndOfTrack

Track 7: size = 704
@0 $0.0 Other meta message: class javax.sound.midi.MetaMessage
@0 $0.0 Other meta message: class javax.sound.midi.MetaMessage
@0 $0.0 Channel: 4 Other short message:192
@0 $0.0 Channel: 4 Control Change message
@0 $0.0 Channel: 4 Control Change message
@240 $1.0 Channel: 4 Note on, E4 key=64 velocity: 90
@270 $1.125 Channel: 4 Note off, E4 key=64 velocity: 0
@480 $2.0 Channel: 4 Note on, E4 key=64 velocity: 90
@510 $2.125 Channel: 4 Note off, E4 key=64 velocity: 0
@720 $3.0 Channel: 4 Note on, E4 key=64 velocity: 90
@750 $3.125 Channel: 4 Note off, E4 key=64 velocity: 0
@840 $3.5 Channel: 4 Note on, E4 key=64 velocity: 90
@870 $3.625 Channel: 4 Note off, E4 key=64 velocity: 0
@960 $4.0 Channel: 4 Note on, C4 key=60 velocity: 90
@990 $4.125 Channel: 4 Note off, C4 key=60 velocity: 0
@1200 $5.0 Channel: 4 Note on, E4 key=64 velocity: 90
@1230 $5.125 Channel: 4 Note off, E4 key=64 velocity: 0
@1440 $6.0 Channel: 4 Note on, E4 key=64 velocity: 90
@1470 $6.125 Channel: 4 Note off, E4 key=64 velocity: 0
@1680 $7.0 Channel: 4 Note on, E4 key=64 velocity: 90
@1710 $7.125 Channel: 4 Note off, E4 key=64 velocity: 0
@1800 $7.5 Channel: 4 Note on, E5 key=76 velocity: 90
@1830 $7.625 Channel: 4 Note off, E5 key=76 velocity: 0
@1860 $7.75 Channel: 4 Note on, D#5 key=75 velocity: 90
@1890 $7.875 Channel: 4 Note off, D#5 key=75 velocity: 0
@1920 $8.0 Channel: 4 Note on, E5 key=76 velocity: 90
@1980 $8.25 Channel: 4 Note off, E5 key=76 velocity: 0
@2160 $9.0 Channel: 4 Note on, G4 key=67 velocity: 90
@2190 $9.125 Channel: 4 Note off, G4 key=67 velocity: 0
@2400 $10.0 Channel: 4 Note on, C5 key=72 velocity: 90
@2430 $10.125 Channel: 4 Note off, C5 key=72 velocity: 0
@2640 $11.0 Channel: 4 Note on, E5 key=76 velocity: 90
@2670 $11.125 Channel: 4 Note off, E5 key=76 velocity: 0
@2760 $11.5 Channel: 4 Note on, E5 key=76 velocity: 90
@2790 $11.625 Channel: 4 Note off, E5 key=76 velocity: 0
@2880 $12.0 Channel: 4 Note on, C5 key=72 velocity: 90
@2910 $12.125 Channel: 4 Note off, C5 key=72 velocity: 0
@3120 $13.0 Channel: 4 Note on, E4 key=64 velocity: 90
@3150 $13.125 Channel: 4 Note off, E4 key=64 velocity: 0
@3360 $14.0 Channel: 4 Note on, E4 key=64 velocity: 90
@3390 $14.125 Channel: 4 Note off, E4 key=64 velocity: 0
@3600 $15.0 Channel: 4 Note on, E4 key=64 velocity: 90
@3630 $15.125 Channel: 4 Note off, E4 key=64 velocity: 0
@3720 $15.5 Channel: 4 Note on, E4 key=64 velocity: 90
@3750 $15.625 Channel: 4 Note off, E4 key=64 velocity: 0
@3780 $15.75 Channel: 4 Note on, F4 key=65 velocity: 90
@3810 $15.875 Channel: 4 Note off, F4 key=65 velocity: 0
@3840 $16.0 Channel: 4 Note on, E4 key=64 velocity: 90
@3900 $16.25 Channel: 4 Note off, E4 key=64 velocity: 0
@4080 $17.0 Channel: 4 Note on, A3 key=57 velocity: 90
@4110 $17.125 Channel: 4 Note off, A3 key=57 velocity: 0
@4140 $17.25 Channel: 4 Note on, A4 key=69 velocity: 90
@4170 $17.375 Channel: 4 Note off, A4 key=69 velocity: 0
@4200 $17.5 Channel: 4 Note on, C4 key=60 velocity: 90
@4230 $17.625 Channel: 4 Note off, C4 key=60 velocity: 0
@4260 $17.75 Channel: 4 Note on, C5 key=72 velocity: 90
@4290 $17.875 Channel: 4 Note off, C5 key=72 velocity: 0
@4320 $18.0 Channel: 4 Note on, E4 key=64 velocity: 90
@4380 $18.25 Channel: 4 Note off, E4 key=64 velocity: 0
@4560 $19.0 Channel: 4 Note on, C4 key=60 velocity: 90
@4590 $19.125 Channel: 4 Note off, C4 key=60 velocity: 0
@4620 $19.25 Channel: 4 Note on, C5 key=72 velocity: 90
@4650 $19.375 Channel: 4 Note off, C5 key=72 velocity: 0
@4680 $19.5 Channel: 4 Note on, E4 key=64 velocity: 90
@4710 $19.625 Channel: 4 Note off, E4 key=64 velocity: 0
@4740 $19.75 Channel: 4 Note on, E5 key=76 velocity: 90
@4770 $19.875 Channel: 4 Note off, E5 key=76 velocity: 0
@4800 $20.0 Channel: 4 Note on, G4 key=67 velocity: 90
@4860 $20.25 Channel: 4 Note off, G4 key=67 velocity: 0
@5040 $21.0 Channel: 4 Note on, A3 key=57 velocity: 90
@5100 $21.25 Channel: 4 Note off, A3 key=57 velocity: 0
@5100 $21.25 Channel: 4 Note on, A4 key=69 velocity: 90
@5130 $21.375 Channel: 4 Note off, A4 key=69 velocity: 0
@5160 $21.5 Channel: 4 Note on, C4 key=60 velocity: 90
@5190 $21.625 Channel: 4 Note off, C4 key=60 velocity: 0
@5220 $21.75 Channel: 4 Note on, C5 key=72 velocity: 90
@5250 $21.875 Channel: 4 Note off, C5 key=72 velocity: 0
@5280 $22.0 Channel: 4 Note on, E4 key=64 velocity: 90
@5340 $22.25 Channel: 4 Note off, E4 key=64 velocity: 0
@5520 $23.0 Channel: 4 Note on, A3 key=57 velocity: 90
@5580 $23.25 Channel: 4 Note off, A3 key=57 velocity: 0
@5580 $23.25 Channel: 4 Note on, A4 key=69 velocity: 90
@5610 $23.375 Channel: 4 Note off, A4 key=69 velocity: 0
@5640 $23.5 Channel: 4 Note on, C4 key=60 velocity: 90
@5670 $23.625 Channel: 4 Note off, C4 key=60 velocity: 0
@5700 $23.75 Channel: 4 Note on, C5 key=72 velocity: 90
@5730 $23.875 Channel: 4 Note off, C5 key=72 velocity: 0
@5760 $24.0 Channel: 4 Note on, E4 key=64 velocity: 90
@5790 $24.125 Channel: 4 Note off, E4 key=64 velocity: 0
@15660 $65.25 Channel: 4 Note on, C#5 key=73 velocity: 75
@15690 $65.375 Channel: 4 Note off, C#5 key=73 velocity: 0
@15720 $65.5 Channel: 4 Note on, C#5 key=73 velocity: 75
@15750 $65.625 Channel: 4 Note off, C#5 key=73 velocity: 0
@15780 $65.75 Channel: 4 Note on, C#5 key=73 velocity: 75
@15810 $65.875 Channel: 4 Note off, C#5 key=73 velocity: 0
@15900 $66.25 Channel: 4 Note on, B4 key=71 velocity: 75
@15930 $66.375 Channel: 4 Note off, B4 key=71 velocity: 0
@15960 $66.5 Channel: 4 Note on, B4 key=71 velocity: 75
@15990 $66.625 Channel: 4 Note off, B4 key=71 velocity: 0
@16020 $66.75 Channel: 4 Note on, B4 key=71 velocity: 75
@16050 $66.875 Channel: 4 Note off, B4 key=71 velocity: 0
@16140 $67.25 Channel: 4 Note on, C#5 key=73 velocity: 75
@16170 $67.375 Channel: 4 Note off, C#5 key=73 velocity: 0
@16200 $67.5 Channel: 4 Note on, C#5 key=73 velocity: 75
@16230 $67.625 Channel: 4 Note off, C#5 key=73 velocity: 0
@16260 $67.75 Channel: 4 Note on, C#5 key=73 velocity: 75
@16290 $67.875 Channel: 4 Note off, C#5 key=73 velocity: 0
@16380 $68.25 Channel: 4 Note on, C#5 key=73 velocity: 75
@16410 $68.375 Channel: 4 Note off, C#5 key=73 velocity: 0
@16440 $68.5 Channel: 4 Note on, C#5 key=73 velocity: 75
@16470 $68.625 Channel: 4 Note off, C#5 key=73 velocity: 0
@16500 $68.75 Channel: 4 Note on, C#5 key=73 velocity: 75
@16530 $68.875 Channel: 4 Note off, C#5 key=73 velocity: 0
@16620 $69.25 Channel: 4 Note on, C#5 key=73 velocity: 75
@16650 $69.375 Channel: 4 Note off, C#5 key=73 velocity: 0
@16680 $69.5 Channel: 4 Note on, C#5 key=73 velocity: 75
@16710 $69.625 Channel: 4 Note off, C#5 key=73 velocity: 0
@16740 $69.75 Channel: 4 Note on, C#5 key=73 velocity: 75
@16770 $69.875 Channel: 4 Note off, C#5 key=73 velocity: 0
@16860 $70.25 Channel: 4 Note on, C#5 key=73 velocity: 75
@16860 $70.25 Channel: 4 Note on, E5 key=76 velocity: 75
@16890 $70.375 Channel: 4 Note off, E5 key=76 velocity: 0
@16890 $70.375 Channel: 4 Note off, C#5 key=73 velocity: 0
@16920 $70.5 Channel: 4 Note on, C#5 key=73 velocity: 75
@16920 $70.5 Channel: 4 Note on, E5 key=76 velocity: 75
@16950 $70.625 Channel: 4 Note off, E5 key=76 velocity: 0
@16950 $70.625 Channel: 4 Note off, C#5 key=73 velocity: 0
@16980 $70.75 Channel: 4 Note on, C#5 key=73 velocity: 75
@16980 $70.75 Channel: 4 Note on, E5 key=76 velocity: 75
@17010 $70.875 Channel: 4 Note off, E5 key=76 velocity: 0
@17010 $70.875 Channel: 4 Note off, C#5 key=73 velocity: 0
@17100 $71.25 Channel: 4 Note on, F#5 key=78 velocity: 75
@17100 $71.25 Channel: 4 Note on, D#5 key=75 velocity: 75
@17130 $71.375 Channel: 4 Note off, D#5 key=75 velocity: 0
@17130 $71.375 Channel: 4 Note off, F#5 key=78 velocity: 0
@17160 $71.5 Channel: 4 Note on, F#5 key=78 velocity: 75
@17160 $71.5 Channel: 4 Note on, D#5 key=75 velocity: 75
@17190 $71.625 Channel: 4 Note off, D#5 key=75 velocity: 0
@17190 $71.625 Channel: 4 Note off, F#5 key=78 velocity: 0
@17220 $71.75 Channel: 4 Note on, F#5 key=78 velocity: 75
@17220 $71.75 Channel: 4 Note on, D#5 key=75 velocity: 75
@17250 $71.875 Channel: 4 Note off, D#5 key=75 velocity: 0
@17250 $71.875 Channel: 4 Note off, F#5 key=78 velocity: 0
@17280 $72.0 Channel: 4 Note on, E5 key=76 velocity: 75
@17280 $72.0 Channel: 4 Note on, C#5 key=73 velocity: 75
@17340 $72.25 Channel: 4 Note off, C#5 key=73 velocity: 0
@17340 $72.25 Channel: 4 Note off, E5 key=76 velocity: 0
@17580 $73.25 Channel: 4 Note on, E5 key=76 velocity: 75
@17580 $73.25 Channel: 4 Note on, C#5 key=73 velocity: 75
@17610 $73.375 Channel: 4 Note off, C#5 key=73 velocity: 0
@17610 $73.375 Channel: 4 Note off, E5 key=76 velocity: 0
@17640 $73.5 Channel: 4 Note on, E5 key=76 velocity: 75
@17640 $73.5 Channel: 4 Note on, C#5 key=73 velocity: 75
@17670 $73.625 Channel: 4 Note off, C#5 key=73 velocity: 0
@17670 $73.625 Channel: 4 Note off, E5 key=76 velocity: 0
@17700 $73.75 Channel: 4 Note on, E5 key=76 velocity: 75
@17700 $73.75 Channel: 4 Note on, C#5 key=73 velocity: 75
@17730 $73.875 Channel: 4 Note off, C#5 key=73 velocity: 0
@17730 $73.875 Channel: 4 Note off, E5 key=76 velocity: 0
@17820 $74.25 Channel: 4 Note on, C#5 key=73 velocity: 75
@17820 $74.25 Channel: 4 Note on, B4 key=71 velocity: 75
@17850 $74.375 Channel: 4 Note off, B4 key=71 velocity: 0
@17850 $74.375 Channel: 4 Note off, C#5 key=73 velocity: 0
@17880 $74.5 Channel: 4 Note on, C#5 key=73 velocity: 75
@17880 $74.5 Channel: 4 Note on, B4 key=71 velocity: 75
@17910 $74.625 Channel: 4 Note off, B4 key=71 velocity: 0
@17910 $74.625 Channel: 4 Note off, C#5 key=73 velocity: 0
@17940 $74.75 Channel: 4 Note on, C#5 key=73 velocity: 75
@17940 $74.75 Channel: 4 Note on, B4 key=71 velocity: 75
@17970 $74.875 Channel: 4 Note off, B4 key=71 velocity: 0
@17970 $74.875 Channel: 4 Note off, C#5 key=73 velocity: 0
@18060 $75.25 Channel: 4 Note on, A4 key=69 velocity: 75
@18060 $75.25 Channel: 4 Note on, C#5 key=73 velocity: 75
@18090 $75.375 Channel: 4 Note off, C#5 key=73 velocity: 0
@18090 $75.375 Channel: 4 Note off, A4 key=69 velocity: 0
@18120 $75.5 Channel: 4 Note on, A4 key=69 velocity: 75
@18120 $75.5 Channel: 4 Note on, C#5 key=73 velocity: 75
@18150 $75.625 Channel: 4 Note off, C#5 key=73 velocity: 0
@18150 $75.625 Channel: 4 Note off, A4 key=69 velocity: 0
@18180 $75.75 Channel: 4 Note on, A4 key=69 velocity: 75
@18180 $75.75 Channel: 4 Note on, C#5 key=73 velocity: 75
@18210 $75.875 Channel: 4 Note off, C#5 key=73 velocity: 0
@18210 $75.875 Channel: 4 Note off, A4 key=69 velocity: 0
@18300 $76.25 Channel: 4 Note on, G#4 key=68 velocity: 75
@18300 $76.25 Channel: 4 Note on, C#5 key=73 velocity: 75
@18330 $76.375 Channel: 4 Note off, C#5 key=73 velocity: 0
@18330 $76.375 Channel: 4 Note off, G#4 key=68 velocity: 0
@18360 $76.5 Channel: 4 Note on, G#4 key=68 velocity: 75
@18360 $76.5 Channel: 4 Note on, C#5 key=73 velocity: 75
@18390 $76.625 Channel: 4 Note off, C#5 key=73 velocity: 0
@18390 $76.625 Channel: 4 Note off, G#4 key=68 velocity: 0
@18420 $76.75 Channel: 4 Note on, G#4 key=68 velocity: 75
@18420 $76.75 Channel: 4 Note on, C#5 key=73 velocity: 75
@18450 $76.875 Channel: 4 Note off, C#5 key=73 velocity: 0
@18450 $76.875 Channel: 4 Note off, G#4 key=68 velocity: 0
@18540 $77.25 Channel: 4 Note on, E5 key=76 velocity: 75
@18540 $77.25 Channel: 4 Note on, C#5 key=73 velocity: 75
@18570 $77.375 Channel: 4 Note off, C#5 key=73 velocity: 0
@18570 $77.375 Channel: 4 Note off, E5 key=76 velocity: 0
@18600 $77.5 Channel: 4 Note on, E5 key=76 velocity: 75
@18600 $77.5 Channel: 4 Note on, C#5 key=73 velocity: 75
@18630 $77.625 Channel: 4 Note off, C#5 key=73 velocity: 0
@18630 $77.625 Channel: 4 Note off, E5 key=76 velocity: 0
@18660 $77.75 Channel: 4 Note on, E5 key=76 velocity: 75
@18660 $77.75 Channel: 4 Note on, C#5 key=73 velocity: 75
@18690 $77.875 Channel: 4 Note off, C#5 key=73 velocity: 0
@18690 $77.875 Channel: 4 Note off, E5 key=76 velocity: 0
@18780 $78.25 Channel: 4 Note on, C#5 key=73 velocity: 75
@18780 $78.25 Channel: 4 Note on, E5 key=76 velocity: 75
@18810 $78.375 Channel: 4 Note off, E5 key=76 velocity: 0
@18810 $78.375 Channel: 4 Note off, C#5 key=73 velocity: 0
@18840 $78.5 Channel: 4 Note on, C#5 key=73 velocity: 75
@18840 $78.5 Channel: 4 Note on, E5 key=76 velocity: 75
@18870 $78.625 Channel: 4 Note off, E5 key=76 velocity: 0
@18870 $78.625 Channel: 4 Note off, C#5 key=73 velocity: 0
@18900 $78.75 Channel: 4 Note on, C#5 key=73 velocity: 75
@18900 $78.75 Channel: 4 Note on, E5 key=76 velocity: 75
@18930 $78.875 Channel: 4 Note off, E5 key=76 velocity: 0
@18930 $78.875 Channel: 4 Note off, C#5 key=73 velocity: 0
@19020 $79.25 Channel: 4 Note on, F#5 key=78 velocity: 75
@19020 $79.25 Channel: 4 Note on, D#5 key=75 velocity: 75
@19050 $79.375 Channel: 4 Note off, D#5 key=75 velocity: 0
@19050 $79.375 Channel: 4 Note off, F#5 key=78 velocity: 0
@19080 $79.5 Channel: 4 Note on, F#5 key=78 velocity: 75
@19080 $79.5 Channel: 4 Note on, D#5 key=75 velocity: 75
@19110 $79.625 Channel: 4 Note off, D#5 key=75 velocity: 0
@19110 $79.625 Channel: 4 Note off, F#5 key=78 velocity: 0
@19140 $79.75 Channel: 4 Note on, F#5 key=78 velocity: 75
@19140 $79.75 Channel: 4 Note on, D#5 key=75 velocity: 75
@19170 $79.875 Channel: 4 Note off, D#5 key=75 velocity: 0
@19170 $79.875 Channel: 4 Note off, F#5 key=78 velocity: 0
@19200 $80.0 Channel: 4 Note on, E5 key=76 velocity: 75
@19200 $80.0 Channel: 4 Note on, C#5 key=73 velocity: 75
@19260 $80.25 Channel: 4 Note off, C#5 key=73 velocity: 0
@19260 $80.25 Channel: 4 Note off, E5 key=76 velocity: 0
@19500 $81.25 Channel: 4 Note on, A4 key=69 velocity: 75
@19530 $81.375 Channel: 4 Note off, A4 key=69 velocity: 0
@19560 $81.5 Channel: 4 Note on, A4 key=69 velocity: 75
@19590 $81.625 Channel: 4 Note off, A4 key=69 velocity: 0
@19620 $81.75 Channel: 4 Note on, A4 key=69 velocity: 75
@19650 $81.875 Channel: 4 Note off, A4 key=69 velocity: 0
@19740 $82.25 Channel: 4 Note on, E4 key=64 velocity: 75
@19740 $82.25 Channel: 4 Note on, D4 key=62 velocity: 75
@19770 $82.375 Channel: 4 Note off, D4 key=62 velocity: 0
@19770 $82.375 Channel: 4 Note off, E4 key=64 velocity: 0
@19860 $82.75 Channel: 4 Note on, E4 key=64 velocity: 75
@19860 $82.75 Channel: 4 Note on, D4 key=62 velocity: 75
@19890 $82.875 Channel: 4 Note off, D4 key=62 velocity: 0
@19890 $82.875 Channel: 4 Note off, E4 key=64 velocity: 0
@19980 $83.25 Channel: 4 Note on, A4 key=69 velocity: 75
@20010 $83.375 Channel: 4 Note off, A4 key=69 velocity: 0
@20040 $83.5 Channel: 4 Note on, A4 key=69 velocity: 75
@20070 $83.625 Channel: 4 Note off, A4 key=69 velocity: 0
@20100 $83.75 Channel: 4 Note on, A4 key=69 velocity: 75
@20130 $83.875 Channel: 4 Note off, A4 key=69 velocity: 0
@20220 $84.25 Channel: 4 Note on, G#4 key=68 velocity: 100
@20250 $84.375 Channel: 4 Note off, G#4 key=68 velocity: 0
@20280 $84.5 Channel: 4 Note on, G#4 key=68 velocity: 100
@20310 $84.625 Channel: 4 Note off, G#4 key=68 velocity: 0
@20340 $84.75 Channel: 4 Note on, G#4 key=68 velocity: 100
@20370 $84.875 Channel: 4 Note off, G#4 key=68 velocity: 0
@20460 $85.25 Channel: 4 Note on, A4 key=69 velocity: 75
@20490 $85.375 Channel: 4 Note off, A4 key=69 velocity: 0
@20520 $85.5 Channel: 4 Note on, A4 key=69 velocity: 75
@20550 $85.625 Channel: 4 Note off, A4 key=69 velocity: 0
@20580 $85.75 Channel: 4 Note on, A4 key=69 velocity: 75
@20610 $85.875 Channel: 4 Note off, A4 key=69 velocity: 0
@20700 $86.25 Channel: 4 Note on, E4 key=64 velocity: 75
@20700 $86.25 Channel: 4 Note on, D4 key=62 velocity: 75
@20730 $86.375 Channel: 4 Note off, D4 key=62 velocity: 0
@20730 $86.375 Channel: 4 Note off, E4 key=64 velocity: 0
@20820 $86.75 Channel: 4 Note on, E4 key=64 velocity: 75
@20820 $86.75 Channel: 4 Note on, D4 key=62 velocity: 75
@20850 $86.875 Channel: 4 Note off, D4 key=62 velocity: 0
@20850 $86.875 Channel: 4 Note off, E4 key=64 velocity: 0
@20880 $87.0 Channel: 4 Note on, A4 key=69 velocity: 75
@20910 $87.125 Channel: 4 Note off, A4 key=69 velocity: 0
@20940 $87.25 Channel: 4 Note on, F#4 key=66 velocity: 75
@20970 $87.375 Channel: 4 Note off, F#4 key=66 velocity: 0
@21000 $87.5 Channel: 4 Note on, D4 key=62 velocity: 75
@21030 $87.625 Channel: 4 Note off, D4 key=62 velocity: 0
@21060 $87.75 Channel: 4 Note on, E4 key=64 velocity: 75
@21090 $87.875 Channel: 4 Note off, E4 key=64 velocity: 0
@21120 $88.0 Channel: 4 Note on, A3 key=57 velocity: 75
@21150 $88.125 Channel: 4 Note off, A3 key=57 velocity: 0
@21180 $88.25 Channel: 4 Note on, A4 key=69 velocity: 75
@21210 $88.375 Channel: 4 Note off, A4 key=69 velocity: 0
@21420 $89.25 Channel: 4 Note on, C#5 key=73 velocity: 75
@21420 $89.25 Channel: 4 Note on, A4 key=69 velocity: 75
@21450 $89.375 Channel: 4 Note off, A4 key=69 velocity: 0
@21450 $89.375 Channel: 4 Note off, C#5 key=73 velocity: 0
@21480 $89.5 Channel: 4 Note on, C#5 key=73 velocity: 75
@21480 $89.5 Channel: 4 Note on, A4 key=69 velocity: 75
@21510 $89.625 Channel: 4 Note off, A4 key=69 velocity: 0
@21510 $89.625 Channel: 4 Note off, C#5 key=73 velocity: 0
@21540 $89.75 Channel: 4 Note on, C#5 key=73 velocity: 75
@21540 $89.75 Channel: 4 Note on, A4 key=69 velocity: 75
@21570 $89.875 Channel: 4 Note off, A4 key=69 velocity: 0
@21570 $89.875 Channel: 4 Note off, C#5 key=73 velocity: 0
@21660 $90.25 Channel: 4 Note on, E4 key=64 velocity: 75
@21660 $90.25 Channel: 4 Note on, D4 key=62 velocity: 75
@21690 $90.375 Channel: 4 Note off, D4 key=62 velocity: 0
@21690 $90.375 Channel: 4 Note off, E4 key=64 velocity: 0
@21720 $90.5 Channel: 4 Note on, E4 key=64 velocity: 75
@21720 $90.5 Channel: 4 Note on, D4 key=62 velocity: 75
@21750 $90.625 Channel: 4 Note off, D4 key=62 velocity: 0
@21750 $90.625 Channel: 4 Note off, E4 key=64 velocity: 0
@21780 $90.75 Channel: 4 Note on, E4 key=64 velocity: 75
@21780 $90.75 Channel: 4 Note on, D4 key=62 velocity: 75
@21810 $90.875 Channel: 4 Note off, D4 key=62 velocity: 0
@21810 $90.875 Channel: 4 Note off, E4 key=64 velocity: 0
@21900 $91.25 Channel: 4 Note on, C#5 key=73 velocity: 75
@21900 $91.25 Channel: 4 Note on, A4 key=69 velocity: 75
@21930 $91.375 Channel: 4 Note off, A4 key=69 velocity: 0
@21930 $91.375 Channel: 4 Note off, C#5 key=73 velocity: 0
@21960 $91.5 Channel: 4 Note on, C#5 key=73 velocity: 75
@21960 $91.5 Channel: 4 Note on, A4 key=69 velocity: 75
@21990 $91.625 Channel: 4 Note off, A4 key=69 velocity: 0
@21990 $91.625 Channel: 4 Note off, C#5 key=73 velocity: 0
@22020 $91.75 Channel: 4 Note on, C#5 key=73 velocity: 75
@22020 $91.75 Channel: 4 Note on, A4 key=69 velocity: 75
@22050 $91.875 Channel: 4 Note off, A4 key=69 velocity: 0
@22050 $91.875 Channel: 4 Note off, C#5 key=73 velocity: 0
@22140 $92.25 Channel: 4 Note on, C#5 key=73 velocity: 60
@22140 $92.25 Channel: 4 Note on, G#4 key=68 velocity: 60
@22170 $92.375 Channel: 4 Note off, G#4 key=68 velocity: 0
@22170 $92.375 Channel: 4 Note off, C#5 key=73 velocity: 0
@22200 $92.5 Channel: 4 Note on, C#5 key=73 velocity: 60
@22200 $92.5 Channel: 4 Note on, G4 key=67 velocity: 60
@22230 $92.625 Channel: 4 Note off, G4 key=67 velocity: 0
@22230 $92.625 Channel: 4 Note off, C#5 key=73 velocity: 0
@22260 $92.75 Channel: 4 Note on, C#5 key=73 velocity: 60
@22260 $92.75 Channel: 4 Note on, F#4 key=66 velocity: 60
@22290 $92.875 Channel: 4 Note off, F#4 key=66 velocity: 0
@22290 $92.875 Channel: 4 Note off, C#5 key=73 velocity: 0
@22380 $93.25 Channel: 4 Note on, F#4 key=66 velocity: 60
@22380 $93.25 Channel: 4 Note on, B4 key=71 velocity: 60
@22410 $93.375 Channel: 4 Note off, B4 key=71 velocity: 0
@22410 $93.375 Channel: 4 Note off, F#4 key=66 velocity: 0
@22440 $93.5 Channel: 4 Note on, F#4 key=66 velocity: 60
@22440 $93.5 Channel: 4 Note on, B4 key=71 velocity: 60
@22470 $93.625 Channel: 4 Note off, B4 key=71 velocity: 0
@22470 $93.625 Channel: 4 Note off, F#4 key=66 velocity: 0
@22500 $93.75 Channel: 4 Note on, F#4 key=66 velocity: 60
@22500 $93.75 Channel: 4 Note on, B4 key=71 velocity: 60
@22530 $93.875 Channel: 4 Note off, B4 key=71 velocity: 0
@22530 $93.875 Channel: 4 Note off, F#4 key=66 velocity: 0
@22620 $94.25 Channel: 4 Note on, B4 key=71 velocity: 60
@22620 $94.25 Channel: 4 Note on, G#4 key=68 velocity: 60
@22650 $94.375 Channel: 4 Note off, G#4 key=68 velocity: 0
@22650 $94.375 Channel: 4 Note off, B4 key=71 velocity: 0
@22680 $94.5 Channel: 4 Note on, B4 key=71 velocity: 60
@22680 $94.5 Channel: 4 Note on, G#4 key=68 velocity: 60
@22710 $94.625 Channel: 4 Note off, G#4 key=68 velocity: 0
@22710 $94.625 Channel: 4 Note off, B4 key=71 velocity: 0
@22740 $94.75 Channel: 4 Note on, B4 key=71 velocity: 60
@22740 $94.75 Channel: 4 Note on, G#4 key=68 velocity: 60
@22770 $94.875 Channel: 4 Note off, G#4 key=68 velocity: 0
@22770 $94.875 Channel: 4 Note off, B4 key=71 velocity: 0
@22860 $95.25 Channel: 4 Note on, A4 key=69 velocity: 60
@22860 $95.25 Channel: 4 Note on, F#4 key=66 velocity: 60
@22890 $95.375 Channel: 4 Note off, F#4 key=66 velocity: 0
@22890 $95.375 Channel: 4 Note off, A4 key=69 velocity: 0
@22980 $95.75 Channel: 4 Note on, A4 key=69 velocity: 60
@22980 $95.75 Channel: 4 Note on, F#4 key=66 velocity: 60
@23010 $95.875 Channel: 4 Note off, F#4 key=66 velocity: 0
@23010 $95.875 Channel: 4 Note off, A4 key=69 velocity: 0
@23040 $96.0 Channel: 4 Note on, A4 key=69 velocity: 75
@23040 $96.0 Channel: 4 Note on, F#4 key=66 velocity: 75
@23160 $96.5 Channel: 4 Note off, F#4 key=66 velocity: 0
@23160 $96.5 Channel: 4 Note off, A4 key=69 velocity: 0
@23345 $97.27083333333333 Channel: 4 Note on, A4 key=69 velocity: 75
@23375 $97.39583333333333 Channel: 4 Note off, A4 key=69 velocity: 0
@23405 $97.52083333333333 Channel: 4 Note on, A4 key=69 velocity: 75
@23435 $97.64583333333333 Channel: 4 Note off, A4 key=69 velocity: 0
@23465 $97.77083333333333 Channel: 4 Note on, A4 key=69 velocity: 75
@23495 $97.89583333333333 Channel: 4 Note off, A4 key=69 velocity: 0
@23585 $98.27083333333333 Channel: 4 Note on, E4 key=64 velocity: 75
@23585 $98.27083333333333 Channel: 4 Note on, D4 key=62 velocity: 75
@23615 $98.39583333333333 Channel: 4 Note off, D4 key=62 velocity: 0
@23615 $98.39583333333333 Channel: 4 Note off, E4 key=64 velocity: 0
@23705 $98.77083333333333 Channel: 4 Note on, E4 key=64 velocity: 75
@23705 $98.77083333333333 Channel: 4 Note on, D4 key=62 velocity: 75
@23735 $98.89583333333333 Channel: 4 Note off, D4 key=62 velocity: 0
@23735 $98.89583333333333 Channel: 4 Note off, E4 key=64 velocity: 0
@23825 $99.27083333333333 Channel: 4 Note on, A4 key=69 velocity: 75
@23855 $99.39583333333333 Channel: 4 Note off, A4 key=69 velocity: 0
@23885 $99.52083333333333 Channel: 4 Note on, A4 key=69 velocity: 75
@23915 $99.64583333333333 Channel: 4 Note off, A4 key=69 velocity: 0
@23945 $99.77083333333333 Channel: 4 Note on, A4 key=69 velocity: 75
@23975 $99.89583333333333 Channel: 4 Note off, A4 key=69 velocity: 0
@24065 $100.27083333333333 Channel: 4 Note on, G#4 key=68 velocity: 100
@24095 $100.39583333333333 Channel: 4 Note off, G#4 key=68 velocity: 0
@24125 $100.52083333333333 Channel: 4 Note on, G#4 key=68 velocity: 100
@24155 $100.64583333333333 Channel: 4 Note off, G#4 key=68 velocity: 0
@24185 $100.77083333333333 Channel: 4 Note on, G#4 key=68 velocity: 100
@24215 $100.89583333333333 Channel: 4 Note off, G#4 key=68 velocity: 0
@24305 $101.27083333333333 Channel: 4 Note on, A4 key=69 velocity: 75
@24335 $101.39583333333333 Channel: 4 Note off, A4 key=69 velocity: 0
@24365 $101.52083333333333 Channel: 4 Note on, A4 key=69 velocity: 75
@24395 $101.64583333333333 Channel: 4 Note off, A4 key=69 velocity: 0
@24425 $101.77083333333333 Channel: 4 Note on, A4 key=69 velocity: 75
@24455 $101.89583333333333 Channel: 4 Note off, A4 key=69 velocity: 0
@24545 $102.27083333333333 Channel: 4 Note on, E4 key=64 velocity: 75
@24545 $102.27083333333333 Channel: 4 Note on, D4 key=62 velocity: 75
@24575 $102.39583333333333 Channel: 4 Note off, D4 key=62 velocity: 0
@24575 $102.39583333333333 Channel: 4 Note off, E4 key=64 velocity: 0
@24665 $102.77083333333333 Channel: 4 Note on, E4 key=64 velocity: 75
@24665 $102.77083333333333 Channel: 4 Note on, D4 key=62 velocity: 75
@24695 $102.89583333333333 Channel: 4 Note off, D4 key=62 velocity: 0
@24695 $102.89583333333333 Channel: 4 Note off, E4 key=64 velocity: 0
@24725 $103.02083333333333 Channel: 4 Note on, A4 key=69 velocity: 75
@24755 $103.14583333333333 Channel: 4 Note off, A4 key=69 velocity: 0
@24785 $103.27083333333333 Channel: 4 Note on, F#4 key=66 velocity: 75
@24815 $103.39583333333333 Channel: 4 Note off, F#4 key=66 velocity: 0
@24845 $103.52083333333333 Channel: 4 Note on, D4 key=62 velocity: 75
@24875 $103.64583333333333 Channel: 4 Note off, D4 key=62 velocity: 0
@24905 $103.77083333333333 Channel: 4 Note on, E4 key=64 velocity: 75
@24935 $103.89583333333333 Channel: 4 Note off, E4 key=64 velocity: 0
@24965 $104.02083333333333 Channel: 4 Note on, A3 key=57 velocity: 75
@24995 $104.14583333333333 Channel: 4 Note off, A3 key=57 velocity: 0
@25025 $104.27083333333333 Channel: 4 Note on, A4 key=69 velocity: 75
@25055 $104.39583333333333 Channel: 4 Note off, A4 key=69 velocity: 0
@25265 $105.27083333333333 Channel: 4 Note on, C#5 key=73 velocity: 75
@25265 $105.27083333333333 Channel: 4 Note on, A4 key=69 velocity: 75
@25295 $105.39583333333333 Channel: 4 Note off, A4 key=69 velocity: 0
@25295 $105.39583333333333 Channel: 4 Note off, C#5 key=73 velocity: 0
@25325 $105.52083333333333 Channel: 4 Note on, C#5 key=73 velocity: 75
@25325 $105.52083333333333 Channel: 4 Note on, A4 key=69 velocity: 75
@25355 $105.64583333333333 Channel: 4 Note off, A4 key=69 velocity: 0
@25355 $105.64583333333333 Channel: 4 Note off, C#5 key=73 velocity: 0
@25385 $105.77083333333333 Channel: 4 Note on, C#5 key=73 velocity: 75
@25385 $105.77083333333333 Channel: 4 Note on, A4 key=69 velocity: 75
@25415 $105.89583333333333 Channel: 4 Note off, A4 key=69 velocity: 0
@25415 $105.89583333333333 Channel: 4 Note off, C#5 key=73 velocity: 0
@25505 $106.27083333333333 Channel: 4 Note on, E4 key=64 velocity: 75
@25505 $106.27083333333333 Channel: 4 Note on, D4 key=62 velocity: 75
@25535 $106.39583333333333 Channel: 4 Note off, D4 key=62 velocity: 0
@25535 $106.39583333333333 Channel: 4 Note off, E4 key=64 velocity: 0
@25565 $106.52083333333333 Channel: 4 Note on, E4 key=64 velocity: 75
@25565 $106.52083333333333 Channel: 4 Note on, D4 key=62 velocity: 75
@25595 $106.64583333333333 Channel: 4 Note off, D4 key=62 velocity: 0
@25595 $106.64583333333333 Channel: 4 Note off, E4 key=64 velocity: 0
@25625 $106.77083333333333 Channel: 4 Note on, E4 key=64 velocity: 75
@25625 $106.77083333333333 Channel: 4 Note on, D4 key=62 velocity: 75
@25655 $106.89583333333333 Channel: 4 Note off, D4 key=62 velocity: 0
@25655 $106.89583333333333 Channel: 4 Note off, E4 key=64 velocity: 0
@25745 $107.27083333333333 Channel: 4 Note on, C#5 key=73 velocity: 75
@25745 $107.27083333333333 Channel: 4 Note on, A4 key=69 velocity: 75
@25775 $107.39583333333333 Channel: 4 Note off, A4 key=69 velocity: 0
@25775 $107.39583333333333 Channel: 4 Note off, C#5 key=73 velocity: 0
@25805 $107.52083333333333 Channel: 4 Note on, C#5 key=73 velocity: 75
@25805 $107.52083333333333 Channel: 4 Note on, A4 key=69 velocity: 75
@25835 $107.64583333333333 Channel: 4 Note off, A4 key=69 velocity: 0
@25835 $107.64583333333333 Channel: 4 Note off, C#5 key=73 velocity: 0
@25865 $107.77083333333333 Channel: 4 Note on, C#5 key=73 velocity: 75
@25865 $107.77083333333333 Channel: 4 Note on, A4 key=69 velocity: 75
@25895 $107.89583333333333 Channel: 4 Note off, A4 key=69 velocity: 0
@25895 $107.89583333333333 Channel: 4 Note off, C#5 key=73 velocity: 0
@25985 $108.27083333333333 Channel: 4 Note on, C#5 key=73 velocity: 60
@25985 $108.27083333333333 Channel: 4 Note on, G#4 key=68 velocity: 60
@26015 $108.39583333333333 Channel: 4 Note off, G#4 key=68 velocity: 0
@26015 $108.39583333333333 Channel: 4 Note off, C#5 key=73 velocity: 0
@26045 $108.52083333333333 Channel: 4 Note on, C#5 key=73 velocity: 60
@26045 $108.52083333333333 Channel: 4 Note on, G4 key=67 velocity: 60
@26075 $108.64583333333333 Channel: 4 Note off, G4 key=67 velocity: 0
@26075 $108.64583333333333 Channel: 4 Note off, C#5 key=73 velocity: 0
@26105 $108.77083333333333 Channel: 4 Note on, C#5 key=73 velocity: 60
@26105 $108.77083333333333 Channel: 4 Note on, F#4 key=66 velocity: 60
@26135 $108.89583333333333 Channel: 4 Note off, F#4 key=66 velocity: 0
@26135 $108.89583333333333 Channel: 4 Note off, C#5 key=73 velocity: 0
@26225 $109.27083333333333 Channel: 4 Note on, F#4 key=66 velocity: 60
@26225 $109.27083333333333 Channel: 4 Note on, B4 key=71 velocity: 60
@26255 $109.39583333333333 Channel: 4 Note off, B4 key=71 velocity: 0
@26255 $109.39583333333333 Channel: 4 Note off, F#4 key=66 velocity: 0
@26285 $109.52083333333333 Channel: 4 Note on, F#4 key=66 velocity: 60
@26285 $109.52083333333333 Channel: 4 Note on, B4 key=71 velocity: 60
@26315 $109.64583333333333 Channel: 4 Note off, B4 key=71 velocity: 0
@26315 $109.64583333333333 Channel: 4 Note off, F#4 key=66 velocity: 0
@26345 $109.77083333333333 Channel: 4 Note on, F#4 key=66 velocity: 60
@26345 $109.77083333333333 Channel: 4 Note on, B4 key=71 velocity: 60
@26375 $109.89583333333333 Channel: 4 Note off, B4 key=71 velocity: 0
@26375 $109.89583333333333 Channel: 4 Note off, F#4 key=66 velocity: 0
@26465 $110.27083333333333 Channel: 4 Note on, B4 key=71 velocity: 60
@26465 $110.27083333333333 Channel: 4 Note on, G#4 key=68 velocity: 60
@26495 $110.39583333333333 Channel: 4 Note off, G#4 key=68 velocity: 0
@26495 $110.39583333333333 Channel: 4 Note off, B4 key=71 velocity: 0
@26525 $110.52083333333333 Channel: 4 Note on, B4 key=71 velocity: 60
@26525 $110.52083333333333 Channel: 4 Note on, G#4 key=68 velocity: 60
@26555 $110.64583333333333 Channel: 4 Note off, G#4 key=68 velocity: 0
@26555 $110.64583333333333 Channel: 4 Note off, B4 key=71 velocity: 0
@26585 $110.77083333333333 Channel: 4 Note on, B4 key=71 velocity: 60
@26585 $110.77083333333333 Channel: 4 Note on, G#4 key=68 velocity: 60
@26615 $110.89583333333333 Channel: 4 Note off, G#4 key=68 velocity: 0
@26615 $110.89583333333333 Channel: 4 Note off, B4 key=71 velocity: 0
@26705 $111.27083333333333 Channel: 4 Note on, A4 key=69 velocity: 60
@26705 $111.27083333333333 Channel: 4 Note on, F#4 key=66 velocity: 60
@26735 $111.39583333333333 Channel: 4 Note off, F#4 key=66 velocity: 0
@26735 $111.39583333333333 Channel: 4 Note off, A4 key=69 velocity: 0
@26825 $111.77083333333333 Channel: 4 Note on, A4 key=69 velocity: 60
@26825 $111.77083333333333 Channel: 4 Note on, F#4 key=66 velocity: 60
@26855 $111.89583333333333 Channel: 4 Note off, F#4 key=66 velocity: 0
@26855 $111.89583333333333 Channel: 4 Note off, A4 key=69 velocity: 0
@26885 $112.02083333333333 Channel: 4 Note on, A4 key=69 velocity: 75
@26885 $112.02083333333333 Channel: 4 Note on, F#4 key=66 velocity: 75
@27005 $112.52083333333333 Channel: 4 Note off, F#4 key=66 velocity: 0
@27005 $112.52083333333333 Channel: 4 Note off, A4 key=69 velocity: 0
@30960 $129.0 Channel: 4 Note on, E4 key=64 velocity: 90
@30990 $129.125 Channel: 4 Note off, E4 key=64 velocity: 0
@31200 $130.0 Channel: 4 Note on, E4 key=64 velocity: 90
@31230 $130.125 Channel: 4 Note off, E4 key=64 velocity: 0
@31440 $131.0 Channel: 4 Note on, E4 key=64 velocity: 90
@31470 $131.125 Channel: 4 Note off, E4 key=64 velocity: 0
@31560 $131.5 Channel: 4 Note on, E4 key=64 velocity: 90
@31590 $131.625 Channel: 4 Note off, E4 key=64 velocity: 0
@31680 $132.0 Channel: 4 Note on, C4 key=60 velocity: 90
@31710 $132.125 Channel: 4 Note off, C4 key=60 velocity: 0
@31920 $133.0 Channel: 4 Note on, E4 key=64 velocity: 90
@31950 $133.125 Channel: 4 Note off, E4 key=64 velocity: 0
@32160 $134.0 Channel: 4 Note on, E4 key=64 velocity: 90
@32190 $134.125 Channel: 4 Note off, E4 key=64 velocity: 0
@32400 $135.0 Channel: 4 Note on, E4 key=64 velocity: 90
@32430 $135.125 Channel: 4 Note off, E4 key=64 velocity: 0
@32520 $135.5 Channel: 4 Note on, E5 key=76 velocity: 90
@32550 $135.625 Channel: 4 Note off, E5 key=76 velocity: 0
@32580 $135.75 Channel: 4 Note on, D#5 key=75 velocity: 90
@32610 $135.875 Channel: 4 Note off, D#5 key=75 velocity: 0
@32640 $136.0 Channel: 4 Note on, E5 key=76 velocity: 90
@32700 $136.25 Channel: 4 Note off, E5 key=76 velocity: 0
@32880 $137.0 Channel: 4 Note on, G4 key=67 velocity: 90
@32910 $137.125 Channel: 4 Note off, G4 key=67 velocity: 0
@33120 $138.0 Channel: 4 Note on, C5 key=72 velocity: 90
@33150 $138.125 Channel: 4 Note off, C5 key=72 velocity: 0
@33360 $139.0 Channel: 4 Note on, E5 key=76 velocity: 90
@33390 $139.125 Channel: 4 Note off, E5 key=76 velocity: 0
@33480 $139.5 Channel: 4 Note on, E5 key=76 velocity: 90
@33510 $139.625 Channel: 4 Note off, E5 key=76 velocity: 0
@33600 $140.0 Channel: 4 Note on, C5 key=72 velocity: 90
@33630 $140.125 Channel: 4 Note off, C5 key=72 velocity: 0
@33840 $141.0 Channel: 4 Note on, E4 key=64 velocity: 90
@33870 $141.125 Channel: 4 Note off, E4 key=64 velocity: 0
@34080 $142.0 Channel: 4 Note on, E4 key=64 velocity: 90
@34110 $142.125 Channel: 4 Note off, E4 key=64 velocity: 0
@34320 $143.0 Channel: 4 Note on, E4 key=64 velocity: 90
@34350 $143.125 Channel: 4 Note off, E4 key=64 velocity: 0
@34440 $143.5 Channel: 4 Note on, E4 key=64 velocity: 90
@34470 $143.625 Channel: 4 Note off, E4 key=64 velocity: 0
@34500 $143.75 Channel: 4 Note on, F4 key=65 velocity: 90
@34530 $143.875 Channel: 4 Note off, F4 key=65 velocity: 0
@34560 $144.0 Channel: 4 Note on, E4 key=64 velocity: 90
@34620 $144.25 Channel: 4 Note off, E4 key=64 velocity: 0
@34800 $145.0 Channel: 4 Note on, A3 key=57 velocity: 90
@34830 $145.125 Channel: 4 Note off, A3 key=57 velocity: 0
@34860 $145.25 Channel: 4 Note on, A4 key=69 velocity: 90
@34890 $145.375 Channel: 4 Note off, A4 key=69 velocity: 0
@34920 $145.5 Channel: 4 Note on, C4 key=60 velocity: 90
@34950 $145.625 Channel: 4 Note off, C4 key=60 velocity: 0
@34980 $145.75 Channel: 4 Note on, C5 key=72 velocity: 90
@35010 $145.875 Channel: 4 Note off, C5 key=72 velocity: 0
@35040 $146.0 Channel: 4 Note on, E4 key=64 velocity: 90
@35100 $146.25 Channel: 4 Note off, E4 key=64 velocity: 0
@35280 $147.0 Channel: 4 Note on, C4 key=60 velocity: 90
@35310 $147.125 Channel: 4 Note off, C4 key=60 velocity: 0
@35340 $147.25 Channel: 4 Note on, C5 key=72 velocity: 90
@35370 $147.375 Channel: 4 Note off, C5 key=72 velocity: 0
@35400 $147.5 Channel: 4 Note on, E4 key=64 velocity: 90
@35430 $147.625 Channel: 4 Note off, E4 key=64 velocity: 0
@35460 $147.75 Channel: 4 Note on, E5 key=76 velocity: 90
@35490 $147.875 Channel: 4 Note off, E5 key=76 velocity: 0
@35520 $148.0 Channel: 4 Note on, G4 key=67 velocity: 90
@35580 $148.25 Channel: 4 Note off, G4 key=67 velocity: 0
@35760 $149.0 Channel: 4 Note on, A3 key=57 velocity: 90
@35820 $149.25 Channel: 4 Note off, A3 key=57 velocity: 0
@35820 $149.25 Channel: 4 Note on, A4 key=69 velocity: 90
@35850 $149.375 Channel: 4 Note off, A4 key=69 velocity: 0
@35880 $149.5 Channel: 4 Note on, C4 key=60 velocity: 90
@35910 $149.625 Channel: 4 Note off, C4 key=60 velocity: 0
@35940 $149.75 Channel: 4 Note on, C5 key=72 velocity: 90
@35970 $149.875 Channel: 4 Note off, C5 key=72 velocity: 0
@36000 $150.0 Channel: 4 Note on, E4 key=64 velocity: 90
@36060 $150.25 Channel: 4 Note off, E4 key=64 velocity: 0
@36240 $151.0 Channel: 4 Note on, A3 key=57 velocity: 90
@36300 $151.25 Channel: 4 Note off, A3 key=57 velocity: 0
@36300 $151.25 Channel: 4 Note on, A4 key=69 velocity: 90
@36330 $151.375 Channel: 4 Note off, A4 key=69 velocity: 0
@36360 $151.5 Channel: 4 Note on, C4 key=60 velocity: 90
@36390 $151.625 Channel: 4 Note off, C4 key=60 velocity: 0
@36420 $151.75 Channel: 4 Note on, C5 key=72 velocity: 90
@36450 $151.875 Channel: 4 Note off, C5 key=72 velocity: 0
@36480 $152.0 Channel: 4 Note on, E4 key=64 velocity: 90
@36510 $152.125 Channel: 4 Note off, E4 key=64 velocity: 0
@49200 $205.0 Channel: 4 Note on, A3 key=57 velocity: 100
@49230 $205.125 Channel: 4 Note off, A3 key=57 velocity: 0
@49230 $205.125 Channel: 4 Note on, E4 key=64 velocity: 100
@49260 $205.25 Channel: 4 Note off, E4 key=64 velocity: 0
@49260 $205.25 Channel: 4 Note on, C#4 key=61 velocity: 100
@49290 $205.375 Channel: 4 Note off, C#4 key=61 velocity: 0
@49290 $205.375 Channel: 4 Note on, E4 key=64 velocity: 100
@49320 $205.5 Channel: 4 Note off, E4 key=64 velocity: 0
@49320 $205.5 Channel: 4 Note on, A3 key=57 velocity: 100
@49350 $205.625 Channel: 4 Note off, A3 key=57 velocity: 0
@49350 $205.625 Channel: 4 Note on, E4 key=64 velocity: 100
@49380 $205.75 Channel: 4 Note off, E4 key=64 velocity: 0
@49380 $205.75 Channel: 4 Note on, C#4 key=61 velocity: 100
@49410 $205.875 Channel: 4 Note off, C#4 key=61 velocity: 0
@49410 $205.875 Channel: 4 Note on, E4 key=64 velocity: 100
@49440 $206.0 Channel: 4 Note off, E4 key=64 velocity: 0
@49440 $206.0 Channel: 4 Note on, A3 key=57 velocity: 100
@49470 $206.125 Channel: 4 Note off, A3 key=57 velocity: 0
@49470 $206.125 Channel: 4 Note on, E4 key=64 velocity: 100
@49500 $206.25 Channel: 4 Note off, E4 key=64 velocity: 0
@49500 $206.25 Channel: 4 Note on, C#4 key=61 velocity: 100
@49530 $206.375 Channel: 4 Note off, C#4 key=61 velocity: 0
@49530 $206.375 Channel: 4 Note on, E4 key=64 velocity: 100
@49560 $206.5 Channel: 4 Note off, E4 key=64 velocity: 0
@49560 $206.5 Channel: 4 Note on, A3 key=57 velocity: 100
@49590 $206.625 Channel: 4 Note off, A3 key=57 velocity: 0
@49590 $206.625 Channel: 4 Note on, E4 key=64 velocity: 100
@49620 $206.75 Channel: 4 Note off, E4 key=64 velocity: 0
@49620 $206.75 Channel: 4 Note on, C#4 key=61 velocity: 100
@49650 $206.875 Channel: 4 Note off, C#4 key=61 velocity: 0
@49650 $206.875 Channel: 4 Note on, E4 key=64 velocity: 100
@49680 $207.0 Channel: 4 Note off, E4 key=64 velocity: 0
@49680 $207.0 Channel: 4 Note on, A3 key=57 velocity: 100
@49710 $207.125 Channel: 4 Note off, A3 key=57 velocity: 0
@49710 $207.125 Channel: 4 Note on, E4 key=64 velocity: 100
@49740 $207.25 Channel: 4 Note off, E4 key=64 velocity: 0
@49740 $207.25 Channel: 4 Note on, C#4 key=61 velocity: 100
@49770 $207.375 Channel: 4 Note off, C#4 key=61 velocity: 0
@49770 $207.375 Channel: 4 Note on, E4 key=64 velocity: 100
@49800 $207.5 Channel: 4 Note off, E4 key=64 velocity: 0
@49800 $207.5 Channel: 4 Note on, A3 key=57 velocity: 100
@49830 $207.625 Channel: 4 Note off, A3 key=57 velocity: 0
@49830 $207.625 Channel: 4 Note on, E4 key=64 velocity: 100
@49860 $207.75 Channel: 4 Note off, E4 key=64 velocity: 0
@49860 $207.75 Channel: 4 Note on, C#4 key=61 velocity: 100
@49890 $207.875 Channel: 4 Note off, C#4 key=61 velocity: 0
@49890 $207.875 Channel: 4 Note on, E4 key=64 velocity: 100
@49920 $208.0 Channel: 4 Note off, E4 key=64 velocity: 0
@49920 $208.0 Channel: 4 Note on, A3 key=57 velocity: 100
@49950 $208.125 Channel: 4 Note off, A3 key=57 velocity: 0
@49950 $208.125 Channel: 4 Note on, E4 key=64 velocity: 100
@49980 $208.25 Channel: 4 Note off, E4 key=64 velocity: 0
@49980 $208.25 Channel: 4 Note on, C#4 key=61 velocity: 100
@50010 $208.375 Channel: 4 Note off, C#4 key=61 velocity: 0
@50010 $208.375 Channel: 4 Note on, E4 key=64 velocity: 100
@50040 $208.5 Channel: 4 Note off, E4 key=64 velocity: 0
@50040 $208.5 Channel: 4 Note on, A3 key=57 velocity: 100
@50070 $208.625 Channel: 4 Note off, A3 key=57 velocity: 0
@50070 $208.625 Channel: 4 Note on, E4 key=64 velocity: 100
@50100 $208.75 Channel: 4 Note off, E4 key=64 velocity: 0
@50100 $208.75 Channel: 4 Note on, C#4 key=61 velocity: 100
@50130 $208.875 Channel: 4 Note off, C#4 key=61 velocity: 0
@50130 $208.875 Channel: 4 Note on, E4 key=64 velocity: 100
@50160 $209.0 Channel: 4 Note off, E4 key=64 velocity: 0
@50160 $209.0 Channel: 4 Note on, A3 key=57 velocity: 100
@50190 $209.125 Channel: 4 Note off, A3 key=57 velocity: 0
@50190 $209.125 Channel: 4 Note on, F#4 key=66 velocity: 100
@50220 $209.25 Channel: 4 Note off, F#4 key=66 velocity: 0
@50220 $209.25 Channel: 4 Note on, D4 key=62 velocity: 100
@50250 $209.375 Channel: 4 Note off, D4 key=62 velocity: 0
@50250 $209.375 Channel: 4 Note on, F#4 key=66 velocity: 100
@50280 $209.5 Channel: 4 Note off, F#4 key=66 velocity: 0
@50280 $209.5 Channel: 4 Note on, A3 key=57 velocity: 100
@50310 $209.625 Channel: 4 Note off, A3 key=57 velocity: 0
@50310 $209.625 Channel: 4 Note on, F#4 key=66 velocity: 100
@50340 $209.75 Channel: 4 Note off, F#4 key=66 velocity: 0
@50340 $209.75 Channel: 4 Note on, D4 key=62 velocity: 100
@50370 $209.875 Channel: 4 Note off, D4 key=62 velocity: 0
@50370 $209.875 Channel: 4 Note on, F#4 key=66 velocity: 100
@50400 $210.0 Channel: 4 Note off, F#4 key=66 velocity: 0
@50400 $210.0 Channel: 4 Note on, A3 key=57 velocity: 100
@50430 $210.125 Channel: 4 Note off, A3 key=57 velocity: 0
@50430 $210.125 Channel: 4 Note on, E4 key=64 velocity: 100
@50460 $210.25 Channel: 4 Note off, E4 key=64 velocity: 0
@50460 $210.25 Channel: 4 Note on, C#4 key=61 velocity: 100
@50490 $210.375 Channel: 4 Note off, C#4 key=61 velocity: 0
@50490 $210.375 Channel: 4 Note on, E4 key=64 velocity: 100
@50520 $210.5 Channel: 4 Note off, E4 key=64 velocity: 0
@50520 $210.5 Channel: 4 Note on, A3 key=57 velocity: 100
@50550 $210.625 Channel: 4 Note off, A3 key=57 velocity: 0
@50550 $210.625 Channel: 4 Note on, E4 key=64 velocity: 100
@50580 $210.75 Channel: 4 Note off, E4 key=64 velocity: 0
@50580 $210.75 Channel: 4 Note on, C#4 key=61 velocity: 100
@50610 $210.875 Channel: 4 Note off, C#4 key=61 velocity: 0
@50610 $210.875 Channel: 4 Note on, E4 key=64 velocity: 100
@50640 $211.0 Channel: 4 Note off, E4 key=64 velocity: 0
@50640 $211.0 Channel: 4 Note on, E3 key=52 velocity: 100
@50670 $211.125 Channel: 4 Note off, E3 key=52 velocity: 0
@50670 $211.125 Channel: 4 Note on, E4 key=64 velocity: 100
@50700 $211.25 Channel: 4 Note off, E4 key=64 velocity: 0
@50700 $211.25 Channel: 4 Note on, G#3 key=56 velocity: 100
@50730 $211.375 Channel: 4 Note off, G#3 key=56 velocity: 0
@50730 $211.375 Channel: 4 Note on, E4 key=64 velocity: 100
@50760 $211.5 Channel: 4 Note off, E4 key=64 velocity: 0
@50760 $211.5 Channel: 4 Note on, E3 key=52 velocity: 100
@50790 $211.625 Channel: 4 Note off, E3 key=52 velocity: 0
@50790 $211.625 Channel: 4 Note on, E4 key=64 velocity: 100
@50820 $211.75 Channel: 4 Note off, E4 key=64 velocity: 0
@50820 $211.75 Channel: 4 Note on, G#3 key=56 velocity: 100
@50850 $211.875 Channel: 4 Note off, G#3 key=56 velocity: 0
@50850 $211.875 Channel: 4 Note on, E4 key=64 velocity: 100
@50880 $212.0 Channel: 4 Note off, E4 key=64 velocity: 0
@50880 $212.0 Other meta message: class javax.sound.midi.Track$ImmutableEndOfTrack

Track 8: size = 1760
@0 $0.0 Other meta message: class javax.sound.midi.MetaMessage
@0 $0.0 Other meta message: class javax.sound.midi.MetaMessage
@0 $0.0 Channel: 5 Other short message:192
@0 $0.0 Channel: 5 Control Change message
@0 $0.0 Channel: 5 Control Change message
@240 $1.0 Channel: 5 Note on, A3 key=57 velocity: 100
@300 $1.25 Channel: 5 Note off, A3 key=57 velocity: 0
@300 $1.25 Channel: 5 Note on, E4 key=64 velocity: 75
@300 $1.25 Channel: 5 Note on, C4 key=60 velocity: 75
@330 $1.375 Channel: 5 Note off, C4 key=60 velocity: 0
@330 $1.375 Channel: 5 Note off, E4 key=64 velocity: 0
@360 $1.5 Channel: 5 Note on, E4 key=64 velocity: 75
@360 $1.5 Channel: 5 Note on, C4 key=60 velocity: 75
@390 $1.625 Channel: 5 Note off, C4 key=60 velocity: 0
@390 $1.625 Channel: 5 Note off, E4 key=64 velocity: 0
@420 $1.75 Channel: 5 Note on, E4 key=64 velocity: 75
@420 $1.75 Channel: 5 Note on, C4 key=60 velocity: 75
@450 $1.875 Channel: 5 Note off, C4 key=60 velocity: 0
@450 $1.875 Channel: 5 Note off, E4 key=64 velocity: 0
@480 $2.0 Channel: 5 Note on, A3 key=57 velocity: 100
@540 $2.25 Channel: 5 Note off, A3 key=57 velocity: 0
@540 $2.25 Channel: 5 Note on, E4 key=64 velocity: 75
@540 $2.25 Channel: 5 Note on, C4 key=60 velocity: 75
@570 $2.375 Channel: 5 Note off, C4 key=60 velocity: 0
@570 $2.375 Channel: 5 Note off, E4 key=64 velocity: 0
@600 $2.5 Channel: 5 Note on, E4 key=64 velocity: 75
@600 $2.5 Channel: 5 Note on, C4 key=60 velocity: 75
@630 $2.625 Channel: 5 Note off, C4 key=60 velocity: 0
@630 $2.625 Channel: 5 Note off, E4 key=64 velocity: 0
@660 $2.75 Channel: 5 Note on, E4 key=64 velocity: 75
@660 $2.75 Channel: 5 Note on, C4 key=60 velocity: 75
@690 $2.875 Channel: 5 Note off, C4 key=60 velocity: 0
@690 $2.875 Channel: 5 Note off, E4 key=64 velocity: 0
@720 $3.0 Channel: 5 Note on, A3 key=57 velocity: 100
@780 $3.25 Channel: 5 Note off, A3 key=57 velocity: 0
@780 $3.25 Channel: 5 Note on, E4 key=64 velocity: 75
@780 $3.25 Channel: 5 Note on, C4 key=60 velocity: 75
@810 $3.375 Channel: 5 Note off, C4 key=60 velocity: 0
@810 $3.375 Channel: 5 Note off, E4 key=64 velocity: 0
@840 $3.5 Channel: 5 Note on, A3 key=57 velocity: 100
@900 $3.75 Channel: 5 Note off, A3 key=57 velocity: 0
@900 $3.75 Channel: 5 Note on, C4 key=60 velocity: 75
@900 $3.75 Channel: 5 Note on, E4 key=64 velocity: 75
@930 $3.875 Channel: 5 Note off, E4 key=64 velocity: 0
@930 $3.875 Channel: 5 Note off, C4 key=60 velocity: 0
@960 $4.0 Channel: 5 Note on, A3 key=57 velocity: 100
@1020 $4.25 Channel: 5 Note off, A3 key=57 velocity: 0
@1020 $4.25 Channel: 5 Note on, E4 key=64 velocity: 75
@1020 $4.25 Channel: 5 Note on, C4 key=60 velocity: 75
@1050 $4.375 Channel: 5 Note off, C4 key=60 velocity: 0
@1050 $4.375 Channel: 5 Note off, E4 key=64 velocity: 0
@1080 $4.5 Channel: 5 Note on, E4 key=64 velocity: 75
@1080 $4.5 Channel: 5 Note on, C4 key=60 velocity: 75
@1110 $4.625 Channel: 5 Note off, C4 key=60 velocity: 0
@1110 $4.625 Channel: 5 Note off, E4 key=64 velocity: 0
@1140 $4.75 Channel: 5 Note on, E4 key=64 velocity: 75
@1140 $4.75 Channel: 5 Note on, C4 key=60 velocity: 75
@1170 $4.875 Channel: 5 Note off, C4 key=60 velocity: 0
@1170 $4.875 Channel: 5 Note off, E4 key=64 velocity: 0
@1200 $5.0 Channel: 5 Note on, E3 key=52 velocity: 100
@1260 $5.25 Channel: 5 Note off, E3 key=52 velocity: 0
@1260 $5.25 Channel: 5 Note on, E4 key=64 velocity: 75
@1260 $5.25 Channel: 5 Note on, B3 key=59 velocity: 75
@1290 $5.375 Channel: 5 Note off, B3 key=59 velocity: 0
@1290 $5.375 Channel: 5 Note off, E4 key=64 velocity: 0
@1320 $5.5 Channel: 5 Note on, E4 key=64 velocity: 75
@1320 $5.5 Channel: 5 Note on, B3 key=59 velocity: 75
@1350 $5.625 Channel: 5 Note off, B3 key=59 velocity: 0
@1350 $5.625 Channel: 5 Note off, E4 key=64 velocity: 0
@1380 $5.75 Channel: 5 Note on, E4 key=64 velocity: 75
@1380 $5.75 Channel: 5 Note on, B3 key=59 velocity: 75
@1410 $5.875 Channel: 5 Note off, B3 key=59 velocity: 0
@1410 $5.875 Channel: 5 Note off, E4 key=64 velocity: 0
@1440 $6.0 Channel: 5 Note on, E3 key=52 velocity: 100
@1500 $6.25 Channel: 5 Note off, E3 key=52 velocity: 0
@1500 $6.25 Channel: 5 Note on, E4 key=64 velocity: 75
@1500 $6.25 Channel: 5 Note on, B3 key=59 velocity: 75
@1530 $6.375 Channel: 5 Note off, B3 key=59 velocity: 0
@1530 $6.375 Channel: 5 Note off, E4 key=64 velocity: 0
@1560 $6.5 Channel: 5 Note on, E4 key=64 velocity: 75
@1560 $6.5 Channel: 5 Note on, B3 key=59 velocity: 75
@1590 $6.625 Channel: 5 Note off, B3 key=59 velocity: 0
@1590 $6.625 Channel: 5 Note off, E4 key=64 velocity: 0
@1620 $6.75 Channel: 5 Note on, E4 key=64 velocity: 75
@1620 $6.75 Channel: 5 Note on, B3 key=59 velocity: 75
@1650 $6.875 Channel: 5 Note off, B3 key=59 velocity: 0
@1650 $6.875 Channel: 5 Note off, E4 key=64 velocity: 0
@1680 $7.0 Channel: 5 Note on, E3 key=52 velocity: 100
@1740 $7.25 Channel: 5 Note off, E3 key=52 velocity: 0
@1740 $7.25 Channel: 5 Note on, E4 key=64 velocity: 75
@1740 $7.25 Channel: 5 Note on, B3 key=59 velocity: 75
@1770 $7.375 Channel: 5 Note off, B3 key=59 velocity: 0
@1770 $7.375 Channel: 5 Note off, E4 key=64 velocity: 0
@1800 $7.5 Channel: 5 Note on, B2 key=47 velocity: 100
@1860 $7.75 Channel: 5 Note off, B2 key=47 velocity: 0
@1860 $7.75 Channel: 5 Note on, E4 key=64 velocity: 75
@1860 $7.75 Channel: 5 Note on, B3 key=59 velocity: 75
@1890 $7.875 Channel: 5 Note off, B3 key=59 velocity: 0
@1890 $7.875 Channel: 5 Note off, E4 key=64 velocity: 0
@1920 $8.0 Channel: 5 Note on, E3 key=52 velocity: 100
@2040 $8.5 Channel: 5 Note off, E3 key=52 velocity: 0
@2160 $9.0 Channel: 5 Note on, A3 key=57 velocity: 100
@2220 $9.25 Channel: 5 Note off, A3 key=57 velocity: 0
@2220 $9.25 Channel: 5 Note on, E4 key=64 velocity: 75
@2220 $9.25 Channel: 5 Note on, C4 key=60 velocity: 75
@2250 $9.375 Channel: 5 Note off, C4 key=60 velocity: 0
@2250 $9.375 Channel: 5 Note off, E4 key=64 velocity: 0
@2280 $9.5 Channel: 5 Note on, E4 key=64 velocity: 75
@2280 $9.5 Channel: 5 Note on, C4 key=60 velocity: 75
@2310 $9.625 Channel: 5 Note off, C4 key=60 velocity: 0
@2310 $9.625 Channel: 5 Note off, E4 key=64 velocity: 0
@2340 $9.75 Channel: 5 Note on, E4 key=64 velocity: 75
@2340 $9.75 Channel: 5 Note on, C4 key=60 velocity: 75
@2370 $9.875 Channel: 5 Note off, C4 key=60 velocity: 0
@2370 $9.875 Channel: 5 Note off, E4 key=64 velocity: 0
@2400 $10.0 Channel: 5 Note on, A3 key=57 velocity: 100
@2460 $10.25 Channel: 5 Note off, A3 key=57 velocity: 0
@2460 $10.25 Channel: 5 Note on, E4 key=64 velocity: 75
@2460 $10.25 Channel: 5 Note on, C4 key=60 velocity: 75
@2490 $10.375 Channel: 5 Note off, C4 key=60 velocity: 0
@2490 $10.375 Channel: 5 Note off, E4 key=64 velocity: 0
@2520 $10.5 Channel: 5 Note on, E4 key=64 velocity: 75
@2520 $10.5 Channel: 5 Note on, C4 key=60 velocity: 75
@2550 $10.625 Channel: 5 Note off, C4 key=60 velocity: 0
@2550 $10.625 Channel: 5 Note off, E4 key=64 velocity: 0
@2580 $10.75 Channel: 5 Note on, E4 key=64 velocity: 75
@2580 $10.75 Channel: 5 Note on, C4 key=60 velocity: 75
@2610 $10.875 Channel: 5 Note off, C4 key=60 velocity: 0
@2610 $10.875 Channel: 5 Note off, E4 key=64 velocity: 0
@2640 $11.0 Channel: 5 Note on, A3 key=57 velocity: 100
@2700 $11.25 Channel: 5 Note off, A3 key=57 velocity: 0
@2700 $11.25 Channel: 5 Note on, E4 key=64 velocity: 75
@2700 $11.25 Channel: 5 Note on, C4 key=60 velocity: 75
@2730 $11.375 Channel: 5 Note off, C4 key=60 velocity: 0
@2730 $11.375 Channel: 5 Note off, E4 key=64 velocity: 0
@2760 $11.5 Channel: 5 Note on, A3 key=57 velocity: 100
@2820 $11.75 Channel: 5 Note off, A3 key=57 velocity: 0
@2820 $11.75 Channel: 5 Note on, C4 key=60 velocity: 75
@2820 $11.75 Channel: 5 Note on, E4 key=64 velocity: 75
@2850 $11.875 Channel: 5 Note off, E4 key=64 velocity: 0
@2850 $11.875 Channel: 5 Note off, C4 key=60 velocity: 0
@2880 $12.0 Channel: 5 Note on, A3 key=57 velocity: 100
@2940 $12.25 Channel: 5 Note off, A3 key=57 velocity: 0
@2940 $12.25 Channel: 5 Note on, E4 key=64 velocity: 75
@2940 $12.25 Channel: 5 Note on, C4 key=60 velocity: 75
@2970 $12.375 Channel: 5 Note off, C4 key=60 velocity: 0
@2970 $12.375 Channel: 5 Note off, E4 key=64 velocity: 0
@3000 $12.5 Channel: 5 Note on, E4 key=64 velocity: 75
@3000 $12.5 Channel: 5 Note on, C4 key=60 velocity: 75
@3030 $12.625 Channel: 5 Note off, C4 key=60 velocity: 0
@3030 $12.625 Channel: 5 Note off, E4 key=64 velocity: 0
@3060 $12.75 Channel: 5 Note on, E4 key=64 velocity: 75
@3060 $12.75 Channel: 5 Note on, C4 key=60 velocity: 75
@3090 $12.875 Channel: 5 Note off, C4 key=60 velocity: 0
@3090 $12.875 Channel: 5 Note off, E4 key=64 velocity: 0
@3120 $13.0 Channel: 5 Note on, E3 key=52 velocity: 100
@3180 $13.25 Channel: 5 Note off, E3 key=52 velocity: 0
@3180 $13.25 Channel: 5 Note on, E4 key=64 velocity: 75
@3180 $13.25 Channel: 5 Note on, B3 key=59 velocity: 75
@3210 $13.375 Channel: 5 Note off, B3 key=59 velocity: 0
@3210 $13.375 Channel: 5 Note off, E4 key=64 velocity: 0
@3240 $13.5 Channel: 5 Note on, E4 key=64 velocity: 75
@3240 $13.5 Channel: 5 Note on, B3 key=59 velocity: 75
@3270 $13.625 Channel: 5 Note off, B3 key=59 velocity: 0
@3270 $13.625 Channel: 5 Note off, E4 key=64 velocity: 0
@3300 $13.75 Channel: 5 Note on, E4 key=64 velocity: 75
@3300 $13.75 Channel: 5 Note on, B3 key=59 velocity: 75
@3330 $13.875 Channel: 5 Note off, B3 key=59 velocity: 0
@3330 $13.875 Channel: 5 Note off, E4 key=64 velocity: 0
@3360 $14.0 Channel: 5 Note on, E3 key=52 velocity: 100
@3420 $14.25 Channel: 5 Note off, E3 key=52 velocity: 0
@3420 $14.25 Channel: 5 Note on, E4 key=64 velocity: 75
@3420 $14.25 Channel: 5 Note on, B3 key=59 velocity: 75
@3450 $14.375 Channel: 5 Note off, B3 key=59 velocity: 0
@3450 $14.375 Channel: 5 Note off, E4 key=64 velocity: 0
@3480 $14.5 Channel: 5 Note on, E4 key=64 velocity: 75
@3480 $14.5 Channel: 5 Note on, B3 key=59 velocity: 75
@3510 $14.625 Channel: 5 Note off, B3 key=59 velocity: 0
@3510 $14.625 Channel: 5 Note off, E4 key=64 velocity: 0
@3540 $14.75 Channel: 5 Note on, E4 key=64 velocity: 75
@3540 $14.75 Channel: 5 Note on, B3 key=59 velocity: 75
@3570 $14.875 Channel: 5 Note off, B3 key=59 velocity: 0
@3570 $14.875 Channel: 5 Note off, E4 key=64 velocity: 0
@3600 $15.0 Channel: 5 Note on, E3 key=52 velocity: 100
@3660 $15.25 Channel: 5 Note off, E3 key=52 velocity: 0
@3660 $15.25 Channel: 5 Note on, E4 key=64 velocity: 75
@3660 $15.25 Channel: 5 Note on, B3 key=59 velocity: 75
@3690 $15.375 Channel: 5 Note off, B3 key=59 velocity: 0
@3690 $15.375 Channel: 5 Note off, E4 key=64 velocity: 0
@3720 $15.5 Channel: 5 Note on, B2 key=47 velocity: 100
@3780 $15.75 Channel: 5 Note off, B2 key=47 velocity: 0
@3780 $15.75 Channel: 5 Note on, E4 key=64 velocity: 75
@3780 $15.75 Channel: 5 Note on, B3 key=59 velocity: 75
@3810 $15.875 Channel: 5 Note off, B3 key=59 velocity: 0
@3810 $15.875 Channel: 5 Note off, E4 key=64 velocity: 0
@3840 $16.0 Channel: 5 Note on, E3 key=52 velocity: 100
@3960 $16.5 Channel: 5 Note off, E3 key=52 velocity: 0
@4080 $17.0 Channel: 5 Note on, C3 key=48 velocity: 100
@4140 $17.25 Channel: 5 Note off, C3 key=48 velocity: 0
@4140 $17.25 Channel: 5 Note on, C4 key=60 velocity: 75
@4170 $17.375 Channel: 5 Note off, C4 key=60 velocity: 0
@4200 $17.5 Channel: 5 Note on, E3 key=52 velocity: 100
@4230 $17.625 Channel: 5 Note off, E3 key=52 velocity: 0
@4260 $17.75 Channel: 5 Note on, E4 key=64 velocity: 75
@4290 $17.875 Channel: 5 Note off, E4 key=64 velocity: 0
@4320 $18.0 Channel: 5 Note on, G3 key=55 velocity: 100
@4440 $18.5 Channel: 5 Note off, G3 key=55 velocity: 0
@4560 $19.0 Channel: 5 Note on, C3 key=48 velocity: 100
@4620 $19.25 Channel: 5 Note off, C3 key=48 velocity: 0
@4620 $19.25 Channel: 5 Note on, C4 key=60 velocity: 75
@4650 $19.375 Channel: 5 Note off, C4 key=60 velocity: 0
@4680 $19.5 Channel: 5 Note on, E3 key=52 velocity: 100
@4710 $19.625 Channel: 5 Note off, E3 key=52 velocity: 0
@4740 $19.75 Channel: 5 Note on, E4 key=64 velocity: 75
@4770 $19.875 Channel: 5 Note off, E4 key=64 velocity: 0
@4800 $20.0 Channel: 5 Note on, G3 key=55 velocity: 100
@4920 $20.5 Channel: 5 Note off, G3 key=55 velocity: 0
@5040 $21.0 Channel: 5 Note on, A2 key=45 velocity: 100
@5100 $21.25 Channel: 5 Note off, A2 key=45 velocity: 0
@5100 $21.25 Channel: 5 Note on, A3 key=57 velocity: 100
@5130 $21.375 Channel: 5 Note off, A3 key=57 velocity: 0
@5160 $21.5 Channel: 5 Note on, C3 key=48 velocity: 100
@5190 $21.625 Channel: 5 Note off, C3 key=48 velocity: 0
@5220 $21.75 Channel: 5 Note on, C4 key=60 velocity: 75
@5250 $21.875 Channel: 5 Note off, C4 key=60 velocity: 0
@5280 $22.0 Channel: 5 Note on, E3 key=52 velocity: 100
@5400 $22.5 Channel: 5 Note off, E3 key=52 velocity: 0
@5520 $23.0 Channel: 5 Note on, A2 key=45 velocity: 100
@5580 $23.25 Channel: 5 Note off, A2 key=45 velocity: 0
@5580 $23.25 Channel: 5 Note on, A3 key=57 velocity: 100
@5610 $23.375 Channel: 5 Note off, A3 key=57 velocity: 0
@5640 $23.5 Channel: 5 Note on, C3 key=48 velocity: 100
@5670 $23.625 Channel: 5 Note off, C3 key=48 velocity: 0
@5700 $23.75 Channel: 5 Note on, C4 key=60 velocity: 75
@5730 $23.875 Channel: 5 Note off, C4 key=60 velocity: 0
@5760 $24.0 Channel: 5 Note on, E3 key=52 velocity: 100
@5880 $24.5 Channel: 5 Note off, E3 key=52 velocity: 0
@6000 $25.0 Channel: 5 Note on, A3 key=57 velocity: 100
@6060 $25.25 Channel: 5 Note off, A3 key=57 velocity: 0
@6060 $25.25 Channel: 5 Note on, E4 key=64 velocity: 75
@6060 $25.25 Channel: 5 Note on, C4 key=60 velocity: 75
@6090 $25.375 Channel: 5 Note off, C4 key=60 velocity: 0
@6090 $25.375 Channel: 5 Note off, E4 key=64 velocity: 0
@6120 $25.5 Channel: 5 Note on, E4 key=64 velocity: 75
@6120 $25.5 Channel: 5 Note on, C4 key=60 velocity: 75
@6150 $25.625 Channel: 5 Note off, C4 key=60 velocity: 0
@6150 $25.625 Channel: 5 Note off, E4 key=64 velocity: 0
@6180 $25.75 Channel: 5 Note on, E4 key=64 velocity: 75
@6180 $25.75 Channel: 5 Note on, C4 key=60 velocity: 75
@6210 $25.875 Channel: 5 Note off, C4 key=60 velocity: 0
@6210 $25.875 Channel: 5 Note off, E4 key=64 velocity: 0
@6240 $26.0 Channel: 5 Note on, A3 key=57 velocity: 100
@6300 $26.25 Channel: 5 Note off, A3 key=57 velocity: 0
@6300 $26.25 Channel: 5 Note on, E4 key=64 velocity: 75
@6300 $26.25 Channel: 5 Note on, C4 key=60 velocity: 75
@6330 $26.375 Channel: 5 Note off, C4 key=60 velocity: 0
@6330 $26.375 Channel: 5 Note off, E4 key=64 velocity: 0
@6360 $26.5 Channel: 5 Note on, E4 key=64 velocity: 75
@6360 $26.5 Channel: 5 Note on, C4 key=60 velocity: 75
@6390 $26.625 Channel: 5 Note off, C4 key=60 velocity: 0
@6390 $26.625 Channel: 5 Note off, E4 key=64 velocity: 0
@6420 $26.75 Channel: 5 Note on, E4 key=64 velocity: 75
@6420 $26.75 Channel: 5 Note on, C4 key=60 velocity: 75
@6450 $26.875 Channel: 5 Note off, C4 key=60 velocity: 0
@6450 $26.875 Channel: 5 Note off, E4 key=64 velocity: 0
@6480 $27.0 Channel: 5 Note on, A3 key=57 velocity: 100
@6540 $27.25 Channel: 5 Note off, A3 key=57 velocity: 0
@6540 $27.25 Channel: 5 Note on, E4 key=64 velocity: 75
@6540 $27.25 Channel: 5 Note on, C4 key=60 velocity: 75
@6570 $27.375 Channel: 5 Note off, C4 key=60 velocity: 0
@6570 $27.375 Channel: 5 Note off, E4 key=64 velocity: 0
@6600 $27.5 Channel: 5 Note on, A3 key=57 velocity: 100
@6660 $27.75 Channel: 5 Note off, A3 key=57 velocity: 0
@6660 $27.75 Channel: 5 Note on, E4 key=64 velocity: 75
@6660 $27.75 Channel: 5 Note on, C4 key=60 velocity: 75
@6690 $27.875 Channel: 5 Note off, C4 key=60 velocity: 0
@6690 $27.875 Channel: 5 Note off, E4 key=64 velocity: 0
@6720 $28.0 Channel: 5 Note on, F3 key=53 velocity: 100
@6780 $28.25 Channel: 5 Note off, F3 key=53 velocity: 0
@6780 $28.25 Channel: 5 Note on, D#4 key=63 velocity: 75
@6780 $28.25 Channel: 5 Note on, A3 key=57 velocity: 100
@6810 $28.375 Channel: 5 Note off, A3 key=57 velocity: 0
@6810 $28.375 Channel: 5 Note off, D#4 key=63 velocity: 0
@6840 $28.5 Channel: 5 Note on, A3 key=57 velocity: 100
@6840 $28.5 Channel: 5 Note on, D#4 key=63 velocity: 75
@6870 $28.625 Channel: 5 Note off, D#4 key=63 velocity: 0
@6870 $28.625 Channel: 5 Note off, A3 key=57 velocity: 0
@6900 $28.75 Channel: 5 Note on, A3 key=57 velocity: 100
@6900 $28.75 Channel: 5 Note on, D#4 key=63 velocity: 75
@6930 $28.875 Channel: 5 Note off, D#4 key=63 velocity: 0
@6930 $28.875 Channel: 5 Note off, A3 key=57 velocity: 0
@6960 $29.0 Channel: 5 Note on, E3 key=52 velocity: 100
@7020 $29.25 Channel: 5 Note off, E3 key=52 velocity: 0
@7020 $29.25 Channel: 5 Note on, E4 key=64 velocity: 75
@7020 $29.25 Channel: 5 Note on, A3 key=57 velocity: 100
@7050 $29.375 Channel: 5 Note off, A3 key=57 velocity: 0
@7050 $29.375 Channel: 5 Note off, E4 key=64 velocity: 0
@7080 $29.5 Channel: 5 Note on, D3 key=50 velocity: 100
@7140 $29.75 Channel: 5 Note off, D3 key=50 velocity: 0
@7140 $29.75 Channel: 5 Note on, F3 key=53 velocity: 100
@7140 $29.75 Channel: 5 Note on, B3 key=59 velocity: 75
@7170 $29.875 Channel: 5 Note off, B3 key=59 velocity: 0
@7170 $29.875 Channel: 5 Note off, F3 key=53 velocity: 0
@7200 $30.0 Channel: 5 Note on, C3 key=48 velocity: 100
@7260 $30.25 Channel: 5 Note off, C3 key=48 velocity: 0
@7260 $30.25 Channel: 5 Note on, A3 key=57 velocity: 100
@7260 $30.25 Channel: 5 Note on, E3 key=52 velocity: 100
@7290 $30.375 Channel: 5 Note off, E3 key=52 velocity: 0
@7290 $30.375 Channel: 5 Note off, A3 key=57 velocity: 0
@7320 $30.5 Channel: 5 Note on, D3 key=50 velocity: 100
@7380 $30.75 Channel: 5 Note off, D3 key=50 velocity: 0
@7380 $30.75 Channel: 5 Note on, B3 key=59 velocity: 75
@7380 $30.75 Channel: 5 Note on, F3 key=53 velocity: 100
@7410 $30.875 Channel: 5 Note off, F3 key=53 velocity: 0
@7410 $30.875 Channel: 5 Note off, B3 key=59 velocity: 0
@7440 $31.0 Channel: 5 Note on, E3 key=52 velocity: 100
@7440 $31.0 Channel: 5 Note on, A3 key=57 velocity: 100
@7470 $31.125 Channel: 5 Note off, A3 key=57 velocity: 0
@7470 $31.125 Channel: 5 Note off, E3 key=52 velocity: 0
@7500 $31.25 Channel: 5 Note on, A3 key=57 velocity: 100
@7500 $31.25 Channel: 5 Note on, E3 key=52 velocity: 100
@7530 $31.375 Channel: 5 Note off, E3 key=52 velocity: 0
@7530 $31.375 Channel: 5 Note off, A3 key=57 velocity: 0
@7560 $31.5 Channel: 5 Note on, G#3 key=56 velocity: 100
@7560 $31.5 Channel: 5 Note on, E3 key=52 velocity: 100
@7590 $31.625 Channel: 5 Note off, E3 key=52 velocity: 0
@7590 $31.625 Channel: 5 Note off, G#3 key=56 velocity: 0
@7620 $31.75 Channel: 5 Note on, E3 key=52 velocity: 100
@7620 $31.75 Channel: 5 Note on, G#3 key=56 velocity: 100
@7650 $31.875 Channel: 5 Note off, G#3 key=56 velocity: 0
@7650 $31.875 Channel: 5 Note off, E3 key=52 velocity: 0
@7680 $32.0 Channel: 5 Note on, A3 key=57 velocity: 100
@7680 $32.0 Channel: 5 Note on, A2 key=45 velocity: 100
@7800 $32.5 Channel: 5 Note off, A2 key=45 velocity: 0
@7800 $32.5 Channel: 5 Note off, A3 key=57 velocity: 0
@7920 $33.0 Channel: 5 Note on, C3 key=48 velocity: 100
@7980 $33.25 Channel: 5 Note off, C3 key=48 velocity: 0
@7980 $33.25 Channel: 5 Note on, C4 key=60 velocity: 100
@8010 $33.375 Channel: 5 Note off, C4 key=60 velocity: 0
@8040 $33.5 Channel: 5 Note on, E3 key=52 velocity: 100
@8070 $33.625 Channel: 5 Note off, E3 key=52 velocity: 0
@8100 $33.75 Channel: 5 Note on, E4 key=64 velocity: 100
@8130 $33.875 Channel: 5 Note off, E4 key=64 velocity: 0
@8160 $34.0 Channel: 5 Note on, G3 key=55 velocity: 100
@8280 $34.5 Channel: 5 Note off, G3 key=55 velocity: 0
@8400 $35.0 Channel: 5 Note on, C3 key=48 velocity: 100
@8460 $35.25 Channel: 5 Note off, C3 key=48 velocity: 0
@8460 $35.25 Channel: 5 Note on, C4 key=60 velocity: 100
@8490 $35.375 Channel: 5 Note off, C4 key=60 velocity: 0
@8520 $35.5 Channel: 5 Note on, E3 key=52 velocity: 100
@8550 $35.625 Channel: 5 Note off, E3 key=52 velocity: 0
@8580 $35.75 Channel: 5 Note on, E4 key=64 velocity: 100
@8610 $35.875 Channel: 5 Note off, E4 key=64 velocity: 0
@8640 $36.0 Channel: 5 Note on, G3 key=55 velocity: 100
@8760 $36.5 Channel: 5 Note off, G3 key=55 velocity: 0
@8880 $37.0 Channel: 5 Note on, A2 key=45 velocity: 100
@8940 $37.25 Channel: 5 Note off, A2 key=45 velocity: 0
@8940 $37.25 Channel: 5 Note on, A3 key=57 velocity: 100
@8970 $37.375 Channel: 5 Note off, A3 key=57 velocity: 0
@9000 $37.5 Channel: 5 Note on, C3 key=48 velocity: 100
@9030 $37.625 Channel: 5 Note off, C3 key=48 velocity: 0
@9060 $37.75 Channel: 5 Note on, C4 key=60 velocity: 100
@9090 $37.875 Channel: 5 Note off, C4 key=60 velocity: 0
@9120 $38.0 Channel: 5 Note on, E3 key=52 velocity: 100
@9240 $38.5 Channel: 5 Note off, E3 key=52 velocity: 0
@9360 $39.0 Channel: 5 Note on, A2 key=45 velocity: 100
@9420 $39.25 Channel: 5 Note off, A2 key=45 velocity: 0
@9420 $39.25 Channel: 5 Note on, A3 key=57 velocity: 100
@9450 $39.375 Channel: 5 Note off, A3 key=57 velocity: 0
@9480 $39.5 Channel: 5 Note on, C3 key=48 velocity: 100
@9510 $39.625 Channel: 5 Note off, C3 key=48 velocity: 0
@9540 $39.75 Channel: 5 Note on, C4 key=60 velocity: 100
@9570 $39.875 Channel: 5 Note off, C4 key=60 velocity: 0
@9600 $40.0 Channel: 5 Note on, E3 key=52 velocity: 100
@9720 $40.5 Channel: 5 Note off, E3 key=52 velocity: 0
@9840 $41.0 Channel: 5 Note on, A3 key=57 velocity: 100
@9900 $41.25 Channel: 5 Note off, A3 key=57 velocity: 0
@9900 $41.25 Channel: 5 Note on, E4 key=64 velocity: 100
@9900 $41.25 Channel: 5 Note on, C4 key=60 velocity: 100
@9930 $41.375 Channel: 5 Note off, C4 key=60 velocity: 0
@9930 $41.375 Channel: 5 Note off, E4 key=64 velocity: 0
@9960 $41.5 Channel: 5 Note on, E4 key=64 velocity: 100
@9960 $41.5 Channel: 5 Note on, C4 key=60 velocity: 100
@9990 $41.625 Channel: 5 Note off, C4 key=60 velocity: 0
@9990 $41.625 Channel: 5 Note off, E4 key=64 velocity: 0
@10020 $41.75 Channel: 5 Note on, E4 key=64 velocity: 100
@10020 $41.75 Channel: 5 Note on, C4 key=60 velocity: 100
@10050 $41.875 Channel: 5 Note off, C4 key=60 velocity: 0
@10050 $41.875 Channel: 5 Note off, E4 key=64 velocity: 0
@10080 $42.0 Channel: 5 Note on, A3 key=57 velocity: 100
@10140 $42.25 Channel: 5 Note off, A3 key=57 velocity: 0
@10140 $42.25 Channel: 5 Note on, E4 key=64 velocity: 100
@10140 $42.25 Channel: 5 Note on, C4 key=60 velocity: 100
@10170 $42.375 Channel: 5 Note off, C4 key=60 velocity: 0
@10170 $42.375 Channel: 5 Note off, E4 key=64 velocity: 0
@10200 $42.5 Channel: 5 Note on, E4 key=64 velocity: 100
@10200 $42.5 Channel: 5 Note on, C4 key=60 velocity: 100
@10230 $42.625 Channel: 5 Note off, C4 key=60 velocity: 0
@10230 $42.625 Channel: 5 Note off, E4 key=64 velocity: 0
@10260 $42.75 Channel: 5 Note on, E4 key=64 velocity: 100
@10260 $42.75 Channel: 5 Note on, C4 key=60 velocity: 100
@10290 $42.875 Channel: 5 Note off, C4 key=60 velocity: 0
@10290 $42.875 Channel: 5 Note off, E4 key=64 velocity: 0
@10320 $43.0 Channel: 5 Note on, A3 key=57 velocity: 100
@10380 $43.25 Channel: 5 Note off, A3 key=57 velocity: 0
@10380 $43.25 Channel: 5 Note on, E4 key=64 velocity: 100
@10380 $43.25 Channel: 5 Note on, C4 key=60 velocity: 100
@10410 $43.375 Channel: 5 Note off, C4 key=60 velocity: 0
@10410 $43.375 Channel: 5 Note off, E4 key=64 velocity: 0
@10440 $43.5 Channel: 5 Note on, A3 key=57 velocity: 100
@10500 $43.75 Channel: 5 Note off, A3 key=57 velocity: 0
@10500 $43.75 Channel: 5 Note on, E4 key=64 velocity: 100
@10500 $43.75 Channel: 5 Note on, C4 key=60 velocity: 100
@10530 $43.875 Channel: 5 Note off, C4 key=60 velocity: 0
@10530 $43.875 Channel: 5 Note off, E4 key=64 velocity: 0
@10560 $44.0 Channel: 5 Note on, F3 key=53 velocity: 100
@10620 $44.25 Channel: 5 Note off, F3 key=53 velocity: 0
@10620 $44.25 Channel: 5 Note on, D#4 key=63 velocity: 100
@10620 $44.25 Channel: 5 Note on, A3 key=57 velocity: 100
@10650 $44.375 Channel: 5 Note off, A3 key=57 velocity: 0
@10650 $44.375 Channel: 5 Note off, D#4 key=63 velocity: 0
@10680 $44.5 Channel: 5 Note on, A3 key=57 velocity: 100
@10680 $44.5 Channel: 5 Note on, D#4 key=63 velocity: 100
@10710 $44.625 Channel: 5 Note off, D#4 key=63 velocity: 0
@10710 $44.625 Channel: 5 Note off, A3 key=57 velocity: 0
@10740 $44.75 Channel: 5 Note on, A3 key=57 velocity: 100
@10740 $44.75 Channel: 5 Note on, D#4 key=63 velocity: 100
@10770 $44.875 Channel: 5 Note off, D#4 key=63 velocity: 0
@10770 $44.875 Channel: 5 Note off, A3 key=57 velocity: 0
@10800 $45.0 Channel: 5 Note on, E3 key=52 velocity: 100
@10860 $45.25 Channel: 5 Note off, E3 key=52 velocity: 0
@10860 $45.25 Channel: 5 Note on, E4 key=64 velocity: 100
@10860 $45.25 Channel: 5 Note on, A3 key=57 velocity: 100
@10890 $45.375 Channel: 5 Note off, A3 key=57 velocity: 0
@10890 $45.375 Channel: 5 Note off, E4 key=64 velocity: 0
@10920 $45.5 Channel: 5 Note on, D3 key=50 velocity: 100
@10980 $45.75 Channel: 5 Note off, D3 key=50 velocity: 0
@10980 $45.75 Channel: 5 Note on, F3 key=53 velocity: 100
@10980 $45.75 Channel: 5 Note on, B3 key=59 velocity: 100
@11010 $45.875 Channel: 5 Note off, B3 key=59 velocity: 0
@11010 $45.875 Channel: 5 Note off, F3 key=53 velocity: 0
@11040 $46.0 Channel: 5 Note on, C3 key=48 velocity: 100
@11100 $46.25 Channel: 5 Note off, C3 key=48 velocity: 0
@11100 $46.25 Channel: 5 Note on, A3 key=57 velocity: 100
@11100 $46.25 Channel: 5 Note on, E3 key=52 velocity: 100
@11130 $46.375 Channel: 5 Note off, E3 key=52 velocity: 0
@11130 $46.375 Channel: 5 Note off, A3 key=57 velocity: 0
@11160 $46.5 Channel: 5 Note on, D3 key=50 velocity: 100
@11220 $46.75 Channel: 5 Note off, D3 key=50 velocity: 0
@11220 $46.75 Channel: 5 Note on, B3 key=59 velocity: 100
@11220 $46.75 Channel: 5 Note on, F3 key=53 velocity: 100
@11250 $46.875 Channel: 5 Note off, F3 key=53 velocity: 0
@11250 $46.875 Channel: 5 Note off, B3 key=59 velocity: 0
@11280 $47.0 Channel: 5 Note on, E3 key=52 velocity: 100
@11280 $47.0 Channel: 5 Note on, A3 key=57 velocity: 100
@11310 $47.125 Channel: 5 Note off, A3 key=57 velocity: 0
@11310 $47.125 Channel: 5 Note off, E3 key=52 velocity: 0
@11340 $47.25 Channel: 5 Note on, A3 key=57 velocity: 100
@11340 $47.25 Channel: 5 Note on, E3 key=52 velocity: 100
@11370 $47.375 Channel: 5 Note off, E3 key=52 velocity: 0
@11370 $47.375 Channel: 5 Note off, A3 key=57 velocity: 0
@11400 $47.5 Channel: 5 Note on, G#3 key=56 velocity: 100
@11400 $47.5 Channel: 5 Note on, E3 key=52 velocity: 100
@11430 $47.625 Channel: 5 Note off, E3 key=52 velocity: 0
@11430 $47.625 Channel: 5 Note off, G#3 key=56 velocity: 0
@11460 $47.75 Channel: 5 Note on, E3 key=52 velocity: 100
@11460 $47.75 Channel: 5 Note on, G#3 key=56 velocity: 100
@11490 $47.875 Channel: 5 Note off, G#3 key=56 velocity: 0
@11490 $47.875 Channel: 5 Note off, E3 key=52 velocity: 0
@11520 $48.0 Channel: 5 Note on, A3 key=57 velocity: 100
@11520 $48.0 Channel: 5 Note on, A2 key=45 velocity: 100
@11640 $48.5 Channel: 5 Note off, A2 key=45 velocity: 0
@11640 $48.5 Channel: 5 Note off, A3 key=57 velocity: 0
@11775 $49.0625 Channel: 5 Note on, A3 key=57 velocity: 100
@11805 $49.1875 Channel: 5 Note off, A3 key=57 velocity: 0
@11820 $49.25 Channel: 5 Note on, A3 key=57 velocity: 100
@11850 $49.375 Channel: 5 Note off, A3 key=57 velocity: 0
@11880 $49.5 Channel: 5 Note on, A3 key=57 velocity: 100
@11910 $49.625 Channel: 5 Note off, A3 key=57 velocity: 0
@11940 $49.75 Channel: 5 Note on, A3 key=57 velocity: 100
@11970 $49.875 Channel: 5 Note off, A3 key=57 velocity: 0
@12015 $50.0625 Channel: 5 Note on, A3 key=57 velocity: 100
@12045 $50.1875 Channel: 5 Note off, A3 key=57 velocity: 0
@12060 $50.25 Channel: 5 Note on, A3 key=57 velocity: 100
@12090 $50.375 Channel: 5 Note off, A3 key=57 velocity: 0
@12120 $50.5 Channel: 5 Note on, A3 key=57 velocity: 100
@12150 $50.625 Channel: 5 Note off, A3 key=57 velocity: 0
@12180 $50.75 Channel: 5 Note on, A3 key=57 velocity: 100
@12210 $50.875 Channel: 5 Note off, A3 key=57 velocity: 0
@12255 $51.0625 Channel: 5 Note on, D3 key=50 velocity: 100
@12285 $51.1875 Channel: 5 Note off, D3 key=50 velocity: 0
@12300 $51.25 Channel: 5 Note on, D3 key=50 velocity: 100
@12330 $51.375 Channel: 5 Note off, D3 key=50 velocity: 0
@12375 $51.5625 Channel: 5 Note on, D#3 key=51 velocity: 100
@12405 $51.6875 Channel: 5 Note off, D#3 key=51 velocity: 0
@12420 $51.75 Channel: 5 Note on, D#3 key=51 velocity: 100
@12450 $51.875 Channel: 5 Note off, D#3 key=51 velocity: 0
@12495 $52.0625 Channel: 5 Note on, E3 key=52 velocity: 100
@12525 $52.1875 Channel: 5 Note off, E3 key=52 velocity: 0
@12540 $52.25 Channel: 5 Note on, E3 key=52 velocity: 100
@12570 $52.375 Channel: 5 Note off, E3 key=52 velocity: 0
@12600 $52.5 Channel: 5 Note on, E3 key=52 velocity: 100
@12630 $52.625 Channel: 5 Note off, E3 key=52 velocity: 0
@12660 $52.75 Channel: 5 Note on, E3 key=52 velocity: 100
@12690 $52.875 Channel: 5 Note off, E3 key=52 velocity: 0
@12735 $53.0625 Channel: 5 Note on, A3 key=57 velocity: 100
@12765 $53.1875 Channel: 5 Note off, A3 key=57 velocity: 0
@12780 $53.25 Channel: 5 Note on, A3 key=57 velocity: 100
@12810 $53.375 Channel: 5 Note off, A3 key=57 velocity: 0
@12840 $53.5 Channel: 5 Note on, A3 key=57 velocity: 100
@12870 $53.625 Channel: 5 Note off, A3 key=57 velocity: 0
@12900 $53.75 Channel: 5 Note on, A3 key=57 velocity: 100
@12930 $53.875 Channel: 5 Note off, A3 key=57 velocity: 0
@12975 $54.0625 Channel: 5 Note on, A3 key=57 velocity: 100
@13005 $54.1875 Channel: 5 Note off, A3 key=57 velocity: 0
@13020 $54.25 Channel: 5 Note on, A3 key=57 velocity: 100
@13050 $54.375 Channel: 5 Note off, A3 key=57 velocity: 0
@13080 $54.5 Channel: 5 Note on, A3 key=57 velocity: 100
@13110 $54.625 Channel: 5 Note off, A3 key=57 velocity: 0
@13140 $54.75 Channel: 5 Note on, A3 key=57 velocity: 100
@13170 $54.875 Channel: 5 Note off, A3 key=57 velocity: 0
@13215 $55.0625 Channel: 5 Note on, D3 key=50 velocity: 100
@13245 $55.1875 Channel: 5 Note off, D3 key=50 velocity: 0
@13260 $55.25 Channel: 5 Note on, D3 key=50 velocity: 100
@13290 $55.375 Channel: 5 Note off, D3 key=50 velocity: 0
@13320 $55.5 Channel: 5 Note on, E3 key=52 velocity: 100
@13350 $55.625 Channel: 5 Note off, E3 key=52 velocity: 0
@13380 $55.75 Channel: 5 Note on, E3 key=52 velocity: 100
@13410 $55.875 Channel: 5 Note off, E3 key=52 velocity: 0
@13440 $56.0 Channel: 5 Note on, A2 key=45 velocity: 100
@13560 $56.5 Channel: 5 Note off, A2 key=45 velocity: 0
@13695 $57.0625 Channel: 5 Note on, A3 key=57 velocity: 100
@13725 $57.1875 Channel: 5 Note off, A3 key=57 velocity: 0
@13740 $57.25 Channel: 5 Note on, A3 key=57 velocity: 100
@13770 $57.375 Channel: 5 Note off, A3 key=57 velocity: 0
@13800 $57.5 Channel: 5 Note on, A3 key=57 velocity: 100
@13830 $57.625 Channel: 5 Note off, A3 key=57 velocity: 0
@13860 $57.75 Channel: 5 Note on, A3 key=57 velocity: 100
@13890 $57.875 Channel: 5 Note off, A3 key=57 velocity: 0
@13935 $58.0625 Channel: 5 Note on, A3 key=57 velocity: 100
@13965 $58.1875 Channel: 5 Note off, A3 key=57 velocity: 0
@13980 $58.25 Channel: 5 Note on, A3 key=57 velocity: 100
@14010 $58.375 Channel: 5 Note off, A3 key=57 velocity: 0
@14040 $58.5 Channel: 5 Note on, A3 key=57 velocity: 100
@14070 $58.625 Channel: 5 Note off, A3 key=57 velocity: 0
@14100 $58.75 Channel: 5 Note on, A3 key=57 velocity: 100
@14130 $58.875 Channel: 5 Note off, A3 key=57 velocity: 0
@14175 $59.0625 Channel: 5 Note on, D3 key=50 velocity: 100
@14205 $59.1875 Channel: 5 Note off, D3 key=50 velocity: 0
@14220 $59.25 Channel: 5 Note on, D3 key=50 velocity: 100
@14250 $59.375 Channel: 5 Note off, D3 key=50 velocity: 0
@14295 $59.5625 Channel: 5 Note on, D#3 key=51 velocity: 100
@14325 $59.6875 Channel: 5 Note off, D#3 key=51 velocity: 0
@14340 $59.75 Channel: 5 Note on, D#3 key=51 velocity: 100
@14370 $59.875 Channel: 5 Note off, D#3 key=51 velocity: 0
@14415 $60.0625 Channel: 5 Note on, E3 key=52 velocity: 100
@14445 $60.1875 Channel: 5 Note off, E3 key=52 velocity: 0
@14460 $60.25 Channel: 5 Note on, E3 key=52 velocity: 100
@14490 $60.375 Channel: 5 Note off, E3 key=52 velocity: 0
@14520 $60.5 Channel: 5 Note on, E3 key=52 velocity: 100
@14550 $60.625 Channel: 5 Note off, E3 key=52 velocity: 0
@14580 $60.75 Channel: 5 Note on, E3 key=52 velocity: 100
@14610 $60.875 Channel: 5 Note off, E3 key=52 velocity: 0
@14655 $61.0625 Channel: 5 Note on, A3 key=57 velocity: 100
@14685 $61.1875 Channel: 5 Note off, A3 key=57 velocity: 0
@14700 $61.25 Channel: 5 Note on, A3 key=57 velocity: 100
@14730 $61.375 Channel: 5 Note off, A3 key=57 velocity: 0
@14760 $61.5 Channel: 5 Note on, A3 key=57 velocity: 100
@14790 $61.625 Channel: 5 Note off, A3 key=57 velocity: 0
@14820 $61.75 Channel: 5 Note on, A3 key=57 velocity: 100
@14850 $61.875 Channel: 5 Note off, A3 key=57 velocity: 0
@14895 $62.0625 Channel: 5 Note on, A3 key=57 velocity: 100
@14925 $62.1875 Channel: 5 Note off, A3 key=57 velocity: 0
@14940 $62.25 Channel: 5 Note on, A3 key=57 velocity: 100
@14970 $62.375 Channel: 5 Note off, A3 key=57 velocity: 0
@15000 $62.5 Channel: 5 Note on, A3 key=57 velocity: 100
@15030 $62.625 Channel: 5 Note off, A3 key=57 velocity: 0
@15060 $62.75 Channel: 5 Note on, A3 key=57 velocity: 100
@15090 $62.875 Channel: 5 Note off, A3 key=57 velocity: 0
@15135 $63.0625 Channel: 5 Note on, D3 key=50 velocity: 100
@15165 $63.1875 Channel: 5 Note off, D3 key=50 velocity: 0
@15180 $63.25 Channel: 5 Note on, D3 key=50 velocity: 100
@15210 $63.375 Channel: 5 Note off, D3 key=50 velocity: 0
@15240 $63.5 Channel: 5 Note on, E3 key=52 velocity: 100
@15270 $63.625 Channel: 5 Note off, E3 key=52 velocity: 0
@15300 $63.75 Channel: 5 Note on, E3 key=52 velocity: 100
@15330 $63.875 Channel: 5 Note off, E3 key=52 velocity: 0
@15360 $64.0 Channel: 5 Note on, A2 key=45 velocity: 100
@15480 $64.5 Channel: 5 Note off, A2 key=45 velocity: 0
@15600 $65.0 Channel: 5 Note on, F#3 key=54 velocity: 60
@15660 $65.25 Channel: 5 Note off, F#3 key=54 velocity: 0
@15660 $65.25 Channel: 5 Note on, A3 key=57 velocity: 60
@15690 $65.375 Channel: 5 Note off, A3 key=57 velocity: 0
@15720 $65.5 Channel: 5 Note on, A3 key=57 velocity: 60
@15750 $65.625 Channel: 5 Note off, A3 key=57 velocity: 0
@15780 $65.75 Channel: 5 Note on, A3 key=57 velocity: 60
@15810 $65.875 Channel: 5 Note off, A3 key=57 velocity: 0
@15840 $66.0 Channel: 5 Note on, G#3 key=56 velocity: 60
@15900 $66.25 Channel: 5 Note off, G#3 key=56 velocity: 0
@15900 $66.25 Channel: 5 Note on, B3 key=59 velocity: 60
@15930 $66.375 Channel: 5 Note off, B3 key=59 velocity: 0
@15960 $66.5 Channel: 5 Note on, B3 key=59 velocity: 60
@15990 $66.625 Channel: 5 Note off, B3 key=59 velocity: 0
@16020 $66.75 Channel: 5 Note on, B3 key=59 velocity: 60
@16050 $66.875 Channel: 5 Note off, B3 key=59 velocity: 0
@16080 $67.0 Channel: 5 Note on, F#3 key=54 velocity: 60
@16140 $67.25 Channel: 5 Note off, F#3 key=54 velocity: 0
@16140 $67.25 Channel: 5 Note on, A3 key=57 velocity: 60
@16170 $67.375 Channel: 5 Note off, A3 key=57 velocity: 0
@16200 $67.5 Channel: 5 Note on, A3 key=57 velocity: 60
@16230 $67.625 Channel: 5 Note off, A3 key=57 velocity: 0
@16260 $67.75 Channel: 5 Note on, A3 key=57 velocity: 60
@16290 $67.875 Channel: 5 Note off, A3 key=57 velocity: 0
@16320 $68.0 Channel: 5 Note on, F3 key=53 velocity: 60
@16380 $68.25 Channel: 5 Note off, F3 key=53 velocity: 0
@16380 $68.25 Channel: 5 Note on, G#3 key=56 velocity: 60
@16410 $68.375 Channel: 5 Note off, G#3 key=56 velocity: 0
@16440 $68.5 Channel: 5 Note on, G#3 key=56 velocity: 60
@16470 $68.625 Channel: 5 Note off, G#3 key=56 velocity: 0
@16500 $68.75 Channel: 5 Note on, G#3 key=56 velocity: 60
@16530 $68.875 Channel: 5 Note off, G#3 key=56 velocity: 0
@16560 $69.0 Channel: 5 Note on, F#3 key=54 velocity: 60
@16620 $69.25 Channel: 5 Note off, F#3 key=54 velocity: 0
@16620 $69.25 Channel: 5 Note on, A3 key=57 velocity: 60
@16650 $69.375 Channel: 5 Note off, A3 key=57 velocity: 0
@16680 $69.5 Channel: 5 Note on, A3 key=57 velocity: 60
@16710 $69.625 Channel: 5 Note off, A3 key=57 velocity: 0
@16740 $69.75 Channel: 5 Note on, A3 key=57 velocity: 60
@16770 $69.875 Channel: 5 Note off, A3 key=57 velocity: 0
@16800 $70.0 Channel: 5 Note on, G#3 key=56 velocity: 60
@16860 $70.25 Channel: 5 Note off, G#3 key=56 velocity: 0
@16860 $70.25 Channel: 5 Note on, C#4 key=61 velocity: 60
@16890 $70.375 Channel: 5 Note off, C#4 key=61 velocity: 0
@16920 $70.5 Channel: 5 Note on, C#4 key=61 velocity: 60
@16950 $70.625 Channel: 5 Note off, C#4 key=61 velocity: 0
@16980 $70.75 Channel: 5 Note on, C#4 key=61 velocity: 60
@17010 $70.875 Channel: 5 Note off, C#4 key=61 velocity: 0
@17040 $71.0 Channel: 5 Note on, G#3 key=56 velocity: 60
@17100 $71.25 Channel: 5 Note off, G#3 key=56 velocity: 0
@17100 $71.25 Channel: 5 Note on, D#4 key=63 velocity: 60
@17130 $71.375 Channel: 5 Note off, D#4 key=63 velocity: 0
@17160 $71.5 Channel: 5 Note on, D#4 key=63 velocity: 60
@17190 $71.625 Channel: 5 Note off, D#4 key=63 velocity: 0
@17220 $71.75 Channel: 5 Note on, D#4 key=63 velocity: 60
@17250 $71.875 Channel: 5 Note off, D#4 key=63 velocity: 0
@17280 $72.0 Channel: 5 Note on, E4 key=64 velocity: 75
@17280 $72.0 Channel: 5 Note on, C#4 key=61 velocity: 75
@17340 $72.25 Channel: 5 Note off, C#4 key=61 velocity: 0
@17340 $72.25 Channel: 5 Note off, E4 key=64 velocity: 0
@17520 $73.0 Channel: 5 Note on, F#3 key=54 velocity: 60
@17580 $73.25 Channel: 5 Note off, F#3 key=54 velocity: 0
@17580 $73.25 Channel: 5 Note on, A3 key=57 velocity: 60
@17610 $73.375 Channel: 5 Note off, A3 key=57 velocity: 0
@17640 $73.5 Channel: 5 Note on, A3 key=57 velocity: 60
@17670 $73.625 Channel: 5 Note off, A3 key=57 velocity: 0
@17700 $73.75 Channel: 5 Note on, A3 key=57 velocity: 60
@17730 $73.875 Channel: 5 Note off, A3 key=57 velocity: 0
@17760 $74.0 Channel: 5 Note on, G#3 key=56 velocity: 60
@17820 $74.25 Channel: 5 Note off, G#3 key=56 velocity: 0
@17820 $74.25 Channel: 5 Note on, B3 key=59 velocity: 60
@17850 $74.375 Channel: 5 Note off, B3 key=59 velocity: 0
@17880 $74.5 Channel: 5 Note on, B3 key=59 velocity: 60
@17910 $74.625 Channel: 5 Note off, B3 key=59 velocity: 0
@17940 $74.75 Channel: 5 Note on, B3 key=59 velocity: 60
@17970 $74.875 Channel: 5 Note off, B3 key=59 velocity: 0
@18000 $75.0 Channel: 5 Note on, F#3 key=54 velocity: 60
@18060 $75.25 Channel: 5 Note off, F#3 key=54 velocity: 0
@18060 $75.25 Channel: 5 Note on, A3 key=57 velocity: 60
@18090 $75.375 Channel: 5 Note off, A3 key=57 velocity: 0
@18120 $75.5 Channel: 5 Note on, A3 key=57 velocity: 60
@18150 $75.625 Channel: 5 Note off, A3 key=57 velocity: 0
@18180 $75.75 Channel: 5 Note on, A3 key=57 velocity: 60
@18210 $75.875 Channel: 5 Note off, A3 key=57 velocity: 0
@18240 $76.0 Channel: 5 Note on, F3 key=53 velocity: 60
@18300 $76.25 Channel: 5 Note off, F3 key=53 velocity: 0
@18300 $76.25 Channel: 5 Note on, G#3 key=56 velocity: 60
@18330 $76.375 Channel: 5 Note off, G#3 key=56 velocity: 0
@18360 $76.5 Channel: 5 Note on, G#3 key=56 velocity: 60
@18390 $76.625 Channel: 5 Note off, G#3 key=56 velocity: 0
@18420 $76.75 Channel: 5 Note on, G#3 key=56 velocity: 60
@18450 $76.875 Channel: 5 Note off, G#3 key=56 velocity: 0
@18480 $77.0 Channel: 5 Note on, F#3 key=54 velocity: 60
@18540 $77.25 Channel: 5 Note off, F#3 key=54 velocity: 0
@18540 $77.25 Channel: 5 Note on, A3 key=57 velocity: 60
@18570 $77.375 Channel: 5 Note off, A3 key=57 velocity: 0
@18600 $77.5 Channel: 5 Note on, A3 key=57 velocity: 60
@18630 $77.625 Channel: 5 Note off, A3 key=57 velocity: 0
@18660 $77.75 Channel: 5 Note on, A3 key=57 velocity: 60
@18690 $77.875 Channel: 5 Note off, A3 key=57 velocity: 0
@18720 $78.0 Channel: 5 Note on, G#3 key=56 velocity: 60
@18780 $78.25 Channel: 5 Note off, G#3 key=56 velocity: 0
@18780 $78.25 Channel: 5 Note on, C#4 key=61 velocity: 60
@18810 $78.375 Channel: 5 Note off, C#4 key=61 velocity: 0
@18840 $78.5 Channel: 5 Note on, C#4 key=61 velocity: 60
@18870 $78.625 Channel: 5 Note off, C#4 key=61 velocity: 0
@18900 $78.75 Channel: 5 Note on, C#4 key=61 velocity: 60
@18930 $78.875 Channel: 5 Note off, C#4 key=61 velocity: 0
@18960 $79.0 Channel: 5 Note on, G#3 key=56 velocity: 60
@19020 $79.25 Channel: 5 Note off, G#3 key=56 velocity: 0
@19020 $79.25 Channel: 5 Note on, D#4 key=63 velocity: 60
@19050 $79.375 Channel: 5 Note off, D#4 key=63 velocity: 0
@19080 $79.5 Channel: 5 Note on, D#4 key=63 velocity: 60
@19110 $79.625 Channel: 5 Note off, D#4 key=63 velocity: 0
@19140 $79.75 Channel: 5 Note on, D#4 key=63 velocity: 60
@19170 $79.875 Channel: 5 Note off, D#4 key=63 velocity: 0
@19200 $80.0 Channel: 5 Note on, E4 key=64 velocity: 75
@19200 $80.0 Channel: 5 Note on, C#4 key=61 velocity: 75
@19260 $80.25 Channel: 5 Note off, C#4 key=61 velocity: 0
@19260 $80.25 Channel: 5 Note off, E4 key=64 velocity: 0
@19440 $81.0 Channel: 5 Note on, A3 key=57 velocity: 60
@19500 $81.25 Channel: 5 Note off, A3 key=57 velocity: 0
@19500 $81.25 Channel: 5 Note on, A3 key=57 velocity: 60
@19500 $81.25 Channel: 5 Note on, C#4 key=61 velocity: 60
@19530 $81.375 Channel: 5 Note off, C#4 key=61 velocity: 0
@19530 $81.375 Channel: 5 Note off, A3 key=57 velocity: 0
@19560 $81.5 Channel: 5 Note on, A3 key=57 velocity: 60
@19560 $81.5 Channel: 5 Note on, C#4 key=61 velocity: 60
@19590 $81.625 Channel: 5 Note off, C#4 key=61 velocity: 0
@19590 $81.625 Channel: 5 Note off, A3 key=57 velocity: 0
@19620 $81.75 Channel: 5 Note on, A3 key=57 velocity: 60
@19620 $81.75 Channel: 5 Note on, C#4 key=61 velocity: 60
@19650 $81.875 Channel: 5 Note off, C#4 key=61 velocity: 0
@19650 $81.875 Channel: 5 Note off, A3 key=57 velocity: 0
@19680 $82.0 Channel: 5 Note on, B3 key=59 velocity: 60
@19740 $82.25 Channel: 5 Note off, B3 key=59 velocity: 0
@19740 $82.25 Channel: 5 Note on, E4 key=64 velocity: 100
@19740 $82.25 Channel: 5 Note on, D4 key=62 velocity: 100
@19770 $82.375 Channel: 5 Note off, D4 key=62 velocity: 0
@19770 $82.375 Channel: 5 Note off, E4 key=64 velocity: 0
@19800 $82.5 Channel: 5 Note on, G#3 key=56 velocity: 60
@19860 $82.75 Channel: 5 Note off, G#3 key=56 velocity: 0
@19860 $82.75 Channel: 5 Note on, E4 key=64 velocity: 100
@19860 $82.75 Channel: 5 Note on, D4 key=62 velocity: 100
@19890 $82.875 Channel: 5 Note off, D4 key=62 velocity: 0
@19890 $82.875 Channel: 5 Note off, E4 key=64 velocity: 0
@19920 $83.0 Channel: 5 Note on, A3 key=57 velocity: 60
@19980 $83.25 Channel: 5 Note off, A3 key=57 velocity: 0
@19980 $83.25 Channel: 5 Note on, A3 key=57 velocity: 60
@19980 $83.25 Channel: 5 Note on, C#4 key=61 velocity: 60
@20010 $83.375 Channel: 5 Note off, C#4 key=61 velocity: 0
@20010 $83.375 Channel: 5 Note off, A3 key=57 velocity: 0
@20040 $83.5 Channel: 5 Note on, C#4 key=61 velocity: 60
@20040 $83.5 Channel: 5 Note on, A3 key=57 velocity: 60
@20070 $83.625 Channel: 5 Note off, A3 key=57 velocity: 0
@20070 $83.625 Channel: 5 Note off, C#4 key=61 velocity: 0
@20100 $83.75 Channel: 5 Note on, C#4 key=61 velocity: 60
@20100 $83.75 Channel: 5 Note on, A3 key=57 velocity: 60
@20130 $83.875 Channel: 5 Note off, A3 key=57 velocity: 0
@20130 $83.875 Channel: 5 Note off, C#4 key=61 velocity: 0
@20160 $84.0 Channel: 5 Note on, E3 key=52 velocity: 75
@20220 $84.25 Channel: 5 Note off, E3 key=52 velocity: 0
@20220 $84.25 Channel: 5 Note on, D4 key=62 velocity: 60
@20220 $84.25 Channel: 5 Note on, G#3 key=56 velocity: 60
@20250 $84.375 Channel: 5 Note off, G#3 key=56 velocity: 0
@20250 $84.375 Channel: 5 Note off, D4 key=62 velocity: 0
@20280 $84.5 Channel: 5 Note on, D4 key=62 velocity: 60
@20280 $84.5 Channel: 5 Note on, G#3 key=56 velocity: 60
@20310 $84.625 Channel: 5 Note off, G#3 key=56 velocity: 0
@20310 $84.625 Channel: 5 Note off, D4 key=62 velocity: 0
@20340 $84.75 Channel: 5 Note on, D4 key=62 velocity: 60
@20340 $84.75 Channel: 5 Note on, G#3 key=56 velocity: 60
@20370 $84.875 Channel: 5 Note off, G#3 key=56 velocity: 0
@20370 $84.875 Channel: 5 Note off, D4 key=62 velocity: 0
@20400 $85.0 Channel: 5 Note on, A3 key=57 velocity: 75
@20460 $85.25 Channel: 5 Note off, A3 key=57 velocity: 0
@20460 $85.25 Channel: 5 Note on, C#4 key=61 velocity: 60
@20460 $85.25 Channel: 5 Note on, A3 key=57 velocity: 60
@20490 $85.375 Channel: 5 Note off, A3 key=57 velocity: 0
@20490 $85.375 Channel: 5 Note off, C#4 key=61 velocity: 0
@20520 $85.5 Channel: 5 Note on, C#4 key=61 velocity: 60
@20520 $85.5 Channel: 5 Note on, A3 key=57 velocity: 60
@20550 $85.625 Channel: 5 Note off, A3 key=57 velocity: 0
@20550 $85.625 Channel: 5 Note off, C#4 key=61 velocity: 0
@20580 $85.75 Channel: 5 Note on, C#4 key=61 velocity: 60
@20580 $85.75 Channel: 5 Note on, A3 key=57 velocity: 60
@20610 $85.875 Channel: 5 Note off, A3 key=57 velocity: 0
@20610 $85.875 Channel: 5 Note off, C#4 key=61 velocity: 0
@20640 $86.0 Channel: 5 Note on, B3 key=59 velocity: 60
@20700 $86.25 Channel: 5 Note off, B3 key=59 velocity: 0
@20700 $86.25 Channel: 5 Note on, E4 key=64 velocity: 100
@20700 $86.25 Channel: 5 Note on, D4 key=62 velocity: 100
@20730 $86.375 Channel: 5 Note off, D4 key=62 velocity: 0
@20730 $86.375 Channel: 5 Note off, E4 key=64 velocity: 0
@20760 $86.5 Channel: 5 Note on, G#3 key=56 velocity: 60
@20820 $86.75 Channel: 5 Note off, G#3 key=56 velocity: 0
@20820 $86.75 Channel: 5 Note on, E4 key=64 velocity: 100
@20820 $86.75 Channel: 5 Note on, D4 key=62 velocity: 100
@20850 $86.875 Channel: 5 Note off, D4 key=62 velocity: 0
@20850 $86.875 Channel: 5 Note off, E4 key=64 velocity: 0
@20880 $87.0 Channel: 5 Note on, A3 key=57 velocity: 75
@20910 $87.125 Channel: 5 Note off, A3 key=57 velocity: 0
@20940 $87.25 Channel: 5 Note on, F#3 key=54 velocity: 75
@20970 $87.375 Channel: 5 Note off, F#3 key=54 velocity: 0
@21000 $87.5 Channel: 5 Note on, D3 key=50 velocity: 75
@21030 $87.625 Channel: 5 Note off, D3 key=50 velocity: 0
@21060 $87.75 Channel: 5 Note on, E3 key=52 velocity: 75
@21090 $87.875 Channel: 5 Note off, E3 key=52 velocity: 0
@21120 $88.0 Channel: 5 Note on, A2 key=45 velocity: 75
@21150 $88.125 Channel: 5 Note off, A2 key=45 velocity: 0
@21180 $88.25 Channel: 5 Note on, A3 key=57 velocity: 75
@21210 $88.375 Channel: 5 Note off, A3 key=57 velocity: 0
@21360 $89.0 Channel: 5 Note on, F#3 key=54 velocity: 100
@21420 $89.25 Channel: 5 Note off, F#3 key=54 velocity: 0
@21600 $90.0 Channel: 5 Note on, G#3 key=56 velocity: 100
@21660 $90.25 Channel: 5 Note off, G#3 key=56 velocity: 0
@21660 $90.25 Channel: 5 Note on, B3 key=59 velocity: 60
@21690 $90.375 Channel: 5 Note off, B3 key=59 velocity: 0
@21720 $90.5 Channel: 5 Note on, B3 key=59 velocity: 60
@21750 $90.625 Channel: 5 Note off, B3 key=59 velocity: 0
@21780 $90.75 Channel: 5 Note on, B3 key=59 velocity: 60
@21810 $90.875 Channel: 5 Note off, B3 key=59 velocity: 0
@21840 $91.0 Channel: 5 Note on, F#3 key=54 velocity: 100
@21900 $91.25 Channel: 5 Note off, F#3 key=54 velocity: 0
@21900 $91.25 Channel: 5 Note on, A3 key=57 velocity: 60
@21930 $91.375 Channel: 5 Note off, A3 key=57 velocity: 0
@21960 $91.5 Channel: 5 Note on, A3 key=57 velocity: 60
@21990 $91.625 Channel: 5 Note off, A3 key=57 velocity: 0
@22020 $91.75 Channel: 5 Note on, A3 key=57 velocity: 60
@22050 $91.875 Channel: 5 Note off, A3 key=57 velocity: 0
@22080 $92.0 Channel: 5 Note on, C#3 key=49 velocity: 100
@22140 $92.25 Channel: 5 Note off, C#3 key=49 velocity: 0
@22140 $92.25 Channel: 5 Note on, C#4 key=61 velocity: 60
@22140 $92.25 Channel: 5 Note on, G#3 key=56 velocity: 60
@22170 $92.375 Channel: 5 Note off, G#3 key=56 velocity: 0
@22170 $92.375 Channel: 5 Note off, C#4 key=61 velocity: 0
@22200 $92.5 Channel: 5 Note on, C#4 key=61 velocity: 60
@22200 $92.5 Channel: 5 Note on, G3 key=55 velocity: 60
@22230 $92.625 Channel: 5 Note off, G3 key=55 velocity: 0
@22230 $92.625 Channel: 5 Note off, C#4 key=61 velocity: 0
@22260 $92.75 Channel: 5 Note on, C#4 key=61 velocity: 60
@22260 $92.75 Channel: 5 Note on, F#3 key=54 velocity: 60
@22290 $92.875 Channel: 5 Note off, F#3 key=54 velocity: 0
@22290 $92.875 Channel: 5 Note off, C#4 key=61 velocity: 0
@22320 $93.0 Channel: 5 Note on, B2 key=47 velocity: 100
@22380 $93.25 Channel: 5 Note off, B2 key=47 velocity: 0
@22380 $93.25 Channel: 5 Note on, F#3 key=54 velocity: 60
@22410 $93.375 Channel: 5 Note off, F#3 key=54 velocity: 0
@22440 $93.5 Channel: 5 Note on, F#3 key=54 velocity: 60
@22470 $93.625 Channel: 5 Note off, F#3 key=54 velocity: 0
@22500 $93.75 Channel: 5 Note on, F#3 key=54 velocity: 60
@22530 $93.875 Channel: 5 Note off, F#3 key=54 velocity: 0
@22560 $94.0 Channel: 5 Note on, B2 key=47 velocity: 100
@22620 $94.25 Channel: 5 Note off, B2 key=47 velocity: 0
@22620 $94.25 Channel: 5 Note on, G#3 key=56 velocity: 60
@22650 $94.375 Channel: 5 Note off, G#3 key=56 velocity: 0
@22680 $94.5 Channel: 5 Note on, G#3 key=56 velocity: 60
@22710 $94.625 Channel: 5 Note off, G#3 key=56 velocity: 0
@22740 $94.75 Channel: 5 Note on, G#3 key=56 velocity: 60
@22770 $94.875 Channel: 5 Note off, G#3 key=56 velocity: 0
@22800 $95.0 Channel: 5 Note on, C#3 key=49 velocity: 100
@22860 $95.25 Channel: 5 Note off, C#3 key=49 velocity: 0
@22860 $95.25 Channel: 5 Note on, A3 key=57 velocity: 75
@22860 $95.25 Channel: 5 Note on, F#3 key=54 velocity: 75
@22890 $95.375 Channel: 5 Note off, F#3 key=54 velocity: 0
@22890 $95.375 Channel: 5 Note off, A3 key=57 velocity: 0
@22920 $95.5 Channel: 5 Note on, C#3 key=49 velocity: 100
@22980 $95.75 Channel: 5 Note off, C#3 key=49 velocity: 0
@22980 $95.75 Channel: 5 Note on, B3 key=59 velocity: 75
@22980 $95.75 Channel: 5 Note on, G#3 key=56 velocity: 75
@23010 $95.875 Channel: 5 Note off, G#3 key=56 velocity: 0
@23010 $95.875 Channel: 5 Note off, B3 key=59 velocity: 0
@23040 $96.0 Channel: 5 Note on, F#3 key=54 velocity: 75
@23040 $96.0 Channel: 5 Note on, A3 key=57 velocity: 75
@23160 $96.5 Channel: 5 Note off, A3 key=57 velocity: 0
@23160 $96.5 Channel: 5 Note off, F#3 key=54 velocity: 0
@23285 $97.02083333333333 Channel: 5 Note on, A3 key=57 velocity: 60
@23345 $97.27083333333333 Channel: 5 Note off, A3 key=57 velocity: 0
@23345 $97.27083333333333 Channel: 5 Note on, A3 key=57 velocity: 60
@23345 $97.27083333333333 Channel: 5 Note on, C#4 key=61 velocity: 60
@23375 $97.39583333333333 Channel: 5 Note off, C#4 key=61 velocity: 0
@23375 $97.39583333333333 Channel: 5 Note off, A3 key=57 velocity: 0
@23405 $97.52083333333333 Channel: 5 Note on, A3 key=57 velocity: 60
@23405 $97.52083333333333 Channel: 5 Note on, C#4 key=61 velocity: 60
@23435 $97.64583333333333 Channel: 5 Note off, C#4 key=61 velocity: 0
@23435 $97.64583333333333 Channel: 5 Note off, A3 key=57 velocity: 0
@23465 $97.77083333333333 Channel: 5 Note on, A3 key=57 velocity: 60
@23465 $97.77083333333333 Channel: 5 Note on, C#4 key=61 velocity: 60
@23495 $97.89583333333333 Channel: 5 Note off, C#4 key=61 velocity: 0
@23495 $97.89583333333333 Channel: 5 Note off, A3 key=57 velocity: 0
@23525 $98.02083333333333 Channel: 5 Note on, B3 key=59 velocity: 60
@23585 $98.27083333333333 Channel: 5 Note off, B3 key=59 velocity: 0
@23585 $98.27083333333333 Channel: 5 Note on, E4 key=64 velocity: 100
@23585 $98.27083333333333 Channel: 5 Note on, D4 key=62 velocity: 100
@23615 $98.39583333333333 Channel: 5 Note off, D4 key=62 velocity: 0
@23615 $98.39583333333333 Channel: 5 Note off, E4 key=64 velocity: 0
@23645 $98.52083333333333 Channel: 5 Note on, G#3 key=56 velocity: 60
@23705 $98.77083333333333 Channel: 5 Note off, G#3 key=56 velocity: 0
@23705 $98.77083333333333 Channel: 5 Note on, E4 key=64 velocity: 100
@23705 $98.77083333333333 Channel: 5 Note on, D4 key=62 velocity: 100
@23735 $98.89583333333333 Channel: 5 Note off, D4 key=62 velocity: 0
@23735 $98.89583333333333 Channel: 5 Note off, E4 key=64 velocity: 0
@23765 $99.02083333333333 Channel: 5 Note on, A3 key=57 velocity: 60
@23825 $99.27083333333333 Channel: 5 Note off, A3 key=57 velocity: 0
@23825 $99.27083333333333 Channel: 5 Note on, A3 key=57 velocity: 60
@23825 $99.27083333333333 Channel: 5 Note on, C#4 key=61 velocity: 60
@23855 $99.39583333333333 Channel: 5 Note off, C#4 key=61 velocity: 0
@23855 $99.39583333333333 Channel: 5 Note off, A3 key=57 velocity: 0
@23885 $99.52083333333333 Channel: 5 Note on, C#4 key=61 velocity: 60
@23885 $99.52083333333333 Channel: 5 Note on, A3 key=57 velocity: 60
@23915 $99.64583333333333 Channel: 5 Note off, A3 key=57 velocity: 0
@23915 $99.64583333333333 Channel: 5 Note off, C#4 key=61 velocity: 0
@23945 $99.77083333333333 Channel: 5 Note on, C#4 key=61 velocity: 60
@23945 $99.77083333333333 Channel: 5 Note on, A3 key=57 velocity: 60
@23975 $99.89583333333333 Channel: 5 Note off, A3 key=57 velocity: 0
@23975 $99.89583333333333 Channel: 5 Note off, C#4 key=61 velocity: 0
@24005 $100.02083333333333 Channel: 5 Note on, E3 key=52 velocity: 75
@24065 $100.27083333333333 Channel: 5 Note off, E3 key=52 velocity: 0
@24065 $100.27083333333333 Channel: 5 Note on, D4 key=62 velocity: 60
@24065 $100.27083333333333 Channel: 5 Note on, G#3 key=56 velocity: 60
@24095 $100.39583333333333 Channel: 5 Note off, G#3 key=56 velocity: 0
@24095 $100.39583333333333 Channel: 5 Note off, D4 key=62 velocity: 0
@24125 $100.52083333333333 Channel: 5 Note on, D4 key=62 velocity: 60
@24125 $100.52083333333333 Channel: 5 Note on, G#3 key=56 velocity: 60
@24155 $100.64583333333333 Channel: 5 Note off, G#3 key=56 velocity: 0
@24155 $100.64583333333333 Channel: 5 Note off, D4 key=62 velocity: 0
@24185 $100.77083333333333 Channel: 5 Note on, D4 key=62 velocity: 60
@24185 $100.77083333333333 Channel: 5 Note on, G#3 key=56 velocity: 60
@24215 $100.89583333333333 Channel: 5 Note off, G#3 key=56 velocity: 0
@24215 $100.89583333333333 Channel: 5 Note off, D4 key=62 velocity: 0
@24245 $101.02083333333333 Channel: 5 Note on, A3 key=57 velocity: 75
@24305 $101.27083333333333 Channel: 5 Note off, A3 key=57 velocity: 0
@24305 $101.27083333333333 Channel: 5 Note on, C#4 key=61 velocity: 60
@24305 $101.27083333333333 Channel: 5 Note on, A3 key=57 velocity: 60
@24335 $101.39583333333333 Channel: 5 Note off, A3 key=57 velocity: 0
@24335 $101.39583333333333 Channel: 5 Note off, C#4 key=61 velocity: 0
@24365 $101.52083333333333 Channel: 5 Note on, C#4 key=61 velocity: 60
@24365 $101.52083333333333 Channel: 5 Note on, A3 key=57 velocity: 60
@24395 $101.64583333333333 Channel: 5 Note off, A3 key=57 velocity: 0
@24395 $101.64583333333333 Channel: 5 Note off, C#4 key=61 velocity: 0
@24425 $101.77083333333333 Channel: 5 Note on, C#4 key=61 velocity: 60
@24425 $101.77083333333333 Channel: 5 Note on, A3 key=57 velocity: 60
@24455 $101.89583333333333 Channel: 5 Note off, A3 key=57 velocity: 0
@24455 $101.89583333333333 Channel: 5 Note off, C#4 key=61 velocity: 0
@24485 $102.02083333333333 Channel: 5 Note on, B3 key=59 velocity: 60
@24545 $102.27083333333333 Channel: 5 Note off, B3 key=59 velocity: 0
@24545 $102.27083333333333 Channel: 5 Note on, E4 key=64 velocity: 100
@24545 $102.27083333333333 Channel: 5 Note on, D4 key=62 velocity: 100
@24575 $102.39583333333333 Channel: 5 Note off, D4 key=62 velocity: 0
@24575 $102.39583333333333 Channel: 5 Note off, E4 key=64 velocity: 0
@24605 $102.52083333333333 Channel: 5 Note on, G#3 key=56 velocity: 60
@24665 $102.77083333333333 Channel: 5 Note off, G#3 key=56 velocity: 0
@24665 $102.77083333333333 Channel: 5 Note on, E4 key=64 velocity: 100
@24665 $102.77083333333333 Channel: 5 Note on, D4 key=62 velocity: 100
@24695 $102.89583333333333 Channel: 5 Note off, D4 key=62 velocity: 0
@24695 $102.89583333333333 Channel: 5 Note off, E4 key=64 velocity: 0
@24725 $103.02083333333333 Channel: 5 Note on, A3 key=57 velocity: 75
@24755 $103.14583333333333 Channel: 5 Note off, A3 key=57 velocity: 0
@24785 $103.27083333333333 Channel: 5 Note on, F#3 key=54 velocity: 75
@24815 $103.39583333333333 Channel: 5 Note off, F#3 key=54 velocity: 0
@24845 $103.52083333333333 Channel: 5 Note on, D3 key=50 velocity: 75
@24875 $103.64583333333333 Channel: 5 Note off, D3 key=50 velocity: 0
@24905 $103.77083333333333 Channel: 5 Note on, E3 key=52 velocity: 75
@24935 $103.89583333333333 Channel: 5 Note off, E3 key=52 velocity: 0
@24965 $104.02083333333333 Channel: 5 Note on, A2 key=45 velocity: 75
@24995 $104.14583333333333 Channel: 5 Note off, A2 key=45 velocity: 0
@25025 $104.27083333333333 Channel: 5 Note on, A3 key=57 velocity: 75
@25055 $104.39583333333333 Channel: 5 Note off, A3 key=57 velocity: 0
@25205 $105.02083333333333 Channel: 5 Note on, F#3 key=54 velocity: 100
@25265 $105.27083333333333 Channel: 5 Note off, F#3 key=54 velocity: 0
@25445 $106.02083333333333 Channel: 5 Note on, G#3 key=56 velocity: 100
@25505 $106.27083333333333 Channel: 5 Note off, G#3 key=56 velocity: 0
@25505 $106.27083333333333 Channel: 5 Note on, B3 key=59 velocity: 60
@25535 $106.39583333333333 Channel: 5 Note off, B3 key=59 velocity: 0
@25565 $106.52083333333333 Channel: 5 Note on, B3 key=59 velocity: 60
@25595 $106.64583333333333 Channel: 5 Note off, B3 key=59 velocity: 0
@25625 $106.77083333333333 Channel: 5 Note on, B3 key=59 velocity: 60
@25655 $106.89583333333333 Channel: 5 Note off, B3 key=59 velocity: 0
@25685 $107.02083333333333 Channel: 5 Note on, F#3 key=54 velocity: 100
@25745 $107.27083333333333 Channel: 5 Note off, F#3 key=54 velocity: 0
@25745 $107.27083333333333 Channel: 5 Note on, A3 key=57 velocity: 60
@25775 $107.39583333333333 Channel: 5 Note off, A3 key=57 velocity: 0
@25805 $107.52083333333333 Channel: 5 Note on, A3 key=57 velocity: 60
@25835 $107.64583333333333 Channel: 5 Note off, A3 key=57 velocity: 0
@25865 $107.77083333333333 Channel: 5 Note on, A3 key=57 velocity: 60
@25895 $107.89583333333333 Channel: 5 Note off, A3 key=57 velocity: 0
@25925 $108.02083333333333 Channel: 5 Note on, C#3 key=49 velocity: 100
@25985 $108.27083333333333 Channel: 5 Note off, C#3 key=49 velocity: 0
@25985 $108.27083333333333 Channel: 5 Note on, C#4 key=61 velocity: 60
@26015 $108.39583333333333 Channel: 5 Note off, C#4 key=61 velocity: 0
@26045 $108.52083333333333 Channel: 5 Note on, C#4 key=61 velocity: 60
@26075 $108.64583333333333 Channel: 5 Note off, C#4 key=61 velocity: 0
@26105 $108.77083333333333 Channel: 5 Note on, C#4 key=61 velocity: 60
@26135 $108.89583333333333 Channel: 5 Note off, C#4 key=61 velocity: 0
@26165 $109.02083333333333 Channel: 5 Note on, B2 key=47 velocity: 100
@26225 $109.27083333333333 Channel: 5 Note off, B2 key=47 velocity: 0
@26225 $109.27083333333333 Channel: 5 Note on, F#3 key=54 velocity: 60
@26255 $109.39583333333333 Channel: 5 Note off, F#3 key=54 velocity: 0
@26285 $109.52083333333333 Channel: 5 Note on, F#3 key=54 velocity: 60
@26315 $109.64583333333333 Channel: 5 Note off, F#3 key=54 velocity: 0
@26345 $109.77083333333333 Channel: 5 Note on, F#3 key=54 velocity: 60
@26375 $109.89583333333333 Channel: 5 Note off, F#3 key=54 velocity: 0
@26405 $110.02083333333333 Channel: 5 Note on, B2 key=47 velocity: 100
@26465 $110.27083333333333 Channel: 5 Note off, B2 key=47 velocity: 0
@26465 $110.27083333333333 Channel: 5 Note on, G#3 key=56 velocity: 60
@26495 $110.39583333333333 Channel: 5 Note off, G#3 key=56 velocity: 0
@26525 $110.52083333333333 Channel: 5 Note on, G#3 key=56 velocity: 60
@26555 $110.64583333333333 Channel: 5 Note off, G#3 key=56 velocity: 0
@26585 $110.77083333333333 Channel: 5 Note on, G#3 key=56 velocity: 60
@26615 $110.89583333333333 Channel: 5 Note off, G#3 key=56 velocity: 0
@26645 $111.02083333333333 Channel: 5 Note on, C#3 key=49 velocity: 100
@26705 $111.27083333333333 Channel: 5 Note off, C#3 key=49 velocity: 0
@26705 $111.27083333333333 Channel: 5 Note on, A3 key=57 velocity: 75
@26705 $111.27083333333333 Channel: 5 Note on, F#3 key=54 velocity: 75
@26735 $111.39583333333333 Channel: 5 Note off, F#3 key=54 velocity: 0
@26735 $111.39583333333333 Channel: 5 Note off, A3 key=57 velocity: 0
@26765 $111.52083333333333 Channel: 5 Note on, C#3 key=49 velocity: 100
@26825 $111.77083333333333 Channel: 5 Note off, C#3 key=49 velocity: 0
@26825 $111.77083333333333 Channel: 5 Note on, B3 key=59 velocity: 75
@26825 $111.77083333333333 Channel: 5 Note on, G#3 key=56 velocity: 75
@26855 $111.89583333333333 Channel: 5 Note off, G#3 key=56 velocity: 0
@26855 $111.89583333333333 Channel: 5 Note off, B3 key=59 velocity: 0
@26885 $112.02083333333333 Channel: 5 Note on, F#3 key=54 velocity: 75
@26885 $112.02083333333333 Channel: 5 Note on, A3 key=57 velocity: 75
@27005 $112.52083333333333 Channel: 5 Note off, A3 key=57 velocity: 0
@27005 $112.52083333333333 Channel: 5 Note off, F#3 key=54 velocity: 0
@27135 $113.0625 Channel: 5 Note on, A3 key=57 velocity: 100
@27165 $113.1875 Channel: 5 Note off, A3 key=57 velocity: 0
@27180 $113.25 Channel: 5 Note on, A3 key=57 velocity: 100
@27210 $113.375 Channel: 5 Note off, A3 key=57 velocity: 0
@27240 $113.5 Channel: 5 Note on, A3 key=57 velocity: 100
@27270 $113.625 Channel: 5 Note off, A3 key=57 velocity: 0
@27300 $113.75 Channel: 5 Note on, A3 key=57 velocity: 100
@27330 $113.875 Channel: 5 Note off, A3 key=57 velocity: 0
@27375 $114.0625 Channel: 5 Note on, A3 key=57 velocity: 100
@27405 $114.1875 Channel: 5 Note off, A3 key=57 velocity: 0
@27420 $114.25 Channel: 5 Note on, A3 key=57 velocity: 100
@27450 $114.375 Channel: 5 Note off, A3 key=57 velocity: 0
@27480 $114.5 Channel: 5 Note on, A3 key=57 velocity: 100
@27510 $114.625 Channel: 5 Note off, A3 key=57 velocity: 0
@27540 $114.75 Channel: 5 Note on, A3 key=57 velocity: 100
@27570 $114.875 Channel: 5 Note off, A3 key=57 velocity: 0
@27615 $115.0625 Channel: 5 Note on, D3 key=50 velocity: 100
@27645 $115.1875 Channel: 5 Note off, D3 key=50 velocity: 0
@27660 $115.25 Channel: 5 Note on, D3 key=50 velocity: 100
@27690 $115.375 Channel: 5 Note off, D3 key=50 velocity: 0
@27735 $115.5625 Channel: 5 Note on, D#3 key=51 velocity: 100
@27765 $115.6875 Channel: 5 Note off, D#3 key=51 velocity: 0
@27780 $115.75 Channel: 5 Note on, D#3 key=51 velocity: 100
@27810 $115.875 Channel: 5 Note off, D#3 key=51 velocity: 0
@27855 $116.0625 Channel: 5 Note on, E3 key=52 velocity: 100
@27885 $116.1875 Channel: 5 Note off, E3 key=52 velocity: 0
@27900 $116.25 Channel: 5 Note on, E3 key=52 velocity: 100
@27930 $116.375 Channel: 5 Note off, E3 key=52 velocity: 0
@27960 $116.5 Channel: 5 Note on, E3 key=52 velocity: 100
@27990 $116.625 Channel: 5 Note off, E3 key=52 velocity: 0
@28020 $116.75 Channel: 5 Note on, E3 key=52 velocity: 100
@28050 $116.875 Channel: 5 Note off, E3 key=52 velocity: 0
@28095 $117.0625 Channel: 5 Note on, A3 key=57 velocity: 100
@28125 $117.1875 Channel: 5 Note off, A3 key=57 velocity: 0
@28140 $117.25 Channel: 5 Note on, A3 key=57 velocity: 100
@28170 $117.375 Channel: 5 Note off, A3 key=57 velocity: 0
@28200 $117.5 Channel: 5 Note on, A3 key=57 velocity: 100
@28230 $117.625 Channel: 5 Note off, A3 key=57 velocity: 0
@28260 $117.75 Channel: 5 Note on, A3 key=57 velocity: 100
@28290 $117.875 Channel: 5 Note off, A3 key=57 velocity: 0
@28335 $118.0625 Channel: 5 Note on, A3 key=57 velocity: 100
@28365 $118.1875 Channel: 5 Note off, A3 key=57 velocity: 0
@28380 $118.25 Channel: 5 Note on, A3 key=57 velocity: 100
@28410 $118.375 Channel: 5 Note off, A3 key=57 velocity: 0
@28440 $118.5 Channel: 5 Note on, A3 key=57 velocity: 100
@28470 $118.625 Channel: 5 Note off, A3 key=57 velocity: 0
@28500 $118.75 Channel: 5 Note on, A3 key=57 velocity: 100
@28530 $118.875 Channel: 5 Note off, A3 key=57 velocity: 0
@28575 $119.0625 Channel: 5 Note on, D3 key=50 velocity: 100
@28605 $119.1875 Channel: 5 Note off, D3 key=50 velocity: 0
@28620 $119.25 Channel: 5 Note on, D3 key=50 velocity: 100
@28650 $119.375 Channel: 5 Note off, D3 key=50 velocity: 0
@28680 $119.5 Channel: 5 Note on, E3 key=52 velocity: 100
@28710 $119.625 Channel: 5 Note off, E3 key=52 velocity: 0
@28740 $119.75 Channel: 5 Note on, E3 key=52 velocity: 100
@28770 $119.875 Channel: 5 Note off, E3 key=52 velocity: 0
@28800 $120.0 Channel: 5 Note on, A2 key=45 velocity: 100
@28920 $120.5 Channel: 5 Note off, A2 key=45 velocity: 0
@29055 $121.0625 Channel: 5 Note on, A3 key=57 velocity: 100
@29085 $121.1875 Channel: 5 Note off, A3 key=57 velocity: 0
@29100 $121.25 Channel: 5 Note on, A3 key=57 velocity: 100
@29130 $121.375 Channel: 5 Note off, A3 key=57 velocity: 0
@29160 $121.5 Channel: 5 Note on, A3 key=57 velocity: 100
@29190 $121.625 Channel: 5 Note off, A3 key=57 velocity: 0
@29220 $121.75 Channel: 5 Note on, A3 key=57 velocity: 100
@29250 $121.875 Channel: 5 Note off, A3 key=57 velocity: 0
@29295 $122.0625 Channel: 5 Note on, A3 key=57 velocity: 100
@29325 $122.1875 Channel: 5 Note off, A3 key=57 velocity: 0
@29340 $122.25 Channel: 5 Note on, A3 key=57 velocity: 100
@29370 $122.375 Channel: 5 Note off, A3 key=57 velocity: 0
@29400 $122.5 Channel: 5 Note on, A3 key=57 velocity: 100
@29430 $122.625 Channel: 5 Note off, A3 key=57 velocity: 0
@29460 $122.75 Channel: 5 Note on, A3 key=57 velocity: 100
@29490 $122.875 Channel: 5 Note off, A3 key=57 velocity: 0
@29535 $123.0625 Channel: 5 Note on, D3 key=50 velocity: 100
@29565 $123.1875 Channel: 5 Note off, D3 key=50 velocity: 0
@29580 $123.25 Channel: 5 Note on, D3 key=50 velocity: 100
@29610 $123.375 Channel: 5 Note off, D3 key=50 velocity: 0
@29655 $123.5625 Channel: 5 Note on, D#3 key=51 velocity: 100
@29685 $123.6875 Channel: 5 Note off, D#3 key=51 velocity: 0
@29700 $123.75 Channel: 5 Note on, D#3 key=51 velocity: 100
@29730 $123.875 Channel: 5 Note off, D#3 key=51 velocity: 0
@29775 $124.0625 Channel: 5 Note on, E3 key=52 velocity: 100
@29805 $124.1875 Channel: 5 Note off, E3 key=52 velocity: 0
@29820 $124.25 Channel: 5 Note on, E3 key=52 velocity: 100
@29850 $124.375 Channel: 5 Note off, E3 key=52 velocity: 0
@29880 $124.5 Channel: 5 Note on, E3 key=52 velocity: 100
@29910 $124.625 Channel: 5 Note off, E3 key=52 velocity: 0
@29940 $124.75 Channel: 5 Note on, E3 key=52 velocity: 100
@29970 $124.875 Channel: 5 Note off, E3 key=52 velocity: 0
@30015 $125.0625 Channel: 5 Note on, A3 key=57 velocity: 100
@30045 $125.1875 Channel: 5 Note off, A3 key=57 velocity: 0
@30060 $125.25 Channel: 5 Note on, A3 key=57 velocity: 100
@30090 $125.375 Channel: 5 Note off, A3 key=57 velocity: 0
@30120 $125.5 Channel: 5 Note on, A3 key=57 velocity: 100
@30150 $125.625 Channel: 5 Note off, A3 key=57 velocity: 0
@30180 $125.75 Channel: 5 Note on, A3 key=57 velocity: 100
@30210 $125.875 Channel: 5 Note off, A3 key=57 velocity: 0
@30255 $126.0625 Channel: 5 Note on, A3 key=57 velocity: 100
@30285 $126.1875 Channel: 5 Note off, A3 key=57 velocity: 0
@30300 $126.25 Channel: 5 Note on, A3 key=57 velocity: 100
@30330 $126.375 Channel: 5 Note off, A3 key=57 velocity: 0
@30360 $126.5 Channel: 5 Note on, A3 key=57 velocity: 100
@30390 $126.625 Channel: 5 Note off, A3 key=57 velocity: 0
@30420 $126.75 Channel: 5 Note on, A3 key=57 velocity: 100
@30450 $126.875 Channel: 5 Note off, A3 key=57 velocity: 0
@30495 $127.0625 Channel: 5 Note on, D3 key=50 velocity: 100
@30525 $127.1875 Channel: 5 Note off, D3 key=50 velocity: 0
@30540 $127.25 Channel: 5 Note on, D3 key=50 velocity: 100
@30570 $127.375 Channel: 5 Note off, D3 key=50 velocity: 0
@30600 $127.5 Channel: 5 Note on, E3 key=52 velocity: 100
@30630 $127.625 Channel: 5 Note off, E3 key=52 velocity: 0
@30660 $127.75 Channel: 5 Note on, E3 key=52 velocity: 100
@30690 $127.875 Channel: 5 Note off, E3 key=52 velocity: 0
@30720 $128.0 Channel: 5 Note on, A2 key=45 velocity: 100
@30840 $128.5 Channel: 5 Note off, A2 key=45 velocity: 0
@30960 $129.0 Channel: 5 Note on, A3 key=57 velocity: 100
@31020 $129.25 Channel: 5 Note off, A3 key=57 velocity: 0
@31020 $129.25 Channel: 5 Note on, E4 key=64 velocity: 75
@31020 $129.25 Channel: 5 Note on, C4 key=60 velocity: 75
@31050 $129.375 Channel: 5 Note off, C4 key=60 velocity: 0
@31050 $129.375 Channel: 5 Note off, E4 key=64 velocity: 0
@31080 $129.5 Channel: 5 Note on, E4 key=64 velocity: 75
@31080 $129.5 Channel: 5 Note on, C4 key=60 velocity: 75
@31110 $129.625 Channel: 5 Note off, C4 key=60 velocity: 0
@31110 $129.625 Channel: 5 Note off, E4 key=64 velocity: 0
@31140 $129.75 Channel: 5 Note on, E4 key=64 velocity: 75
@31140 $129.75 Channel: 5 Note on, C4 key=60 velocity: 75
@31170 $129.875 Channel: 5 Note off, C4 key=60 velocity: 0
@31170 $129.875 Channel: 5 Note off, E4 key=64 velocity: 0
@31200 $130.0 Channel: 5 Note on, A3 key=57 velocity: 100
@31260 $130.25 Channel: 5 Note off, A3 key=57 velocity: 0
@31260 $130.25 Channel: 5 Note on, E4 key=64 velocity: 75
@31260 $130.25 Channel: 5 Note on, C4 key=60 velocity: 75
@31290 $130.375 Channel: 5 Note off, C4 key=60 velocity: 0
@31290 $130.375 Channel: 5 Note off, E4 key=64 velocity: 0
@31320 $130.5 Channel: 5 Note on, E4 key=64 velocity: 75
@31320 $130.5 Channel: 5 Note on, C4 key=60 velocity: 75
@31350 $130.625 Channel: 5 Note off, C4 key=60 velocity: 0
@31350 $130.625 Channel: 5 Note off, E4 key=64 velocity: 0
@31380 $130.75 Channel: 5 Note on, E4 key=64 velocity: 75
@31380 $130.75 Channel: 5 Note on, C4 key=60 velocity: 75
@31410 $130.875 Channel: 5 Note off, C4 key=60 velocity: 0
@31410 $130.875 Channel: 5 Note off, E4 key=64 velocity: 0
@31440 $131.0 Channel: 5 Note on, A3 key=57 velocity: 100
@31500 $131.25 Channel: 5 Note off, A3 key=57 velocity: 0
@31500 $131.25 Channel: 5 Note on, E4 key=64 velocity: 75
@31500 $131.25 Channel: 5 Note on, C4 key=60 velocity: 75
@31530 $131.375 Channel: 5 Note off, C4 key=60 velocity: 0
@31530 $131.375 Channel: 5 Note off, E4 key=64 velocity: 0
@31560 $131.5 Channel: 5 Note on, A3 key=57 velocity: 100
@31620 $131.75 Channel: 5 Note off, A3 key=57 velocity: 0
@31620 $131.75 Channel: 5 Note on, C4 key=60 velocity: 75
@31620 $131.75 Channel: 5 Note on, E4 key=64 velocity: 75
@31650 $131.875 Channel: 5 Note off, E4 key=64 velocity: 0
@31650 $131.875 Channel: 5 Note off, C4 key=60 velocity: 0
@31680 $132.0 Channel: 5 Note on, A3 key=57 velocity: 100
@31740 $132.25 Channel: 5 Note off, A3 key=57 velocity: 0
@31740 $132.25 Channel: 5 Note on, E4 key=64 velocity: 75
@31740 $132.25 Channel: 5 Note on, C4 key=60 velocity: 75
@31770 $132.375 Channel: 5 Note off, C4 key=60 velocity: 0
@31770 $132.375 Channel: 5 Note off, E4 key=64 velocity: 0
@31800 $132.5 Channel: 5 Note on, E4 key=64 velocity: 75
@31800 $132.5 Channel: 5 Note on, C4 key=60 velocity: 75
@31830 $132.625 Channel: 5 Note off, C4 key=60 velocity: 0
@31830 $132.625 Channel: 5 Note off, E4 key=64 velocity: 0
@31860 $132.75 Channel: 5 Note on, E4 key=64 velocity: 75
@31860 $132.75 Channel: 5 Note on, C4 key=60 velocity: 75
@31890 $132.875 Channel: 5 Note off, C4 key=60 velocity: 0
@31890 $132.875 Channel: 5 Note off, E4 key=64 velocity: 0
@31920 $133.0 Channel: 5 Note on, E3 key=52 velocity: 100
@31980 $133.25 Channel: 5 Note off, E3 key=52 velocity: 0
@31980 $133.25 Channel: 5 Note on, E4 key=64 velocity: 75
@31980 $133.25 Channel: 5 Note on, B3 key=59 velocity: 75
@32010 $133.375 Channel: 5 Note off, B3 key=59 velocity: 0
@32010 $133.375 Channel: 5 Note off, E4 key=64 velocity: 0
@32040 $133.5 Channel: 5 Note on, E4 key=64 velocity: 75
@32040 $133.5 Channel: 5 Note on, B3 key=59 velocity: 75
@32070 $133.625 Channel: 5 Note off, B3 key=59 velocity: 0
@32070 $133.625 Channel: 5 Note off, E4 key=64 velocity: 0
@32100 $133.75 Channel: 5 Note on, E4 key=64 velocity: 75
@32100 $133.75 Channel: 5 Note on, B3 key=59 velocity: 75
@32130 $133.875 Channel: 5 Note off, B3 key=59 velocity: 0
@32130 $133.875 Channel: 5 Note off, E4 key=64 velocity: 0
@32160 $134.0 Channel: 5 Note on, E3 key=52 velocity: 100
@32220 $134.25 Channel: 5 Note off, E3 key=52 velocity: 0
@32220 $134.25 Channel: 5 Note on, E4 key=64 velocity: 75
@32220 $134.25 Channel: 5 Note on, B3 key=59 velocity: 75
@32250 $134.375 Channel: 5 Note off, B3 key=59 velocity: 0
@32250 $134.375 Channel: 5 Note off, E4 key=64 velocity: 0
@32280 $134.5 Channel: 5 Note on, E4 key=64 velocity: 75
@32280 $134.5 Channel: 5 Note on, B3 key=59 velocity: 75
@32310 $134.625 Channel: 5 Note off, B3 key=59 velocity: 0
@32310 $134.625 Channel: 5 Note off, E4 key=64 velocity: 0
@32340 $134.75 Channel: 5 Note on, E4 key=64 velocity: 75
@32340 $134.75 Channel: 5 Note on, B3 key=59 velocity: 75
@32370 $134.875 Channel: 5 Note off, B3 key=59 velocity: 0
@32370 $134.875 Channel: 5 Note off, E4 key=64 velocity: 0
@32400 $135.0 Channel: 5 Note on, E3 key=52 velocity: 100
@32460 $135.25 Channel: 5 Note off, E3 key=52 velocity: 0
@32460 $135.25 Channel: 5 Note on, E4 key=64 velocity: 75
@32460 $135.25 Channel: 5 Note on, B3 key=59 velocity: 75
@32490 $135.375 Channel: 5 Note off, B3 key=59 velocity: 0
@32490 $135.375 Channel: 5 Note off, E4 key=64 velocity: 0
@32520 $135.5 Channel: 5 Note on, B2 key=47 velocity: 100
@32580 $135.75 Channel: 5 Note off, B2 key=47 velocity: 0
@32580 $135.75 Channel: 5 Note on, E4 key=64 velocity: 75
@32580 $135.75 Channel: 5 Note on, B3 key=59 velocity: 75
@32610 $135.875 Channel: 5 Note off, B3 key=59 velocity: 0
@32610 $135.875 Channel: 5 Note off, E4 key=64 velocity: 0
@32640 $136.0 Channel: 5 Note on, E3 key=52 velocity: 100
@32760 $136.5 Channel: 5 Note off, E3 key=52 velocity: 0
@32880 $137.0 Channel: 5 Note on, A3 key=57 velocity: 100
@32940 $137.25 Channel: 5 Note off, A3 key=57 velocity: 0
@32940 $137.25 Channel: 5 Note on, E4 key=64 velocity: 75
@32940 $137.25 Channel: 5 Note on, C4 key=60 velocity: 75
@32970 $137.375 Channel: 5 Note off, C4 key=60 velocity: 0
@32970 $137.375 Channel: 5 Note off, E4 key=64 velocity: 0
@33000 $137.5 Channel: 5 Note on, E4 key=64 velocity: 75
@33000 $137.5 Channel: 5 Note on, C4 key=60 velocity: 75
@33030 $137.625 Channel: 5 Note off, C4 key=60 velocity: 0
@33030 $137.625 Channel: 5 Note off, E4 key=64 velocity: 0
@33060 $137.75 Channel: 5 Note on, E4 key=64 velocity: 75
@33060 $137.75 Channel: 5 Note on, C4 key=60 velocity: 75
@33090 $137.875 Channel: 5 Note off, C4 key=60 velocity: 0
@33090 $137.875 Channel: 5 Note off, E4 key=64 velocity: 0
@33120 $138.0 Channel: 5 Note on, A3 key=57 velocity: 100
@33180 $138.25 Channel: 5 Note off, A3 key=57 velocity: 0
@33180 $138.25 Channel: 5 Note on, E4 key=64 velocity: 75
@33180 $138.25 Channel: 5 Note on, C4 key=60 velocity: 75
@33210 $138.375 Channel: 5 Note off, C4 key=60 velocity: 0
@33210 $138.375 Channel: 5 Note off, E4 key=64 velocity: 0
@33240 $138.5 Channel: 5 Note on, E4 key=64 velocity: 75
@33240 $138.5 Channel: 5 Note on, C4 key=60 velocity: 75
@33270 $138.625 Channel: 5 Note off, C4 key=60 velocity: 0
@33270 $138.625 Channel: 5 Note off, E4 key=64 velocity: 0
@33300 $138.75 Channel: 5 Note on, E4 key=64 velocity: 75
@33300 $138.75 Channel: 5 Note on, C4 key=60 velocity: 75
@33330 $138.875 Channel: 5 Note off, C4 key=60 velocity: 0
@33330 $138.875 Channel: 5 Note off, E4 key=64 velocity: 0
@33360 $139.0 Channel: 5 Note on, A3 key=57 velocity: 100
@33420 $139.25 Channel: 5 Note off, A3 key=57 velocity: 0
@33420 $139.25 Channel: 5 Note on, E4 key=64 velocity: 75
@33420 $139.25 Channel: 5 Note on, C4 key=60 velocity: 75
@33450 $139.375 Channel: 5 Note off, C4 key=60 velocity: 0
@33450 $139.375 Channel: 5 Note off, E4 key=64 velocity: 0
@33480 $139.5 Channel: 5 Note on, A3 key=57 velocity: 100
@33540 $139.75 Channel: 5 Note off, A3 key=57 velocity: 0
@33540 $139.75 Channel: 5 Note on, C4 key=60 velocity: 75
@33540 $139.75 Channel: 5 Note on, E4 key=64 velocity: 75
@33570 $139.875 Channel: 5 Note off, E4 key=64 velocity: 0
@33570 $139.875 Channel: 5 Note off, C4 key=60 velocity: 0
@33600 $140.0 Channel: 5 Note on, A3 key=57 velocity: 100
@33660 $140.25 Channel: 5 Note off, A3 key=57 velocity: 0
@33660 $140.25 Channel: 5 Note on, E4 key=64 velocity: 75
@33660 $140.25 Channel: 5 Note on, C4 key=60 velocity: 75
@33690 $140.375 Channel: 5 Note off, C4 key=60 velocity: 0
@33690 $140.375 Channel: 5 Note off, E4 key=64 velocity: 0
@33720 $140.5 Channel: 5 Note on, E4 key=64 velocity: 75
@33720 $140.5 Channel: 5 Note on, C4 key=60 velocity: 75
@33750 $140.625 Channel: 5 Note off, C4 key=60 velocity: 0
@33750 $140.625 Channel: 5 Note off, E4 key=64 velocity: 0
@33780 $140.75 Channel: 5 Note on, E4 key=64 velocity: 75
@33780 $140.75 Channel: 5 Note on, C4 key=60 velocity: 75
@33810 $140.875 Channel: 5 Note off, C4 key=60 velocity: 0
@33810 $140.875 Channel: 5 Note off, E4 key=64 velocity: 0
@33840 $141.0 Channel: 5 Note on, E3 key=52 velocity: 100
@33900 $141.25 Channel: 5 Note off, E3 key=52 velocity: 0
@33900 $141.25 Channel: 5 Note on, E4 key=64 velocity: 75
@33900 $141.25 Channel: 5 Note on, B3 key=59 velocity: 75
@33930 $141.375 Channel: 5 Note off, B3 key=59 velocity: 0
@33930 $141.375 Channel: 5 Note off, E4 key=64 velocity: 0
@33960 $141.5 Channel: 5 Note on, E4 key=64 velocity: 75
@33960 $141.5 Channel: 5 Note on, B3 key=59 velocity: 75
@33990 $141.625 Channel: 5 Note off, B3 key=59 velocity: 0
@33990 $141.625 Channel: 5 Note off, E4 key=64 velocity: 0
@34020 $141.75 Channel: 5 Note on, E4 key=64 velocity: 75
@34020 $141.75 Channel: 5 Note on, B3 key=59 velocity: 75
@34050 $141.875 Channel: 5 Note off, B3 key=59 velocity: 0
@34050 $141.875 Channel: 5 Note off, E4 key=64 velocity: 0
@34080 $142.0 Channel: 5 Note on, E3 key=52 velocity: 100
@34140 $142.25 Channel: 5 Note off, E3 key=52 velocity: 0
@34140 $142.25 Channel: 5 Note on, E4 key=64 velocity: 75
@34140 $142.25 Channel: 5 Note on, B3 key=59 velocity: 75
@34170 $142.375 Channel: 5 Note off, B3 key=59 velocity: 0
@34170 $142.375 Channel: 5 Note off, E4 key=64 velocity: 0
@34200 $142.5 Channel: 5 Note on, E4 key=64 velocity: 75
@34200 $142.5 Channel: 5 Note on, B3 key=59 velocity: 75
@34230 $142.625 Channel: 5 Note off, B3 key=59 velocity: 0
@34230 $142.625 Channel: 5 Note off, E4 key=64 velocity: 0
@34260 $142.75 Channel: 5 Note on, E4 key=64 velocity: 75
@34260 $142.75 Channel: 5 Note on, B3 key=59 velocity: 75
@34290 $142.875 Channel: 5 Note off, B3 key=59 velocity: 0
@34290 $142.875 Channel: 5 Note off, E4 key=64 velocity: 0
@34320 $143.0 Channel: 5 Note on, E3 key=52 velocity: 100
@34380 $143.25 Channel: 5 Note off, E3 key=52 velocity: 0
@34380 $143.25 Channel: 5 Note on, E4 key=64 velocity: 75
@34380 $143.25 Channel: 5 Note on, B3 key=59 velocity: 75
@34410 $143.375 Channel: 5 Note off, B3 key=59 velocity: 0
@34410 $143.375 Channel: 5 Note off, E4 key=64 velocity: 0
@34440 $143.5 Channel: 5 Note on, B2 key=47 velocity: 100
@34500 $143.75 Channel: 5 Note off, B2 key=47 velocity: 0
@34500 $143.75 Channel: 5 Note on, E4 key=64 velocity: 75
@34500 $143.75 Channel: 5 Note on, B3 key=59 velocity: 75
@34530 $143.875 Channel: 5 Note off, B3 key=59 velocity: 0
@34530 $143.875 Channel: 5 Note off, E4 key=64 velocity: 0
@34560 $144.0 Channel: 5 Note on, E3 key=52 velocity: 100
@34680 $144.5 Channel: 5 Note off, E3 key=52 velocity: 0
@34800 $145.0 Channel: 5 Note on, C3 key=48 velocity: 100
@34860 $145.25 Channel: 5 Note off, C3 key=48 velocity: 0
@34860 $145.25 Channel: 5 Note on, C4 key=60 velocity: 75
@34890 $145.375 Channel: 5 Note off, C4 key=60 velocity: 0
@34920 $145.5 Channel: 5 Note on, E3 key=52 velocity: 100
@34950 $145.625 Channel: 5 Note off, E3 key=52 velocity: 0
@34980 $145.75 Channel: 5 Note on, E4 key=64 velocity: 75
@35010 $145.875 Channel: 5 Note off, E4 key=64 velocity: 0
@35040 $146.0 Channel: 5 Note on, G3 key=55 velocity: 100
@35160 $146.5 Channel: 5 Note off, G3 key=55 velocity: 0
@35280 $147.0 Channel: 5 Note on, C3 key=48 velocity: 100
@35340 $147.25 Channel: 5 Note off, C3 key=48 velocity: 0
@35340 $147.25 Channel: 5 Note on, C4 key=60 velocity: 75
@35370 $147.375 Channel: 5 Note off, C4 key=60 velocity: 0
@35400 $147.5 Channel: 5 Note on, E3 key=52 velocity: 100
@35430 $147.625 Channel: 5 Note off, E3 key=52 velocity: 0
@35460 $147.75 Channel: 5 Note on, E4 key=64 velocity: 75
@35490 $147.875 Channel: 5 Note off, E4 key=64 velocity: 0
@35520 $148.0 Channel: 5 Note on, G3 key=55 velocity: 100
@35640 $148.5 Channel: 5 Note off, G3 key=55 velocity: 0
@35760 $149.0 Channel: 5 Note on, A2 key=45 velocity: 100
@35820 $149.25 Channel: 5 Note off, A2 key=45 velocity: 0
@35820 $149.25 Channel: 5 Note on, A3 key=57 velocity: 100
@35850 $149.375 Channel: 5 Note off, A3 key=57 velocity: 0
@35880 $149.5 Channel: 5 Note on, C3 key=48 velocity: 100
@35910 $149.625 Channel: 5 Note off, C3 key=48 velocity: 0
@35940 $149.75 Channel: 5 Note on, C4 key=60 velocity: 75
@35970 $149.875 Channel: 5 Note off, C4 key=60 velocity: 0
@36000 $150.0 Channel: 5 Note on, E3 key=52 velocity: 100
@36120 $150.5 Channel: 5 Note off, E3 key=52 velocity: 0
@36240 $151.0 Channel: 5 Note on, A2 key=45 velocity: 100
@36300 $151.25 Channel: 5 Note off, A2 key=45 velocity: 0
@36300 $151.25 Channel: 5 Note on, A3 key=57 velocity: 100
@36330 $151.375 Channel: 5 Note off, A3 key=57 velocity: 0
@36360 $151.5 Channel: 5 Note on, C3 key=48 velocity: 100
@36390 $151.625 Channel: 5 Note off, C3 key=48 velocity: 0
@36420 $151.75 Channel: 5 Note on, C4 key=60 velocity: 75
@36450 $151.875 Channel: 5 Note off, C4 key=60 velocity: 0
@36480 $152.0 Channel: 5 Note on, E3 key=52 velocity: 100
@36600 $152.5 Channel: 5 Note off, E3 key=52 velocity: 0
@36720 $153.0 Channel: 5 Note on, A3 key=57 velocity: 100
@36780 $153.25 Channel: 5 Note off, A3 key=57 velocity: 0
@36780 $153.25 Channel: 5 Note on, E4 key=64 velocity: 75
@36780 $153.25 Channel: 5 Note on, C4 key=60 velocity: 75
@36810 $153.375 Channel: 5 Note off, C4 key=60 velocity: 0
@36810 $153.375 Channel: 5 Note off, E4 key=64 velocity: 0
@36840 $153.5 Channel: 5 Note on, E4 key=64 velocity: 75
@36840 $153.5 Channel: 5 Note on, C4 key=60 velocity: 75
@36870 $153.625 Channel: 5 Note off, C4 key=60 velocity: 0
@36870 $153.625 Channel: 5 Note off, E4 key=64 velocity: 0
@36900 $153.75 Channel: 5 Note on, E4 key=64 velocity: 75
@36900 $153.75 Channel: 5 Note on, C4 key=60 velocity: 75
@36930 $153.875 Channel: 5 Note off, C4 key=60 velocity: 0
@36930 $153.875 Channel: 5 Note off, E4 key=64 velocity: 0
@36960 $154.0 Channel: 5 Note on, A3 key=57 velocity: 100
@37020 $154.25 Channel: 5 Note off, A3 key=57 velocity: 0
@37020 $154.25 Channel: 5 Note on, E4 key=64 velocity: 75
@37020 $154.25 Channel: 5 Note on, C4 key=60 velocity: 75
@37050 $154.375 Channel: 5 Note off, C4 key=60 velocity: 0
@37050 $154.375 Channel: 5 Note off, E4 key=64 velocity: 0
@37080 $154.5 Channel: 5 Note on, E4 key=64 velocity: 75
@37080 $154.5 Channel: 5 Note on, C4 key=60 velocity: 75
@37110 $154.625 Channel: 5 Note off, C4 key=60 velocity: 0
@37110 $154.625 Channel: 5 Note off, E4 key=64 velocity: 0
@37140 $154.75 Channel: 5 Note on, E4 key=64 velocity: 75
@37140 $154.75 Channel: 5 Note on, C4 key=60 velocity: 75
@37170 $154.875 Channel: 5 Note off, C4 key=60 velocity: 0
@37170 $154.875 Channel: 5 Note off, E4 key=64 velocity: 0
@37200 $155.0 Channel: 5 Note on, A3 key=57 velocity: 100
@37260 $155.25 Channel: 5 Note off, A3 key=57 velocity: 0
@37260 $155.25 Channel: 5 Note on, E4 key=64 velocity: 75
@37260 $155.25 Channel: 5 Note on, C4 key=60 velocity: 75
@37290 $155.375 Channel: 5 Note off, C4 key=60 velocity: 0
@37290 $155.375 Channel: 5 Note off, E4 key=64 velocity: 0
@37320 $155.5 Channel: 5 Note on, A3 key=57 velocity: 100
@37380 $155.75 Channel: 5 Note off, A3 key=57 velocity: 0
@37380 $155.75 Channel: 5 Note on, E4 key=64 velocity: 75
@37380 $155.75 Channel: 5 Note on, C4 key=60 velocity: 75
@37410 $155.875 Channel: 5 Note off, C4 key=60 velocity: 0
@37410 $155.875 Channel: 5 Note off, E4 key=64 velocity: 0
@37440 $156.0 Channel: 5 Note on, F3 key=53 velocity: 100
@37500 $156.25 Channel: 5 Note off, F3 key=53 velocity: 0
@37500 $156.25 Channel: 5 Note on, D#4 key=63 velocity: 75
@37500 $156.25 Channel: 5 Note on, A3 key=57 velocity: 100
@37530 $156.375 Channel: 5 Note off, A3 key=57 velocity: 0
@37530 $156.375 Channel: 5 Note off, D#4 key=63 velocity: 0
@37560 $156.5 Channel: 5 Note on, A3 key=57 velocity: 100
@37560 $156.5 Channel: 5 Note on, D#4 key=63 velocity: 75
@37590 $156.625 Channel: 5 Note off, D#4 key=63 velocity: 0
@37590 $156.625 Channel: 5 Note off, A3 key=57 velocity: 0
@37620 $156.75 Channel: 5 Note on, A3 key=57 velocity: 100
@37620 $156.75 Channel: 5 Note on, D#4 key=63 velocity: 75
@37650 $156.875 Channel: 5 Note off, D#4 key=63 velocity: 0
@37650 $156.875 Channel: 5 Note off, A3 key=57 velocity: 0
@37680 $157.0 Channel: 5 Note on, E3 key=52 velocity: 100
@37740 $157.25 Channel: 5 Note off, E3 key=52 velocity: 0
@37740 $157.25 Channel: 5 Note on, E4 key=64 velocity: 75
@37740 $157.25 Channel: 5 Note on, A3 key=57 velocity: 100
@37770 $157.375 Channel: 5 Note off, A3 key=57 velocity: 0
@37770 $157.375 Channel: 5 Note off, E4 key=64 velocity: 0
@37800 $157.5 Channel: 5 Note on, D3 key=50 velocity: 100
@37860 $157.75 Channel: 5 Note off, D3 key=50 velocity: 0
@37860 $157.75 Channel: 5 Note on, F3 key=53 velocity: 100
@37860 $157.75 Channel: 5 Note on, B3 key=59 velocity: 75
@37890 $157.875 Channel: 5 Note off, B3 key=59 velocity: 0
@37890 $157.875 Channel: 5 Note off, F3 key=53 velocity: 0
@37920 $158.0 Channel: 5 Note on, C3 key=48 velocity: 100
@37980 $158.25 Channel: 5 Note off, C3 key=48 velocity: 0
@37980 $158.25 Channel: 5 Note on, A3 key=57 velocity: 100
@37980 $158.25 Channel: 5 Note on, E3 key=52 velocity: 100
@38010 $158.375 Channel: 5 Note off, E3 key=52 velocity: 0
@38010 $158.375 Channel: 5 Note off, A3 key=57 velocity: 0
@38040 $158.5 Channel: 5 Note on, D3 key=50 velocity: 100
@38100 $158.75 Channel: 5 Note off, D3 key=50 velocity: 0
@38100 $158.75 Channel: 5 Note on, B3 key=59 velocity: 75
@38100 $158.75 Channel: 5 Note on, F3 key=53 velocity: 100
@38130 $158.875 Channel: 5 Note off, F3 key=53 velocity: 0
@38130 $158.875 Channel: 5 Note off, B3 key=59 velocity: 0
@38160 $159.0 Channel: 5 Note on, E3 key=52 velocity: 100
@38160 $159.0 Channel: 5 Note on, A3 key=57 velocity: 100
@38190 $159.125 Channel: 5 Note off, A3 key=57 velocity: 0
@38190 $159.125 Channel: 5 Note off, E3 key=52 velocity: 0
@38220 $159.25 Channel: 5 Note on, A3 key=57 velocity: 100
@38220 $159.25 Channel: 5 Note on, E3 key=52 velocity: 100
@38250 $159.375 Channel: 5 Note off, E3 key=52 velocity: 0
@38250 $159.375 Channel: 5 Note off, A3 key=57 velocity: 0
@38280 $159.5 Channel: 5 Note on, G#3 key=56 velocity: 100
@38280 $159.5 Channel: 5 Note on, E3 key=52 velocity: 100
@38310 $159.625 Channel: 5 Note off, E3 key=52 velocity: 0
@38310 $159.625 Channel: 5 Note off, G#3 key=56 velocity: 0
@38340 $159.75 Channel: 5 Note on, E3 key=52 velocity: 100
@38340 $159.75 Channel: 5 Note on, G#3 key=56 velocity: 100
@38370 $159.875 Channel: 5 Note off, G#3 key=56 velocity: 0
@38370 $159.875 Channel: 5 Note off, E3 key=52 velocity: 0
@38400 $160.0 Channel: 5 Note on, A3 key=57 velocity: 100
@38400 $160.0 Channel: 5 Note on, A2 key=45 velocity: 100
@38520 $160.5 Channel: 5 Note off, A2 key=45 velocity: 0
@38520 $160.5 Channel: 5 Note off, A3 key=57 velocity: 0
@38640 $161.0 Channel: 5 Note on, C3 key=48 velocity: 100
@38700 $161.25 Channel: 5 Note off, C3 key=48 velocity: 0
@38700 $161.25 Channel: 5 Note on, C4 key=60 velocity: 100
@38730 $161.375 Channel: 5 Note off, C4 key=60 velocity: 0
@38760 $161.5 Channel: 5 Note on, E3 key=52 velocity: 100
@38790 $161.625 Channel: 5 Note off, E3 key=52 velocity: 0
@38820 $161.75 Channel: 5 Note on, E4 key=64 velocity: 100
@38850 $161.875 Channel: 5 Note off, E4 key=64 velocity: 0
@38880 $162.0 Channel: 5 Note on, G3 key=55 velocity: 100
@39000 $162.5 Channel: 5 Note off, G3 key=55 velocity: 0
@39120 $163.0 Channel: 5 Note on, C3 key=48 velocity: 100
@39180 $163.25 Channel: 5 Note off, C3 key=48 velocity: 0
@39180 $163.25 Channel: 5 Note on, C4 key=60 velocity: 100
@39210 $163.375 Channel: 5 Note off, C4 key=60 velocity: 0
@39240 $163.5 Channel: 5 Note on, E3 key=52 velocity: 100
@39270 $163.625 Channel: 5 Note off, E3 key=52 velocity: 0
@39300 $163.75 Channel: 5 Note on, E4 key=64 velocity: 100
@39330 $163.875 Channel: 5 Note off, E4 key=64 velocity: 0
@39360 $164.0 Channel: 5 Note on, G3 key=55 velocity: 100
@39480 $164.5 Channel: 5 Note off, G3 key=55 velocity: 0
@39600 $165.0 Channel: 5 Note on, A2 key=45 velocity: 100
@39660 $165.25 Channel: 5 Note off, A2 key=45 velocity: 0
@39660 $165.25 Channel: 5 Note on, A3 key=57 velocity: 100
@39690 $165.375 Channel: 5 Note off, A3 key=57 velocity: 0
@39720 $165.5 Channel: 5 Note on, C3 key=48 velocity: 100
@39750 $165.625 Channel: 5 Note off, C3 key=48 velocity: 0
@39780 $165.75 Channel: 5 Note on, C4 key=60 velocity: 100
@39810 $165.875 Channel: 5 Note off, C4 key=60 velocity: 0
@39840 $166.0 Channel: 5 Note on, E3 key=52 velocity: 100
@39960 $166.5 Channel: 5 Note off, E3 key=52 velocity: 0
@40080 $167.0 Channel: 5 Note on, A2 key=45 velocity: 100
@40140 $167.25 Channel: 5 Note off, A2 key=45 velocity: 0
@40140 $167.25 Channel: 5 Note on, A3 key=57 velocity: 100
@40170 $167.375 Channel: 5 Note off, A3 key=57 velocity: 0
@40200 $167.5 Channel: 5 Note on, C3 key=48 velocity: 100
@40230 $167.625 Channel: 5 Note off, C3 key=48 velocity: 0
@40260 $167.75 Channel: 5 Note on, C4 key=60 velocity: 100
@40290 $167.875 Channel: 5 Note off, C4 key=60 velocity: 0
@40320 $168.0 Channel: 5 Note on, E3 key=52 velocity: 100
@40440 $168.5 Channel: 5 Note off, E3 key=52 velocity: 0
@40560 $169.0 Channel: 5 Note on, A3 key=57 velocity: 100
@40620 $169.25 Channel: 5 Note off, A3 key=57 velocity: 0
@40620 $169.25 Channel: 5 Note on, E4 key=64 velocity: 100
@40620 $169.25 Channel: 5 Note on, C4 key=60 velocity: 100
@40650 $169.375 Channel: 5 Note off, C4 key=60 velocity: 0
@40650 $169.375 Channel: 5 Note off, E4 key=64 velocity: 0
@40680 $169.5 Channel: 5 Note on, E4 key=64 velocity: 100
@40680 $169.5 Channel: 5 Note on, C4 key=60 velocity: 100
@40710 $169.625 Channel: 5 Note off, C4 key=60 velocity: 0
@40710 $169.625 Channel: 5 Note off, E4 key=64 velocity: 0
@40740 $169.75 Channel: 5 Note on, E4 key=64 velocity: 100
@40740 $169.75 Channel: 5 Note on, C4 key=60 velocity: 100
@40770 $169.875 Channel: 5 Note off, C4 key=60 velocity: 0
@40770 $169.875 Channel: 5 Note off, E4 key=64 velocity: 0
@40800 $170.0 Channel: 5 Note on, A3 key=57 velocity: 100
@40860 $170.25 Channel: 5 Note off, A3 key=57 velocity: 0
@40860 $170.25 Channel: 5 Note on, E4 key=64 velocity: 100
@40860 $170.25 Channel: 5 Note on, C4 key=60 velocity: 100
@40890 $170.375 Channel: 5 Note off, C4 key=60 velocity: 0
@40890 $170.375 Channel: 5 Note off, E4 key=64 velocity: 0
@40920 $170.5 Channel: 5 Note on, E4 key=64 velocity: 100
@40920 $170.5 Channel: 5 Note on, C4 key=60 velocity: 100
@40950 $170.625 Channel: 5 Note off, C4 key=60 velocity: 0
@40950 $170.625 Channel: 5 Note off, E4 key=64 velocity: 0
@40980 $170.75 Channel: 5 Note on, E4 key=64 velocity: 100
@40980 $170.75 Channel: 5 Note on, C4 key=60 velocity: 100
@41010 $170.875 Channel: 5 Note off, C4 key=60 velocity: 0
@41010 $170.875 Channel: 5 Note off, E4 key=64 velocity: 0
@41040 $171.0 Channel: 5 Note on, A3 key=57 velocity: 100
@41100 $171.25 Channel: 5 Note off, A3 key=57 velocity: 0
@41100 $171.25 Channel: 5 Note on, E4 key=64 velocity: 100
@41100 $171.25 Channel: 5 Note on, C4 key=60 velocity: 100
@41130 $171.375 Channel: 5 Note off, C4 key=60 velocity: 0
@41130 $171.375 Channel: 5 Note off, E4 key=64 velocity: 0
@41160 $171.5 Channel: 5 Note on, A3 key=57 velocity: 100
@41220 $171.75 Channel: 5 Note off, A3 key=57 velocity: 0
@41220 $171.75 Channel: 5 Note on, E4 key=64 velocity: 100
@41220 $171.75 Channel: 5 Note on, C4 key=60 velocity: 100
@41250 $171.875 Channel: 5 Note off, C4 key=60 velocity: 0
@41250 $171.875 Channel: 5 Note off, E4 key=64 velocity: 0
@41280 $172.0 Channel: 5 Note on, F3 key=53 velocity: 100
@41340 $172.25 Channel: 5 Note off, F3 key=53 velocity: 0
@41340 $172.25 Channel: 5 Note on, D#4 key=63 velocity: 100
@41340 $172.25 Channel: 5 Note on, A3 key=57 velocity: 100
@41370 $172.375 Channel: 5 Note off, A3 key=57 velocity: 0
@41370 $172.375 Channel: 5 Note off, D#4 key=63 velocity: 0
@41400 $172.5 Channel: 5 Note on, A3 key=57 velocity: 100
@41400 $172.5 Channel: 5 Note on, D#4 key=63 velocity: 100
@41430 $172.625 Channel: 5 Note off, D#4 key=63 velocity: 0
@41430 $172.625 Channel: 5 Note off, A3 key=57 velocity: 0
@41460 $172.75 Channel: 5 Note on, A3 key=57 velocity: 100
@41460 $172.75 Channel: 5 Note on, D#4 key=63 velocity: 100
@41490 $172.875 Channel: 5 Note off, D#4 key=63 velocity: 0
@41490 $172.875 Channel: 5 Note off, A3 key=57 velocity: 0
@41520 $173.0 Channel: 5 Note on, E3 key=52 velocity: 100
@41580 $173.25 Channel: 5 Note off, E3 key=52 velocity: 0
@41580 $173.25 Channel: 5 Note on, E4 key=64 velocity: 100
@41580 $173.25 Channel: 5 Note on, A3 key=57 velocity: 100
@41610 $173.375 Channel: 5 Note off, A3 key=57 velocity: 0
@41610 $173.375 Channel: 5 Note off, E4 key=64 velocity: 0
@41640 $173.5 Channel: 5 Note on, D3 key=50 velocity: 100
@41700 $173.75 Channel: 5 Note off, D3 key=50 velocity: 0
@41700 $173.75 Channel: 5 Note on, F3 key=53 velocity: 100
@41700 $173.75 Channel: 5 Note on, B3 key=59 velocity: 100
@41730 $173.875 Channel: 5 Note off, B3 key=59 velocity: 0
@41730 $173.875 Channel: 5 Note off, F3 key=53 velocity: 0
@41760 $174.0 Channel: 5 Note on, C3 key=48 velocity: 100
@41820 $174.25 Channel: 5 Note off, C3 key=48 velocity: 0
@41820 $174.25 Channel: 5 Note on, A3 key=57 velocity: 100
@41820 $174.25 Channel: 5 Note on, E3 key=52 velocity: 100
@41850 $174.375 Channel: 5 Note off, E3 key=52 velocity: 0
@41850 $174.375 Channel: 5 Note off, A3 key=57 velocity: 0
@41880 $174.5 Channel: 5 Note on, D3 key=50 velocity: 100
@41940 $174.75 Channel: 5 Note off, D3 key=50 velocity: 0
@41940 $174.75 Channel: 5 Note on, B3 key=59 velocity: 100
@41940 $174.75 Channel: 5 Note on, F3 key=53 velocity: 100
@41970 $174.875 Channel: 5 Note off, F3 key=53 velocity: 0
@41970 $174.875 Channel: 5 Note off, B3 key=59 velocity: 0
@42000 $175.0 Channel: 5 Note on, E3 key=52 velocity: 100
@42000 $175.0 Channel: 5 Note on, A3 key=57 velocity: 100
@42030 $175.125 Channel: 5 Note off, A3 key=57 velocity: 0
@42030 $175.125 Channel: 5 Note off, E3 key=52 velocity: 0
@42060 $175.25 Channel: 5 Note on, A3 key=57 velocity: 100
@42060 $175.25 Channel: 5 Note on, E3 key=52 velocity: 100
@42090 $175.375 Channel: 5 Note off, E3 key=52 velocity: 0
@42090 $175.375 Channel: 5 Note off, A3 key=57 velocity: 0
@42120 $175.5 Channel: 5 Note on, G#3 key=56 velocity: 100
@42120 $175.5 Channel: 5 Note on, E3 key=52 velocity: 100
@42150 $175.625 Channel: 5 Note off, E3 key=52 velocity: 0
@42150 $175.625 Channel: 5 Note off, G#3 key=56 velocity: 0
@42180 $175.75 Channel: 5 Note on, E3 key=52 velocity: 100
@42180 $175.75 Channel: 5 Note on, G#3 key=56 velocity: 100
@42210 $175.875 Channel: 5 Note off, G#3 key=56 velocity: 0
@42210 $175.875 Channel: 5 Note off, E3 key=52 velocity: 0
@42240 $176.0 Channel: 5 Note on, A3 key=57 velocity: 100
@42240 $176.0 Channel: 5 Note on, A2 key=45 velocity: 100
@42360 $176.5 Channel: 5 Note off, A2 key=45 velocity: 0
@42360 $176.5 Channel: 5 Note off, A3 key=57 velocity: 0
@42500 $177.08333333333334 Channel: 5 Note on, A3 key=57 velocity: 100
@42530 $177.20833333333334 Channel: 5 Note off, A3 key=57 velocity: 0
@42540 $177.25 Channel: 5 Note on, A3 key=57 velocity: 100
@42570 $177.375 Channel: 5 Note off, A3 key=57 velocity: 0
@42600 $177.5 Channel: 5 Note on, A3 key=57 velocity: 100
@42630 $177.625 Channel: 5 Note off, A3 key=57 velocity: 0
@42660 $177.75 Channel: 5 Note on, A3 key=57 velocity: 100
@42690 $177.875 Channel: 5 Note off, A3 key=57 velocity: 0
@42740 $178.08333333333334 Channel: 5 Note on, A3 key=57 velocity: 100
@42770 $178.20833333333334 Channel: 5 Note off, A3 key=57 velocity: 0
@42780 $178.25 Channel: 5 Note on, A3 key=57 velocity: 100
@42810 $178.375 Channel: 5 Note off, A3 key=57 velocity: 0
@42840 $178.5 Channel: 5 Note on, A3 key=57 velocity: 100
@42870 $178.625 Channel: 5 Note off, A3 key=57 velocity: 0
@42900 $178.75 Channel: 5 Note on, A3 key=57 velocity: 100
@42930 $178.875 Channel: 5 Note off, A3 key=57 velocity: 0
@42980 $179.08333333333334 Channel: 5 Note on, D3 key=50 velocity: 100
@43010 $179.20833333333334 Channel: 5 Note off, D3 key=50 velocity: 0
@43020 $179.25 Channel: 5 Note on, D3 key=50 velocity: 100
@43050 $179.375 Channel: 5 Note off, D3 key=50 velocity: 0
@43080 $179.5 Channel: 5 Note on, D#3 key=51 velocity: 100
@43110 $179.625 Channel: 5 Note off, D#3 key=51 velocity: 0
@43140 $179.75 Channel: 5 Note on, D#3 key=51 velocity: 100
@43170 $179.875 Channel: 5 Note off, D#3 key=51 velocity: 0
@43220 $180.08333333333334 Channel: 5 Note on, E3 key=52 velocity: 100
@43250 $180.20833333333334 Channel: 5 Note off, E3 key=52 velocity: 0
@43260 $180.25 Channel: 5 Note on, E3 key=52 velocity: 100
@43290 $180.375 Channel: 5 Note off, E3 key=52 velocity: 0
@43320 $180.5 Channel: 5 Note on, E3 key=52 velocity: 100
@43350 $180.625 Channel: 5 Note off, E3 key=52 velocity: 0
@43380 $180.75 Channel: 5 Note on, E3 key=52 velocity: 100
@43410 $180.875 Channel: 5 Note off, E3 key=52 velocity: 0
@43460 $181.08333333333334 Channel: 5 Note on, A3 key=57 velocity: 100
@43490 $181.20833333333334 Channel: 5 Note off, A3 key=57 velocity: 0
@43500 $181.25 Channel: 5 Note on, A3 key=57 velocity: 100
@43530 $181.375 Channel: 5 Note off, A3 key=57 velocity: 0
@43560 $181.5 Channel: 5 Note on, A3 key=57 velocity: 100
@43590 $181.625 Channel: 5 Note off, A3 key=57 velocity: 0
@43620 $181.75 Channel: 5 Note on, A3 key=57 velocity: 100
@43650 $181.875 Channel: 5 Note off, A3 key=57 velocity: 0
@43700 $182.08333333333334 Channel: 5 Note on, A3 key=57 velocity: 100
@43730 $182.20833333333334 Channel: 5 Note off, A3 key=57 velocity: 0
@43740 $182.25 Channel: 5 Note on, A3 key=57 velocity: 100
@43770 $182.375 Channel: 5 Note off, A3 key=57 velocity: 0
@43800 $182.5 Channel: 5 Note on, A3 key=57 velocity: 100
@43830 $182.625 Channel: 5 Note off, A3 key=57 velocity: 0
@43860 $182.75 Channel: 5 Note on, A3 key=57 velocity: 100
@43890 $182.875 Channel: 5 Note off, A3 key=57 velocity: 0
@43940 $183.08333333333334 Channel: 5 Note on, D3 key=50 velocity: 100
@43970 $183.20833333333334 Channel: 5 Note off, D3 key=50 velocity: 0
@43980 $183.25 Channel: 5 Note on, D3 key=50 velocity: 100
@44010 $183.375 Channel: 5 Note off, D3 key=50 velocity: 0
@44040 $183.5 Channel: 5 Note on, E3 key=52 velocity: 100
@44070 $183.625 Channel: 5 Note off, E3 key=52 velocity: 0
@44100 $183.75 Channel: 5 Note on, E3 key=52 velocity: 100
@44130 $183.875 Channel: 5 Note off, E3 key=52 velocity: 0
@44160 $184.0 Channel: 5 Note on, A2 key=45 velocity: 100
@44280 $184.5 Channel: 5 Note off, A2 key=45 velocity: 0
@44420 $185.08333333333334 Channel: 5 Note on, A3 key=57 velocity: 100
@44450 $185.20833333333334 Channel: 5 Note off, A3 key=57 velocity: 0
@44460 $185.25 Channel: 5 Note on, A3 key=57 velocity: 100
@44490 $185.375 Channel: 5 Note off, A3 key=57 velocity: 0
@44520 $185.5 Channel: 5 Note on, A3 key=57 velocity: 100
@44550 $185.625 Channel: 5 Note off, A3 key=57 velocity: 0
@44580 $185.75 Channel: 5 Note on, A3 key=57 velocity: 100
@44610 $185.875 Channel: 5 Note off, A3 key=57 velocity: 0
@44660 $186.08333333333334 Channel: 5 Note on, A3 key=57 velocity: 100
@44690 $186.20833333333334 Channel: 5 Note off, A3 key=57 velocity: 0
@44700 $186.25 Channel: 5 Note on, A3 key=57 velocity: 100
@44730 $186.375 Channel: 5 Note off, A3 key=57 velocity: 0
@44760 $186.5 Channel: 5 Note on, A3 key=57 velocity: 100
@44790 $186.625 Channel: 5 Note off, A3 key=57 velocity: 0
@44820 $186.75 Channel: 5 Note on, A3 key=57 velocity: 100
@44850 $186.875 Channel: 5 Note off, A3 key=57 velocity: 0
@44900 $187.08333333333334 Channel: 5 Note on, D3 key=50 velocity: 100
@44930 $187.20833333333334 Channel: 5 Note off, D3 key=50 velocity: 0
@44940 $187.25 Channel: 5 Note on, D3 key=50 velocity: 100
@44970 $187.375 Channel: 5 Note off, D3 key=50 velocity: 0
@45000 $187.5 Channel: 5 Note on, D#3 key=51 velocity: 100
@45030 $187.625 Channel: 5 Note off, D#3 key=51 velocity: 0
@45060 $187.75 Channel: 5 Note on, D#3 key=51 velocity: 100
@45090 $187.875 Channel: 5 Note off, D#3 key=51 velocity: 0
@45140 $188.08333333333334 Channel: 5 Note on, E3 key=52 velocity: 100
@45170 $188.20833333333334 Channel: 5 Note off, E3 key=52 velocity: 0
@45180 $188.25 Channel: 5 Note on, E3 key=52 velocity: 100
@45210 $188.375 Channel: 5 Note off, E3 key=52 velocity: 0
@45240 $188.5 Channel: 5 Note on, E3 key=52 velocity: 100
@45270 $188.625 Channel: 5 Note off, E3 key=52 velocity: 0
@45300 $188.75 Channel: 5 Note on, E3 key=52 velocity: 100
@45330 $188.875 Channel: 5 Note off, E3 key=52 velocity: 0
@45380 $189.08333333333334 Channel: 5 Note on, A3 key=57 velocity: 100
@45410 $189.20833333333334 Channel: 5 Note off, A3 key=57 velocity: 0
@45420 $189.25 Channel: 5 Note on, A3 key=57 velocity: 100
@45450 $189.375 Channel: 5 Note off, A3 key=57 velocity: 0
@45480 $189.5 Channel: 5 Note on, A3 key=57 velocity: 100
@45510 $189.625 Channel: 5 Note off, A3 key=57 velocity: 0
@45540 $189.75 Channel: 5 Note on, A3 key=57 velocity: 100
@45570 $189.875 Channel: 5 Note off, A3 key=57 velocity: 0
@45620 $190.08333333333334 Channel: 5 Note on, A3 key=57 velocity: 100
@45650 $190.20833333333334 Channel: 5 Note off, A3 key=57 velocity: 0
@45660 $190.25 Channel: 5 Note on, A3 key=57 velocity: 100
@45690 $190.375 Channel: 5 Note off, A3 key=57 velocity: 0
@45720 $190.5 Channel: 5 Note on, A3 key=57 velocity: 100
@45750 $190.625 Channel: 5 Note off, A3 key=57 velocity: 0
@45780 $190.75 Channel: 5 Note on, A3 key=57 velocity: 100
@45810 $190.875 Channel: 5 Note off, A3 key=57 velocity: 0
@45860 $191.08333333333334 Channel: 5 Note on, D3 key=50 velocity: 100
@45890 $191.20833333333334 Channel: 5 Note off, D3 key=50 velocity: 0
@45900 $191.25 Channel: 5 Note on, D3 key=50 velocity: 100
@45930 $191.375 Channel: 5 Note off, D3 key=50 velocity: 0
@45960 $191.5 Channel: 5 Note on, E3 key=52 velocity: 100
@45990 $191.625 Channel: 5 Note off, E3 key=52 velocity: 0
@46020 $191.75 Channel: 5 Note on, E3 key=52 velocity: 100
@46050 $191.875 Channel: 5 Note off, E3 key=52 velocity: 0
@46100 $192.08333333333334 Channel: 5 Note on, A3 key=57 velocity: 127
@46130 $192.20833333333334 Channel: 5 Note off, A3 key=57 velocity: 0
@46140 $192.25 Channel: 5 Note on, A3 key=57 velocity: 127
@46170 $192.375 Channel: 5 Note off, A3 key=57 velocity: 0
@46200 $192.5 Channel: 5 Note on, A3 key=57 velocity: 127
@46230 $192.625 Channel: 5 Note off, A3 key=57 velocity: 0
@46260 $192.75 Channel: 5 Note on, A3 key=57 velocity: 127
@46290 $192.875 Channel: 5 Note off, A3 key=57 velocity: 0
@46320 $193.0 Channel: 5 Note on, A2 key=45 velocity: 100
@46330 $193.04166666666666 Channel: 5 Note off, A2 key=45 velocity: 0
@46330 $193.04166666666666 Channel: 5 Note on, C#3 key=49 velocity: 100
@46340 $193.08333333333334 Channel: 5 Note off, C#3 key=49 velocity: 0
@46340 $193.08333333333334 Channel: 5 Note on, E3 key=52 velocity: 100
@46350 $193.125 Channel: 5 Note off, E3 key=52 velocity: 0
@46350 $193.125 Channel: 5 Note on, A3 key=57 velocity: 100
@46380 $193.25 Channel: 5 Note off, A3 key=57 velocity: 0
@46380 $193.25 Channel: 5 Note on, A3 key=57 velocity: 100
@46410 $193.375 Channel: 5 Note off, A3 key=57 velocity: 0
@46440 $193.5 Channel: 5 Note on, A3 key=57 velocity: 100
@46470 $193.625 Channel: 5 Note off, A3 key=57 velocity: 0
@46500 $193.75 Channel: 5 Note on, A3 key=57 velocity: 100
@46530 $193.875 Channel: 5 Note off, A3 key=57 velocity: 0
@46580 $194.08333333333334 Channel: 5 Note on, A3 key=57 velocity: 100
@46610 $194.20833333333334 Channel: 5 Note off, A3 key=57 velocity: 0
@46620 $194.25 Channel: 5 Note on, A3 key=57 velocity: 100
@46650 $194.375 Channel: 5 Note off, A3 key=57 velocity: 0
@46680 $194.5 Channel: 5 Note on, A3 key=57 velocity: 100
@46710 $194.625 Channel: 5 Note off, A3 key=57 velocity: 0
@46740 $194.75 Channel: 5 Note on, A3 key=57 velocity: 100
@46770 $194.875 Channel: 5 Note off, A3 key=57 velocity: 0
@46820 $195.08333333333334 Channel: 5 Note on, A3 key=57 velocity: 100
@46850 $195.20833333333334 Channel: 5 Note off, A3 key=57 velocity: 0
@46860 $195.25 Channel: 5 Note on, A3 key=57 velocity: 100
@46890 $195.375 Channel: 5 Note off, A3 key=57 velocity: 0
@46920 $195.5 Channel: 5 Note on, A3 key=57 velocity: 100
@46950 $195.625 Channel: 5 Note off, A3 key=57 velocity: 0
@46980 $195.75 Channel: 5 Note on, A3 key=57 velocity: 100
@47010 $195.875 Channel: 5 Note off, A3 key=57 velocity: 0
@47055 $196.0625 Channel: 5 Note on, D3 key=50 velocity: 100
@47085 $196.1875 Channel: 5 Note off, D3 key=50 velocity: 0
@47100 $196.25 Channel: 5 Note on, D3 key=50 velocity: 100
@47130 $196.375 Channel: 5 Note off, D3 key=50 velocity: 0
@47160 $196.5 Channel: 5 Note on, D3 key=50 velocity: 100
@47190 $196.625 Channel: 5 Note off, D3 key=50 velocity: 0
@47220 $196.75 Channel: 5 Note on, D3 key=50 velocity: 100
@47250 $196.875 Channel: 5 Note off, D3 key=50 velocity: 0
@47250 $196.875 Other meta message: class javax.sound.midi.Track$ImmutableEndOfTrack

Track 9: size = 6
@0 $0.0 Other meta message: class javax.sound.midi.MetaMessage
@0 $0.0 Other meta message: class javax.sound.midi.MetaMessage
@0 $0.0 Channel: 9 Other short message:192
@0 $0.0 Channel: 9 Control Change message
@0 $0.0 Channel: 9 Control Change message
@0 $0.0 Other meta message: class javax.sound.midi.Track$ImmutableEndOfTrack

Track 10: size = 242
@0 $0.0 Other meta message: class javax.sound.midi.MetaMessage
@0 $0.0 Other meta message: class javax.sound.midi.MetaMessage
@0 $0.0 Channel: 8 Other short message:192
@0 $0.0 Channel: 8 Control Change message
@0 $0.0 Channel: 8 Control Change message
@19320 $80.5 Channel: 8 Note on, E5 key=76 velocity: 120
@19350 $80.625 Channel: 8 Note off, E5 key=76 velocity: 0
@19350 $80.625 Channel: 8 Note on, D5 key=74 velocity: 120
@19380 $80.75 Channel: 8 Note off, D5 key=74 velocity: 0
@19380 $80.75 Channel: 8 Note on, C#5 key=73 velocity: 120
@19410 $80.875 Channel: 8 Note off, C#5 key=73 velocity: 0
@19410 $80.875 Channel: 8 Note on, B4 key=71 velocity: 120
@19440 $81.0 Channel: 8 Note off, B4 key=71 velocity: 0
@19440 $81.0 Channel: 8 Note on, A4 key=69 velocity: 120
@19470 $81.125 Channel: 8 Note off, A4 key=69 velocity: 0
@19470 $81.125 Channel: 8 Note on, B4 key=71 velocity: 120
@19500 $81.25 Channel: 8 Note off, B4 key=71 velocity: 0
@19500 $81.25 Channel: 8 Note on, C#5 key=73 velocity: 120
@19530 $81.375 Channel: 8 Note off, C#5 key=73 velocity: 0
@19530 $81.375 Channel: 8 Note on, D5 key=74 velocity: 120
@19560 $81.5 Channel: 8 Note off, D5 key=74 velocity: 0
@19560 $81.5 Channel: 8 Note on, E5 key=76 velocity: 120
@19590 $81.625 Channel: 8 Note off, E5 key=76 velocity: 0
@19590 $81.625 Channel: 8 Note on, F#5 key=78 velocity: 120
@19620 $81.75 Channel: 8 Note off, F#5 key=78 velocity: 0
@19620 $81.75 Channel: 8 Note on, G#5 key=80 velocity: 120
@19650 $81.875 Channel: 8 Note off, G#5 key=80 velocity: 0
@19650 $81.875 Channel: 8 Note on, A5 key=81 velocity: 120
@19680 $82.0 Channel: 8 Note off, A5 key=81 velocity: 0
@19680 $82.0 Channel: 8 Note on, A5 key=81 velocity: 120
@19710 $82.125 Channel: 8 Note off, A5 key=81 velocity: 0
@19710 $82.125 Channel: 8 Note on, G#5 key=80 velocity: 120
@19740 $82.25 Channel: 8 Note off, G#5 key=80 velocity: 0
@19740 $82.25 Channel: 8 Note on, F#5 key=78 velocity: 120
@19770 $82.375 Channel: 8 Note off, F#5 key=78 velocity: 0
@19770 $82.375 Channel: 8 Note on, E5 key=76 velocity: 120
@19800 $82.5 Channel: 8 Note off, E5 key=76 velocity: 0
@19800 $82.5 Channel: 8 Note on, E5 key=76 velocity: 120
@19830 $82.625 Channel: 8 Note off, E5 key=76 velocity: 0
@19830 $82.625 Channel: 8 Note on, D5 key=74 velocity: 120
@19860 $82.75 Channel: 8 Note off, D5 key=74 velocity: 0
@19860 $82.75 Channel: 8 Note on, C#5 key=73 velocity: 120
@19890 $82.875 Channel: 8 Note off, C#5 key=73 velocity: 0
@19890 $82.875 Channel: 8 Note on, B4 key=71 velocity: 120
@19920 $83.0 Channel: 8 Note off, B4 key=71 velocity: 0
@19920 $83.0 Channel: 8 Note on, A4 key=69 velocity: 120
@19950 $83.125 Channel: 8 Note off, A4 key=69 velocity: 0
@19950 $83.125 Channel: 8 Note on, B4 key=71 velocity: 120
@19980 $83.25 Channel: 8 Note off, B4 key=71 velocity: 0
@19980 $83.25 Channel: 8 Note on, C#5 key=73 velocity: 120
@20010 $83.375 Channel: 8 Note off, C#5 key=73 velocity: 0
@20010 $83.375 Channel: 8 Note on, D5 key=74 velocity: 120
@20040 $83.5 Channel: 8 Note off, D5 key=74 velocity: 0
@20040 $83.5 Channel: 8 Note on, E5 key=76 velocity: 120
@20070 $83.625 Channel: 8 Note off, E5 key=76 velocity: 0
@20070 $83.625 Channel: 8 Note on, F#5 key=78 velocity: 120
@20100 $83.75 Channel: 8 Note off, F#5 key=78 velocity: 0
@20100 $83.75 Channel: 8 Note on, G#5 key=80 velocity: 120
@20130 $83.875 Channel: 8 Note off, G#5 key=80 velocity: 0
@20130 $83.875 Channel: 8 Note on, A5 key=81 velocity: 120
@20160 $84.0 Channel: 8 Note off, A5 key=81 velocity: 0
@20160 $84.0 Channel: 8 Note on, A#5 key=82 velocity: 120
@20220 $84.25 Channel: 8 Note off, A#5 key=82 velocity: 0
@20220 $84.25 Channel: 8 Note on, B5 key=83 velocity: 120
@20265 $84.4375 Channel: 8 Note off, B5 key=83 velocity: 0
@20280 $84.5 Channel: 8 Note on, E5 key=76 velocity: 120
@20310 $84.625 Channel: 8 Note off, E5 key=76 velocity: 0
@20310 $84.625 Channel: 8 Note on, D5 key=74 velocity: 120
@20340 $84.75 Channel: 8 Note off, D5 key=74 velocity: 0
@20340 $84.75 Channel: 8 Note on, C#5 key=73 velocity: 120
@20370 $84.875 Channel: 8 Note off, C#5 key=73 velocity: 0
@20370 $84.875 Channel: 8 Note on, B4 key=71 velocity: 120
@20400 $85.0 Channel: 8 Note off, B4 key=71 velocity: 0
@20400 $85.0 Channel: 8 Note on, A4 key=69 velocity: 120
@20430 $85.125 Channel: 8 Note off, A4 key=69 velocity: 0
@20430 $85.125 Channel: 8 Note on, B4 key=71 velocity: 120
@20460 $85.25 Channel: 8 Note off, B4 key=71 velocity: 0
@20460 $85.25 Channel: 8 Note on, C#5 key=73 velocity: 120
@20490 $85.375 Channel: 8 Note off, C#5 key=73 velocity: 0
@20490 $85.375 Channel: 8 Note on, D5 key=74 velocity: 120
@20520 $85.5 Channel: 8 Note off, D5 key=74 velocity: 0
@20520 $85.5 Channel: 8 Note on, E5 key=76 velocity: 120
@20550 $85.625 Channel: 8 Note off, E5 key=76 velocity: 0
@20550 $85.625 Channel: 8 Note on, F#5 key=78 velocity: 120
@20580 $85.75 Channel: 8 Note off, F#5 key=78 velocity: 0
@20580 $85.75 Channel: 8 Note on, G#5 key=80 velocity: 120
@20610 $85.875 Channel: 8 Note off, G#5 key=80 velocity: 0
@20610 $85.875 Channel: 8 Note on, A5 key=81 velocity: 120
@20640 $86.0 Channel: 8 Note off, A5 key=81 velocity: 0
@20640 $86.0 Channel: 8 Note on, A5 key=81 velocity: 120
@20670 $86.125 Channel: 8 Note off, A5 key=81 velocity: 0
@20670 $86.125 Channel: 8 Note on, G#5 key=80 velocity: 120
@20700 $86.25 Channel: 8 Note off, G#5 key=80 velocity: 0
@20700 $86.25 Channel: 8 Note on, F#5 key=78 velocity: 120
@20730 $86.375 Channel: 8 Note off, F#5 key=78 velocity: 0
@20730 $86.375 Channel: 8 Note on, E5 key=76 velocity: 120
@20760 $86.5 Channel: 8 Note off, E5 key=76 velocity: 0
@20760 $86.5 Channel: 8 Note on, E5 key=76 velocity: 120
@20790 $86.625 Channel: 8 Note off, E5 key=76 velocity: 0
@20790 $86.625 Channel: 8 Note on, D5 key=74 velocity: 120
@20820 $86.75 Channel: 8 Note off, D5 key=74 velocity: 0
@20820 $86.75 Channel: 8 Note on, C#5 key=73 velocity: 120
@20850 $86.875 Channel: 8 Note off, C#5 key=73 velocity: 0
@20850 $86.875 Channel: 8 Note on, B4 key=71 velocity: 120
@20880 $87.0 Channel: 8 Note off, B4 key=71 velocity: 0
@20880 $87.0 Channel: 8 Note on, C#5 key=73 velocity: 120
@20910 $87.125 Channel: 8 Note off, C#5 key=73 velocity: 0
@20910 $87.125 Channel: 8 Note on, E5 key=76 velocity: 120
@20940 $87.25 Channel: 8 Note off, E5 key=76 velocity: 0
@20940 $87.25 Channel: 8 Note on, A4 key=69 velocity: 120
@20970 $87.375 Channel: 8 Note off, A4 key=69 velocity: 0
@20970 $87.375 Channel: 8 Note on, C#5 key=73 velocity: 120
@21000 $87.5 Channel: 8 Note off, C#5 key=73 velocity: 0
@21000 $87.5 Channel: 8 Note on, B4 key=71 velocity: 120
@21030 $87.625 Channel: 8 Note off, B4 key=71 velocity: 0
@21030 $87.625 Channel: 8 Note on, D5 key=74 velocity: 120
@21060 $87.75 Channel: 8 Note off, D5 key=74 velocity: 0
@21060 $87.75 Channel: 8 Note on, G#4 key=68 velocity: 120
@21090 $87.875 Channel: 8 Note off, G#4 key=68 velocity: 0
@21090 $87.875 Channel: 8 Note on, B4 key=71 velocity: 120
@21120 $88.0 Channel: 8 Note off, B4 key=71 velocity: 0
@21120 $88.0 Channel: 8 Note on, A4 key=69 velocity: 120
@21180 $88.25 Channel: 8 Note off, A4 key=69 velocity: 0
@23165 $96.52083333333333 Channel: 8 Note on, E5 key=76 velocity: 120
@23195 $96.64583333333333 Channel: 8 Note off, E5 key=76 velocity: 0
@23195 $96.64583333333333 Channel: 8 Note on, D5 key=74 velocity: 120
@23225 $96.77083333333333 Channel: 8 Note off, D5 key=74 velocity: 0
@23225 $96.77083333333333 Channel: 8 Note on, C#5 key=73 velocity: 120
@23255 $96.89583333333333 Channel: 8 Note off, C#5 key=73 velocity: 0
@23255 $96.89583333333333 Channel: 8 Note on, B4 key=71 velocity: 120
@23285 $97.02083333333333 Channel: 8 Note off, B4 key=71 velocity: 0
@23285 $97.02083333333333 Channel: 8 Note on, A4 key=69 velocity: 120
@23315 $97.14583333333333 Channel: 8 Note off, A4 key=69 velocity: 0
@23315 $97.14583333333333 Channel: 8 Note on, B4 key=71 velocity: 120
@23345 $97.27083333333333 Channel: 8 Note off, B4 key=71 velocity: 0
@23345 $97.27083333333333 Channel: 8 Note on, C#5 key=73 velocity: 120
@23375 $97.39583333333333 Channel: 8 Note off, C#5 key=73 velocity: 0
@23375 $97.39583333333333 Channel: 8 Note on, D5 key=74 velocity: 120
@23405 $97.52083333333333 Channel: 8 Note off, D5 key=74 velocity: 0
@23405 $97.52083333333333 Channel: 8 Note on, E5 key=76 velocity: 120
@23435 $97.64583333333333 Channel: 8 Note off, E5 key=76 velocity: 0
@23435 $97.64583333333333 Channel: 8 Note on, F#5 key=78 velocity: 120
@23465 $97.77083333333333 Channel: 8 Note off, F#5 key=78 velocity: 0
@23465 $97.77083333333333 Channel: 8 Note on, G#5 key=80 velocity: 120
@23495 $97.89583333333333 Channel: 8 Note off, G#5 key=80 velocity: 0
@23495 $97.89583333333333 Channel: 8 Note on, A5 key=81 velocity: 120
@23525 $98.02083333333333 Channel: 8 Note off, A5 key=81 velocity: 0
@23525 $98.02083333333333 Channel: 8 Note on, A5 key=81 velocity: 120
@23555 $98.14583333333333 Channel: 8 Note off, A5 key=81 velocity: 0
@23555 $98.14583333333333 Channel: 8 Note on, G#5 key=80 velocity: 120
@23585 $98.27083333333333 Channel: 8 Note off, G#5 key=80 velocity: 0
@23585 $98.27083333333333 Channel: 8 Note on, F#5 key=78 velocity: 120
@23615 $98.39583333333333 Channel: 8 Note off, F#5 key=78 velocity: 0
@23615 $98.39583333333333 Channel: 8 Note on, E5 key=76 velocity: 120
@23645 $98.52083333333333 Channel: 8 Note off, E5 key=76 velocity: 0
@23645 $98.52083333333333 Channel: 8 Note on, E5 key=76 velocity: 120
@23675 $98.64583333333333 Channel: 8 Note off, E5 key=76 velocity: 0
@23675 $98.64583333333333 Channel: 8 Note on, D5 key=74 velocity: 120
@23705 $98.77083333333333 Channel: 8 Note off, D5 key=74 velocity: 0
@23705 $98.77083333333333 Channel: 8 Note on, C#5 key=73 velocity: 120
@23735 $98.89583333333333 Channel: 8 Note off, C#5 key=73 velocity: 0
@23735 $98.89583333333333 Channel: 8 Note on, B4 key=71 velocity: 120
@23765 $99.02083333333333 Channel: 8 Note off, B4 key=71 velocity: 0
@23765 $99.02083333333333 Channel: 8 Note on, A4 key=69 velocity: 120
@23795 $99.14583333333333 Channel: 8 Note off, A4 key=69 velocity: 0
@23795 $99.14583333333333 Channel: 8 Note on, B4 key=71 velocity: 120
@23825 $99.27083333333333 Channel: 8 Note off, B4 key=71 velocity: 0
@23825 $99.27083333333333 Channel: 8 Note on, C#5 key=73 velocity: 120
@23855 $99.39583333333333 Channel: 8 Note off, C#5 key=73 velocity: 0
@23855 $99.39583333333333 Channel: 8 Note on, D5 key=74 velocity: 120
@23885 $99.52083333333333 Channel: 8 Note off, D5 key=74 velocity: 0
@23885 $99.52083333333333 Channel: 8 Note on, E5 key=76 velocity: 120
@23915 $99.64583333333333 Channel: 8 Note off, E5 key=76 velocity: 0
@23915 $99.64583333333333 Channel: 8 Note on, F#5 key=78 velocity: 120
@23945 $99.77083333333333 Channel: 8 Note off, F#5 key=78 velocity: 0
@23945 $99.77083333333333 Channel: 8 Note on, G#5 key=80 velocity: 120
@23975 $99.89583333333333 Channel: 8 Note off, G#5 key=80 velocity: 0
@23975 $99.89583333333333 Channel: 8 Note on, A5 key=81 velocity: 120
@24005 $100.02083333333333 Channel: 8 Note off, A5 key=81 velocity: 0
@24005 $100.02083333333333 Channel: 8 Note on, A#5 key=82 velocity: 120
@24065 $100.27083333333333 Channel: 8 Note off, A#5 key=82 velocity: 0
@24065 $100.27083333333333 Channel: 8 Note on, B5 key=83 velocity: 120
@24110 $100.45833333333333 Channel: 8 Note off, B5 key=83 velocity: 0
@24125 $100.52083333333333 Channel: 8 Note on, E5 key=76 velocity: 120
@24155 $100.64583333333333 Channel: 8 Note off, E5 key=76 velocity: 0
@24155 $100.64583333333333 Channel: 8 Note on, D5 key=74 velocity: 120
@24185 $100.77083333333333 Channel: 8 Note off, D5 key=74 velocity: 0
@24185 $100.77083333333333 Channel: 8 Note on, C#5 key=73 velocity: 120
@24215 $100.89583333333333 Channel: 8 Note off, C#5 key=73 velocity: 0
@24215 $100.89583333333333 Channel: 8 Note on, B4 key=71 velocity: 120
@24245 $101.02083333333333 Channel: 8 Note off, B4 key=71 velocity: 0
@24245 $101.02083333333333 Channel: 8 Note on, A4 key=69 velocity: 120
@24275 $101.14583333333333 Channel: 8 Note off, A4 key=69 velocity: 0
@24275 $101.14583333333333 Channel: 8 Note on, B4 key=71 velocity: 120
@24305 $101.27083333333333 Channel: 8 Note off, B4 key=71 velocity: 0
@24305 $101.27083333333333 Channel: 8 Note on, C#5 key=73 velocity: 120
@24335 $101.39583333333333 Channel: 8 Note off, C#5 key=73 velocity: 0
@24335 $101.39583333333333 Channel: 8 Note on, D5 key=74 velocity: 120
@24365 $101.52083333333333 Channel: 8 Note off, D5 key=74 velocity: 0
@24365 $101.52083333333333 Channel: 8 Note on, E5 key=76 velocity: 120
@24395 $101.64583333333333 Channel: 8 Note off, E5 key=76 velocity: 0
@24395 $101.64583333333333 Channel: 8 Note on, F#5 key=78 velocity: 120
@24425 $101.77083333333333 Channel: 8 Note off, F#5 key=78 velocity: 0
@24425 $101.77083333333333 Channel: 8 Note on, G#5 key=80 velocity: 120
@24455 $101.89583333333333 Channel: 8 Note off, G#5 key=80 velocity: 0
@24455 $101.89583333333333 Channel: 8 Note on, A5 key=81 velocity: 120
@24485 $102.02083333333333 Channel: 8 Note off, A5 key=81 velocity: 0
@24485 $102.02083333333333 Channel: 8 Note on, A5 key=81 velocity: 120
@24515 $102.14583333333333 Channel: 8 Note off, A5 key=81 velocity: 0
@24515 $102.14583333333333 Channel: 8 Note on, G#5 key=80 velocity: 120
@24545 $102.27083333333333 Channel: 8 Note off, G#5 key=80 velocity: 0
@24545 $102.27083333333333 Channel: 8 Note on, F#5 key=78 velocity: 120
@24575 $102.39583333333333 Channel: 8 Note off, F#5 key=78 velocity: 0
@24575 $102.39583333333333 Channel: 8 Note on, E5 key=76 velocity: 120
@24605 $102.52083333333333 Channel: 8 Note off, E5 key=76 velocity: 0
@24605 $102.52083333333333 Channel: 8 Note on, E5 key=76 velocity: 120
@24635 $102.64583333333333 Channel: 8 Note off, E5 key=76 velocity: 0
@24635 $102.64583333333333 Channel: 8 Note on, D5 key=74 velocity: 120
@24665 $102.77083333333333 Channel: 8 Note off, D5 key=74 velocity: 0
@24665 $102.77083333333333 Channel: 8 Note on, C#5 key=73 velocity: 120
@24695 $102.89583333333333 Channel: 8 Note off, C#5 key=73 velocity: 0
@24695 $102.89583333333333 Channel: 8 Note on, B4 key=71 velocity: 120
@24725 $103.02083333333333 Channel: 8 Note off, B4 key=71 velocity: 0
@24725 $103.02083333333333 Channel: 8 Note on, C#5 key=73 velocity: 120
@24755 $103.14583333333333 Channel: 8 Note off, C#5 key=73 velocity: 0
@24755 $103.14583333333333 Channel: 8 Note on, E5 key=76 velocity: 120
@24785 $103.27083333333333 Channel: 8 Note off, E5 key=76 velocity: 0
@24785 $103.27083333333333 Channel: 8 Note on, A4 key=69 velocity: 120
@24815 $103.39583333333333 Channel: 8 Note off, A4 key=69 velocity: 0
@24815 $103.39583333333333 Channel: 8 Note on, C#5 key=73 velocity: 120
@24845 $103.52083333333333 Channel: 8 Note off, C#5 key=73 velocity: 0
@24845 $103.52083333333333 Channel: 8 Note on, B4 key=71 velocity: 120
@24875 $103.64583333333333 Channel: 8 Note off, B4 key=71 velocity: 0
@24875 $103.64583333333333 Channel: 8 Note on, D5 key=74 velocity: 120
@24905 $103.77083333333333 Channel: 8 Note off, D5 key=74 velocity: 0
@24905 $103.77083333333333 Channel: 8 Note on, G#4 key=68 velocity: 120
@24935 $103.89583333333333 Channel: 8 Note off, G#4 key=68 velocity: 0
@24935 $103.89583333333333 Channel: 8 Note on, B4 key=71 velocity: 120
@24965 $104.02083333333333 Channel: 8 Note off, B4 key=71 velocity: 0
@24965 $104.02083333333333 Channel: 8 Note on, A4 key=69 velocity: 120
@25025 $104.27083333333333 Channel: 8 Note off, A4 key=69 velocity: 0
@25025 $104.27083333333333 Other meta message: class javax.sound.midi.Track$ImmutableEndOfTrack

Track 11: size = 474
@0 $0.0 Other meta message: class javax.sound.midi.MetaMessage
@0 $0.0 Other meta message: class javax.sound.midi.MetaMessage
@0 $0.0 Channel: 10 Other short message:192
@0 $0.0 Channel: 10 Control Change message
@0 $0.0 Channel: 10 Control Change message
@11640 $48.5 Channel: 10 Note on, A4 key=69 velocity: 100
@11685 $48.6875 Channel: 10 Note off, A4 key=69 velocity: 0
@11700 $48.75 Channel: 10 Note on, B4 key=71 velocity: 100
@11745 $48.9375 Channel: 10 Note off, B4 key=71 velocity: 0
@11760 $49.0 Channel: 10 Note on, C#5 key=73 velocity: 100
@11880 $49.5 Channel: 10 Note off, C#5 key=73 velocity: 0
@11880 $49.5 Channel: 10 Note on, A4 key=69 velocity: 100
@11925 $49.6875 Channel: 10 Note off, A4 key=69 velocity: 0
@11940 $49.75 Channel: 10 Note on, B4 key=71 velocity: 100
@11985 $49.9375 Channel: 10 Note off, B4 key=71 velocity: 0
@12000 $50.0 Channel: 10 Note on, C#5 key=73 velocity: 100
@12045 $50.1875 Channel: 10 Note off, C#5 key=73 velocity: 0
@12060 $50.25 Channel: 10 Note on, B4 key=71 velocity: 100
@12105 $50.4375 Channel: 10 Note off, B4 key=71 velocity: 0
@12120 $50.5 Channel: 10 Note on, A4 key=69 velocity: 100
@12165 $50.6875 Channel: 10 Note off, A4 key=69 velocity: 0
@12180 $50.75 Channel: 10 Note on, G#4 key=68 velocity: 100
@12225 $50.9375 Channel: 10 Note off, G#4 key=68 velocity: 0
@12240 $51.0 Channel: 10 Note on, F#4 key=66 velocity: 100
@12285 $51.1875 Channel: 10 Note off, F#4 key=66 velocity: 0
@12300 $51.25 Channel: 10 Note on, G#4 key=68 velocity: 100
@12345 $51.4375 Channel: 10 Note off, G#4 key=68 velocity: 0
@12360 $51.5 Channel: 10 Note on, A4 key=69 velocity: 100
@12405 $51.6875 Channel: 10 Note off, A4 key=69 velocity: 0
@12420 $51.75 Channel: 10 Note on, B4 key=71 velocity: 100
@12465 $51.9375 Channel: 10 Note off, B4 key=71 velocity: 0
@12480 $52.0 Channel: 10 Note on, G#4 key=68 velocity: 100
@12525 $52.1875 Channel: 10 Note off, G#4 key=68 velocity: 0
@12540 $52.25 Channel: 10 Note on, E4 key=64 velocity: 100
@12585 $52.4375 Channel: 10 Note off, E4 key=64 velocity: 0
@12600 $52.5 Channel: 10 Note on, A4 key=69 velocity: 100
@12645 $52.6875 Channel: 10 Note off, A4 key=69 velocity: 0
@12660 $52.75 Channel: 10 Note on, B4 key=71 velocity: 100
@12705 $52.9375 Channel: 10 Note off, B4 key=71 velocity: 0
@12720 $53.0 Channel: 10 Note on, C#5 key=73 velocity: 100
@12840 $53.5 Channel: 10 Note off, C#5 key=73 velocity: 0
@12840 $53.5 Channel: 10 Note on, A4 key=69 velocity: 100
@12885 $53.6875 Channel: 10 Note off, A4 key=69 velocity: 0
@12900 $53.75 Channel: 10 Note on, B4 key=71 velocity: 100
@12945 $53.9375 Channel: 10 Note off, B4 key=71 velocity: 0
@12960 $54.0 Channel: 10 Note on, C#5 key=73 velocity: 100
@13005 $54.1875 Channel: 10 Note off, C#5 key=73 velocity: 0
@13020 $54.25 Channel: 10 Note on, B4 key=71 velocity: 100
@13065 $54.4375 Channel: 10 Note off, B4 key=71 velocity: 0
@13080 $54.5 Channel: 10 Note on, A4 key=69 velocity: 100
@13125 $54.6875 Channel: 10 Note off, A4 key=69 velocity: 0
@13140 $54.75 Channel: 10 Note on, G#4 key=68 velocity: 100
@13185 $54.9375 Channel: 10 Note off, G#4 key=68 velocity: 0
@13200 $55.0 Channel: 10 Note on, F#4 key=66 velocity: 100
@13245 $55.1875 Channel: 10 Note off, F#4 key=66 velocity: 0
@13260 $55.25 Channel: 10 Note on, B4 key=71 velocity: 100
@13305 $55.4375 Channel: 10 Note off, B4 key=71 velocity: 0
@13320 $55.5 Channel: 10 Note on, G#4 key=68 velocity: 100
@13365 $55.6875 Channel: 10 Note off, G#4 key=68 velocity: 0
@13380 $55.75 Channel: 10 Note on, E4 key=64 velocity: 100
@13425 $55.9375 Channel: 10 Note off, E4 key=64 velocity: 0
@13440 $56.0 Channel: 10 Note on, A4 key=69 velocity: 100
@13560 $56.5 Channel: 10 Note off, A4 key=69 velocity: 0
@13560 $56.5 Channel: 10 Note on, A4 key=69 velocity: 100
@13605 $56.6875 Channel: 10 Note off, A4 key=69 velocity: 0
@13620 $56.75 Channel: 10 Note on, B4 key=71 velocity: 100
@13665 $56.9375 Channel: 10 Note off, B4 key=71 velocity: 0
@13680 $57.0 Channel: 10 Note on, C#5 key=73 velocity: 100
@13800 $57.5 Channel: 10 Note off, C#5 key=73 velocity: 0
@13800 $57.5 Channel: 10 Note on, A4 key=69 velocity: 100
@13845 $57.6875 Channel: 10 Note off, A4 key=69 velocity: 0
@13860 $57.75 Channel: 10 Note on, B4 key=71 velocity: 100
@13905 $57.9375 Channel: 10 Note off, B4 key=71 velocity: 0
@13920 $58.0 Channel: 10 Note on, C#5 key=73 velocity: 100
@13965 $58.1875 Channel: 10 Note off, C#5 key=73 velocity: 0
@13980 $58.25 Channel: 10 Note on, B4 key=71 velocity: 100
@14025 $58.4375 Channel: 10 Note off, B4 key=71 velocity: 0
@14040 $58.5 Channel: 10 Note on, A4 key=69 velocity: 100
@14085 $58.6875 Channel: 10 Note off, A4 key=69 velocity: 0
@14100 $58.75 Channel: 10 Note on, G#4 key=68 velocity: 100
@14145 $58.9375 Channel: 10 Note off, G#4 key=68 velocity: 0
@14160 $59.0 Channel: 10 Note on, F#4 key=66 velocity: 100
@14205 $59.1875 Channel: 10 Note off, F#4 key=66 velocity: 0
@14220 $59.25 Channel: 10 Note on, G#4 key=68 velocity: 100
@14265 $59.4375 Channel: 10 Note off, G#4 key=68 velocity: 0
@14280 $59.5 Channel: 10 Note on, A4 key=69 velocity: 100
@14325 $59.6875 Channel: 10 Note off, A4 key=69 velocity: 0
@14340 $59.75 Channel: 10 Note on, B4 key=71 velocity: 100
@14385 $59.9375 Channel: 10 Note off, B4 key=71 velocity: 0
@14400 $60.0 Channel: 10 Note on, G#4 key=68 velocity: 100
@14445 $60.1875 Channel: 10 Note off, G#4 key=68 velocity: 0
@14460 $60.25 Channel: 10 Note on, E4 key=64 velocity: 100
@14505 $60.4375 Channel: 10 Note off, E4 key=64 velocity: 0
@14520 $60.5 Channel: 10 Note on, A4 key=69 velocity: 100
@14565 $60.6875 Channel: 10 Note off, A4 key=69 velocity: 0
@14580 $60.75 Channel: 10 Note on, B4 key=71 velocity: 100
@14625 $60.9375 Channel: 10 Note off, B4 key=71 velocity: 0
@14640 $61.0 Channel: 10 Note on, C#5 key=73 velocity: 100
@14760 $61.5 Channel: 10 Note off, C#5 key=73 velocity: 0
@14760 $61.5 Channel: 10 Note on, A4 key=69 velocity: 100
@14805 $61.6875 Channel: 10 Note off, A4 key=69 velocity: 0
@14820 $61.75 Channel: 10 Note on, B4 key=71 velocity: 100
@14865 $61.9375 Channel: 10 Note off, B4 key=71 velocity: 0
@14880 $62.0 Channel: 10 Note on, C#5 key=73 velocity: 100
@14925 $62.1875 Channel: 10 Note off, C#5 key=73 velocity: 0
@14940 $62.25 Channel: 10 Note on, B4 key=71 velocity: 100
@14985 $62.4375 Channel: 10 Note off, B4 key=71 velocity: 0
@15000 $62.5 Channel: 10 Note on, A4 key=69 velocity: 100
@15045 $62.6875 Channel: 10 Note off, A4 key=69 velocity: 0
@15060 $62.75 Channel: 10 Note on, G#4 key=68 velocity: 100
@15105 $62.9375 Channel: 10 Note off, G#4 key=68 velocity: 0
@15120 $63.0 Channel: 10 Note on, F#4 key=66 velocity: 100
@15165 $63.1875 Channel: 10 Note off, F#4 key=66 velocity: 0
@15180 $63.25 Channel: 10 Note on, B4 key=71 velocity: 100
@15225 $63.4375 Channel: 10 Note off, B4 key=71 velocity: 0
@15240 $63.5 Channel: 10 Note on, G#4 key=68 velocity: 100
@15285 $63.6875 Channel: 10 Note off, G#4 key=68 velocity: 0
@15300 $63.75 Channel: 10 Note on, E4 key=64 velocity: 100
@15345 $63.9375 Channel: 10 Note off, E4 key=64 velocity: 0
@15360 $64.0 Channel: 10 Note on, A4 key=69 velocity: 100
@15480 $64.5 Channel: 10 Note off, A4 key=69 velocity: 0
@19320 $80.5 Channel: 10 Note on, E5 key=76 velocity: 120
@19350 $80.625 Channel: 10 Note off, E5 key=76 velocity: 0
@19350 $80.625 Channel: 10 Note on, D5 key=74 velocity: 120
@19380 $80.75 Channel: 10 Note off, D5 key=74 velocity: 0
@19380 $80.75 Channel: 10 Note on, C#5 key=73 velocity: 120
@19410 $80.875 Channel: 10 Note off, C#5 key=73 velocity: 0
@19410 $80.875 Channel: 10 Note on, B4 key=71 velocity: 120
@19440 $81.0 Channel: 10 Note off, B4 key=71 velocity: 0
@19440 $81.0 Channel: 10 Note on, A4 key=69 velocity: 120
@19470 $81.125 Channel: 10 Note off, A4 key=69 velocity: 0
@19470 $81.125 Channel: 10 Note on, B4 key=71 velocity: 120
@19500 $81.25 Channel: 10 Note off, B4 key=71 velocity: 0
@19500 $81.25 Channel: 10 Note on, C#5 key=73 velocity: 120
@19530 $81.375 Channel: 10 Note off, C#5 key=73 velocity: 0
@19530 $81.375 Channel: 10 Note on, D5 key=74 velocity: 120
@19560 $81.5 Channel: 10 Note off, D5 key=74 velocity: 0
@19560 $81.5 Channel: 10 Note on, E5 key=76 velocity: 120
@19590 $81.625 Channel: 10 Note off, E5 key=76 velocity: 0
@19590 $81.625 Channel: 10 Note on, F#5 key=78 velocity: 120
@19620 $81.75 Channel: 10 Note off, F#5 key=78 velocity: 0
@19620 $81.75 Channel: 10 Note on, G#5 key=80 velocity: 120
@19650 $81.875 Channel: 10 Note off, G#5 key=80 velocity: 0
@19650 $81.875 Channel: 10 Note on, A5 key=81 velocity: 120
@19680 $82.0 Channel: 10 Note off, A5 key=81 velocity: 0
@19680 $82.0 Channel: 10 Note on, A5 key=81 velocity: 120
@19710 $82.125 Channel: 10 Note off, A5 key=81 velocity: 0
@19710 $82.125 Channel: 10 Note on, G#5 key=80 velocity: 120
@19740 $82.25 Channel: 10 Note off, G#5 key=80 velocity: 0
@19740 $82.25 Channel: 10 Note on, F#5 key=78 velocity: 120
@19770 $82.375 Channel: 10 Note off, F#5 key=78 velocity: 0
@19770 $82.375 Channel: 10 Note on, E5 key=76 velocity: 120
@19800 $82.5 Channel: 10 Note off, E5 key=76 velocity: 0
@19800 $82.5 Channel: 10 Note on, E5 key=76 velocity: 120
@19830 $82.625 Channel: 10 Note off, E5 key=76 velocity: 0
@19830 $82.625 Channel: 10 Note on, D5 key=74 velocity: 120
@19860 $82.75 Channel: 10 Note off, D5 key=74 velocity: 0
@19860 $82.75 Channel: 10 Note on, C#5 key=73 velocity: 120
@19890 $82.875 Channel: 10 Note off, C#5 key=73 velocity: 0
@19890 $82.875 Channel: 10 Note on, B4 key=71 velocity: 120
@19920 $83.0 Channel: 10 Note off, B4 key=71 velocity: 0
@19920 $83.0 Channel: 10 Note on, A4 key=69 velocity: 120
@19950 $83.125 Channel: 10 Note off, A4 key=69 velocity: 0
@19950 $83.125 Channel: 10 Note on, B4 key=71 velocity: 120
@19980 $83.25 Channel: 10 Note off, B4 key=71 velocity: 0
@19980 $83.25 Channel: 10 Note on, C#5 key=73 velocity: 120
@20010 $83.375 Channel: 10 Note off, C#5 key=73 velocity: 0
@20010 $83.375 Channel: 10 Note on, D5 key=74 velocity: 120
@20040 $83.5 Channel: 10 Note off, D5 key=74 velocity: 0
@20040 $83.5 Channel: 10 Note on, E5 key=76 velocity: 120
@20070 $83.625 Channel: 10 Note off, E5 key=76 velocity: 0
@20070 $83.625 Channel: 10 Note on, F#5 key=78 velocity: 120
@20100 $83.75 Channel: 10 Note off, F#5 key=78 velocity: 0
@20100 $83.75 Channel: 10 Note on, G#5 key=80 velocity: 120
@20130 $83.875 Channel: 10 Note off, G#5 key=80 velocity: 0
@20130 $83.875 Channel: 10 Note on, A5 key=81 velocity: 120
@20160 $84.0 Channel: 10 Note off, A5 key=81 velocity: 0
@20160 $84.0 Channel: 10 Note on, A#5 key=82 velocity: 120
@20220 $84.25 Channel: 10 Note off, A#5 key=82 velocity: 0
@20220 $84.25 Channel: 10 Note on, B5 key=83 velocity: 120
@20265 $84.4375 Channel: 10 Note off, B5 key=83 velocity: 0
@20280 $84.5 Channel: 10 Note on, E5 key=76 velocity: 120
@20310 $84.625 Channel: 10 Note off, E5 key=76 velocity: 0
@20310 $84.625 Channel: 10 Note on, D5 key=74 velocity: 120
@20340 $84.75 Channel: 10 Note off, D5 key=74 velocity: 0
@20340 $84.75 Channel: 10 Note on, C#5 key=73 velocity: 120
@20370 $84.875 Channel: 10 Note off, C#5 key=73 velocity: 0
@20370 $84.875 Channel: 10 Note on, B4 key=71 velocity: 120
@20400 $85.0 Channel: 10 Note off, B4 key=71 velocity: 0
@20400 $85.0 Channel: 10 Note on, A4 key=69 velocity: 120
@20430 $85.125 Channel: 10 Note off, A4 key=69 velocity: 0
@20430 $85.125 Channel: 10 Note on, B4 key=71 velocity: 120
@20460 $85.25 Channel: 10 Note off, B4 key=71 velocity: 0
@20460 $85.25 Channel: 10 Note on, C#5 key=73 velocity: 120
@20490 $85.375 Channel: 10 Note off, C#5 key=73 velocity: 0
@20490 $85.375 Channel: 10 Note on, D5 key=74 velocity: 120
@20520 $85.5 Channel: 10 Note off, D5 key=74 velocity: 0
@20520 $85.5 Channel: 10 Note on, E5 key=76 velocity: 120
@20550 $85.625 Channel: 10 Note off, E5 key=76 velocity: 0
@20550 $85.625 Channel: 10 Note on, F#5 key=78 velocity: 120
@20580 $85.75 Channel: 10 Note off, F#5 key=78 velocity: 0
@20580 $85.75 Channel: 10 Note on, G#5 key=80 velocity: 120
@20610 $85.875 Channel: 10 Note off, G#5 key=80 velocity: 0
@20610 $85.875 Channel: 10 Note on, A5 key=81 velocity: 120
@20640 $86.0 Channel: 10 Note off, A5 key=81 velocity: 0
@20640 $86.0 Channel: 10 Note on, A5 key=81 velocity: 120
@20670 $86.125 Channel: 10 Note off, A5 key=81 velocity: 0
@20670 $86.125 Channel: 10 Note on, G#5 key=80 velocity: 120
@20700 $86.25 Channel: 10 Note off, G#5 key=80 velocity: 0
@20700 $86.25 Channel: 10 Note on, F#5 key=78 velocity: 120
@20730 $86.375 Channel: 10 Note off, F#5 key=78 velocity: 0
@20730 $86.375 Channel: 10 Note on, E5 key=76 velocity: 120
@20760 $86.5 Channel: 10 Note off, E5 key=76 velocity: 0
@20760 $86.5 Channel: 10 Note on, E5 key=76 velocity: 120
@20790 $86.625 Channel: 10 Note off, E5 key=76 velocity: 0
@20790 $86.625 Channel: 10 Note on, D5 key=74 velocity: 120
@20820 $86.75 Channel: 10 Note off, D5 key=74 velocity: 0
@20820 $86.75 Channel: 10 Note on, C#5 key=73 velocity: 120
@20850 $86.875 Channel: 10 Note off, C#5 key=73 velocity: 0
@20850 $86.875 Channel: 10 Note on, B4 key=71 velocity: 120
@20880 $87.0 Channel: 10 Note off, B4 key=71 velocity: 0
@20880 $87.0 Channel: 10 Note on, C#5 key=73 velocity: 120
@20910 $87.125 Channel: 10 Note off, C#5 key=73 velocity: 0
@20910 $87.125 Channel: 10 Note on, E5 key=76 velocity: 120
@20940 $87.25 Channel: 10 Note off, E5 key=76 velocity: 0
@20940 $87.25 Channel: 10 Note on, A4 key=69 velocity: 120
@20970 $87.375 Channel: 10 Note off, A4 key=69 velocity: 0
@20970 $87.375 Channel: 10 Note on, C#5 key=73 velocity: 120
@21000 $87.5 Channel: 10 Note off, C#5 key=73 velocity: 0
@21000 $87.5 Channel: 10 Note on, B4 key=71 velocity: 120
@21030 $87.625 Channel: 10 Note off, B4 key=71 velocity: 0
@21030 $87.625 Channel: 10 Note on, D5 key=74 velocity: 120
@21060 $87.75 Channel: 10 Note off, D5 key=74 velocity: 0
@21060 $87.75 Channel: 10 Note on, G#4 key=68 velocity: 120
@21090 $87.875 Channel: 10 Note off, G#4 key=68 velocity: 0
@21090 $87.875 Channel: 10 Note on, B4 key=71 velocity: 120
@21120 $88.0 Channel: 10 Note off, B4 key=71 velocity: 0
@21120 $88.0 Channel: 10 Note on, A4 key=69 velocity: 120
@21180 $88.25 Channel: 10 Note off, A4 key=69 velocity: 0
@23165 $96.52083333333333 Channel: 10 Note on, E5 key=76 velocity: 120
@23195 $96.64583333333333 Channel: 10 Note off, E5 key=76 velocity: 0
@23195 $96.64583333333333 Channel: 10 Note on, D5 key=74 velocity: 120
@23225 $96.77083333333333 Channel: 10 Note off, D5 key=74 velocity: 0
@23225 $96.77083333333333 Channel: 10 Note on, C#5 key=73 velocity: 120
@23255 $96.89583333333333 Channel: 10 Note off, C#5 key=73 velocity: 0
@23255 $96.89583333333333 Channel: 10 Note on, B4 key=71 velocity: 120
@23285 $97.02083333333333 Channel: 10 Note off, B4 key=71 velocity: 0
@23285 $97.02083333333333 Channel: 10 Note on, A4 key=69 velocity: 120
@23315 $97.14583333333333 Channel: 10 Note off, A4 key=69 velocity: 0
@23315 $97.14583333333333 Channel: 10 Note on, B4 key=71 velocity: 120
@23345 $97.27083333333333 Channel: 10 Note off, B4 key=71 velocity: 0
@23345 $97.27083333333333 Channel: 10 Note on, C#5 key=73 velocity: 120
@23375 $97.39583333333333 Channel: 10 Note off, C#5 key=73 velocity: 0
@23375 $97.39583333333333 Channel: 10 Note on, D5 key=74 velocity: 120
@23405 $97.52083333333333 Channel: 10 Note off, D5 key=74 velocity: 0
@23405 $97.52083333333333 Channel: 10 Note on, E5 key=76 velocity: 120
@23435 $97.64583333333333 Channel: 10 Note off, E5 key=76 velocity: 0
@23435 $97.64583333333333 Channel: 10 Note on, F#5 key=78 velocity: 120
@23465 $97.77083333333333 Channel: 10 Note off, F#5 key=78 velocity: 0
@23465 $97.77083333333333 Channel: 10 Note on, G#5 key=80 velocity: 120
@23495 $97.89583333333333 Channel: 10 Note off, G#5 key=80 velocity: 0
@23495 $97.89583333333333 Channel: 10 Note on, A5 key=81 velocity: 120
@23525 $98.02083333333333 Channel: 10 Note off, A5 key=81 velocity: 0
@23525 $98.02083333333333 Channel: 10 Note on, A5 key=81 velocity: 120
@23555 $98.14583333333333 Channel: 10 Note off, A5 key=81 velocity: 0
@23555 $98.14583333333333 Channel: 10 Note on, G#5 key=80 velocity: 120
@23585 $98.27083333333333 Channel: 10 Note off, G#5 key=80 velocity: 0
@23585 $98.27083333333333 Channel: 10 Note on, F#5 key=78 velocity: 120
@23615 $98.39583333333333 Channel: 10 Note off, F#5 key=78 velocity: 0
@23615 $98.39583333333333 Channel: 10 Note on, E5 key=76 velocity: 120
@23645 $98.52083333333333 Channel: 10 Note off, E5 key=76 velocity: 0
@23645 $98.52083333333333 Channel: 10 Note on, E5 key=76 velocity: 120
@23675 $98.64583333333333 Channel: 10 Note off, E5 key=76 velocity: 0
@23675 $98.64583333333333 Channel: 10 Note on, D5 key=74 velocity: 120
@23705 $98.77083333333333 Channel: 10 Note off, D5 key=74 velocity: 0
@23705 $98.77083333333333 Channel: 10 Note on, C#5 key=73 velocity: 120
@23735 $98.89583333333333 Channel: 10 Note off, C#5 key=73 velocity: 0
@23735 $98.89583333333333 Channel: 10 Note on, B4 key=71 velocity: 120
@23765 $99.02083333333333 Channel: 10 Note off, B4 key=71 velocity: 0
@23765 $99.02083333333333 Channel: 10 Note on, A4 key=69 velocity: 120
@23795 $99.14583333333333 Channel: 10 Note off, A4 key=69 velocity: 0
@23795 $99.14583333333333 Channel: 10 Note on, B4 key=71 velocity: 120
@23825 $99.27083333333333 Channel: 10 Note off, B4 key=71 velocity: 0
@23825 $99.27083333333333 Channel: 10 Note on, C#5 key=73 velocity: 120
@23855 $99.39583333333333 Channel: 10 Note off, C#5 key=73 velocity: 0
@23855 $99.39583333333333 Channel: 10 Note on, D5 key=74 velocity: 120
@23885 $99.52083333333333 Channel: 10 Note off, D5 key=74 velocity: 0
@23885 $99.52083333333333 Channel: 10 Note on, E5 key=76 velocity: 120
@23915 $99.64583333333333 Channel: 10 Note off, E5 key=76 velocity: 0
@23915 $99.64583333333333 Channel: 10 Note on, F#5 key=78 velocity: 120
@23945 $99.77083333333333 Channel: 10 Note off, F#5 key=78 velocity: 0
@23945 $99.77083333333333 Channel: 10 Note on, G#5 key=80 velocity: 120
@23975 $99.89583333333333 Channel: 10 Note off, G#5 key=80 velocity: 0
@23975 $99.89583333333333 Channel: 10 Note on, A5 key=81 velocity: 120
@24005 $100.02083333333333 Channel: 10 Note off, A5 key=81 velocity: 0
@24005 $100.02083333333333 Channel: 10 Note on, A#5 key=82 velocity: 120
@24065 $100.27083333333333 Channel: 10 Note off, A#5 key=82 velocity: 0
@24065 $100.27083333333333 Channel: 10 Note on, B5 key=83 velocity: 120
@24110 $100.45833333333333 Channel: 10 Note off, B5 key=83 velocity: 0
@24125 $100.52083333333333 Channel: 10 Note on, E5 key=76 velocity: 120
@24155 $100.64583333333333 Channel: 10 Note off, E5 key=76 velocity: 0
@24155 $100.64583333333333 Channel: 10 Note on, D5 key=74 velocity: 120
@24185 $100.77083333333333 Channel: 10 Note off, D5 key=74 velocity: 0
@24185 $100.77083333333333 Channel: 10 Note on, C#5 key=73 velocity: 120
@24215 $100.89583333333333 Channel: 10 Note off, C#5 key=73 velocity: 0
@24215 $100.89583333333333 Channel: 10 Note on, B4 key=71 velocity: 120
@24245 $101.02083333333333 Channel: 10 Note off, B4 key=71 velocity: 0
@24245 $101.02083333333333 Channel: 10 Note on, A4 key=69 velocity: 120
@24275 $101.14583333333333 Channel: 10 Note off, A4 key=69 velocity: 0
@24275 $101.14583333333333 Channel: 10 Note on, B4 key=71 velocity: 120
@24305 $101.27083333333333 Channel: 10 Note off, B4 key=71 velocity: 0
@24305 $101.27083333333333 Channel: 10 Note on, C#5 key=73 velocity: 120
@24335 $101.39583333333333 Channel: 10 Note off, C#5 key=73 velocity: 0
@24335 $101.39583333333333 Channel: 10 Note on, D5 key=74 velocity: 120
@24365 $101.52083333333333 Channel: 10 Note off, D5 key=74 velocity: 0
@24365 $101.52083333333333 Channel: 10 Note on, E5 key=76 velocity: 120
@24395 $101.64583333333333 Channel: 10 Note off, E5 key=76 velocity: 0
@24395 $101.64583333333333 Channel: 10 Note on, F#5 key=78 velocity: 120
@24425 $101.77083333333333 Channel: 10 Note off, F#5 key=78 velocity: 0
@24425 $101.77083333333333 Channel: 10 Note on, G#5 key=80 velocity: 120
@24455 $101.89583333333333 Channel: 10 Note off, G#5 key=80 velocity: 0
@24455 $101.89583333333333 Channel: 10 Note on, A5 key=81 velocity: 120
@24485 $102.02083333333333 Channel: 10 Note off, A5 key=81 velocity: 0
@24485 $102.02083333333333 Channel: 10 Note on, A5 key=81 velocity: 120
@24515 $102.14583333333333 Channel: 10 Note off, A5 key=81 velocity: 0
@24515 $102.14583333333333 Channel: 10 Note on, G#5 key=80 velocity: 120
@24545 $102.27083333333333 Channel: 10 Note off, G#5 key=80 velocity: 0
@24545 $102.27083333333333 Channel: 10 Note on, F#5 key=78 velocity: 120
@24575 $102.39583333333333 Channel: 10 Note off, F#5 key=78 velocity: 0
@24575 $102.39583333333333 Channel: 10 Note on, E5 key=76 velocity: 120
@24605 $102.52083333333333 Channel: 10 Note off, E5 key=76 velocity: 0
@24605 $102.52083333333333 Channel: 10 Note on, E5 key=76 velocity: 120
@24635 $102.64583333333333 Channel: 10 Note off, E5 key=76 velocity: 0
@24635 $102.64583333333333 Channel: 10 Note on, D5 key=74 velocity: 120
@24665 $102.77083333333333 Channel: 10 Note off, D5 key=74 velocity: 0
@24665 $102.77083333333333 Channel: 10 Note on, C#5 key=73 velocity: 120
@24695 $102.89583333333333 Channel: 10 Note off, C#5 key=73 velocity: 0
@24695 $102.89583333333333 Channel: 10 Note on, B4 key=71 velocity: 120
@24725 $103.02083333333333 Channel: 10 Note off, B4 key=71 velocity: 0
@24725 $103.02083333333333 Channel: 10 Note on, C#5 key=73 velocity: 120
@24755 $103.14583333333333 Channel: 10 Note off, C#5 key=73 velocity: 0
@24755 $103.14583333333333 Channel: 10 Note on, E5 key=76 velocity: 120
@24785 $103.27083333333333 Channel: 10 Note off, E5 key=76 velocity: 0
@24785 $103.27083333333333 Channel: 10 Note on, A4 key=69 velocity: 120
@24815 $103.39583333333333 Channel: 10 Note off, A4 key=69 velocity: 0
@24815 $103.39583333333333 Channel: 10 Note on, C#5 key=73 velocity: 120
@24845 $103.52083333333333 Channel: 10 Note off, C#5 key=73 velocity: 0
@24845 $103.52083333333333 Channel: 10 Note on, B4 key=71 velocity: 120
@24875 $103.64583333333333 Channel: 10 Note off, B4 key=71 velocity: 0
@24875 $103.64583333333333 Channel: 10 Note on, D5 key=74 velocity: 120
@24905 $103.77083333333333 Channel: 10 Note off, D5 key=74 velocity: 0
@24905 $103.77083333333333 Channel: 10 Note on, G#4 key=68 velocity: 120
@24935 $103.89583333333333 Channel: 10 Note off, G#4 key=68 velocity: 0
@24935 $103.89583333333333 Channel: 10 Note on, B4 key=71 velocity: 120
@24965 $104.02083333333333 Channel: 10 Note off, B4 key=71 velocity: 0
@24965 $104.02083333333333 Channel: 10 Note on, A4 key=69 velocity: 120
@25025 $104.27083333333333 Channel: 10 Note off, A4 key=69 velocity: 0
@27000 $112.5 Channel: 10 Note on, A4 key=69 velocity: 100
@27045 $112.6875 Channel: 10 Note off, A4 key=69 velocity: 0
@27060 $112.75 Channel: 10 Note on, B4 key=71 velocity: 100
@27105 $112.9375 Channel: 10 Note off, B4 key=71 velocity: 0
@27120 $113.0 Channel: 10 Note on, C#5 key=73 velocity: 100
@27240 $113.5 Channel: 10 Note off, C#5 key=73 velocity: 0
@27240 $113.5 Channel: 10 Note on, A4 key=69 velocity: 100
@27285 $113.6875 Channel: 10 Note off, A4 key=69 velocity: 0
@27300 $113.75 Channel: 10 Note on, B4 key=71 velocity: 100
@27345 $113.9375 Channel: 10 Note off, B4 key=71 velocity: 0
@27360 $114.0 Channel: 10 Note on, C#5 key=73 velocity: 100
@27405 $114.1875 Channel: 10 Note off, C#5 key=73 velocity: 0
@27420 $114.25 Channel: 10 Note on, B4 key=71 velocity: 100
@27465 $114.4375 Channel: 10 Note off, B4 key=71 velocity: 0
@27480 $114.5 Channel: 10 Note on, A4 key=69 velocity: 100
@27525 $114.6875 Channel: 10 Note off, A4 key=69 velocity: 0
@27540 $114.75 Channel: 10 Note on, G#4 key=68 velocity: 100
@27585 $114.9375 Channel: 10 Note off, G#4 key=68 velocity: 0
@27600 $115.0 Channel: 10 Note on, F#4 key=66 velocity: 100
@27645 $115.1875 Channel: 10 Note off, F#4 key=66 velocity: 0
@27660 $115.25 Channel: 10 Note on, G#4 key=68 velocity: 100
@27705 $115.4375 Channel: 10 Note off, G#4 key=68 velocity: 0
@27720 $115.5 Channel: 10 Note on, A4 key=69 velocity: 100
@27765 $115.6875 Channel: 10 Note off, A4 key=69 velocity: 0
@27780 $115.75 Channel: 10 Note on, B4 key=71 velocity: 100
@27825 $115.9375 Channel: 10 Note off, B4 key=71 velocity: 0
@27840 $116.0 Channel: 10 Note on, G#4 key=68 velocity: 100
@27885 $116.1875 Channel: 10 Note off, G#4 key=68 velocity: 0
@27900 $116.25 Channel: 10 Note on, E4 key=64 velocity: 100
@27945 $116.4375 Channel: 10 Note off, E4 key=64 velocity: 0
@27960 $116.5 Channel: 10 Note on, A4 key=69 velocity: 100
@28005 $116.6875 Channel: 10 Note off, A4 key=69 velocity: 0
@28020 $116.75 Channel: 10 Note on, B4 key=71 velocity: 100
@28065 $116.9375 Channel: 10 Note off, B4 key=71 velocity: 0
@28080 $117.0 Channel: 10 Note on, C#5 key=73 velocity: 100
@28200 $117.5 Channel: 10 Note off, C#5 key=73 velocity: 0
@28200 $117.5 Channel: 10 Note on, A4 key=69 velocity: 100
@28245 $117.6875 Channel: 10 Note off, A4 key=69 velocity: 0
@28260 $117.75 Channel: 10 Note on, B4 key=71 velocity: 100
@28305 $117.9375 Channel: 10 Note off, B4 key=71 velocity: 0
@28320 $118.0 Channel: 10 Note on, C#5 key=73 velocity: 100
@28365 $118.1875 Channel: 10 Note off, C#5 key=73 velocity: 0
@28380 $118.25 Channel: 10 Note on, B4 key=71 velocity: 100
@28425 $118.4375 Channel: 10 Note off, B4 key=71 velocity: 0
@28440 $118.5 Channel: 10 Note on, A4 key=69 velocity: 100
@28485 $118.6875 Channel: 10 Note off, A4 key=69 velocity: 0
@28500 $118.75 Channel: 10 Note on, G#4 key=68 velocity: 100
@28545 $118.9375 Channel: 10 Note off, G#4 key=68 velocity: 0
@28560 $119.0 Channel: 10 Note on, F#4 key=66 velocity: 100
@28605 $119.1875 Channel: 10 Note off, F#4 key=66 velocity: 0
@28620 $119.25 Channel: 10 Note on, B4 key=71 velocity: 100
@28665 $119.4375 Channel: 10 Note off, B4 key=71 velocity: 0
@28680 $119.5 Channel: 10 Note on, G#4 key=68 velocity: 100
@28725 $119.6875 Channel: 10 Note off, G#4 key=68 velocity: 0
@28740 $119.75 Channel: 10 Note on, E4 key=64 velocity: 100
@28785 $119.9375 Channel: 10 Note off, E4 key=64 velocity: 0
@28800 $120.0 Channel: 10 Note on, A4 key=69 velocity: 100
@28920 $120.5 Channel: 10 Note off, A4 key=69 velocity: 0
@28920 $120.5 Channel: 10 Note on, A4 key=69 velocity: 100
@28965 $120.6875 Channel: 10 Note off, A4 key=69 velocity: 0
@28980 $120.75 Channel: 10 Note on, B4 key=71 velocity: 100
@29025 $120.9375 Channel: 10 Note off, B4 key=71 velocity: 0
@29040 $121.0 Channel: 10 Note on, C#5 key=73 velocity: 100
@29160 $121.5 Channel: 10 Note off, C#5 key=73 velocity: 0
@29160 $121.5 Channel: 10 Note on, A4 key=69 velocity: 100
@29205 $121.6875 Channel: 10 Note off, A4 key=69 velocity: 0
@29220 $121.75 Channel: 10 Note on, B4 key=71 velocity: 100
@29265 $121.9375 Channel: 10 Note off, B4 key=71 velocity: 0
@29280 $122.0 Channel: 10 Note on, C#5 key=73 velocity: 100
@29325 $122.1875 Channel: 10 Note off, C#5 key=73 velocity: 0
@29340 $122.25 Channel: 10 Note on, B4 key=71 velocity: 100
@29385 $122.4375 Channel: 10 Note off, B4 key=71 velocity: 0
@29400 $122.5 Channel: 10 Note on, A4 key=69 velocity: 100
@29445 $122.6875 Channel: 10 Note off, A4 key=69 velocity: 0
@29460 $122.75 Channel: 10 Note on, G#4 key=68 velocity: 100
@29505 $122.9375 Channel: 10 Note off, G#4 key=68 velocity: 0
@29520 $123.0 Channel: 10 Note on, F#4 key=66 velocity: 100
@29565 $123.1875 Channel: 10 Note off, F#4 key=66 velocity: 0
@29580 $123.25 Channel: 10 Note on, G#4 key=68 velocity: 100
@29625 $123.4375 Channel: 10 Note off, G#4 key=68 velocity: 0
@29640 $123.5 Channel: 10 Note on, A4 key=69 velocity: 100
@29685 $123.6875 Channel: 10 Note off, A4 key=69 velocity: 0
@29700 $123.75 Channel: 10 Note on, B4 key=71 velocity: 100
@29745 $123.9375 Channel: 10 Note off, B4 key=71 velocity: 0
@29760 $124.0 Channel: 10 Note on, G#4 key=68 velocity: 100
@29805 $124.1875 Channel: 10 Note off, G#4 key=68 velocity: 0
@29820 $124.25 Channel: 10 Note on, E4 key=64 velocity: 100
@29865 $124.4375 Channel: 10 Note off, E4 key=64 velocity: 0
@29880 $124.5 Channel: 10 Note on, A4 key=69 velocity: 100
@29925 $124.6875 Channel: 10 Note off, A4 key=69 velocity: 0
@29940 $124.75 Channel: 10 Note on, B4 key=71 velocity: 100
@29985 $124.9375 Channel: 10 Note off, B4 key=71 velocity: 0
@30000 $125.0 Channel: 10 Note on, C#5 key=73 velocity: 100
@30120 $125.5 Channel: 10 Note off, C#5 key=73 velocity: 0
@30120 $125.5 Channel: 10 Note on, A4 key=69 velocity: 100
@30165 $125.6875 Channel: 10 Note off, A4 key=69 velocity: 0
@30180 $125.75 Channel: 10 Note on, B4 key=71 velocity: 100
@30225 $125.9375 Channel: 10 Note off, B4 key=71 velocity: 0
@30240 $126.0 Channel: 10 Note on, C#5 key=73 velocity: 100
@30285 $126.1875 Channel: 10 Note off, C#5 key=73 velocity: 0
@30300 $126.25 Channel: 10 Note on, B4 key=71 velocity: 100
@30345 $126.4375 Channel: 10 Note off, B4 key=71 velocity: 0
@30360 $126.5 Channel: 10 Note on, A4 key=69 velocity: 100
@30405 $126.6875 Channel: 10 Note off, A4 key=69 velocity: 0
@30420 $126.75 Channel: 10 Note on, G#4 key=68 velocity: 100
@30465 $126.9375 Channel: 10 Note off, G#4 key=68 velocity: 0
@30480 $127.0 Channel: 10 Note on, F#4 key=66 velocity: 100
@30525 $127.1875 Channel: 10 Note off, F#4 key=66 velocity: 0
@30540 $127.25 Channel: 10 Note on, B4 key=71 velocity: 100
@30585 $127.4375 Channel: 10 Note off, B4 key=71 velocity: 0
@30600 $127.5 Channel: 10 Note on, G#4 key=68 velocity: 100
@30645 $127.6875 Channel: 10 Note off, G#4 key=68 velocity: 0
@30660 $127.75 Channel: 10 Note on, E4 key=64 velocity: 100
@30705 $127.9375 Channel: 10 Note off, E4 key=64 velocity: 0
@30720 $128.0 Channel: 10 Note on, A4 key=69 velocity: 100
@30840 $128.5 Channel: 10 Note off, A4 key=69 velocity: 0
@30840 $128.5 Other meta message: class javax.sound.midi.Track$ImmutableEndOfTrack

Track 12: size = 474
@0 $0.0 Other meta message: class javax.sound.midi.MetaMessage
@0 $0.0 Other meta message: class javax.sound.midi.MetaMessage
@0 $0.0 Channel: 11 Other short message:192
@0 $0.0 Channel: 11 Control Change message
@0 $0.0 Channel: 11 Control Change message
@11640 $48.5 Channel: 11 Note on, A4 key=69 velocity: 100
@11685 $48.6875 Channel: 11 Note off, A4 key=69 velocity: 0
@11700 $48.75 Channel: 11 Note on, B4 key=71 velocity: 100
@11745 $48.9375 Channel: 11 Note off, B4 key=71 velocity: 0
@11760 $49.0 Channel: 11 Note on, C#5 key=73 velocity: 100
@11880 $49.5 Channel: 11 Note off, C#5 key=73 velocity: 0
@11880 $49.5 Channel: 11 Note on, A4 key=69 velocity: 100
@11925 $49.6875 Channel: 11 Note off, A4 key=69 velocity: 0
@11940 $49.75 Channel: 11 Note on, B4 key=71 velocity: 100
@11985 $49.9375 Channel: 11 Note off, B4 key=71 velocity: 0
@12000 $50.0 Channel: 11 Note on, C#5 key=73 velocity: 100
@12045 $50.1875 Channel: 11 Note off, C#5 key=73 velocity: 0
@12060 $50.25 Channel: 11 Note on, B4 key=71 velocity: 100
@12105 $50.4375 Channel: 11 Note off, B4 key=71 velocity: 0
@12120 $50.5 Channel: 11 Note on, A4 key=69 velocity: 100
@12165 $50.6875 Channel: 11 Note off, A4 key=69 velocity: 0
@12180 $50.75 Channel: 11 Note on, G#4 key=68 velocity: 100
@12225 $50.9375 Channel: 11 Note off, G#4 key=68 velocity: 0
@12240 $51.0 Channel: 11 Note on, F#4 key=66 velocity: 100
@12285 $51.1875 Channel: 11 Note off, F#4 key=66 velocity: 0
@12300 $51.25 Channel: 11 Note on, G#4 key=68 velocity: 100
@12345 $51.4375 Channel: 11 Note off, G#4 key=68 velocity: 0
@12360 $51.5 Channel: 11 Note on, A4 key=69 velocity: 100
@12405 $51.6875 Channel: 11 Note off, A4 key=69 velocity: 0
@12420 $51.75 Channel: 11 Note on, B4 key=71 velocity: 100
@12465 $51.9375 Channel: 11 Note off, B4 key=71 velocity: 0
@12480 $52.0 Channel: 11 Note on, G#4 key=68 velocity: 100
@12525 $52.1875 Channel: 11 Note off, G#4 key=68 velocity: 0
@12540 $52.25 Channel: 11 Note on, E4 key=64 velocity: 100
@12585 $52.4375 Channel: 11 Note off, E4 key=64 velocity: 0
@12600 $52.5 Channel: 11 Note on, A4 key=69 velocity: 100
@12645 $52.6875 Channel: 11 Note off, A4 key=69 velocity: 0
@12660 $52.75 Channel: 11 Note on, B4 key=71 velocity: 100
@12705 $52.9375 Channel: 11 Note off, B4 key=71 velocity: 0
@12720 $53.0 Channel: 11 Note on, C#5 key=73 velocity: 100
@12840 $53.5 Channel: 11 Note off, C#5 key=73 velocity: 0
@12840 $53.5 Channel: 11 Note on, A4 key=69 velocity: 100
@12885 $53.6875 Channel: 11 Note off, A4 key=69 velocity: 0
@12900 $53.75 Channel: 11 Note on, B4 key=71 velocity: 100
@12945 $53.9375 Channel: 11 Note off, B4 key=71 velocity: 0
@12960 $54.0 Channel: 11 Note on, C#5 key=73 velocity: 100
@13005 $54.1875 Channel: 11 Note off, C#5 key=73 velocity: 0
@13020 $54.25 Channel: 11 Note on, B4 key=71 velocity: 100
@13065 $54.4375 Channel: 11 Note off, B4 key=71 velocity: 0
@13080 $54.5 Channel: 11 Note on, A4 key=69 velocity: 100
@13125 $54.6875 Channel: 11 Note off, A4 key=69 velocity: 0
@13140 $54.75 Channel: 11 Note on, G#4 key=68 velocity: 100
@13185 $54.9375 Channel: 11 Note off, G#4 key=68 velocity: 0
@13200 $55.0 Channel: 11 Note on, F#4 key=66 velocity: 100
@13245 $55.1875 Channel: 11 Note off, F#4 key=66 velocity: 0
@13260 $55.25 Channel: 11 Note on, B4 key=71 velocity: 100
@13305 $55.4375 Channel: 11 Note off, B4 key=71 velocity: 0
@13320 $55.5 Channel: 11 Note on, G#4 key=68 velocity: 100
@13365 $55.6875 Channel: 11 Note off, G#4 key=68 velocity: 0
@13380 $55.75 Channel: 11 Note on, E4 key=64 velocity: 100
@13425 $55.9375 Channel: 11 Note off, E4 key=64 velocity: 0
@13440 $56.0 Channel: 11 Note on, A4 key=69 velocity: 100
@13560 $56.5 Channel: 11 Note off, A4 key=69 velocity: 0
@13560 $56.5 Channel: 11 Note on, A4 key=69 velocity: 100
@13605 $56.6875 Channel: 11 Note off, A4 key=69 velocity: 0
@13620 $56.75 Channel: 11 Note on, B4 key=71 velocity: 100
@13665 $56.9375 Channel: 11 Note off, B4 key=71 velocity: 0
@13680 $57.0 Channel: 11 Note on, C#5 key=73 velocity: 100
@13800 $57.5 Channel: 11 Note off, C#5 key=73 velocity: 0
@13800 $57.5 Channel: 11 Note on, A4 key=69 velocity: 100
@13845 $57.6875 Channel: 11 Note off, A4 key=69 velocity: 0
@13860 $57.75 Channel: 11 Note on, B4 key=71 velocity: 100
@13905 $57.9375 Channel: 11 Note off, B4 key=71 velocity: 0
@13920 $58.0 Channel: 11 Note on, C#5 key=73 velocity: 100
@13965 $58.1875 Channel: 11 Note off, C#5 key=73 velocity: 0
@13980 $58.25 Channel: 11 Note on, B4 key=71 velocity: 100
@14025 $58.4375 Channel: 11 Note off, B4 key=71 velocity: 0
@14040 $58.5 Channel: 11 Note on, A4 key=69 velocity: 100
@14085 $58.6875 Channel: 11 Note off, A4 key=69 velocity: 0
@14100 $58.75 Channel: 11 Note on, G#4 key=68 velocity: 100
@14145 $58.9375 Channel: 11 Note off, G#4 key=68 velocity: 0
@14160 $59.0 Channel: 11 Note on, F#4 key=66 velocity: 100
@14205 $59.1875 Channel: 11 Note off, F#4 key=66 velocity: 0
@14220 $59.25 Channel: 11 Note on, G#4 key=68 velocity: 100
@14265 $59.4375 Channel: 11 Note off, G#4 key=68 velocity: 0
@14280 $59.5 Channel: 11 Note on, A4 key=69 velocity: 100
@14325 $59.6875 Channel: 11 Note off, A4 key=69 velocity: 0
@14340 $59.75 Channel: 11 Note on, B4 key=71 velocity: 100
@14385 $59.9375 Channel: 11 Note off, B4 key=71 velocity: 0
@14400 $60.0 Channel: 11 Note on, G#4 key=68 velocity: 100
@14445 $60.1875 Channel: 11 Note off, G#4 key=68 velocity: 0
@14460 $60.25 Channel: 11 Note on, E4 key=64 velocity: 100
@14505 $60.4375 Channel: 11 Note off, E4 key=64 velocity: 0
@14520 $60.5 Channel: 11 Note on, A4 key=69 velocity: 100
@14565 $60.6875 Channel: 11 Note off, A4 key=69 velocity: 0
@14580 $60.75 Channel: 11 Note on, B4 key=71 velocity: 100
@14625 $60.9375 Channel: 11 Note off, B4 key=71 velocity: 0
@14640 $61.0 Channel: 11 Note on, C#5 key=73 velocity: 100
@14760 $61.5 Channel: 11 Note off, C#5 key=73 velocity: 0
@14760 $61.5 Channel: 11 Note on, A4 key=69 velocity: 100
@14805 $61.6875 Channel: 11 Note off, A4 key=69 velocity: 0
@14820 $61.75 Channel: 11 Note on, B4 key=71 velocity: 100
@14865 $61.9375 Channel: 11 Note off, B4 key=71 velocity: 0
@14880 $62.0 Channel: 11 Note on, C#5 key=73 velocity: 100
@14925 $62.1875 Channel: 11 Note off, C#5 key=73 velocity: 0
@14940 $62.25 Channel: 11 Note on, B4 key=71 velocity: 100
@14985 $62.4375 Channel: 11 Note off, B4 key=71 velocity: 0
@15000 $62.5 Channel: 11 Note on, A4 key=69 velocity: 100
@15045 $62.6875 Channel: 11 Note off, A4 key=69 velocity: 0
@15060 $62.75 Channel: 11 Note on, G#4 key=68 velocity: 100
@15105 $62.9375 Channel: 11 Note off, G#4 key=68 velocity: 0
@15120 $63.0 Channel: 11 Note on, F#4 key=66 velocity: 100
@15165 $63.1875 Channel: 11 Note off, F#4 key=66 velocity: 0
@15180 $63.25 Channel: 11 Note on, B4 key=71 velocity: 100
@15225 $63.4375 Channel: 11 Note off, B4 key=71 velocity: 0
@15240 $63.5 Channel: 11 Note on, G#4 key=68 velocity: 100
@15285 $63.6875 Channel: 11 Note off, G#4 key=68 velocity: 0
@15300 $63.75 Channel: 11 Note on, E4 key=64 velocity: 100
@15345 $63.9375 Channel: 11 Note off, E4 key=64 velocity: 0
@15360 $64.0 Channel: 11 Note on, A4 key=69 velocity: 100
@15480 $64.5 Channel: 11 Note off, A4 key=69 velocity: 0
@19320 $80.5 Channel: 11 Note on, E5 key=76 velocity: 120
@19350 $80.625 Channel: 11 Note off, E5 key=76 velocity: 0
@19350 $80.625 Channel: 11 Note on, D5 key=74 velocity: 120
@19380 $80.75 Channel: 11 Note off, D5 key=74 velocity: 0
@19380 $80.75 Channel: 11 Note on, C#5 key=73 velocity: 120
@19410 $80.875 Channel: 11 Note off, C#5 key=73 velocity: 0
@19410 $80.875 Channel: 11 Note on, B4 key=71 velocity: 120
@19440 $81.0 Channel: 11 Note off, B4 key=71 velocity: 0
@19440 $81.0 Channel: 11 Note on, A4 key=69 velocity: 120
@19470 $81.125 Channel: 11 Note off, A4 key=69 velocity: 0
@19470 $81.125 Channel: 11 Note on, B4 key=71 velocity: 120
@19500 $81.25 Channel: 11 Note off, B4 key=71 velocity: 0
@19500 $81.25 Channel: 11 Note on, C#5 key=73 velocity: 120
@19530 $81.375 Channel: 11 Note off, C#5 key=73 velocity: 0
@19530 $81.375 Channel: 11 Note on, D5 key=74 velocity: 120
@19560 $81.5 Channel: 11 Note off, D5 key=74 velocity: 0
@19560 $81.5 Channel: 11 Note on, E5 key=76 velocity: 120
@19590 $81.625 Channel: 11 Note off, E5 key=76 velocity: 0
@19590 $81.625 Channel: 11 Note on, F#5 key=78 velocity: 120
@19620 $81.75 Channel: 11 Note off, F#5 key=78 velocity: 0
@19620 $81.75 Channel: 11 Note on, G#5 key=80 velocity: 120
@19650 $81.875 Channel: 11 Note off, G#5 key=80 velocity: 0
@19650 $81.875 Channel: 11 Note on, A5 key=81 velocity: 120
@19680 $82.0 Channel: 11 Note off, A5 key=81 velocity: 0
@19680 $82.0 Channel: 11 Note on, A5 key=81 velocity: 120
@19710 $82.125 Channel: 11 Note off, A5 key=81 velocity: 0
@19710 $82.125 Channel: 11 Note on, G#5 key=80 velocity: 120
@19740 $82.25 Channel: 11 Note off, G#5 key=80 velocity: 0
@19740 $82.25 Channel: 11 Note on, F#5 key=78 velocity: 120
@19770 $82.375 Channel: 11 Note off, F#5 key=78 velocity: 0
@19770 $82.375 Channel: 11 Note on, E5 key=76 velocity: 120
@19800 $82.5 Channel: 11 Note off, E5 key=76 velocity: 0
@19800 $82.5 Channel: 11 Note on, E5 key=76 velocity: 120
@19830 $82.625 Channel: 11 Note off, E5 key=76 velocity: 0
@19830 $82.625 Channel: 11 Note on, D5 key=74 velocity: 120
@19860 $82.75 Channel: 11 Note off, D5 key=74 velocity: 0
@19860 $82.75 Channel: 11 Note on, C#5 key=73 velocity: 120
@19890 $82.875 Channel: 11 Note off, C#5 key=73 velocity: 0
@19890 $82.875 Channel: 11 Note on, B4 key=71 velocity: 120
@19920 $83.0 Channel: 11 Note off, B4 key=71 velocity: 0
@19920 $83.0 Channel: 11 Note on, A4 key=69 velocity: 120
@19950 $83.125 Channel: 11 Note off, A4 key=69 velocity: 0
@19950 $83.125 Channel: 11 Note on, B4 key=71 velocity: 120
@19980 $83.25 Channel: 11 Note off, B4 key=71 velocity: 0
@19980 $83.25 Channel: 11 Note on, C#5 key=73 velocity: 120
@20010 $83.375 Channel: 11 Note off, C#5 key=73 velocity: 0
@20010 $83.375 Channel: 11 Note on, D5 key=74 velocity: 120
@20040 $83.5 Channel: 11 Note off, D5 key=74 velocity: 0
@20040 $83.5 Channel: 11 Note on, E5 key=76 velocity: 120
@20070 $83.625 Channel: 11 Note off, E5 key=76 velocity: 0
@20070 $83.625 Channel: 11 Note on, F#5 key=78 velocity: 120
@20100 $83.75 Channel: 11 Note off, F#5 key=78 velocity: 0
@20100 $83.75 Channel: 11 Note on, G#5 key=80 velocity: 120
@20130 $83.875 Channel: 11 Note off, G#5 key=80 velocity: 0
@20130 $83.875 Channel: 11 Note on, A5 key=81 velocity: 120
@20160 $84.0 Channel: 11 Note off, A5 key=81 velocity: 0
@20160 $84.0 Channel: 11 Note on, A#5 key=82 velocity: 120
@20220 $84.25 Channel: 11 Note off, A#5 key=82 velocity: 0
@20220 $84.25 Channel: 11 Note on, B5 key=83 velocity: 120
@20265 $84.4375 Channel: 11 Note off, B5 key=83 velocity: 0
@20280 $84.5 Channel: 11 Note on, E5 key=76 velocity: 120
@20310 $84.625 Channel: 11 Note off, E5 key=76 velocity: 0
@20310 $84.625 Channel: 11 Note on, D5 key=74 velocity: 120
@20340 $84.75 Channel: 11 Note off, D5 key=74 velocity: 0
@20340 $84.75 Channel: 11 Note on, C#5 key=73 velocity: 120
@20370 $84.875 Channel: 11 Note off, C#5 key=73 velocity: 0
@20370 $84.875 Channel: 11 Note on, B4 key=71 velocity: 120
@20400 $85.0 Channel: 11 Note off, B4 key=71 velocity: 0
@20400 $85.0 Channel: 11 Note on, A4 key=69 velocity: 120
@20430 $85.125 Channel: 11 Note off, A4 key=69 velocity: 0
@20430 $85.125 Channel: 11 Note on, B4 key=71 velocity: 120
@20460 $85.25 Channel: 11 Note off, B4 key=71 velocity: 0
@20460 $85.25 Channel: 11 Note on, C#5 key=73 velocity: 120
@20490 $85.375 Channel: 11 Note off, C#5 key=73 velocity: 0
@20490 $85.375 Channel: 11 Note on, D5 key=74 velocity: 120
@20520 $85.5 Channel: 11 Note off, D5 key=74 velocity: 0
@20520 $85.5 Channel: 11 Note on, E5 key=76 velocity: 120
@20550 $85.625 Channel: 11 Note off, E5 key=76 velocity: 0
@20550 $85.625 Channel: 11 Note on, F#5 key=78 velocity: 120
@20580 $85.75 Channel: 11 Note off, F#5 key=78 velocity: 0
@20580 $85.75 Channel: 11 Note on, G#5 key=80 velocity: 120
@20610 $85.875 Channel: 11 Note off, G#5 key=80 velocity: 0
@20610 $85.875 Channel: 11 Note on, A5 key=81 velocity: 120
@20640 $86.0 Channel: 11 Note off, A5 key=81 velocity: 0
@20640 $86.0 Channel: 11 Note on, A5 key=81 velocity: 120
@20670 $86.125 Channel: 11 Note off, A5 key=81 velocity: 0
@20670 $86.125 Channel: 11 Note on, G#5 key=80 velocity: 120
@20700 $86.25 Channel: 11 Note off, G#5 key=80 velocity: 0
@20700 $86.25 Channel: 11 Note on, F#5 key=78 velocity: 120
@20730 $86.375 Channel: 11 Note off, F#5 key=78 velocity: 0
@20730 $86.375 Channel: 11 Note on, E5 key=76 velocity: 120
@20760 $86.5 Channel: 11 Note off, E5 key=76 velocity: 0
@20760 $86.5 Channel: 11 Note on, E5 key=76 velocity: 120
@20790 $86.625 Channel: 11 Note off, E5 key=76 velocity: 0
@20790 $86.625 Channel: 11 Note on, D5 key=74 velocity: 120
@20820 $86.75 Channel: 11 Note off, D5 key=74 velocity: 0
@20820 $86.75 Channel: 11 Note on, C#5 key=73 velocity: 120
@20850 $86.875 Channel: 11 Note off, C#5 key=73 velocity: 0
@20850 $86.875 Channel: 11 Note on, B4 key=71 velocity: 120
@20880 $87.0 Channel: 11 Note off, B4 key=71 velocity: 0
@20880 $87.0 Channel: 11 Note on, C#5 key=73 velocity: 120
@20910 $87.125 Channel: 11 Note off, C#5 key=73 velocity: 0
@20910 $87.125 Channel: 11 Note on, E5 key=76 velocity: 120
@20940 $87.25 Channel: 11 Note off, E5 key=76 velocity: 0
@20940 $87.25 Channel: 11 Note on, A4 key=69 velocity: 120
@20970 $87.375 Channel: 11 Note off, A4 key=69 velocity: 0
@20970 $87.375 Channel: 11 Note on, C#5 key=73 velocity: 120
@21000 $87.5 Channel: 11 Note off, C#5 key=73 velocity: 0
@21000 $87.5 Channel: 11 Note on, B4 key=71 velocity: 120
@21030 $87.625 Channel: 11 Note off, B4 key=71 velocity: 0
@21030 $87.625 Channel: 11 Note on, D5 key=74 velocity: 120
@21060 $87.75 Channel: 11 Note off, D5 key=74 velocity: 0
@21060 $87.75 Channel: 11 Note on, G#4 key=68 velocity: 120
@21090 $87.875 Channel: 11 Note off, G#4 key=68 velocity: 0
@21090 $87.875 Channel: 11 Note on, B4 key=71 velocity: 120
@21120 $88.0 Channel: 11 Note off, B4 key=71 velocity: 0
@21120 $88.0 Channel: 11 Note on, A4 key=69 velocity: 120
@21180 $88.25 Channel: 11 Note off, A4 key=69 velocity: 0
@23165 $96.52083333333333 Channel: 11 Note on, E5 key=76 velocity: 120
@23195 $96.64583333333333 Channel: 11 Note off, E5 key=76 velocity: 0
@23195 $96.64583333333333 Channel: 11 Note on, D5 key=74 velocity: 120
@23225 $96.77083333333333 Channel: 11 Note off, D5 key=74 velocity: 0
@23225 $96.77083333333333 Channel: 11 Note on, C#5 key=73 velocity: 120
@23255 $96.89583333333333 Channel: 11 Note off, C#5 key=73 velocity: 0
@23255 $96.89583333333333 Channel: 11 Note on, B4 key=71 velocity: 120
@23285 $97.02083333333333 Channel: 11 Note off, B4 key=71 velocity: 0
@23285 $97.02083333333333 Channel: 11 Note on, A4 key=69 velocity: 120
@23315 $97.14583333333333 Channel: 11 Note off, A4 key=69 velocity: 0
@23315 $97.14583333333333 Channel: 11 Note on, B4 key=71 velocity: 120
@23345 $97.27083333333333 Channel: 11 Note off, B4 key=71 velocity: 0
@23345 $97.27083333333333 Channel: 11 Note on, C#5 key=73 velocity: 120
@23375 $97.39583333333333 Channel: 11 Note off, C#5 key=73 velocity: 0
@23375 $97.39583333333333 Channel: 11 Note on, D5 key=74 velocity: 120
@23405 $97.52083333333333 Channel: 11 Note off, D5 key=74 velocity: 0
@23405 $97.52083333333333 Channel: 11 Note on, E5 key=76 velocity: 120
@23435 $97.64583333333333 Channel: 11 Note off, E5 key=76 velocity: 0
@23435 $97.64583333333333 Channel: 11 Note on, F#5 key=78 velocity: 120
@23465 $97.77083333333333 Channel: 11 Note off, F#5 key=78 velocity: 0
@23465 $97.77083333333333 Channel: 11 Note on, G#5 key=80 velocity: 120
@23495 $97.89583333333333 Channel: 11 Note off, G#5 key=80 velocity: 0
@23495 $97.89583333333333 Channel: 11 Note on, A5 key=81 velocity: 120
@23525 $98.02083333333333 Channel: 11 Note off, A5 key=81 velocity: 0
@23525 $98.02083333333333 Channel: 11 Note on, A5 key=81 velocity: 120
@23555 $98.14583333333333 Channel: 11 Note off, A5 key=81 velocity: 0
@23555 $98.14583333333333 Channel: 11 Note on, G#5 key=80 velocity: 120
@23585 $98.27083333333333 Channel: 11 Note off, G#5 key=80 velocity: 0
@23585 $98.27083333333333 Channel: 11 Note on, F#5 key=78 velocity: 120
@23615 $98.39583333333333 Channel: 11 Note off, F#5 key=78 velocity: 0
@23615 $98.39583333333333 Channel: 11 Note on, E5 key=76 velocity: 120
@23645 $98.52083333333333 Channel: 11 Note off, E5 key=76 velocity: 0
@23645 $98.52083333333333 Channel: 11 Note on, E5 key=76 velocity: 120
@23675 $98.64583333333333 Channel: 11 Note off, E5 key=76 velocity: 0
@23675 $98.64583333333333 Channel: 11 Note on, D5 key=74 velocity: 120
@23705 $98.77083333333333 Channel: 11 Note off, D5 key=74 velocity: 0
@23705 $98.77083333333333 Channel: 11 Note on, C#5 key=73 velocity: 120
@23735 $98.89583333333333 Channel: 11 Note off, C#5 key=73 velocity: 0
@23735 $98.89583333333333 Channel: 11 Note on, B4 key=71 velocity: 120
@23765 $99.02083333333333 Channel: 11 Note off, B4 key=71 velocity: 0
@23765 $99.02083333333333 Channel: 11 Note on, A4 key=69 velocity: 120
@23795 $99.14583333333333 Channel: 11 Note off, A4 key=69 velocity: 0
@23795 $99.14583333333333 Channel: 11 Note on, B4 key=71 velocity: 120
@23825 $99.27083333333333 Channel: 11 Note off, B4 key=71 velocity: 0
@23825 $99.27083333333333 Channel: 11 Note on, C#5 key=73 velocity: 120
@23855 $99.39583333333333 Channel: 11 Note off, C#5 key=73 velocity: 0
@23855 $99.39583333333333 Channel: 11 Note on, D5 key=74 velocity: 120
@23885 $99.52083333333333 Channel: 11 Note off, D5 key=74 velocity: 0
@23885 $99.52083333333333 Channel: 11 Note on, E5 key=76 velocity: 120
@23915 $99.64583333333333 Channel: 11 Note off, E5 key=76 velocity: 0
@23915 $99.64583333333333 Channel: 11 Note on, F#5 key=78 velocity: 120
@23945 $99.77083333333333 Channel: 11 Note off, F#5 key=78 velocity: 0
@23945 $99.77083333333333 Channel: 11 Note on, G#5 key=80 velocity: 120
@23975 $99.89583333333333 Channel: 11 Note off, G#5 key=80 velocity: 0
@23975 $99.89583333333333 Channel: 11 Note on, A5 key=81 velocity: 120
@24005 $100.02083333333333 Channel: 11 Note off, A5 key=81 velocity: 0
@24005 $100.02083333333333 Channel: 11 Note on, A#5 key=82 velocity: 120
@24065 $100.27083333333333 Channel: 11 Note off, A#5 key=82 velocity: 0
@24065 $100.27083333333333 Channel: 11 Note on, B5 key=83 velocity: 120
@24110 $100.45833333333333 Channel: 11 Note off, B5 key=83 velocity: 0
@24125 $100.52083333333333 Channel: 11 Note on, E5 key=76 velocity: 120
@24155 $100.64583333333333 Channel: 11 Note off, E5 key=76 velocity: 0
@24155 $100.64583333333333 Channel: 11 Note on, D5 key=74 velocity: 120
@24185 $100.77083333333333 Channel: 11 Note off, D5 key=74 velocity: 0
@24185 $100.77083333333333 Channel: 11 Note on, C#5 key=73 velocity: 120
@24215 $100.89583333333333 Channel: 11 Note off, C#5 key=73 velocity: 0
@24215 $100.89583333333333 Channel: 11 Note on, B4 key=71 velocity: 120
@24245 $101.02083333333333 Channel: 11 Note off, B4 key=71 velocity: 0
@24245 $101.02083333333333 Channel: 11 Note on, A4 key=69 velocity: 120
@24275 $101.14583333333333 Channel: 11 Note off, A4 key=69 velocity: 0
@24275 $101.14583333333333 Channel: 11 Note on, B4 key=71 velocity: 120
@24305 $101.27083333333333 Channel: 11 Note off, B4 key=71 velocity: 0
@24305 $101.27083333333333 Channel: 11 Note on, C#5 key=73 velocity: 120
@24335 $101.39583333333333 Channel: 11 Note off, C#5 key=73 velocity: 0
@24335 $101.39583333333333 Channel: 11 Note on, D5 key=74 velocity: 120
@24365 $101.52083333333333 Channel: 11 Note off, D5 key=74 velocity: 0
@24365 $101.52083333333333 Channel: 11 Note on, E5 key=76 velocity: 120
@24395 $101.64583333333333 Channel: 11 Note off, E5 key=76 velocity: 0
@24395 $101.64583333333333 Channel: 11 Note on, F#5 key=78 velocity: 120
@24425 $101.77083333333333 Channel: 11 Note off, F#5 key=78 velocity: 0
@24425 $101.77083333333333 Channel: 11 Note on, G#5 key=80 velocity: 120
@24455 $101.89583333333333 Channel: 11 Note off, G#5 key=80 velocity: 0
@24455 $101.89583333333333 Channel: 11 Note on, A5 key=81 velocity: 120
@24485 $102.02083333333333 Channel: 11 Note off, A5 key=81 velocity: 0
@24485 $102.02083333333333 Channel: 11 Note on, A5 key=81 velocity: 120
@24515 $102.14583333333333 Channel: 11 Note off, A5 key=81 velocity: 0
@24515 $102.14583333333333 Channel: 11 Note on, G#5 key=80 velocity: 120
@24545 $102.27083333333333 Channel: 11 Note off, G#5 key=80 velocity: 0
@24545 $102.27083333333333 Channel: 11 Note on, F#5 key=78 velocity: 120
@24575 $102.39583333333333 Channel: 11 Note off, F#5 key=78 velocity: 0
@24575 $102.39583333333333 Channel: 11 Note on, E5 key=76 velocity: 120
@24605 $102.52083333333333 Channel: 11 Note off, E5 key=76 velocity: 0
@24605 $102.52083333333333 Channel: 11 Note on, E5 key=76 velocity: 120
@24635 $102.64583333333333 Channel: 11 Note off, E5 key=76 velocity: 0
@24635 $102.64583333333333 Channel: 11 Note on, D5 key=74 velocity: 120
@24665 $102.77083333333333 Channel: 11 Note off, D5 key=74 velocity: 0
@24665 $102.77083333333333 Channel: 11 Note on, C#5 key=73 velocity: 120
@24695 $102.89583333333333 Channel: 11 Note off, C#5 key=73 velocity: 0
@24695 $102.89583333333333 Channel: 11 Note on, B4 key=71 velocity: 120
@24725 $103.02083333333333 Channel: 11 Note off, B4 key=71 velocity: 0
@24725 $103.02083333333333 Channel: 11 Note on, C#5 key=73 velocity: 120
@24755 $103.14583333333333 Channel: 11 Note off, C#5 key=73 velocity: 0
@24755 $103.14583333333333 Channel: 11 Note on, E5 key=76 velocity: 120
@24785 $103.27083333333333 Channel: 11 Note off, E5 key=76 velocity: 0
@24785 $103.27083333333333 Channel: 11 Note on, A4 key=69 velocity: 120
@24815 $103.39583333333333 Channel: 11 Note off, A4 key=69 velocity: 0
@24815 $103.39583333333333 Channel: 11 Note on, C#5 key=73 velocity: 120
@24845 $103.52083333333333 Channel: 11 Note off, C#5 key=73 velocity: 0
@24845 $103.52083333333333 Channel: 11 Note on, B4 key=71 velocity: 120
@24875 $103.64583333333333 Channel: 11 Note off, B4 key=71 velocity: 0
@24875 $103.64583333333333 Channel: 11 Note on, D5 key=74 velocity: 120
@24905 $103.77083333333333 Channel: 11 Note off, D5 key=74 velocity: 0
@24905 $103.77083333333333 Channel: 11 Note on, G#4 key=68 velocity: 120
@24935 $103.89583333333333 Channel: 11 Note off, G#4 key=68 velocity: 0
@24935 $103.89583333333333 Channel: 11 Note on, B4 key=71 velocity: 120
@24965 $104.02083333333333 Channel: 11 Note off, B4 key=71 velocity: 0
@24965 $104.02083333333333 Channel: 11 Note on, A4 key=69 velocity: 120
@25025 $104.27083333333333 Channel: 11 Note off, A4 key=69 velocity: 0
@27000 $112.5 Channel: 11 Note on, A4 key=69 velocity: 100
@27045 $112.6875 Channel: 11 Note off, A4 key=69 velocity: 0
@27060 $112.75 Channel: 11 Note on, B4 key=71 velocity: 100
@27105 $112.9375 Channel: 11 Note off, B4 key=71 velocity: 0
@27120 $113.0 Channel: 11 Note on, C#5 key=73 velocity: 100
@27240 $113.5 Channel: 11 Note off, C#5 key=73 velocity: 0
@27240 $113.5 Channel: 11 Note on, A4 key=69 velocity: 100
@27285 $113.6875 Channel: 11 Note off, A4 key=69 velocity: 0
@27300 $113.75 Channel: 11 Note on, B4 key=71 velocity: 100
@27345 $113.9375 Channel: 11 Note off, B4 key=71 velocity: 0
@27360 $114.0 Channel: 11 Note on, C#5 key=73 velocity: 100
@27405 $114.1875 Channel: 11 Note off, C#5 key=73 velocity: 0
@27420 $114.25 Channel: 11 Note on, B4 key=71 velocity: 100
@27465 $114.4375 Channel: 11 Note off, B4 key=71 velocity: 0
@27480 $114.5 Channel: 11 Note on, A4 key=69 velocity: 100
@27525 $114.6875 Channel: 11 Note off, A4 key=69 velocity: 0
@27540 $114.75 Channel: 11 Note on, G#4 key=68 velocity: 100
@27585 $114.9375 Channel: 11 Note off, G#4 key=68 velocity: 0
@27600 $115.0 Channel: 11 Note on, F#4 key=66 velocity: 100
@27645 $115.1875 Channel: 11 Note off, F#4 key=66 velocity: 0
@27660 $115.25 Channel: 11 Note on, G#4 key=68 velocity: 100
@27705 $115.4375 Channel: 11 Note off, G#4 key=68 velocity: 0
@27720 $115.5 Channel: 11 Note on, A4 key=69 velocity: 100
@27765 $115.6875 Channel: 11 Note off, A4 key=69 velocity: 0
@27780 $115.75 Channel: 11 Note on, B4 key=71 velocity: 100
@27825 $115.9375 Channel: 11 Note off, B4 key=71 velocity: 0
@27840 $116.0 Channel: 11 Note on, G#4 key=68 velocity: 100
@27885 $116.1875 Channel: 11 Note off, G#4 key=68 velocity: 0
@27900 $116.25 Channel: 11 Note on, E4 key=64 velocity: 100
@27945 $116.4375 Channel: 11 Note off, E4 key=64 velocity: 0
@27960 $116.5 Channel: 11 Note on, A4 key=69 velocity: 100
@28005 $116.6875 Channel: 11 Note off, A4 key=69 velocity: 0
@28020 $116.75 Channel: 11 Note on, B4 key=71 velocity: 100
@28065 $116.9375 Channel: 11 Note off, B4 key=71 velocity: 0
@28080 $117.0 Channel: 11 Note on, C#5 key=73 velocity: 100
@28200 $117.5 Channel: 11 Note off, C#5 key=73 velocity: 0
@28200 $117.5 Channel: 11 Note on, A4 key=69 velocity: 100
@28245 $117.6875 Channel: 11 Note off, A4 key=69 velocity: 0
@28260 $117.75 Channel: 11 Note on, B4 key=71 velocity: 100
@28305 $117.9375 Channel: 11 Note off, B4 key=71 velocity: 0
@28320 $118.0 Channel: 11 Note on, C#5 key=73 velocity: 100
@28365 $118.1875 Channel: 11 Note off, C#5 key=73 velocity: 0
@28380 $118.25 Channel: 11 Note on, B4 key=71 velocity: 100
@28425 $118.4375 Channel: 11 Note off, B4 key=71 velocity: 0
@28440 $118.5 Channel: 11 Note on, A4 key=69 velocity: 100
@28485 $118.6875 Channel: 11 Note off, A4 key=69 velocity: 0
@28500 $118.75 Channel: 11 Note on, G#4 key=68 velocity: 100
@28545 $118.9375 Channel: 11 Note off, G#4 key=68 velocity: 0
@28560 $119.0 Channel: 11 Note on, F#4 key=66 velocity: 100
@28605 $119.1875 Channel: 11 Note off, F#4 key=66 velocity: 0
@28620 $119.25 Channel: 11 Note on, B4 key=71 velocity: 100
@28665 $119.4375 Channel: 11 Note off, B4 key=71 velocity: 0
@28680 $119.5 Channel: 11 Note on, G#4 key=68 velocity: 100
@28725 $119.6875 Channel: 11 Note off, G#4 key=68 velocity: 0
@28740 $119.75 Channel: 11 Note on, E4 key=64 velocity: 100
@28785 $119.9375 Channel: 11 Note off, E4 key=64 velocity: 0
@28800 $120.0 Channel: 11 Note on, A4 key=69 velocity: 100
@28920 $120.5 Channel: 11 Note off, A4 key=69 velocity: 0
@28920 $120.5 Channel: 11 Note on, A4 key=69 velocity: 100
@28965 $120.6875 Channel: 11 Note off, A4 key=69 velocity: 0
@28980 $120.75 Channel: 11 Note on, B4 key=71 velocity: 100
@29025 $120.9375 Channel: 11 Note off, B4 key=71 velocity: 0
@29040 $121.0 Channel: 11 Note on, C#5 key=73 velocity: 100
@29160 $121.5 Channel: 11 Note off, C#5 key=73 velocity: 0
@29160 $121.5 Channel: 11 Note on, A4 key=69 velocity: 100
@29205 $121.6875 Channel: 11 Note off, A4 key=69 velocity: 0
@29220 $121.75 Channel: 11 Note on, B4 key=71 velocity: 100
@29265 $121.9375 Channel: 11 Note off, B4 key=71 velocity: 0
@29280 $122.0 Channel: 11 Note on, C#5 key=73 velocity: 100
@29325 $122.1875 Channel: 11 Note off, C#5 key=73 velocity: 0
@29340 $122.25 Channel: 11 Note on, B4 key=71 velocity: 100
@29385 $122.4375 Channel: 11 Note off, B4 key=71 velocity: 0
@29400 $122.5 Channel: 11 Note on, A4 key=69 velocity: 100
@29445 $122.6875 Channel: 11 Note off, A4 key=69 velocity: 0
@29460 $122.75 Channel: 11 Note on, G#4 key=68 velocity: 100
@29505 $122.9375 Channel: 11 Note off, G#4 key=68 velocity: 0
@29520 $123.0 Channel: 11 Note on, F#4 key=66 velocity: 100
@29565 $123.1875 Channel: 11 Note off, F#4 key=66 velocity: 0
@29580 $123.25 Channel: 11 Note on, G#4 key=68 velocity: 100
@29625 $123.4375 Channel: 11 Note off, G#4 key=68 velocity: 0
@29640 $123.5 Channel: 11 Note on, A4 key=69 velocity: 100
@29685 $123.6875 Channel: 11 Note off, A4 key=69 velocity: 0
@29700 $123.75 Channel: 11 Note on, B4 key=71 velocity: 100
@29745 $123.9375 Channel: 11 Note off, B4 key=71 velocity: 0
@29760 $124.0 Channel: 11 Note on, G#4 key=68 velocity: 100
@29805 $124.1875 Channel: 11 Note off, G#4 key=68 velocity: 0
@29820 $124.25 Channel: 11 Note on, E4 key=64 velocity: 100
@29865 $124.4375 Channel: 11 Note off, E4 key=64 velocity: 0
@29880 $124.5 Channel: 11 Note on, A4 key=69 velocity: 100
@29925 $124.6875 Channel: 11 Note off, A4 key=69 velocity: 0
@29940 $124.75 Channel: 11 Note on, B4 key=71 velocity: 100
@29985 $124.9375 Channel: 11 Note off, B4 key=71 velocity: 0
@30000 $125.0 Channel: 11 Note on, C#5 key=73 velocity: 100
@30120 $125.5 Channel: 11 Note off, C#5 key=73 velocity: 0
@30120 $125.5 Channel: 11 Note on, A4 key=69 velocity: 100
@30165 $125.6875 Channel: 11 Note off, A4 key=69 velocity: 0
@30180 $125.75 Channel: 11 Note on, B4 key=71 velocity: 100
@30225 $125.9375 Channel: 11 Note off, B4 key=71 velocity: 0
@30240 $126.0 Channel: 11 Note on, C#5 key=73 velocity: 100
@30285 $126.1875 Channel: 11 Note off, C#5 key=73 velocity: 0
@30300 $126.25 Channel: 11 Note on, B4 key=71 velocity: 100
@30345 $126.4375 Channel: 11 Note off, B4 key=71 velocity: 0
@30360 $126.5 Channel: 11 Note on, A4 key=69 velocity: 100
@30405 $126.6875 Channel: 11 Note off, A4 key=69 velocity: 0
@30420 $126.75 Channel: 11 Note on, G#4 key=68 velocity: 100
@30465 $126.9375 Channel: 11 Note off, G#4 key=68 velocity: 0
@30480 $127.0 Channel: 11 Note on, F#4 key=66 velocity: 100
@30525 $127.1875 Channel: 11 Note off, F#4 key=66 velocity: 0
@30540 $127.25 Channel: 11 Note on, B4 key=71 velocity: 100
@30585 $127.4375 Channel: 11 Note off, B4 key=71 velocity: 0
@30600 $127.5 Channel: 11 Note on, G#4 key=68 velocity: 100
@30645 $127.6875 Channel: 11 Note off, G#4 key=68 velocity: 0
@30660 $127.75 Channel: 11 Note on, E4 key=64 velocity: 100
@30705 $127.9375 Channel: 11 Note off, E4 key=64 velocity: 0
@30720 $128.0 Channel: 11 Note on, A4 key=69 velocity: 100
@30840 $128.5 Channel: 11 Note off, A4 key=69 velocity: 0
@30840 $128.5 Other meta message: class javax.sound.midi.Track$ImmutableEndOfTrack

Track 13: size = 250
@0 $0.0 Other meta message: class javax.sound.midi.MetaMessage
@0 $0.0 Other meta message: class javax.sound.midi.MetaMessage
@0 $0.0 Channel: 12 Other short message:192
@0 $0.0 Channel: 12 Control Change message
@0 $0.0 Channel: 12 Control Change message
@11640 $48.5 Channel: 12 Note on, A3 key=57 velocity: 100
@11685 $48.6875 Channel: 12 Note off, A3 key=57 velocity: 0
@11700 $48.75 Channel: 12 Note on, B3 key=59 velocity: 100
@11745 $48.9375 Channel: 12 Note off, B3 key=59 velocity: 0
@11760 $49.0 Channel: 12 Note on, C#4 key=61 velocity: 100
@11880 $49.5 Channel: 12 Note off, C#4 key=61 velocity: 0
@11880 $49.5 Channel: 12 Note on, A3 key=57 velocity: 100
@11925 $49.6875 Channel: 12 Note off, A3 key=57 velocity: 0
@11940 $49.75 Channel: 12 Note on, B3 key=59 velocity: 100
@11985 $49.9375 Channel: 12 Note off, B3 key=59 velocity: 0
@12000 $50.0 Channel: 12 Note on, C#4 key=61 velocity: 100
@12045 $50.1875 Channel: 12 Note off, C#4 key=61 velocity: 0
@12060 $50.25 Channel: 12 Note on, B3 key=59 velocity: 100
@12105 $50.4375 Channel: 12 Note off, B3 key=59 velocity: 0
@12120 $50.5 Channel: 12 Note on, A3 key=57 velocity: 100
@12165 $50.6875 Channel: 12 Note off, A3 key=57 velocity: 0
@12180 $50.75 Channel: 12 Note on, G#3 key=56 velocity: 100
@12225 $50.9375 Channel: 12 Note off, G#3 key=56 velocity: 0
@12240 $51.0 Channel: 12 Note on, F#3 key=54 velocity: 100
@12285 $51.1875 Channel: 12 Note off, F#3 key=54 velocity: 0
@12300 $51.25 Channel: 12 Note on, B3 key=59 velocity: 100
@12345 $51.4375 Channel: 12 Note off, B3 key=59 velocity: 0
@12360 $51.5 Channel: 12 Note on, A3 key=57 velocity: 100
@12405 $51.6875 Channel: 12 Note off, A3 key=57 velocity: 0
@12420 $51.75 Channel: 12 Note on, B3 key=59 velocity: 100
@12465 $51.9375 Channel: 12 Note off, B3 key=59 velocity: 0
@12480 $52.0 Channel: 12 Note on, G#3 key=56 velocity: 100
@12525 $52.1875 Channel: 12 Note off, G#3 key=56 velocity: 0
@12540 $52.25 Channel: 12 Note on, E3 key=52 velocity: 100
@12585 $52.4375 Channel: 12 Note off, E3 key=52 velocity: 0
@12600 $52.5 Channel: 12 Note on, A3 key=57 velocity: 100
@12645 $52.6875 Channel: 12 Note off, A3 key=57 velocity: 0
@12660 $52.75 Channel: 12 Note on, B3 key=59 velocity: 100
@12705 $52.9375 Channel: 12 Note off, B3 key=59 velocity: 0
@12720 $53.0 Channel: 12 Note on, C#4 key=61 velocity: 100
@12840 $53.5 Channel: 12 Note off, C#4 key=61 velocity: 0
@12840 $53.5 Channel: 12 Note on, A3 key=57 velocity: 100
@12885 $53.6875 Channel: 12 Note off, A3 key=57 velocity: 0
@12900 $53.75 Channel: 12 Note on, B3 key=59 velocity: 100
@12945 $53.9375 Channel: 12 Note off, B3 key=59 velocity: 0
@12960 $54.0 Channel: 12 Note on, C#4 key=61 velocity: 100
@13005 $54.1875 Channel: 12 Note off, C#4 key=61 velocity: 0
@13020 $54.25 Channel: 12 Note on, B3 key=59 velocity: 100
@13065 $54.4375 Channel: 12 Note off, B3 key=59 velocity: 0
@13080 $54.5 Channel: 12 Note on, A3 key=57 velocity: 100
@13125 $54.6875 Channel: 12 Note off, A3 key=57 velocity: 0
@13140 $54.75 Channel: 12 Note on, G#3 key=56 velocity: 100
@13185 $54.9375 Channel: 12 Note off, G#3 key=56 velocity: 0
@13200 $55.0 Channel: 12 Note on, F#3 key=54 velocity: 100
@13245 $55.1875 Channel: 12 Note off, F#3 key=54 velocity: 0
@13260 $55.25 Channel: 12 Note on, B3 key=59 velocity: 100
@13305 $55.4375 Channel: 12 Note off, B3 key=59 velocity: 0
@13320 $55.5 Channel: 12 Note on, G#3 key=56 velocity: 100
@13365 $55.6875 Channel: 12 Note off, G#3 key=56 velocity: 0
@13380 $55.75 Channel: 12 Note on, E3 key=52 velocity: 100
@13425 $55.9375 Channel: 12 Note off, E3 key=52 velocity: 0
@13440 $56.0 Channel: 12 Note on, A3 key=57 velocity: 100
@13560 $56.5 Channel: 12 Note off, A3 key=57 velocity: 0
@13560 $56.5 Channel: 12 Note on, A3 key=57 velocity: 100
@13605 $56.6875 Channel: 12 Note off, A3 key=57 velocity: 0
@13620 $56.75 Channel: 12 Note on, B3 key=59 velocity: 100
@13665 $56.9375 Channel: 12 Note off, B3 key=59 velocity: 0
@13680 $57.0 Channel: 12 Note on, C#4 key=61 velocity: 100
@13800 $57.5 Channel: 12 Note off, C#4 key=61 velocity: 0
@13800 $57.5 Channel: 12 Note on, A3 key=57 velocity: 100
@13845 $57.6875 Channel: 12 Note off, A3 key=57 velocity: 0
@13860 $57.75 Channel: 12 Note on, B3 key=59 velocity: 100
@13905 $57.9375 Channel: 12 Note off, B3 key=59 velocity: 0
@13920 $58.0 Channel: 12 Note on, C#4 key=61 velocity: 100
@13965 $58.1875 Channel: 12 Note off, C#4 key=61 velocity: 0
@13980 $58.25 Channel: 12 Note on, B3 key=59 velocity: 100
@14025 $58.4375 Channel: 12 Note off, B3 key=59 velocity: 0
@14040 $58.5 Channel: 12 Note on, A3 key=57 velocity: 100
@14085 $58.6875 Channel: 12 Note off, A3 key=57 velocity: 0
@14100 $58.75 Channel: 12 Note on, G#3 key=56 velocity: 100
@14145 $58.9375 Channel: 12 Note off, G#3 key=56 velocity: 0
@14160 $59.0 Channel: 12 Note on, F#3 key=54 velocity: 100
@14205 $59.1875 Channel: 12 Note off, F#3 key=54 velocity: 0
@14220 $59.25 Channel: 12 Note on, B3 key=59 velocity: 100
@14265 $59.4375 Channel: 12 Note off, B3 key=59 velocity: 0
@14280 $59.5 Channel: 12 Note on, A3 key=57 velocity: 100
@14325 $59.6875 Channel: 12 Note off, A3 key=57 velocity: 0
@14340 $59.75 Channel: 12 Note on, B3 key=59 velocity: 100
@14385 $59.9375 Channel: 12 Note off, B3 key=59 velocity: 0
@14400 $60.0 Channel: 12 Note on, G#3 key=56 velocity: 100
@14445 $60.1875 Channel: 12 Note off, G#3 key=56 velocity: 0
@14460 $60.25 Channel: 12 Note on, E3 key=52 velocity: 100
@14505 $60.4375 Channel: 12 Note off, E3 key=52 velocity: 0
@14520 $60.5 Channel: 12 Note on, A3 key=57 velocity: 100
@14565 $60.6875 Channel: 12 Note off, A3 key=57 velocity: 0
@14580 $60.75 Channel: 12 Note on, B3 key=59 velocity: 100
@14625 $60.9375 Channel: 12 Note off, B3 key=59 velocity: 0
@14640 $61.0 Channel: 12 Note on, C#4 key=61 velocity: 100
@14760 $61.5 Channel: 12 Note off, C#4 key=61 velocity: 0
@14760 $61.5 Channel: 12 Note on, A3 key=57 velocity: 100
@14805 $61.6875 Channel: 12 Note off, A3 key=57 velocity: 0
@14820 $61.75 Channel: 12 Note on, B3 key=59 velocity: 100
@14865 $61.9375 Channel: 12 Note off, B3 key=59 velocity: 0
@14880 $62.0 Channel: 12 Note on, C#4 key=61 velocity: 100
@14925 $62.1875 Channel: 12 Note off, C#4 key=61 velocity: 0
@14940 $62.25 Channel: 12 Note on, B3 key=59 velocity: 100
@14985 $62.4375 Channel: 12 Note off, B3 key=59 velocity: 0
@15000 $62.5 Channel: 12 Note on, A3 key=57 velocity: 100
@15045 $62.6875 Channel: 12 Note off, A3 key=57 velocity: 0
@15060 $62.75 Channel: 12 Note on, G#3 key=56 velocity: 100
@15105 $62.9375 Channel: 12 Note off, G#3 key=56 velocity: 0
@15120 $63.0 Channel: 12 Note on, F#3 key=54 velocity: 100
@15165 $63.1875 Channel: 12 Note off, F#3 key=54 velocity: 0
@15180 $63.25 Channel: 12 Note on, B3 key=59 velocity: 100
@15225 $63.4375 Channel: 12 Note off, B3 key=59 velocity: 0
@15240 $63.5 Channel: 12 Note on, G#3 key=56 velocity: 100
@15285 $63.6875 Channel: 12 Note off, G#3 key=56 velocity: 0
@15300 $63.75 Channel: 12 Note on, E3 key=52 velocity: 100
@15345 $63.9375 Channel: 12 Note off, E3 key=52 velocity: 0
@15360 $64.0 Channel: 12 Note on, A3 key=57 velocity: 100
@15480 $64.5 Channel: 12 Note off, A3 key=57 velocity: 0
@27000 $112.5 Channel: 12 Note on, A3 key=57 velocity: 100
@27045 $112.6875 Channel: 12 Note off, A3 key=57 velocity: 0
@27060 $112.75 Channel: 12 Note on, B3 key=59 velocity: 100
@27105 $112.9375 Channel: 12 Note off, B3 key=59 velocity: 0
@27120 $113.0 Channel: 12 Note on, C#4 key=61 velocity: 100
@27240 $113.5 Channel: 12 Note off, C#4 key=61 velocity: 0
@27240 $113.5 Channel: 12 Note on, A3 key=57 velocity: 100
@27285 $113.6875 Channel: 12 Note off, A3 key=57 velocity: 0
@27300 $113.75 Channel: 12 Note on, B3 key=59 velocity: 100
@27345 $113.9375 Channel: 12 Note off, B3 key=59 velocity: 0
@27360 $114.0 Channel: 12 Note on, C#4 key=61 velocity: 100
@27405 $114.1875 Channel: 12 Note off, C#4 key=61 velocity: 0
@27420 $114.25 Channel: 12 Note on, B3 key=59 velocity: 100
@27465 $114.4375 Channel: 12 Note off, B3 key=59 velocity: 0
@27480 $114.5 Channel: 12 Note on, A3 key=57 velocity: 100
@27525 $114.6875 Channel: 12 Note off, A3 key=57 velocity: 0
@27540 $114.75 Channel: 12 Note on, G#3 key=56 velocity: 100
@27585 $114.9375 Channel: 12 Note off, G#3 key=56 velocity: 0
@27600 $115.0 Channel: 12 Note on, F#3 key=54 velocity: 100
@27645 $115.1875 Channel: 12 Note off, F#3 key=54 velocity: 0
@27660 $115.25 Channel: 12 Note on, B3 key=59 velocity: 100
@27705 $115.4375 Channel: 12 Note off, B3 key=59 velocity: 0
@27720 $115.5 Channel: 12 Note on, A3 key=57 velocity: 100
@27765 $115.6875 Channel: 12 Note off, A3 key=57 velocity: 0
@27780 $115.75 Channel: 12 Note on, B3 key=59 velocity: 100
@27825 $115.9375 Channel: 12 Note off, B3 key=59 velocity: 0
@27840 $116.0 Channel: 12 Note on, G#3 key=56 velocity: 100
@27885 $116.1875 Channel: 12 Note off, G#3 key=56 velocity: 0
@27900 $116.25 Channel: 12 Note on, E3 key=52 velocity: 100
@27945 $116.4375 Channel: 12 Note off, E3 key=52 velocity: 0
@27960 $116.5 Channel: 12 Note on, A3 key=57 velocity: 100
@28005 $116.6875 Channel: 12 Note off, A3 key=57 velocity: 0
@28020 $116.75 Channel: 12 Note on, B3 key=59 velocity: 100
@28065 $116.9375 Channel: 12 Note off, B3 key=59 velocity: 0
@28080 $117.0 Channel: 12 Note on, C#4 key=61 velocity: 100
@28200 $117.5 Channel: 12 Note off, C#4 key=61 velocity: 0
@28200 $117.5 Channel: 12 Note on, A3 key=57 velocity: 100
@28245 $117.6875 Channel: 12 Note off, A3 key=57 velocity: 0
@28260 $117.75 Channel: 12 Note on, B3 key=59 velocity: 100
@28305 $117.9375 Channel: 12 Note off, B3 key=59 velocity: 0
@28320 $118.0 Channel: 12 Note on, C#4 key=61 velocity: 100
@28365 $118.1875 Channel: 12 Note off, C#4 key=61 velocity: 0
@28380 $118.25 Channel: 12 Note on, B3 key=59 velocity: 100
@28425 $118.4375 Channel: 12 Note off, B3 key=59 velocity: 0
@28440 $118.5 Channel: 12 Note on, A3 key=57 velocity: 100
@28485 $118.6875 Channel: 12 Note off, A3 key=57 velocity: 0
@28500 $118.75 Channel: 12 Note on, G#3 key=56 velocity: 100
@28545 $118.9375 Channel: 12 Note off, G#3 key=56 velocity: 0
@28560 $119.0 Channel: 12 Note on, F#3 key=54 velocity: 100
@28605 $119.1875 Channel: 12 Note off, F#3 key=54 velocity: 0
@28620 $119.25 Channel: 12 Note on, B3 key=59 velocity: 100
@28665 $119.4375 Channel: 12 Note off, B3 key=59 velocity: 0
@28680 $119.5 Channel: 12 Note on, G#3 key=56 velocity: 100
@28725 $119.6875 Channel: 12 Note off, G#3 key=56 velocity: 0
@28740 $119.75 Channel: 12 Note on, E3 key=52 velocity: 100
@28785 $119.9375 Channel: 12 Note off, E3 key=52 velocity: 0
@28800 $120.0 Channel: 12 Note on, A3 key=57 velocity: 100
@28920 $120.5 Channel: 12 Note off, A3 key=57 velocity: 0
@28920 $120.5 Channel: 12 Note on, A3 key=57 velocity: 100
@28965 $120.6875 Channel: 12 Note off, A3 key=57 velocity: 0
@28980 $120.75 Channel: 12 Note on, B3 key=59 velocity: 100
@29025 $120.9375 Channel: 12 Note off, B3 key=59 velocity: 0
@29040 $121.0 Channel: 12 Note on, C#4 key=61 velocity: 100
@29160 $121.5 Channel: 12 Note off, C#4 key=61 velocity: 0
@29160 $121.5 Channel: 12 Note on, A3 key=57 velocity: 100
@29205 $121.6875 Channel: 12 Note off, A3 key=57 velocity: 0
@29220 $121.75 Channel: 12 Note on, B3 key=59 velocity: 100
@29265 $121.9375 Channel: 12 Note off, B3 key=59 velocity: 0
@29280 $122.0 Channel: 12 Note on, C#4 key=61 velocity: 100
@29325 $122.1875 Channel: 12 Note off, C#4 key=61 velocity: 0
@29340 $122.25 Channel: 12 Note on, B3 key=59 velocity: 100
@29385 $122.4375 Channel: 12 Note off, B3 key=59 velocity: 0
@29400 $122.5 Channel: 12 Note on, A3 key=57 velocity: 100
@29445 $122.6875 Channel: 12 Note off, A3 key=57 velocity: 0
@29460 $122.75 Channel: 12 Note on, G#3 key=56 velocity: 100
@29505 $122.9375 Channel: 12 Note off, G#3 key=56 velocity: 0
@29520 $123.0 Channel: 12 Note on, F#3 key=54 velocity: 100
@29565 $123.1875 Channel: 12 Note off, F#3 key=54 velocity: 0
@29580 $123.25 Channel: 12 Note on, B3 key=59 velocity: 100
@29625 $123.4375 Channel: 12 Note off, B3 key=59 velocity: 0
@29640 $123.5 Channel: 12 Note on, A3 key=57 velocity: 100
@29685 $123.6875 Channel: 12 Note off, A3 key=57 velocity: 0
@29700 $123.75 Channel: 12 Note on, B3 key=59 velocity: 100
@29745 $123.9375 Channel: 12 Note off, B3 key=59 velocity: 0
@29760 $124.0 Channel: 12 Note on, G#3 key=56 velocity: 100
@29805 $124.1875 Channel: 12 Note off, G#3 key=56 velocity: 0
@29820 $124.25 Channel: 12 Note on, E3 key=52 velocity: 100
@29865 $124.4375 Channel: 12 Note off, E3 key=52 velocity: 0
@29880 $124.5 Channel: 12 Note on, A3 key=57 velocity: 100
@29925 $124.6875 Channel: 12 Note off, A3 key=57 velocity: 0
@29940 $124.75 Channel: 12 Note on, B3 key=59 velocity: 100
@29985 $124.9375 Channel: 12 Note off, B3 key=59 velocity: 0
@30000 $125.0 Channel: 12 Note on, C#4 key=61 velocity: 100
@30120 $125.5 Channel: 12 Note off, C#4 key=61 velocity: 0
@30120 $125.5 Channel: 12 Note on, A3 key=57 velocity: 100
@30165 $125.6875 Channel: 12 Note off, A3 key=57 velocity: 0
@30180 $125.75 Channel: 12 Note on, B3 key=59 velocity: 100
@30225 $125.9375 Channel: 12 Note off, B3 key=59 velocity: 0
@30240 $126.0 Channel: 12 Note on, C#4 key=61 velocity: 100
@30285 $126.1875 Channel: 12 Note off, C#4 key=61 velocity: 0
@30300 $126.25 Channel: 12 Note on, B3 key=59 velocity: 100
@30345 $126.4375 Channel: 12 Note off, B3 key=59 velocity: 0
@30360 $126.5 Channel: 12 Note on, A3 key=57 velocity: 100
@30405 $126.6875 Channel: 12 Note off, A3 key=57 velocity: 0
@30420 $126.75 Channel: 12 Note on, G#3 key=56 velocity: 100
@30465 $126.9375 Channel: 12 Note off, G#3 key=56 velocity: 0
@30480 $127.0 Channel: 12 Note on, F#3 key=54 velocity: 100
@30525 $127.1875 Channel: 12 Note off, F#3 key=54 velocity: 0
@30540 $127.25 Channel: 12 Note on, B3 key=59 velocity: 100
@30585 $127.4375 Channel: 12 Note off, B3 key=59 velocity: 0
@30600 $127.5 Channel: 12 Note on, G#3 key=56 velocity: 100
@30645 $127.6875 Channel: 12 Note off, G#3 key=56 velocity: 0
@30660 $127.75 Channel: 12 Note on, E3 key=52 velocity: 100
@30705 $127.9375 Channel: 12 Note off, E3 key=52 velocity: 0
@30720 $128.0 Channel: 12 Note on, A3 key=57 velocity: 100
@30840 $128.5 Channel: 12 Note off, A3 key=57 velocity: 0
@53400 $222.5 Channel: 12 Note on, E3 key=52 velocity: 127
@53400 $222.5 Channel: 12 Note on, A3 key=57 velocity: 127
@53400 $222.5 Channel: 12 Note on, A2 key=45 velocity: 127
@53640 $223.5 Channel: 12 Note off, A2 key=45 velocity: 0
@53640 $223.5 Channel: 12 Note off, A3 key=57 velocity: 0
@53640 $223.5 Channel: 12 Note off, E3 key=52 velocity: 0
@53760 $224.0 Channel: 12 Note on, E3 key=52 velocity: 127
@53760 $224.0 Channel: 12 Note on, A3 key=57 velocity: 127
@53760 $224.0 Channel: 12 Note on, A2 key=45 velocity: 127
@54240 $226.0 Channel: 12 Note off, A2 key=45 velocity: 0
@54240 $226.0 Channel: 12 Note off, A3 key=57 velocity: 0
@54240 $226.0 Channel: 12 Note off, E3 key=52 velocity: 0
@54240 $226.0 Other meta message: class javax.sound.midi.Track$ImmutableEndOfTrack

Track 14: size = 628
@0 $0.0 Other meta message: class javax.sound.midi.MetaMessage
@0 $0.0 Other meta message: class javax.sound.midi.MetaMessage
@0 $0.0 Channel: 13 Other short message:192
@0 $0.0 Channel: 13 Control Change message
@0 $0.0 Channel: 13 Control Change message
@11640 $48.5 Channel: 13 Note on, A4 key=69 velocity: 100
@11685 $48.6875 Channel: 13 Note off, A4 key=69 velocity: 0
@11700 $48.75 Channel: 13 Note on, B4 key=71 velocity: 100
@11745 $48.9375 Channel: 13 Note off, B4 key=71 velocity: 0
@11760 $49.0 Channel: 13 Note on, C#5 key=73 velocity: 100
@11880 $49.5 Channel: 13 Note off, C#5 key=73 velocity: 0
@11880 $49.5 Channel: 13 Note on, A4 key=69 velocity: 100
@11925 $49.6875 Channel: 13 Note off, A4 key=69 velocity: 0
@11940 $49.75 Channel: 13 Note on, B4 key=71 velocity: 100
@11985 $49.9375 Channel: 13 Note off, B4 key=71 velocity: 0
@12000 $50.0 Channel: 13 Note on, C#5 key=73 velocity: 100
@12045 $50.1875 Channel: 13 Note off, C#5 key=73 velocity: 0
@12060 $50.25 Channel: 13 Note on, B4 key=71 velocity: 100
@12105 $50.4375 Channel: 13 Note off, B4 key=71 velocity: 0
@12120 $50.5 Channel: 13 Note on, A4 key=69 velocity: 100
@12165 $50.6875 Channel: 13 Note off, A4 key=69 velocity: 0
@12180 $50.75 Channel: 13 Note on, G#4 key=68 velocity: 100
@12225 $50.9375 Channel: 13 Note off, G#4 key=68 velocity: 0
@12240 $51.0 Channel: 13 Note on, F#4 key=66 velocity: 100
@12285 $51.1875 Channel: 13 Note off, F#4 key=66 velocity: 0
@12300 $51.25 Channel: 13 Note on, G#4 key=68 velocity: 100
@12345 $51.4375 Channel: 13 Note off, G#4 key=68 velocity: 0
@12360 $51.5 Channel: 13 Note on, A4 key=69 velocity: 100
@12405 $51.6875 Channel: 13 Note off, A4 key=69 velocity: 0
@12420 $51.75 Channel: 13 Note on, B4 key=71 velocity: 100
@12465 $51.9375 Channel: 13 Note off, B4 key=71 velocity: 0
@12480 $52.0 Channel: 13 Note on, G#4 key=68 velocity: 100
@12525 $52.1875 Channel: 13 Note off, G#4 key=68 velocity: 0
@12540 $52.25 Channel: 13 Note on, E4 key=64 velocity: 100
@12585 $52.4375 Channel: 13 Note off, E4 key=64 velocity: 0
@12600 $52.5 Channel: 13 Note on, A4 key=69 velocity: 100
@12645 $52.6875 Channel: 13 Note off, A4 key=69 velocity: 0
@12660 $52.75 Channel: 13 Note on, B4 key=71 velocity: 100
@12705 $52.9375 Channel: 13 Note off, B4 key=71 velocity: 0
@12720 $53.0 Channel: 13 Note on, C#5 key=73 velocity: 100
@12840 $53.5 Channel: 13 Note off, C#5 key=73 velocity: 0
@12840 $53.5 Channel: 13 Note on, A4 key=69 velocity: 100
@12885 $53.6875 Channel: 13 Note off, A4 key=69 velocity: 0
@12900 $53.75 Channel: 13 Note on, B4 key=71 velocity: 100
@12945 $53.9375 Channel: 13 Note off, B4 key=71 velocity: 0
@12960 $54.0 Channel: 13 Note on, C#5 key=73 velocity: 100
@13005 $54.1875 Channel: 13 Note off, C#5 key=73 velocity: 0
@13020 $54.25 Channel: 13 Note on, B4 key=71 velocity: 100
@13065 $54.4375 Channel: 13 Note off, B4 key=71 velocity: 0
@13080 $54.5 Channel: 13 Note on, A4 key=69 velocity: 100
@13125 $54.6875 Channel: 13 Note off, A4 key=69 velocity: 0
@13140 $54.75 Channel: 13 Note on, G#4 key=68 velocity: 100
@13185 $54.9375 Channel: 13 Note off, G#4 key=68 velocity: 0
@13200 $55.0 Channel: 13 Note on, F#4 key=66 velocity: 100
@13245 $55.1875 Channel: 13 Note off, F#4 key=66 velocity: 0
@13260 $55.25 Channel: 13 Note on, B4 key=71 velocity: 100
@13305 $55.4375 Channel: 13 Note off, B4 key=71 velocity: 0
@13320 $55.5 Channel: 13 Note on, G#4 key=68 velocity: 100
@13365 $55.6875 Channel: 13 Note off, G#4 key=68 velocity: 0
@13380 $55.75 Channel: 13 Note on, E4 key=64 velocity: 100
@13425 $55.9375 Channel: 13 Note off, E4 key=64 velocity: 0
@13440 $56.0 Channel: 13 Note on, A4 key=69 velocity: 100
@13560 $56.5 Channel: 13 Note off, A4 key=69 velocity: 0
@13560 $56.5 Channel: 13 Note on, A4 key=69 velocity: 100
@13605 $56.6875 Channel: 13 Note off, A4 key=69 velocity: 0
@13620 $56.75 Channel: 13 Note on, B4 key=71 velocity: 100
@13665 $56.9375 Channel: 13 Note off, B4 key=71 velocity: 0
@13680 $57.0 Channel: 13 Note on, C#5 key=73 velocity: 100
@13800 $57.5 Channel: 13 Note off, C#5 key=73 velocity: 0
@13800 $57.5 Channel: 13 Note on, A4 key=69 velocity: 100
@13845 $57.6875 Channel: 13 Note off, A4 key=69 velocity: 0
@13860 $57.75 Channel: 13 Note on, B4 key=71 velocity: 100
@13905 $57.9375 Channel: 13 Note off, B4 key=71 velocity: 0
@13920 $58.0 Channel: 13 Note on, C#5 key=73 velocity: 100
@13965 $58.1875 Channel: 13 Note off, C#5 key=73 velocity: 0
@13980 $58.25 Channel: 13 Note on, B4 key=71 velocity: 100
@14025 $58.4375 Channel: 13 Note off, B4 key=71 velocity: 0
@14040 $58.5 Channel: 13 Note on, A4 key=69 velocity: 100
@14085 $58.6875 Channel: 13 Note off, A4 key=69 velocity: 0
@14100 $58.75 Channel: 13 Note on, G#4 key=68 velocity: 100
@14145 $58.9375 Channel: 13 Note off, G#4 key=68 velocity: 0
@14160 $59.0 Channel: 13 Note on, F#4 key=66 velocity: 100
@14205 $59.1875 Channel: 13 Note off, F#4 key=66 velocity: 0
@14220 $59.25 Channel: 13 Note on, G#4 key=68 velocity: 100
@14265 $59.4375 Channel: 13 Note off, G#4 key=68 velocity: 0
@14280 $59.5 Channel: 13 Note on, A4 key=69 velocity: 100
@14325 $59.6875 Channel: 13 Note off, A4 key=69 velocity: 0
@14340 $59.75 Channel: 13 Note on, B4 key=71 velocity: 100
@14385 $59.9375 Channel: 13 Note off, B4 key=71 velocity: 0
@14400 $60.0 Channel: 13 Note on, G#4 key=68 velocity: 100
@14445 $60.1875 Channel: 13 Note off, G#4 key=68 velocity: 0
@14460 $60.25 Channel: 13 Note on, E4 key=64 velocity: 100
@14505 $60.4375 Channel: 13 Note off, E4 key=64 velocity: 0
@14520 $60.5 Channel: 13 Note on, A4 key=69 velocity: 100
@14565 $60.6875 Channel: 13 Note off, A4 key=69 velocity: 0
@14580 $60.75 Channel: 13 Note on, B4 key=71 velocity: 100
@14625 $60.9375 Channel: 13 Note off, B4 key=71 velocity: 0
@14640 $61.0 Channel: 13 Note on, C#5 key=73 velocity: 100
@14760 $61.5 Channel: 13 Note off, C#5 key=73 velocity: 0
@14760 $61.5 Channel: 13 Note on, A4 key=69 velocity: 100
@14805 $61.6875 Channel: 13 Note off, A4 key=69 velocity: 0
@14820 $61.75 Channel: 13 Note on, B4 key=71 velocity: 100
@14865 $61.9375 Channel: 13 Note off, B4 key=71 velocity: 0
@14880 $62.0 Channel: 13 Note on, C#5 key=73 velocity: 100
@14925 $62.1875 Channel: 13 Note off, C#5 key=73 velocity: 0
@14940 $62.25 Channel: 13 Note on, B4 key=71 velocity: 100
@14985 $62.4375 Channel: 13 Note off, B4 key=71 velocity: 0
@15000 $62.5 Channel: 13 Note on, A4 key=69 velocity: 100
@15045 $62.6875 Channel: 13 Note off, A4 key=69 velocity: 0
@15060 $62.75 Channel: 13 Note on, G#4 key=68 velocity: 100
@15105 $62.9375 Channel: 13 Note off, G#4 key=68 velocity: 0
@15120 $63.0 Channel: 13 Note on, F#4 key=66 velocity: 100
@15165 $63.1875 Channel: 13 Note off, F#4 key=66 velocity: 0
@15180 $63.25 Channel: 13 Note on, B4 key=71 velocity: 100
@15225 $63.4375 Channel: 13 Note off, B4 key=71 velocity: 0
@15240 $63.5 Channel: 13 Note on, G#4 key=68 velocity: 100
@15285 $63.6875 Channel: 13 Note off, G#4 key=68 velocity: 0
@15300 $63.75 Channel: 13 Note on, E4 key=64 velocity: 100
@15345 $63.9375 Channel: 13 Note off, E4 key=64 velocity: 0
@15360 $64.0 Channel: 13 Note on, A4 key=69 velocity: 100
@15480 $64.5 Channel: 13 Note off, A4 key=69 velocity: 0
@27000 $112.5 Channel: 13 Note on, A4 key=69 velocity: 100
@27045 $112.6875 Channel: 13 Note off, A4 key=69 velocity: 0
@27060 $112.75 Channel: 13 Note on, B4 key=71 velocity: 100
@27105 $112.9375 Channel: 13 Note off, B4 key=71 velocity: 0
@27120 $113.0 Channel: 13 Note on, C#5 key=73 velocity: 100
@27240 $113.5 Channel: 13 Note off, C#5 key=73 velocity: 0
@27240 $113.5 Channel: 13 Note on, A4 key=69 velocity: 100
@27285 $113.6875 Channel: 13 Note off, A4 key=69 velocity: 0
@27300 $113.75 Channel: 13 Note on, B4 key=71 velocity: 100
@27345 $113.9375 Channel: 13 Note off, B4 key=71 velocity: 0
@27360 $114.0 Channel: 13 Note on, C#5 key=73 velocity: 100
@27405 $114.1875 Channel: 13 Note off, C#5 key=73 velocity: 0
@27420 $114.25 Channel: 13 Note on, B4 key=71 velocity: 100
@27465 $114.4375 Channel: 13 Note off, B4 key=71 velocity: 0
@27480 $114.5 Channel: 13 Note on, A4 key=69 velocity: 100
@27525 $114.6875 Channel: 13 Note off, A4 key=69 velocity: 0
@27540 $114.75 Channel: 13 Note on, G#4 key=68 velocity: 100
@27585 $114.9375 Channel: 13 Note off, G#4 key=68 velocity: 0
@27600 $115.0 Channel: 13 Note on, F#4 key=66 velocity: 100
@27645 $115.1875 Channel: 13 Note off, F#4 key=66 velocity: 0
@27660 $115.25 Channel: 13 Note on, G#4 key=68 velocity: 100
@27705 $115.4375 Channel: 13 Note off, G#4 key=68 velocity: 0
@27720 $115.5 Channel: 13 Note on, A4 key=69 velocity: 100
@27765 $115.6875 Channel: 13 Note off, A4 key=69 velocity: 0
@27780 $115.75 Channel: 13 Note on, B4 key=71 velocity: 100
@27825 $115.9375 Channel: 13 Note off, B4 key=71 velocity: 0
@27840 $116.0 Channel: 13 Note on, G#4 key=68 velocity: 100
@27885 $116.1875 Channel: 13 Note off, G#4 key=68 velocity: 0
@27900 $116.25 Channel: 13 Note on, E4 key=64 velocity: 100
@27945 $116.4375 Channel: 13 Note off, E4 key=64 velocity: 0
@27960 $116.5 Channel: 13 Note on, A4 key=69 velocity: 100
@28005 $116.6875 Channel: 13 Note off, A4 key=69 velocity: 0
@28020 $116.75 Channel: 13 Note on, B4 key=71 velocity: 100
@28065 $116.9375 Channel: 13 Note off, B4 key=71 velocity: 0
@28080 $117.0 Channel: 13 Note on, C#5 key=73 velocity: 100
@28200 $117.5 Channel: 13 Note off, C#5 key=73 velocity: 0
@28200 $117.5 Channel: 13 Note on, A4 key=69 velocity: 100
@28245 $117.6875 Channel: 13 Note off, A4 key=69 velocity: 0
@28260 $117.75 Channel: 13 Note on, B4 key=71 velocity: 100
@28305 $117.9375 Channel: 13 Note off, B4 key=71 velocity: 0
@28320 $118.0 Channel: 13 Note on, C#5 key=73 velocity: 100
@28365 $118.1875 Channel: 13 Note off, C#5 key=73 velocity: 0
@28380 $118.25 Channel: 13 Note on, B4 key=71 velocity: 100
@28425 $118.4375 Channel: 13 Note off, B4 key=71 velocity: 0
@28440 $118.5 Channel: 13 Note on, A4 key=69 velocity: 100
@28485 $118.6875 Channel: 13 Note off, A4 key=69 velocity: 0
@28500 $118.75 Channel: 13 Note on, G#4 key=68 velocity: 100
@28545 $118.9375 Channel: 13 Note off, G#4 key=68 velocity: 0
@28560 $119.0 Channel: 13 Note on, F#4 key=66 velocity: 100
@28605 $119.1875 Channel: 13 Note off, F#4 key=66 velocity: 0
@28620 $119.25 Channel: 13 Note on, B4 key=71 velocity: 100
@28665 $119.4375 Channel: 13 Note off, B4 key=71 velocity: 0
@28680 $119.5 Channel: 13 Note on, G#4 key=68 velocity: 100
@28725 $119.6875 Channel: 13 Note off, G#4 key=68 velocity: 0
@28740 $119.75 Channel: 13 Note on, E4 key=64 velocity: 100
@28785 $119.9375 Channel: 13 Note off, E4 key=64 velocity: 0
@28800 $120.0 Channel: 13 Note on, A4 key=69 velocity: 100
@28920 $120.5 Channel: 13 Note off, A4 key=69 velocity: 0
@28920 $120.5 Channel: 13 Note on, A4 key=69 velocity: 100
@28965 $120.6875 Channel: 13 Note off, A4 key=69 velocity: 0
@28980 $120.75 Channel: 13 Note on, B4 key=71 velocity: 100
@29025 $120.9375 Channel: 13 Note off, B4 key=71 velocity: 0
@29040 $121.0 Channel: 13 Note on, C#5 key=73 velocity: 100
@29160 $121.5 Channel: 13 Note off, C#5 key=73 velocity: 0
@29160 $121.5 Channel: 13 Note on, A4 key=69 velocity: 100
@29205 $121.6875 Channel: 13 Note off, A4 key=69 velocity: 0
@29220 $121.75 Channel: 13 Note on, B4 key=71 velocity: 100
@29265 $121.9375 Channel: 13 Note off, B4 key=71 velocity: 0
@29280 $122.0 Channel: 13 Note on, C#5 key=73 velocity: 100
@29325 $122.1875 Channel: 13 Note off, C#5 key=73 velocity: 0
@29340 $122.25 Channel: 13 Note on, B4 key=71 velocity: 100
@29385 $122.4375 Channel: 13 Note off, B4 key=71 velocity: 0
@29400 $122.5 Channel: 13 Note on, A4 key=69 velocity: 100
@29445 $122.6875 Channel: 13 Note off, A4 key=69 velocity: 0
@29460 $122.75 Channel: 13 Note on, G#4 key=68 velocity: 100
@29505 $122.9375 Channel: 13 Note off, G#4 key=68 velocity: 0
@29520 $123.0 Channel: 13 Note on, F#4 key=66 velocity: 100
@29565 $123.1875 Channel: 13 Note off, F#4 key=66 velocity: 0
@29580 $123.25 Channel: 13 Note on, G#4 key=68 velocity: 100
@29625 $123.4375 Channel: 13 Note off, G#4 key=68 velocity: 0
@29640 $123.5 Channel: 13 Note on, A4 key=69 velocity: 100
@29685 $123.6875 Channel: 13 Note off, A4 key=69 velocity: 0
@29700 $123.75 Channel: 13 Note on, B4 key=71 velocity: 100
@29745 $123.9375 Channel: 13 Note off, B4 key=71 velocity: 0
@29760 $124.0 Channel: 13 Note on, G#4 key=68 velocity: 100
@29805 $124.1875 Channel: 13 Note off, G#4 key=68 velocity: 0
@29820 $124.25 Channel: 13 Note on, E4 key=64 velocity: 100
@29865 $124.4375 Channel: 13 Note off, E4 key=64 velocity: 0
@29880 $124.5 Channel: 13 Note on, A4 key=69 velocity: 100
@29925 $124.6875 Channel: 13 Note off, A4 key=69 velocity: 0
@29940 $124.75 Channel: 13 Note on, B4 key=71 velocity: 100
@29985 $124.9375 Channel: 13 Note off, B4 key=71 velocity: 0
@30000 $125.0 Channel: 13 Note on, C#5 key=73 velocity: 100
@30120 $125.5 Channel: 13 Note off, C#5 key=73 velocity: 0
@30120 $125.5 Channel: 13 Note on, A4 key=69 velocity: 100
@30165 $125.6875 Channel: 13 Note off, A4 key=69 velocity: 0
@30180 $125.75 Channel: 13 Note on, B4 key=71 velocity: 100
@30225 $125.9375 Channel: 13 Note off, B4 key=71 velocity: 0
@30240 $126.0 Channel: 13 Note on, C#5 key=73 velocity: 100
@30285 $126.1875 Channel: 13 Note off, C#5 key=73 velocity: 0
@30300 $126.25 Channel: 13 Note on, B4 key=71 velocity: 100
@30345 $126.4375 Channel: 13 Note off, B4 key=71 velocity: 0
@30360 $126.5 Channel: 13 Note on, A4 key=69 velocity: 100
@30405 $126.6875 Channel: 13 Note off, A4 key=69 velocity: 0
@30420 $126.75 Channel: 13 Note on, G#4 key=68 velocity: 100
@30465 $126.9375 Channel: 13 Note off, G#4 key=68 velocity: 0
@30480 $127.0 Channel: 13 Note on, F#4 key=66 velocity: 100
@30525 $127.1875 Channel: 13 Note off, F#4 key=66 velocity: 0
@30540 $127.25 Channel: 13 Note on, B4 key=71 velocity: 100
@30585 $127.4375 Channel: 13 Note off, B4 key=71 velocity: 0
@30600 $127.5 Channel: 13 Note on, G#4 key=68 velocity: 100
@30645 $127.6875 Channel: 13 Note off, G#4 key=68 velocity: 0
@30660 $127.75 Channel: 13 Note on, E4 key=64 velocity: 100
@30705 $127.9375 Channel: 13 Note off, E4 key=64 velocity: 0
@30720 $128.0 Channel: 13 Note on, A4 key=69 velocity: 100
@30840 $128.5 Channel: 13 Note off, A4 key=69 velocity: 0
@42360 $176.5 Channel: 13 Note on, A4 key=69 velocity: 100
@42420 $176.75 Channel: 13 Note off, A4 key=69 velocity: 0
@42420 $176.75 Channel: 13 Note on, B4 key=71 velocity: 100
@42480 $177.0 Channel: 13 Note off, B4 key=71 velocity: 0
@42480 $177.0 Channel: 13 Note on, C#5 key=73 velocity: 100
@42600 $177.5 Channel: 13 Note off, C#5 key=73 velocity: 0
@42600 $177.5 Channel: 13 Note on, A4 key=69 velocity: 100
@42660 $177.75 Channel: 13 Note off, A4 key=69 velocity: 0
@42660 $177.75 Channel: 13 Note on, B4 key=71 velocity: 100
@42720 $178.0 Channel: 13 Note off, B4 key=71 velocity: 0
@42720 $178.0 Channel: 13 Note on, C#5 key=73 velocity: 100
@42780 $178.25 Channel: 13 Note off, C#5 key=73 velocity: 0
@42780 $178.25 Channel: 13 Note on, B4 key=71 velocity: 100
@42840 $178.5 Channel: 13 Note off, B4 key=71 velocity: 0
@42840 $178.5 Channel: 13 Note on, A4 key=69 velocity: 100
@42900 $178.75 Channel: 13 Note off, A4 key=69 velocity: 0
@42900 $178.75 Channel: 13 Note on, G#4 key=68 velocity: 100
@42960 $179.0 Channel: 13 Note off, G#4 key=68 velocity: 0
@42960 $179.0 Channel: 13 Note on, F#4 key=66 velocity: 100
@43020 $179.25 Channel: 13 Note off, F#4 key=66 velocity: 0
@43020 $179.25 Channel: 13 Note on, G#4 key=68 velocity: 100
@43080 $179.5 Channel: 13 Note off, G#4 key=68 velocity: 0
@43080 $179.5 Channel: 13 Note on, A4 key=69 velocity: 100
@43140 $179.75 Channel: 13 Note off, A4 key=69 velocity: 0
@43140 $179.75 Channel: 13 Note on, B4 key=71 velocity: 100
@43200 $180.0 Channel: 13 Note off, B4 key=71 velocity: 0
@43200 $180.0 Channel: 13 Note on, G#4 key=68 velocity: 100
@43260 $180.25 Channel: 13 Note off, G#4 key=68 velocity: 0
@43260 $180.25 Channel: 13 Note on, E4 key=64 velocity: 100
@43320 $180.5 Channel: 13 Note off, E4 key=64 velocity: 0
@43320 $180.5 Channel: 13 Note on, A4 key=69 velocity: 100
@43380 $180.75 Channel: 13 Note off, A4 key=69 velocity: 0
@43380 $180.75 Channel: 13 Note on, B4 key=71 velocity: 100
@43440 $181.0 Channel: 13 Note off, B4 key=71 velocity: 0
@43440 $181.0 Channel: 13 Note on, C#5 key=73 velocity: 100
@43560 $181.5 Channel: 13 Note off, C#5 key=73 velocity: 0
@43560 $181.5 Channel: 13 Note on, A4 key=69 velocity: 100
@43620 $181.75 Channel: 13 Note off, A4 key=69 velocity: 0
@43620 $181.75 Channel: 13 Note on, B4 key=71 velocity: 100
@43680 $182.0 Channel: 13 Note off, B4 key=71 velocity: 0
@43680 $182.0 Channel: 13 Note on, C#5 key=73 velocity: 100
@43740 $182.25 Channel: 13 Note off, C#5 key=73 velocity: 0
@43740 $182.25 Channel: 13 Note on, B4 key=71 velocity: 100
@43800 $182.5 Channel: 13 Note off, B4 key=71 velocity: 0
@43800 $182.5 Channel: 13 Note on, A4 key=69 velocity: 100
@43860 $182.75 Channel: 13 Note off, A4 key=69 velocity: 0
@43860 $182.75 Channel: 13 Note on, G#4 key=68 velocity: 100
@43920 $183.0 Channel: 13 Note off, G#4 key=68 velocity: 0
@43920 $183.0 Channel: 13 Note on, F#4 key=66 velocity: 100
@43980 $183.25 Channel: 13 Note off, F#4 key=66 velocity: 0
@43980 $183.25 Channel: 13 Note on, B4 key=71 velocity: 100
@44040 $183.5 Channel: 13 Note off, B4 key=71 velocity: 0
@44040 $183.5 Channel: 13 Note on, G#4 key=68 velocity: 100
@44100 $183.75 Channel: 13 Note off, G#4 key=68 velocity: 0
@44100 $183.75 Channel: 13 Note on, E4 key=64 velocity: 100
@44160 $184.0 Channel: 13 Note off, E4 key=64 velocity: 0
@44160 $184.0 Channel: 13 Note on, A4 key=69 velocity: 100
@44280 $184.5 Channel: 13 Note off, A4 key=69 velocity: 0
@44280 $184.5 Channel: 13 Note on, A4 key=69 velocity: 100
@44340 $184.75 Channel: 13 Note off, A4 key=69 velocity: 0
@44340 $184.75 Channel: 13 Note on, B4 key=71 velocity: 100
@44400 $185.0 Channel: 13 Note off, B4 key=71 velocity: 0
@44400 $185.0 Channel: 13 Note on, C#5 key=73 velocity: 100
@44520 $185.5 Channel: 13 Note off, C#5 key=73 velocity: 0
@44520 $185.5 Channel: 13 Note on, A4 key=69 velocity: 100
@44580 $185.75 Channel: 13 Note off, A4 key=69 velocity: 0
@44580 $185.75 Channel: 13 Note on, B4 key=71 velocity: 100
@44640 $186.0 Channel: 13 Note off, B4 key=71 velocity: 0
@44640 $186.0 Channel: 13 Note on, C#5 key=73 velocity: 100
@44700 $186.25 Channel: 13 Note off, C#5 key=73 velocity: 0
@44700 $186.25 Channel: 13 Note on, B4 key=71 velocity: 100
@44760 $186.5 Channel: 13 Note off, B4 key=71 velocity: 0
@44760 $186.5 Channel: 13 Note on, A4 key=69 velocity: 100
@44820 $186.75 Channel: 13 Note off, A4 key=69 velocity: 0
@44820 $186.75 Channel: 13 Note on, G#4 key=68 velocity: 100
@44880 $187.0 Channel: 13 Note off, G#4 key=68 velocity: 0
@44880 $187.0 Channel: 13 Note on, F#4 key=66 velocity: 100
@44940 $187.25 Channel: 13 Note off, F#4 key=66 velocity: 0
@44940 $187.25 Channel: 13 Note on, G#4 key=68 velocity: 100
@45000 $187.5 Channel: 13 Note off, G#4 key=68 velocity: 0
@45000 $187.5 Channel: 13 Note on, A4 key=69 velocity: 100
@45060 $187.75 Channel: 13 Note off, A4 key=69 velocity: 0
@45060 $187.75 Channel: 13 Note on, B4 key=71 velocity: 100
@45120 $188.0 Channel: 13 Note off, B4 key=71 velocity: 0
@45120 $188.0 Channel: 13 Note on, G#4 key=68 velocity: 100
@45180 $188.25 Channel: 13 Note off, G#4 key=68 velocity: 0
@45180 $188.25 Channel: 13 Note on, E4 key=64 velocity: 100
@45240 $188.5 Channel: 13 Note off, E4 key=64 velocity: 0
@45240 $188.5 Channel: 13 Note on, A4 key=69 velocity: 100
@45300 $188.75 Channel: 13 Note off, A4 key=69 velocity: 0
@45300 $188.75 Channel: 13 Note on, B4 key=71 velocity: 100
@45360 $189.0 Channel: 13 Note off, B4 key=71 velocity: 0
@45360 $189.0 Channel: 13 Note on, C#5 key=73 velocity: 100
@45480 $189.5 Channel: 13 Note off, C#5 key=73 velocity: 0
@45480 $189.5 Channel: 13 Note on, A4 key=69 velocity: 100
@45540 $189.75 Channel: 13 Note off, A4 key=69 velocity: 0
@45540 $189.75 Channel: 13 Note on, B4 key=71 velocity: 100
@45600 $190.0 Channel: 13 Note off, B4 key=71 velocity: 0
@45600 $190.0 Channel: 13 Note on, C#5 key=73 velocity: 100
@45660 $190.25 Channel: 13 Note off, C#5 key=73 velocity: 0
@45660 $190.25 Channel: 13 Note on, B4 key=71 velocity: 100
@45720 $190.5 Channel: 13 Note off, B4 key=71 velocity: 0
@45720 $190.5 Channel: 13 Note on, A4 key=69 velocity: 100
@45780 $190.75 Channel: 13 Note off, A4 key=69 velocity: 0
@45780 $190.75 Channel: 13 Note on, G#4 key=68 velocity: 100
@45840 $191.0 Channel: 13 Note off, G#4 key=68 velocity: 0
@45840 $191.0 Channel: 13 Note on, F#4 key=66 velocity: 100
@45900 $191.25 Channel: 13 Note off, F#4 key=66 velocity: 0
@45900 $191.25 Channel: 13 Note on, B4 key=71 velocity: 100
@45960 $191.5 Channel: 13 Note off, B4 key=71 velocity: 0
@45960 $191.5 Channel: 13 Note on, G#4 key=68 velocity: 100
@46020 $191.75 Channel: 13 Note off, G#4 key=68 velocity: 0
@46020 $191.75 Channel: 13 Note on, E4 key=64 velocity: 100
@46080 $192.0 Channel: 13 Note off, E4 key=64 velocity: 0
@46080 $192.0 Channel: 13 Note on, A4 key=69 velocity: 100
@46200 $192.5 Channel: 13 Note off, A4 key=69 velocity: 0
@46200 $192.5 Channel: 13 Note on, A4 key=69 velocity: 127
@46200 $192.5 Channel: 13 Note on, C#5 key=73 velocity: 127
@46290 $192.875 Channel: 13 Note off, C#5 key=73 velocity: 0
@46290 $192.875 Channel: 13 Note off, A4 key=69 velocity: 0
@46290 $192.875 Channel: 13 Note on, A4 key=69 velocity: 127
@46290 $192.875 Channel: 13 Note on, C#5 key=73 velocity: 127
@46320 $193.0 Channel: 13 Note off, C#5 key=73 velocity: 0
@46320 $193.0 Channel: 13 Note off, A4 key=69 velocity: 0
@46320 $193.0 Channel: 13 Note on, A4 key=69 velocity: 127
@46320 $193.0 Channel: 13 Note on, C#5 key=73 velocity: 127
@46560 $194.0 Channel: 13 Note off, C#5 key=73 velocity: 0
@46560 $194.0 Channel: 13 Note off, A4 key=69 velocity: 0
@46560 $194.0 Channel: 13 Note on, A4 key=69 velocity: 127
@46560 $194.0 Channel: 13 Note on, C#5 key=73 velocity: 127
@46800 $195.0 Channel: 13 Note off, C#5 key=73 velocity: 0
@46800 $195.0 Channel: 13 Note off, A4 key=69 velocity: 0
@46800 $195.0 Channel: 13 Note on, D5 key=74 velocity: 127
@46830 $195.125 Channel: 13 Note off, D5 key=74 velocity: 0
@46830 $195.125 Channel: 13 Note on, C#5 key=73 velocity: 127
@46860 $195.25 Channel: 13 Note off, C#5 key=73 velocity: 0
@46860 $195.25 Channel: 13 Note on, B4 key=71 velocity: 127
@46890 $195.375 Channel: 13 Note off, B4 key=71 velocity: 0
@46890 $195.375 Channel: 13 Note on, C#5 key=73 velocity: 127
@46920 $195.5 Channel: 13 Note off, C#5 key=73 velocity: 0
@46920 $195.5 Channel: 13 Note on, D5 key=74 velocity: 127
@46950 $195.625 Channel: 13 Note off, D5 key=74 velocity: 0
@46950 $195.625 Channel: 13 Note on, C#5 key=73 velocity: 127
@46980 $195.75 Channel: 13 Note off, C#5 key=73 velocity: 0
@46980 $195.75 Channel: 13 Note on, B4 key=71 velocity: 127
@47010 $195.875 Channel: 13 Note off, B4 key=71 velocity: 0
@47010 $195.875 Channel: 13 Note on, C#5 key=73 velocity: 127
@47040 $196.0 Channel: 13 Note off, C#5 key=73 velocity: 0
@47040 $196.0 Channel: 13 Note on, A4 key=69 velocity: 127
@47040 $196.0 Channel: 13 Note on, D5 key=74 velocity: 127
@47280 $197.0 Channel: 13 Note off, D5 key=74 velocity: 0
@47280 $197.0 Channel: 13 Note off, A4 key=69 velocity: 0
@47280 $197.0 Channel: 13 Note on, D5 key=74 velocity: 127
@47295 $197.0625 Channel: 13 Note off, D5 key=74 velocity: 0
@47295 $197.0625 Channel: 13 Note on, A4 key=69 velocity: 127
@47295 $197.0625 Channel: 13 Note on, C#5 key=73 velocity: 127
@47340 $197.25 Channel: 13 Note off, C#5 key=73 velocity: 0
@47340 $197.25 Channel: 13 Note off, A4 key=69 velocity: 0
@47340 $197.25 Channel: 13 Note on, D5 key=74 velocity: 127
@47355 $197.3125 Channel: 13 Note off, D5 key=74 velocity: 0
@47355 $197.3125 Channel: 13 Note on, A4 key=69 velocity: 127
@47355 $197.3125 Channel: 13 Note on, C#5 key=73 velocity: 127
@47400 $197.5 Channel: 13 Note off, C#5 key=73 velocity: 0
@47400 $197.5 Channel: 13 Note off, A4 key=69 velocity: 0
@47400 $197.5 Channel: 13 Note on, D5 key=74 velocity: 127
@47415 $197.5625 Channel: 13 Note off, D5 key=74 velocity: 0
@47415 $197.5625 Channel: 13 Note on, A4 key=69 velocity: 127
@47415 $197.5625 Channel: 13 Note on, C#5 key=73 velocity: 127
@47460 $197.75 Channel: 13 Note off, C#5 key=73 velocity: 0
@47460 $197.75 Channel: 13 Note off, A4 key=69 velocity: 0
@47460 $197.75 Channel: 13 Note on, D5 key=74 velocity: 127
@47475 $197.8125 Channel: 13 Note off, D5 key=74 velocity: 0
@47475 $197.8125 Channel: 13 Note on, A4 key=69 velocity: 127
@47475 $197.8125 Channel: 13 Note on, C#5 key=73 velocity: 127
@47520 $198.0 Channel: 13 Note off, C#5 key=73 velocity: 0
@47520 $198.0 Channel: 13 Note off, A4 key=69 velocity: 0
@47520 $198.0 Channel: 13 Note on, G#4 key=68 velocity: 127
@47520 $198.0 Channel: 13 Note on, E4 key=64 velocity: 127
@47520 $198.0 Channel: 13 Note on, B4 key=71 velocity: 127
@47700 $198.75 Channel: 13 Note off, B4 key=71 velocity: 0
@47700 $198.75 Channel: 13 Note on, E5 key=76 velocity: 127
@47760 $199.0 Channel: 13 Note off, E5 key=76 velocity: 0
@47760 $199.0 Channel: 13 Note off, E4 key=64 velocity: 0
@47760 $199.0 Channel: 13 Note off, G#4 key=68 velocity: 0
@47760 $199.0 Channel: 13 Note on, G#4 key=68 velocity: 127
@47760 $199.0 Channel: 13 Note on, C#5 key=73 velocity: 127
@48000 $200.0 Channel: 13 Note off, C#5 key=73 velocity: 0
@48000 $200.0 Channel: 13 Note off, G#4 key=68 velocity: 0
@48000 $200.0 Channel: 13 Note on, G#4 key=68 velocity: 127
@48000 $200.0 Channel: 13 Note on, C#5 key=73 velocity: 127
@48240 $201.0 Channel: 13 Note off, C#5 key=73 velocity: 0
@48240 $201.0 Channel: 13 Note off, G#4 key=68 velocity: 0
@48240 $201.0 Channel: 13 Note on, D5 key=74 velocity: 127
@48270 $201.125 Channel: 13 Note off, D5 key=74 velocity: 0
@48270 $201.125 Channel: 13 Note on, C#5 key=73 velocity: 127
@48300 $201.25 Channel: 13 Note off, C#5 key=73 velocity: 0
@48300 $201.25 Channel: 13 Note on, B4 key=71 velocity: 127
@48330 $201.375 Channel: 13 Note off, B4 key=71 velocity: 0
@48330 $201.375 Channel: 13 Note on, C#5 key=73 velocity: 127
@48360 $201.5 Channel: 13 Note off, C#5 key=73 velocity: 0
@48360 $201.5 Channel: 13 Note on, D5 key=74 velocity: 127
@48390 $201.625 Channel: 13 Note off, D5 key=74 velocity: 0
@48390 $201.625 Channel: 13 Note on, C#5 key=73 velocity: 127
@48420 $201.75 Channel: 13 Note off, C#5 key=73 velocity: 0
@48420 $201.75 Channel: 13 Note on, B4 key=71 velocity: 127
@48450 $201.875 Channel: 13 Note off, B4 key=71 velocity: 0
@48450 $201.875 Channel: 13 Note on, C#5 key=73 velocity: 127
@48480 $202.0 Channel: 13 Note off, C#5 key=73 velocity: 0
@48480 $202.0 Channel: 13 Note on, A4 key=69 velocity: 127
@48480 $202.0 Channel: 13 Note on, D5 key=74 velocity: 127
@48720 $203.0 Channel: 13 Note off, D5 key=74 velocity: 0
@48720 $203.0 Channel: 13 Note off, A4 key=69 velocity: 0
@48720 $203.0 Channel: 13 Note on, D5 key=74 velocity: 127
@48735 $203.0625 Channel: 13 Note off, D5 key=74 velocity: 0
@48735 $203.0625 Channel: 13 Note on, A4 key=69 velocity: 127
@48735 $203.0625 Channel: 13 Note on, C#5 key=73 velocity: 127
@48960 $204.0 Channel: 13 Note off, C#5 key=73 velocity: 0
@48960 $204.0 Channel: 13 Note off, A4 key=69 velocity: 0
@48960 $204.0 Channel: 13 Note on, C#5 key=73 velocity: 127
@48975 $204.0625 Channel: 13 Note off, C#5 key=73 velocity: 0
@48975 $204.0625 Channel: 13 Note on, G#4 key=68 velocity: 127
@48975 $204.0625 Channel: 13 Note on, B4 key=71 velocity: 127
@49020 $204.25 Channel: 13 Note off, B4 key=71 velocity: 0
@49020 $204.25 Channel: 13 Note off, G#4 key=68 velocity: 0
@49020 $204.25 Channel: 13 Note on, C#5 key=73 velocity: 127
@49035 $204.3125 Channel: 13 Note off, C#5 key=73 velocity: 0
@49035 $204.3125 Channel: 13 Note on, G#4 key=68 velocity: 127
@49035 $204.3125 Channel: 13 Note on, B4 key=71 velocity: 127
@49080 $204.5 Channel: 13 Note off, B4 key=71 velocity: 0
@49080 $204.5 Channel: 13 Note off, G#4 key=68 velocity: 0
@49080 $204.5 Channel: 13 Note on, C#5 key=73 velocity: 127
@49095 $204.5625 Channel: 13 Note off, C#5 key=73 velocity: 0
@49095 $204.5625 Channel: 13 Note on, G#4 key=68 velocity: 127
@49095 $204.5625 Channel: 13 Note on, B4 key=71 velocity: 127
@49140 $204.75 Channel: 13 Note off, B4 key=71 velocity: 0
@49140 $204.75 Channel: 13 Note off, G#4 key=68 velocity: 0
@49140 $204.75 Channel: 13 Note on, C#5 key=73 velocity: 127
@49155 $204.8125 Channel: 13 Note off, C#5 key=73 velocity: 0
@49155 $204.8125 Channel: 13 Note on, G#4 key=68 velocity: 127
@49155 $204.8125 Channel: 13 Note on, B4 key=71 velocity: 127
@49200 $205.0 Channel: 13 Note off, B4 key=71 velocity: 0
@49200 $205.0 Channel: 13 Note off, G#4 key=68 velocity: 0
@49200 $205.0 Channel: 13 Note on, E4 key=64 velocity: 127
@49200 $205.0 Channel: 13 Note on, A4 key=69 velocity: 127
@49320 $205.5 Channel: 13 Note off, A4 key=69 velocity: 0
@49320 $205.5 Channel: 13 Note off, E4 key=64 velocity: 0
@49320 $205.5 Channel: 13 Note on, E4 key=64 velocity: 127
@49335 $205.5625 Channel: 13 Note off, E4 key=64 velocity: 0
@49335 $205.5625 Channel: 13 Note on, A4 key=69 velocity: 127
@49350 $205.625 Channel: 13 Note off, A4 key=69 velocity: 0
@49350 $205.625 Channel: 13 Note on, C#5 key=73 velocity: 127
@49410 $205.875 Channel: 13 Note off, C#5 key=73 velocity: 0
@49410 $205.875 Channel: 13 Note on, C#5 key=73 velocity: 127
@49440 $206.0 Channel: 13 Note off, C#5 key=73 velocity: 0
@49440 $206.0 Channel: 13 Note on, E4 key=64 velocity: 127
@49455 $206.0625 Channel: 13 Note off, E4 key=64 velocity: 0
@49455 $206.0625 Channel: 13 Note on, A4 key=69 velocity: 127
@49470 $206.125 Channel: 13 Note off, A4 key=69 velocity: 0
@49470 $206.125 Channel: 13 Note on, C#5 key=73 velocity: 127
@49680 $207.0 Channel: 13 Note off, C#5 key=73 velocity: 0
@49680 $207.0 Channel: 13 Note on, E4 key=64 velocity: 127
@49695 $207.0625 Channel: 13 Note off, E4 key=64 velocity: 0
@49695 $207.0625 Channel: 13 Note on, A4 key=69 velocity: 127
@49710 $207.125 Channel: 13 Note off, A4 key=69 velocity: 0
@49710 $207.125 Channel: 13 Note on, C#5 key=73 velocity: 127
@49920 $208.0 Channel: 13 Note off, C#5 key=73 velocity: 0
@49920 $208.0 Channel: 13 Note on, D5 key=74 velocity: 127
@49950 $208.125 Channel: 13 Note off, D5 key=74 velocity: 0
@49950 $208.125 Channel: 13 Note on, C#5 key=73 velocity: 127
@49980 $208.25 Channel: 13 Note off, C#5 key=73 velocity: 0
@49980 $208.25 Channel: 13 Note on, B4 key=71 velocity: 127
@50010 $208.375 Channel: 13 Note off, B4 key=71 velocity: 0
@50010 $208.375 Channel: 13 Note on, C#5 key=73 velocity: 127
@50040 $208.5 Channel: 13 Note off, C#5 key=73 velocity: 0
@50040 $208.5 Channel: 13 Note on, D5 key=74 velocity: 127
@50070 $208.625 Channel: 13 Note off, D5 key=74 velocity: 0
@50070 $208.625 Channel: 13 Note on, C#5 key=73 velocity: 127
@50100 $208.75 Channel: 13 Note off, C#5 key=73 velocity: 0
@50100 $208.75 Channel: 13 Note on, B4 key=71 velocity: 127
@50130 $208.875 Channel: 13 Note off, B4 key=71 velocity: 0
@50130 $208.875 Channel: 13 Note on, C#5 key=73 velocity: 127
@50160 $209.0 Channel: 13 Note off, C#5 key=73 velocity: 0
@50160 $209.0 Channel: 13 Note on, D5 key=74 velocity: 127
@50400 $210.0 Channel: 13 Note off, D5 key=74 velocity: 0
@50400 $210.0 Channel: 13 Note on, D5 key=74 velocity: 127
@50415 $210.0625 Channel: 13 Note off, D5 key=74 velocity: 0
@50415 $210.0625 Channel: 13 Note on, C#5 key=73 velocity: 127
@50460 $210.25 Channel: 13 Note off, C#5 key=73 velocity: 0
@50460 $210.25 Channel: 13 Note on, D5 key=74 velocity: 127
@50475 $210.3125 Channel: 13 Note off, D5 key=74 velocity: 0
@50475 $210.3125 Channel: 13 Note on, C#5 key=73 velocity: 127
@50520 $210.5 Channel: 13 Note off, C#5 key=73 velocity: 0
@50520 $210.5 Channel: 13 Note on, D5 key=74 velocity: 127
@50535 $210.5625 Channel: 13 Note off, D5 key=74 velocity: 0
@50535 $210.5625 Channel: 13 Note on, C#5 key=73 velocity: 127
@50580 $210.75 Channel: 13 Note off, C#5 key=73 velocity: 0
@50580 $210.75 Channel: 13 Note on, D5 key=74 velocity: 127
@50595 $210.8125 Channel: 13 Note off, D5 key=74 velocity: 0
@50595 $210.8125 Channel: 13 Note on, C#5 key=73 velocity: 127
@50640 $211.0 Channel: 13 Note off, C#5 key=73 velocity: 0
@50640 $211.0 Channel: 13 Note on, B4 key=71 velocity: 127
@50820 $211.75 Channel: 13 Note off, B4 key=71 velocity: 0
@50820 $211.75 Channel: 13 Note on, E5 key=76 velocity: 127
@50880 $212.0 Channel: 13 Note off, E5 key=76 velocity: 0
@50880 $212.0 Channel: 13 Note on, C#5 key=73 velocity: 127
@51120 $213.0 Channel: 13 Note off, C#5 key=73 velocity: 0
@51120 $213.0 Channel: 13 Note on, C#5 key=73 velocity: 127
@51360 $214.0 Channel: 13 Note off, C#5 key=73 velocity: 0
@51360 $214.0 Channel: 13 Note on, D5 key=74 velocity: 127
@51390 $214.125 Channel: 13 Note off, D5 key=74 velocity: 0
@51390 $214.125 Channel: 13 Note on, C#5 key=73 velocity: 127
@51420 $214.25 Channel: 13 Note off, C#5 key=73 velocity: 0
@51420 $214.25 Channel: 13 Note on, B4 key=71 velocity: 127
@51450 $214.375 Channel: 13 Note off, B4 key=71 velocity: 0
@51450 $214.375 Channel: 13 Note on, C#5 key=73 velocity: 127
@51480 $214.5 Channel: 13 Note off, C#5 key=73 velocity: 0
@51480 $214.5 Channel: 13 Note on, D5 key=74 velocity: 127
@51510 $214.625 Channel: 13 Note off, D5 key=74 velocity: 0
@51510 $214.625 Channel: 13 Note on, C#5 key=73 velocity: 127
@51540 $214.75 Channel: 13 Note off, C#5 key=73 velocity: 0
@51540 $214.75 Channel: 13 Note on, B4 key=71 velocity: 127
@51570 $214.875 Channel: 13 Note off, B4 key=71 velocity: 0
@51570 $214.875 Channel: 13 Note on, C#5 key=73 velocity: 127
@51600 $215.0 Channel: 13 Note off, C#5 key=73 velocity: 0
@51600 $215.0 Channel: 13 Note on, D5 key=74 velocity: 127
@51600 $215.0 Channel: 13 Note on, A4 key=69 velocity: 127
@51840 $216.0 Channel: 13 Note off, A4 key=69 velocity: 0
@51840 $216.0 Channel: 13 Note off, D5 key=74 velocity: 0
@51840 $216.0 Channel: 13 Note on, D5 key=74 velocity: 127
@51855 $216.0625 Channel: 13 Note off, D5 key=74 velocity: 0
@51855 $216.0625 Channel: 13 Note on, A4 key=69 velocity: 127
@51855 $216.0625 Channel: 13 Note on, C#5 key=73 velocity: 127
@52080 $217.0 Channel: 13 Note off, C#5 key=73 velocity: 0
@52080 $217.0 Channel: 13 Note off, A4 key=69 velocity: 0
@52080 $217.0 Channel: 13 Note on, C#5 key=73 velocity: 127
@52095 $217.0625 Channel: 13 Note off, C#5 key=73 velocity: 0
@52095 $217.0625 Channel: 13 Note on, G#4 key=68 velocity: 127
@52095 $217.0625 Channel: 13 Note on, B4 key=71 velocity: 127
@52140 $217.25 Channel: 13 Note off, B4 key=71 velocity: 0
@52140 $217.25 Channel: 13 Note off, G#4 key=68 velocity: 0
@52140 $217.25 Channel: 13 Note on, C#5 key=73 velocity: 127
@52155 $217.3125 Channel: 13 Note off, C#5 key=73 velocity: 0
@52155 $217.3125 Channel: 13 Note on, G#4 key=68 velocity: 127
@52155 $217.3125 Channel: 13 Note on, B4 key=71 velocity: 127
@52200 $217.5 Channel: 13 Note off, B4 key=71 velocity: 0
@52200 $217.5 Channel: 13 Note off, G#4 key=68 velocity: 0
@52200 $217.5 Channel: 13 Note on, C#5 key=73 velocity: 127
@52215 $217.5625 Channel: 13 Note off, C#5 key=73 velocity: 0
@52215 $217.5625 Channel: 13 Note on, G#4 key=68 velocity: 127
@52215 $217.5625 Channel: 13 Note on, B4 key=71 velocity: 127
@52260 $217.75 Channel: 13 Note off, B4 key=71 velocity: 0
@52260 $217.75 Channel: 13 Note off, G#4 key=68 velocity: 0
@52260 $217.75 Channel: 13 Note on, C#5 key=73 velocity: 127
@52275 $217.8125 Channel: 13 Note off, C#5 key=73 velocity: 0
@52275 $217.8125 Channel: 13 Note on, G#4 key=68 velocity: 127
@52275 $217.8125 Channel: 13 Note on, B4 key=71 velocity: 127
@52320 $218.0 Channel: 13 Note off, B4 key=71 velocity: 0
@52320 $218.0 Channel: 13 Note off, G#4 key=68 velocity: 0
@52320 $218.0 Channel: 13 Note on, E4 key=64 velocity: 127
@52320 $218.0 Channel: 13 Note on, A4 key=69 velocity: 127
@52500 $218.75 Channel: 13 Note off, A4 key=69 velocity: 0
@52500 $218.75 Channel: 13 Note off, E4 key=64 velocity: 0
@52500 $218.75 Channel: 13 Note on, C#5 key=73 velocity: 127
@52560 $219.0 Channel: 13 Note off, C#5 key=73 velocity: 0
@52560 $219.0 Channel: 13 Note on, A4 key=69 velocity: 127
@52740 $219.75 Channel: 13 Note off, A4 key=69 velocity: 0
@52740 $219.75 Channel: 13 Note on, E5 key=76 velocity: 127
@52800 $220.0 Channel: 13 Note off, E5 key=76 velocity: 0
@52800 $220.0 Channel: 13 Note on, A4 key=69 velocity: 127
@52980 $220.75 Channel: 13 Note off, A4 key=69 velocity: 0
@52980 $220.75 Channel: 13 Note on, C#5 key=73 velocity: 127
@53040 $221.0 Channel: 13 Note off, C#5 key=73 velocity: 0
@53040 $221.0 Channel: 13 Note on, A4 key=69 velocity: 127
@53085 $221.1875 Channel: 13 Note off, A4 key=69 velocity: 0
@53100 $221.25 Channel: 13 Note on, C#5 key=73 velocity: 127
@53145 $221.4375 Channel: 13 Note off, C#5 key=73 velocity: 0
@53160 $221.5 Channel: 13 Note on, A4 key=69 velocity: 127
@53205 $221.6875 Channel: 13 Note off, A4 key=69 velocity: 0
@53220 $221.75 Channel: 13 Note on, E5 key=76 velocity: 127
@53265 $221.9375 Channel: 13 Note off, E5 key=76 velocity: 0
@53280 $222.0 Channel: 13 Note on, A4 key=69 velocity: 127
@53340 $222.25 Channel: 13 Note off, A4 key=69 velocity: 0
@53400 $222.5 Channel: 13 Note on, E4 key=64 velocity: 127
@53400 $222.5 Channel: 13 Note on, A4 key=69 velocity: 127
@53640 $223.5 Channel: 13 Note off, A4 key=69 velocity: 0
@53640 $223.5 Channel: 13 Note off, E4 key=64 velocity: 0
@53760 $224.0 Channel: 13 Note on, E4 key=64 velocity: 127
@53760 $224.0 Channel: 13 Note on, A4 key=69 velocity: 127
@54240 $226.0 Channel: 13 Note off, A4 key=69 velocity: 0
@54240 $226.0 Channel: 13 Note off, E4 key=64 velocity: 0
@54240 $226.0 Other meta message: class javax.sound.midi.Track$ImmutableEndOfTrack

Track 15: size = 858
@0 $0.0 Other meta message: class javax.sound.midi.MetaMessage
@0 $0.0 Other meta message: class javax.sound.midi.MetaMessage
@0 $0.0 Channel: 14 Other short message:192
@0 $0.0 Channel: 14 Control Change message
@0 $0.0 Channel: 14 Control Change message
@11640 $48.5 Channel: 14 Note on, A4 key=69 velocity: 100
@11685 $48.6875 Channel: 14 Note off, A4 key=69 velocity: 0
@11700 $48.75 Channel: 14 Note on, B4 key=71 velocity: 100
@11745 $48.9375 Channel: 14 Note off, B4 key=71 velocity: 0
@11760 $49.0 Channel: 14 Note on, C#5 key=73 velocity: 100
@11880 $49.5 Channel: 14 Note off, C#5 key=73 velocity: 0
@11880 $49.5 Channel: 14 Note on, A4 key=69 velocity: 100
@11925 $49.6875 Channel: 14 Note off, A4 key=69 velocity: 0
@11940 $49.75 Channel: 14 Note on, B4 key=71 velocity: 100
@11985 $49.9375 Channel: 14 Note off, B4 key=71 velocity: 0
@12000 $50.0 Channel: 14 Note on, C#5 key=73 velocity: 100
@12030 $50.125 Channel: 14 Note off, C#5 key=73 velocity: 0
@12060 $50.25 Channel: 14 Note on, B4 key=71 velocity: 100
@12090 $50.375 Channel: 14 Note off, B4 key=71 velocity: 0
@12120 $50.5 Channel: 14 Note on, A4 key=69 velocity: 100
@12150 $50.625 Channel: 14 Note off, A4 key=69 velocity: 0
@12180 $50.75 Channel: 14 Note on, G#4 key=68 velocity: 100
@12210 $50.875 Channel: 14 Note off, G#4 key=68 velocity: 0
@12240 $51.0 Channel: 14 Note on, F#4 key=66 velocity: 100
@12270 $51.125 Channel: 14 Note off, F#4 key=66 velocity: 0
@12300 $51.25 Channel: 14 Note on, G#4 key=68 velocity: 100
@12330 $51.375 Channel: 14 Note off, G#4 key=68 velocity: 0
@12360 $51.5 Channel: 14 Note on, A4 key=69 velocity: 100
@12390 $51.625 Channel: 14 Note off, A4 key=69 velocity: 0
@12420 $51.75 Channel: 14 Note on, B4 key=71 velocity: 100
@12450 $51.875 Channel: 14 Note off, B4 key=71 velocity: 0
@12480 $52.0 Channel: 14 Note on, G#4 key=68 velocity: 100
@12540 $52.25 Channel: 14 Note off, G#4 key=68 velocity: 0
@12540 $52.25 Channel: 14 Note on, E4 key=64 velocity: 100
@12570 $52.375 Channel: 14 Note off, E4 key=64 velocity: 0
@12600 $52.5 Channel: 14 Note on, A4 key=69 velocity: 100
@12630 $52.625 Channel: 14 Note off, A4 key=69 velocity: 0
@12660 $52.75 Channel: 14 Note on, B4 key=71 velocity: 100
@12690 $52.875 Channel: 14 Note off, B4 key=71 velocity: 0
@12720 $53.0 Channel: 14 Note on, C#5 key=73 velocity: 100
@12840 $53.5 Channel: 14 Note off, C#5 key=73 velocity: 0
@12840 $53.5 Channel: 14 Note on, A4 key=69 velocity: 100
@12885 $53.6875 Channel: 14 Note off, A4 key=69 velocity: 0
@12900 $53.75 Channel: 14 Note on, B4 key=71 velocity: 100
@12945 $53.9375 Channel: 14 Note off, B4 key=71 velocity: 0
@12960 $54.0 Channel: 14 Note on, C#5 key=73 velocity: 100
@13005 $54.1875 Channel: 14 Note off, C#5 key=73 velocity: 0
@13020 $54.25 Channel: 14 Note on, B4 key=71 velocity: 100
@13065 $54.4375 Channel: 14 Note off, B4 key=71 velocity: 0
@13080 $54.5 Channel: 14 Note on, A4 key=69 velocity: 100
@13125 $54.6875 Channel: 14 Note off, A4 key=69 velocity: 0
@13140 $54.75 Channel: 14 Note on, G#4 key=68 velocity: 100
@13185 $54.9375 Channel: 14 Note off, G#4 key=68 velocity: 0
@13200 $55.0 Channel: 14 Note on, F#4 key=66 velocity: 100
@13245 $55.1875 Channel: 14 Note off, F#4 key=66 velocity: 0
@13260 $55.25 Channel: 14 Note on, B4 key=71 velocity: 100
@13305 $55.4375 Channel: 14 Note off, B4 key=71 velocity: 0
@13320 $55.5 Channel: 14 Note on, G#4 key=68 velocity: 100
@13365 $55.6875 Channel: 14 Note off, G#4 key=68 velocity: 0
@13380 $55.75 Channel: 14 Note on, E4 key=64 velocity: 100
@13425 $55.9375 Channel: 14 Note off, E4 key=64 velocity: 0
@13440 $56.0 Channel: 14 Note on, A4 key=69 velocity: 100
@13560 $56.5 Channel: 14 Note off, A4 key=69 velocity: 0
@13560 $56.5 Channel: 14 Note on, A4 key=69 velocity: 100
@13605 $56.6875 Channel: 14 Note off, A4 key=69 velocity: 0
@13620 $56.75 Channel: 14 Note on, B4 key=71 velocity: 100
@13665 $56.9375 Channel: 14 Note off, B4 key=71 velocity: 0
@13680 $57.0 Channel: 14 Note on, C#5 key=73 velocity: 100
@13800 $57.5 Channel: 14 Note off, C#5 key=73 velocity: 0
@13800 $57.5 Channel: 14 Note on, A4 key=69 velocity: 100
@13845 $57.6875 Channel: 14 Note off, A4 key=69 velocity: 0
@13860 $57.75 Channel: 14 Note on, B4 key=71 velocity: 100
@13905 $57.9375 Channel: 14 Note off, B4 key=71 velocity: 0
@13920 $58.0 Channel: 14 Note on, C#5 key=73 velocity: 100
@13950 $58.125 Channel: 14 Note off, C#5 key=73 velocity: 0
@13980 $58.25 Channel: 14 Note on, B4 key=71 velocity: 100
@14010 $58.375 Channel: 14 Note off, B4 key=71 velocity: 0
@14040 $58.5 Channel: 14 Note on, A4 key=69 velocity: 100
@14070 $58.625 Channel: 14 Note off, A4 key=69 velocity: 0
@14100 $58.75 Channel: 14 Note on, G#4 key=68 velocity: 100
@14130 $58.875 Channel: 14 Note off, G#4 key=68 velocity: 0
@14160 $59.0 Channel: 14 Note on, F#4 key=66 velocity: 100
@14190 $59.125 Channel: 14 Note off, F#4 key=66 velocity: 0
@14220 $59.25 Channel: 14 Note on, G#4 key=68 velocity: 100
@14250 $59.375 Channel: 14 Note off, G#4 key=68 velocity: 0
@14280 $59.5 Channel: 14 Note on, A4 key=69 velocity: 100
@14310 $59.625 Channel: 14 Note off, A4 key=69 velocity: 0
@14340 $59.75 Channel: 14 Note on, B4 key=71 velocity: 100
@14370 $59.875 Channel: 14 Note off, B4 key=71 velocity: 0
@14400 $60.0 Channel: 14 Note on, G#4 key=68 velocity: 100
@14460 $60.25 Channel: 14 Note off, G#4 key=68 velocity: 0
@14460 $60.25 Channel: 14 Note on, E4 key=64 velocity: 100
@14490 $60.375 Channel: 14 Note off, E4 key=64 velocity: 0
@14520 $60.5 Channel: 14 Note on, A4 key=69 velocity: 100
@14550 $60.625 Channel: 14 Note off, A4 key=69 velocity: 0
@14580 $60.75 Channel: 14 Note on, B4 key=71 velocity: 100
@14610 $60.875 Channel: 14 Note off, B4 key=71 velocity: 0
@14640 $61.0 Channel: 14 Note on, C#5 key=73 velocity: 100
@14760 $61.5 Channel: 14 Note off, C#5 key=73 velocity: 0
@14760 $61.5 Channel: 14 Note on, A4 key=69 velocity: 100
@14805 $61.6875 Channel: 14 Note off, A4 key=69 velocity: 0
@14820 $61.75 Channel: 14 Note on, B4 key=71 velocity: 100
@14865 $61.9375 Channel: 14 Note off, B4 key=71 velocity: 0
@14880 $62.0 Channel: 14 Note on, C#5 key=73 velocity: 100
@14925 $62.1875 Channel: 14 Note off, C#5 key=73 velocity: 0
@14940 $62.25 Channel: 14 Note on, B4 key=71 velocity: 100
@14985 $62.4375 Channel: 14 Note off, B4 key=71 velocity: 0
@15000 $62.5 Channel: 14 Note on, A4 key=69 velocity: 100
@15045 $62.6875 Channel: 14 Note off, A4 key=69 velocity: 0
@15060 $62.75 Channel: 14 Note on, G#4 key=68 velocity: 100
@15105 $62.9375 Channel: 14 Note off, G#4 key=68 velocity: 0
@15120 $63.0 Channel: 14 Note on, F#4 key=66 velocity: 100
@15165 $63.1875 Channel: 14 Note off, F#4 key=66 velocity: 0
@15180 $63.25 Channel: 14 Note on, B4 key=71 velocity: 100
@15225 $63.4375 Channel: 14 Note off, B4 key=71 velocity: 0
@15240 $63.5 Channel: 14 Note on, G#4 key=68 velocity: 100
@15285 $63.6875 Channel: 14 Note off, G#4 key=68 velocity: 0
@15300 $63.75 Channel: 14 Note on, E4 key=64 velocity: 100
@15345 $63.9375 Channel: 14 Note off, E4 key=64 velocity: 0
@15360 $64.0 Channel: 14 Note on, A4 key=69 velocity: 100
@15480 $64.5 Channel: 14 Note off, A4 key=69 velocity: 0
@23160 $96.5 Channel: 14 Note on, E5 key=76 velocity: 100
@23190 $96.625 Channel: 14 Note off, E5 key=76 velocity: 0
@23190 $96.625 Channel: 14 Note on, D5 key=74 velocity: 100
@23220 $96.75 Channel: 14 Note off, D5 key=74 velocity: 0
@23220 $96.75 Channel: 14 Note on, C#5 key=73 velocity: 100
@23250 $96.875 Channel: 14 Note off, C#5 key=73 velocity: 0
@23250 $96.875 Channel: 14 Note on, B4 key=71 velocity: 100
@23280 $97.0 Channel: 14 Note off, B4 key=71 velocity: 0
@23280 $97.0 Channel: 14 Note on, A4 key=69 velocity: 100
@23310 $97.125 Channel: 14 Note off, A4 key=69 velocity: 0
@23310 $97.125 Channel: 14 Note on, B4 key=71 velocity: 100
@23340 $97.25 Channel: 14 Note off, B4 key=71 velocity: 0
@23340 $97.25 Channel: 14 Note on, C#5 key=73 velocity: 100
@23370 $97.375 Channel: 14 Note off, C#5 key=73 velocity: 0
@23370 $97.375 Channel: 14 Note on, D5 key=74 velocity: 100
@23400 $97.5 Channel: 14 Note off, D5 key=74 velocity: 0
@23400 $97.5 Channel: 14 Note on, E5 key=76 velocity: 100
@23430 $97.625 Channel: 14 Note off, E5 key=76 velocity: 0
@23430 $97.625 Channel: 14 Note on, F#5 key=78 velocity: 100
@23460 $97.75 Channel: 14 Note off, F#5 key=78 velocity: 0
@23460 $97.75 Channel: 14 Note on, G#5 key=80 velocity: 100
@23490 $97.875 Channel: 14 Note off, G#5 key=80 velocity: 0
@23490 $97.875 Channel: 14 Note on, A5 key=81 velocity: 100
@23520 $98.0 Channel: 14 Note off, A5 key=81 velocity: 0
@23520 $98.0 Channel: 14 Note on, A5 key=81 velocity: 100
@23550 $98.125 Channel: 14 Note off, A5 key=81 velocity: 0
@23550 $98.125 Channel: 14 Note on, G#5 key=80 velocity: 100
@23580 $98.25 Channel: 14 Note off, G#5 key=80 velocity: 0
@23580 $98.25 Channel: 14 Note on, F#5 key=78 velocity: 100
@23610 $98.375 Channel: 14 Note off, F#5 key=78 velocity: 0
@23610 $98.375 Channel: 14 Note on, E5 key=76 velocity: 100
@23640 $98.5 Channel: 14 Note off, E5 key=76 velocity: 0
@23640 $98.5 Channel: 14 Note on, E5 key=76 velocity: 100
@23670 $98.625 Channel: 14 Note off, E5 key=76 velocity: 0
@23670 $98.625 Channel: 14 Note on, D5 key=74 velocity: 100
@23700 $98.75 Channel: 14 Note off, D5 key=74 velocity: 0
@23700 $98.75 Channel: 14 Note on, C#5 key=73 velocity: 100
@23730 $98.875 Channel: 14 Note off, C#5 key=73 velocity: 0
@23730 $98.875 Channel: 14 Note on, B4 key=71 velocity: 100
@23760 $99.0 Channel: 14 Note off, B4 key=71 velocity: 0
@23760 $99.0 Channel: 14 Note on, A4 key=69 velocity: 100
@23790 $99.125 Channel: 14 Note off, A4 key=69 velocity: 0
@23790 $99.125 Channel: 14 Note on, B4 key=71 velocity: 100
@23820 $99.25 Channel: 14 Note off, B4 key=71 velocity: 0
@23820 $99.25 Channel: 14 Note on, C#5 key=73 velocity: 100
@23850 $99.375 Channel: 14 Note off, C#5 key=73 velocity: 0
@23850 $99.375 Channel: 14 Note on, D5 key=74 velocity: 100
@23880 $99.5 Channel: 14 Note off, D5 key=74 velocity: 0
@23880 $99.5 Channel: 14 Note on, E5 key=76 velocity: 100
@23910 $99.625 Channel: 14 Note off, E5 key=76 velocity: 0
@23910 $99.625 Channel: 14 Note on, F#5 key=78 velocity: 100
@23940 $99.75 Channel: 14 Note off, F#5 key=78 velocity: 0
@23940 $99.75 Channel: 14 Note on, G#5 key=80 velocity: 100
@23970 $99.875 Channel: 14 Note off, G#5 key=80 velocity: 0
@23970 $99.875 Channel: 14 Note on, A5 key=81 velocity: 100
@24000 $100.0 Channel: 14 Note off, A5 key=81 velocity: 0
@24000 $100.0 Channel: 14 Note on, A#5 key=82 velocity: 120
@24045 $100.1875 Channel: 14 Note on, B5 key=83 velocity: 120
@24060 $100.25 Channel: 14 Note off, A#5 key=82 velocity: 0
@24090 $100.375 Channel: 14 Note off, B5 key=83 velocity: 0
@24120 $100.5 Channel: 14 Note on, E5 key=76 velocity: 120
@24150 $100.625 Channel: 14 Note off, E5 key=76 velocity: 0
@24150 $100.625 Channel: 14 Note on, D5 key=74 velocity: 120
@24180 $100.75 Channel: 14 Note off, D5 key=74 velocity: 0
@24180 $100.75 Channel: 14 Note on, C#5 key=73 velocity: 120
@24210 $100.875 Channel: 14 Note off, C#5 key=73 velocity: 0
@24210 $100.875 Channel: 14 Note on, B4 key=71 velocity: 120
@24240 $101.0 Channel: 14 Note off, B4 key=71 velocity: 0
@24240 $101.0 Channel: 14 Note on, A4 key=69 velocity: 120
@24270 $101.125 Channel: 14 Note off, A4 key=69 velocity: 0
@24270 $101.125 Channel: 14 Note on, B4 key=71 velocity: 120
@24300 $101.25 Channel: 14 Note off, B4 key=71 velocity: 0
@24300 $101.25 Channel: 14 Note on, C#5 key=73 velocity: 120
@24330 $101.375 Channel: 14 Note off, C#5 key=73 velocity: 0
@24330 $101.375 Channel: 14 Note on, D5 key=74 velocity: 120
@24360 $101.5 Channel: 14 Note off, D5 key=74 velocity: 0
@24360 $101.5 Channel: 14 Note on, E5 key=76 velocity: 120
@24390 $101.625 Channel: 14 Note off, E5 key=76 velocity: 0
@24390 $101.625 Channel: 14 Note on, F#5 key=78 velocity: 120
@24420 $101.75 Channel: 14 Note off, F#5 key=78 velocity: 0
@24420 $101.75 Channel: 14 Note on, G#5 key=80 velocity: 120
@24450 $101.875 Channel: 14 Note off, G#5 key=80 velocity: 0
@24450 $101.875 Channel: 14 Note on, A5 key=81 velocity: 120
@24480 $102.0 Channel: 14 Note off, A5 key=81 velocity: 0
@24480 $102.0 Channel: 14 Note on, A5 key=81 velocity: 120
@24510 $102.125 Channel: 14 Note off, A5 key=81 velocity: 0
@24510 $102.125 Channel: 14 Note on, G#5 key=80 velocity: 120
@24540 $102.25 Channel: 14 Note off, G#5 key=80 velocity: 0
@24540 $102.25 Channel: 14 Note on, F#5 key=78 velocity: 120
@24570 $102.375 Channel: 14 Note off, F#5 key=78 velocity: 0
@24570 $102.375 Channel: 14 Note on, E5 key=76 velocity: 120
@24600 $102.5 Channel: 14 Note off, E5 key=76 velocity: 0
@24600 $102.5 Channel: 14 Note on, E5 key=76 velocity: 120
@24630 $102.625 Channel: 14 Note off, E5 key=76 velocity: 0
@24630 $102.625 Channel: 14 Note on, D5 key=74 velocity: 120
@24660 $102.75 Channel: 14 Note off, D5 key=74 velocity: 0
@24660 $102.75 Channel: 14 Note on, C#5 key=73 velocity: 120
@24690 $102.875 Channel: 14 Note off, C#5 key=73 velocity: 0
@24690 $102.875 Channel: 14 Note on, B4 key=71 velocity: 120
@24720 $103.0 Channel: 14 Note off, B4 key=71 velocity: 0
@24720 $103.0 Channel: 14 Note on, C#5 key=73 velocity: 120
@24750 $103.125 Channel: 14 Note off, C#5 key=73 velocity: 0
@24750 $103.125 Channel: 14 Note on, E5 key=76 velocity: 120
@24780 $103.25 Channel: 14 Note off, E5 key=76 velocity: 0
@24780 $103.25 Channel: 14 Note on, A4 key=69 velocity: 120
@24810 $103.375 Channel: 14 Note off, A4 key=69 velocity: 0
@24810 $103.375 Channel: 14 Note on, C#5 key=73 velocity: 120
@24840 $103.5 Channel: 14 Note off, C#5 key=73 velocity: 0
@24840 $103.5 Channel: 14 Note on, B4 key=71 velocity: 120
@24870 $103.625 Channel: 14 Note off, B4 key=71 velocity: 0
@24870 $103.625 Channel: 14 Note on, D5 key=74 velocity: 120
@24900 $103.75 Channel: 14 Note off, D5 key=74 velocity: 0
@24900 $103.75 Channel: 14 Note on, G#4 key=68 velocity: 120
@24930 $103.875 Channel: 14 Note off, G#4 key=68 velocity: 0
@24930 $103.875 Channel: 14 Note on, B4 key=71 velocity: 120
@24960 $104.0 Channel: 14 Note off, B4 key=71 velocity: 0
@24960 $104.0 Channel: 14 Note on, A4 key=69 velocity: 120
@25080 $104.5 Channel: 14 Note off, A4 key=69 velocity: 0
@25080 $104.5 Channel: 14 Note on, C#5 key=73 velocity: 100
@25110 $104.625 Channel: 14 Note off, C#5 key=73 velocity: 0
@25110 $104.625 Channel: 14 Note on, D5 key=74 velocity: 100
@25140 $104.75 Channel: 14 Note off, D5 key=74 velocity: 0
@25140 $104.75 Channel: 14 Note on, C#5 key=73 velocity: 100
@25170 $104.875 Channel: 14 Note off, C#5 key=73 velocity: 0
@25170 $104.875 Channel: 14 Note on, B4 key=71 velocity: 100
@25200 $105.0 Channel: 14 Note off, B4 key=71 velocity: 0
@25200 $105.0 Channel: 14 Note on, A4 key=69 velocity: 100
@25230 $105.125 Channel: 14 Note off, A4 key=69 velocity: 0
@25230 $105.125 Channel: 14 Note on, B4 key=71 velocity: 100
@25260 $105.25 Channel: 14 Note off, B4 key=71 velocity: 0
@25260 $105.25 Channel: 14 Note on, A4 key=69 velocity: 100
@25290 $105.375 Channel: 14 Note off, A4 key=69 velocity: 0
@25290 $105.375 Channel: 14 Note on, G#4 key=68 velocity: 100
@25320 $105.5 Channel: 14 Note off, G#4 key=68 velocity: 0
@25320 $105.5 Channel: 14 Note on, F#4 key=66 velocity: 100
@25350 $105.625 Channel: 14 Note off, F#4 key=66 velocity: 0
@25350 $105.625 Channel: 14 Note on, A4 key=69 velocity: 100
@25380 $105.75 Channel: 14 Note off, A4 key=69 velocity: 0
@25380 $105.75 Channel: 14 Note on, G#4 key=68 velocity: 100
@25410 $105.875 Channel: 14 Note off, G#4 key=68 velocity: 0
@25410 $105.875 Channel: 14 Note on, F#4 key=66 velocity: 100
@25440 $106.0 Channel: 14 Note off, F#4 key=66 velocity: 0
@25440 $106.0 Channel: 14 Note on, F4 key=65 velocity: 100
@25470 $106.125 Channel: 14 Note off, F4 key=65 velocity: 0
@25470 $106.125 Channel: 14 Note on, F#4 key=66 velocity: 100
@25500 $106.25 Channel: 14 Note off, F#4 key=66 velocity: 0
@25500 $106.25 Channel: 14 Note on, G#4 key=68 velocity: 100
@25530 $106.375 Channel: 14 Note off, G#4 key=68 velocity: 0
@25530 $106.375 Channel: 14 Note on, F4 key=65 velocity: 100
@25560 $106.5 Channel: 14 Note off, F4 key=65 velocity: 0
@25560 $106.5 Channel: 14 Note on, C#4 key=61 velocity: 100
@25590 $106.625 Channel: 14 Note off, C#4 key=61 velocity: 0
@25590 $106.625 Channel: 14 Note on, D#4 key=63 velocity: 100
@25620 $106.75 Channel: 14 Note off, D#4 key=63 velocity: 0
@25620 $106.75 Channel: 14 Note on, E4 key=64 velocity: 100
@25650 $106.875 Channel: 14 Note off, E4 key=64 velocity: 0
@25650 $106.875 Channel: 14 Note on, C#4 key=61 velocity: 100
@25680 $107.0 Channel: 14 Note off, C#4 key=61 velocity: 0
@25680 $107.0 Channel: 14 Note on, F#4 key=66 velocity: 100
@25710 $107.125 Channel: 14 Note off, F#4 key=66 velocity: 0
@25710 $107.125 Channel: 14 Note on, F4 key=65 velocity: 100
@25740 $107.25 Channel: 14 Note off, F4 key=65 velocity: 0
@25740 $107.25 Channel: 14 Note on, F#4 key=66 velocity: 100
@25770 $107.375 Channel: 14 Note off, F#4 key=66 velocity: 0
@25770 $107.375 Channel: 14 Note on, G#4 key=68 velocity: 100
@25800 $107.5 Channel: 14 Note off, G#4 key=68 velocity: 0
@25800 $107.5 Channel: 14 Note on, A4 key=69 velocity: 100
@25830 $107.625 Channel: 14 Note off, A4 key=69 velocity: 0
@25830 $107.625 Channel: 14 Note on, G#4 key=68 velocity: 100
@25860 $107.75 Channel: 14 Note off, G#4 key=68 velocity: 0
@25860 $107.75 Channel: 14 Note on, A4 key=69 velocity: 100
@25890 $107.875 Channel: 14 Note off, A4 key=69 velocity: 0
@25890 $107.875 Channel: 14 Note on, B4 key=71 velocity: 100
@25920 $108.0 Channel: 14 Note off, B4 key=71 velocity: 0
@25920 $108.0 Channel: 14 Note on, C#5 key=73 velocity: 100
@25950 $108.125 Channel: 14 Note off, C#5 key=73 velocity: 0
@25950 $108.125 Channel: 14 Note on, C5 key=72 velocity: 100
@25980 $108.25 Channel: 14 Note off, C5 key=72 velocity: 0
@25980 $108.25 Channel: 14 Note on, C#5 key=73 velocity: 100
@26010 $108.375 Channel: 14 Note off, C#5 key=73 velocity: 0
@26010 $108.375 Channel: 14 Note on, C5 key=72 velocity: 100
@26040 $108.5 Channel: 14 Note off, C5 key=72 velocity: 0
@26040 $108.5 Channel: 14 Note on, C#5 key=73 velocity: 100
@26070 $108.625 Channel: 14 Note off, C#5 key=73 velocity: 0
@26070 $108.625 Channel: 14 Note on, C5 key=72 velocity: 100
@26100 $108.75 Channel: 14 Note off, C5 key=72 velocity: 0
@26100 $108.75 Channel: 14 Note on, C#5 key=73 velocity: 100
@26130 $108.875 Channel: 14 Note off, C#5 key=73 velocity: 0
@26130 $108.875 Channel: 14 Note on, A#4 key=70 velocity: 100
@26160 $109.0 Channel: 14 Note off, A#4 key=70 velocity: 0
@26160 $109.0 Channel: 14 Note on, D5 key=74 velocity: 100
@26190 $109.125 Channel: 14 Note off, D5 key=74 velocity: 0
@26190 $109.125 Channel: 14 Note on, C#5 key=73 velocity: 100
@26220 $109.25 Channel: 14 Note off, C#5 key=73 velocity: 0
@26220 $109.25 Channel: 14 Note on, D5 key=74 velocity: 100
@26250 $109.375 Channel: 14 Note off, D5 key=74 velocity: 0
@26250 $109.375 Channel: 14 Note on, C#5 key=73 velocity: 100
@26280 $109.5 Channel: 14 Note off, C#5 key=73 velocity: 0
@26280 $109.5 Channel: 14 Note on, D5 key=74 velocity: 100
@26310 $109.625 Channel: 14 Note off, D5 key=74 velocity: 0
@26310 $109.625 Channel: 14 Note on, C#5 key=73 velocity: 100
@26340 $109.75 Channel: 14 Note off, C#5 key=73 velocity: 0
@26340 $109.75 Channel: 14 Note on, D5 key=74 velocity: 100
@26370 $109.875 Channel: 14 Note off, D5 key=74 velocity: 0
@26370 $109.875 Channel: 14 Note on, C#5 key=73 velocity: 100
@26400 $110.0 Channel: 14 Note off, C#5 key=73 velocity: 0
@26400 $110.0 Channel: 14 Note on, D5 key=74 velocity: 100
@26430 $110.125 Channel: 14 Note off, D5 key=74 velocity: 0
@26430 $110.125 Channel: 14 Note on, C#5 key=73 velocity: 100
@26460 $110.25 Channel: 14 Note off, C#5 key=73 velocity: 0
@26460 $110.25 Channel: 14 Note on, B4 key=71 velocity: 100
@26490 $110.375 Channel: 14 Note off, B4 key=71 velocity: 0
@26490 $110.375 Channel: 14 Note on, A4 key=69 velocity: 100
@26520 $110.5 Channel: 14 Note off, A4 key=69 velocity: 0
@26520 $110.5 Channel: 14 Note on, G#4 key=68 velocity: 100
@26550 $110.625 Channel: 14 Note off, G#4 key=68 velocity: 0
@26550 $110.625 Channel: 14 Note on, A4 key=69 velocity: 100
@26580 $110.75 Channel: 14 Note off, A4 key=69 velocity: 0
@26580 $110.75 Channel: 14 Note on, B4 key=71 velocity: 100
@26610 $110.875 Channel: 14 Note off, B4 key=71 velocity: 0
@26610 $110.875 Channel: 14 Note on, G#4 key=68 velocity: 100
@26640 $111.0 Channel: 14 Note off, G#4 key=68 velocity: 0
@26640 $111.0 Channel: 14 Note on, A4 key=69 velocity: 100
@26670 $111.125 Channel: 14 Note off, A4 key=69 velocity: 0
@26670 $111.125 Channel: 14 Note on, B4 key=71 velocity: 100
@26700 $111.25 Channel: 14 Note off, B4 key=71 velocity: 0
@26700 $111.25 Channel: 14 Note on, C#5 key=73 velocity: 100
@26730 $111.375 Channel: 14 Note off, C#5 key=73 velocity: 0
@26730 $111.375 Channel: 14 Note on, F#4 key=66 velocity: 100
@26760 $111.5 Channel: 14 Note off, F#4 key=66 velocity: 0
@26760 $111.5 Channel: 14 Note on, F4 key=65 velocity: 100
@26790 $111.625 Channel: 14 Note off, F4 key=65 velocity: 0
@26790 $111.625 Channel: 14 Note on, F#4 key=66 velocity: 100
@26820 $111.75 Channel: 14 Note off, F#4 key=66 velocity: 0
@26820 $111.75 Channel: 14 Note on, G#4 key=68 velocity: 100
@26850 $111.875 Channel: 14 Note off, G#4 key=68 velocity: 0
@26850 $111.875 Channel: 14 Note on, F4 key=65 velocity: 100
@26880 $112.0 Channel: 14 Note off, F4 key=65 velocity: 0
@26880 $112.0 Channel: 14 Note on, A4 key=69 velocity: 75
@26880 $112.0 Channel: 14 Note on, F#4 key=66 velocity: 75
@27000 $112.5 Channel: 14 Note off, F#4 key=66 velocity: 0
@27000 $112.5 Channel: 14 Note off, A4 key=69 velocity: 0
@27000 $112.5 Channel: 14 Note on, A4 key=69 velocity: 100
@27045 $112.6875 Channel: 14 Note off, A4 key=69 velocity: 0
@27060 $112.75 Channel: 14 Note on, B4 key=71 velocity: 100
@27105 $112.9375 Channel: 14 Note off, B4 key=71 velocity: 0
@27120 $113.0 Channel: 14 Note on, C#5 key=73 velocity: 100
@27240 $113.5 Channel: 14 Note off, C#5 key=73 velocity: 0
@27240 $113.5 Channel: 14 Note on, A4 key=69 velocity: 100
@27285 $113.6875 Channel: 14 Note off, A4 key=69 velocity: 0
@27300 $113.75 Channel: 14 Note on, B4 key=71 velocity: 100
@27345 $113.9375 Channel: 14 Note off, B4 key=71 velocity: 0
@27360 $114.0 Channel: 14 Note on, C#5 key=73 velocity: 100
@27390 $114.125 Channel: 14 Note off, C#5 key=73 velocity: 0
@27420 $114.25 Channel: 14 Note on, B4 key=71 velocity: 100
@27450 $114.375 Channel: 14 Note off, B4 key=71 velocity: 0
@27480 $114.5 Channel: 14 Note on, A4 key=69 velocity: 100
@27510 $114.625 Channel: 14 Note off, A4 key=69 velocity: 0
@27540 $114.75 Channel: 14 Note on, G#4 key=68 velocity: 100
@27570 $114.875 Channel: 14 Note off, G#4 key=68 velocity: 0
@27600 $115.0 Channel: 14 Note on, F#4 key=66 velocity: 100
@27630 $115.125 Channel: 14 Note off, F#4 key=66 velocity: 0
@27660 $115.25 Channel: 14 Note on, G#4 key=68 velocity: 100
@27690 $115.375 Channel: 14 Note off, G#4 key=68 velocity: 0
@27720 $115.5 Channel: 14 Note on, A4 key=69 velocity: 100
@27750 $115.625 Channel: 14 Note off, A4 key=69 velocity: 0
@27780 $115.75 Channel: 14 Note on, B4 key=71 velocity: 100
@27810 $115.875 Channel: 14 Note off, B4 key=71 velocity: 0
@27840 $116.0 Channel: 14 Note on, G#4 key=68 velocity: 100
@27900 $116.25 Channel: 14 Note off, G#4 key=68 velocity: 0
@27900 $116.25 Channel: 14 Note on, E4 key=64 velocity: 100
@27930 $116.375 Channel: 14 Note off, E4 key=64 velocity: 0
@27960 $116.5 Channel: 14 Note on, A4 key=69 velocity: 100
@27990 $116.625 Channel: 14 Note off, A4 key=69 velocity: 0
@28020 $116.75 Channel: 14 Note on, B4 key=71 velocity: 100
@28050 $116.875 Channel: 14 Note off, B4 key=71 velocity: 0
@28080 $117.0 Channel: 14 Note on, C#5 key=73 velocity: 100
@28200 $117.5 Channel: 14 Note off, C#5 key=73 velocity: 0
@28200 $117.5 Channel: 14 Note on, A4 key=69 velocity: 100
@28245 $117.6875 Channel: 14 Note off, A4 key=69 velocity: 0
@28260 $117.75 Channel: 14 Note on, B4 key=71 velocity: 100
@28305 $117.9375 Channel: 14 Note off, B4 key=71 velocity: 0
@28320 $118.0 Channel: 14 Note on, C#5 key=73 velocity: 100
@28365 $118.1875 Channel: 14 Note off, C#5 key=73 velocity: 0
@28380 $118.25 Channel: 14 Note on, B4 key=71 velocity: 100
@28425 $118.4375 Channel: 14 Note off, B4 key=71 velocity: 0
@28440 $118.5 Channel: 14 Note on, A4 key=69 velocity: 100
@28485 $118.6875 Channel: 14 Note off, A4 key=69 velocity: 0
@28500 $118.75 Channel: 14 Note on, G#4 key=68 velocity: 100
@28545 $118.9375 Channel: 14 Note off, G#4 key=68 velocity: 0
@28560 $119.0 Channel: 14 Note on, F#4 key=66 velocity: 100
@28605 $119.1875 Channel: 14 Note off, F#4 key=66 velocity: 0
@28620 $119.25 Channel: 14 Note on, B4 key=71 velocity: 100
@28665 $119.4375 Channel: 14 Note off, B4 key=71 velocity: 0
@28680 $119.5 Channel: 14 Note on, G#4 key=68 velocity: 100
@28725 $119.6875 Channel: 14 Note off, G#4 key=68 velocity: 0
@28740 $119.75 Channel: 14 Note on, E4 key=64 velocity: 100
@28785 $119.9375 Channel: 14 Note off, E4 key=64 velocity: 0
@28800 $120.0 Channel: 14 Note on, A4 key=69 velocity: 100
@28920 $120.5 Channel: 14 Note off, A4 key=69 velocity: 0
@28920 $120.5 Channel: 14 Note on, A4 key=69 velocity: 100
@28965 $120.6875 Channel: 14 Note off, A4 key=69 velocity: 0
@28980 $120.75 Channel: 14 Note on, B4 key=71 velocity: 100
@29025 $120.9375 Channel: 14 Note off, B4 key=71 velocity: 0
@29040 $121.0 Channel: 14 Note on, C#5 key=73 velocity: 100
@29160 $121.5 Channel: 14 Note off, C#5 key=73 velocity: 0
@29160 $121.5 Channel: 14 Note on, A4 key=69 velocity: 100
@29205 $121.6875 Channel: 14 Note off, A4 key=69 velocity: 0
@29220 $121.75 Channel: 14 Note on, B4 key=71 velocity: 100
@29265 $121.9375 Channel: 14 Note off, B4 key=71 velocity: 0
@29280 $122.0 Channel: 14 Note on, C#5 key=73 velocity: 100
@29310 $122.125 Channel: 14 Note off, C#5 key=73 velocity: 0
@29340 $122.25 Channel: 14 Note on, B4 key=71 velocity: 100
@29370 $122.375 Channel: 14 Note off, B4 key=71 velocity: 0
@29400 $122.5 Channel: 14 Note on, A4 key=69 velocity: 100
@29430 $122.625 Channel: 14 Note off, A4 key=69 velocity: 0
@29460 $122.75 Channel: 14 Note on, G#4 key=68 velocity: 100
@29490 $122.875 Channel: 14 Note off, G#4 key=68 velocity: 0
@29520 $123.0 Channel: 14 Note on, F#4 key=66 velocity: 100
@29550 $123.125 Channel: 14 Note off, F#4 key=66 velocity: 0
@29580 $123.25 Channel: 14 Note on, G#4 key=68 velocity: 100
@29610 $123.375 Channel: 14 Note off, G#4 key=68 velocity: 0
@29640 $123.5 Channel: 14 Note on, A4 key=69 velocity: 100
@29670 $123.625 Channel: 14 Note off, A4 key=69 velocity: 0
@29700 $123.75 Channel: 14 Note on, B4 key=71 velocity: 100
@29730 $123.875 Channel: 14 Note off, B4 key=71 velocity: 0
@29760 $124.0 Channel: 14 Note on, G#4 key=68 velocity: 100
@29820 $124.25 Channel: 14 Note off, G#4 key=68 velocity: 0
@29820 $124.25 Channel: 14 Note on, E4 key=64 velocity: 100
@29850 $124.375 Channel: 14 Note off, E4 key=64 velocity: 0
@29880 $124.5 Channel: 14 Note on, A4 key=69 velocity: 100
@29910 $124.625 Channel: 14 Note off, A4 key=69 velocity: 0
@29940 $124.75 Channel: 14 Note on, B4 key=71 velocity: 100
@29970 $124.875 Channel: 14 Note off, B4 key=71 velocity: 0
@30000 $125.0 Channel: 14 Note on, C#5 key=73 velocity: 100
@30120 $125.5 Channel: 14 Note off, C#5 key=73 velocity: 0
@30120 $125.5 Channel: 14 Note on, A4 key=69 velocity: 100
@30165 $125.6875 Channel: 14 Note off, A4 key=69 velocity: 0
@30180 $125.75 Channel: 14 Note on, B4 key=71 velocity: 100
@30225 $125.9375 Channel: 14 Note off, B4 key=71 velocity: 0
@30240 $126.0 Channel: 14 Note on, C#5 key=73 velocity: 100
@30285 $126.1875 Channel: 14 Note off, C#5 key=73 velocity: 0
@30300 $126.25 Channel: 14 Note on, B4 key=71 velocity: 100
@30345 $126.4375 Channel: 14 Note off, B4 key=71 velocity: 0
@30360 $126.5 Channel: 14 Note on, A4 key=69 velocity: 100
@30405 $126.6875 Channel: 14 Note off, A4 key=69 velocity: 0
@30420 $126.75 Channel: 14 Note on, G#4 key=68 velocity: 100
@30465 $126.9375 Channel: 14 Note off, G#4 key=68 velocity: 0
@30480 $127.0 Channel: 14 Note on, F#4 key=66 velocity: 100
@30525 $127.1875 Channel: 14 Note off, F#4 key=66 velocity: 0
@30540 $127.25 Channel: 14 Note on, B4 key=71 velocity: 100
@30585 $127.4375 Channel: 14 Note off, B4 key=71 velocity: 0
@30600 $127.5 Channel: 14 Note on, G#4 key=68 velocity: 100
@30645 $127.6875 Channel: 14 Note off, G#4 key=68 velocity: 0
@30660 $127.75 Channel: 14 Note on, E4 key=64 velocity: 100
@30705 $127.9375 Channel: 14 Note off, E4 key=64 velocity: 0
@30720 $128.0 Channel: 14 Note on, A4 key=69 velocity: 100
@30840 $128.5 Channel: 14 Note off, A4 key=69 velocity: 0
@42360 $176.5 Channel: 14 Note on, A4 key=69 velocity: 100
@42420 $176.75 Channel: 14 Note off, A4 key=69 velocity: 0
@42420 $176.75 Channel: 14 Note on, B4 key=71 velocity: 100
@42480 $177.0 Channel: 14 Note off, B4 key=71 velocity: 0
@42480 $177.0 Channel: 14 Note on, C#5 key=73 velocity: 100
@42600 $177.5 Channel: 14 Note off, C#5 key=73 velocity: 0
@42600 $177.5 Channel: 14 Note on, A4 key=69 velocity: 100
@42660 $177.75 Channel: 14 Note off, A4 key=69 velocity: 0
@42660 $177.75 Channel: 14 Note on, B4 key=71 velocity: 100
@42720 $178.0 Channel: 14 Note off, B4 key=71 velocity: 0
@42720 $178.0 Channel: 14 Note on, C#5 key=73 velocity: 100
@42780 $178.25 Channel: 14 Note off, C#5 key=73 velocity: 0
@42780 $178.25 Channel: 14 Note on, B4 key=71 velocity: 100
@42840 $178.5 Channel: 14 Note off, B4 key=71 velocity: 0
@42840 $178.5 Channel: 14 Note on, A4 key=69 velocity: 100
@42900 $178.75 Channel: 14 Note off, A4 key=69 velocity: 0
@42900 $178.75 Channel: 14 Note on, G#4 key=68 velocity: 100
@42960 $179.0 Channel: 14 Note off, G#4 key=68 velocity: 0
@42960 $179.0 Channel: 14 Note on, F#4 key=66 velocity: 100
@43020 $179.25 Channel: 14 Note off, F#4 key=66 velocity: 0
@43020 $179.25 Channel: 14 Note on, G#4 key=68 velocity: 100
@43080 $179.5 Channel: 14 Note off, G#4 key=68 velocity: 0
@43080 $179.5 Channel: 14 Note on, A4 key=69 velocity: 100
@43140 $179.75 Channel: 14 Note off, A4 key=69 velocity: 0
@43140 $179.75 Channel: 14 Note on, B4 key=71 velocity: 100
@43200 $180.0 Channel: 14 Note off, B4 key=71 velocity: 0
@43200 $180.0 Channel: 14 Note on, G#4 key=68 velocity: 100
@43260 $180.25 Channel: 14 Note off, G#4 key=68 velocity: 0
@43260 $180.25 Channel: 14 Note on, E4 key=64 velocity: 100
@43320 $180.5 Channel: 14 Note off, E4 key=64 velocity: 0
@43320 $180.5 Channel: 14 Note on, A4 key=69 velocity: 100
@43380 $180.75 Channel: 14 Note off, A4 key=69 velocity: 0
@43380 $180.75 Channel: 14 Note on, B4 key=71 velocity: 100
@43440 $181.0 Channel: 14 Note off, B4 key=71 velocity: 0
@43440 $181.0 Channel: 14 Note on, C#5 key=73 velocity: 100
@43560 $181.5 Channel: 14 Note off, C#5 key=73 velocity: 0
@43560 $181.5 Channel: 14 Note on, A4 key=69 velocity: 100
@43620 $181.75 Channel: 14 Note off, A4 key=69 velocity: 0
@43620 $181.75 Channel: 14 Note on, B4 key=71 velocity: 100
@43680 $182.0 Channel: 14 Note off, B4 key=71 velocity: 0
@43680 $182.0 Channel: 14 Note on, C#5 key=73 velocity: 100
@43740 $182.25 Channel: 14 Note off, C#5 key=73 velocity: 0
@43740 $182.25 Channel: 14 Note on, B4 key=71 velocity: 100
@43800 $182.5 Channel: 14 Note off, B4 key=71 velocity: 0
@43800 $182.5 Channel: 14 Note on, A4 key=69 velocity: 100
@43860 $182.75 Channel: 14 Note off, A4 key=69 velocity: 0
@43860 $182.75 Channel: 14 Note on, G#4 key=68 velocity: 100
@43920 $183.0 Channel: 14 Note off, G#4 key=68 velocity: 0
@43920 $183.0 Channel: 14 Note on, F#4 key=66 velocity: 100
@43980 $183.25 Channel: 14 Note off, F#4 key=66 velocity: 0
@43980 $183.25 Channel: 14 Note on, B4 key=71 velocity: 100
@44040 $183.5 Channel: 14 Note off, B4 key=71 velocity: 0
@44040 $183.5 Channel: 14 Note on, G#4 key=68 velocity: 100
@44100 $183.75 Channel: 14 Note off, G#4 key=68 velocity: 0
@44100 $183.75 Channel: 14 Note on, E4 key=64 velocity: 100
@44160 $184.0 Channel: 14 Note off, E4 key=64 velocity: 0
@44160 $184.0 Channel: 14 Note on, A4 key=69 velocity: 100
@44280 $184.5 Channel: 14 Note off, A4 key=69 velocity: 0
@44280 $184.5 Channel: 14 Note on, A4 key=69 velocity: 100
@44340 $184.75 Channel: 14 Note off, A4 key=69 velocity: 0
@44340 $184.75 Channel: 14 Note on, B4 key=71 velocity: 100
@44400 $185.0 Channel: 14 Note off, B4 key=71 velocity: 0
@44400 $185.0 Channel: 14 Note on, C#5 key=73 velocity: 100
@44520 $185.5 Channel: 14 Note off, C#5 key=73 velocity: 0
@44520 $185.5 Channel: 14 Note on, A4 key=69 velocity: 100
@44580 $185.75 Channel: 14 Note off, A4 key=69 velocity: 0
@44580 $185.75 Channel: 14 Note on, B4 key=71 velocity: 100
@44640 $186.0 Channel: 14 Note off, B4 key=71 velocity: 0
@44640 $186.0 Channel: 14 Note on, C#5 key=73 velocity: 100
@44700 $186.25 Channel: 14 Note off, C#5 key=73 velocity: 0
@44700 $186.25 Channel: 14 Note on, B4 key=71 velocity: 100
@44760 $186.5 Channel: 14 Note off, B4 key=71 velocity: 0
@44760 $186.5 Channel: 14 Note on, A4 key=69 velocity: 100
@44820 $186.75 Channel: 14 Note off, A4 key=69 velocity: 0
@44820 $186.75 Channel: 14 Note on, G#4 key=68 velocity: 100
@44880 $187.0 Channel: 14 Note off, G#4 key=68 velocity: 0
@44880 $187.0 Channel: 14 Note on, F#4 key=66 velocity: 100
@44940 $187.25 Channel: 14 Note off, F#4 key=66 velocity: 0
@44940 $187.25 Channel: 14 Note on, G#4 key=68 velocity: 100
@45000 $187.5 Channel: 14 Note off, G#4 key=68 velocity: 0
@45000 $187.5 Channel: 14 Note on, A4 key=69 velocity: 100
@45060 $187.75 Channel: 14 Note off, A4 key=69 velocity: 0
@45060 $187.75 Channel: 14 Note on, B4 key=71 velocity: 100
@45120 $188.0 Channel: 14 Note off, B4 key=71 velocity: 0
@45120 $188.0 Channel: 14 Note on, G#4 key=68 velocity: 100
@45180 $188.25 Channel: 14 Note off, G#4 key=68 velocity: 0
@45180 $188.25 Channel: 14 Note on, E4 key=64 velocity: 100
@45240 $188.5 Channel: 14 Note off, E4 key=64 velocity: 0
@45240 $188.5 Channel: 14 Note on, A4 key=69 velocity: 100
@45300 $188.75 Channel: 14 Note off, A4 key=69 velocity: 0
@45300 $188.75 Channel: 14 Note on, B4 key=71 velocity: 100
@45360 $189.0 Channel: 14 Note off, B4 key=71 velocity: 0
@45360 $189.0 Channel: 14 Note on, C#5 key=73 velocity: 100
@45480 $189.5 Channel: 14 Note off, C#5 key=73 velocity: 0
@45480 $189.5 Channel: 14 Note on, A4 key=69 velocity: 100
@45540 $189.75 Channel: 14 Note off, A4 key=69 velocity: 0
@45540 $189.75 Channel: 14 Note on, B4 key=71 velocity: 100
@45600 $190.0 Channel: 14 Note off, B4 key=71 velocity: 0
@45600 $190.0 Channel: 14 Note on, C#5 key=73 velocity: 100
@45660 $190.25 Channel: 14 Note off, C#5 key=73 velocity: 0
@45660 $190.25 Channel: 14 Note on, B4 key=71 velocity: 100
@45720 $190.5 Channel: 14 Note off, B4 key=71 velocity: 0
@45720 $190.5 Channel: 14 Note on, A4 key=69 velocity: 100
@45780 $190.75 Channel: 14 Note off, A4 key=69 velocity: 0
@45780 $190.75 Channel: 14 Note on, G#4 key=68 velocity: 100
@45840 $191.0 Channel: 14 Note off, G#4 key=68 velocity: 0
@45840 $191.0 Channel: 14 Note on, F#4 key=66 velocity: 100
@45900 $191.25 Channel: 14 Note off, F#4 key=66 velocity: 0
@45900 $191.25 Channel: 14 Note on, B4 key=71 velocity: 100
@45960 $191.5 Channel: 14 Note off, B4 key=71 velocity: 0
@45960 $191.5 Channel: 14 Note on, G#4 key=68 velocity: 100
@46020 $191.75 Channel: 14 Note off, G#4 key=68 velocity: 0
@46020 $191.75 Channel: 14 Note on, E4 key=64 velocity: 100
@46080 $192.0 Channel: 14 Note off, E4 key=64 velocity: 0
@46080 $192.0 Channel: 14 Note on, A4 key=69 velocity: 100
@46200 $192.5 Channel: 14 Note off, A4 key=69 velocity: 0
@46200 $192.5 Channel: 14 Note on, C#4 key=61 velocity: 127
@46200 $192.5 Channel: 14 Note on, C#5 key=73 velocity: 127
@46290 $192.875 Channel: 14 Note off, C#5 key=73 velocity: 0
@46290 $192.875 Channel: 14 Note on, C#5 key=73 velocity: 127
@46320 $193.0 Channel: 14 Note off, C#5 key=73 velocity: 0
@46320 $193.0 Channel: 14 Note off, C#4 key=61 velocity: 0
@46320 $193.0 Channel: 14 Note on, C#5 key=73 velocity: 127
@46320 $193.0 Channel: 14 Note on, A4 key=69 velocity: 127
@46560 $194.0 Channel: 14 Note off, A4 key=69 velocity: 0
@46560 $194.0 Channel: 14 Note off, C#5 key=73 velocity: 0
@46560 $194.0 Channel: 14 Note on, C#5 key=73 velocity: 127
@46560 $194.0 Channel: 14 Note on, A4 key=69 velocity: 127
@46800 $195.0 Channel: 14 Note off, A4 key=69 velocity: 0
@46800 $195.0 Channel: 14 Note off, C#5 key=73 velocity: 0
@46800 $195.0 Channel: 14 Note on, D5 key=74 velocity: 127
@46830 $195.125 Channel: 14 Note off, D5 key=74 velocity: 0
@46830 $195.125 Channel: 14 Note on, C#5 key=73 velocity: 127
@46860 $195.25 Channel: 14 Note off, C#5 key=73 velocity: 0
@46860 $195.25 Channel: 14 Note on, B4 key=71 velocity: 127
@46890 $195.375 Channel: 14 Note off, B4 key=71 velocity: 0
@46890 $195.375 Channel: 14 Note on, C#5 key=73 velocity: 127
@46920 $195.5 Channel: 14 Note off, C#5 key=73 velocity: 0
@46920 $195.5 Channel: 14 Note on, D5 key=74 velocity: 127
@46950 $195.625 Channel: 14 Note off, D5 key=74 velocity: 0
@46950 $195.625 Channel: 14 Note on, C#5 key=73 velocity: 127
@46980 $195.75 Channel: 14 Note off, C#5 key=73 velocity: 0
@46980 $195.75 Channel: 14 Note on, B4 key=71 velocity: 127
@47010 $195.875 Channel: 14 Note off, B4 key=71 velocity: 0
@47010 $195.875 Channel: 14 Note on, C#5 key=73 velocity: 127
@47040 $196.0 Channel: 14 Note off, C#5 key=73 velocity: 0
@47040 $196.0 Channel: 14 Note on, F#4 key=66 velocity: 127
@47280 $197.0 Channel: 14 Note off, F#4 key=66 velocity: 0
@47280 $197.0 Channel: 14 Note on, D5 key=74 velocity: 127
@47295 $197.0625 Channel: 14 Note off, D5 key=74 velocity: 0
@47295 $197.0625 Channel: 14 Note on, E4 key=64 velocity: 127
@47340 $197.25 Channel: 14 Note off, E4 key=64 velocity: 0
@47340 $197.25 Channel: 14 Note on, D5 key=74 velocity: 127
@47355 $197.3125 Channel: 14 Note off, D5 key=74 velocity: 0
@47355 $197.3125 Channel: 14 Note on, E4 key=64 velocity: 127
@47400 $197.5 Channel: 14 Note off, E4 key=64 velocity: 0
@47400 $197.5 Channel: 14 Note on, D5 key=74 velocity: 127
@47415 $197.5625 Channel: 14 Note off, D5 key=74 velocity: 0
@47415 $197.5625 Channel: 14 Note on, E4 key=64 velocity: 127
@47460 $197.75 Channel: 14 Note off, E4 key=64 velocity: 0
@47460 $197.75 Channel: 14 Note on, D5 key=74 velocity: 127
@47475 $197.8125 Channel: 14 Note off, D5 key=74 velocity: 0
@47475 $197.8125 Channel: 14 Note on, E4 key=64 velocity: 127
@47520 $198.0 Channel: 14 Note off, E4 key=64 velocity: 0
@47520 $198.0 Channel: 14 Note on, G#4 key=68 velocity: 127
@47520 $198.0 Channel: 14 Note on, E4 key=64 velocity: 127
@47520 $198.0 Channel: 14 Note on, B4 key=71 velocity: 127
@47700 $198.75 Channel: 14 Note off, B4 key=71 velocity: 0
@47700 $198.75 Channel: 14 Note on, E5 key=76 velocity: 127
@47760 $199.0 Channel: 14 Note off, E5 key=76 velocity: 0
@47760 $199.0 Channel: 14 Note off, E4 key=64 velocity: 0
@47760 $199.0 Channel: 14 Note off, G#4 key=68 velocity: 0
@47760 $199.0 Channel: 14 Note on, E4 key=64 velocity: 127
@48000 $200.0 Channel: 14 Note off, E4 key=64 velocity: 0
@48000 $200.0 Channel: 14 Note on, E4 key=64 velocity: 127
@48240 $201.0 Channel: 14 Note off, E4 key=64 velocity: 0
@48240 $201.0 Channel: 14 Note on, D5 key=74 velocity: 127
@48270 $201.125 Channel: 14 Note off, D5 key=74 velocity: 0
@48270 $201.125 Channel: 14 Note on, C#5 key=73 velocity: 127
@48300 $201.25 Channel: 14 Note off, C#5 key=73 velocity: 0
@48300 $201.25 Channel: 14 Note on, B4 key=71 velocity: 127
@48330 $201.375 Channel: 14 Note off, B4 key=71 velocity: 0
@48330 $201.375 Channel: 14 Note on, C#5 key=73 velocity: 127
@48360 $201.5 Channel: 14 Note off, C#5 key=73 velocity: 0
@48360 $201.5 Channel: 14 Note on, D5 key=74 velocity: 127
@48390 $201.625 Channel: 14 Note off, D5 key=74 velocity: 0
@48390 $201.625 Channel: 14 Note on, C#5 key=73 velocity: 127
@48420 $201.75 Channel: 14 Note off, C#5 key=73 velocity: 0
@48420 $201.75 Channel: 14 Note on, B4 key=71 velocity: 127
@48450 $201.875 Channel: 14 Note off, B4 key=71 velocity: 0
@48450 $201.875 Channel: 14 Note on, C#5 key=73 velocity: 127
@48480 $202.0 Channel: 14 Note off, C#5 key=73 velocity: 0
@48480 $202.0 Channel: 14 Note on, F#4 key=66 velocity: 127
@48720 $203.0 Channel: 14 Note off, F#4 key=66 velocity: 0
@48720 $203.0 Channel: 14 Note on, D5 key=74 velocity: 127
@48735 $203.0625 Channel: 14 Note off, D5 key=74 velocity: 0
@48735 $203.0625 Channel: 14 Note on, E4 key=64 velocity: 127
@48960 $204.0 Channel: 14 Note off, E4 key=64 velocity: 0
@48960 $204.0 Channel: 14 Note on, C#5 key=73 velocity: 127
@48975 $204.0625 Channel: 14 Note off, C#5 key=73 velocity: 0
@48975 $204.0625 Channel: 14 Note on, E4 key=64 velocity: 127
@49020 $204.25 Channel: 14 Note off, E4 key=64 velocity: 0
@49020 $204.25 Channel: 14 Note on, C#5 key=73 velocity: 127
@49035 $204.3125 Channel: 14 Note off, C#5 key=73 velocity: 0
@49035 $204.3125 Channel: 14 Note on, E4 key=64 velocity: 127
@49080 $204.5 Channel: 14 Note off, E4 key=64 velocity: 0
@49080 $204.5 Channel: 14 Note on, C#5 key=73 velocity: 127
@49095 $204.5625 Channel: 14 Note off, C#5 key=73 velocity: 0
@49095 $204.5625 Channel: 14 Note on, E4 key=64 velocity: 127
@49140 $204.75 Channel: 14 Note off, E4 key=64 velocity: 0
@49140 $204.75 Channel: 14 Note on, C#5 key=73 velocity: 127
@49155 $204.8125 Channel: 14 Note off, C#5 key=73 velocity: 0
@49155 $204.8125 Channel: 14 Note on, E4 key=64 velocity: 127
@49200 $205.0 Channel: 14 Note off, E4 key=64 velocity: 0
@49200 $205.0 Channel: 14 Note on, E4 key=64 velocity: 127
@49320 $205.5 Channel: 14 Note off, E4 key=64 velocity: 0
@49320 $205.5 Channel: 14 Note on, E4 key=64 velocity: 127
@49335 $205.5625 Channel: 14 Note off, E4 key=64 velocity: 0
@49335 $205.5625 Channel: 14 Note on, A4 key=69 velocity: 127
@49350 $205.625 Channel: 14 Note off, A4 key=69 velocity: 0
@49350 $205.625 Channel: 14 Note on, C#5 key=73 velocity: 127
@49410 $205.875 Channel: 14 Note off, C#5 key=73 velocity: 0
@49410 $205.875 Channel: 14 Note on, C#5 key=73 velocity: 127
@49440 $206.0 Channel: 14 Note off, C#5 key=73 velocity: 0
@49440 $206.0 Channel: 14 Note on, E4 key=64 velocity: 127
@49455 $206.0625 Channel: 14 Note off, E4 key=64 velocity: 0
@49455 $206.0625 Channel: 14 Note on, A4 key=69 velocity: 127
@49470 $206.125 Channel: 14 Note off, A4 key=69 velocity: 0
@49470 $206.125 Channel: 14 Note on, C#5 key=73 velocity: 127
@49680 $207.0 Channel: 14 Note off, C#5 key=73 velocity: 0
@49680 $207.0 Channel: 14 Note on, E4 key=64 velocity: 127
@49695 $207.0625 Channel: 14 Note off, E4 key=64 velocity: 0
@49695 $207.0625 Channel: 14 Note on, A4 key=69 velocity: 127
@49710 $207.125 Channel: 14 Note off, A4 key=69 velocity: 0
@49710 $207.125 Channel: 14 Note on, C#5 key=73 velocity: 127
@49920 $208.0 Channel: 14 Note off, C#5 key=73 velocity: 0
@49920 $208.0 Channel: 14 Note on, D5 key=74 velocity: 127
@49950 $208.125 Channel: 14 Note off, D5 key=74 velocity: 0
@49950 $208.125 Channel: 14 Note on, C#5 key=73 velocity: 127
@49980 $208.25 Channel: 14 Note off, C#5 key=73 velocity: 0
@49980 $208.25 Channel: 14 Note on, B4 key=71 velocity: 127
@50010 $208.375 Channel: 14 Note off, B4 key=71 velocity: 0
@50010 $208.375 Channel: 14 Note on, C#5 key=73 velocity: 127
@50040 $208.5 Channel: 14 Note off, C#5 key=73 velocity: 0
@50040 $208.5 Channel: 14 Note on, D5 key=74 velocity: 127
@50070 $208.625 Channel: 14 Note off, D5 key=74 velocity: 0
@50070 $208.625 Channel: 14 Note on, C#5 key=73 velocity: 127
@50100 $208.75 Channel: 14 Note off, C#5 key=73 velocity: 0
@50100 $208.75 Channel: 14 Note on, B4 key=71 velocity: 127
@50130 $208.875 Channel: 14 Note off, B4 key=71 velocity: 0
@50130 $208.875 Channel: 14 Note on, C#5 key=73 velocity: 127
@50160 $209.0 Channel: 14 Note off, C#5 key=73 velocity: 0
@50160 $209.0 Channel: 14 Note on, D5 key=74 velocity: 127
@50400 $210.0 Channel: 14 Note off, D5 key=74 velocity: 0
@50400 $210.0 Channel: 14 Note on, D5 key=74 velocity: 127
@50415 $210.0625 Channel: 14 Note off, D5 key=74 velocity: 0
@50415 $210.0625 Channel: 14 Note on, C#5 key=73 velocity: 127
@50460 $210.25 Channel: 14 Note off, C#5 key=73 velocity: 0
@50460 $210.25 Channel: 14 Note on, D5 key=74 velocity: 127
@50475 $210.3125 Channel: 14 Note off, D5 key=74 velocity: 0
@50475 $210.3125 Channel: 14 Note on, C#5 key=73 velocity: 127
@50520 $210.5 Channel: 14 Note off, C#5 key=73 velocity: 0
@50520 $210.5 Channel: 14 Note on, D5 key=74 velocity: 127
@50535 $210.5625 Channel: 14 Note off, D5 key=74 velocity: 0
@50535 $210.5625 Channel: 14 Note on, C#5 key=73 velocity: 127
@50580 $210.75 Channel: 14 Note off, C#5 key=73 velocity: 0
@50580 $210.75 Channel: 14 Note on, D5 key=74 velocity: 127
@50595 $210.8125 Channel: 14 Note off, D5 key=74 velocity: 0
@50595 $210.8125 Channel: 14 Note on, C#5 key=73 velocity: 127
@50640 $211.0 Channel: 14 Note off, C#5 key=73 velocity: 0
@50640 $211.0 Channel: 14 Note on, B4 key=71 velocity: 127
@50820 $211.75 Channel: 14 Note off, B4 key=71 velocity: 0
@50820 $211.75 Channel: 14 Note on, E5 key=76 velocity: 127
@50880 $212.0 Channel: 14 Note off, E5 key=76 velocity: 0
@50880 $212.0 Channel: 14 Note on, C#5 key=73 velocity: 127
@51120 $213.0 Channel: 14 Note off, C#5 key=73 velocity: 0
@51120 $213.0 Channel: 14 Note on, C#5 key=73 velocity: 127
@51360 $214.0 Channel: 14 Note off, C#5 key=73 velocity: 0
@51360 $214.0 Channel: 14 Note on, D5 key=74 velocity: 127
@51390 $214.125 Channel: 14 Note off, D5 key=74 velocity: 0
@51390 $214.125 Channel: 14 Note on, C#5 key=73 velocity: 127
@51420 $214.25 Channel: 14 Note off, C#5 key=73 velocity: 0
@51420 $214.25 Channel: 14 Note on, B4 key=71 velocity: 127
@51450 $214.375 Channel: 14 Note off, B4 key=71 velocity: 0
@51450 $214.375 Channel: 14 Note on, C#5 key=73 velocity: 127
@51480 $214.5 Channel: 14 Note off, C#5 key=73 velocity: 0
@51480 $214.5 Channel: 14 Note on, D5 key=74 velocity: 127
@51510 $214.625 Channel: 14 Note off, D5 key=74 velocity: 0
@51510 $214.625 Channel: 14 Note on, C#5 key=73 velocity: 127
@51540 $214.75 Channel: 14 Note off, C#5 key=73 velocity: 0
@51540 $214.75 Channel: 14 Note on, B4 key=71 velocity: 127
@51570 $214.875 Channel: 14 Note off, B4 key=71 velocity: 0
@51570 $214.875 Channel: 14 Note on, C#5 key=73 velocity: 127
@51600 $215.0 Channel: 14 Note off, C#5 key=73 velocity: 0
@51600 $215.0 Channel: 14 Note on, F#4 key=66 velocity: 127
@51840 $216.0 Channel: 14 Note off, F#4 key=66 velocity: 0
@51840 $216.0 Channel: 14 Note on, D5 key=74 velocity: 127
@51855 $216.0625 Channel: 14 Note off, D5 key=74 velocity: 0
@51855 $216.0625 Channel: 14 Note on, E4 key=64 velocity: 127
@52080 $217.0 Channel: 14 Note off, E4 key=64 velocity: 0
@52080 $217.0 Channel: 14 Note on, C#5 key=73 velocity: 127
@52095 $217.0625 Channel: 14 Note off, C#5 key=73 velocity: 0
@52095 $217.0625 Channel: 14 Note on, E4 key=64 velocity: 127
@52140 $217.25 Channel: 14 Note off, E4 key=64 velocity: 0
@52140 $217.25 Channel: 14 Note on, C#5 key=73 velocity: 127
@52155 $217.3125 Channel: 14 Note off, C#5 key=73 velocity: 0
@52155 $217.3125 Channel: 14 Note on, E4 key=64 velocity: 127
@52200 $217.5 Channel: 14 Note off, E4 key=64 velocity: 0
@52200 $217.5 Channel: 14 Note on, C#5 key=73 velocity: 127
@52215 $217.5625 Channel: 14 Note off, C#5 key=73 velocity: 0
@52215 $217.5625 Channel: 14 Note on, E4 key=64 velocity: 127
@52260 $217.75 Channel: 14 Note off, E4 key=64 velocity: 0
@52260 $217.75 Channel: 14 Note on, C#5 key=73 velocity: 127
@52275 $217.8125 Channel: 14 Note off, C#5 key=73 velocity: 0
@52275 $217.8125 Channel: 14 Note on, E4 key=64 velocity: 127
@52320 $218.0 Channel: 14 Note off, E4 key=64 velocity: 0
@52320 $218.0 Channel: 14 Note on, C#5 key=73 velocity: 127
@52320 $218.0 Channel: 14 Note on, E4 key=64 velocity: 127
@52320 $218.0 Channel: 14 Note on, C#4 key=61 velocity: 127
@52320 $218.0 Channel: 14 Note on, A4 key=69 velocity: 127
@52500 $218.75 Channel: 14 Note off, A4 key=69 velocity: 0
@52500 $218.75 Channel: 14 Note off, C#5 key=73 velocity: 0
@52500 $218.75 Channel: 14 Note off, E4 key=64 velocity: 0
@52500 $218.75 Channel: 14 Note off, C#4 key=61 velocity: 0
@52500 $218.75 Channel: 14 Note on, C#5 key=73 velocity: 127
@52560 $219.0 Channel: 14 Note off, C#5 key=73 velocity: 0
@52560 $219.0 Channel: 14 Note on, A3 key=57 velocity: 127
@52560 $219.0 Channel: 14 Note on, A4 key=69 velocity: 127
@52740 $219.75 Channel: 14 Note off, A4 key=69 velocity: 0
@52740 $219.75 Channel: 14 Note off, A3 key=57 velocity: 0
@52740 $219.75 Channel: 14 Note on, E4 key=64 velocity: 127
@52740 $219.75 Channel: 14 Note on, E5 key=76 velocity: 127
@52800 $220.0 Channel: 14 Note off, E5 key=76 velocity: 0
@52800 $220.0 Channel: 14 Note off, E4 key=64 velocity: 0
@52800 $220.0 Channel: 14 Note on, A3 key=57 velocity: 127
@52800 $220.0 Channel: 14 Note on, A4 key=69 velocity: 127
@52980 $220.75 Channel: 14 Note off, A4 key=69 velocity: 0
@52980 $220.75 Channel: 14 Note off, A3 key=57 velocity: 0
@52980 $220.75 Channel: 14 Note on, C#4 key=61 velocity: 127
@52980 $220.75 Channel: 14 Note on, C#5 key=73 velocity: 127
@53040 $221.0 Channel: 14 Note off, C#5 key=73 velocity: 0
@53040 $221.0 Channel: 14 Note off, C#4 key=61 velocity: 0
@53040 $221.0 Channel: 14 Note on, A3 key=57 velocity: 127
@53040 $221.0 Channel: 14 Note on, A4 key=69 velocity: 127
@53085 $221.1875 Channel: 14 Note off, A4 key=69 velocity: 0
@53085 $221.1875 Channel: 14 Note off, A3 key=57 velocity: 0
@53100 $221.25 Channel: 14 Note on, C#4 key=61 velocity: 127
@53100 $221.25 Channel: 14 Note on, C#5 key=73 velocity: 127
@53145 $221.4375 Channel: 14 Note off, C#5 key=73 velocity: 0
@53145 $221.4375 Channel: 14 Note off, C#4 key=61 velocity: 0
@53160 $221.5 Channel: 14 Note on, A3 key=57 velocity: 127
@53160 $221.5 Channel: 14 Note on, A4 key=69 velocity: 127
@53205 $221.6875 Channel: 14 Note off, A4 key=69 velocity: 0
@53205 $221.6875 Channel: 14 Note off, A3 key=57 velocity: 0
@53220 $221.75 Channel: 14 Note on, E4 key=64 velocity: 127
@53220 $221.75 Channel: 14 Note on, E5 key=76 velocity: 127
@53265 $221.9375 Channel: 14 Note off, E5 key=76 velocity: 0
@53265 $221.9375 Channel: 14 Note off, E4 key=64 velocity: 0
@53280 $222.0 Channel: 14 Note on, A3 key=57 velocity: 127
@53280 $222.0 Channel: 14 Note on, A4 key=69 velocity: 127
@53340 $222.25 Channel: 14 Note off, A4 key=69 velocity: 0
@53340 $222.25 Channel: 14 Note off, A3 key=57 velocity: 0
@53400 $222.5 Channel: 14 Note on, E4 key=64 velocity: 127
@53400 $222.5 Channel: 14 Note on, C#4 key=61 velocity: 127
@53400 $222.5 Channel: 14 Note on, A4 key=69 velocity: 127
@53400 $222.5 Channel: 14 Note on, A3 key=57 velocity: 127
@53640 $223.5 Channel: 14 Note off, A3 key=57 velocity: 0
@53640 $223.5 Channel: 14 Note off, E4 key=64 velocity: 0
@53640 $223.5 Channel: 14 Note off, C#4 key=61 velocity: 0
@53640 $223.5 Channel: 14 Note off, A4 key=69 velocity: 0
@53760 $224.0 Channel: 14 Note on, A3 key=57 velocity: 127
@53760 $224.0 Channel: 14 Note on, C#4 key=61 velocity: 127
@53760 $224.0 Channel: 14 Note on, E4 key=64 velocity: 127
@53760 $224.0 Channel: 14 Note on, A4 key=69 velocity: 127
@54240 $226.0 Channel: 14 Note off, A4 key=69 velocity: 0
@54240 $226.0 Channel: 14 Note off, A3 key=57 velocity: 0
@54240 $226.0 Channel: 14 Note off, C#4 key=61 velocity: 0
@54240 $226.0 Channel: 14 Note off, E4 key=64 velocity: 0
@54240 $226.0 Other meta message: class javax.sound.midi.Track$ImmutableEndOfTrack

Track 16: size = 468
@0 $0.0 Other meta message: class javax.sound.midi.MetaMessage
@0 $0.0 Other meta message: class javax.sound.midi.MetaMessage
@0 $0.0 Channel: 15 Other short message:192
@0 $0.0 Channel: 15 Control Change message
@0 $0.0 Channel: 15 Control Change message
@25200 $105.0 Channel: 15 Note on, F#2 key=42 velocity: 100
@25260 $105.25 Channel: 15 Note off, F#2 key=42 velocity: 0
@25440 $106.0 Channel: 15 Note on, G#2 key=44 velocity: 100
@25500 $106.25 Channel: 15 Note off, G#2 key=44 velocity: 0
@25680 $107.0 Channel: 15 Note on, F#2 key=42 velocity: 100
@25740 $107.25 Channel: 15 Note off, F#2 key=42 velocity: 0
@25920 $108.0 Channel: 15 Note on, C#3 key=49 velocity: 100
@25980 $108.25 Channel: 15 Note off, C#3 key=49 velocity: 0
@26160 $109.0 Channel: 15 Note on, B2 key=47 velocity: 100
@26220 $109.25 Channel: 15 Note off, B2 key=47 velocity: 0
@26400 $110.0 Channel: 15 Note on, B2 key=47 velocity: 100
@26460 $110.25 Channel: 15 Note off, B2 key=47 velocity: 0
@26640 $111.0 Channel: 15 Note on, C#3 key=49 velocity: 100
@26700 $111.25 Channel: 15 Note off, C#3 key=49 velocity: 0
@26760 $111.5 Channel: 15 Note on, C#3 key=49 velocity: 100
@26820 $111.75 Channel: 15 Note off, C#3 key=49 velocity: 0
@26880 $112.0 Channel: 15 Note on, F#2 key=42 velocity: 75
@27000 $112.5 Channel: 15 Note off, F#2 key=42 velocity: 0
@46200 $192.5 Channel: 15 Note on, C#3 key=49 velocity: 127
@46320 $193.0 Channel: 15 Note off, C#3 key=49 velocity: 0
@46320 $193.0 Channel: 15 Note on, A2 key=45 velocity: 100
@46330 $193.04166666666666 Channel: 15 Note off, A2 key=45 velocity: 0
@46330 $193.04166666666666 Channel: 15 Note on, C#3 key=49 velocity: 100
@46340 $193.08333333333334 Channel: 15 Note off, C#3 key=49 velocity: 0
@46340 $193.08333333333334 Channel: 15 Note on, E3 key=52 velocity: 100
@46350 $193.125 Channel: 15 Note off, E3 key=52 velocity: 0
@46350 $193.125 Channel: 15 Note on, A3 key=57 velocity: 100
@46380 $193.25 Channel: 15 Note off, A3 key=57 velocity: 0
@46380 $193.25 Channel: 15 Note on, A3 key=57 velocity: 100
@46410 $193.375 Channel: 15 Note off, A3 key=57 velocity: 0
@46440 $193.5 Channel: 15 Note on, A3 key=57 velocity: 100
@46470 $193.625 Channel: 15 Note off, A3 key=57 velocity: 0
@46500 $193.75 Channel: 15 Note on, A3 key=57 velocity: 100
@46530 $193.875 Channel: 15 Note off, A3 key=57 velocity: 0
@46560 $194.0 Channel: 15 Note on, A2 key=45 velocity: 100
@46570 $194.04166666666666 Channel: 15 Note off, A2 key=45 velocity: 0
@46570 $194.04166666666666 Channel: 15 Note on, C#3 key=49 velocity: 100
@46580 $194.08333333333334 Channel: 15 Note off, C#3 key=49 velocity: 0
@46580 $194.08333333333334 Channel: 15 Note on, E3 key=52 velocity: 100
@46590 $194.125 Channel: 15 Note off, E3 key=52 velocity: 0
@46590 $194.125 Channel: 15 Note on, A3 key=57 velocity: 100
@46620 $194.25 Channel: 15 Note off, A3 key=57 velocity: 0
@46620 $194.25 Channel: 15 Note on, A3 key=57 velocity: 100
@46650 $194.375 Channel: 15 Note off, A3 key=57 velocity: 0
@46680 $194.5 Channel: 15 Note on, A3 key=57 velocity: 100
@46710 $194.625 Channel: 15 Note off, A3 key=57 velocity: 0
@46740 $194.75 Channel: 15 Note on, A3 key=57 velocity: 100
@46770 $194.875 Channel: 15 Note off, A3 key=57 velocity: 0
@46800 $195.0 Channel: 15 Note on, A2 key=45 velocity: 100
@46807 $195.02916666666667 Channel: 15 Note on, C#3 key=49 velocity: 100
@46810 $195.04166666666666 Channel: 15 Note off, A2 key=45 velocity: 0
@46815 $195.0625 Channel: 15 Note on, E3 key=52 velocity: 100
@46817 $195.07083333333333 Channel: 15 Note off, C#3 key=49 velocity: 0
@46825 $195.10416666666666 Channel: 15 Note off, E3 key=52 velocity: 0
@46830 $195.125 Channel: 15 Note on, A3 key=57 velocity: 100
@46860 $195.25 Channel: 15 Note off, A3 key=57 velocity: 0
@46860 $195.25 Channel: 15 Note on, A3 key=57 velocity: 100
@46890 $195.375 Channel: 15 Note off, A3 key=57 velocity: 0
@46920 $195.5 Channel: 15 Note on, A3 key=57 velocity: 100
@46950 $195.625 Channel: 15 Note off, A3 key=57 velocity: 0
@46980 $195.75 Channel: 15 Note on, A3 key=57 velocity: 100
@47010 $195.875 Channel: 15 Note off, A3 key=57 velocity: 0
@47040 $196.0 Channel: 15 Note on, D2 key=38 velocity: 100
@47047 $196.02916666666667 Channel: 15 Note on, F#2 key=42 velocity: 100
@47050 $196.04166666666666 Channel: 15 Note off, D2 key=38 velocity: 0
@47055 $196.0625 Channel: 15 Note on, A2 key=45 velocity: 100
@47057 $196.07083333333333 Channel: 15 Note off, F#2 key=42 velocity: 0
@47065 $196.10416666666666 Channel: 15 Note off, A2 key=45 velocity: 0
@47070 $196.125 Channel: 15 Note on, D3 key=50 velocity: 100
@47100 $196.25 Channel: 15 Note off, D3 key=50 velocity: 0
@47100 $196.25 Channel: 15 Note on, D3 key=50 velocity: 100
@47130 $196.375 Channel: 15 Note off, D3 key=50 velocity: 0
@47160 $196.5 Channel: 15 Note on, D3 key=50 velocity: 100
@47190 $196.625 Channel: 15 Note off, D3 key=50 velocity: 0
@47220 $196.75 Channel: 15 Note on, D3 key=50 velocity: 100
@47250 $196.875 Channel: 15 Note off, D3 key=50 velocity: 0
@47280 $197.0 Channel: 15 Note on, C#3 key=49 velocity: 100
@47280 $197.0 Channel: 15 Note on, A2 key=45 velocity: 100
@47290 $197.04166666666666 Channel: 15 Note off, A2 key=45 velocity: 0
@47290 $197.04166666666666 Channel: 15 Note off, C#3 key=49 velocity: 0
@47295 $197.0625 Channel: 15 Note on, E3 key=52 velocity: 100
@47305 $197.10416666666666 Channel: 15 Note off, E3 key=52 velocity: 0
@47310 $197.125 Channel: 15 Note on, A3 key=57 velocity: 127
@47340 $197.25 Channel: 15 Note off, A3 key=57 velocity: 0
@47340 $197.25 Channel: 15 Note on, A3 key=57 velocity: 100
@47370 $197.375 Channel: 15 Note off, A3 key=57 velocity: 0
@47400 $197.5 Channel: 15 Note on, A3 key=57 velocity: 100
@47430 $197.625 Channel: 15 Note off, A3 key=57 velocity: 0
@47460 $197.75 Channel: 15 Note on, A3 key=57 velocity: 100
@47490 $197.875 Channel: 15 Note off, A3 key=57 velocity: 0
@47520 $198.0 Channel: 15 Note on, E2 key=40 velocity: 100
@47527 $198.02916666666667 Channel: 15 Note on, G#2 key=44 velocity: 100
@47530 $198.04166666666666 Channel: 15 Note off, E2 key=40 velocity: 0
@47537 $198.07083333333333 Channel: 15 Note off, G#2 key=44 velocity: 0
@47538 $198.075 Channel: 15 Note on, B2 key=47 velocity: 100
@47548 $198.11666666666667 Channel: 15 Note off, B2 key=47 velocity: 0
@47550 $198.125 Channel: 15 Note on, E3 key=52 velocity: 127
@47580 $198.25 Channel: 15 Note off, E3 key=52 velocity: 0
@47580 $198.25 Channel: 15 Note on, E3 key=52 velocity: 100
@47610 $198.375 Channel: 15 Note off, E3 key=52 velocity: 0
@47640 $198.5 Channel: 15 Note on, E3 key=52 velocity: 100
@47670 $198.625 Channel: 15 Note off, E3 key=52 velocity: 0
@47700 $198.75 Channel: 15 Note on, E3 key=52 velocity: 100
@47730 $198.875 Channel: 15 Note off, E3 key=52 velocity: 0
@47760 $199.0 Channel: 15 Note on, A2 key=45 velocity: 100
@47768 $199.03333333333333 Channel: 15 Note on, C#3 key=49 velocity: 100
@47770 $199.04166666666666 Channel: 15 Note off, A2 key=45 velocity: 0
@47778 $199.075 Channel: 15 Note off, C#3 key=49 velocity: 0
@47778 $199.075 Channel: 15 Note on, E3 key=52 velocity: 100
@47788 $199.11666666666667 Channel: 15 Note off, E3 key=52 velocity: 0
@47790 $199.125 Channel: 15 Note on, A3 key=57 velocity: 100
@47820 $199.25 Channel: 15 Note off, A3 key=57 velocity: 0
@47820 $199.25 Channel: 15 Note on, A3 key=57 velocity: 100
@47850 $199.375 Channel: 15 Note off, A3 key=57 velocity: 0
@47880 $199.5 Channel: 15 Note on, A3 key=57 velocity: 100
@47910 $199.625 Channel: 15 Note off, A3 key=57 velocity: 0
@47940 $199.75 Channel: 15 Note on, A3 key=57 velocity: 100
@47970 $199.875 Channel: 15 Note off, A3 key=57 velocity: 0
@48000 $200.0 Channel: 15 Note on, A2 key=45 velocity: 100
@48005 $200.02083333333334 Channel: 15 Note on, C#3 key=49 velocity: 100
@48008 $200.03333333333333 Channel: 15 Note on, E3 key=52 velocity: 100
@48010 $200.04166666666666 Channel: 15 Note off, A2 key=45 velocity: 0
@48015 $200.0625 Channel: 15 Note off, C#3 key=49 velocity: 0
@48018 $200.075 Channel: 15 Note off, E3 key=52 velocity: 0
@48030 $200.125 Channel: 15 Note on, A3 key=57 velocity: 100
@48060 $200.25 Channel: 15 Note off, A3 key=57 velocity: 0
@48060 $200.25 Channel: 15 Note on, A3 key=57 velocity: 100
@48090 $200.375 Channel: 15 Note off, A3 key=57 velocity: 0
@48120 $200.5 Channel: 15 Note on, A3 key=57 velocity: 100
@48150 $200.625 Channel: 15 Note off, A3 key=57 velocity: 0
@48180 $200.75 Channel: 15 Note on, A3 key=57 velocity: 100
@48210 $200.875 Channel: 15 Note off, A3 key=57 velocity: 0
@48240 $201.0 Channel: 15 Note on, A2 key=45 velocity: 100
@48250 $201.04166666666666 Channel: 15 Note off, A2 key=45 velocity: 0
@48255 $201.0625 Channel: 15 Note on, C#3 key=49 velocity: 100
@48265 $201.10416666666666 Channel: 15 Note off, C#3 key=49 velocity: 0
@48270 $201.125 Channel: 15 Note on, E3 key=52 velocity: 100
@48280 $201.16666666666666 Channel: 15 Note off, E3 key=52 velocity: 0
@48285 $201.1875 Channel: 15 Note on, A3 key=57 velocity: 127
@48295 $201.22916666666666 Channel: 15 Note off, A3 key=57 velocity: 0
@48300 $201.25 Channel: 15 Note on, A3 key=57 velocity: 100
@48330 $201.375 Channel: 15 Note off, A3 key=57 velocity: 0
@48360 $201.5 Channel: 15 Note on, A3 key=57 velocity: 100
@48390 $201.625 Channel: 15 Note off, A3 key=57 velocity: 0
@48420 $201.75 Channel: 15 Note on, A3 key=57 velocity: 100
@48450 $201.875 Channel: 15 Note off, A3 key=57 velocity: 0
@48480 $202.0 Channel: 15 Note on, D2 key=38 velocity: 100
@48490 $202.04166666666666 Channel: 15 Note off, D2 key=38 velocity: 0
@48495 $202.0625 Channel: 15 Note on, F#2 key=42 velocity: 100
@48505 $202.10416666666666 Channel: 15 Note off, F#2 key=42 velocity: 0
@48510 $202.125 Channel: 15 Note on, A2 key=45 velocity: 100
@48520 $202.16666666666666 Channel: 15 Note off, A2 key=45 velocity: 0
@48525 $202.1875 Channel: 15 Note on, D3 key=50 velocity: 127
@48535 $202.22916666666666 Channel: 15 Note off, D3 key=50 velocity: 0
@48540 $202.25 Channel: 15 Note on, D3 key=50 velocity: 100
@48570 $202.375 Channel: 15 Note off, D3 key=50 velocity: 0
@48600 $202.5 Channel: 15 Note on, D3 key=50 velocity: 100
@48630 $202.625 Channel: 15 Note off, D3 key=50 velocity: 0
@48660 $202.75 Channel: 15 Note on, D3 key=50 velocity: 100
@48690 $202.875 Channel: 15 Note off, D3 key=50 velocity: 0
@48720 $203.0 Channel: 15 Note on, A2 key=45 velocity: 100
@48730 $203.04166666666666 Channel: 15 Note off, A2 key=45 velocity: 0
@48735 $203.0625 Channel: 15 Note on, C#3 key=49 velocity: 100
@48745 $203.10416666666666 Channel: 15 Note off, C#3 key=49 velocity: 0
@48750 $203.125 Channel: 15 Note on, E3 key=52 velocity: 100
@48760 $203.16666666666666 Channel: 15 Note off, E3 key=52 velocity: 0
@48765 $203.1875 Channel: 15 Note on, A3 key=57 velocity: 127
@48775 $203.22916666666666 Channel: 15 Note off, A3 key=57 velocity: 0
@48780 $203.25 Channel: 15 Note on, A3 key=57 velocity: 126
@48810 $203.375 Channel: 15 Note off, A3 key=57 velocity: 0
@48840 $203.5 Channel: 15 Note on, A3 key=57 velocity: 127
@48870 $203.625 Channel: 15 Note off, A3 key=57 velocity: 0
@48900 $203.75 Channel: 15 Note on, A3 key=57 velocity: 127
@48930 $203.875 Channel: 15 Note off, A3 key=57 velocity: 0
@48960 $204.0 Channel: 15 Note on, E2 key=40 velocity: 100
@48970 $204.04166666666666 Channel: 15 Note off, E2 key=40 velocity: 0
@48975 $204.0625 Channel: 15 Note on, G#2 key=44 velocity: 100
@48985 $204.10416666666666 Channel: 15 Note off, G#2 key=44 velocity: 0
@48990 $204.125 Channel: 15 Note on, B2 key=47 velocity: 100
@49000 $204.16666666666666 Channel: 15 Note off, B2 key=47 velocity: 0
@49005 $204.1875 Channel: 15 Note on, E3 key=52 velocity: 127
@49015 $204.22916666666666 Channel: 15 Note off, E3 key=52 velocity: 0
@49020 $204.25 Channel: 15 Note on, E3 key=52 velocity: 126
@49050 $204.375 Channel: 15 Note off, E3 key=52 velocity: 0
@49080 $204.5 Channel: 15 Note on, E3 key=52 velocity: 126
@49110 $204.625 Channel: 15 Note off, E3 key=52 velocity: 0
@49140 $204.75 Channel: 15 Note on, E3 key=52 velocity: 126
@49170 $204.875 Channel: 15 Note off, E3 key=52 velocity: 0
@49200 $205.0 Channel: 15 Note on, A2 key=45 velocity: 100
@49230 $205.125 Channel: 15 Note off, A2 key=45 velocity: 0
@49230 $205.125 Channel: 15 Note on, E3 key=52 velocity: 100
@49260 $205.25 Channel: 15 Note off, E3 key=52 velocity: 0
@49260 $205.25 Channel: 15 Note on, C#3 key=49 velocity: 100
@49290 $205.375 Channel: 15 Note off, C#3 key=49 velocity: 0
@49290 $205.375 Channel: 15 Note on, E3 key=52 velocity: 100
@49320 $205.5 Channel: 15 Note off, E3 key=52 velocity: 0
@49320 $205.5 Channel: 15 Note on, A2 key=45 velocity: 100
@49350 $205.625 Channel: 15 Note off, A2 key=45 velocity: 0
@49350 $205.625 Channel: 15 Note on, E3 key=52 velocity: 100
@49380 $205.75 Channel: 15 Note off, E3 key=52 velocity: 0
@49380 $205.75 Channel: 15 Note on, C#3 key=49 velocity: 100
@49410 $205.875 Channel: 15 Note off, C#3 key=49 velocity: 0
@49410 $205.875 Channel: 15 Note on, E3 key=52 velocity: 100
@49440 $206.0 Channel: 15 Note off, E3 key=52 velocity: 0
@49440 $206.0 Channel: 15 Note on, A2 key=45 velocity: 100
@49470 $206.125 Channel: 15 Note off, A2 key=45 velocity: 0
@49470 $206.125 Channel: 15 Note on, E3 key=52 velocity: 100
@49500 $206.25 Channel: 15 Note off, E3 key=52 velocity: 0
@49500 $206.25 Channel: 15 Note on, C#3 key=49 velocity: 100
@49530 $206.375 Channel: 15 Note off, C#3 key=49 velocity: 0
@49530 $206.375 Channel: 15 Note on, E3 key=52 velocity: 100
@49560 $206.5 Channel: 15 Note off, E3 key=52 velocity: 0
@49560 $206.5 Channel: 15 Note on, A2 key=45 velocity: 100
@49590 $206.625 Channel: 15 Note off, A2 key=45 velocity: 0
@49590 $206.625 Channel: 15 Note on, E3 key=52 velocity: 100
@49620 $206.75 Channel: 15 Note off, E3 key=52 velocity: 0
@49620 $206.75 Channel: 15 Note on, C#3 key=49 velocity: 100
@49650 $206.875 Channel: 15 Note off, C#3 key=49 velocity: 0
@49650 $206.875 Channel: 15 Note on, E3 key=52 velocity: 100
@49680 $207.0 Channel: 15 Note off, E3 key=52 velocity: 0
@49680 $207.0 Channel: 15 Note on, A2 key=45 velocity: 100
@49710 $207.125 Channel: 15 Note off, A2 key=45 velocity: 0
@49710 $207.125 Channel: 15 Note on, E3 key=52 velocity: 100
@49740 $207.25 Channel: 15 Note off, E3 key=52 velocity: 0
@49740 $207.25 Channel: 15 Note on, C#3 key=49 velocity: 100
@49770 $207.375 Channel: 15 Note off, C#3 key=49 velocity: 0
@49770 $207.375 Channel: 15 Note on, E3 key=52 velocity: 100
@49800 $207.5 Channel: 15 Note off, E3 key=52 velocity: 0
@49800 $207.5 Channel: 15 Note on, A2 key=45 velocity: 100
@49830 $207.625 Channel: 15 Note off, A2 key=45 velocity: 0
@49830 $207.625 Channel: 15 Note on, E3 key=52 velocity: 100
@49860 $207.75 Channel: 15 Note off, E3 key=52 velocity: 0
@49860 $207.75 Channel: 15 Note on, C#3 key=49 velocity: 100
@49890 $207.875 Channel: 15 Note off, C#3 key=49 velocity: 0
@49890 $207.875 Channel: 15 Note on, E3 key=52 velocity: 100
@49920 $208.0 Channel: 15 Note off, E3 key=52 velocity: 0
@49920 $208.0 Channel: 15 Note on, A2 key=45 velocity: 100
@49950 $208.125 Channel: 15 Note off, A2 key=45 velocity: 0
@49950 $208.125 Channel: 15 Note on, E3 key=52 velocity: 100
@49980 $208.25 Channel: 15 Note off, E3 key=52 velocity: 0
@49980 $208.25 Channel: 15 Note on, C#3 key=49 velocity: 100
@50010 $208.375 Channel: 15 Note off, C#3 key=49 velocity: 0
@50010 $208.375 Channel: 15 Note on, E3 key=52 velocity: 100
@50040 $208.5 Channel: 15 Note off, E3 key=52 velocity: 0
@50040 $208.5 Channel: 15 Note on, A2 key=45 velocity: 100
@50070 $208.625 Channel: 15 Note off, A2 key=45 velocity: 0
@50070 $208.625 Channel: 15 Note on, E3 key=52 velocity: 100
@50100 $208.75 Channel: 15 Note off, E3 key=52 velocity: 0
@50100 $208.75 Channel: 15 Note on, C#3 key=49 velocity: 100
@50130 $208.875 Channel: 15 Note off, C#3 key=49 velocity: 0
@50130 $208.875 Channel: 15 Note on, E3 key=52 velocity: 100
@50160 $209.0 Channel: 15 Note off, E3 key=52 velocity: 0
@50160 $209.0 Channel: 15 Note on, A2 key=45 velocity: 100
@50190 $209.125 Channel: 15 Note off, A2 key=45 velocity: 0
@50190 $209.125 Channel: 15 Note on, E3 key=52 velocity: 100
@50220 $209.25 Channel: 15 Note off, E3 key=52 velocity: 0
@50220 $209.25 Channel: 15 Note on, C#3 key=49 velocity: 100
@50250 $209.375 Channel: 15 Note off, C#3 key=49 velocity: 0
@50250 $209.375 Channel: 15 Note on, E3 key=52 velocity: 100
@50280 $209.5 Channel: 15 Note off, E3 key=52 velocity: 0
@50280 $209.5 Channel: 15 Note on, A2 key=45 velocity: 100
@50310 $209.625 Channel: 15 Note off, A2 key=45 velocity: 0
@50310 $209.625 Channel: 15 Note on, E3 key=52 velocity: 100
@50340 $209.75 Channel: 15 Note off, E3 key=52 velocity: 0
@50340 $209.75 Channel: 15 Note on, C#3 key=49 velocity: 100
@50370 $209.875 Channel: 15 Note off, C#3 key=49 velocity: 0
@50370 $209.875 Channel: 15 Note on, E3 key=52 velocity: 100
@50400 $210.0 Channel: 15 Note off, E3 key=52 velocity: 0
@50400 $210.0 Channel: 15 Note on, A2 key=45 velocity: 100
@50430 $210.125 Channel: 15 Note off, A2 key=45 velocity: 0
@50430 $210.125 Channel: 15 Note on, E3 key=52 velocity: 100
@50460 $210.25 Channel: 15 Note off, E3 key=52 velocity: 0
@50460 $210.25 Channel: 15 Note on, C#3 key=49 velocity: 100
@50490 $210.375 Channel: 15 Note off, C#3 key=49 velocity: 0
@50490 $210.375 Channel: 15 Note on, E3 key=52 velocity: 100
@50520 $210.5 Channel: 15 Note off, E3 key=52 velocity: 0
@50520 $210.5 Channel: 15 Note on, A2 key=45 velocity: 100
@50550 $210.625 Channel: 15 Note off, A2 key=45 velocity: 0
@50550 $210.625 Channel: 15 Note on, E3 key=52 velocity: 100
@50580 $210.75 Channel: 15 Note off, E3 key=52 velocity: 0
@50580 $210.75 Channel: 15 Note on, C#3 key=49 velocity: 100
@50610 $210.875 Channel: 15 Note off, C#3 key=49 velocity: 0
@50610 $210.875 Channel: 15 Note on, E3 key=52 velocity: 100
@50640 $211.0 Channel: 15 Note off, E3 key=52 velocity: 0
@50640 $211.0 Channel: 15 Note on, E2 key=40 velocity: 100
@50670 $211.125 Channel: 15 Note off, E2 key=40 velocity: 0
@50670 $211.125 Channel: 15 Note on, E3 key=52 velocity: 100
@50700 $211.25 Channel: 15 Note off, E3 key=52 velocity: 0
@50700 $211.25 Channel: 15 Note on, G#2 key=44 velocity: 100
@50730 $211.375 Channel: 15 Note off, G#2 key=44 velocity: 0
@50730 $211.375 Channel: 15 Note on, E3 key=52 velocity: 100
@50760 $211.5 Channel: 15 Note off, E3 key=52 velocity: 0
@50760 $211.5 Channel: 15 Note on, E2 key=40 velocity: 100
@50790 $211.625 Channel: 15 Note off, E2 key=40 velocity: 0
@50790 $211.625 Channel: 15 Note on, E3 key=52 velocity: 100
@50820 $211.75 Channel: 15 Note off, E3 key=52 velocity: 0
@50820 $211.75 Channel: 15 Note on, G#2 key=44 velocity: 100
@50850 $211.875 Channel: 15 Note off, G#2 key=44 velocity: 0
@50850 $211.875 Channel: 15 Note on, E3 key=52 velocity: 100
@50880 $212.0 Channel: 15 Note off, E3 key=52 velocity: 0
@50880 $212.0 Channel: 15 Note on, A2 key=45 velocity: 100
@50890 $212.04166666666666 Channel: 15 Note off, A2 key=45 velocity: 0
@50895 $212.0625 Channel: 15 Note on, C#3 key=49 velocity: 100
@50905 $212.10416666666666 Channel: 15 Note off, C#3 key=49 velocity: 0
@50910 $212.125 Channel: 15 Note on, E3 key=52 velocity: 100
@50920 $212.16666666666666 Channel: 15 Note off, E3 key=52 velocity: 0
@50925 $212.1875 Channel: 15 Note on, A3 key=57 velocity: 127
@50940 $212.25 Channel: 15 Note off, A3 key=57 velocity: 0
@50940 $212.25 Channel: 15 Note on, A3 key=57 velocity: 127
@50970 $212.375 Channel: 15 Note off, A3 key=57 velocity: 0
@51000 $212.5 Channel: 15 Note on, A3 key=57 velocity: 127
@51030 $212.625 Channel: 15 Note off, A3 key=57 velocity: 0
@51060 $212.75 Channel: 15 Note on, A3 key=57 velocity: 127
@51090 $212.875 Channel: 15 Note off, A3 key=57 velocity: 0
@51120 $213.0 Channel: 15 Note on, A2 key=45 velocity: 100
@51130 $213.04166666666666 Channel: 15 Note off, A2 key=45 velocity: 0
@51135 $213.0625 Channel: 15 Note on, C#3 key=49 velocity: 100
@51145 $213.10416666666666 Channel: 15 Note off, C#3 key=49 velocity: 0
@51150 $213.125 Channel: 15 Note on, E3 key=52 velocity: 100
@51160 $213.16666666666666 Channel: 15 Note off, E3 key=52 velocity: 0
@51165 $213.1875 Channel: 15 Note on, A3 key=57 velocity: 127
@51180 $213.25 Channel: 15 Note off, A3 key=57 velocity: 0
@51180 $213.25 Channel: 15 Note on, A3 key=57 velocity: 127
@51210 $213.375 Channel: 15 Note off, A3 key=57 velocity: 0
@51240 $213.5 Channel: 15 Note on, A3 key=57 velocity: 127
@51270 $213.625 Channel: 15 Note off, A3 key=57 velocity: 0
@51300 $213.75 Channel: 15 Note on, A3 key=57 velocity: 127
@51330 $213.875 Channel: 15 Note off, A3 key=57 velocity: 0
@51360 $214.0 Channel: 15 Note on, A2 key=45 velocity: 100
@51370 $214.04166666666666 Channel: 15 Note off, A2 key=45 velocity: 0
@51375 $214.0625 Channel: 15 Note on, C#3 key=49 velocity: 100
@51385 $214.10416666666666 Channel: 15 Note off, C#3 key=49 velocity: 0
@51390 $214.125 Channel: 15 Note on, E3 key=52 velocity: 100
@51400 $214.16666666666666 Channel: 15 Note off, E3 key=52 velocity: 0
@51405 $214.1875 Channel: 15 Note on, A3 key=57 velocity: 127
@51420 $214.25 Channel: 15 Note off, A3 key=57 velocity: 0
@51420 $214.25 Channel: 15 Note on, A3 key=57 velocity: 127
@51450 $214.375 Channel: 15 Note off, A3 key=57 velocity: 0
@51480 $214.5 Channel: 15 Note on, A3 key=57 velocity: 127
@51510 $214.625 Channel: 15 Note off, A3 key=57 velocity: 0
@51540 $214.75 Channel: 15 Note on, A3 key=57 velocity: 127
@51570 $214.875 Channel: 15 Note off, A3 key=57 velocity: 0
@51600 $215.0 Channel: 15 Note on, D2 key=38 velocity: 100
@51610 $215.04166666666666 Channel: 15 Note off, D2 key=38 velocity: 0
@51615 $215.0625 Channel: 15 Note on, F#2 key=42 velocity: 100
@51625 $215.10416666666666 Channel: 15 Note off, F#2 key=42 velocity: 0
@51630 $215.125 Channel: 15 Note on, A2 key=45 velocity: 100
@51640 $215.16666666666666 Channel: 15 Note off, A2 key=45 velocity: 0
@51645 $215.1875 Channel: 15 Note on, D3 key=50 velocity: 127
@51660 $215.25 Channel: 15 Note off, D3 key=50 velocity: 0
@51660 $215.25 Channel: 15 Note on, D3 key=50 velocity: 127
@51690 $215.375 Channel: 15 Note off, D3 key=50 velocity: 0
@51720 $215.5 Channel: 15 Note on, D3 key=50 velocity: 127
@51750 $215.625 Channel: 15 Note off, D3 key=50 velocity: 0
@51780 $215.75 Channel: 15 Note on, D3 key=50 velocity: 127
@51810 $215.875 Channel: 15 Note off, D3 key=50 velocity: 0
@51840 $216.0 Channel: 15 Note on, A2 key=45 velocity: 100
@51850 $216.04166666666666 Channel: 15 Note off, A2 key=45 velocity: 0
@51855 $216.0625 Channel: 15 Note on, C#3 key=49 velocity: 100
@51865 $216.10416666666666 Channel: 15 Note off, C#3 key=49 velocity: 0
@51870 $216.125 Channel: 15 Note on, E3 key=52 velocity: 100
@51880 $216.16666666666666 Channel: 15 Note off, E3 key=52 velocity: 0
@51885 $216.1875 Channel: 15 Note on, A3 key=57 velocity: 127
@51900 $216.25 Channel: 15 Note off, A3 key=57 velocity: 0
@51900 $216.25 Channel: 15 Note on, A3 key=57 velocity: 127
@51930 $216.375 Channel: 15 Note off, A3 key=57 velocity: 0
@51960 $216.5 Channel: 15 Note on, A3 key=57 velocity: 127
@51990 $216.625 Channel: 15 Note off, A3 key=57 velocity: 0
@52020 $216.75 Channel: 15 Note on, A3 key=57 velocity: 127
@52050 $216.875 Channel: 15 Note off, A3 key=57 velocity: 0
@52080 $217.0 Channel: 15 Note on, E2 key=40 velocity: 100
@52090 $217.04166666666666 Channel: 15 Note off, E2 key=40 velocity: 0
@52095 $217.0625 Channel: 15 Note on, G#2 key=44 velocity: 100
@52105 $217.10416666666666 Channel: 15 Note off, G#2 key=44 velocity: 0
@52110 $217.125 Channel: 15 Note on, B2 key=47 velocity: 100
@52120 $217.16666666666666 Channel: 15 Note off, B2 key=47 velocity: 0
@52125 $217.1875 Channel: 15 Note on, E3 key=52 velocity: 127
@52140 $217.25 Channel: 15 Note off, E3 key=52 velocity: 0
@52140 $217.25 Channel: 15 Note on, E3 key=52 velocity: 127
@52170 $217.375 Channel: 15 Note off, E3 key=52 velocity: 0
@52200 $217.5 Channel: 15 Note on, E3 key=52 velocity: 127
@52230 $217.625 Channel: 15 Note off, E3 key=52 velocity: 0
@52260 $217.75 Channel: 15 Note on, E3 key=52 velocity: 127
@52290 $217.875 Channel: 15 Note off, E3 key=52 velocity: 0
@52320 $218.0 Channel: 15 Note on, A2 key=45 velocity: 100
@52330 $218.04166666666666 Channel: 15 Note off, A2 key=45 velocity: 0
@52335 $218.0625 Channel: 15 Note on, C#3 key=49 velocity: 100
@52345 $218.10416666666666 Channel: 15 Note off, C#3 key=49 velocity: 0
@52350 $218.125 Channel: 15 Note on, E3 key=52 velocity: 100
@52360 $218.16666666666666 Channel: 15 Note off, E3 key=52 velocity: 0
@52365 $218.1875 Channel: 15 Note on, A3 key=57 velocity: 127
@52380 $218.25 Channel: 15 Note off, A3 key=57 velocity: 0
@52380 $218.25 Channel: 15 Note on, A3 key=57 velocity: 127
@52410 $218.375 Channel: 15 Note off, A3 key=57 velocity: 0
@52440 $218.5 Channel: 15 Note on, A3 key=57 velocity: 127
@52470 $218.625 Channel: 15 Note off, A3 key=57 velocity: 0
@52500 $218.75 Channel: 15 Note on, A3 key=57 velocity: 127
@52530 $218.875 Channel: 15 Note off, A3 key=57 velocity: 0
@52560 $219.0 Channel: 15 Note on, A2 key=45 velocity: 100
@52570 $219.04166666666666 Channel: 15 Note off, A2 key=45 velocity: 0
@52575 $219.0625 Channel: 15 Note on, C#3 key=49 velocity: 100
@52585 $219.10416666666666 Channel: 15 Note off, C#3 key=49 velocity: 0
@52590 $219.125 Channel: 15 Note on, E3 key=52 velocity: 100
@52600 $219.16666666666666 Channel: 15 Note off, E3 key=52 velocity: 0
@52605 $219.1875 Channel: 15 Note on, A3 key=57 velocity: 127
@52620 $219.25 Channel: 15 Note off, A3 key=57 velocity: 0
@52620 $219.25 Channel: 15 Note on, A3 key=57 velocity: 127
@52650 $219.375 Channel: 15 Note off, A3 key=57 velocity: 0
@52680 $219.5 Channel: 15 Note on, A3 key=57 velocity: 127
@52710 $219.625 Channel: 15 Note off, A3 key=57 velocity: 0
@52740 $219.75 Channel: 15 Note on, A3 key=57 velocity: 127
@52770 $219.875 Channel: 15 Note off, A3 key=57 velocity: 0
@52800 $220.0 Channel: 15 Note on, A2 key=45 velocity: 100
@52810 $220.04166666666666 Channel: 15 Note off, A2 key=45 velocity: 0
@52815 $220.0625 Channel: 15 Note on, C#3 key=49 velocity: 100
@52825 $220.10416666666666 Channel: 15 Note off, C#3 key=49 velocity: 0
@52830 $220.125 Channel: 15 Note on, E3 key=52 velocity: 100
@52840 $220.16666666666666 Channel: 15 Note off, E3 key=52 velocity: 0
@52845 $220.1875 Channel: 15 Note on, A3 key=57 velocity: 127
@52860 $220.25 Channel: 15 Note off, A3 key=57 velocity: 0
@52860 $220.25 Channel: 15 Note on, A3 key=57 velocity: 127
@52890 $220.375 Channel: 15 Note off, A3 key=57 velocity: 0
@52920 $220.5 Channel: 15 Note on, A3 key=57 velocity: 127
@52950 $220.625 Channel: 15 Note off, A3 key=57 velocity: 0
@52980 $220.75 Channel: 15 Note on, A3 key=57 velocity: 127
@53010 $220.875 Channel: 15 Note off, A3 key=57 velocity: 0
@53040 $221.0 Channel: 15 Note on, A2 key=45 velocity: 100
@53050 $221.04166666666666 Channel: 15 Note off, A2 key=45 velocity: 0
@53055 $221.0625 Channel: 15 Note on, C#3 key=49 velocity: 100
@53065 $221.10416666666666 Channel: 15 Note off, C#3 key=49 velocity: 0
@53070 $221.125 Channel: 15 Note on, E3 key=52 velocity: 100
@53080 $221.16666666666666 Channel: 15 Note off, E3 key=52 velocity: 0
@53085 $221.1875 Channel: 15 Note on, A3 key=57 velocity: 127
@53100 $221.25 Channel: 15 Note off, A3 key=57 velocity: 0
@53100 $221.25 Channel: 15 Note on, A3 key=57 velocity: 127
@53130 $221.375 Channel: 15 Note off, A3 key=57 velocity: 0
@53160 $221.5 Channel: 15 Note on, A2 key=45 velocity: 100
@53170 $221.54166666666666 Channel: 15 Note off, A2 key=45 velocity: 0
@53175 $221.5625 Channel: 15 Note on, C#3 key=49 velocity: 100
@53185 $221.60416666666666 Channel: 15 Note off, C#3 key=49 velocity: 0
@53190 $221.625 Channel: 15 Note on, E3 key=52 velocity: 100
@53200 $221.66666666666666 Channel: 15 Note off, E3 key=52 velocity: 0
@53205 $221.6875 Channel: 15 Note on, A3 key=57 velocity: 127
@53220 $221.75 Channel: 15 Note off, A3 key=57 velocity: 0
@53220 $221.75 Channel: 15 Note on, A3 key=57 velocity: 127
@53250 $221.875 Channel: 15 Note off, A3 key=57 velocity: 0
@53280 $222.0 Channel: 15 Note on, A3 key=57 velocity: 127
@53280 $222.0 Channel: 15 Note on, A2 key=45 velocity: 127
@53340 $222.25 Channel: 15 Note off, A2 key=45 velocity: 0
@53340 $222.25 Channel: 15 Note off, A3 key=57 velocity: 0
@53400 $222.5 Channel: 15 Note on, A3 key=57 velocity: 127
@53400 $222.5 Channel: 15 Note on, E3 key=52 velocity: 127
@53400 $222.5 Channel: 15 Note on, A2 key=45 velocity: 127
@53640 $223.5 Channel: 15 Note off, A2 key=45 velocity: 0
@53640 $223.5 Channel: 15 Note off, E3 key=52 velocity: 0
@53640 $223.5 Channel: 15 Note off, A3 key=57 velocity: 0
@53760 $224.0 Channel: 15 Note on, A2 key=45 velocity: 127
@53760 $224.0 Channel: 15 Note on, E3 key=52 velocity: 127
@53760 $224.0 Channel: 15 Note on, A3 key=57 velocity: 127
@54240 $226.0 Channel: 15 Note off, A3 key=57 velocity: 0
@54240 $226.0 Channel: 15 Note off, E3 key=52 velocity: 0
@54240 $226.0 Channel: 15 Note off, A2 key=45 velocity: 0
@54240 $226.0 Other meta message: class javax.sound.midi.Track$ImmutableEndOfTrack

Track 17: size = 940
@0 $0.0 Other meta message: class javax.sound.midi.MetaMessage
@0 $0.0 Other meta message: class javax.sound.midi.MetaMessage
@0 $0.0 Channel: 6 Other short message:192
@0 $0.0 Channel: 6 Control Change message
@0 $0.0 Channel: 6 Control Change message
@240 $1.0 Channel: 6 Note on, A2 key=45 velocity: 90
@300 $1.25 Channel: 6 Note off, A2 key=45 velocity: 0
@480 $2.0 Channel: 6 Note on, A2 key=45 velocity: 90
@540 $2.25 Channel: 6 Note off, A2 key=45 velocity: 0
@720 $3.0 Channel: 6 Note on, A2 key=45 velocity: 90
@780 $3.25 Channel: 6 Note off, A2 key=45 velocity: 0
@840 $3.5 Channel: 6 Note on, A2 key=45 velocity: 90
@900 $3.75 Channel: 6 Note off, A2 key=45 velocity: 0
@960 $4.0 Channel: 6 Note on, A2 key=45 velocity: 90
@1020 $4.25 Channel: 6 Note off, A2 key=45 velocity: 0
@1200 $5.0 Channel: 6 Note on, E2 key=40 velocity: 90
@1260 $5.25 Channel: 6 Note off, E2 key=40 velocity: 0
@1440 $6.0 Channel: 6 Note on, E2 key=40 velocity: 90
@1500 $6.25 Channel: 6 Note off, E2 key=40 velocity: 0
@1680 $7.0 Channel: 6 Note on, E2 key=40 velocity: 90
@1740 $7.25 Channel: 6 Note off, E2 key=40 velocity: 0
@1800 $7.5 Channel: 6 Note on, B1 key=35 velocity: 90
@1860 $7.75 Channel: 6 Note off, B1 key=35 velocity: 0
@1920 $8.0 Channel: 6 Note on, E2 key=40 velocity: 90
@1980 $8.25 Channel: 6 Note off, E2 key=40 velocity: 0
@2160 $9.0 Channel: 6 Note on, A2 key=45 velocity: 90
@2220 $9.25 Channel: 6 Note off, A2 key=45 velocity: 0
@2400 $10.0 Channel: 6 Note on, A2 key=45 velocity: 90
@2460 $10.25 Channel: 6 Note off, A2 key=45 velocity: 0
@2640 $11.0 Channel: 6 Note on, A2 key=45 velocity: 90
@2700 $11.25 Channel: 6 Note off, A2 key=45 velocity: 0
@2760 $11.5 Channel: 6 Note on, A2 key=45 velocity: 90
@2820 $11.75 Channel: 6 Note off, A2 key=45 velocity: 0
@2880 $12.0 Channel: 6 Note on, A2 key=45 velocity: 90
@2940 $12.25 Channel: 6 Note off, A2 key=45 velocity: 0
@3120 $13.0 Channel: 6 Note on, E2 key=40 velocity: 90
@3180 $13.25 Channel: 6 Note off, E2 key=40 velocity: 0
@3360 $14.0 Channel: 6 Note on, E2 key=40 velocity: 90
@3420 $14.25 Channel: 6 Note off, E2 key=40 velocity: 0
@3600 $15.0 Channel: 6 Note on, E2 key=40 velocity: 90
@3660 $15.25 Channel: 6 Note off, E2 key=40 velocity: 0
@3720 $15.5 Channel: 6 Note on, B2 key=47 velocity: 90
@3780 $15.75 Channel: 6 Note off, B2 key=47 velocity: 0
@3840 $16.0 Channel: 6 Note on, E2 key=40 velocity: 90
@3900 $16.25 Channel: 6 Note off, E2 key=40 velocity: 0
@4080 $17.0 Channel: 6 Note on, C2 key=36 velocity: 90
@4140 $17.25 Channel: 6 Note off, C2 key=36 velocity: 0
@4200 $17.5 Channel: 6 Note on, E2 key=40 velocity: 90
@4260 $17.75 Channel: 6 Note off, E2 key=40 velocity: 0
@4320 $18.0 Channel: 6 Note on, G2 key=43 velocity: 90
@4380 $18.25 Channel: 6 Note off, G2 key=43 velocity: 0
@4560 $19.0 Channel: 6 Note on, C2 key=36 velocity: 90
@4620 $19.25 Channel: 6 Note off, C2 key=36 velocity: 0
@4680 $19.5 Channel: 6 Note on, E2 key=40 velocity: 90
@4740 $19.75 Channel: 6 Note off, E2 key=40 velocity: 0
@4800 $20.0 Channel: 6 Note on, G2 key=43 velocity: 90
@4860 $20.25 Channel: 6 Note off, G2 key=43 velocity: 0
@5040 $21.0 Channel: 6 Note on, A2 key=45 velocity: 90
@5100 $21.25 Channel: 6 Note off, A2 key=45 velocity: 0
@5160 $21.5 Channel: 6 Note on, C3 key=48 velocity: 90
@5220 $21.75 Channel: 6 Note off, C3 key=48 velocity: 0
@5280 $22.0 Channel: 6 Note on, E2 key=40 velocity: 90
@5340 $22.25 Channel: 6 Note off, E2 key=40 velocity: 0
@5520 $23.0 Channel: 6 Note on, A2 key=45 velocity: 90
@5580 $23.25 Channel: 6 Note off, A2 key=45 velocity: 0
@5640 $23.5 Channel: 6 Note on, C3 key=48 velocity: 90
@5700 $23.75 Channel: 6 Note off, C3 key=48 velocity: 0
@5760 $24.0 Channel: 6 Note on, E2 key=40 velocity: 90
@5820 $24.25 Channel: 6 Note off, E2 key=40 velocity: 0
@6000 $25.0 Channel: 6 Note on, A2 key=45 velocity: 90
@6060 $25.25 Channel: 6 Note off, A2 key=45 velocity: 0
@6240 $26.0 Channel: 6 Note on, A2 key=45 velocity: 90
@6300 $26.25 Channel: 6 Note off, A2 key=45 velocity: 0
@6480 $27.0 Channel: 6 Note on, A2 key=45 velocity: 90
@6540 $27.25 Channel: 6 Note off, A2 key=45 velocity: 0
@6600 $27.5 Channel: 6 Note on, A2 key=45 velocity: 90
@6660 $27.75 Channel: 6 Note off, A2 key=45 velocity: 0
@6720 $28.0 Channel: 6 Note on, F2 key=41 velocity: 90
@6780 $28.25 Channel: 6 Note off, F2 key=41 velocity: 0
@6960 $29.0 Channel: 6 Note on, E2 key=40 velocity: 90
@7020 $29.25 Channel: 6 Note off, E2 key=40 velocity: 0
@7080 $29.5 Channel: 6 Note on, D2 key=38 velocity: 90
@7140 $29.75 Channel: 6 Note off, D2 key=38 velocity: 0
@7200 $30.0 Channel: 6 Note on, C3 key=48 velocity: 90
@7260 $30.25 Channel: 6 Note off, C3 key=48 velocity: 0
@7320 $30.5 Channel: 6 Note on, D3 key=50 velocity: 90
@7380 $30.75 Channel: 6 Note off, D3 key=50 velocity: 0
@7440 $31.0 Channel: 6 Note on, E3 key=52 velocity: 90
@7470 $31.125 Channel: 6 Note off, E3 key=52 velocity: 0
@7500 $31.25 Channel: 6 Note on, E3 key=52 velocity: 90
@7530 $31.375 Channel: 6 Note off, E3 key=52 velocity: 0
@7560 $31.5 Channel: 6 Note on, E3 key=52 velocity: 90
@7590 $31.625 Channel: 6 Note off, E3 key=52 velocity: 0
@7620 $31.75 Channel: 6 Note on, E3 key=52 velocity: 90
@7650 $31.875 Channel: 6 Note off, E3 key=52 velocity: 0
@7680 $32.0 Channel: 6 Note on, A1 key=33 velocity: 90
@7800 $32.5 Channel: 6 Note off, A1 key=33 velocity: 0
@7920 $33.0 Channel: 6 Note on, C3 key=48 velocity: 90
@7980 $33.25 Channel: 6 Note off, C3 key=48 velocity: 0
@8040 $33.5 Channel: 6 Note on, E2 key=40 velocity: 90
@8100 $33.75 Channel: 6 Note off, E2 key=40 velocity: 0
@8160 $34.0 Channel: 6 Note on, G2 key=43 velocity: 90
@8220 $34.25 Channel: 6 Note off, G2 key=43 velocity: 0
@8400 $35.0 Channel: 6 Note on, C3 key=48 velocity: 90
@8460 $35.25 Channel: 6 Note off, C3 key=48 velocity: 0
@8520 $35.5 Channel: 6 Note on, E2 key=40 velocity: 100
@8580 $35.75 Channel: 6 Note off, E2 key=40 velocity: 0
@8640 $36.0 Channel: 6 Note on, G2 key=43 velocity: 100
@8700 $36.25 Channel: 6 Note off, G2 key=43 velocity: 0
@8880 $37.0 Channel: 6 Note on, A2 key=45 velocity: 100
@8940 $37.25 Channel: 6 Note off, A2 key=45 velocity: 0
@9000 $37.5 Channel: 6 Note on, C3 key=48 velocity: 100
@9060 $37.75 Channel: 6 Note off, C3 key=48 velocity: 0
@9120 $38.0 Channel: 6 Note on, E3 key=52 velocity: 100
@9180 $38.25 Channel: 6 Note off, E3 key=52 velocity: 0
@9360 $39.0 Channel: 6 Note on, A2 key=45 velocity: 100
@9420 $39.25 Channel: 6 Note off, A2 key=45 velocity: 0
@9480 $39.5 Channel: 6 Note on, C3 key=48 velocity: 100
@9540 $39.75 Channel: 6 Note off, C3 key=48 velocity: 0
@9600 $40.0 Channel: 6 Note on, E3 key=52 velocity: 100
@9660 $40.25 Channel: 6 Note off, E3 key=52 velocity: 0
@9840 $41.0 Channel: 6 Note on, A2 key=45 velocity: 100
@9900 $41.25 Channel: 6 Note off, A2 key=45 velocity: 0
@10080 $42.0 Channel: 6 Note on, A2 key=45 velocity: 100
@10140 $42.25 Channel: 6 Note off, A2 key=45 velocity: 0
@10320 $43.0 Channel: 6 Note on, A2 key=45 velocity: 100
@10380 $43.25 Channel: 6 Note off, A2 key=45 velocity: 0
@10440 $43.5 Channel: 6 Note on, A2 key=45 velocity: 100
@10500 $43.75 Channel: 6 Note off, A2 key=45 velocity: 0
@10560 $44.0 Channel: 6 Note on, F2 key=41 velocity: 100
@10620 $44.25 Channel: 6 Note off, F2 key=41 velocity: 0
@10800 $45.0 Channel: 6 Note on, E2 key=40 velocity: 100
@10860 $45.25 Channel: 6 Note off, E2 key=40 velocity: 0
@10920 $45.5 Channel: 6 Note on, D2 key=38 velocity: 100
@10980 $45.75 Channel: 6 Note off, D2 key=38 velocity: 0
@11040 $46.0 Channel: 6 Note on, C2 key=36 velocity: 100
@11100 $46.25 Channel: 6 Note off, C2 key=36 velocity: 0
@11160 $46.5 Channel: 6 Note on, D2 key=38 velocity: 100
@11220 $46.75 Channel: 6 Note off, D2 key=38 velocity: 0
@11280 $47.0 Channel: 6 Note on, E2 key=40 velocity: 100
@11340 $47.25 Channel: 6 Note off, E2 key=40 velocity: 0
@11340 $47.25 Channel: 6 Note on, E2 key=40 velocity: 100
@11400 $47.5 Channel: 6 Note off, E2 key=40 velocity: 0
@11400 $47.5 Channel: 6 Note on, E2 key=40 velocity: 100
@11460 $47.75 Channel: 6 Note off, E2 key=40 velocity: 0
@11460 $47.75 Channel: 6 Note on, E2 key=40 velocity: 100
@11520 $48.0 Channel: 6 Note off, E2 key=40 velocity: 0
@11520 $48.0 Channel: 6 Note on, A1 key=33 velocity: 100
@11580 $48.25 Channel: 6 Note off, A1 key=33 velocity: 0
@11775 $49.0625 Channel: 6 Note on, A2 key=45 velocity: 100
@11835 $49.3125 Channel: 6 Note off, A2 key=45 velocity: 0
@12015 $50.0625 Channel: 6 Note on, A2 key=45 velocity: 100
@12075 $50.3125 Channel: 6 Note off, A2 key=45 velocity: 0
@12255 $51.0625 Channel: 6 Note on, D3 key=50 velocity: 100
@12315 $51.3125 Channel: 6 Note off, D3 key=50 velocity: 0
@12375 $51.5625 Channel: 6 Note on, D#3 key=51 velocity: 100
@12435 $51.8125 Channel: 6 Note off, D#3 key=51 velocity: 0
@12495 $52.0625 Channel: 6 Note on, E2 key=40 velocity: 100
@12555 $52.3125 Channel: 6 Note off, E2 key=40 velocity: 0
@12735 $53.0625 Channel: 6 Note on, A2 key=45 velocity: 100
@12795 $53.3125 Channel: 6 Note off, A2 key=45 velocity: 0
@12975 $54.0625 Channel: 6 Note on, A2 key=45 velocity: 100
@13035 $54.3125 Channel: 6 Note off, A2 key=45 velocity: 0
@13220 $55.083333333333336 Channel: 6 Note on, D3 key=50 velocity: 100
@13260 $55.25 Channel: 6 Note on, D3 key=50 velocity: 100
@13265 $55.270833333333336 Channel: 6 Note off, D3 key=50 velocity: 0
@13290 $55.375 Channel: 6 Note off, D3 key=50 velocity: 0
@13320 $55.5 Channel: 6 Note on, E3 key=52 velocity: 100
@13350 $55.625 Channel: 6 Note off, E3 key=52 velocity: 0
@13380 $55.75 Channel: 6 Note on, E3 key=52 velocity: 100
@13410 $55.875 Channel: 6 Note off, E3 key=52 velocity: 0
@13440 $56.0 Channel: 6 Note on, A2 key=45 velocity: 100
@13440 $56.0 Channel: 6 Note on, A1 key=33 velocity: 100
@13560 $56.5 Channel: 6 Note off, A1 key=33 velocity: 0
@13560 $56.5 Channel: 6 Note off, A2 key=45 velocity: 0
@13695 $57.0625 Channel: 6 Note on, A2 key=45 velocity: 100
@13755 $57.3125 Channel: 6 Note off, A2 key=45 velocity: 0
@13935 $58.0625 Channel: 6 Note on, A2 key=45 velocity: 100
@13995 $58.3125 Channel: 6 Note off, A2 key=45 velocity: 0
@14175 $59.0625 Channel: 6 Note on, D3 key=50 velocity: 100
@14235 $59.3125 Channel: 6 Note off, D3 key=50 velocity: 0
@14420 $60.083333333333336 Channel: 6 Note on, E2 key=40 velocity: 100
@14480 $60.333333333333336 Channel: 6 Note off, E2 key=40 velocity: 0
@14655 $61.0625 Channel: 6 Note on, A2 key=45 velocity: 100
@14715 $61.3125 Channel: 6 Note off, A2 key=45 velocity: 0
@14895 $62.0625 Channel: 6 Note on, A2 key=45 velocity: 100
@14955 $62.3125 Channel: 6 Note off, A2 key=45 velocity: 0
@15140 $63.083333333333336 Channel: 6 Note on, D3 key=50 velocity: 100
@15180 $63.25 Channel: 6 Note on, D3 key=50 velocity: 100
@15185 $63.270833333333336 Channel: 6 Note off, D3 key=50 velocity: 0
@15210 $63.375 Channel: 6 Note off, D3 key=50 velocity: 0
@15240 $63.5 Channel: 6 Note on, E2 key=40 velocity: 100
@15270 $63.625 Channel: 6 Note off, E2 key=40 velocity: 0
@15300 $63.75 Channel: 6 Note on, E2 key=40 velocity: 100
@15330 $63.875 Channel: 6 Note off, E2 key=40 velocity: 0
@15360 $64.0 Channel: 6 Note on, A1 key=33 velocity: 100
@15360 $64.0 Channel: 6 Note on, A2 key=45 velocity: 100
@15420 $64.25 Channel: 6 Note off, A2 key=45 velocity: 0
@15420 $64.25 Channel: 6 Note off, A1 key=33 velocity: 0
@15600 $65.0 Channel: 6 Note on, F#2 key=42 velocity: 100
@15660 $65.25 Channel: 6 Note off, F#2 key=42 velocity: 0
@15840 $66.0 Channel: 6 Note on, G#2 key=44 velocity: 100
@15900 $66.25 Channel: 6 Note off, G#2 key=44 velocity: 0
@16080 $67.0 Channel: 6 Note on, F#2 key=42 velocity: 100
@16140 $67.25 Channel: 6 Note off, F#2 key=42 velocity: 0
@16320 $68.0 Channel: 6 Note on, F2 key=41 velocity: 100
@16380 $68.25 Channel: 6 Note off, F2 key=41 velocity: 0
@16560 $69.0 Channel: 6 Note on, F#2 key=42 velocity: 100
@16620 $69.25 Channel: 6 Note off, F#2 key=42 velocity: 0
@16800 $70.0 Channel: 6 Note on, G#2 key=44 velocity: 100
@16860 $70.25 Channel: 6 Note off, G#2 key=44 velocity: 0
@17040 $71.0 Channel: 6 Note on, G#2 key=44 velocity: 100
@17100 $71.25 Channel: 6 Note off, G#2 key=44 velocity: 0
@17280 $72.0 Channel: 6 Note on, C#3 key=49 velocity: 100
@17340 $72.25 Channel: 6 Note off, C#3 key=49 velocity: 0
@17520 $73.0 Channel: 6 Note on, F#2 key=42 velocity: 100
@17580 $73.25 Channel: 6 Note off, F#2 key=42 velocity: 0
@17760 $74.0 Channel: 6 Note on, G#2 key=44 velocity: 100
@17820 $74.25 Channel: 6 Note off, G#2 key=44 velocity: 0
@18000 $75.0 Channel: 6 Note on, F#2 key=42 velocity: 100
@18060 $75.25 Channel: 6 Note off, F#2 key=42 velocity: 0
@18240 $76.0 Channel: 6 Note on, F2 key=41 velocity: 100
@18300 $76.25 Channel: 6 Note off, F2 key=41 velocity: 0
@18480 $77.0 Channel: 6 Note on, F#2 key=42 velocity: 100
@18540 $77.25 Channel: 6 Note off, F#2 key=42 velocity: 0
@18720 $78.0 Channel: 6 Note on, G#2 key=44 velocity: 100
@18780 $78.25 Channel: 6 Note off, G#2 key=44 velocity: 0
@18960 $79.0 Channel: 6 Note on, G#2 key=44 velocity: 100
@19020 $79.25 Channel: 6 Note off, G#2 key=44 velocity: 0
@19200 $80.0 Channel: 6 Note on, C#2 key=37 velocity: 100
@19200 $80.0 Channel: 6 Note on, C#3 key=49 velocity: 100
@19320 $80.5 Channel: 6 Note off, C#3 key=49 velocity: 0
@19320 $80.5 Channel: 6 Note off, C#2 key=37 velocity: 0
@19440 $81.0 Channel: 6 Note on, A1 key=33 velocity: 100
@19440 $81.0 Channel: 6 Note on, A2 key=45 velocity: 100
@19500 $81.25 Channel: 6 Note off, A2 key=45 velocity: 0
@19500 $81.25 Channel: 6 Note off, A1 key=33 velocity: 0
@19500 $81.25 Channel: 6 Note on, A3 key=57 velocity: 100
@19560 $81.5 Channel: 6 Note off, A3 key=57 velocity: 0
@19560 $81.5 Channel: 6 Note on, A3 key=57 velocity: 100
@19620 $81.75 Channel: 6 Note off, A3 key=57 velocity: 0
@19620 $81.75 Channel: 6 Note on, A3 key=57 velocity: 100
@19680 $82.0 Channel: 6 Note off, A3 key=57 velocity: 0
@19680 $82.0 Channel: 6 Note on, B1 key=35 velocity: 100
@19680 $82.0 Channel: 6 Note on, B2 key=47 velocity: 100
@19740 $82.25 Channel: 6 Note off, B2 key=47 velocity: 0
@19740 $82.25 Channel: 6 Note off, B1 key=35 velocity: 0
@19740 $82.25 Channel: 6 Note on, D4 key=62 velocity: 100
@19800 $82.5 Channel: 6 Note off, D4 key=62 velocity: 0
@19800 $82.5 Channel: 6 Note on, G#1 key=32 velocity: 100
@19800 $82.5 Channel: 6 Note on, G#2 key=44 velocity: 100
@19860 $82.75 Channel: 6 Note off, G#2 key=44 velocity: 0
@19860 $82.75 Channel: 6 Note off, G#1 key=32 velocity: 0
@19860 $82.75 Channel: 6 Note on, D4 key=62 velocity: 100
@19920 $83.0 Channel: 6 Note off, D4 key=62 velocity: 0
@19920 $83.0 Channel: 6 Note on, A1 key=33 velocity: 100
@19920 $83.0 Channel: 6 Note on, A2 key=45 velocity: 100
@19980 $83.25 Channel: 6 Note off, A2 key=45 velocity: 0
@19980 $83.25 Channel: 6 Note off, A1 key=33 velocity: 0
@19980 $83.25 Channel: 6 Note on, A3 key=57 velocity: 75
@20010 $83.375 Channel: 6 Note off, A3 key=57 velocity: 0
@20040 $83.5 Channel: 6 Note on, A3 key=57 velocity: 75
@20070 $83.625 Channel: 6 Note off, A3 key=57 velocity: 0
@20100 $83.75 Channel: 6 Note on, A3 key=57 velocity: 75
@20130 $83.875 Channel: 6 Note off, A3 key=57 velocity: 0
@20160 $84.0 Channel: 6 Note on, E2 key=40 velocity: 75
@20160 $84.0 Channel: 6 Note on, E3 key=52 velocity: 75
@20220 $84.25 Channel: 6 Note off, E3 key=52 velocity: 0
@20220 $84.25 Channel: 6 Note off, E2 key=40 velocity: 0
@20220 $84.25 Channel: 6 Note on, G#3 key=56 velocity: 75
@20250 $84.375 Channel: 6 Note off, G#3 key=56 velocity: 0
@20280 $84.5 Channel: 6 Note on, G#3 key=56 velocity: 75
@20310 $84.625 Channel: 6 Note off, G#3 key=56 velocity: 0
@20340 $84.75 Channel: 6 Note on, G#3 key=56 velocity: 75
@20370 $84.875 Channel: 6 Note off, G#3 key=56 velocity: 0
@20400 $85.0 Channel: 6 Note on, A1 key=33 velocity: 75
@20400 $85.0 Channel: 6 Note on, A2 key=45 velocity: 75
@20460 $85.25 Channel: 6 Note off, A2 key=45 velocity: 0
@20460 $85.25 Channel: 6 Note off, A1 key=33 velocity: 0
@20460 $85.25 Channel: 6 Note on, A3 key=57 velocity: 75
@20490 $85.375 Channel: 6 Note off, A3 key=57 velocity: 0
@20520 $85.5 Channel: 6 Note on, A3 key=57 velocity: 75
@20550 $85.625 Channel: 6 Note off, A3 key=57 velocity: 0
@20580 $85.75 Channel: 6 Note on, A3 key=57 velocity: 75
@20610 $85.875 Channel: 6 Note off, A3 key=57 velocity: 0
@20640 $86.0 Channel: 6 Note on, B1 key=35 velocity: 100
@20640 $86.0 Channel: 6 Note on, B2 key=47 velocity: 100
@20700 $86.25 Channel: 6 Note off, B2 key=47 velocity: 0
@20700 $86.25 Channel: 6 Note off, B1 key=35 velocity: 0
@20700 $86.25 Channel: 6 Note on, D4 key=62 velocity: 100
@20760 $86.5 Channel: 6 Note off, D4 key=62 velocity: 0
@20760 $86.5 Channel: 6 Note on, G#1 key=32 velocity: 100
@20760 $86.5 Channel: 6 Note on, G#2 key=44 velocity: 100
@20820 $86.75 Channel: 6 Note off, G#2 key=44 velocity: 0
@20820 $86.75 Channel: 6 Note off, G#1 key=32 velocity: 0
@20820 $86.75 Channel: 6 Note on, D4 key=62 velocity: 100
@20880 $87.0 Channel: 6 Note off, D4 key=62 velocity: 0
@20880 $87.0 Channel: 6 Note on, A2 key=45 velocity: 75
@20880 $87.0 Channel: 6 Note on, A3 key=57 velocity: 75
@20910 $87.125 Channel: 6 Note off, A3 key=57 velocity: 0
@20910 $87.125 Channel: 6 Note off, A2 key=45 velocity: 0
@20940 $87.25 Channel: 6 Note on, F#2 key=42 velocity: 75
@20940 $87.25 Channel: 6 Note on, F#3 key=54 velocity: 75
@20970 $87.375 Channel: 6 Note off, F#3 key=54 velocity: 0
@20970 $87.375 Channel: 6 Note off, F#2 key=42 velocity: 0
@21000 $87.5 Channel: 6 Note on, D2 key=38 velocity: 75
@21000 $87.5 Channel: 6 Note on, D3 key=50 velocity: 75
@21030 $87.625 Channel: 6 Note off, D3 key=50 velocity: 0
@21030 $87.625 Channel: 6 Note off, D2 key=38 velocity: 0
@21060 $87.75 Channel: 6 Note on, E2 key=40 velocity: 75
@21060 $87.75 Channel: 6 Note on, E3 key=52 velocity: 75
@21090 $87.875 Channel: 6 Note off, E3 key=52 velocity: 0
@21090 $87.875 Channel: 6 Note off, E2 key=40 velocity: 0
@21120 $88.0 Channel: 6 Note on, A1 key=33 velocity: 75
@21120 $88.0 Channel: 6 Note on, A2 key=45 velocity: 75
@21150 $88.125 Channel: 6 Note off, A2 key=45 velocity: 0
@21150 $88.125 Channel: 6 Note off, A1 key=33 velocity: 0
@21180 $88.25 Channel: 6 Note on, A2 key=45 velocity: 75
@21180 $88.25 Channel: 6 Note on, A3 key=57 velocity: 75
@21210 $88.375 Channel: 6 Note off, A3 key=57 velocity: 0
@21210 $88.375 Channel: 6 Note off, A2 key=45 velocity: 0
@21360 $89.0 Channel: 6 Note on, F#1 key=30 velocity: 100
@21360 $89.0 Channel: 6 Note on, F#2 key=42 velocity: 100
@21420 $89.25 Channel: 6 Note off, F#2 key=42 velocity: 0
@21420 $89.25 Channel: 6 Note off, F#1 key=30 velocity: 0
@21600 $90.0 Channel: 6 Note on, G#1 key=32 velocity: 100
@21600 $90.0 Channel: 6 Note on, G#2 key=44 velocity: 100
@21660 $90.25 Channel: 6 Note off, G#2 key=44 velocity: 0
@21660 $90.25 Channel: 6 Note off, G#1 key=32 velocity: 0
@21840 $91.0 Channel: 6 Note on, F#1 key=30 velocity: 100
@21840 $91.0 Channel: 6 Note on, F#2 key=42 velocity: 100
@21900 $91.25 Channel: 6 Note off, F#2 key=42 velocity: 0
@21900 $91.25 Channel: 6 Note off, F#1 key=30 velocity: 0
@22080 $92.0 Channel: 6 Note on, C#2 key=37 velocity: 100
@22080 $92.0 Channel: 6 Note on, C#3 key=49 velocity: 100
@22140 $92.25 Channel: 6 Note off, C#3 key=49 velocity: 0
@22140 $92.25 Channel: 6 Note off, C#2 key=37 velocity: 0
@22140 $92.25 Channel: 6 Note on, G#3 key=56 velocity: 100
@22200 $92.5 Channel: 6 Note off, G#3 key=56 velocity: 0
@22200 $92.5 Channel: 6 Note on, G3 key=55 velocity: 100
@22260 $92.75 Channel: 6 Note off, G3 key=55 velocity: 0
@22260 $92.75 Channel: 6 Note on, F#3 key=54 velocity: 100
@22320 $93.0 Channel: 6 Note off, F#3 key=54 velocity: 0
@22320 $93.0 Channel: 6 Note on, B1 key=35 velocity: 100
@22320 $93.0 Channel: 6 Note on, B2 key=47 velocity: 100
@22380 $93.25 Channel: 6 Note off, B2 key=47 velocity: 0
@22380 $93.25 Channel: 6 Note off, B1 key=35 velocity: 0
@22560 $94.0 Channel: 6 Note on, B1 key=35 velocity: 100
@22560 $94.0 Channel: 6 Note on, B2 key=47 velocity: 100
@22620 $94.25 Channel: 6 Note off, B2 key=47 velocity: 0
@22620 $94.25 Channel: 6 Note off, B1 key=35 velocity: 0
@22800 $95.0 Channel: 6 Note on, C#2 key=37 velocity: 100
@22800 $95.0 Channel: 6 Note on, C#3 key=49 velocity: 100
@22860 $95.25 Channel: 6 Note off, C#3 key=49 velocity: 0
@22860 $95.25 Channel: 6 Note off, C#2 key=37 velocity: 0
@22920 $95.5 Channel: 6 Note on, C#2 key=37 velocity: 100
@22920 $95.5 Channel: 6 Note on, C#3 key=49 velocity: 100
@22980 $95.75 Channel: 6 Note off, C#3 key=49 velocity: 0
@22980 $95.75 Channel: 6 Note off, C#2 key=37 velocity: 0
@23040 $96.0 Channel: 6 Note on, F#3 key=54 velocity: 100
@23100 $96.25 Channel: 6 Note off, F#3 key=54 velocity: 0
@23285 $97.02083333333333 Channel: 6 Note on, A1 key=33 velocity: 100
@23285 $97.02083333333333 Channel: 6 Note on, A2 key=45 velocity: 100
@23345 $97.27083333333333 Channel: 6 Note off, A2 key=45 velocity: 0
@23345 $97.27083333333333 Channel: 6 Note off, A1 key=33 velocity: 0
@23345 $97.27083333333333 Channel: 6 Note on, A3 key=57 velocity: 100
@23405 $97.52083333333333 Channel: 6 Note off, A3 key=57 velocity: 0
@23405 $97.52083333333333 Channel: 6 Note on, A3 key=57 velocity: 100
@23465 $97.77083333333333 Channel: 6 Note off, A3 key=57 velocity: 0
@23465 $97.77083333333333 Channel: 6 Note on, A3 key=57 velocity: 100
@23525 $98.02083333333333 Channel: 6 Note off, A3 key=57 velocity: 0
@23525 $98.02083333333333 Channel: 6 Note on, B1 key=35 velocity: 100
@23525 $98.02083333333333 Channel: 6 Note on, B2 key=47 velocity: 100
@23585 $98.27083333333333 Channel: 6 Note off, B2 key=47 velocity: 0
@23585 $98.27083333333333 Channel: 6 Note off, B1 key=35 velocity: 0
@23585 $98.27083333333333 Channel: 6 Note on, D4 key=62 velocity: 100
@23645 $98.52083333333333 Channel: 6 Note off, D4 key=62 velocity: 0
@23645 $98.52083333333333 Channel: 6 Note on, G#1 key=32 velocity: 100
@23645 $98.52083333333333 Channel: 6 Note on, G#2 key=44 velocity: 100
@23705 $98.77083333333333 Channel: 6 Note off, G#2 key=44 velocity: 0
@23705 $98.77083333333333 Channel: 6 Note off, G#1 key=32 velocity: 0
@23705 $98.77083333333333 Channel: 6 Note on, D4 key=62 velocity: 100
@23765 $99.02083333333333 Channel: 6 Note off, D4 key=62 velocity: 0
@23765 $99.02083333333333 Channel: 6 Note on, A1 key=33 velocity: 100
@23765 $99.02083333333333 Channel: 6 Note on, A2 key=45 velocity: 100
@23825 $99.27083333333333 Channel: 6 Note off, A2 key=45 velocity: 0
@23825 $99.27083333333333 Channel: 6 Note off, A1 key=33 velocity: 0
@23825 $99.27083333333333 Channel: 6 Note on, A3 key=57 velocity: 75
@23855 $99.39583333333333 Channel: 6 Note off, A3 key=57 velocity: 0
@23885 $99.52083333333333 Channel: 6 Note on, A3 key=57 velocity: 75
@23915 $99.64583333333333 Channel: 6 Note off, A3 key=57 velocity: 0
@23945 $99.77083333333333 Channel: 6 Note on, A3 key=57 velocity: 75
@23975 $99.89583333333333 Channel: 6 Note off, A3 key=57 velocity: 0
@24005 $100.02083333333333 Channel: 6 Note on, E2 key=40 velocity: 75
@24005 $100.02083333333333 Channel: 6 Note on, E3 key=52 velocity: 75
@24065 $100.27083333333333 Channel: 6 Note off, E3 key=52 velocity: 0
@24065 $100.27083333333333 Channel: 6 Note off, E2 key=40 velocity: 0
@24065 $100.27083333333333 Channel: 6 Note on, G#3 key=56 velocity: 75
@24095 $100.39583333333333 Channel: 6 Note off, G#3 key=56 velocity: 0
@24125 $100.52083333333333 Channel: 6 Note on, G#3 key=56 velocity: 75
@24155 $100.64583333333333 Channel: 6 Note off, G#3 key=56 velocity: 0
@24185 $100.77083333333333 Channel: 6 Note on, G#3 key=56 velocity: 75
@24215 $100.89583333333333 Channel: 6 Note off, G#3 key=56 velocity: 0
@24245 $101.02083333333333 Channel: 6 Note on, A1 key=33 velocity: 75
@24245 $101.02083333333333 Channel: 6 Note on, A2 key=45 velocity: 75
@24305 $101.27083333333333 Channel: 6 Note off, A2 key=45 velocity: 0
@24305 $101.27083333333333 Channel: 6 Note off, A1 key=33 velocity: 0
@24305 $101.27083333333333 Channel: 6 Note on, A3 key=57 velocity: 75
@24335 $101.39583333333333 Channel: 6 Note off, A3 key=57 velocity: 0
@24365 $101.52083333333333 Channel: 6 Note on, A3 key=57 velocity: 75
@24395 $101.64583333333333 Channel: 6 Note off, A3 key=57 velocity: 0
@24425 $101.77083333333333 Channel: 6 Note on, A3 key=57 velocity: 75
@24455 $101.89583333333333 Channel: 6 Note off, A3 key=57 velocity: 0
@24485 $102.02083333333333 Channel: 6 Note on, B1 key=35 velocity: 100
@24485 $102.02083333333333 Channel: 6 Note on, B2 key=47 velocity: 100
@24545 $102.27083333333333 Channel: 6 Note off, B2 key=47 velocity: 0
@24545 $102.27083333333333 Channel: 6 Note off, B1 key=35 velocity: 0
@24545 $102.27083333333333 Channel: 6 Note on, D4 key=62 velocity: 100
@24605 $102.52083333333333 Channel: 6 Note off, D4 key=62 velocity: 0
@24605 $102.52083333333333 Channel: 6 Note on, G#1 key=32 velocity: 100
@24605 $102.52083333333333 Channel: 6 Note on, G#2 key=44 velocity: 100
@24665 $102.77083333333333 Channel: 6 Note off, G#2 key=44 velocity: 0
@24665 $102.77083333333333 Channel: 6 Note off, G#1 key=32 velocity: 0
@24665 $102.77083333333333 Channel: 6 Note on, D4 key=62 velocity: 100
@24725 $103.02083333333333 Channel: 6 Note off, D4 key=62 velocity: 0
@24725 $103.02083333333333 Channel: 6 Note on, A2 key=45 velocity: 75
@24725 $103.02083333333333 Channel: 6 Note on, A3 key=57 velocity: 75
@24755 $103.14583333333333 Channel: 6 Note off, A3 key=57 velocity: 0
@24755 $103.14583333333333 Channel: 6 Note off, A2 key=45 velocity: 0
@24785 $103.27083333333333 Channel: 6 Note on, F#2 key=42 velocity: 75
@24785 $103.27083333333333 Channel: 6 Note on, F#3 key=54 velocity: 75
@24815 $103.39583333333333 Channel: 6 Note off, F#3 key=54 velocity: 0
@24815 $103.39583333333333 Channel: 6 Note off, F#2 key=42 velocity: 0
@24845 $103.52083333333333 Channel: 6 Note on, D2 key=38 velocity: 75
@24845 $103.52083333333333 Channel: 6 Note on, D3 key=50 velocity: 75
@24875 $103.64583333333333 Channel: 6 Note off, D3 key=50 velocity: 0
@24875 $103.64583333333333 Channel: 6 Note off, D2 key=38 velocity: 0
@24905 $103.77083333333333 Channel: 6 Note on, E2 key=40 velocity: 75
@24905 $103.77083333333333 Channel: 6 Note on, E3 key=52 velocity: 75
@24935 $103.89583333333333 Channel: 6 Note off, E3 key=52 velocity: 0
@24935 $103.89583333333333 Channel: 6 Note off, E2 key=40 velocity: 0
@24965 $104.02083333333333 Channel: 6 Note on, A1 key=33 velocity: 75
@24965 $104.02083333333333 Channel: 6 Note on, A2 key=45 velocity: 75
@24995 $104.14583333333333 Channel: 6 Note off, A2 key=45 velocity: 0
@24995 $104.14583333333333 Channel: 6 Note off, A1 key=33 velocity: 0
@25025 $104.27083333333333 Channel: 6 Note on, A2 key=45 velocity: 75
@25025 $104.27083333333333 Channel: 6 Note on, A3 key=57 velocity: 75
@25055 $104.39583333333333 Channel: 6 Note off, A3 key=57 velocity: 0
@25055 $104.39583333333333 Channel: 6 Note off, A2 key=45 velocity: 0
@25205 $105.02083333333333 Channel: 6 Note on, F#1 key=30 velocity: 100
@25205 $105.02083333333333 Channel: 6 Note on, F#2 key=42 velocity: 100
@25265 $105.27083333333333 Channel: 6 Note off, F#2 key=42 velocity: 0
@25265 $105.27083333333333 Channel: 6 Note off, F#1 key=30 velocity: 0
@25445 $106.02083333333333 Channel: 6 Note on, G#1 key=32 velocity: 100
@25445 $106.02083333333333 Channel: 6 Note on, G#2 key=44 velocity: 100
@25505 $106.27083333333333 Channel: 6 Note off, G#2 key=44 velocity: 0
@25505 $106.27083333333333 Channel: 6 Note off, G#1 key=32 velocity: 0
@25685 $107.02083333333333 Channel: 6 Note on, F#1 key=30 velocity: 100
@25685 $107.02083333333333 Channel: 6 Note on, F#2 key=42 velocity: 100
@25745 $107.27083333333333 Channel: 6 Note off, F#2 key=42 velocity: 0
@25745 $107.27083333333333 Channel: 6 Note off, F#1 key=30 velocity: 0
@25925 $108.02083333333333 Channel: 6 Note on, C#2 key=37 velocity: 100
@25925 $108.02083333333333 Channel: 6 Note on, C#3 key=49 velocity: 100
@25985 $108.27083333333333 Channel: 6 Note off, C#3 key=49 velocity: 0
@25985 $108.27083333333333 Channel: 6 Note off, C#2 key=37 velocity: 0
@25985 $108.27083333333333 Channel: 6 Note on, G#3 key=56 velocity: 100
@26045 $108.52083333333333 Channel: 6 Note off, G#3 key=56 velocity: 0
@26045 $108.52083333333333 Channel: 6 Note on, G3 key=55 velocity: 100
@26105 $108.77083333333333 Channel: 6 Note off, G3 key=55 velocity: 0
@26105 $108.77083333333333 Channel: 6 Note on, F#3 key=54 velocity: 100
@26165 $109.02083333333333 Channel: 6 Note off, F#3 key=54 velocity: 0
@26165 $109.02083333333333 Channel: 6 Note on, B1 key=35 velocity: 100
@26165 $109.02083333333333 Channel: 6 Note on, B2 key=47 velocity: 100
@26225 $109.27083333333333 Channel: 6 Note off, B2 key=47 velocity: 0
@26225 $109.27083333333333 Channel: 6 Note off, B1 key=35 velocity: 0
@26405 $110.02083333333333 Channel: 6 Note on, B1 key=35 velocity: 100
@26405 $110.02083333333333 Channel: 6 Note on, B2 key=47 velocity: 100
@26465 $110.27083333333333 Channel: 6 Note off, B2 key=47 velocity: 0
@26465 $110.27083333333333 Channel: 6 Note off, B1 key=35 velocity: 0
@26645 $111.02083333333333 Channel: 6 Note on, C#2 key=37 velocity: 100
@26645 $111.02083333333333 Channel: 6 Note on, C#3 key=49 velocity: 100
@26705 $111.27083333333333 Channel: 6 Note off, C#3 key=49 velocity: 0
@26705 $111.27083333333333 Channel: 6 Note off, C#2 key=37 velocity: 0
@26765 $111.52083333333333 Channel: 6 Note on, C#2 key=37 velocity: 100
@26765 $111.52083333333333 Channel: 6 Note on, C#3 key=49 velocity: 100
@26825 $111.77083333333333 Channel: 6 Note off, C#3 key=49 velocity: 0
@26825 $111.77083333333333 Channel: 6 Note off, C#2 key=37 velocity: 0
@26885 $112.02083333333333 Channel: 6 Note on, F#3 key=54 velocity: 100
@26945 $112.27083333333333 Channel: 6 Note off, F#3 key=54 velocity: 0
@27135 $113.0625 Channel: 6 Note on, A2 key=45 velocity: 100
@27195 $113.3125 Channel: 6 Note off, A2 key=45 velocity: 0
@27375 $114.0625 Channel: 6 Note on, A2 key=45 velocity: 100
@27435 $114.3125 Channel: 6 Note off, A2 key=45 velocity: 0
@27615 $115.0625 Channel: 6 Note on, D3 key=50 velocity: 100
@27675 $115.3125 Channel: 6 Note off, D3 key=50 velocity: 0
@27735 $115.5625 Channel: 6 Note on, D#3 key=51 velocity: 100
@27795 $115.8125 Channel: 6 Note off, D#3 key=51 velocity: 0
@27855 $116.0625 Channel: 6 Note on, E2 key=40 velocity: 100
@27915 $116.3125 Channel: 6 Note off, E2 key=40 velocity: 0
@28095 $117.0625 Channel: 6 Note on, A2 key=45 velocity: 100
@28155 $117.3125 Channel: 6 Note off, A2 key=45 velocity: 0
@28335 $118.0625 Channel: 6 Note on, A2 key=45 velocity: 100
@28395 $118.3125 Channel: 6 Note off, A2 key=45 velocity: 0
@28580 $119.08333333333333 Channel: 6 Note on, D3 key=50 velocity: 100
@28620 $119.25 Channel: 6 Note on, D3 key=50 velocity: 100
@28625 $119.27083333333333 Channel: 6 Note off, D3 key=50 velocity: 0
@28650 $119.375 Channel: 6 Note off, D3 key=50 velocity: 0
@28680 $119.5 Channel: 6 Note on, E3 key=52 velocity: 100
@28710 $119.625 Channel: 6 Note off, E3 key=52 velocity: 0
@28740 $119.75 Channel: 6 Note on, E3 key=52 velocity: 100
@28770 $119.875 Channel: 6 Note off, E3 key=52 velocity: 0
@28800 $120.0 Channel: 6 Note on, A2 key=45 velocity: 100
@28800 $120.0 Channel: 6 Note on, A1 key=33 velocity: 100
@28920 $120.5 Channel: 6 Note off, A1 key=33 velocity: 0
@28920 $120.5 Channel: 6 Note off, A2 key=45 velocity: 0
@29055 $121.0625 Channel: 6 Note on, A2 key=45 velocity: 100
@29115 $121.3125 Channel: 6 Note off, A2 key=45 velocity: 0
@29295 $122.0625 Channel: 6 Note on, A2 key=45 velocity: 100
@29355 $122.3125 Channel: 6 Note off, A2 key=45 velocity: 0
@29535 $123.0625 Channel: 6 Note on, D3 key=50 velocity: 100
@29595 $123.3125 Channel: 6 Note off, D3 key=50 velocity: 0
@29780 $124.08333333333333 Channel: 6 Note on, E2 key=40 velocity: 100
@29840 $124.33333333333333 Channel: 6 Note off, E2 key=40 velocity: 0
@30015 $125.0625 Channel: 6 Note on, A2 key=45 velocity: 100
@30075 $125.3125 Channel: 6 Note off, A2 key=45 velocity: 0
@30255 $126.0625 Channel: 6 Note on, A2 key=45 velocity: 100
@30315 $126.3125 Channel: 6 Note off, A2 key=45 velocity: 0
@30500 $127.08333333333333 Channel: 6 Note on, D3 key=50 velocity: 100
@30540 $127.25 Channel: 6 Note on, D3 key=50 velocity: 100
@30545 $127.27083333333333 Channel: 6 Note off, D3 key=50 velocity: 0
@30570 $127.375 Channel: 6 Note off, D3 key=50 velocity: 0
@30600 $127.5 Channel: 6 Note on, E2 key=40 velocity: 100
@30630 $127.625 Channel: 6 Note off, E2 key=40 velocity: 0
@30660 $127.75 Channel: 6 Note on, E2 key=40 velocity: 100
@30690 $127.875 Channel: 6 Note off, E2 key=40 velocity: 0
@30720 $128.0 Channel: 6 Note on, A1 key=33 velocity: 100
@30720 $128.0 Channel: 6 Note on, A2 key=45 velocity: 100
@30780 $128.25 Channel: 6 Note off, A2 key=45 velocity: 0
@30780 $128.25 Channel: 6 Note off, A1 key=33 velocity: 0
@30960 $129.0 Channel: 6 Note on, A2 key=45 velocity: 90
@31020 $129.25 Channel: 6 Note off, A2 key=45 velocity: 0
@31200 $130.0 Channel: 6 Note on, A2 key=45 velocity: 90
@31260 $130.25 Channel: 6 Note off, A2 key=45 velocity: 0
@31440 $131.0 Channel: 6 Note on, A2 key=45 velocity: 90
@31500 $131.25 Channel: 6 Note off, A2 key=45 velocity: 0
@31560 $131.5 Channel: 6 Note on, A2 key=45 velocity: 90
@31620 $131.75 Channel: 6 Note off, A2 key=45 velocity: 0
@31680 $132.0 Channel: 6 Note on, A2 key=45 velocity: 90
@31740 $132.25 Channel: 6 Note off, A2 key=45 velocity: 0
@31920 $133.0 Channel: 6 Note on, E2 key=40 velocity: 90
@31980 $133.25 Channel: 6 Note off, E2 key=40 velocity: 0
@32160 $134.0 Channel: 6 Note on, E2 key=40 velocity: 90
@32220 $134.25 Channel: 6 Note off, E2 key=40 velocity: 0
@32400 $135.0 Channel: 6 Note on, E2 key=40 velocity: 90
@32460 $135.25 Channel: 6 Note off, E2 key=40 velocity: 0
@32520 $135.5 Channel: 6 Note on, B1 key=35 velocity: 90
@32580 $135.75 Channel: 6 Note off, B1 key=35 velocity: 0
@32640 $136.0 Channel: 6 Note on, E2 key=40 velocity: 90
@32700 $136.25 Channel: 6 Note off, E2 key=40 velocity: 0
@32880 $137.0 Channel: 6 Note on, A2 key=45 velocity: 90
@32940 $137.25 Channel: 6 Note off, A2 key=45 velocity: 0
@33120 $138.0 Channel: 6 Note on, A2 key=45 velocity: 90
@33180 $138.25 Channel: 6 Note off, A2 key=45 velocity: 0
@33360 $139.0 Channel: 6 Note on, A2 key=45 velocity: 90
@33420 $139.25 Channel: 6 Note off, A2 key=45 velocity: 0
@33480 $139.5 Channel: 6 Note on, A2 key=45 velocity: 90
@33540 $139.75 Channel: 6 Note off, A2 key=45 velocity: 0
@33600 $140.0 Channel: 6 Note on, A2 key=45 velocity: 90
@33660 $140.25 Channel: 6 Note off, A2 key=45 velocity: 0
@33840 $141.0 Channel: 6 Note on, E2 key=40 velocity: 90
@33900 $141.25 Channel: 6 Note off, E2 key=40 velocity: 0
@34080 $142.0 Channel: 6 Note on, E2 key=40 velocity: 90
@34140 $142.25 Channel: 6 Note off, E2 key=40 velocity: 0
@34320 $143.0 Channel: 6 Note on, E2 key=40 velocity: 90
@34380 $143.25 Channel: 6 Note off, E2 key=40 velocity: 0
@34440 $143.5 Channel: 6 Note on, B2 key=47 velocity: 90
@34500 $143.75 Channel: 6 Note off, B2 key=47 velocity: 0
@34560 $144.0 Channel: 6 Note on, E2 key=40 velocity: 90
@34620 $144.25 Channel: 6 Note off, E2 key=40 velocity: 0
@34800 $145.0 Channel: 6 Note on, C2 key=36 velocity: 90
@34860 $145.25 Channel: 6 Note off, C2 key=36 velocity: 0
@34920 $145.5 Channel: 6 Note on, E2 key=40 velocity: 90
@34980 $145.75 Channel: 6 Note off, E2 key=40 velocity: 0
@35040 $146.0 Channel: 6 Note on, G2 key=43 velocity: 90
@35100 $146.25 Channel: 6 Note off, G2 key=43 velocity: 0
@35280 $147.0 Channel: 6 Note on, C2 key=36 velocity: 90
@35340 $147.25 Channel: 6 Note off, C2 key=36 velocity: 0
@35400 $147.5 Channel: 6 Note on, E2 key=40 velocity: 90
@35460 $147.75 Channel: 6 Note off, E2 key=40 velocity: 0
@35520 $148.0 Channel: 6 Note on, G2 key=43 velocity: 90
@35580 $148.25 Channel: 6 Note off, G2 key=43 velocity: 0
@35760 $149.0 Channel: 6 Note on, A2 key=45 velocity: 90
@35820 $149.25 Channel: 6 Note off, A2 key=45 velocity: 0
@35880 $149.5 Channel: 6 Note on, C3 key=48 velocity: 90
@35940 $149.75 Channel: 6 Note off, C3 key=48 velocity: 0
@36000 $150.0 Channel: 6 Note on, E2 key=40 velocity: 90
@36060 $150.25 Channel: 6 Note off, E2 key=40 velocity: 0
@36240 $151.0 Channel: 6 Note on, A2 key=45 velocity: 90
@36300 $151.25 Channel: 6 Note off, A2 key=45 velocity: 0
@36360 $151.5 Channel: 6 Note on, C3 key=48 velocity: 90
@36420 $151.75 Channel: 6 Note off, C3 key=48 velocity: 0
@36480 $152.0 Channel: 6 Note on, E2 key=40 velocity: 90
@36540 $152.25 Channel: 6 Note off, E2 key=40 velocity: 0
@36720 $153.0 Channel: 6 Note on, A2 key=45 velocity: 90
@36780 $153.25 Channel: 6 Note off, A2 key=45 velocity: 0
@36960 $154.0 Channel: 6 Note on, A2 key=45 velocity: 90
@37020 $154.25 Channel: 6 Note off, A2 key=45 velocity: 0
@37200 $155.0 Channel: 6 Note on, A2 key=45 velocity: 90
@37260 $155.25 Channel: 6 Note off, A2 key=45 velocity: 0
@37320 $155.5 Channel: 6 Note on, A2 key=45 velocity: 90
@37380 $155.75 Channel: 6 Note off, A2 key=45 velocity: 0
@37440 $156.0 Channel: 6 Note on, F2 key=41 velocity: 90
@37500 $156.25 Channel: 6 Note off, F2 key=41 velocity: 0
@37680 $157.0 Channel: 6 Note on, E2 key=40 velocity: 90
@37740 $157.25 Channel: 6 Note off, E2 key=40 velocity: 0
@37800 $157.5 Channel: 6 Note on, D2 key=38 velocity: 90
@37860 $157.75 Channel: 6 Note off, D2 key=38 velocity: 0
@37920 $158.0 Channel: 6 Note on, C3 key=48 velocity: 90
@37980 $158.25 Channel: 6 Note off, C3 key=48 velocity: 0
@38040 $158.5 Channel: 6 Note on, D3 key=50 velocity: 90
@38100 $158.75 Channel: 6 Note off, D3 key=50 velocity: 0
@38160 $159.0 Channel: 6 Note on, E3 key=52 velocity: 90
@38190 $159.125 Channel: 6 Note off, E3 key=52 velocity: 0
@38220 $159.25 Channel: 6 Note on, E3 key=52 velocity: 90
@38250 $159.375 Channel: 6 Note off, E3 key=52 velocity: 0
@38280 $159.5 Channel: 6 Note on, E3 key=52 velocity: 90
@38310 $159.625 Channel: 6 Note off, E3 key=52 velocity: 0
@38340 $159.75 Channel: 6 Note on, E3 key=52 velocity: 90
@38370 $159.875 Channel: 6 Note off, E3 key=52 velocity: 0
@38400 $160.0 Channel: 6 Note on, A1 key=33 velocity: 90
@38520 $160.5 Channel: 6 Note off, A1 key=33 velocity: 0
@38640 $161.0 Channel: 6 Note on, C3 key=48 velocity: 90
@38700 $161.25 Channel: 6 Note off, C3 key=48 velocity: 0
@38760 $161.5 Channel: 6 Note on, E2 key=40 velocity: 90
@38820 $161.75 Channel: 6 Note off, E2 key=40 velocity: 0
@38880 $162.0 Channel: 6 Note on, G2 key=43 velocity: 90
@38940 $162.25 Channel: 6 Note off, G2 key=43 velocity: 0
@39120 $163.0 Channel: 6 Note on, C3 key=48 velocity: 90
@39180 $163.25 Channel: 6 Note off, C3 key=48 velocity: 0
@39240 $163.5 Channel: 6 Note on, E2 key=40 velocity: 100
@39300 $163.75 Channel: 6 Note off, E2 key=40 velocity: 0
@39360 $164.0 Channel: 6 Note on, G2 key=43 velocity: 100
@39420 $164.25 Channel: 6 Note off, G2 key=43 velocity: 0
@39600 $165.0 Channel: 6 Note on, A2 key=45 velocity: 100
@39660 $165.25 Channel: 6 Note off, A2 key=45 velocity: 0
@39720 $165.5 Channel: 6 Note on, C3 key=48 velocity: 100
@39780 $165.75 Channel: 6 Note off, C3 key=48 velocity: 0
@39840 $166.0 Channel: 6 Note on, E3 key=52 velocity: 100
@39900 $166.25 Channel: 6 Note off, E3 key=52 velocity: 0
@40080 $167.0 Channel: 6 Note on, A2 key=45 velocity: 100
@40140 $167.25 Channel: 6 Note off, A2 key=45 velocity: 0
@40200 $167.5 Channel: 6 Note on, C3 key=48 velocity: 100
@40260 $167.75 Channel: 6 Note off, C3 key=48 velocity: 0
@40320 $168.0 Channel: 6 Note on, E3 key=52 velocity: 100
@40380 $168.25 Channel: 6 Note off, E3 key=52 velocity: 0
@40560 $169.0 Channel: 6 Note on, A2 key=45 velocity: 100
@40620 $169.25 Channel: 6 Note off, A2 key=45 velocity: 0
@40800 $170.0 Channel: 6 Note on, A2 key=45 velocity: 100
@40860 $170.25 Channel: 6 Note off, A2 key=45 velocity: 0
@41040 $171.0 Channel: 6 Note on, A2 key=45 velocity: 100
@41100 $171.25 Channel: 6 Note off, A2 key=45 velocity: 0
@41160 $171.5 Channel: 6 Note on, A2 key=45 velocity: 100
@41220 $171.75 Channel: 6 Note off, A2 key=45 velocity: 0
@41280 $172.0 Channel: 6 Note on, F2 key=41 velocity: 100
@41340 $172.25 Channel: 6 Note off, F2 key=41 velocity: 0
@41520 $173.0 Channel: 6 Note on, E2 key=40 velocity: 100
@41580 $173.25 Channel: 6 Note off, E2 key=40 velocity: 0
@41640 $173.5 Channel: 6 Note on, D2 key=38 velocity: 100
@41700 $173.75 Channel: 6 Note off, D2 key=38 velocity: 0
@41760 $174.0 Channel: 6 Note on, C2 key=36 velocity: 100
@41820 $174.25 Channel: 6 Note off, C2 key=36 velocity: 0
@41880 $174.5 Channel: 6 Note on, D2 key=38 velocity: 100
@41940 $174.75 Channel: 6 Note off, D2 key=38 velocity: 0
@42000 $175.0 Channel: 6 Note on, E2 key=40 velocity: 100
@42060 $175.25 Channel: 6 Note off, E2 key=40 velocity: 0
@42060 $175.25 Channel: 6 Note on, E2 key=40 velocity: 100
@42120 $175.5 Channel: 6 Note off, E2 key=40 velocity: 0
@42120 $175.5 Channel: 6 Note on, E2 key=40 velocity: 100
@42180 $175.75 Channel: 6 Note off, E2 key=40 velocity: 0
@42180 $175.75 Channel: 6 Note on, E2 key=40 velocity: 100
@42240 $176.0 Channel: 6 Note off, E2 key=40 velocity: 0
@42240 $176.0 Channel: 6 Note on, A1 key=33 velocity: 100
@42300 $176.25 Channel: 6 Note off, A1 key=33 velocity: 0
@46320 $193.0 Channel: 6 Note on, A1 key=33 velocity: 100
@46320 $193.0 Channel: 6 Note on, A2 key=45 velocity: 100
@46380 $193.25 Channel: 6 Note off, A2 key=45 velocity: 0
@46380 $193.25 Channel: 6 Note off, A1 key=33 velocity: 0
@46380 $193.25 Channel: 6 Note on, A3 key=57 velocity: 100
@46440 $193.5 Channel: 6 Note off, A3 key=57 velocity: 0
@46440 $193.5 Channel: 6 Note on, A3 key=57 velocity: 100
@46500 $193.75 Channel: 6 Note off, A3 key=57 velocity: 0
@46500 $193.75 Channel: 6 Note on, A3 key=57 velocity: 100
@46560 $194.0 Channel: 6 Note off, A3 key=57 velocity: 0
@46560 $194.0 Channel: 6 Note on, A1 key=33 velocity: 100
@46560 $194.0 Channel: 6 Note on, A2 key=45 velocity: 100
@46620 $194.25 Channel: 6 Note off, A2 key=45 velocity: 0
@46620 $194.25 Channel: 6 Note off, A1 key=33 velocity: 0
@46620 $194.25 Channel: 6 Note on, A3 key=57 velocity: 100
@46680 $194.5 Channel: 6 Note off, A3 key=57 velocity: 0
@46680 $194.5 Channel: 6 Note on, A3 key=57 velocity: 100
@46740 $194.75 Channel: 6 Note off, A3 key=57 velocity: 0
@46740 $194.75 Channel: 6 Note on, A3 key=57 velocity: 100
@46800 $195.0 Channel: 6 Note off, A3 key=57 velocity: 0
@46800 $195.0 Channel: 6 Note on, A1 key=33 velocity: 100
@46800 $195.0 Channel: 6 Note on, A2 key=45 velocity: 100
@46860 $195.25 Channel: 6 Note off, A2 key=45 velocity: 0
@46860 $195.25 Channel: 6 Note off, A1 key=33 velocity: 0
@47040 $196.0 Channel: 6 Note on, D3 key=50 velocity: 100
@47040 $196.0 Channel: 6 Note on, D2 key=38 velocity: 100
@47100 $196.25 Channel: 6 Note off, D2 key=38 velocity: 0
@47100 $196.25 Channel: 6 Note off, D3 key=50 velocity: 0
@47100 $196.25 Channel: 6 Note on, D3 key=50 velocity: 100
@47160 $196.5 Channel: 6 Note off, D3 key=50 velocity: 0
@47160 $196.5 Channel: 6 Note on, D3 key=50 velocity: 100
@47220 $196.75 Channel: 6 Note off, D3 key=50 velocity: 0
@47220 $196.75 Channel: 6 Note on, D3 key=50 velocity: 100
@47280 $197.0 Channel: 6 Note off, D3 key=50 velocity: 0
@47280 $197.0 Channel: 6 Note on, A1 key=33 velocity: 100
@47280 $197.0 Channel: 6 Note on, A2 key=45 velocity: 100
@47340 $197.25 Channel: 6 Note off, A2 key=45 velocity: 0
@47340 $197.25 Channel: 6 Note off, A1 key=33 velocity: 0
@47340 $197.25 Channel: 6 Note on, A3 key=57 velocity: 100
@47400 $197.5 Channel: 6 Note off, A3 key=57 velocity: 0
@47400 $197.5 Channel: 6 Note on, A3 key=57 velocity: 100
@47460 $197.75 Channel: 6 Note off, A3 key=57 velocity: 0
@47460 $197.75 Channel: 6 Note on, A3 key=57 velocity: 100
@47520 $198.0 Channel: 6 Note off, A3 key=57 velocity: 0
@47520 $198.0 Channel: 6 Note on, E3 key=52 velocity: 100
@47520 $198.0 Channel: 6 Note on, E2 key=40 velocity: 100
@47580 $198.25 Channel: 6 Note off, E2 key=40 velocity: 0
@47580 $198.25 Channel: 6 Note off, E3 key=52 velocity: 0
@47580 $198.25 Channel: 6 Note on, E3 key=52 velocity: 100
@47640 $198.5 Channel: 6 Note off, E3 key=52 velocity: 0
@47640 $198.5 Channel: 6 Note on, E3 key=52 velocity: 100
@47700 $198.75 Channel: 6 Note off, E3 key=52 velocity: 0
@47700 $198.75 Channel: 6 Note on, E3 key=52 velocity: 100
@47760 $199.0 Channel: 6 Note off, E3 key=52 velocity: 0
@47760 $199.0 Channel: 6 Note on, A1 key=33 velocity: 100
@47760 $199.0 Channel: 6 Note on, A2 key=45 velocity: 100
@47820 $199.25 Channel: 6 Note off, A2 key=45 velocity: 0
@47820 $199.25 Channel: 6 Note off, A1 key=33 velocity: 0
@47820 $199.25 Channel: 6 Note on, A3 key=57 velocity: 100
@47880 $199.5 Channel: 6 Note off, A3 key=57 velocity: 0
@47880 $199.5 Channel: 6 Note on, A3 key=57 velocity: 100
@47940 $199.75 Channel: 6 Note off, A3 key=57 velocity: 0
@47940 $199.75 Channel: 6 Note on, A3 key=57 velocity: 100
@48000 $200.0 Channel: 6 Note off, A3 key=57 velocity: 0
@48000 $200.0 Channel: 6 Note on, A1 key=33 velocity: 100
@48000 $200.0 Channel: 6 Note on, A2 key=45 velocity: 100
@48060 $200.25 Channel: 6 Note off, A2 key=45 velocity: 0
@48060 $200.25 Channel: 6 Note off, A1 key=33 velocity: 0
@48060 $200.25 Channel: 6 Note on, A3 key=57 velocity: 100
@48120 $200.5 Channel: 6 Note off, A3 key=57 velocity: 0
@48120 $200.5 Channel: 6 Note on, A3 key=57 velocity: 100
@48180 $200.75 Channel: 6 Note off, A3 key=57 velocity: 0
@48180 $200.75 Channel: 6 Note on, A3 key=57 velocity: 100
@48240 $201.0 Channel: 6 Note off, A3 key=57 velocity: 0
@48240 $201.0 Channel: 6 Note on, A1 key=33 velocity: 100
@48240 $201.0 Channel: 6 Note on, A2 key=45 velocity: 100
@48300 $201.25 Channel: 6 Note off, A2 key=45 velocity: 0
@48300 $201.25 Channel: 6 Note off, A1 key=33 velocity: 0
@48300 $201.25 Channel: 6 Note on, A3 key=57 velocity: 100
@48360 $201.5 Channel: 6 Note off, A3 key=57 velocity: 0
@48360 $201.5 Channel: 6 Note on, A3 key=57 velocity: 100
@48420 $201.75 Channel: 6 Note off, A3 key=57 velocity: 0
@48420 $201.75 Channel: 6 Note on, A3 key=57 velocity: 100
@48480 $202.0 Channel: 6 Note off, A3 key=57 velocity: 0
@48480 $202.0 Channel: 6 Note on, D3 key=50 velocity: 100
@48480 $202.0 Channel: 6 Note on, D2 key=38 velocity: 100
@48540 $202.25 Channel: 6 Note off, D2 key=38 velocity: 0
@48540 $202.25 Channel: 6 Note off, D3 key=50 velocity: 0
@48540 $202.25 Channel: 6 Note on, D3 key=50 velocity: 100
@48600 $202.5 Channel: 6 Note off, D3 key=50 velocity: 0
@48600 $202.5 Channel: 6 Note on, D3 key=50 velocity: 100
@48660 $202.75 Channel: 6 Note off, D3 key=50 velocity: 0
@48660 $202.75 Channel: 6 Note on, D3 key=50 velocity: 100
@48720 $203.0 Channel: 6 Note off, D3 key=50 velocity: 0
@48720 $203.0 Channel: 6 Note on, A2 key=45 velocity: 100
@48720 $203.0 Channel: 6 Note on, A1 key=33 velocity: 100
@48780 $203.25 Channel: 6 Note off, A1 key=33 velocity: 0
@48780 $203.25 Channel: 6 Note off, A2 key=45 velocity: 0
@48780 $203.25 Channel: 6 Note on, A3 key=57 velocity: 100
@48840 $203.5 Channel: 6 Note off, A3 key=57 velocity: 0
@48840 $203.5 Channel: 6 Note on, A3 key=57 velocity: 100
@48900 $203.75 Channel: 6 Note off, A3 key=57 velocity: 0
@48900 $203.75 Channel: 6 Note on, A3 key=57 velocity: 100
@48960 $204.0 Channel: 6 Note off, A3 key=57 velocity: 0
@48960 $204.0 Channel: 6 Note on, E2 key=40 velocity: 100
@48960 $204.0 Channel: 6 Note on, E3 key=52 velocity: 100
@49020 $204.25 Channel: 6 Note off, E3 key=52 velocity: 0
@49020 $204.25 Channel: 6 Note off, E2 key=40 velocity: 0
@49020 $204.25 Channel: 6 Note on, E3 key=52 velocity: 100
@49080 $204.5 Channel: 6 Note off, E3 key=52 velocity: 0
@49080 $204.5 Channel: 6 Note on, E3 key=52 velocity: 100
@49140 $204.75 Channel: 6 Note off, E3 key=52 velocity: 0
@49140 $204.75 Channel: 6 Note on, E3 key=52 velocity: 100
@49200 $205.0 Channel: 6 Note off, E3 key=52 velocity: 0
@49200 $205.0 Channel: 6 Note on, A2 key=45 velocity: 100
@49260 $205.25 Channel: 6 Note off, A2 key=45 velocity: 0
@49320 $205.5 Channel: 6 Note on, E2 key=40 velocity: 100
@49380 $205.75 Channel: 6 Note off, E2 key=40 velocity: 0
@49440 $206.0 Channel: 6 Note on, A2 key=45 velocity: 100
@49500 $206.25 Channel: 6 Note off, A2 key=45 velocity: 0
@49560 $206.5 Channel: 6 Note on, E2 key=40 velocity: 100
@49620 $206.75 Channel: 6 Note off, E2 key=40 velocity: 0
@49680 $207.0 Channel: 6 Note on, A2 key=45 velocity: 100
@49740 $207.25 Channel: 6 Note off, A2 key=45 velocity: 0
@49800 $207.5 Channel: 6 Note on, E2 key=40 velocity: 100
@49860 $207.75 Channel: 6 Note off, E2 key=40 velocity: 0
@49920 $208.0 Channel: 6 Note on, A2 key=45 velocity: 100
@49980 $208.25 Channel: 6 Note off, A2 key=45 velocity: 0
@50040 $208.5 Channel: 6 Note on, E2 key=40 velocity: 100
@50100 $208.75 Channel: 6 Note off, E2 key=40 velocity: 0
@50160 $209.0 Channel: 6 Note on, A2 key=45 velocity: 100
@50220 $209.25 Channel: 6 Note off, A2 key=45 velocity: 0
@50280 $209.5 Channel: 6 Note on, E2 key=40 velocity: 100
@50340 $209.75 Channel: 6 Note off, E2 key=40 velocity: 0
@50400 $210.0 Channel: 6 Note on, A2 key=45 velocity: 100
@50460 $210.25 Channel: 6 Note off, A2 key=45 velocity: 0
@50520 $210.5 Channel: 6 Note on, E2 key=40 velocity: 100
@50580 $210.75 Channel: 6 Note off, E2 key=40 velocity: 0
@50640 $211.0 Channel: 6 Note on, E2 key=40 velocity: 100
@50700 $211.25 Channel: 6 Note off, E2 key=40 velocity: 0
@50760 $211.5 Channel: 6 Note on, B1 key=35 velocity: 100
@50820 $211.75 Channel: 6 Note off, B1 key=35 velocity: 0
@50880 $212.0 Channel: 6 Note on, A1 key=33 velocity: 100
@50880 $212.0 Channel: 6 Note on, A2 key=45 velocity: 100
@50940 $212.25 Channel: 6 Note off, A2 key=45 velocity: 0
@50940 $212.25 Channel: 6 Note off, A1 key=33 velocity: 0
@50940 $212.25 Channel: 6 Note on, A3 key=57 velocity: 100
@51000 $212.5 Channel: 6 Note off, A3 key=57 velocity: 0
@51000 $212.5 Channel: 6 Note on, A3 key=57 velocity: 100
@51060 $212.75 Channel: 6 Note off, A3 key=57 velocity: 0
@51060 $212.75 Channel: 6 Note on, A3 key=57 velocity: 100
@51120 $213.0 Channel: 6 Note off, A3 key=57 velocity: 0
@51120 $213.0 Channel: 6 Note on, A1 key=33 velocity: 100
@51120 $213.0 Channel: 6 Note on, A2 key=45 velocity: 100
@51180 $213.25 Channel: 6 Note off, A2 key=45 velocity: 0
@51180 $213.25 Channel: 6 Note off, A1 key=33 velocity: 0
@51180 $213.25 Channel: 6 Note on, A3 key=57 velocity: 100
@51240 $213.5 Channel: 6 Note off, A3 key=57 velocity: 0
@51240 $213.5 Channel: 6 Note on, A3 key=57 velocity: 100
@51300 $213.75 Channel: 6 Note off, A3 key=57 velocity: 0
@51300 $213.75 Channel: 6 Note on, A3 key=57 velocity: 100
@51360 $214.0 Channel: 6 Note off, A3 key=57 velocity: 0
@51360 $214.0 Channel: 6 Note on, A1 key=33 velocity: 100
@51360 $214.0 Channel: 6 Note on, A2 key=45 velocity: 100
@51420 $214.25 Channel: 6 Note off, A2 key=45 velocity: 0
@51420 $214.25 Channel: 6 Note off, A1 key=33 velocity: 0
@51420 $214.25 Channel: 6 Note on, A3 key=57 velocity: 100
@51480 $214.5 Channel: 6 Note off, A3 key=57 velocity: 0
@51480 $214.5 Channel: 6 Note on, A3 key=57 velocity: 100
@51540 $214.75 Channel: 6 Note off, A3 key=57 velocity: 0
@51540 $214.75 Channel: 6 Note on, A3 key=57 velocity: 100
@51600 $215.0 Channel: 6 Note off, A3 key=57 velocity: 0
@51600 $215.0 Channel: 6 Note on, D3 key=50 velocity: 100
@51600 $215.0 Channel: 6 Note on, D2 key=38 velocity: 100
@51660 $215.25 Channel: 6 Note off, D2 key=38 velocity: 0
@51660 $215.25 Channel: 6 Note off, D3 key=50 velocity: 0
@51660 $215.25 Channel: 6 Note on, D3 key=50 velocity: 100
@51720 $215.5 Channel: 6 Note off, D3 key=50 velocity: 0
@51720 $215.5 Channel: 6 Note on, D3 key=50 velocity: 100
@51780 $215.75 Channel: 6 Note off, D3 key=50 velocity: 0
@51780 $215.75 Channel: 6 Note on, D3 key=50 velocity: 100
@51840 $216.0 Channel: 6 Note off, D3 key=50 velocity: 0
@51840 $216.0 Channel: 6 Note on, A1 key=33 velocity: 100
@51840 $216.0 Channel: 6 Note on, A2 key=45 velocity: 100
@51900 $216.25 Channel: 6 Note off, A2 key=45 velocity: 0
@51900 $216.25 Channel: 6 Note off, A1 key=33 velocity: 0
@51900 $216.25 Channel: 6 Note on, A3 key=57 velocity: 100
@51960 $216.5 Channel: 6 Note off, A3 key=57 velocity: 0
@51960 $216.5 Channel: 6 Note on, A3 key=57 velocity: 100
@52020 $216.75 Channel: 6 Note off, A3 key=57 velocity: 0
@52020 $216.75 Channel: 6 Note on, A3 key=57 velocity: 100
@52080 $217.0 Channel: 6 Note off, A3 key=57 velocity: 0
@52080 $217.0 Channel: 6 Note on, E3 key=52 velocity: 100
@52080 $217.0 Channel: 6 Note on, E2 key=40 velocity: 100
@52140 $217.25 Channel: 6 Note off, E2 key=40 velocity: 0
@52140 $217.25 Channel: 6 Note off, E3 key=52 velocity: 0
@52140 $217.25 Channel: 6 Note on, E3 key=52 velocity: 100
@52200 $217.5 Channel: 6 Note off, E3 key=52 velocity: 0
@52200 $217.5 Channel: 6 Note on, E3 key=52 velocity: 100
@52260 $217.75 Channel: 6 Note off, E3 key=52 velocity: 0
@52260 $217.75 Channel: 6 Note on, E3 key=52 velocity: 100
@52320 $218.0 Channel: 6 Note off, E3 key=52 velocity: 0
@52320 $218.0 Channel: 6 Note on, A1 key=33 velocity: 100
@52320 $218.0 Channel: 6 Note on, A2 key=45 velocity: 100
@52380 $218.25 Channel: 6 Note off, A2 key=45 velocity: 0
@52380 $218.25 Channel: 6 Note off, A1 key=33 velocity: 0
@52380 $218.25 Channel: 6 Note on, A3 key=57 velocity: 100
@52440 $218.5 Channel: 6 Note off, A3 key=57 velocity: 0
@52440 $218.5 Channel: 6 Note on, A3 key=57 velocity: 100
@52500 $218.75 Channel: 6 Note off, A3 key=57 velocity: 0
@52500 $218.75 Channel: 6 Note on, A3 key=57 velocity: 100
@52560 $219.0 Channel: 6 Note off, A3 key=57 velocity: 0
@52560 $219.0 Channel: 6 Note on, A1 key=33 velocity: 100
@52560 $219.0 Channel: 6 Note on, A2 key=45 velocity: 100
@52620 $219.25 Channel: 6 Note off, A2 key=45 velocity: 0
@52620 $219.25 Channel: 6 Note off, A1 key=33 velocity: 0
@52620 $219.25 Channel: 6 Note on, A3 key=57 velocity: 100
@52680 $219.5 Channel: 6 Note off, A3 key=57 velocity: 0
@52680 $219.5 Channel: 6 Note on, A3 key=57 velocity: 100
@52740 $219.75 Channel: 6 Note off, A3 key=57 velocity: 0
@52740 $219.75 Channel: 6 Note on, A3 key=57 velocity: 100
@52800 $220.0 Channel: 6 Note off, A3 key=57 velocity: 0
@52800 $220.0 Channel: 6 Note on, A1 key=33 velocity: 100
@52800 $220.0 Channel: 6 Note on, A2 key=45 velocity: 100
@52860 $220.25 Channel: 6 Note off, A2 key=45 velocity: 0
@52860 $220.25 Channel: 6 Note off, A1 key=33 velocity: 0
@52860 $220.25 Channel: 6 Note on, A3 key=57 velocity: 100
@52920 $220.5 Channel: 6 Note off, A3 key=57 velocity: 0
@52920 $220.5 Channel: 6 Note on, A3 key=57 velocity: 100
@52980 $220.75 Channel: 6 Note off, A3 key=57 velocity: 0
@52980 $220.75 Channel: 6 Note on, A3 key=57 velocity: 100
@53040 $221.0 Channel: 6 Note off, A3 key=57 velocity: 0
@53040 $221.0 Channel: 6 Note on, A1 key=33 velocity: 100
@53040 $221.0 Channel: 6 Note on, A2 key=45 velocity: 100
@53100 $221.25 Channel: 6 Note off, A2 key=45 velocity: 0
@53100 $221.25 Channel: 6 Note off, A1 key=33 velocity: 0
@53100 $221.25 Channel: 6 Note on, A3 key=57 velocity: 100
@53160 $221.5 Channel: 6 Note off, A3 key=57 velocity: 0
@53160 $221.5 Channel: 6 Note on, A1 key=33 velocity: 100
@53160 $221.5 Channel: 6 Note on, A2 key=45 velocity: 100
@53220 $221.75 Channel: 6 Note off, A2 key=45 velocity: 0
@53220 $221.75 Channel: 6 Note off, A1 key=33 velocity: 0
@53220 $221.75 Channel: 6 Note on, A3 key=57 velocity: 100
@53280 $222.0 Channel: 6 Note off, A3 key=57 velocity: 0
@53280 $222.0 Channel: 6 Note on, A1 key=33 velocity: 100
@53280 $222.0 Channel: 6 Note on, A2 key=45 velocity: 100
@53340 $222.25 Channel: 6 Note off, A2 key=45 velocity: 0
@53340 $222.25 Channel: 6 Note off, A1 key=33 velocity: 0
@53400 $222.5 Channel: 6 Note on, A1 key=33 velocity: 127
@53400 $222.5 Channel: 6 Note on, A2 key=45 velocity: 127
@53640 $223.5 Channel: 6 Note off, A2 key=45 velocity: 0
@53640 $223.5 Channel: 6 Note off, A1 key=33 velocity: 0
@53760 $224.0 Channel: 6 Note on, A1 key=33 velocity: 127
@53760 $224.0 Channel: 6 Note on, A2 key=45 velocity: 127
@54240 $226.0 Channel: 6 Note off, A2 key=45 velocity: 0
@54240 $226.0 Channel: 6 Note off, A1 key=33 velocity: 0
@54240 $226.0 Other meta message: class javax.sound.midi.Track$ImmutableEndOfTrack

Track 18: size = 602
@0 $0.0 Other meta message: class javax.sound.midi.MetaMessage
@0 $0.0 Other meta message: class javax.sound.midi.MetaMessage
@0 $0.0 Channel: 7 Other short message:192
@0 $0.0 Channel: 7 Control Change message
@0 $0.0 Channel: 7 Control Change message
@240 $1.0 Channel: 7 Note on, A2 key=45 velocity: 90
@300 $1.25 Channel: 7 Note off, A2 key=45 velocity: 0
@480 $2.0 Channel: 7 Note on, A2 key=45 velocity: 90
@540 $2.25 Channel: 7 Note off, A2 key=45 velocity: 0
@720 $3.0 Channel: 7 Note on, A2 key=45 velocity: 90
@780 $3.25 Channel: 7 Note off, A2 key=45 velocity: 0
@840 $3.5 Channel: 7 Note on, A2 key=45 velocity: 90
@900 $3.75 Channel: 7 Note off, A2 key=45 velocity: 0
@960 $4.0 Channel: 7 Note on, A2 key=45 velocity: 90
@1020 $4.25 Channel: 7 Note off, A2 key=45 velocity: 0
@1200 $5.0 Channel: 7 Note on, E2 key=40 velocity: 90
@1260 $5.25 Channel: 7 Note off, E2 key=40 velocity: 0
@1440 $6.0 Channel: 7 Note on, E2 key=40 velocity: 90
@1500 $6.25 Channel: 7 Note off, E2 key=40 velocity: 0
@1680 $7.0 Channel: 7 Note on, E2 key=40 velocity: 90
@1740 $7.25 Channel: 7 Note off, E2 key=40 velocity: 0
@1800 $7.5 Channel: 7 Note on, B1 key=35 velocity: 90
@1860 $7.75 Channel: 7 Note off, B1 key=35 velocity: 0
@1920 $8.0 Channel: 7 Note on, E2 key=40 velocity: 90
@1980 $8.25 Channel: 7 Note off, E2 key=40 velocity: 0
@2160 $9.0 Channel: 7 Note on, A2 key=45 velocity: 90
@2220 $9.25 Channel: 7 Note off, A2 key=45 velocity: 0
@2400 $10.0 Channel: 7 Note on, A2 key=45 velocity: 90
@2460 $10.25 Channel: 7 Note off, A2 key=45 velocity: 0
@2640 $11.0 Channel: 7 Note on, A2 key=45 velocity: 90
@2700 $11.25 Channel: 7 Note off, A2 key=45 velocity: 0
@2760 $11.5 Channel: 7 Note on, A2 key=45 velocity: 90
@2820 $11.75 Channel: 7 Note off, A2 key=45 velocity: 0
@2880 $12.0 Channel: 7 Note on, A2 key=45 velocity: 90
@2940 $12.25 Channel: 7 Note off, A2 key=45 velocity: 0
@3120 $13.0 Channel: 7 Note on, E2 key=40 velocity: 90
@3180 $13.25 Channel: 7 Note off, E2 key=40 velocity: 0
@3360 $14.0 Channel: 7 Note on, E2 key=40 velocity: 90
@3420 $14.25 Channel: 7 Note off, E2 key=40 velocity: 0
@3600 $15.0 Channel: 7 Note on, E2 key=40 velocity: 90
@3660 $15.25 Channel: 7 Note off, E2 key=40 velocity: 0
@3720 $15.5 Channel: 7 Note on, B2 key=47 velocity: 90
@3780 $15.75 Channel: 7 Note off, B2 key=47 velocity: 0
@3840 $16.0 Channel: 7 Note on, E2 key=40 velocity: 90
@3900 $16.25 Channel: 7 Note off, E2 key=40 velocity: 0
@4080 $17.0 Channel: 7 Note on, C2 key=36 velocity: 90
@4140 $17.25 Channel: 7 Note off, C2 key=36 velocity: 0
@4200 $17.5 Channel: 7 Note on, E2 key=40 velocity: 90
@4260 $17.75 Channel: 7 Note off, E2 key=40 velocity: 0
@4320 $18.0 Channel: 7 Note on, G2 key=43 velocity: 90
@4380 $18.25 Channel: 7 Note off, G2 key=43 velocity: 0
@4560 $19.0 Channel: 7 Note on, C2 key=36 velocity: 90
@4620 $19.25 Channel: 7 Note off, C2 key=36 velocity: 0
@4680 $19.5 Channel: 7 Note on, E2 key=40 velocity: 90
@4740 $19.75 Channel: 7 Note off, E2 key=40 velocity: 0
@4800 $20.0 Channel: 7 Note on, G2 key=43 velocity: 90
@4800 $20.0 Channel: 7 Note on, G1 key=31 velocity: 90
@4860 $20.25 Channel: 7 Note off, G1 key=31 velocity: 0
@4860 $20.25 Channel: 7 Note off, G2 key=43 velocity: 0
@5040 $21.0 Channel: 7 Note on, A2 key=45 velocity: 90
@5100 $21.25 Channel: 7 Note off, A2 key=45 velocity: 0
@5160 $21.5 Channel: 7 Note on, C3 key=48 velocity: 90
@5220 $21.75 Channel: 7 Note off, C3 key=48 velocity: 0
@5280 $22.0 Channel: 7 Note on, E3 key=52 velocity: 90
@5280 $22.0 Channel: 7 Note on, E2 key=40 velocity: 90
@5340 $22.25 Channel: 7 Note off, E2 key=40 velocity: 0
@5340 $22.25 Channel: 7 Note off, E3 key=52 velocity: 0
@5520 $23.0 Channel: 7 Note on, A2 key=45 velocity: 90
@5580 $23.25 Channel: 7 Note off, A2 key=45 velocity: 0
@5640 $23.5 Channel: 7 Note on, C3 key=48 velocity: 90
@5700 $23.75 Channel: 7 Note off, C3 key=48 velocity: 0
@5760 $24.0 Channel: 7 Note on, E3 key=52 velocity: 90
@5760 $24.0 Channel: 7 Note on, E2 key=40 velocity: 90
@5820 $24.25 Channel: 7 Note off, E2 key=40 velocity: 0
@5820 $24.25 Channel: 7 Note off, E3 key=52 velocity: 0
@6000 $25.0 Channel: 7 Note on, A2 key=45 velocity: 90
@6060 $25.25 Channel: 7 Note off, A2 key=45 velocity: 0
@6240 $26.0 Channel: 7 Note on, A2 key=45 velocity: 90
@6300 $26.25 Channel: 7 Note off, A2 key=45 velocity: 0
@6480 $27.0 Channel: 7 Note on, A2 key=45 velocity: 90
@6540 $27.25 Channel: 7 Note off, A2 key=45 velocity: 0
@6600 $27.5 Channel: 7 Note on, A2 key=45 velocity: 90
@6660 $27.75 Channel: 7 Note off, A2 key=45 velocity: 0
@6720 $28.0 Channel: 7 Note on, F2 key=41 velocity: 90
@6780 $28.25 Channel: 7 Note off, F2 key=41 velocity: 0
@6960 $29.0 Channel: 7 Note on, E2 key=40 velocity: 90
@7020 $29.25 Channel: 7 Note off, E2 key=40 velocity: 0
@7080 $29.5 Channel: 7 Note on, D2 key=38 velocity: 90
@7140 $29.75 Channel: 7 Note off, D2 key=38 velocity: 0
@7200 $30.0 Channel: 7 Note on, C2 key=36 velocity: 90
@7260 $30.25 Channel: 7 Note off, C2 key=36 velocity: 0
@7320 $30.5 Channel: 7 Note on, D2 key=38 velocity: 90
@7380 $30.75 Channel: 7 Note off, D2 key=38 velocity: 0
@7440 $31.0 Channel: 7 Note on, E2 key=40 velocity: 90
@7500 $31.25 Channel: 7 Note off, E2 key=40 velocity: 0
@7500 $31.25 Channel: 7 Note on, E2 key=40 velocity: 90
@7560 $31.5 Channel: 7 Note off, E2 key=40 velocity: 0
@7560 $31.5 Channel: 7 Note on, E2 key=40 velocity: 90
@7620 $31.75 Channel: 7 Note off, E2 key=40 velocity: 0
@7620 $31.75 Channel: 7 Note on, E2 key=40 velocity: 90
@7680 $32.0 Channel: 7 Note off, E2 key=40 velocity: 0
@7680 $32.0 Channel: 7 Note on, A2 key=45 velocity: 90
@7680 $32.0 Channel: 7 Note on, A1 key=33 velocity: 90
@7740 $32.25 Channel: 7 Note off, A1 key=33 velocity: 0
@7740 $32.25 Channel: 7 Note off, A2 key=45 velocity: 0
@9840 $41.0 Channel: 7 Note on, A2 key=45 velocity: 100
@9900 $41.25 Channel: 7 Note off, A2 key=45 velocity: 0
@10080 $42.0 Channel: 7 Note on, A2 key=45 velocity: 100
@10140 $42.25 Channel: 7 Note off, A2 key=45 velocity: 0
@10320 $43.0 Channel: 7 Note on, A2 key=45 velocity: 100
@10380 $43.25 Channel: 7 Note off, A2 key=45 velocity: 0
@10440 $43.5 Channel: 7 Note on, A2 key=45 velocity: 100
@10500 $43.75 Channel: 7 Note off, A2 key=45 velocity: 0
@10560 $44.0 Channel: 7 Note on, A2 key=45 velocity: 100
@10620 $44.25 Channel: 7 Note off, A2 key=45 velocity: 0
@10800 $45.0 Channel: 7 Note on, E2 key=40 velocity: 100
@10860 $45.25 Channel: 7 Note off, E2 key=40 velocity: 0
@10920 $45.5 Channel: 7 Note on, D2 key=38 velocity: 100
@10980 $45.75 Channel: 7 Note off, D2 key=38 velocity: 0
@11040 $46.0 Channel: 7 Note on, C2 key=36 velocity: 100
@11100 $46.25 Channel: 7 Note off, C2 key=36 velocity: 0
@11160 $46.5 Channel: 7 Note on, D2 key=38 velocity: 100
@11220 $46.75 Channel: 7 Note off, D2 key=38 velocity: 0
@11280 $47.0 Channel: 7 Note on, E2 key=40 velocity: 100
@11340 $47.25 Channel: 7 Note off, E2 key=40 velocity: 0
@11340 $47.25 Channel: 7 Note on, E2 key=40 velocity: 100
@11400 $47.5 Channel: 7 Note off, E2 key=40 velocity: 0
@11400 $47.5 Channel: 7 Note on, E2 key=40 velocity: 100
@11460 $47.75 Channel: 7 Note off, E2 key=40 velocity: 0
@11460 $47.75 Channel: 7 Note on, E2 key=40 velocity: 100
@11520 $48.0 Channel: 7 Note off, E2 key=40 velocity: 0
@11520 $48.0 Channel: 7 Note on, A1 key=33 velocity: 100
@11520 $48.0 Channel: 7 Note on, A2 key=45 velocity: 100
@11580 $48.25 Channel: 7 Note off, A2 key=45 velocity: 0
@11580 $48.25 Channel: 7 Note off, A1 key=33 velocity: 0
@11780 $49.083333333333336 Channel: 7 Note on, A2 key=45 velocity: 100
@11840 $49.333333333333336 Channel: 7 Note off, A2 key=45 velocity: 0
@12020 $50.083333333333336 Channel: 7 Note on, A2 key=45 velocity: 100
@12080 $50.333333333333336 Channel: 7 Note off, A2 key=45 velocity: 0
@12260 $51.083333333333336 Channel: 7 Note on, D3 key=50 velocity: 100
@12320 $51.333333333333336 Channel: 7 Note off, D3 key=50 velocity: 0
@12380 $51.583333333333336 Channel: 7 Note on, D#3 key=51 velocity: 100
@12440 $51.833333333333336 Channel: 7 Note off, D#3 key=51 velocity: 0
@12495 $52.0625 Channel: 7 Note on, E2 key=40 velocity: 100
@12555 $52.3125 Channel: 7 Note off, E2 key=40 velocity: 0
@12740 $53.083333333333336 Channel: 7 Note on, A2 key=45 velocity: 100
@12800 $53.333333333333336 Channel: 7 Note off, A2 key=45 velocity: 0
@12975 $54.0625 Channel: 7 Note on, A2 key=45 velocity: 100
@13035 $54.3125 Channel: 7 Note off, A2 key=45 velocity: 0
@13220 $55.083333333333336 Channel: 7 Note on, D3 key=50 velocity: 100
@13260 $55.25 Channel: 7 Note on, D3 key=50 velocity: 100
@13265 $55.270833333333336 Channel: 7 Note off, D3 key=50 velocity: 0
@13290 $55.375 Channel: 7 Note off, D3 key=50 velocity: 0
@13320 $55.5 Channel: 7 Note on, E2 key=40 velocity: 100
@13350 $55.625 Channel: 7 Note off, E2 key=40 velocity: 0
@13380 $55.75 Channel: 7 Note on, E2 key=40 velocity: 100
@13410 $55.875 Channel: 7 Note off, E2 key=40 velocity: 0
@13440 $56.0 Channel: 7 Note on, A2 key=45 velocity: 100
@13560 $56.5 Channel: 7 Note off, A2 key=45 velocity: 0
@13700 $57.083333333333336 Channel: 7 Note on, A2 key=45 velocity: 100
@13760 $57.333333333333336 Channel: 7 Note off, A2 key=45 velocity: 0
@13940 $58.083333333333336 Channel: 7 Note on, A2 key=45 velocity: 100
@14000 $58.333333333333336 Channel: 7 Note off, A2 key=45 velocity: 0
@14180 $59.083333333333336 Channel: 7 Note on, D3 key=50 velocity: 100
@14240 $59.333333333333336 Channel: 7 Note off, D3 key=50 velocity: 0
@14420 $60.083333333333336 Channel: 7 Note on, E2 key=40 velocity: 100
@14480 $60.333333333333336 Channel: 7 Note off, E2 key=40 velocity: 0
@14660 $61.083333333333336 Channel: 7 Note on, A2 key=45 velocity: 100
@14720 $61.333333333333336 Channel: 7 Note off, A2 key=45 velocity: 0
@14900 $62.083333333333336 Channel: 7 Note on, A2 key=45 velocity: 100
@14960 $62.333333333333336 Channel: 7 Note off, A2 key=45 velocity: 0
@15140 $63.083333333333336 Channel: 7 Note on, D3 key=50 velocity: 100
@15180 $63.25 Channel: 7 Note on, D3 key=50 velocity: 100
@15185 $63.270833333333336 Channel: 7 Note off, D3 key=50 velocity: 0
@15210 $63.375 Channel: 7 Note off, D3 key=50 velocity: 0
@15240 $63.5 Channel: 7 Note on, E3 key=52 velocity: 100
@15270 $63.625 Channel: 7 Note off, E3 key=52 velocity: 0
@15300 $63.75 Channel: 7 Note on, E3 key=52 velocity: 100
@15330 $63.875 Channel: 7 Note off, E3 key=52 velocity: 0
@15360 $64.0 Channel: 7 Note on, A2 key=45 velocity: 100
@15420 $64.25 Channel: 7 Note off, A2 key=45 velocity: 0
@15600 $65.0 Channel: 7 Note on, F#2 key=42 velocity: 100
@15660 $65.25 Channel: 7 Note off, F#2 key=42 velocity: 0
@15840 $66.0 Channel: 7 Note on, G#2 key=44 velocity: 100
@15900 $66.25 Channel: 7 Note off, G#2 key=44 velocity: 0
@16080 $67.0 Channel: 7 Note on, F#2 key=42 velocity: 100
@16140 $67.25 Channel: 7 Note off, F#2 key=42 velocity: 0
@16320 $68.0 Channel: 7 Note on, F2 key=41 velocity: 100
@16380 $68.25 Channel: 7 Note off, F2 key=41 velocity: 0
@16560 $69.0 Channel: 7 Note on, F#2 key=42 velocity: 100
@16620 $69.25 Channel: 7 Note off, F#2 key=42 velocity: 0
@16800 $70.0 Channel: 7 Note on, G#2 key=44 velocity: 100
@16860 $70.25 Channel: 7 Note off, G#2 key=44 velocity: 0
@17040 $71.0 Channel: 7 Note on, G#2 key=44 velocity: 100
@17100 $71.25 Channel: 7 Note off, G#2 key=44 velocity: 0
@17520 $73.0 Channel: 7 Note on, F#2 key=42 velocity: 100
@17580 $73.25 Channel: 7 Note off, F#2 key=42 velocity: 0
@17760 $74.0 Channel: 7 Note on, G#2 key=44 velocity: 100
@17820 $74.25 Channel: 7 Note off, G#2 key=44 velocity: 0
@18000 $75.0 Channel: 7 Note on, F#2 key=42 velocity: 100
@18060 $75.25 Channel: 7 Note off, F#2 key=42 velocity: 0
@18240 $76.0 Channel: 7 Note on, F2 key=41 velocity: 100
@18300 $76.25 Channel: 7 Note off, F2 key=41 velocity: 0
@18480 $77.0 Channel: 7 Note on, F#2 key=42 velocity: 100
@18540 $77.25 Channel: 7 Note off, F#2 key=42 velocity: 0
@18720 $78.0 Channel: 7 Note on, G#2 key=44 velocity: 100
@18780 $78.25 Channel: 7 Note off, G#2 key=44 velocity: 0
@18960 $79.0 Channel: 7 Note on, G#2 key=44 velocity: 100
@19020 $79.25 Channel: 7 Note off, G#2 key=44 velocity: 0
@19200 $80.0 Channel: 7 Note on, C#3 key=49 velocity: 100
@19320 $80.5 Channel: 7 Note off, C#3 key=49 velocity: 0
@19440 $81.0 Channel: 7 Note on, A2 key=45 velocity: 100
@19500 $81.25 Channel: 7 Note off, A2 key=45 velocity: 0
@19680 $82.0 Channel: 7 Note on, B2 key=47 velocity: 100
@19740 $82.25 Channel: 7 Note off, B2 key=47 velocity: 0
@19740 $82.25 Channel: 7 Note on, D4 key=62 velocity: 100
@19770 $82.375 Channel: 7 Note off, D4 key=62 velocity: 0
@19800 $82.5 Channel: 7 Note on, G#2 key=44 velocity: 100
@19860 $82.75 Channel: 7 Note off, G#2 key=44 velocity: 0
@19860 $82.75 Channel: 7 Note on, D4 key=62 velocity: 100
@19890 $82.875 Channel: 7 Note off, D4 key=62 velocity: 0
@19920 $83.0 Channel: 7 Note on, A2 key=45 velocity: 100
@19980 $83.25 Channel: 7 Note off, A2 key=45 velocity: 0
@20160 $84.0 Channel: 7 Note on, E2 key=40 velocity: 75
@20220 $84.25 Channel: 7 Note off, E2 key=40 velocity: 0
@20400 $85.0 Channel: 7 Note on, A2 key=45 velocity: 75
@20460 $85.25 Channel: 7 Note off, A2 key=45 velocity: 0
@20640 $86.0 Channel: 7 Note on, B2 key=47 velocity: 75
@20640 $86.0 Channel: 7 Note on, B2 key=47 velocity: 100
@20700 $86.25 Channel: 7 Note off, B2 key=47 velocity: 0
@20700 $86.25 Channel: 7 Note off, B2 key=47 velocity: 0
@20700 $86.25 Channel: 7 Note on, D4 key=62 velocity: 75
@20700 $86.25 Channel: 7 Note on, D4 key=62 velocity: 100
@20730 $86.375 Channel: 7 Note off, D4 key=62 velocity: 0
@20730 $86.375 Channel: 7 Note off, D4 key=62 velocity: 0
@20760 $86.5 Channel: 7 Note on, G#2 key=44 velocity: 75
@20760 $86.5 Channel: 7 Note on, G#2 key=44 velocity: 100
@20820 $86.75 Channel: 7 Note off, G#2 key=44 velocity: 0
@20820 $86.75 Channel: 7 Note off, G#2 key=44 velocity: 0
@20820 $86.75 Channel: 7 Note on, D4 key=62 velocity: 75
@20820 $86.75 Channel: 7 Note on, D4 key=62 velocity: 100
@20850 $86.875 Channel: 7 Note off, D4 key=62 velocity: 0
@20850 $86.875 Channel: 7 Note off, D4 key=62 velocity: 0
@20880 $87.0 Channel: 7 Note on, A3 key=57 velocity: 75
@20910 $87.125 Channel: 7 Note off, A3 key=57 velocity: 0
@20940 $87.25 Channel: 7 Note on, F#3 key=54 velocity: 75
@20970 $87.375 Channel: 7 Note off, F#3 key=54 velocity: 0
@21000 $87.5 Channel: 7 Note on, D3 key=50 velocity: 75
@21030 $87.625 Channel: 7 Note off, D3 key=50 velocity: 0
@21060 $87.75 Channel: 7 Note on, E3 key=52 velocity: 75
@21090 $87.875 Channel: 7 Note off, E3 key=52 velocity: 0
@21120 $88.0 Channel: 7 Note on, A2 key=45 velocity: 75
@21150 $88.125 Channel: 7 Note off, A2 key=45 velocity: 0
@21180 $88.25 Channel: 7 Note on, A3 key=57 velocity: 75
@21210 $88.375 Channel: 7 Note off, A3 key=57 velocity: 0
@21360 $89.0 Channel: 7 Note on, F#2 key=42 velocity: 100
@21420 $89.25 Channel: 7 Note off, F#2 key=42 velocity: 0
@21600 $90.0 Channel: 7 Note on, G#2 key=44 velocity: 100
@21660 $90.25 Channel: 7 Note off, G#2 key=44 velocity: 0
@21840 $91.0 Channel: 7 Note on, F#2 key=42 velocity: 100
@21900 $91.25 Channel: 7 Note off, F#2 key=42 velocity: 0
@22080 $92.0 Channel: 7 Note on, C#2 key=37 velocity: 100
@22140 $92.25 Channel: 7 Note off, C#2 key=37 velocity: 0
@22320 $93.0 Channel: 7 Note on, B1 key=35 velocity: 100
@22380 $93.25 Channel: 7 Note off, B1 key=35 velocity: 0
@22560 $94.0 Channel: 7 Note on, B1 key=35 velocity: 100
@22560 $94.0 Channel: 7 Note on, B2 key=47 velocity: 100
@22620 $94.25 Channel: 7 Note off, B2 key=47 velocity: 0
@22620 $94.25 Channel: 7 Note off, B1 key=35 velocity: 0
@22800 $95.0 Channel: 7 Note on, C#2 key=37 velocity: 100
@22800 $95.0 Channel: 7 Note on, C#3 key=49 velocity: 100
@22860 $95.25 Channel: 7 Note off, C#3 key=49 velocity: 0
@22860 $95.25 Channel: 7 Note off, C#2 key=37 velocity: 0
@22920 $95.5 Channel: 7 Note on, C#2 key=37 velocity: 100
@22920 $95.5 Channel: 7 Note on, C#3 key=49 velocity: 100
@22980 $95.75 Channel: 7 Note off, C#3 key=49 velocity: 0
@22980 $95.75 Channel: 7 Note off, C#2 key=37 velocity: 0
@23040 $96.0 Channel: 7 Note on, A3 key=57 velocity: 100
@23100 $96.25 Channel: 7 Note off, A3 key=57 velocity: 0
@23285 $97.02083333333333 Channel: 7 Note on, A2 key=45 velocity: 100
@23345 $97.27083333333333 Channel: 7 Note off, A2 key=45 velocity: 0
@23525 $98.02083333333333 Channel: 7 Note on, B2 key=47 velocity: 100
@23585 $98.27083333333333 Channel: 7 Note off, B2 key=47 velocity: 0
@23585 $98.27083333333333 Channel: 7 Note on, D4 key=62 velocity: 100
@23615 $98.39583333333333 Channel: 7 Note off, D4 key=62 velocity: 0
@23645 $98.52083333333333 Channel: 7 Note on, G#2 key=44 velocity: 100
@23705 $98.77083333333333 Channel: 7 Note off, G#2 key=44 velocity: 0
@23705 $98.77083333333333 Channel: 7 Note on, D4 key=62 velocity: 100
@23735 $98.89583333333333 Channel: 7 Note off, D4 key=62 velocity: 0
@23765 $99.02083333333333 Channel: 7 Note on, A2 key=45 velocity: 100
@23825 $99.27083333333333 Channel: 7 Note off, A2 key=45 velocity: 0
@24005 $100.02083333333333 Channel: 7 Note on, E2 key=40 velocity: 75
@24065 $100.27083333333333 Channel: 7 Note off, E2 key=40 velocity: 0
@24245 $101.02083333333333 Channel: 7 Note on, A2 key=45 velocity: 75
@24305 $101.27083333333333 Channel: 7 Note off, A2 key=45 velocity: 0
@24485 $102.02083333333333 Channel: 7 Note on, B2 key=47 velocity: 75
@24485 $102.02083333333333 Channel: 7 Note on, B2 key=47 velocity: 100
@24545 $102.27083333333333 Channel: 7 Note off, B2 key=47 velocity: 0
@24545 $102.27083333333333 Channel: 7 Note off, B2 key=47 velocity: 0
@24545 $102.27083333333333 Channel: 7 Note on, D4 key=62 velocity: 75
@24545 $102.27083333333333 Channel: 7 Note on, D4 key=62 velocity: 100
@24575 $102.39583333333333 Channel: 7 Note off, D4 key=62 velocity: 0
@24575 $102.39583333333333 Channel: 7 Note off, D4 key=62 velocity: 0
@24605 $102.52083333333333 Channel: 7 Note on, G#2 key=44 velocity: 75
@24605 $102.52083333333333 Channel: 7 Note on, G#2 key=44 velocity: 100
@24665 $102.77083333333333 Channel: 7 Note off, G#2 key=44 velocity: 0
@24665 $102.77083333333333 Channel: 7 Note off, G#2 key=44 velocity: 0
@24665 $102.77083333333333 Channel: 7 Note on, D4 key=62 velocity: 75
@24665 $102.77083333333333 Channel: 7 Note on, D4 key=62 velocity: 100
@24695 $102.89583333333333 Channel: 7 Note off, D4 key=62 velocity: 0
@24695 $102.89583333333333 Channel: 7 Note off, D4 key=62 velocity: 0
@24725 $103.02083333333333 Channel: 7 Note on, A3 key=57 velocity: 75
@24755 $103.14583333333333 Channel: 7 Note off, A3 key=57 velocity: 0
@24785 $103.27083333333333 Channel: 7 Note on, F#3 key=54 velocity: 75
@24815 $103.39583333333333 Channel: 7 Note off, F#3 key=54 velocity: 0
@24845 $103.52083333333333 Channel: 7 Note on, D3 key=50 velocity: 75
@24875 $103.64583333333333 Channel: 7 Note off, D3 key=50 velocity: 0
@24905 $103.77083333333333 Channel: 7 Note on, E3 key=52 velocity: 75
@24935 $103.89583333333333 Channel: 7 Note off, E3 key=52 velocity: 0
@24965 $104.02083333333333 Channel: 7 Note on, A2 key=45 velocity: 75
@24995 $104.14583333333333 Channel: 7 Note off, A2 key=45 velocity: 0
@25025 $104.27083333333333 Channel: 7 Note on, A3 key=57 velocity: 75
@25055 $104.39583333333333 Channel: 7 Note off, A3 key=57 velocity: 0
@25205 $105.02083333333333 Channel: 7 Note on, F#2 key=42 velocity: 100
@25265 $105.27083333333333 Channel: 7 Note off, F#2 key=42 velocity: 0
@25445 $106.02083333333333 Channel: 7 Note on, G#2 key=44 velocity: 100
@25505 $106.27083333333333 Channel: 7 Note off, G#2 key=44 velocity: 0
@25685 $107.02083333333333 Channel: 7 Note on, F#2 key=42 velocity: 100
@25745 $107.27083333333333 Channel: 7 Note off, F#2 key=42 velocity: 0
@25925 $108.02083333333333 Channel: 7 Note on, C#2 key=37 velocity: 100
@25985 $108.27083333333333 Channel: 7 Note off, C#2 key=37 velocity: 0
@26165 $109.02083333333333 Channel: 7 Note on, B1 key=35 velocity: 100
@26225 $109.27083333333333 Channel: 7 Note off, B1 key=35 velocity: 0
@26405 $110.02083333333333 Channel: 7 Note on, B1 key=35 velocity: 100
@26405 $110.02083333333333 Channel: 7 Note on, B2 key=47 velocity: 100
@26465 $110.27083333333333 Channel: 7 Note off, B2 key=47 velocity: 0
@26465 $110.27083333333333 Channel: 7 Note off, B1 key=35 velocity: 0
@26645 $111.02083333333333 Channel: 7 Note on, C#2 key=37 velocity: 100
@26645 $111.02083333333333 Channel: 7 Note on, C#3 key=49 velocity: 100
@26705 $111.27083333333333 Channel: 7 Note off, C#3 key=49 velocity: 0
@26705 $111.27083333333333 Channel: 7 Note off, C#2 key=37 velocity: 0
@26765 $111.52083333333333 Channel: 7 Note on, C#2 key=37 velocity: 100
@26765 $111.52083333333333 Channel: 7 Note on, C#3 key=49 velocity: 100
@26825 $111.77083333333333 Channel: 7 Note off, C#3 key=49 velocity: 0
@26825 $111.77083333333333 Channel: 7 Note off, C#2 key=37 velocity: 0
@26885 $112.02083333333333 Channel: 7 Note on, A3 key=57 velocity: 100
@26945 $112.27083333333333 Channel: 7 Note off, A3 key=57 velocity: 0
@27140 $113.08333333333333 Channel: 7 Note on, A2 key=45 velocity: 100
@27200 $113.33333333333333 Channel: 7 Note off, A2 key=45 velocity: 0
@27380 $114.08333333333333 Channel: 7 Note on, A2 key=45 velocity: 100
@27440 $114.33333333333333 Channel: 7 Note off, A2 key=45 velocity: 0
@27620 $115.08333333333333 Channel: 7 Note on, D3 key=50 velocity: 100
@27680 $115.33333333333333 Channel: 7 Note off, D3 key=50 velocity: 0
@27740 $115.58333333333333 Channel: 7 Note on, D#3 key=51 velocity: 100
@27800 $115.83333333333333 Channel: 7 Note off, D#3 key=51 velocity: 0
@27855 $116.0625 Channel: 7 Note on, E2 key=40 velocity: 100
@27915 $116.3125 Channel: 7 Note off, E2 key=40 velocity: 0
@28100 $117.08333333333333 Channel: 7 Note on, A2 key=45 velocity: 100
@28160 $117.33333333333333 Channel: 7 Note off, A2 key=45 velocity: 0
@28335 $118.0625 Channel: 7 Note on, A2 key=45 velocity: 100
@28395 $118.3125 Channel: 7 Note off, A2 key=45 velocity: 0
@28580 $119.08333333333333 Channel: 7 Note on, D3 key=50 velocity: 100
@28620 $119.25 Channel: 7 Note on, D3 key=50 velocity: 100
@28625 $119.27083333333333 Channel: 7 Note off, D3 key=50 velocity: 0
@28650 $119.375 Channel: 7 Note off, D3 key=50 velocity: 0
@28680 $119.5 Channel: 7 Note on, E2 key=40 velocity: 100
@28710 $119.625 Channel: 7 Note off, E2 key=40 velocity: 0
@28740 $119.75 Channel: 7 Note on, E2 key=40 velocity: 100
@28770 $119.875 Channel: 7 Note off, E2 key=40 velocity: 0
@28800 $120.0 Channel: 7 Note on, A2 key=45 velocity: 100
@28920 $120.5 Channel: 7 Note off, A2 key=45 velocity: 0
@29060 $121.08333333333333 Channel: 7 Note on, A2 key=45 velocity: 100
@29120 $121.33333333333333 Channel: 7 Note off, A2 key=45 velocity: 0
@29300 $122.08333333333333 Channel: 7 Note on, A2 key=45 velocity: 100
@29360 $122.33333333333333 Channel: 7 Note off, A2 key=45 velocity: 0
@29540 $123.08333333333333 Channel: 7 Note on, D3 key=50 velocity: 100
@29600 $123.33333333333333 Channel: 7 Note off, D3 key=50 velocity: 0
@29780 $124.08333333333333 Channel: 7 Note on, E2 key=40 velocity: 100
@29840 $124.33333333333333 Channel: 7 Note off, E2 key=40 velocity: 0
@30020 $125.08333333333333 Channel: 7 Note on, A2 key=45 velocity: 100
@30080 $125.33333333333333 Channel: 7 Note off, A2 key=45 velocity: 0
@30260 $126.08333333333333 Channel: 7 Note on, A2 key=45 velocity: 100
@30320 $126.33333333333333 Channel: 7 Note off, A2 key=45 velocity: 0
@30500 $127.08333333333333 Channel: 7 Note on, D3 key=50 velocity: 100
@30540 $127.25 Channel: 7 Note on, D3 key=50 velocity: 100
@30545 $127.27083333333333 Channel: 7 Note off, D3 key=50 velocity: 0
@30570 $127.375 Channel: 7 Note off, D3 key=50 velocity: 0
@30600 $127.5 Channel: 7 Note on, E3 key=52 velocity: 100
@30630 $127.625 Channel: 7 Note off, E3 key=52 velocity: 0
@30660 $127.75 Channel: 7 Note on, E3 key=52 velocity: 100
@30690 $127.875 Channel: 7 Note off, E3 key=52 velocity: 0
@30720 $128.0 Channel: 7 Note on, A2 key=45 velocity: 100
@30780 $128.25 Channel: 7 Note off, A2 key=45 velocity: 0
@30960 $129.0 Channel: 7 Note on, A2 key=45 velocity: 90
@31020 $129.25 Channel: 7 Note off, A2 key=45 velocity: 0
@31200 $130.0 Channel: 7 Note on, A2 key=45 velocity: 90
@31260 $130.25 Channel: 7 Note off, A2 key=45 velocity: 0
@31440 $131.0 Channel: 7 Note on, A2 key=45 velocity: 90
@31500 $131.25 Channel: 7 Note off, A2 key=45 velocity: 0
@31560 $131.5 Channel: 7 Note on, A2 key=45 velocity: 90
@31620 $131.75 Channel: 7 Note off, A2 key=45 velocity: 0
@31680 $132.0 Channel: 7 Note on, A2 key=45 velocity: 90
@31740 $132.25 Channel: 7 Note off, A2 key=45 velocity: 0
@31920 $133.0 Channel: 7 Note on, E2 key=40 velocity: 90
@31980 $133.25 Channel: 7 Note off, E2 key=40 velocity: 0
@32160 $134.0 Channel: 7 Note on, E2 key=40 velocity: 90
@32220 $134.25 Channel: 7 Note off, E2 key=40 velocity: 0
@32400 $135.0 Channel: 7 Note on, E2 key=40 velocity: 90
@32460 $135.25 Channel: 7 Note off, E2 key=40 velocity: 0
@32520 $135.5 Channel: 7 Note on, B1 key=35 velocity: 90
@32580 $135.75 Channel: 7 Note off, B1 key=35 velocity: 0
@32640 $136.0 Channel: 7 Note on, E2 key=40 velocity: 90
@32700 $136.25 Channel: 7 Note off, E2 key=40 velocity: 0
@32880 $137.0 Channel: 7 Note on, A2 key=45 velocity: 90
@32940 $137.25 Channel: 7 Note off, A2 key=45 velocity: 0
@33120 $138.0 Channel: 7 Note on, A2 key=45 velocity: 90
@33180 $138.25 Channel: 7 Note off, A2 key=45 velocity: 0
@33360 $139.0 Channel: 7 Note on, A2 key=45 velocity: 90
@33420 $139.25 Channel: 7 Note off, A2 key=45 velocity: 0
@33480 $139.5 Channel: 7 Note on, A2 key=45 velocity: 90
@33540 $139.75 Channel: 7 Note off, A2 key=45 velocity: 0
@33600 $140.0 Channel: 7 Note on, A2 key=45 velocity: 90
@33660 $140.25 Channel: 7 Note off, A2 key=45 velocity: 0
@33840 $141.0 Channel: 7 Note on, E2 key=40 velocity: 90
@33900 $141.25 Channel: 7 Note off, E2 key=40 velocity: 0
@34080 $142.0 Channel: 7 Note on, E2 key=40 velocity: 90
@34140 $142.25 Channel: 7 Note off, E2 key=40 velocity: 0
@34320 $143.0 Channel: 7 Note on, E2 key=40 velocity: 90
@34380 $143.25 Channel: 7 Note off, E2 key=40 velocity: 0
@34440 $143.5 Channel: 7 Note on, B2 key=47 velocity: 90
@34500 $143.75 Channel: 7 Note off, B2 key=47 velocity: 0
@34560 $144.0 Channel: 7 Note on, E2 key=40 velocity: 90
@34620 $144.25 Channel: 7 Note off, E2 key=40 velocity: 0
@34800 $145.0 Channel: 7 Note on, C2 key=36 velocity: 90
@34860 $145.25 Channel: 7 Note off, C2 key=36 velocity: 0
@34920 $145.5 Channel: 7 Note on, E2 key=40 velocity: 90
@34980 $145.75 Channel: 7 Note off, E2 key=40 velocity: 0
@35040 $146.0 Channel: 7 Note on, G2 key=43 velocity: 90
@35100 $146.25 Channel: 7 Note off, G2 key=43 velocity: 0
@35280 $147.0 Channel: 7 Note on, C2 key=36 velocity: 90
@35340 $147.25 Channel: 7 Note off, C2 key=36 velocity: 0
@35400 $147.5 Channel: 7 Note on, E2 key=40 velocity: 90
@35460 $147.75 Channel: 7 Note off, E2 key=40 velocity: 0
@35520 $148.0 Channel: 7 Note on, G2 key=43 velocity: 90
@35520 $148.0 Channel: 7 Note on, G1 key=31 velocity: 90
@35580 $148.25 Channel: 7 Note off, G1 key=31 velocity: 0
@35580 $148.25 Channel: 7 Note off, G2 key=43 velocity: 0
@35760 $149.0 Channel: 7 Note on, A2 key=45 velocity: 90
@35820 $149.25 Channel: 7 Note off, A2 key=45 velocity: 0
@35880 $149.5 Channel: 7 Note on, C3 key=48 velocity: 90
@35940 $149.75 Channel: 7 Note off, C3 key=48 velocity: 0
@36000 $150.0 Channel: 7 Note on, E3 key=52 velocity: 90
@36000 $150.0 Channel: 7 Note on, E2 key=40 velocity: 90
@36060 $150.25 Channel: 7 Note off, E2 key=40 velocity: 0
@36060 $150.25 Channel: 7 Note off, E3 key=52 velocity: 0
@36240 $151.0 Channel: 7 Note on, A2 key=45 velocity: 90
@36300 $151.25 Channel: 7 Note off, A2 key=45 velocity: 0
@36360 $151.5 Channel: 7 Note on, C3 key=48 velocity: 90
@36420 $151.75 Channel: 7 Note off, C3 key=48 velocity: 0
@36480 $152.0 Channel: 7 Note on, E3 key=52 velocity: 90
@36480 $152.0 Channel: 7 Note on, E2 key=40 velocity: 90
@36540 $152.25 Channel: 7 Note off, E2 key=40 velocity: 0
@36540 $152.25 Channel: 7 Note off, E3 key=52 velocity: 0
@36720 $153.0 Channel: 7 Note on, A2 key=45 velocity: 90
@36780 $153.25 Channel: 7 Note off, A2 key=45 velocity: 0
@36960 $154.0 Channel: 7 Note on, A2 key=45 velocity: 90
@37020 $154.25 Channel: 7 Note off, A2 key=45 velocity: 0
@37200 $155.0 Channel: 7 Note on, A2 key=45 velocity: 90
@37260 $155.25 Channel: 7 Note off, A2 key=45 velocity: 0
@37320 $155.5 Channel: 7 Note on, A2 key=45 velocity: 90
@37380 $155.75 Channel: 7 Note off, A2 key=45 velocity: 0
@37440 $156.0 Channel: 7 Note on, F2 key=41 velocity: 90
@37500 $156.25 Channel: 7 Note off, F2 key=41 velocity: 0
@37680 $157.0 Channel: 7 Note on, E2 key=40 velocity: 90
@37740 $157.25 Channel: 7 Note off, E2 key=40 velocity: 0
@37800 $157.5 Channel: 7 Note on, D2 key=38 velocity: 90
@37860 $157.75 Channel: 7 Note off, D2 key=38 velocity: 0
@37920 $158.0 Channel: 7 Note on, C2 key=36 velocity: 90
@37980 $158.25 Channel: 7 Note off, C2 key=36 velocity: 0
@38040 $158.5 Channel: 7 Note on, D2 key=38 velocity: 90
@38100 $158.75 Channel: 7 Note off, D2 key=38 velocity: 0
@38160 $159.0 Channel: 7 Note on, E2 key=40 velocity: 90
@38220 $159.25 Channel: 7 Note off, E2 key=40 velocity: 0
@38220 $159.25 Channel: 7 Note on, E2 key=40 velocity: 90
@38280 $159.5 Channel: 7 Note off, E2 key=40 velocity: 0
@38280 $159.5 Channel: 7 Note on, E2 key=40 velocity: 90
@38340 $159.75 Channel: 7 Note off, E2 key=40 velocity: 0
@38340 $159.75 Channel: 7 Note on, E2 key=40 velocity: 90
@38400 $160.0 Channel: 7 Note off, E2 key=40 velocity: 0
@38400 $160.0 Channel: 7 Note on, A2 key=45 velocity: 90
@38400 $160.0 Channel: 7 Note on, A1 key=33 velocity: 90
@38460 $160.25 Channel: 7 Note off, A1 key=33 velocity: 0
@38460 $160.25 Channel: 7 Note off, A2 key=45 velocity: 0
@40560 $169.0 Channel: 7 Note on, A2 key=45 velocity: 100
@40620 $169.25 Channel: 7 Note off, A2 key=45 velocity: 0
@40800 $170.0 Channel: 7 Note on, A2 key=45 velocity: 100
@40860 $170.25 Channel: 7 Note off, A2 key=45 velocity: 0
@41040 $171.0 Channel: 7 Note on, A2 key=45 velocity: 100
@41100 $171.25 Channel: 7 Note off, A2 key=45 velocity: 0
@41160 $171.5 Channel: 7 Note on, A2 key=45 velocity: 100
@41220 $171.75 Channel: 7 Note off, A2 key=45 velocity: 0
@41280 $172.0 Channel: 7 Note on, A2 key=45 velocity: 100
@41340 $172.25 Channel: 7 Note off, A2 key=45 velocity: 0
@41520 $173.0 Channel: 7 Note on, E2 key=40 velocity: 100
@41580 $173.25 Channel: 7 Note off, E2 key=40 velocity: 0
@41640 $173.5 Channel: 7 Note on, D2 key=38 velocity: 100
@41700 $173.75 Channel: 7 Note off, D2 key=38 velocity: 0
@41760 $174.0 Channel: 7 Note on, C2 key=36 velocity: 100
@41820 $174.25 Channel: 7 Note off, C2 key=36 velocity: 0
@41880 $174.5 Channel: 7 Note on, D2 key=38 velocity: 100
@41940 $174.75 Channel: 7 Note off, D2 key=38 velocity: 0
@42000 $175.0 Channel: 7 Note on, E2 key=40 velocity: 100
@42060 $175.25 Channel: 7 Note off, E2 key=40 velocity: 0
@42060 $175.25 Channel: 7 Note on, E2 key=40 velocity: 100
@42120 $175.5 Channel: 7 Note off, E2 key=40 velocity: 0
@42120 $175.5 Channel: 7 Note on, E2 key=40 velocity: 100
@42180 $175.75 Channel: 7 Note off, E2 key=40 velocity: 0
@42180 $175.75 Channel: 7 Note on, E2 key=40 velocity: 100
@42240 $176.0 Channel: 7 Note off, E2 key=40 velocity: 0
@42240 $176.0 Channel: 7 Note on, A1 key=33 velocity: 100
@42240 $176.0 Channel: 7 Note on, A2 key=45 velocity: 100
@42300 $176.25 Channel: 7 Note off, A2 key=45 velocity: 0
@42300 $176.25 Channel: 7 Note off, A1 key=33 velocity: 0
@46320 $193.0 Channel: 7 Note on, A2 key=45 velocity: 100
@46380 $193.25 Channel: 7 Note off, A2 key=45 velocity: 0
@46560 $194.0 Channel: 7 Note on, A2 key=45 velocity: 100
@46620 $194.25 Channel: 7 Note off, A2 key=45 velocity: 0
@46800 $195.0 Channel: 7 Note on, A2 key=45 velocity: 100
@46860 $195.25 Channel: 7 Note off, A2 key=45 velocity: 0
@47040 $196.0 Channel: 7 Note on, D2 key=38 velocity: 100
@47100 $196.25 Channel: 7 Note off, D2 key=38 velocity: 0
@47280 $197.0 Channel: 7 Note on, A2 key=45 velocity: 100
@47340 $197.25 Channel: 7 Note off, A2 key=45 velocity: 0
@47520 $198.0 Channel: 7 Note on, E2 key=40 velocity: 100
@47580 $198.25 Channel: 7 Note off, E2 key=40 velocity: 0
@47760 $199.0 Channel: 7 Note on, A2 key=45 velocity: 100
@47820 $199.25 Channel: 7 Note off, A2 key=45 velocity: 0
@48000 $200.0 Channel: 7 Note on, A2 key=45 velocity: 100
@48060 $200.25 Channel: 7 Note off, A2 key=45 velocity: 0
@48240 $201.0 Channel: 7 Note on, A2 key=45 velocity: 100
@48300 $201.25 Channel: 7 Note off, A2 key=45 velocity: 0
@48480 $202.0 Channel: 7 Note on, D2 key=38 velocity: 100
@48540 $202.25 Channel: 7 Note off, D2 key=38 velocity: 0
@48720 $203.0 Channel: 7 Note on, A2 key=45 velocity: 100
@48780 $203.25 Channel: 7 Note off, A2 key=45 velocity: 0
@48960 $204.0 Channel: 7 Note on, E2 key=40 velocity: 100
@49020 $204.25 Channel: 7 Note off, E2 key=40 velocity: 0
@49200 $205.0 Channel: 7 Note on, A2 key=45 velocity: 100
@49260 $205.25 Channel: 7 Note off, A2 key=45 velocity: 0
@49320 $205.5 Channel: 7 Note on, E2 key=40 velocity: 100
@49380 $205.75 Channel: 7 Note off, E2 key=40 velocity: 0
@49440 $206.0 Channel: 7 Note on, A2 key=45 velocity: 100
@49500 $206.25 Channel: 7 Note off, A2 key=45 velocity: 0
@49560 $206.5 Channel: 7 Note on, E2 key=40 velocity: 100
@49620 $206.75 Channel: 7 Note off, E2 key=40 velocity: 0
@49680 $207.0 Channel: 7 Note on, A2 key=45 velocity: 100
@49740 $207.25 Channel: 7 Note off, A2 key=45 velocity: 0
@49800 $207.5 Channel: 7 Note on, E2 key=40 velocity: 100
@49860 $207.75 Channel: 7 Note off, E2 key=40 velocity: 0
@49920 $208.0 Channel: 7 Note on, A2 key=45 velocity: 100
@49980 $208.25 Channel: 7 Note off, A2 key=45 velocity: 0
@50040 $208.5 Channel: 7 Note on, E2 key=40 velocity: 100
@50100 $208.75 Channel: 7 Note off, E2 key=40 velocity: 0
@50160 $209.0 Channel: 7 Note on, A2 key=45 velocity: 100
@50220 $209.25 Channel: 7 Note off, A2 key=45 velocity: 0
@50280 $209.5 Channel: 7 Note on, E2 key=40 velocity: 100
@50340 $209.75 Channel: 7 Note off, E2 key=40 velocity: 0
@50400 $210.0 Channel: 7 Note on, A2 key=45 velocity: 100
@50460 $210.25 Channel: 7 Note off, A2 key=45 velocity: 0
@50520 $210.5 Channel: 7 Note on, E2 key=40 velocity: 100
@50580 $210.75 Channel: 7 Note off, E2 key=40 velocity: 0
@50640 $211.0 Channel: 7 Note on, E2 key=40 velocity: 100
@50700 $211.25 Channel: 7 Note off, E2 key=40 velocity: 0
@50760 $211.5 Channel: 7 Note on, B1 key=35 velocity: 100
@50820 $211.75 Channel: 7 Note off, B1 key=35 velocity: 0
@50880 $212.0 Channel: 7 Note on, A2 key=45 velocity: 100
@50940 $212.25 Channel: 7 Note off, A2 key=45 velocity: 0
@51120 $213.0 Channel: 7 Note on, A2 key=45 velocity: 100
@51180 $213.25 Channel: 7 Note off, A2 key=45 velocity: 0
@51360 $214.0 Channel: 7 Note on, A2 key=45 velocity: 100
@51420 $214.25 Channel: 7 Note off, A2 key=45 velocity: 0
@51600 $215.0 Channel: 7 Note on, D2 key=38 velocity: 100
@51660 $215.25 Channel: 7 Note off, D2 key=38 velocity: 0
@51840 $216.0 Channel: 7 Note on, A2 key=45 velocity: 100
@51900 $216.25 Channel: 7 Note off, A2 key=45 velocity: 0
@52080 $217.0 Channel: 7 Note on, E2 key=40 velocity: 100
@52140 $217.25 Channel: 7 Note off, E2 key=40 velocity: 0
@52320 $218.0 Channel: 7 Note on, A2 key=45 velocity: 100
@52380 $218.25 Channel: 7 Note off, A2 key=45 velocity: 0
@52560 $219.0 Channel: 7 Note on, A2 key=45 velocity: 100
@52620 $219.25 Channel: 7 Note off, A2 key=45 velocity: 0
@52800 $220.0 Channel: 7 Note on, A2 key=45 velocity: 100
@52860 $220.25 Channel: 7 Note off, A2 key=45 velocity: 0
@53040 $221.0 Channel: 7 Note on, A2 key=45 velocity: 100
@53100 $221.25 Channel: 7 Note off, A2 key=45 velocity: 0
@53160 $221.5 Channel: 7 Note on, A2 key=45 velocity: 100
@53220 $221.75 Channel: 7 Note off, A2 key=45 velocity: 0
@53280 $222.0 Channel: 7 Note on, A2 key=45 velocity: 100
@53340 $222.25 Channel: 7 Note off, A2 key=45 velocity: 0
@53400 $222.5 Channel: 7 Note on, A2 key=45 velocity: 127
@53640 $223.5 Channel: 7 Note off, A2 key=45 velocity: 0
@53640 $223.5 Other meta message: class javax.sound.midi.Track$ImmutableEndOfTrack

Track 19: size = 3
@0 $0.0 Other meta message: class javax.sound.midi.MetaMessage
@0 $0.0 Other meta message: class javax.sound.midi.MetaMessage
@0 $0.0 Other meta message: class javax.sound.midi.Track$ImmutableEndOfTrack

Track 20: size = 3
@0 $0.0 Other meta message: class javax.sound.midi.MetaMessage
@0 $0.0 Other meta message: class javax.sound.midi.MetaMessage
@0 $0.0 Other meta message: class javax.sound.midi.Track$ImmutableEndOfTrack

Track 21: size = 3
@0 $0.0 Other meta message: class javax.sound.midi.MetaMessage
@0 $0.0 Other meta message: class javax.sound.midi.MetaMessage
@0 $0.0 Other meta message: class javax.sound.midi.Track$ImmutableEndOfTrack

Track 22: size = 3
@0 $0.0 Other meta message: class javax.sound.midi.MetaMessage
@0 $0.0 Other meta message: class javax.sound.midi.MetaMessage
@0 $0.0 Other meta message: class javax.sound.midi.Track$ImmutableEndOfTrack

Track 23: size = 3
@0 $0.0 Other meta message: class javax.sound.midi.MetaMessage
@0 $0.0 Other meta message: class javax.sound.midi.MetaMessage
@0 $0.0 Other meta message: class javax.sound.midi.Track$ImmutableEndOfTrack

Track 24: size = 3
@0 $0.0 Other meta message: class javax.sound.midi.MetaMessage
@0 $0.0 Other meta message: class javax.sound.midi.MetaMessage
@0 $0.0 Other meta message: class javax.sound.midi.Track$ImmutableEndOfTrack

The total size of the sequence is 13183